<svg width="367" height="196" viewBox="0 0 367 196" fill="none" xmlns="http://www.w3.org/2000/svg">
<g clip-path="url(#clip0_12089_36848)">
<rect width="367" height="196" rx="16" fill="white"/>
<rect width="367" height="196" rx="16" fill="url(#paint0_linear_12089_36848)"/>
<g opacity="0.8" filter="url(#filter0_ddddd_12089_36848)">
<circle cx="356" cy="56.0002" r="25" transform="rotate(-30 356 56.0002)" fill="#FFCE6D"/>
<circle cx="356" cy="56.0002" r="25" transform="rotate(-30 356 56.0002)" fill="url(#paint1_linear_12089_36848)"/>
<circle cx="356" cy="56.0002" r="25" transform="rotate(-30 356 56.0002)" fill="url(#paint2_linear_12089_36848)"/>
<path d="M354.63 65.1895C354.168 62.9363 355.8 63.3249 356.764 63.4322C358.288 63.6017 362.336 61.2649 363.456 59.5684C364.739 57.6252 365.273 58.1696 365.652 58.8257C368.34 64.622 365.629 67.2371 363.283 68.5911C359.503 70.249 355.091 67.4426 354.63 65.1895Z" fill="#23191A"/>
<path d="M361.921 53.1271C360.711 54.6661 359.125 54.0417 358.484 53.5371C349.901 49.5698 352.849 41.0448 356.556 38.3794C364.595 33.2128 369.418 40.0511 370.504 43.4479C370.944 45.1186 371.012 48.5086 367.765 48.7035C364.519 48.8983 362.517 51.7338 361.921 53.1271Z" fill="white"/>
<path d="M359.407 49.2843C359.51 48.796 358.072 41.181 365.411 43.6377" stroke="black" stroke-width="3" stroke-linecap="round"/>
<path d="M350.365 60.3444C352.303 60.0651 352.555 58.3801 352.438 57.5725C353.294 48.1555 344.438 46.4459 340.276 48.3239C331.781 52.703 335.292 60.2987 337.691 62.9379C338.918 64.154 341.82 65.9077 343.612 63.1934C345.404 60.4792 348.86 60.1631 350.365 60.3444Z" fill="white"/>
<path d="M340.486 59.125C340.719 58.6832 341.413 50.9648 347.804 55.331" stroke="black" stroke-width="3" stroke-linecap="round"/>
</g>
<g opacity="0.8" filter="url(#filter1_ddddd_12089_36848)">
<circle cx="244.151" cy="31.1506" r="25" transform="rotate(60 244.151 31.1506)" fill="#FFCE6D"/>
<circle cx="244.151" cy="31.1506" r="25" transform="rotate(60 244.151 31.1506)" fill="url(#paint3_linear_12089_36848)"/>
<circle cx="244.151" cy="31.1506" r="25" transform="rotate(60 244.151 31.1506)" fill="url(#paint4_linear_12089_36848)"/>
<path fill-rule="evenodd" clip-rule="evenodd" d="M236.57 15.1611C237.222 15.5378 237.445 16.3718 237.068 17.0239C234.857 20.8532 232.945 26.822 234.155 32.3492C235.328 37.7043 239.518 43.0178 250.314 45.5455C251.047 45.7172 251.502 46.4508 251.331 47.1841C251.159 47.9174 250.425 48.3727 249.692 48.201C238.113 45.49 232.937 39.535 231.491 32.9326C230.083 26.5024 232.301 19.8249 234.707 15.6598C235.084 15.0077 235.918 14.7844 236.57 15.1611Z" fill="black"/>
<path d="M249.351 36.4476C248.186 35.1336 248.616 33.854 248.977 33.3785C251.741 26.5479 258.117 30.5443 260.167 34.2258C264.159 42.1064 259.191 45.1748 256.697 45.5561C255.468 45.661 252.958 45.1542 252.747 42.2875C252.536 39.4208 250.395 37.1998 249.351 36.4476Z" fill="white"/>
<path d="M252.504 38.2015C254.093 39.4709 256.604 40.2791 257.965 39.1821C259.133 38.2418 258.112 36.6107 257.455 35.9125C257.53 33.4743 255.919 32.9506 255.104 32.9933C252.819 33.2488 252.419 36.5719 252.504 38.2015Z" fill="black"/>
<path d="M243.787 24.4146C244.034 26.1532 245.287 26.6544 245.883 26.6876C252.877 29.0068 253.963 21.5606 252.487 17.6138C249.069 9.46771 243.514 11.2645 241.607 12.9177C240.731 13.7858 239.491 16.0264 241.539 18.0439C243.586 20.0615 243.891 23.1317 243.787 24.4146Z" fill="white"/>
<path d="M244.494 20.8755C244.556 18.8434 245.567 16.4069 247.285 16.0799C248.757 15.7997 249.339 17.6341 249.445 18.5866C251.351 20.1092 250.706 21.6756 250.146 22.2687C248.471 23.8444 245.68 21.9965 244.494 20.8755Z" fill="black"/>
</g>
<g opacity="0.5" filter="url(#filter2_f_12089_36848)">
<path d="M372 192.5C521 160.5 231.428 472 116 472C0.572487 472 -93 378.428 -93 263C-93 147.572 0.572487 54 116 54C231.428 54 204 263 372 192.5Z" fill="#FCEBE9"/>
</g>
<g opacity="0.2" filter="url(#filter3_f_12089_36848)">
<path d="M506.124 163C506.124 278.428 412.551 372 297.124 372C181.696 372 -7.87932 192 153.122 66.5C263.625 23.5 181.696 -46 297.124 -46C412.551 -46 506.124 47.5725 506.124 163Z" fill="#FCEBE9"/>
</g>
<path d="M431.884 146.29V209H-34.4697V143.521C-21.9219 140.822 -12.5573 141.512 -8.51599 147.231C-4.76791 145.204 0.00485229 143.704 5.31393 142.885C13.5196 141.578 22.7851 141.804 30.4334 143.796C39.5109 146.157 45.6993 150.853 47.1558 155.838C47.7356 157.758 47.5603 159.714 46.6395 161.601C48.1473 159.348 53.5186 158.319 58.2642 158.746C59.792 158.876 61.2423 159.171 62.5106 159.611C62.9183 159.756 63.3087 159.913 63.6799 160.08C67.9263 162.004 69.2598 165.231 68.2306 168.073C67.1126 171.158 63.7141 173.91 60.3669 176.582C66.9382 175.364 75.0687 176.789 78.6347 179.774C81.3699 182.077 81.1374 185.101 78.4295 187.391C88.6148 182.52 105.597 183.585 105.241 191.036C111.495 187.408 134.207 191.4 131.623 198.626C134.813 196.588 146.714 200.403 145.606 204.895C150.106 201.849 157.723 197.943 165.05 198.113C175.15 198.347 186.782 199.741 188.881 204.62C193.37 201.247 205.224 202.738 208.814 206.367C208.882 206.436 208.944 206.504 209.005 206.573C212.014 202.419 222.975 201.65 232.364 200.884C241.527 200.14 248.433 202.034 252.83 204.377C256.523 201.832 263.627 200.017 265.792 201.397C263.207 194.173 285.919 190.181 292.173 193.807C291.831 186.357 308.816 185.291 318.954 190.159C316.246 187.87 316.007 184.846 318.749 182.541C322.301 179.555 330.445 178.133 337.016 179.348C333.683 176.676 330.284 173.925 329.153 170.839C328.021 167.752 329.707 164.207 334.873 162.379C340.039 160.551 348.771 161.39 350.761 164.369C348.87 160.571 350.224 156.488 353.971 153.054C356.939 150.328 361.415 148.011 366.964 146.564C370.417 145.675 374.181 145.118 378.055 144.922C388.25 144.389 399.031 146.216 405.913 149.997C409.971 144.283 419.336 143.598 431.884 146.29Z" fill="#272A7F"/>
<path d="M431.884 146.29V209H-34.4697V143.521C-21.9219 140.822 -12.5573 141.512 -8.51599 147.231C-4.76791 145.204 0.00485229 143.704 5.31393 142.885C13.5196 141.578 22.7851 141.804 30.4334 143.796C39.5109 146.157 45.6993 150.853 47.1558 155.838C47.7356 157.758 47.5603 159.714 46.6395 161.601C48.1473 159.348 53.5186 158.319 58.2642 158.746C59.792 158.876 61.2423 159.171 62.5106 159.611C62.9183 159.756 63.3087 159.913 63.6799 160.08C67.9263 162.004 69.2598 165.231 68.2306 168.073C67.1126 171.158 63.7141 173.91 60.3669 176.582C66.9382 175.364 75.0687 176.789 78.6347 179.774C81.3699 182.077 81.1374 185.101 78.4295 187.391C88.6148 182.52 105.597 183.585 105.241 191.036C111.495 187.408 134.207 191.4 131.623 198.626C134.813 196.588 146.714 200.403 145.606 204.895C150.106 201.849 157.723 197.943 165.05 198.113C175.15 198.347 186.782 199.741 188.881 204.62C193.37 201.247 205.224 202.738 208.814 206.367C208.882 206.436 208.944 206.504 209.005 206.573C212.014 202.419 222.975 201.65 232.364 200.884C241.527 200.14 248.433 202.034 252.83 204.377C256.523 201.832 263.627 200.017 265.792 201.397C263.207 194.173 285.919 190.181 292.173 193.807C291.831 186.357 308.816 185.291 318.954 190.159C316.246 187.87 316.007 184.846 318.749 182.541C322.301 179.555 330.445 178.133 337.016 179.348C333.683 176.676 330.284 173.925 329.153 170.839C328.021 167.752 329.707 164.207 334.873 162.379C340.039 160.551 348.771 161.39 350.761 164.369C348.87 160.571 350.224 156.488 353.971 153.054C356.939 150.328 361.415 148.011 366.964 146.564C370.417 145.675 374.181 145.118 378.055 144.922C388.25 144.389 399.031 146.216 405.913 149.997C409.971 144.283 419.336 143.598 431.884 146.29Z" fill="url(#paint5_linear_12089_36848)"/>
<circle cx="174.151" cy="97.0753" r="32.0753" fill="url(#paint6_linear_12089_36848)" fill-opacity="0.2"/>
<g filter="url(#filter4_f_12089_36848)">
<ellipse cx="294.368" cy="152.438" rx="64.1349" ry="105.265" transform="rotate(-95.1621 294.368 152.438)" fill="white"/>
</g>
<g filter="url(#filter5_f_12089_36848)">
<ellipse cx="212.59" cy="68.8519" rx="33.9727" ry="55.7595" transform="rotate(-95.1621 212.59 68.8519)" fill="white"/>
</g>
<path d="M371.709 262.137C389.704 257.679 403.562 254.775 406.734 233.425C406.928 231.99 407.009 230.508 406.987 228.996C406.795 215.18 397.922 198.924 385.772 193.632C375.94 189.348 367.394 191.193 360.094 192.814C355.477 193.84 351.358 194.777 347.727 194.016C346.727 193.804 345.763 193.466 344.835 192.965C344.835 192.965 345.173 184.744 336.812 191.137L291.723 199.524C285.781 237.89 315.805 275.986 371.709 262.137Z" fill="url(#paint7_linear_12089_36848)"/>
<path d="M371.709 262.137C389.704 257.679 403.562 254.775 406.734 233.425C406.928 231.99 407.009 230.508 406.987 228.996C406.795 215.18 397.922 198.924 385.772 193.632C375.94 189.348 367.394 191.193 360.094 192.814C355.477 193.84 351.358 194.777 347.727 194.016C346.727 193.804 345.763 193.466 344.835 192.965C344.835 192.965 345.173 184.744 336.812 191.137L291.723 199.524C285.781 237.89 315.805 275.986 371.709 262.137Z" fill="url(#paint8_linear_12089_36848)" fill-opacity="0.2"/>
<path d="M405.474 225.571C405.472 225.551 405.47 225.531 405.467 225.511C405.465 225.513 405.462 225.514 405.459 225.515C405.465 225.533 405.47 225.552 405.474 225.571ZM403.043 218.12C403.268 217.894 403.468 217.649 403.639 217.388C402.909 215.185 401.991 212.994 400.896 210.862C397.01 203.301 391.309 197.451 385.256 194.814C377.917 191.616 371.335 191.969 365.369 193.039C363.589 193.359 361.863 193.742 360.19 194.114C359.108 194.355 358.054 194.588 357.024 194.797C364.412 194.099 373.442 192.658 381.721 195.68C393.069 199.822 399.311 208.595 403.043 218.12Z" fill="#E7E8ED"/>
<path d="M343.377 190.563C339.648 197.237 334.366 203.17 327.687 206.89C319.358 211.531 309.366 212.523 301.093 217.262C300.181 217.785 299.281 218.362 298.589 219.154C297.622 220.26 297.135 221.7 296.763 223.122C296.08 225.73 295.705 228.418 295.649 231.113C293.263 226.564 292.882 221.265 292.548 216.138C292.331 212.797 292.112 209.457 291.895 206.117C302.306 203.661 312.599 200.702 322.726 197.253C325.751 196.222 328.773 195.143 331.606 193.663C335.245 191.761 338.879 189.125 342.974 189.423" fill="url(#paint9_linear_12089_36848)"/>
<path d="M343.377 190.563C339.648 197.237 334.366 203.17 327.687 206.89C319.358 211.531 309.366 212.523 301.093 217.262C300.181 217.785 299.281 218.362 298.589 219.154C297.622 220.26 297.135 221.7 296.763 223.122C296.08 225.73 295.705 228.418 295.649 231.113C293.263 226.564 292.882 221.265 292.548 216.138C292.331 212.797 292.112 209.457 291.895 206.117C302.306 203.661 312.599 200.702 322.726 197.253C325.751 196.222 328.773 195.143 331.606 193.663C335.245 191.761 338.879 189.125 342.974 189.423" fill="url(#paint10_linear_12089_36848)" fill-opacity="0.2"/>
<path d="M365.368 193.04C371.334 191.97 377.916 191.616 385.256 194.815C391.309 197.452 397.009 203.301 400.896 210.862C404.71 218.285 406.372 226.447 405.455 233.255C402.49 253.208 390.004 256.292 372.721 260.561L371.396 260.888C346.273 267.115 324.26 263.06 309.41 249.479C296.388 237.57 290.238 219.365 292.861 200.625L337.046 192.407C337.245 192.369 337.432 192.286 337.593 192.163C340.938 189.605 342.245 189.949 342.566 190.117C343.368 190.533 343.575 192.212 343.546 192.914C343.526 193.406 343.788 193.866 344.221 194.1C348.888 196.625 354.124 195.462 360.189 194.114C361.862 193.743 363.589 193.359 365.368 193.04ZM365.22 264.843C367.461 264.441 369.724 263.957 372.017 263.39L373.339 263.062C390.908 258.722 404.785 255.295 408.006 233.617C408.994 226.281 407.237 217.565 403.187 209.685C398.973 201.485 392.97 195.365 386.284 192.452C375.986 187.965 366.919 189.981 359.63 191.598C354.381 192.764 349.809 193.781 346.098 192.153C345.999 190.923 345.562 188.769 343.754 187.831C341.905 186.868 339.456 187.554 336.276 189.929L291.485 198.26C290.947 198.36 290.531 198.788 290.447 199.329C287.364 219.238 293.803 238.697 307.671 251.381C321.81 264.311 342.059 268.998 365.22 264.843Z" fill="#371B45"/>
<path d="M343.618 192.881C343.467 195.813 341.398 198.35 339.175 200.14C338.462 200.724 337.347 201.42 336.546 201.896C338.566 201.2 340.599 200.232 342.251 198.86C344.015 197.386 345.601 195.373 346.058 193.05C346.12 191.436 343.78 191.271 343.618 192.881Z" fill="#371B45"/>
<path d="M315.915 110.788C321.339 101.473 326.965 94.0487 332.89 89.4359C335.608 87.3197 339.631 88.4949 340.807 91.7334C343.898 100.245 345.094 113.602 346.3 126.934L315.915 110.788Z" fill="#FBD7E0"/>
<path d="M315.915 110.788C321.339 101.473 326.965 94.0487 332.89 89.4359C335.608 87.3197 339.631 88.4949 340.807 91.7334C343.898 100.245 345.094 113.602 346.3 126.934L315.915 110.788Z" fill="url(#paint11_linear_12089_36848)"/>
<path d="M315.915 110.788C321.339 101.473 326.965 94.0487 332.89 89.4359C335.608 87.3197 339.631 88.4949 340.807 91.7334C343.898 100.245 345.094 113.602 346.3 126.934L315.915 110.788Z" fill="url(#paint12_linear_12089_36848)" fill-opacity="0.2"/>
<path d="M222.384 131.166C235.048 136.094 224.877 161.479 249.539 173.089C249.773 173.97 250.036 174.852 250.331 175.735C256.395 193.922 275.176 211.731 302.554 207.756C312.141 205.908 321.119 203.316 329.25 199.694C376.854 174.618 354.172 110.096 309.224 103.866C307.029 103.559 304.777 103.394 302.481 103.38C273.693 104.234 268.708 123.124 258.257 136.681C256.582 138.854 253.7 139.773 251.121 138.838C240.762 135.088 240.839 112.354 222.077 114.859C216.666 107.996 210.842 114.256 216.012 121.183C211.817 128.808 216.921 136.645 222.384 131.166Z" fill="url(#paint13_linear_12089_36848)"/>
<path d="M222.384 131.166C235.048 136.094 224.877 161.479 249.539 173.089C249.773 173.97 250.036 174.852 250.331 175.735C256.395 193.922 275.176 211.731 302.554 207.756C312.141 205.908 321.119 203.316 329.25 199.694C376.854 174.618 354.172 110.096 309.224 103.866C307.029 103.559 304.777 103.394 302.481 103.38C273.693 104.234 268.708 123.124 258.257 136.681C256.582 138.854 253.7 139.773 251.121 138.838C240.762 135.088 240.839 112.354 222.077 114.859C216.666 107.996 210.842 114.256 216.012 121.183C211.817 128.808 216.921 136.645 222.384 131.166Z" fill="url(#paint14_linear_12089_36848)" fill-opacity="0.2"/>
<path d="M250.331 175.735C256.395 193.922 275.176 211.731 302.554 207.756C312.141 205.908 321.119 203.316 329.25 199.694C376.854 174.618 354.172 110.096 309.224 103.866C322.036 110.291 331.558 123.04 333.907 137.204C334.448 140.477 334.633 143.808 334.541 147.126C334.086 163.835 326.344 180.218 313.722 191.177C310.084 194.336 306.024 197.08 301.501 198.736C291.973 202.222 281.021 200.493 272.171 195.529C263.323 190.565 256.414 182.645 251.218 173.93C250.893 174.522 250.598 175.122 250.331 175.735Z" fill="url(#paint15_linear_12089_36848)"/>
<path d="M250.331 175.735C256.395 193.922 275.176 211.731 302.554 207.756C312.141 205.908 321.119 203.316 329.25 199.694C376.854 174.618 354.172 110.096 309.224 103.866C322.036 110.291 331.558 123.04 333.907 137.204C334.448 140.477 334.633 143.808 334.541 147.126C334.086 163.835 326.344 180.218 313.722 191.177C310.084 194.336 306.024 197.08 301.501 198.736C291.973 202.222 281.021 200.493 272.171 195.529C263.323 190.565 256.414 182.645 251.218 173.93C250.893 174.522 250.598 175.122 250.331 175.735Z" fill="url(#paint16_linear_12089_36848)" fill-opacity="0.2"/>
<path d="M254.767 142.29C256.341 142.008 257.808 141.151 258.836 139.849C268.469 127.647 273.624 111.175 295.808 107.195C298.368 106.736 301.157 106.443 304.203 106.342C306.552 106.347 308.854 106.503 311.098 106.801C312.504 106.986 313.887 107.225 315.249 107.518C314.472 106.959 313.68 106.426 312.87 105.917C311.752 105.675 310.621 105.473 309.481 105.313C304.63 104.608 299.58 104.643 294.707 105.517C287.509 106.808 280.7 109.933 275.507 115.208C270.217 120.423 266.493 127.19 262.32 133.399C261.429 134.716 260.478 136.056 259.506 137.327C259.289 137.614 259.047 137.915 258.794 138.17C257.483 139.474 256.054 140.201 254.602 140.461C251.218 141.068 247.715 139.141 245.335 136.094C239.987 129.576 237.882 119.59 229.205 116.606C226.993 115.932 224.596 115.827 222.21 116.139C221.787 116.176 221.354 116.009 221.064 115.656C220.303 114.716 219.382 113.796 218.282 113.374C217.796 113.181 217.367 113.134 216.996 113.201C215.938 113.391 215.354 114.5 215.294 115.738C215.648 115.5 216.049 115.337 216.485 115.258C218.024 114.982 220.001 115.773 221.919 118.159C241.12 115.575 240.948 138.326 251.528 142.037C252.59 142.41 253.703 142.481 254.767 142.29Z" fill="#E7E8ED"/>
<path d="M327.914 111.997C327.922 111.99 327.931 111.982 327.938 111.975C323.297 109.163 318.224 107.079 312.869 105.919C313.68 106.428 314.472 106.961 315.249 107.52C319.736 108.481 323.975 110.008 327.914 111.997Z" fill="#DCDFE6"/>
<path opacity="0.5" d="M214.909 120.547C216.564 121.861 217.942 123.49 218.377 125.626C218.407 125.775 218.553 125.871 218.702 125.841C218.823 125.817 218.909 125.715 218.921 125.598C219.035 124.439 218.879 123.213 218.483 122.058C218.09 120.891 217.486 119.804 216.808 118.799C215.604 117.212 213.426 119.213 214.909 120.547Z" fill="#371B45"/>
<path opacity="0.5" d="M252.39 137.935C249.108 141.786 249.29 147.584 251.514 151.844C251.838 152.469 252.79 152.057 252.551 151.392C251.777 149.341 251.45 147.136 251.718 145.049C251.977 142.967 252.87 141.036 254.292 139.674C255.551 138.368 253.584 136.561 252.39 137.935Z" fill="#371B45"/>
<path d="M259.425 175.322C260.493 175.13 261.492 174.826 262.389 174.407C264.95 173.21 266.632 171.154 267.255 168.462C267.415 167.769 266.984 167.077 266.29 166.917C265.596 166.757 264.904 167.189 264.744 167.881C264.301 169.801 263.14 171.211 261.298 172.072C257.955 173.635 252.541 173.167 248.133 170.934C247.498 170.612 246.723 170.866 246.402 171.501C246.08 172.136 246.334 172.911 246.969 173.233C250.984 175.266 255.637 176.001 259.425 175.322Z" fill="#371B45"/>
<path d="M268.978 172.589C269.682 168.891 266.923 165.43 263.371 164.656C262.875 164.525 262.538 165.19 262.93 165.512C263.555 166.046 264.175 166.522 264.707 167.036C266.419 168.528 267.012 170.692 267.894 172.703C268.1 173.224 268.891 173.14 268.978 172.589Z" fill="#371B45"/>
<path d="M324.996 187.62C327.035 183.082 330.034 179.036 333.705 175.675C347.992 162.598 371.572 146.561 368.604 119.274C368.173 115.298 366.599 111.742 364.26 108.885C359.554 103.119 351.756 100.199 343.997 102.409C336.718 104.483 328.868 109.9 321.445 118.795C316.56 129.684 312.238 142.535 308.849 155.82C307.386 161.548 306.098 167.354 305.012 173.119C296.643 194.87 315.587 208.553 324.996 187.62Z" fill="url(#paint17_linear_12089_36848)"/>
<path d="M324.996 187.62C327.035 183.082 330.034 179.036 333.705 175.675C347.992 162.598 371.572 146.561 368.604 119.274C368.173 115.298 366.599 111.742 364.26 108.885C359.554 103.119 351.756 100.199 343.997 102.409C336.718 104.483 328.868 109.9 321.445 118.795C316.56 129.684 312.238 142.535 308.849 155.82C307.386 161.548 306.098 167.354 305.012 173.119C296.643 194.87 315.587 208.553 324.996 187.62Z" fill="url(#paint18_linear_12089_36848)" fill-opacity="0.2"/>
<path d="M368.679 120.061C368.68 120.06 368.68 120.058 368.679 120.057C368.68 120.059 368.68 120.059 368.679 120.061ZM368.676 120.02C368.676 120.019 368.676 120.017 368.676 120.016C368.676 120.017 368.676 120.018 368.676 120.02ZM368.672 119.98C368.672 119.978 368.672 119.975 368.671 119.972C368.672 119.976 368.672 119.977 368.672 119.98ZM368.669 119.94C368.668 119.937 368.668 119.934 368.668 119.931C368.668 119.934 368.668 119.936 368.669 119.94ZM368.665 119.9C368.664 119.896 368.664 119.893 368.664 119.888C368.664 119.893 368.664 119.895 368.665 119.9ZM368.657 119.818C368.656 119.815 368.656 119.81 368.656 119.806C368.656 119.809 368.656 119.815 368.657 119.818ZM368.653 119.777C368.653 119.773 368.652 119.769 368.652 119.764C368.652 119.768 368.653 119.774 368.653 119.777ZM368.641 119.657C368.64 119.651 368.64 119.646 368.639 119.641C368.64 119.646 368.64 119.652 368.641 119.657ZM368.637 119.615C368.637 119.61 368.636 119.606 368.636 119.6C368.636 119.605 368.637 119.611 368.637 119.615ZM368.633 119.577C368.632 119.571 368.632 119.565 368.631 119.559C368.632 119.566 368.632 119.57 368.633 119.577ZM368.629 119.535C368.628 119.53 368.628 119.525 368.627 119.518C368.628 119.525 368.628 119.529 368.629 119.535ZM368.625 119.495C368.624 119.49 368.623 119.483 368.623 119.477C368.623 119.482 368.624 119.49 368.625 119.495ZM368.616 119.413C368.616 119.407 368.615 119.402 368.614 119.396C368.615 119.402 368.615 119.407 368.616 119.413ZM368.612 119.369C368.611 119.365 368.611 119.359 368.61 119.356C368.61 119.361 368.611 119.364 368.612 119.369ZM368.607 119.327C368.606 119.323 368.606 119.318 368.606 119.315C368.606 119.32 368.606 119.322 368.607 119.327ZM364.139 108.741C359.809 103.537 352.941 100.704 345.892 101.968C352.94 100.705 359.809 103.537 364.139 108.741Z" fill="#F5F7F8"/>
<path d="M356.749 153.867C364.374 144.77 369.939 133.87 368.685 120.06C368.685 120.059 368.685 120.059 368.685 120.057C368.683 120.044 368.683 120.032 368.681 120.02C368.681 120.018 368.681 120.017 368.681 120.016C368.68 120.003 368.679 119.992 368.677 119.98C368.678 119.977 368.677 119.975 368.677 119.972C368.676 119.961 368.675 119.95 368.674 119.939C368.673 119.936 368.674 119.934 368.673 119.93C368.672 119.92 368.671 119.91 368.67 119.899C368.67 119.894 368.669 119.893 368.669 119.888C368.668 119.879 368.667 119.868 368.666 119.858C368.666 119.855 368.665 119.851 368.666 119.848C368.664 119.837 368.664 119.828 368.662 119.818C368.662 119.815 368.662 119.809 368.661 119.806C368.66 119.797 368.659 119.787 368.658 119.777C368.658 119.774 368.658 119.768 368.657 119.764C368.656 119.755 368.656 119.747 368.655 119.738C368.654 119.733 368.654 119.727 368.653 119.722C368.652 119.715 368.652 119.705 368.65 119.697C368.65 119.692 368.649 119.687 368.649 119.682C368.648 119.673 368.648 119.665 368.647 119.657C368.646 119.652 368.645 119.646 368.645 119.641C368.644 119.632 368.643 119.624 368.642 119.615C368.642 119.611 368.641 119.605 368.641 119.6C368.64 119.593 368.64 119.584 368.638 119.576C368.638 119.57 368.638 119.565 368.636 119.559C368.636 119.551 368.635 119.543 368.634 119.535C368.633 119.529 368.633 119.525 368.632 119.518C368.631 119.511 368.631 119.503 368.63 119.495C368.629 119.49 368.629 119.482 368.628 119.477C368.628 119.468 368.626 119.462 368.626 119.453C368.625 119.448 368.624 119.442 368.624 119.436C368.623 119.429 368.622 119.421 368.621 119.413C368.621 119.406 368.62 119.402 368.62 119.395C368.619 119.386 368.618 119.377 368.617 119.368C368.616 119.363 368.616 119.36 368.615 119.355C368.614 119.345 368.613 119.336 368.612 119.326C368.611 119.321 368.612 119.319 368.611 119.314C368.609 119.3 368.608 119.287 368.606 119.273C368.556 118.807 368.489 118.347 368.408 117.893C367.795 114.473 366.326 111.406 364.262 108.884C364.243 108.86 364.223 108.836 364.203 108.812C364.2 108.809 364.197 108.804 364.195 108.801C364.183 108.788 364.173 108.776 364.162 108.762C364.161 108.761 364.159 108.759 364.158 108.758C364.153 108.751 364.149 108.746 364.144 108.741C359.814 103.536 352.945 100.705 345.898 101.968C345.897 101.968 345.896 101.968 345.894 101.968C345.293 102.076 344.691 102.214 344.089 102.382C344.06 102.391 344.029 102.399 343.999 102.407C336.72 104.482 328.87 109.899 321.447 118.793C321.384 118.936 321.32 119.082 321.257 119.226C328.095 111.657 335.216 106.976 341.861 105.081C342.493 104.902 343.125 104.756 343.757 104.642C350.869 103.366 357.801 106.262 362.124 111.558C364.462 114.415 366.036 117.971 366.468 121.947C367.865 134.792 363.379 145.143 356.749 153.867Z" fill="#E7E8ED"/>
<path d="M324.601 188.464C324.602 188.462 324.603 188.461 324.604 188.459C324.603 188.46 324.602 188.463 324.601 188.464ZM324.617 188.431C324.619 188.43 324.619 188.427 324.62 188.426C324.62 188.427 324.618 188.43 324.617 188.431ZM324.633 188.398C324.634 188.396 324.636 188.394 324.636 188.392C324.636 188.393 324.634 188.396 324.633 188.398ZM324.663 188.336C324.665 188.333 324.666 188.329 324.668 188.327C324.667 188.329 324.664 188.333 324.663 188.336ZM324.695 188.268C324.697 188.265 324.699 188.26 324.701 188.257C324.699 188.261 324.697 188.264 324.695 188.268ZM324.757 188.138C324.759 188.134 324.761 188.129 324.763 188.125C324.76 188.13 324.759 188.133 324.757 188.138ZM324.773 188.103C324.775 188.099 324.777 188.094 324.78 188.09C324.777 188.095 324.775 188.098 324.773 188.103ZM324.789 188.069C324.792 188.064 324.794 188.059 324.796 188.055C324.795 188.059 324.791 188.065 324.789 188.069ZM324.804 188.038C324.807 188.032 324.809 188.027 324.812 188.021C324.809 188.026 324.806 188.032 324.804 188.038ZM324.819 188.004C324.822 187.999 324.825 187.993 324.827 187.987C324.825 187.992 324.821 188 324.819 188.004ZM324.835 187.97C324.837 187.965 324.84 187.96 324.842 187.956C324.839 187.961 324.838 187.964 324.835 187.97ZM324.852 187.935C324.854 187.931 324.855 187.927 324.857 187.922C324.855 187.927 324.854 187.93 324.852 187.935ZM324.867 187.9C324.869 187.896 324.872 187.892 324.873 187.888C324.872 187.892 324.87 187.896 324.867 187.9ZM324.914 187.8C324.916 187.795 324.917 187.791 324.92 187.787C324.918 187.791 324.915 187.796 324.914 187.8ZM324.93 187.764C324.932 187.761 324.933 187.757 324.934 187.754C324.933 187.758 324.932 187.76 324.93 187.764ZM324.946 187.729C324.947 187.726 324.949 187.722 324.95 187.719C324.949 187.722 324.948 187.726 324.946 187.729ZM324.962 187.693C324.964 187.69 324.965 187.687 324.966 187.685C324.965 187.687 324.963 187.69 324.962 187.693ZM324.978 187.657C324.98 187.655 324.98 187.653 324.981 187.651C324.98 187.653 324.979 187.655 324.978 187.657ZM325.042 187.515C325.045 187.511 325.046 187.506 325.048 187.502C325.046 187.507 325.045 187.511 325.042 187.515ZM325.078 187.438C326.061 185.284 327.262 183.242 328.648 181.332C328.644 181.336 328.64 181.341 328.636 181.345C327.255 183.251 326.058 185.288 325.078 187.438Z" fill="#DCDFE6"/>
<path d="M320.572 194.46C322.004 192.981 323.367 191.01 324.586 188.495C324.587 188.494 324.587 188.493 324.588 188.491C324.592 188.482 324.597 188.472 324.602 188.463C324.602 188.462 324.604 188.459 324.605 188.458C324.609 188.448 324.614 188.439 324.618 188.43C324.618 188.428 324.62 188.426 324.621 188.424C324.625 188.415 324.63 188.406 324.634 188.396C324.634 188.394 324.636 188.392 324.637 188.39C324.641 188.382 324.645 188.374 324.649 188.365C324.65 188.363 324.651 188.361 324.652 188.358C324.656 188.35 324.66 188.342 324.664 188.334C324.665 188.332 324.667 188.328 324.668 188.325C324.672 188.317 324.675 188.309 324.68 188.301C324.681 188.297 324.683 188.294 324.685 188.29C324.688 188.282 324.692 188.275 324.696 188.267C324.698 188.263 324.7 188.26 324.701 188.256C324.705 188.248 324.709 188.24 324.712 188.232C324.714 188.229 324.716 188.224 324.717 188.221C324.72 188.216 324.723 188.21 324.726 188.204C324.728 188.198 324.731 188.192 324.734 188.186C324.737 188.181 324.739 188.176 324.742 188.171C324.744 188.165 324.747 188.159 324.75 188.152C324.753 188.147 324.755 188.142 324.757 188.136C324.759 188.132 324.761 188.128 324.764 188.124C324.767 188.116 324.771 188.109 324.774 188.102C324.776 188.096 324.777 188.093 324.78 188.088C324.783 188.081 324.786 188.074 324.79 188.068C324.792 188.063 324.795 188.057 324.797 188.053C324.799 188.048 324.802 188.042 324.805 188.036C324.807 188.031 324.81 188.024 324.813 188.019C324.815 188.014 324.817 188.008 324.82 188.003C324.822 187.998 324.826 187.991 324.828 187.985C324.83 187.98 324.833 187.974 324.836 187.968C324.838 187.963 324.84 187.96 324.843 187.954C324.846 187.947 324.849 187.94 324.852 187.933C324.854 187.928 324.856 187.926 324.858 187.92C324.861 187.913 324.865 187.906 324.868 187.898C324.87 187.895 324.872 187.89 324.874 187.886C324.877 187.878 324.881 187.87 324.885 187.862C324.886 187.859 324.888 187.855 324.89 187.851C324.893 187.845 324.896 187.838 324.898 187.832C324.901 187.827 324.903 187.821 324.906 187.817C324.908 187.81 324.911 187.804 324.914 187.798C324.916 187.794 324.919 187.789 324.92 187.785C324.923 187.778 324.927 187.77 324.931 187.762C324.932 187.758 324.933 187.757 324.935 187.753C324.938 187.744 324.943 187.735 324.946 187.727C324.948 187.725 324.949 187.72 324.95 187.718C324.955 187.709 324.959 187.7 324.963 187.691C324.964 187.689 324.965 187.686 324.966 187.683C324.97 187.674 324.975 187.664 324.979 187.655C324.979 187.654 324.98 187.651 324.982 187.65C324.986 187.639 324.99 187.629 324.995 187.619C324.999 187.61 325.003 187.601 325.007 187.592C325.008 187.592 325.008 187.591 325.008 187.59C325.012 187.582 325.016 187.574 325.019 187.566C325.02 187.565 325.02 187.564 325.021 187.563C325.024 187.555 325.028 187.548 325.031 187.54C325.032 187.537 325.033 187.535 325.034 187.533C325.037 187.526 325.04 187.52 325.043 187.513C325.045 187.509 325.047 187.505 325.049 187.501C325.051 187.497 325.052 187.493 325.054 187.488C325.057 187.482 325.06 187.476 325.063 187.47C325.064 187.467 325.065 187.465 325.066 187.462C325.07 187.454 325.073 187.447 325.077 187.44C325.077 187.438 325.078 187.438 325.078 187.437C326.059 185.287 327.255 183.249 328.637 181.344C326.286 184.026 324.323 187.031 322.857 190.294C322.145 191.878 321.377 193.261 320.572 194.46Z" fill="#E7E8ED"/>
<path d="M324.996 187.62C327.035 183.082 330.034 179.036 333.705 175.675C347.992 162.598 371.572 146.561 368.604 119.275C368.173 115.298 366.599 111.742 364.26 108.886C363.398 108.513 362.671 107.999 362.359 107.132L360.908 106.234C365.875 110.35 366.972 117.453 367.244 123.897C367.37 126.842 367.394 129.803 366.979 132.721C365.847 140.621 361.486 147.798 355.891 153.494C350.299 159.189 343.507 163.553 336.618 167.583C334.309 168.936 331.949 170.27 329.369 170.971C322.398 172.863 314.342 169.345 310.995 162.945C309.829 160.717 310.277 159.455 309.903 156.97C308.44 162.697 306.098 167.354 305.012 173.119C296.643 194.87 315.587 208.553 324.996 187.62Z" fill="url(#paint19_linear_12089_36848)"/>
<path d="M324.996 187.62C327.035 183.082 330.034 179.036 333.705 175.675C347.992 162.598 371.572 146.561 368.604 119.275C368.173 115.298 366.599 111.742 364.26 108.886C363.398 108.513 362.671 107.999 362.359 107.132L360.908 106.234C365.875 110.35 366.972 117.453 367.244 123.897C367.37 126.842 367.394 129.803 366.979 132.721C365.847 140.621 361.486 147.798 355.891 153.494C350.299 159.189 343.507 163.553 336.618 167.583C334.309 168.936 331.949 170.27 329.369 170.971C322.398 172.863 314.342 169.345 310.995 162.945C309.829 160.717 310.277 159.455 309.903 156.97C308.44 162.697 306.098 167.354 305.012 173.119C296.643 194.87 315.587 208.553 324.996 187.62Z" fill="url(#paint20_linear_12089_36848)" fill-opacity="0.2"/>
<path d="M304.564 174.352C303.052 185.905 315.562 195.442 320.058 182.2C323.919 172.563 327.205 166.371 336.37 159.817C342.203 155.645 346.962 150.122 349.987 143.621C357.055 128.427 354.707 113.775 344.215 114.589C342.369 114.732 340.599 115.374 339.022 116.343C328.184 122.998 319.512 135.765 312.006 151.817C311.22 153.498 310.518 155.219 309.903 156.969C307.698 163.246 305.892 169.135 304.564 174.352Z" fill="#EFEEFE"/>
<path d="M346.696 147.154C353.949 132.991 351.801 119.456 341.323 120.348C339.48 120.506 337.706 121.124 336.12 122.041C330.08 125.535 324.68 130.76 319.755 137.267C325.398 128.093 331.718 120.828 339.024 116.342C340.601 115.373 342.371 114.731 344.217 114.588C354.709 113.774 357.057 128.426 349.989 143.62C346.964 150.121 342.205 155.644 336.372 159.816C335.979 160.097 335.602 160.376 335.23 160.655C340.048 156.966 344.014 152.391 346.696 147.154Z" fill="#ADAEC4"/>
<path d="M316.32 183.279C320.3 174.303 323.66 168.527 332.89 162.336C333.554 161.891 334.202 161.428 334.838 160.951C326.821 167.1 323.692 173.122 320.053 182.202C318.295 187.381 315.311 189.076 312.419 188.528C313.933 187.638 315.308 185.953 316.32 183.279Z" fill="#ADAEC4"/>
<path d="M293.512 152.705C291.499 153.799 289.403 154.69 287.167 154.713C282.808 154.82 279.154 151.618 277.404 147.727C276.445 145.648 275.989 143.38 275.939 141.057C275.932 140.566 275.212 140.467 275.075 140.943C272.648 148.556 278.824 158.516 287.408 157.308C288.779 157.101 290.073 156.584 291.177 155.858C292.284 155.132 293.218 154.216 293.942 153.178C294.144 152.902 293.8 152.529 293.512 152.705Z" fill="#371B45"/>
<path d="M289.333 156.222C290.597 158.861 293.985 159.935 296.62 159.042C297.051 158.906 296.904 158.245 296.456 158.305C294.353 158.605 291.858 157.475 291.317 155.41C290.826 153.874 288.609 154.777 289.333 156.222Z" fill="#371B45"/>
<path d="M285.23 155.898C284.674 158.105 285.673 160.222 287.139 161.766C287.499 162.106 289 163.468 289.346 162.679C289.423 162.488 289.347 162.273 289.177 162.17C287.599 161.081 286.532 158.466 287.316 156.682C288.076 155.142 285.684 154.236 285.23 155.898Z" fill="#371B45"/>
<path d="M299.493 137.215C302.006 127.001 295.003 116.342 290.112 126.717C294.008 127.159 297.089 130.839 299.493 137.215Z" fill="#371B45"/>
<path opacity="0.5" d="M244.921 131.357C244.917 131.37 244.914 131.383 244.911 131.396C244.857 131.618 244.578 131.858 244.347 131.869C243.34 131.915 242.533 132.196 241.723 132.813C241.032 133.34 240.429 133.961 239.924 134.667C239.415 135.379 239.053 136.155 238.684 136.943C238.333 137.693 238.205 138.684 237.583 139.26C237.506 139.332 237.366 139.32 237.301 139.238C236.676 138.451 237.028 137.172 237.262 136.289C237.525 135.294 238.105 134.343 238.727 133.532C239.364 132.701 240.122 131.948 240.988 131.357C241.986 130.676 243.244 130.089 244.471 130.448C244.756 130.531 245.013 130.908 244.953 131.209C244.944 131.259 244.933 131.308 244.921 131.357Z" fill="#371B45"/>
<path opacity="0.5" d="M236.629 119.601C236.382 119.959 235.939 120.106 235.548 120.254C235.182 120.393 234.807 120.509 234.449 120.673C233.715 121.008 233.038 121.472 232.491 122.07C232.041 122.561 231.659 123.193 231.413 123.827C231.261 124.217 231.125 124.606 230.92 124.973C230.745 125.283 230.488 125.545 230.257 125.814C230.194 125.887 230.069 125.917 230 125.826C229.414 125.048 229.365 124.162 229.704 123.26C230.043 122.356 230.555 121.533 231.203 120.822C231.876 120.084 232.703 119.478 233.622 119.08C234.087 118.879 234.584 118.696 235.09 118.646C235.619 118.594 236.207 118.603 236.6 119.011C236.748 119.165 236.745 119.432 236.629 119.601Z" fill="#371B45"/>
<path d="M295.705 202.767C298.481 184.483 278.493 170.09 258.777 176.106C254.461 168.444 245.22 163.649 235.104 164.464C227.574 148.644 204.867 144.066 190.271 154.929C187.176 157.224 184.642 160.094 182.878 163.343C174.116 158.798 162.877 159.592 155.005 165.653C147.289 156.612 132.943 154.581 122.459 160.825C109.392 153.04 91.2092 158.386 86.2831 171.824C78.6414 170.687 71.0231 172.836 65.5762 177.512C52.0233 166.658 30.1634 171.134 23.5428 186.314C21.6226 190.695 21.2337 195.704 22.6829 200.523C12.4506 203.559 6.05968 212.24 6.39095 220.828C2.06976 220.172 -2.19673 220.582 -6 221.828C1.99449 226.08 12.3245 225.887 20.2115 220.942C23.1196 228.448 30.6959 234.045 39.8963 235.048C46.1406 249.866 67.9146 253.541 79.9811 241.98C83.3603 242.792 86.9837 242.977 90.7401 242.357C93.9424 246.374 98.9506 249.346 103.95 250.479C109.622 251.906 116.5 251.175 121.076 248.934C121.175 248.934 122.639 248.171 122.738 248.118C125.002 246.863 126.662 245.605 128.25 244.018C129.571 244.557 130.954 244.988 132.391 245.307C139.616 256.572 155.975 260.274 168.427 253.575C175.41 253.163 182.093 250.276 186.828 245.399C197.356 251.186 211.062 249.463 219.358 241.336C236.031 252.017 260.033 243.151 262.628 224.822C271.504 224.468 279.079 220.05 283.012 213.241C292.081 216.566 302.784 215.668 311.096 210.298C307.061 206.511 301.72 203.817 295.705 202.767Z" fill="url(#paint21_linear_12089_36848)"/>
</g>
<defs>
<filter id="filter0_ddddd_12089_36848" x="276.996" y="26.9961" width="107.008" height="103.008" filterUnits="userSpaceOnUse" color-interpolation-filters="sRGB">
<feFlood flood-opacity="0" result="BackgroundImageFix"/>
<feColorMatrix in="SourceAlpha" type="matrix" values="0 0 0 0 0 0 0 0 0 0 0 0 0 0 0 0 0 0 127 0" result="hardAlpha"/>
<feOffset dx="-2" dy="1"/>
<feGaussianBlur stdDeviation="2.5"/>
<feColorMatrix type="matrix" values="0 0 0 0 0.607843 0 0 0 0 0.360784 0 0 0 0 0.835294 0 0 0 0.55 0"/>
<feBlend mode="normal" in2="BackgroundImageFix" result="effect1_dropShadow_12089_36848"/>
<feColorMatrix in="SourceAlpha" type="matrix" values="0 0 0 0 0 0 0 0 0 0 0 0 0 0 0 0 0 0 127 0" result="hardAlpha"/>
<feOffset dx="-6" dy="5"/>
<feGaussianBlur stdDeviation="4"/>
<feColorMatrix type="matrix" values="0 0 0 0 0.607843 0 0 0 0 0.360784 0 0 0 0 0.835294 0 0 0 0.48 0"/>
<feBlend mode="normal" in2="effect1_dropShadow_12089_36848" result="effect2_dropShadow_12089_36848"/>
<feColorMatrix in="SourceAlpha" type="matrix" values="0 0 0 0 0 0 0 0 0 0 0 0 0 0 0 0 0 0 127 0" result="hardAlpha"/>
<feOffset dx="-14" dy="12"/>
<feGaussianBlur stdDeviation="5.5"/>
<feColorMatrix type="matrix" values="0 0 0 0 0.607843 0 0 0 0 0.360784 0 0 0 0 0.835294 0 0 0 0.28 0"/>
<feBlend mode="normal" in2="effect2_dropShadow_12089_36848" result="effect3_dropShadow_12089_36848"/>
<feColorMatrix in="SourceAlpha" type="matrix" values="0 0 0 0 0 0 0 0 0 0 0 0 0 0 0 0 0 0 127 0" result="hardAlpha"/>
<feOffset dx="-25" dy="22"/>
<feGaussianBlur stdDeviation="6.5"/>
<feColorMatrix type="matrix" values="0 0 0 0 0.607843 0 0 0 0 0.360784 0 0 0 0 0.835294 0 0 0 0.08 0"/>
<feBlend mode="normal" in2="effect3_dropShadow_12089_36848" result="effect4_dropShadow_12089_36848"/>
<feColorMatrix in="SourceAlpha" type="matrix" values="0 0 0 0 0 0 0 0 0 0 0 0 0 0 0 0 0 0 127 0" result="hardAlpha"/>
<feOffset dx="-39" dy="34"/>
<feGaussianBlur stdDeviation="7.5"/>
<feColorMatrix type="matrix" values="0 0 0 0 0.607843 0 0 0 0 0.360784 0 0 0 0 0.835294 0 0 0 0.01 0"/>
<feBlend mode="normal" in2="effect4_dropShadow_12089_36848" result="effect5_dropShadow_12089_36848"/>
<feBlend mode="normal" in="SourceGraphic" in2="effect5_dropShadow_12089_36848" result="shape"/>
</filter>
<filter id="filter1_ddddd_12089_36848" x="216.146" y="2.14648" width="115.008" height="110.008" filterUnits="userSpaceOnUse" color-interpolation-filters="sRGB">
<feFlood flood-opacity="0" result="BackgroundImageFix"/>
<feColorMatrix in="SourceAlpha" type="matrix" values="0 0 0 0 0 0 0 0 0 0 0 0 0 0 0 0 0 0 127 0" result="hardAlpha"/>
<feOffset dx="2" dy="2"/>
<feGaussianBlur stdDeviation="2.5"/>
<feColorMatrix type="matrix" values="0 0 0 0 0.607843 0 0 0 0 0.360784 0 0 0 0 0.835294 0 0 0 0.37 0"/>
<feBlend mode="normal" in2="BackgroundImageFix" result="effect1_dropShadow_12089_36848"/>
<feColorMatrix in="SourceAlpha" type="matrix" values="0 0 0 0 0 0 0 0 0 0 0 0 0 0 0 0 0 0 127 0" result="hardAlpha"/>
<feOffset dx="7" dy="6"/>
<feGaussianBlur stdDeviation="5"/>
<feColorMatrix type="matrix" values="0 0 0 0 0.607843 0 0 0 0 0.360784 0 0 0 0 0.835294 0 0 0 0.32 0"/>
<feBlend mode="normal" in2="effect1_dropShadow_12089_36848" result="effect2_dropShadow_12089_36848"/>
<feColorMatrix in="SourceAlpha" type="matrix" values="0 0 0 0 0 0 0 0 0 0 0 0 0 0 0 0 0 0 127 0" result="hardAlpha"/>
<feOffset dx="16" dy="14"/>
<feGaussianBlur stdDeviation="6.5"/>
<feColorMatrix type="matrix" values="0 0 0 0 0.607843 0 0 0 0 0.360784 0 0 0 0 0.835294 0 0 0 0.19 0"/>
<feBlend mode="normal" in2="effect2_dropShadow_12089_36848" result="effect3_dropShadow_12089_36848"/>
<feColorMatrix in="SourceAlpha" type="matrix" values="0 0 0 0 0 0 0 0 0 0 0 0 0 0 0 0 0 0 127 0" result="hardAlpha"/>
<feOffset dx="29" dy="25"/>
<feGaussianBlur stdDeviation="7.5"/>
<feColorMatrix type="matrix" values="0 0 0 0 0.607843 0 0 0 0 0.360784 0 0 0 0 0.835294 0 0 0 0.06 0"/>
<feBlend mode="normal" in2="effect3_dropShadow_12089_36848" result="effect4_dropShadow_12089_36848"/>
<feColorMatrix in="SourceAlpha" type="matrix" values="0 0 0 0 0 0 0 0 0 0 0 0 0 0 0 0 0 0 127 0" result="hardAlpha"/>
<feOffset dx="45" dy="39"/>
<feGaussianBlur stdDeviation="8.5"/>
<feColorMatrix type="matrix" values="0 0 0 0 0.607843 0 0 0 0 0.360784 0 0 0 0 0.835294 0 0 0 0.01 0"/>
<feBlend mode="normal" in2="effect4_dropShadow_12089_36848" result="effect5_dropShadow_12089_36848"/>
<feBlend mode="normal" in="SourceGraphic" in2="effect5_dropShadow_12089_36848" result="shape"/>
</filter>
<filter id="filter2_f_12089_36848" x="-103" y="44" width="526.682" height="438" filterUnits="userSpaceOnUse" color-interpolation-filters="sRGB">
<feFlood flood-opacity="0" result="BackgroundImageFix"/>
<feBlend mode="normal" in="SourceGraphic" in2="BackgroundImageFix" result="shape"/>
<feGaussianBlur stdDeviation="5" result="effect1_foregroundBlur_12089_36848"/>
</filter>
<filter id="filter3_f_12089_36848" x="81" y="-56" width="435.124" height="438" filterUnits="userSpaceOnUse" color-interpolation-filters="sRGB">
<feFlood flood-opacity="0" result="BackgroundImageFix"/>
<feBlend mode="normal" in="SourceGraphic" in2="BackgroundImageFix" result="shape"/>
<feGaussianBlur stdDeviation="5" result="effect1_foregroundBlur_12089_36848"/>
</filter>
<filter id="filter4_f_12089_36848" x="109.369" y="7.85645" width="369.999" height="289.164" filterUnits="userSpaceOnUse" color-interpolation-filters="sRGB">
<feFlood flood-opacity="0" result="BackgroundImageFix"/>
<feBlend mode="normal" in="SourceGraphic" in2="BackgroundImageFix" result="shape"/>
<feGaussianBlur stdDeviation="40" result="effect1_foregroundBlur_12089_36848"/>
</filter>
<filter id="filter5_f_12089_36848" x="56.9712" y="-65.3574" width="311.238" height="268.418" filterUnits="userSpaceOnUse" color-interpolation-filters="sRGB">
<feFlood flood-opacity="0" result="BackgroundImageFix"/>
<feBlend mode="normal" in="SourceGraphic" in2="BackgroundImageFix" result="shape"/>
<feGaussianBlur stdDeviation="50" result="effect1_foregroundBlur_12089_36848"/>
</filter>
<linearGradient id="paint0_linear_12089_36848" x1="183.5" y1="0" x2="183.5" y2="196" gradientUnits="userSpaceOnUse">
<stop stop-color="#EDEFFF"/>
<stop offset="1" stop-color="#E2C7FF"/>
</linearGradient>
<linearGradient id="paint1_linear_12089_36848" x1="356" y1="31.0002" x2="356.285" y2="108.5" gradientUnits="userSpaceOnUse">
<stop offset="0.0742085" stop-color="#FFFEC9"/>
<stop offset="1" stop-color="#D7D161"/>
</linearGradient>
<linearGradient id="paint2_linear_12089_36848" x1="356.455" y1="37.8184" x2="361.455" y2="139.637" gradientUnits="userSpaceOnUse">
<stop stop-color="#DCB8FF"/>
<stop offset="1" stop-color="#9B5CD5"/>
</linearGradient>
<linearGradient id="paint3_linear_12089_36848" x1="244.151" y1="6.15063" x2="244.436" y2="83.6506" gradientUnits="userSpaceOnUse">
<stop offset="0.0742085" stop-color="#FFFEC9"/>
<stop offset="1" stop-color="#D7D161"/>
</linearGradient>
<linearGradient id="paint4_linear_12089_36848" x1="244.605" y1="12.9688" x2="249.605" y2="114.787" gradientUnits="userSpaceOnUse">
<stop stop-color="#DCB8FF"/>
<stop offset="1" stop-color="#9B5CD5"/>
</linearGradient>
<linearGradient id="paint5_linear_12089_36848" x1="198.707" y1="142" x2="198.707" y2="209" gradientUnits="userSpaceOnUse">
<stop stop-color="#EFD2F5"/>
<stop offset="1" stop-color="white"/>
</linearGradient>
<linearGradient id="paint6_linear_12089_36848" x1="174.734" y1="73.7478" x2="181.149" y2="204.382" gradientUnits="userSpaceOnUse">
<stop stop-color="#DCB8FF"/>
<stop offset="1" stop-color="#9B5CD5"/>
</linearGradient>
<linearGradient id="paint7_linear_12089_36848" x1="362.145" y1="264.088" x2="187.986" y2="-151.282" gradientUnits="userSpaceOnUse">
<stop stop-color="#C2C4FD"/>
<stop offset="0.163505" stop-color="#CFC0FF"/>
<stop offset="1" stop-color="#8E00FF"/>
</linearGradient>
<linearGradient id="paint8_linear_12089_36848" x1="331.582" y1="60.9245" x2="181.121" y2="168.557" gradientUnits="userSpaceOnUse">
<stop stop-color="white" stop-opacity="0"/>
<stop offset="1" stop-color="#8E00FF"/>
</linearGradient>
<linearGradient id="paint9_linear_12089_36848" x1="324.337" y1="225.967" x2="255.398" y2="46.8075" gradientUnits="userSpaceOnUse">
<stop stop-color="#C2C4FD"/>
<stop offset="0.163505" stop-color="#CFC0FF"/>
<stop offset="1" stop-color="#8E00FF"/>
</linearGradient>
<linearGradient id="paint10_linear_12089_36848" x1="311.781" y1="139.839" x2="243.278" y2="195.411" gradientUnits="userSpaceOnUse">
<stop stop-color="white" stop-opacity="0"/>
<stop offset="1" stop-color="#8E00FF"/>
</linearGradient>
<linearGradient id="paint11_linear_12089_36848" x1="335.06" y1="128.951" x2="213.493" y2="-49.258" gradientUnits="userSpaceOnUse">
<stop stop-color="#C2C4FD"/>
<stop offset="0.163505" stop-color="#CFC0FF"/>
<stop offset="1" stop-color="#8E00FF"/>
</linearGradient>
<linearGradient id="paint12_linear_12089_36848" x1="317.939" y1="25.1491" x2="271.303" y2="45.4084" gradientUnits="userSpaceOnUse">
<stop stop-color="white" stop-opacity="0"/>
<stop offset="1" stop-color="#8E00FF"/>
</linearGradient>
<linearGradient id="paint13_linear_12089_36848" x1="303.489" y1="207.588" x2="39.7458" y2="-362.363" gradientUnits="userSpaceOnUse">
<stop stop-color="#C2C4FD"/>
<stop offset="0.163505" stop-color="#CFC0FF"/>
<stop offset="1" stop-color="#8E00FF"/>
</linearGradient>
<linearGradient id="paint14_linear_12089_36848" x1="259.316" y1="-77.9881" x2="66.6792" y2="43.4209" gradientUnits="userSpaceOnUse">
<stop stop-color="white" stop-opacity="0"/>
<stop offset="1" stop-color="#8E00FF"/>
</linearGradient>
<linearGradient id="paint15_linear_12089_36848" x1="315.456" y1="205.441" x2="55.2432" y2="-306.05" gradientUnits="userSpaceOnUse">
<stop stop-color="#C2C4FD"/>
<stop offset="0.163505" stop-color="#CFC0FF"/>
<stop offset="1" stop-color="#8E00FF"/>
</linearGradient>
<linearGradient id="paint16_linear_12089_36848" x1="273.825" y1="-58.1139" x2="112.352" y2="33.315" gradientUnits="userSpaceOnUse">
<stop stop-color="white" stop-opacity="0"/>
<stop offset="1" stop-color="#8E00FF"/>
</linearGradient>
<linearGradient id="paint17_linear_12089_36848" x1="346.551" y1="192.166" x2="103.504" y2="-12.9805" gradientUnits="userSpaceOnUse">
<stop stop-color="#9A9DE4"/>
<stop offset="0.163505" stop-color="#CFC0FF"/>
<stop offset="1" stop-color="#8E00FF"/>
</linearGradient>
<linearGradient id="paint18_linear_12089_36848" x1="309.009" y1="-39.4536" x2="188.307" y2="19.3929" gradientUnits="userSpaceOnUse">
<stop stop-color="white" stop-opacity="0"/>
<stop offset="1" stop-color="#8E00FF"/>
</linearGradient>
<linearGradient id="paint19_linear_12089_36848" x1="346.551" y1="192.166" x2="122.065" y2="-209.267" gradientUnits="userSpaceOnUse">
<stop stop-color="#C2C4FD"/>
<stop offset="0.163505" stop-color="#CFC0FF"/>
<stop offset="1" stop-color="#8E00FF"/>
</linearGradient>
<linearGradient id="paint20_linear_12089_36848" x1="312.201" y1="-21.6621" x2="193.572" y2="39.4031" gradientUnits="userSpaceOnUse">
<stop stop-color="white" stop-opacity="0"/>
<stop offset="1" stop-color="#8E00FF"/>
</linearGradient>
<linearGradient id="paint21_linear_12089_36848" x1="130.59" y1="22.6479" x2="143.02" y2="227.919" gradientUnits="userSpaceOnUse">
<stop stop-color="white"/>
<stop offset="1" stop-color="white" stop-opacity="0"/>
</linearGradient>
<clipPath id="clip0_12089_36848">
<rect width="367" height="196" rx="16" fill="white"/>
</clipPath>
</defs>
</svg>
