<svg width="166" height="182" viewBox="0 0 166 182" fill="none" xmlns="http://www.w3.org/2000/svg">
<path d="M161.892 63.34C158.045 71.6435 150.936 75.0798 146.031 81.2553C138.965 90.1493 138.924 98.244 128.788 97.6783C106.623 96.4415 116.336 61.9016 115.168 51.5578L111.847 39.5605C121.722 27.496 137.509 20.097 148.236 22.9276C161.214 26.3525 168.591 48.8819 161.892 63.34Z" fill="url(#paint0_linear_11117_34902)"/>
<path d="M161.892 63.34C158.045 71.6435 150.936 75.0798 146.031 81.2553C138.965 90.1493 138.924 98.244 128.788 97.6783C106.623 96.4415 116.336 61.9016 115.168 51.5578L111.847 39.5605C121.722 27.496 137.509 20.097 148.236 22.9276C161.214 26.3525 168.591 48.8819 161.892 63.34Z" fill="url(#paint1_linear_11117_34902)" fill-opacity="0.2"/>
<path d="M161.892 63.34C158.045 71.6435 150.936 75.0798 146.031 81.2553C138.965 90.1493 138.924 98.244 128.788 97.6783C106.623 96.4415 116.336 61.9016 115.168 51.5578L111.847 39.5605C121.722 27.496 137.509 20.097 148.236 22.9276C161.214 26.3525 168.591 48.8819 161.892 63.34Z" fill="url(#paint2_linear_11117_34902)"/>
<path d="M161.892 63.34C158.045 71.6435 150.936 75.0798 146.031 81.2553C138.965 90.1493 138.924 98.244 128.788 97.6783C106.623 96.4415 116.336 61.9016 115.168 51.5578L111.847 39.5605C121.722 27.496 137.509 20.097 148.236 22.9276C161.214 26.3525 168.591 48.8819 161.892 63.34Z" fill="url(#paint3_linear_11117_34902)" fill-opacity="0.2"/>
<path d="M161.858 39.8955C159.086 33.0591 154.522 27.46 148.791 25.9467C147.345 25.5649 145.805 25.3829 144.198 25.3829C138.25 25.3829 131.385 27.8754 125 31.9821C124.611 31.2851 124.203 30.6052 123.774 29.9411C125.808 28.5972 127.922 27.4143 130.074 26.423C134.742 24.2729 139.294 23.1675 143.319 23.1675C144.987 23.1675 146.564 23.3577 148.021 23.7415C152.875 25.0226 157.177 29.1946 160.136 35.4882C160.808 36.9165 161.382 38.3917 161.858 39.8955Z" fill="#DADDE4"/>
<path d="M112.776 39.7591L115.98 51.3333C115.992 51.3758 116 51.4195 116.005 51.4633C116.286 53.9552 115.965 57.7137 115.593 62.0652C114.734 72.1166 113.557 85.8815 119.419 92.6342C121.677 95.2352 124.757 96.6103 128.836 96.8379C135.367 97.2052 137.338 93.7448 140.321 88.511C141.662 86.1567 143.182 83.4879 145.372 80.7315C147.266 78.348 149.501 76.3438 151.663 74.4056C155.174 71.2572 158.805 68.0023 161.129 62.9861C164.727 55.2186 164.339 44.4251 160.137 35.4881C157.178 29.1945 152.875 25.0225 148.022 23.7414C143.05 22.4304 136.676 23.3817 130.074 26.4229C123.593 29.4083 117.465 34.1346 112.776 39.7591ZM129.759 98.5479C129.43 98.5479 129.092 98.5383 128.742 98.5187C124.248 98.2682 120.683 96.6597 118.147 93.7378C111.819 86.4472 113.031 72.272 113.915 61.9219C114.276 57.6991 114.589 54.0459 114.339 51.717L111.037 39.7851C110.964 39.5218 111.023 39.239 111.196 39.0278C121.459 26.4883 137.475 19.2167 148.451 22.1139C153.795 23.5245 158.486 28.0193 161.661 34.7714C166.065 44.1404 166.456 55.4932 162.657 63.6939C160.186 69.0247 156.425 72.3969 152.787 75.6588C150.58 77.6377 148.495 79.5068 146.69 81.7792C144.581 84.4335 143.095 87.0428 141.783 89.3444C138.869 94.4589 136.539 98.5479 129.759 98.5479Z" fill="#371B45"/>
<path d="M161.89 63.3402C158.047 71.6442 150.936 75.0818 146.028 81.2542C144.851 82.7371 143.868 84.1996 143 85.6025C138.67 92.6083 137.237 98.1484 128.789 97.6765C108.104 96.5273 115.177 66.3744 115.267 53.9401L116.447 53.8919C116.447 53.8919 129.806 29.6399 145.454 29.6088C156.328 29.5835 162.153 42.1928 164.374 52.5448L164.376 52.5486L164.376 52.5518C164.354 53.0763 164.317 53.5983 164.268 54.1171C163.974 57.3663 163.202 60.5076 161.89 63.3402Z" fill="white"/>
<path d="M143 85.6025C138.67 92.6083 137.237 98.1484 128.789 97.6765C108.104 96.5273 115.177 66.3744 115.267 53.9401L116.447 53.8919C116.447 53.8919 129.806 29.6399 145.454 29.6088C156.328 29.5835 162.153 42.1928 164.374 52.5448L164.376 52.5486L164.376 52.5518C164.354 53.0763 164.317 53.5983 164.268 54.1171C162.873 52.0165 150.449 37.044 139.885 41.7443C130.308 46.0052 130.144 57.587 129.949 70.8743C129.876 75.7928 126.421 83.4017 129.129 88.0234C130.755 90.7969 136.836 93.509 143 85.6025Z" fill="#ADAEC4"/>
<path d="M116.095 54.7492C116.037 56.8523 115.82 59.3924 115.592 62.0632C114.732 72.1152 113.556 85.8814 119.418 92.6341C121.677 95.2351 124.757 96.6102 128.835 96.8372C135.368 97.2006 137.338 93.7447 140.319 88.5116C141.661 86.1566 143.181 83.4878 145.37 80.7314C147.264 78.3492 149.499 76.345 151.661 74.4074C155.173 71.259 158.804 68.0035 161.127 62.986C162.542 59.9334 163.35 56.4477 163.529 52.6232C162.372 47.2842 157.739 30.4496 145.486 30.4496C145.476 30.4496 145.467 30.4496 145.457 30.4496C130.489 30.48 117.314 54.0604 117.183 54.2982C117.041 54.5564 116.774 54.7213 116.481 54.7333L116.095 54.7492ZM129.758 98.5471C129.429 98.5471 129.091 98.5376 128.742 98.5179C124.248 98.2674 120.683 96.6596 118.147 93.7377C111.818 86.4478 113.029 72.2713 113.914 61.9199C114.18 58.8039 114.41 56.1128 114.427 53.9348C114.43 53.4858 114.785 53.1179 115.233 53.0995L115.943 53.0703C117.86 49.7241 130.451 28.7961 145.453 28.7663C145.464 28.7657 145.476 28.7657 145.486 28.7657C159.055 28.7657 163.992 46.7648 165.19 52.3391C165.213 52.426 165.221 52.516 165.216 52.6054C165.035 56.6861 164.174 60.4161 162.655 63.6932C160.186 69.0259 156.423 72.3987 152.785 75.6613C150.577 77.6395 148.493 79.5079 146.689 81.7785C144.58 84.4334 143.093 87.0427 141.782 89.345C138.869 94.4582 136.539 98.5471 129.758 98.5471Z" fill="#371B45"/>
<path d="M143.442 75.0005C143.284 75.0005 143.167 74.9555 143.096 74.8622C142.365 73.9013 148.852 68.6055 152.792 62.2047C155.909 57.1391 157.985 51.4582 158.902 51.4582C159.143 51.4582 159.305 51.8527 159.383 52.7578C160.208 62.2479 146.095 75.0018 143.442 75.0005Z" fill="#ADAEC4"/>
<path d="M12.8956 32.7582C13.161 41.9065 18.3412 47.8645 20.4177 55.4728C23.4087 66.4318 20.2578 73.8873 29.7968 77.3604C50.6575 84.9548 55.335 49.381 60.4831 40.3336L68.2608 30.6145C63.9372 15.6351 52.3421 2.61607 41.3666 0.992416C28.0888 -0.971817 12.4335 16.8306 12.8956 32.7582Z" fill="url(#paint4_linear_11117_34902)"/>
<path d="M12.8956 32.7582C13.161 41.9065 18.3412 47.8645 20.4177 55.4728C23.4087 66.4318 20.2578 73.8873 29.7968 77.3604C50.6575 84.9548 55.335 49.381 60.4831 40.3336L68.2608 30.6145C63.9372 15.6351 52.3421 2.61607 41.3666 0.992416C28.0888 -0.971817 12.4335 16.8306 12.8956 32.7582Z" fill="url(#paint5_linear_11117_34902)" fill-opacity="0.2"/>
<path d="M12.8956 32.7582C13.161 41.9065 18.3412 47.8645 20.4177 55.4728C23.4087 66.4318 20.2578 73.8873 29.7968 77.3604C50.6575 84.9548 55.335 49.381 60.4831 40.3336L68.2608 30.6145C63.9372 15.6351 52.3421 2.61607 41.3666 0.992416C28.0888 -0.971817 12.4335 16.8306 12.8956 32.7582Z" fill="url(#paint6_linear_11117_34902)"/>
<path d="M12.8956 32.7582C13.161 41.9065 18.3412 47.8645 20.4177 55.4728C23.4087 66.4318 20.2578 73.8873 29.7968 77.3604C50.6575 84.9548 55.335 49.381 60.4831 40.3336L68.2608 30.6145C63.9372 15.6351 52.3421 2.61607 41.3666 0.992416C28.0888 -0.971817 12.4335 16.8306 12.8956 32.7582Z" fill="url(#paint7_linear_11117_34902)" fill-opacity="0.2"/>
<path d="M59.1574 18.4675C53.7569 10.4787 46.6191 4.57709 39.6666 3.54835C39.0451 3.45639 38.4191 3.41199 37.788 3.41199C32.4604 3.41199 26.8468 6.58126 22.161 11.2233C23.191 10.0283 24.3003 8.89814 25.4806 7.84911C30.0091 3.8255 34.8401 1.68369 39.293 1.68369C39.9514 1.68369 40.6028 1.7306 41.2427 1.82511C46.3293 2.57795 51.8129 5.96352 56.6832 11.359C58.2707 13.1184 59.7466 15.0376 61.0868 17.0747C60.4322 17.5162 59.7885 17.9804 59.1574 18.4675Z" fill="#DADDE4"/>
<path d="M13.7365 32.7335C13.8968 38.2602 15.9515 42.6821 17.9386 46.9582C19.1627 49.5915 20.428 52.3149 21.2296 55.2515C22.1563 58.6472 22.5026 61.6991 22.8083 64.3915C23.4875 70.3768 23.9366 74.3306 30.0842 76.5695C33.9227 77.9667 37.2955 77.9166 40.3963 76.4147C48.4435 72.5173 52.7843 59.4013 55.9535 49.8249C57.326 45.6776 58.5114 42.0967 59.7514 39.9175C59.7729 39.8788 59.7977 39.842 59.8256 39.8078L67.3292 30.4305C65.235 23.4146 61.4644 16.6568 56.6829 11.359C51.8126 5.96354 46.329 2.57796 41.2424 1.82513C36.2769 1.09068 30.6785 3.22997 25.4803 7.84913C18.0978 14.409 13.4883 24.177 13.7365 32.7335ZM35.3319 79.2529C33.4711 79.2529 31.5265 78.8857 29.5084 78.1513C22.3808 75.5566 21.8315 70.7135 21.1351 64.5817C20.8364 61.949 20.4977 58.9656 19.6054 55.6948C18.8411 52.8953 17.6614 50.3558 16.412 47.6679C14.353 43.2371 12.224 38.6553 12.0536 32.7829C11.7915 23.7482 16.6225 13.4672 24.3621 6.59081C29.939 1.63487 36.0207 -0.649658 41.4891 0.15963C52.7189 1.82133 64.576 14.8131 69.0696 30.3811C69.1451 30.6437 69.0886 30.9272 68.918 31.1403L61.1822 40.8067C60.0355 42.8489 58.8837 46.3296 57.5518 50.3539C54.288 60.2156 49.8179 73.7224 41.1295 77.9299C39.3092 78.8121 37.371 79.2529 35.3319 79.2529Z" fill="#371B45"/>
<path d="M12.8974 32.7595C13.1593 41.9058 18.3412 47.8664 20.4203 55.4728C20.9194 57.3001 21.2461 59.0315 21.4915 60.6628C22.7111 68.807 21.8467 74.4644 29.7969 77.3585C49.2623 84.4492 54.6393 53.9487 59.4538 42.4836L58.3883 41.975C58.3883 41.975 55.6624 14.4211 41.2918 8.22905C31.307 3.92257 20.986 13.218 14.8669 21.8582L14.8631 21.8607L14.8624 21.8639C14.676 22.3548 14.5042 22.8489 14.345 23.3448C13.3353 26.4469 12.8078 29.6384 12.8974 32.7595Z" fill="white"/>
<path d="M21.4911 60.6628C22.7107 68.807 21.8462 74.4644 29.7964 77.3585C49.2618 84.4492 54.6389 53.9487 59.4534 42.4836L58.3879 41.975C58.3879 41.975 55.6619 14.4211 41.2914 8.22905C31.3065 3.92258 20.9856 13.218 14.8665 21.8582L14.8627 21.8607L14.862 21.8639C14.6756 22.3548 14.5038 22.8489 14.3446 23.3449C16.4546 21.9641 33.7712 13.0956 41.63 21.5779C48.7538 29.2661 44.3427 39.9758 39.2884 52.2661C37.4174 56.8155 37.5963 65.1703 33.2866 68.351C30.6996 70.2601 24.0413 70.3578 21.4911 60.6628Z" fill="#ADAEC4"/>
<path d="M15.6116 22.2635C14.2708 25.8488 13.6404 29.3714 13.7377 32.7341C13.8969 38.2615 15.9522 42.6847 17.9405 46.9613C19.164 49.594 20.4293 52.3162 21.231 55.2514C22.1576 58.6478 22.5039 61.6998 22.8089 64.3927C23.4876 70.3768 23.936 74.33 30.0849 76.5688C33.9233 77.9661 37.2962 77.916 40.3964 76.4147C48.4448 72.518 52.7856 59.4006 55.9555 49.8236C56.7978 47.2784 57.5988 44.8582 58.3738 42.9016L58.0256 42.7354C57.7605 42.6085 57.5804 42.3517 57.5512 42.0593C57.5246 41.7885 54.7035 14.9247 40.9577 9.00153C29.6847 4.142 18.7803 17.8098 15.6116 22.2635ZM35.3332 79.2529C33.4724 79.2529 31.5272 78.8857 29.509 78.1506C22.3808 75.5553 21.8316 70.7129 21.1365 64.5824C20.8377 61.9496 20.499 58.9662 19.6067 55.6948C18.8424 52.8972 17.6627 50.3583 16.4139 47.671C14.354 43.2396 12.2242 38.656 12.0549 32.7829C11.9503 29.1697 12.629 25.3991 14.0722 21.5747C14.1033 21.4897 14.1477 21.4104 14.2031 21.3394C17.5111 16.6764 29.1488 2.07692 41.6243 7.45525C55.4018 13.393 58.7316 37.5885 59.1749 41.4187L59.8161 41.7257C60.2207 41.9191 60.4028 42.3967 60.229 42.8109C59.3855 44.8189 58.5368 47.3831 57.5538 50.3526C54.29 60.215 49.8192 73.723 41.1302 77.9305C39.3099 78.8115 37.3723 79.2529 35.3332 79.2529Z" fill="#371B45"/>
<path d="M25.4733 50.7935C23.334 50.7935 14.7324 32.6815 19.3693 24.0204C19.7474 23.3145 20.0283 22.998 20.2414 22.998C21.1896 22.998 20.8103 29.2313 21.7078 35.2997C22.8069 42.7348 26.6834 50.158 25.6331 50.7529C25.5849 50.7801 25.5316 50.7935 25.4733 50.7935Z" fill="#ADAEC4"/>
<path d="M37.5133 117.206C40.772 120.052 41.197 123.015 40.8171 124.777C40.5164 126.172 39.886 127.476 38.2065 128.345C36.4364 129.26 33.0369 129.594 29.775 127.926C28.4443 127.244 26.8029 126.26 24.5076 126.428C24.3116 125.947 24.6129 125.403 25.1634 124.861C24.1677 124.144 22.922 123.435 20.8157 122.767C20.7942 122.76 22.7197 117.048 31.8984 115.602C31.8286 114.279 32.6341 113.57 33.7656 113.506C34.1988 115.817 35.3277 115.298 37.5133 117.206Z" fill="#C4612B"/>
<path d="M38.2051 128.344C36.4362 129.26 33.0361 129.596 29.7748 127.926C28.4474 127.248 26.8135 126.265 24.529 126.426C24.5214 126.425 24.5119 126.426 24.5056 126.426C24.4764 126.353 24.4574 126.279 24.4504 126.204C24.4314 126.001 24.4878 125.79 24.6001 125.575C24.7256 125.34 24.921 125.101 25.1626 124.862C24.1662 124.144 22.9206 123.434 20.8156 122.768C20.8149 122.761 20.8523 122.639 20.9456 122.433C20.9595 122.398 20.9786 122.362 20.9982 122.321C21.0629 122.183 21.1485 122.021 21.2545 121.835C21.2767 121.798 21.2982 121.758 21.323 121.717C21.375 121.633 21.4282 121.545 21.4891 121.451C21.5151 121.409 21.5443 121.367 21.5735 121.325C21.7682 121.035 22.0054 120.718 22.2933 120.381C23.7952 118.632 26.6715 116.428 31.8976 115.602C31.8285 114.278 32.6333 113.57 33.7654 113.505C34.198 115.818 35.3263 115.298 37.5131 117.207C40.2093 119.563 40.9659 121.998 40.9292 123.765L40.9311 123.77C40.9241 124.137 40.8829 124.475 40.8163 124.778C40.5144 126.172 39.8852 127.476 38.2051 128.344Z" fill="#C4612B"/>
<path d="M38.2051 128.344C36.4362 129.26 33.0361 129.596 29.7748 127.926C28.4474 127.248 26.8135 126.265 24.529 126.426C24.5214 126.425 24.5119 126.426 24.5056 126.426C24.4764 126.353 24.4574 126.279 24.4504 126.204C24.4314 126.001 24.4878 125.79 24.6001 125.575C24.7256 125.34 24.921 125.101 25.1626 124.862C24.1662 124.144 22.9206 123.434 20.8156 122.768C20.8149 122.761 20.8523 122.639 20.9456 122.433C20.9595 122.398 20.9786 122.362 20.9982 122.321C21.0629 122.183 21.1485 122.021 21.2545 121.835C21.2767 121.798 21.2982 121.758 21.323 121.717C21.375 121.633 21.4282 121.545 21.4891 121.451C21.5151 121.409 21.5443 121.367 21.5735 121.325C21.7682 121.035 22.0054 120.718 22.2933 120.381C23.7952 118.632 26.6715 116.428 31.8976 115.602C31.8957 115.563 31.8938 115.526 31.8938 115.488C31.8849 115.004 31.9997 114.609 32.2065 114.3C32.2217 114.278 32.2357 114.258 32.2509 114.236C32.5642 113.814 33.0583 113.574 33.6513 113.514C33.6887 113.511 33.7261 113.507 33.7654 113.505C34.198 115.818 35.3263 115.298 37.5131 117.207C40.2093 119.563 40.9659 121.998 40.9292 123.765L40.9311 123.77C40.9241 124.137 40.8829 124.475 40.8163 124.778C40.7446 125.112 40.6533 125.441 40.5328 125.76C40.1528 126.771 39.4812 127.684 38.2051 128.344Z" fill="#666566"/>
<path d="M31.8506 115.61C31.8633 115.566 31.8786 115.526 31.8938 115.488C31.8938 115.493 31.8944 115.498 31.8944 115.503C31.8944 115.514 31.8951 115.526 31.8951 115.537C31.8957 115.559 31.897 115.58 31.8982 115.602C31.8824 115.605 31.8665 115.607 31.8506 115.61Z" fill="#A3F2FF"/>
<path d="M31.8978 115.602C31.8965 115.58 31.8953 115.559 31.8947 115.538C31.8959 115.559 31.8965 115.58 31.8978 115.602Z" fill="#DCA080"/>
<path d="M31.8506 115.61C31.8665 115.607 31.8824 115.605 31.8982 115.602C31.897 115.58 31.8963 115.559 31.8951 115.537C31.8951 115.526 31.8944 115.514 31.8944 115.503C31.8957 115.535 31.8963 115.568 31.8989 115.602C31.883 115.604 31.8665 115.608 31.8506 115.61Z" fill="#A3A3A3"/>
<path d="M40.5333 125.76C40.3493 125.122 40.1489 124.611 40.043 123.914C39.7906 122.23 38.8018 119.961 37.1991 118.561C35.1695 116.786 33.9378 117.165 32.9243 115.069C32.2552 115.106 32.0757 115.026 31.8943 115.488C31.8937 115.473 31.8937 115.458 31.8937 115.443C31.8924 114.98 32.0066 114.598 32.207 114.3C32.2222 114.278 32.2362 114.258 32.2514 114.236C32.5647 113.814 33.0588 113.574 33.6518 113.514C33.6879 113.513 33.7254 113.509 33.7647 113.507L33.766 113.505C34.1985 115.818 35.3268 115.298 37.5137 117.206C40.147 119.508 40.9297 121.884 40.9309 123.64C40.9309 123.682 40.9303 123.723 40.9297 123.765L40.9316 123.77C40.9246 124.137 40.8834 124.475 40.8168 124.778C40.7451 125.112 40.6538 125.441 40.5333 125.76Z" fill="#A3A3A3"/>
<path d="M21.1863 122.889C21.0841 122.855 20.9814 122.82 20.8761 122.787C20.982 122.82 21.0854 122.854 21.1863 122.888V122.889ZM20.8171 122.768C20.8165 122.768 20.8159 122.767 20.8146 122.767C20.814 122.762 20.8324 122.703 20.8742 122.599C20.8311 122.707 20.8133 122.766 20.8152 122.767H20.8159C20.8159 122.767 20.8159 122.767 20.8159 122.768C20.8165 122.768 20.8171 122.768 20.8171 122.768Z" fill="#A3F2FF"/>
<path d="M20.8163 122.767H20.8157C20.8138 122.766 20.8315 122.707 20.8747 122.599C20.8937 122.552 20.9178 122.496 20.947 122.431C20.9463 122.432 20.9463 122.433 20.9463 122.433C20.8544 122.637 20.8163 122.758 20.8163 122.767Z" fill="#DCA080"/>
<path d="M20.978 122.363C21.0395 122.231 21.1207 122.071 21.2241 121.889C21.1321 122.053 21.0567 122.197 20.9983 122.321C20.9913 122.336 20.9844 122.349 20.978 122.363Z" fill="#DCA080"/>
<path d="M21.5715 121.328C21.581 121.314 21.5904 121.299 21.6004 121.285C21.5916 121.298 21.5828 121.311 21.5734 121.325C21.5728 121.326 21.5722 121.327 21.5715 121.328Z" fill="#DCA080"/>
<path d="M30.324 115.906C30.3309 115.904 30.3378 115.903 30.3447 115.902C30.3378 115.903 30.3309 115.905 30.324 115.906Z" fill="#DCA080"/>
<path d="M21.1859 122.888C21.0851 122.854 20.9817 122.82 20.8758 122.786C20.8561 122.78 20.8365 122.774 20.8168 122.767C20.8168 122.767 20.8162 122.767 20.8156 122.767C20.8156 122.767 20.8156 122.767 20.8156 122.767C20.8156 122.759 20.853 122.637 20.9456 122.433C20.9456 122.433 20.9456 122.432 20.9462 122.431C20.9557 122.41 20.9665 122.386 20.9779 122.363C20.9843 122.349 20.9912 122.336 20.9982 122.321C21.0566 122.197 21.132 122.053 21.224 121.889C21.3198 121.72 21.4346 121.531 21.5716 121.328C21.5722 121.327 21.5728 121.326 21.5735 121.325C21.583 121.311 21.5919 121.298 21.6007 121.285C21.7897 121.006 22.0193 120.702 22.2946 120.381C23.284 119.229 24.8696 117.878 27.3317 116.854C28.212 116.489 29.204 116.165 30.3202 115.907C30.3215 115.907 30.3228 115.906 30.3234 115.906C30.3304 115.905 30.3374 115.903 30.3443 115.902C30.3494 115.901 30.3551 115.899 30.3602 115.898C30.3627 115.897 30.3653 115.897 30.3678 115.896C30.8397 115.788 31.3331 115.692 31.85 115.609C31.7581 115.91 31.7365 116.297 31.7619 116.773C26.5332 117.596 23.6607 119.801 22.157 121.551C21.7314 122.048 21.4143 122.507 21.1859 122.888Z" fill="#A3A3A3"/>
<path d="M38.2051 128.344C36.4362 129.26 33.0361 129.596 29.7748 127.926C28.4474 127.248 26.8135 126.265 24.529 126.426C24.5214 126.425 24.5119 126.426 24.5056 126.426C24.4764 126.353 24.4574 126.279 24.4504 126.204C24.4314 126.001 24.4859 125.789 24.6001 125.575C24.725 125.34 24.921 125.101 25.1626 124.862C24.1662 124.144 22.9206 123.434 20.8156 122.768C20.8149 122.761 20.8523 122.639 20.9456 122.433C20.9595 122.398 20.9786 122.362 20.9982 122.321C21.0629 122.184 21.1485 122.021 21.2545 121.835C21.2767 121.798 21.2982 121.758 21.323 121.717C21.375 121.633 21.4282 121.545 21.4891 121.451C21.5151 121.409 21.5443 121.367 21.5741 121.325C21.7682 121.035 22.0054 120.718 22.2933 120.381C21.973 121.405 22.3219 121.984 23.3665 122.166C25.4556 122.532 27.3501 122.297 29.2167 123.257C28.1023 124.327 30.6913 125.788 31.5494 125.815C34.9121 125.92 36.3366 122.686 37.999 122.3C40.1503 121.802 40.9292 123.768 40.9311 123.77C40.9241 124.137 40.8829 124.475 40.8163 124.778C40.5144 126.172 39.8852 127.476 38.2051 128.344Z" fill="#515151"/>
<path d="M25.6024 125.601C27.3669 125.736 28.7457 126.455 29.8023 127.005L30.1524 127.187C33.0833 128.686 36.184 128.456 37.8248 127.607C39.0337 126.982 39.6857 126.083 40.0053 124.602C40.1804 123.789 40.4785 120.898 36.9667 117.832C36.2405 117.197 35.6507 116.86 35.1306 116.562C34.3156 116.097 33.5932 115.683 33.1714 114.503C32.8461 114.693 32.6995 115.042 32.7268 115.558C32.749 115.983 32.4471 116.356 32.0266 116.423C25.3449 117.475 22.7782 120.801 21.9517 122.276C23.7942 122.946 24.8857 123.639 25.6481 124.188C25.8466 124.331 25.9715 124.554 25.9906 124.798C26.009 125.041 25.9195 125.281 25.7451 125.453C25.6918 125.505 25.6443 125.555 25.6024 125.601ZM34.627 129.943C32.9938 129.943 31.1723 129.574 29.3964 128.665L29.0356 128.478C27.8127 127.841 26.4282 127.118 24.568 127.256C24.2096 127.283 23.8741 127.075 23.7384 126.741C23.576 126.343 23.5177 125.762 23.9502 125.047C23.186 124.574 22.1528 124.062 20.564 123.558C20.1974 123.442 19.9583 123.087 19.9875 122.703C19.9919 122.643 21.7475 116.628 31.1095 114.895C31.3283 113.619 32.3069 112.757 33.7181 112.677C34.1355 112.649 34.5046 112.943 34.5813 113.353C34.7875 114.453 35.0817 114.622 35.9545 115.121C36.5132 115.441 37.2077 115.838 38.0589 116.581C42.255 120.245 41.8516 123.915 41.6284 124.952C41.362 126.187 40.7569 127.959 38.5872 129.082C37.5749 129.606 36.1866 129.943 34.627 129.943Z" fill="#371B45"/>
<path d="M32.6879 115.348C32.7653 116.407 32.8268 117.512 33.1985 118.519C32.3397 117.777 31.7271 116.801 31.1074 115.856L32.6879 115.348Z" fill="#371B45"/>
<path d="M24.6825 124.184C26.055 123.605 27.5429 123.06 29.0422 123.278C27.6939 123.599 26.5916 124.587 25.6434 125.539L24.6825 124.184Z" fill="#371B45"/>
<path d="M55.5466 134.09C53.7562 137.277 48.6461 141.911 44.2674 138.172C40.3167 134.188 46.6997 128.313 41.7558 123.864C39.7078 122.153 37.6079 122.601 37.1988 124.011C36.6857 125.779 38.9455 126.335 38.9068 128.655C38.7723 132.224 36.4339 136.613 39.0577 141.164C41.9479 146.408 51.1844 149.172 58.0582 142.936L55.5466 134.09Z" fill="white"/>
<path d="M37.3499 125.355C37.8325 126.272 38.9342 127.029 38.9063 128.655C38.7725 132.223 36.4328 136.612 39.0592 141.164C41.9481 146.408 51.1845 149.172 58.0584 142.936L55.5474 134.09C54.3418 136.233 51.6374 139.033 48.6628 139.497C47.2142 139.723 45.7015 139.395 44.2675 138.171C40.3175 134.187 46.6992 128.313 41.7566 123.865C39.708 122.154 37.6087 122.601 37.1996 124.011C37.0448 124.542 37.1393 124.962 37.3499 125.355Z" fill="url(#paint8_linear_11117_34902)"/>
<path d="M37.3499 125.355C37.8325 126.272 38.9342 127.029 38.9063 128.655C38.7725 132.223 36.4328 136.612 39.0592 141.164C41.9481 146.408 51.1845 149.172 58.0584 142.936L55.5474 134.09C54.3418 136.233 51.6374 139.033 48.6628 139.497C47.2142 139.723 45.7015 139.395 44.2675 138.171C40.3175 134.187 46.6992 128.313 41.7566 123.865C39.708 122.154 37.6087 122.601 37.1996 124.011C37.0448 124.542 37.1393 124.962 37.3499 125.355Z" fill="url(#paint9_linear_11117_34902)" fill-opacity="0.2"/>
<path d="M38.9065 128.655C38.7727 132.223 36.433 136.612 39.0594 141.164C41.9483 146.408 51.1847 149.172 58.0586 142.936L55.5477 134.09C54.342 136.233 51.6376 139.033 48.663 139.497C48.5241 140.282 48.4918 141.347 48.8958 142.513C49.5706 144.458 43.1933 145.068 40.2923 140.453C37.1674 135.478 42.6993 128.346 38.3687 125.44C38.0408 125.221 37.7008 125.202 37.3501 125.355C37.8328 126.272 38.9344 127.029 38.9065 128.655Z" fill="#9D9FE6"/>
<path d="M49.126 147.351C48.3732 147.351 47.6146 147.289 46.8529 147.162C43.1597 146.546 39.894 144.402 38.3307 141.565C36.3176 138.074 36.9968 134.731 37.5956 131.782C37.8245 130.655 38.0408 129.59 38.077 128.624C38.0909 127.778 37.6901 127.253 37.2258 126.644C36.6911 125.945 36.0258 125.073 36.4013 123.78C36.6404 122.955 37.2753 122.329 38.1429 122.065C39.405 121.679 40.9551 122.114 42.2877 123.227C45.2597 125.901 44.6559 129.003 44.1231 131.741C43.6798 134.02 43.2967 135.99 44.8329 137.563C45.984 138.535 47.2639 138.903 48.6377 138.659C51.1105 138.219 53.6209 135.823 54.8227 133.684L56.2701 134.497C54.9204 136.9 52.0473 139.739 48.9288 140.294C47.0578 140.626 45.2597 140.111 43.728 138.803C43.7109 138.788 43.6938 138.773 43.6779 138.756C41.4955 136.555 42.0257 133.829 42.4938 131.424C43.0069 128.785 43.4502 126.506 41.1999 124.481C40.163 123.616 39.1869 123.482 38.6268 123.653C38.3966 123.723 38.1004 123.883 37.9958 124.243C37.8657 124.691 38.0332 124.966 38.5457 125.637C39.0581 126.309 39.7609 127.229 39.7368 128.669C39.6949 129.788 39.4653 130.918 39.223 132.112C38.656 134.903 38.07 137.789 39.7767 140.75C41.1086 143.167 43.9221 144.99 47.1263 145.524C50.8543 146.146 54.5386 145.008 57.5005 142.321L58.6155 143.551C55.8711 146.041 52.5655 147.351 49.126 147.351Z" fill="#371B45"/>
<path d="M75.1662 148.229C67.1913 153.288 69.9135 172.82 65.125 178.448C63.6364 180.197 61.7197 180.297 59.9445 180.297C55.9666 180.297 54.5852 180.297 50.729 180.297C45.8689 180.297 45.1509 178.671 44.8312 177.551C44.3213 175.765 45.298 171.692 48.01 169.926C46.2488 156.216 50.1164 135.054 52.1523 129.287" fill="url(#paint10_linear_11117_34902)"/>
<path d="M75.1662 148.229C67.1913 153.288 69.9135 172.82 65.125 178.448C63.6364 180.197 61.7197 180.297 59.9445 180.297C55.9666 180.297 54.5852 180.297 50.729 180.297C45.8689 180.297 45.1509 178.671 44.8312 177.551C44.3213 175.765 45.298 171.692 48.01 169.926C46.2488 156.216 50.1164 135.054 52.1523 129.287" fill="url(#paint11_linear_11117_34902)" fill-opacity="0.2"/>
<path d="M75.1665 148.228C67.1929 153.286 69.9137 172.82 65.1259 178.449C63.6354 180.197 61.72 180.296 59.9454 180.296H50.7287C45.8704 180.296 45.1518 178.671 44.8322 177.55C44.6495 176.913 44.6584 175.987 44.8658 174.977C45.2393 173.155 46.2668 171.062 48.0097 169.925C46.2497 156.215 50.1166 135.054 52.1525 129.286L75.1665 148.228Z" fill="url(#paint12_linear_11117_34902)"/>
<path d="M75.1665 148.228C67.1929 153.286 69.9137 172.82 65.1259 178.449C63.6354 180.197 61.72 180.296 59.9454 180.296H50.7287C45.8704 180.296 45.1518 178.671 44.8322 177.55C44.6495 176.913 44.6584 175.987 44.8658 174.977C45.2393 173.155 46.2668 171.062 48.0097 169.925C46.2497 156.215 50.1166 135.054 52.1525 129.286L75.1665 148.228Z" fill="url(#paint13_linear_11117_34902)" fill-opacity="0.2"/>
<path d="M44.8313 177.55C45.151 178.67 45.8689 180.295 50.7297 180.295H59.9446C61.7211 180.295 63.6365 180.198 65.1244 178.449C69.9129 172.82 67.192 153.288 75.1656 148.228L52.1536 129.286C51.4914 131.162 50.634 134.666 49.8412 139.013V139.015C51.2733 144.148 55.2417 148.722 58.5829 152.259C62.3395 156.236 66.096 158.942 64.2549 165.24C62.8335 170.108 55.1605 170.228 55.1605 170.228C59.4879 171.807 63.5242 176.917 52.9293 176.917C48.461 176.917 46.3091 177.238 44.7381 175.837H44.7317C44.6696 176.504 44.7026 177.099 44.8313 177.55Z" fill="#9D9FE6"/>
<path d="M44.8313 177.55C45.151 178.67 45.8689 180.295 50.7297 180.295H59.9446C61.7211 180.295 63.6365 180.198 65.1244 178.449C69.9129 172.82 67.192 153.288 75.1656 148.228L52.1536 129.286C51.4914 131.162 50.634 134.666 49.8412 139.013V139.015C51.2733 144.148 55.2417 148.722 58.5829 152.259C62.3395 156.236 66.096 158.942 64.2549 165.24C62.8335 170.108 55.1605 170.228 55.1605 170.228C59.4879 171.807 63.5242 176.917 52.9293 176.917C48.461 176.917 46.3091 177.238 44.7381 175.837H44.7317C44.6696 176.504 44.7026 177.099 44.8313 177.55Z" fill="#9D9FE6"/>
<path d="M58.7397 180.296H50.7306C45.8704 180.296 45.1518 178.671 44.8321 177.55C44.704 177.1 44.6704 176.504 44.7326 175.838H44.7389C46.3099 177.239 48.4625 176.917 52.9307 176.917C55.8133 176.917 57.6127 176.54 58.6173 175.956C59.3315 177.235 59.4932 179.086 58.7397 180.296Z" fill="#E2EEF2"/>
<path d="M58.7397 180.296H50.7287C45.8704 180.296 45.1518 178.671 44.8322 177.55C44.6495 176.913 44.6584 175.987 44.8658 174.977C45.2577 174.501 45.7582 174.176 46.3518 174.113C47.6361 173.977 48.5247 175.688 48.5475 176.62C48.5475 176.62 49.1266 173.827 51.2411 173.985C53.1299 174.122 53.7362 176.656 53.7362 176.656C53.7362 176.656 54.7402 174.23 56.8592 174.541C58.8209 174.832 59.9372 178.372 58.7397 180.296Z" fill="white"/>
<path d="M58.7397 180.296H50.7306C45.8704 180.296 45.1518 178.671 44.8321 177.55C44.704 177.1 44.6704 176.504 44.7326 175.838H44.7389C46.3099 177.239 48.4625 176.917 52.9307 176.917C55.8133 176.917 57.6127 176.54 58.6173 175.956C59.3315 177.235 59.4932 179.086 58.7397 180.296Z" fill="#E2EEF2"/>
<path d="M59.9449 181.127H50.7295C45.6721 181.127 44.5063 179.434 44.0332 177.779C43.463 175.782 44.4296 171.633 47.1264 169.537C45.4951 155.635 49.3823 134.641 51.37 129.01C51.5223 128.578 51.996 128.351 52.4292 128.504C52.8618 128.657 53.0882 129.131 52.936 129.563C50.9622 135.153 47.082 156.18 48.8337 169.82C48.8743 170.136 48.7304 170.447 48.4633 170.621C46.019 172.213 45.2281 175.917 45.6296 177.322C45.8439 178.072 46.2422 179.467 50.7295 179.467H59.9449C61.7088 179.467 63.2684 179.349 64.4931 177.91C66.3768 175.696 67.0402 170.87 67.7423 165.76C68.7165 158.671 69.8207 150.637 74.7221 147.528C75.1096 147.282 75.6221 147.397 75.8681 147.784C76.1136 148.171 75.9988 148.684 75.6113 148.93C71.3606 151.626 70.3122 159.255 69.3869 165.986C68.6505 171.343 67.9554 176.403 65.7577 178.986C64.0764 180.961 61.9644 181.127 59.9449 181.127Z" fill="#371B45"/>
<path d="M57.2941 170.782C54.4597 170.193 51.3735 169.572 48.6126 170.595C48.2816 170.75 47.9873 170.937 47.7786 171.151C47.4577 171.482 46.93 171.49 46.5989 171.169C45.397 169.651 48.7319 168.993 49.5748 169.019C52.2684 168.948 54.8567 169.815 57.2941 170.782Z" fill="#371B45"/>
<path d="M76.8264 148.229C84.8007 153.288 82.0792 172.82 86.8677 178.448C88.3562 180.197 90.2729 180.297 92.0481 180.297C96.0254 180.297 97.4074 180.297 101.264 180.297C106.124 180.297 106.842 178.671 107.161 177.551C107.671 175.765 106.695 171.692 103.983 169.926C105.744 156.216 101.876 135.054 99.8404 129.287" fill="url(#paint14_linear_11117_34902)"/>
<path d="M76.8264 148.229C84.8007 153.288 82.0792 172.82 86.8677 178.448C88.3562 180.197 90.2729 180.297 92.0481 180.297C96.0254 180.297 97.4074 180.297 101.264 180.297C106.124 180.297 106.842 178.671 107.161 177.551C107.671 175.765 106.695 171.692 103.983 169.926C105.744 156.216 101.876 135.054 99.8404 129.287" fill="url(#paint15_linear_11117_34902)" fill-opacity="0.2"/>
<path d="M76.8264 148.228C84.8001 153.286 82.0792 172.82 86.867 178.449C88.3569 180.197 90.2729 180.296 92.0475 180.296H101.264C106.123 180.296 106.841 178.671 107.16 177.55C107.343 176.913 107.335 175.987 107.127 174.977C106.754 173.155 105.726 171.062 103.983 169.925C105.743 156.215 101.876 135.054 99.8404 129.286L76.8264 148.228Z" fill="url(#paint16_linear_11117_34902)"/>
<path d="M76.8264 148.228C84.8001 153.286 82.0792 172.82 86.867 178.449C88.3569 180.197 90.2729 180.296 92.0475 180.296H101.264C106.123 180.296 106.841 178.671 107.16 177.55C107.343 176.913 107.335 175.987 107.127 174.977C106.754 173.155 105.726 171.062 103.983 169.925C105.743 156.215 101.876 135.054 99.8404 129.286L76.8264 148.228Z" fill="url(#paint17_linear_11117_34902)" fill-opacity="0.2"/>
<path d="M107.161 177.55C106.841 178.67 106.123 180.295 101.262 180.295H92.0475C90.271 180.295 88.3556 180.198 86.867 178.449C82.0792 172.82 84.8001 153.288 76.8264 148.228L99.8385 129.286C100.501 131.162 101.358 134.666 102.151 139.013V139.015C100.719 144.148 96.7504 148.722 93.4092 152.259C89.6526 156.236 85.896 158.942 87.7372 165.24C89.1585 170.108 96.8316 170.228 96.8316 170.228C92.5041 171.807 88.4672 176.917 99.0622 176.917C103.531 176.917 105.683 177.238 107.254 175.837H107.26C107.322 176.504 107.29 177.099 107.161 177.55Z" fill="#9D9FE6"/>
<path d="M107.161 177.55C106.841 178.67 106.123 180.295 101.262 180.295H92.0475C90.271 180.295 88.3556 180.198 86.867 178.449C82.0792 172.82 84.8001 153.288 76.8264 148.228L99.8385 129.286C100.501 131.162 101.358 134.666 102.151 139.013V139.015C100.719 144.148 96.7504 148.722 93.4092 152.259C89.6526 156.236 85.896 158.942 87.7372 165.24C89.1585 170.108 96.8316 170.228 96.8316 170.228C92.5041 171.807 88.4672 176.917 99.0622 176.917C103.531 176.917 105.683 177.238 107.254 175.837H107.26C107.322 176.504 107.29 177.099 107.161 177.55Z" fill="#9D9FE6"/>
<path d="M93.2531 180.296H101.262C106.122 180.296 106.841 178.671 107.16 177.55C107.289 177.1 107.322 176.504 107.26 175.838H107.254C105.683 177.239 103.53 176.917 99.0621 176.917C96.1794 176.917 94.3801 176.54 93.3755 175.956C92.6613 177.235 92.4996 179.086 93.2531 180.296Z" fill="#E2EEF2"/>
<path d="M93.2528 180.296H101.264C106.122 180.296 106.841 178.671 107.16 177.55C107.342 176.913 107.334 175.987 107.127 174.977C106.735 174.501 106.234 174.176 105.641 174.113C104.356 173.977 103.468 175.688 103.445 176.62C103.445 176.62 102.866 173.827 100.751 173.985C98.8626 174.122 98.2563 176.656 98.2563 176.656C98.2563 176.656 97.2523 174.23 95.1327 174.541C93.1716 174.832 92.0554 178.372 93.2528 180.296Z" fill="white"/>
<path d="M93.2531 180.296H101.262C106.122 180.296 106.841 178.671 107.16 177.55C107.289 177.1 107.322 176.504 107.26 175.838H107.254C105.683 177.239 103.53 176.917 99.0621 176.917C96.1794 176.917 94.3801 176.54 93.3755 175.956C92.6613 177.235 92.4996 179.086 93.2531 180.296Z" fill="#E2EEF2"/>
<path d="M101.263 181.127H92.0474C90.028 181.127 87.916 180.961 86.2347 178.986C84.037 176.403 83.3419 171.343 82.6055 165.986C81.6802 159.255 80.6318 151.626 76.3805 148.93C75.9936 148.684 75.8788 148.171 76.1243 147.784C76.3697 147.397 76.8828 147.282 77.2703 147.528C82.1717 150.637 83.2759 158.672 84.2501 165.76C84.9522 170.87 85.6156 175.696 87.4993 177.91C88.724 179.349 90.2836 179.467 92.0474 179.467H101.263C105.75 179.467 106.148 178.072 106.363 177.322C106.764 175.917 105.973 172.213 103.529 170.621C103.262 170.447 103.118 170.136 103.159 169.82C104.91 156.181 101.03 135.153 99.0564 129.563C98.9042 129.131 99.1306 128.657 99.5632 128.504C99.9951 128.351 100.469 128.578 100.622 129.01C102.61 134.641 106.497 155.635 104.866 169.537C107.563 171.633 108.529 175.782 107.959 177.779C107.486 179.434 106.32 181.127 101.263 181.127Z" fill="#371B45"/>
<path d="M94.6976 170.783C97.1356 169.815 99.724 168.948 102.418 169.019C103.234 169.014 106.36 169.554 105.494 171.052C105.201 171.477 104.569 171.525 104.214 171.151C103.732 170.666 102.976 170.397 102.272 170.256C99.7785 169.794 97.1838 170.233 94.6976 170.783Z" fill="#371B45"/>
<path d="M29.4897 77.0168C35.4737 81.9017 61.3988 95.2841 76.0777 95.1243C80.6714 95.0742 62.9521 108.03 59.6591 109.057C56.3662 110.085 30.4582 108.805 14.9155 105.242" fill="#C97043"/>
<path d="M72.0487 100.705C67.6236 104.333 61.4677 108.492 59.6601 109.057C56.3665 110.083 30.4591 108.805 14.9165 105.242L29.49 77.0161C32.0219 79.0831 38.1277 82.6761 45.4418 86.1149C55.4056 90.8032 67.6135 95.2156 76.0786 95.1243C78.1501 95.1014 75.6822 97.7247 72.0487 100.705Z" fill="url(#paint18_linear_11117_34902)"/>
<path d="M72.0487 100.705C67.6236 104.333 61.4677 108.492 59.6601 109.057C56.3665 110.083 30.4591 108.805 14.9165 105.242L29.49 77.0161C32.0219 79.0831 38.1277 82.6761 45.4418 86.1149C55.4056 90.8032 67.6135 95.2156 76.0786 95.1243C78.1501 95.1014 75.6822 97.7247 72.0487 100.705Z" fill="url(#paint19_linear_11117_34902)" fill-opacity="0.2"/>
<path d="M91.5552 110.92C91.5552 110.92 105.865 123.921 106.57 132.48C105.377 133.959 104.32 135.898 104.988 137.72C105.455 138.992 106.842 139.312 108.299 139.433C107.106 142.655 108.232 144.901 109.648 145.728C111.352 146.723 114.137 146.402 115.607 144.673C117.924 144.614 119.723 144.068 120.839 142.839C123.083 140.366 123.294 135.23 122.343 129.92C118.836 111.606 99.2194 98.9893 91.9034 97.3016L79.7622 95.2841" fill="url(#paint20_linear_11117_34902)"/>
<path d="M91.5552 110.92C91.5552 110.92 105.865 123.921 106.57 132.48C105.377 133.959 104.32 135.898 104.988 137.72C105.455 138.992 106.842 139.312 108.299 139.433C107.106 142.655 108.232 144.901 109.648 145.728C111.352 146.723 114.137 146.402 115.607 144.673C117.924 144.614 119.723 144.068 120.839 142.839C123.083 140.366 123.294 135.23 122.343 129.92C118.836 111.606 99.2194 98.9893 91.9034 97.3016L79.7622 95.2841" fill="url(#paint21_linear_11117_34902)" fill-opacity="0.2"/>
<path d="M122.493 139.334C122.169 140.76 121.629 141.966 120.839 142.838C119.722 144.068 117.922 144.614 115.607 144.673C114.135 146.404 111.352 146.723 109.648 145.729C108.231 144.9 107.105 142.655 108.299 139.432C106.842 139.312 105.453 138.992 104.986 137.72C104.319 135.897 105.376 133.959 106.57 132.48C106.032 125.965 97.6127 116.874 93.6215 112.906C93.6982 108.835 96.2022 106.786 96.2022 106.786C101.319 118.109 108.621 122.208 109.129 131.867C106.898 132.61 105.055 135.043 106.032 136.562C106.809 137.765 108.231 136.786 109.751 137.124C111.273 137.46 111.126 140.09 110.997 141.647C110.97 141.968 110.188 141.352 110.216 141.647C110.297 142.487 110.656 143.093 111.516 143.236C113.83 143.622 115.252 141.958 115.252 141.958C115.252 141.958 118.514 143.506 122.493 139.334Z" fill="#9D9FE6"/>
<path d="M99.1217 100.46C96.7991 100.912 94.3021 101.359 93.2004 101.573C93.0844 101.595 89.2428 102.473 85.6917 103.146L79.7622 95.2841L91.9034 97.301C93.7047 97.7164 96.253 98.7953 99.1217 100.46Z" fill="#9D9FE6"/>
<path d="M111.894 147.11C110.913 147.11 109.971 146.878 109.229 146.445C107.595 145.491 106.433 143.217 107.21 140.139C106.121 139.948 104.74 139.457 104.209 138.006C103.579 136.29 104.084 134.348 105.71 132.23C104.714 124.082 91.1356 111.66 90.9967 111.534C90.6574 111.226 90.6321 110.701 90.9403 110.362C91.2485 110.022 91.7737 109.997 92.113 110.305C92.7073 110.845 106.674 123.627 107.397 132.412L107.424 132.743L107.215 133.001C105.813 134.739 105.326 136.23 105.768 137.435C106.024 138.134 106.777 138.474 108.367 138.605L109.457 138.696L109.078 139.721C108.086 142.398 108.86 144.307 110.066 145.011C111.382 145.779 113.721 145.609 114.973 144.136L115.214 143.853L115.585 143.843C117.803 143.787 119.32 143.276 120.224 142.28C122.048 140.27 122.535 135.704 121.526 130.067C118.051 111.921 98.5898 99.7148 91.7413 98.1165L79.6261 96.1028C79.1739 96.0279 78.8682 95.5998 78.943 95.1476C79.0185 94.6954 79.4447 94.3897 79.8982 94.4652L92.0895 96.4928C95.7478 97.3364 102.634 100.91 109.108 106.76C114.429 111.569 121.186 119.463 123.158 129.764C123.816 133.437 124.467 140.076 121.453 143.397C120.283 144.685 118.491 145.372 115.983 145.49C114.88 146.603 113.344 147.11 111.894 147.11Z" fill="#371B45"/>
<path d="M110.997 141.646C110.635 140.835 110.241 139.826 109.473 139.364C109.357 139.317 109.302 139.351 109.293 139.386C109.269 139.437 109.084 139.652 108.956 139.941L107.642 138.925C108.254 138.272 109.392 137.757 110.123 138.555C110.867 139.427 110.919 140.58 110.997 141.646Z" fill="#371B45"/>
<path d="M60.9305 108.475C60.4009 108.76 59.9677 108.961 59.6601 109.057C56.3665 110.083 30.4591 108.805 14.9165 105.242L28.5685 79.9673L32.58 81.7171C35.7506 88.4902 31.8075 97.5972 33.7838 101.351C36.8383 107.15 54.316 107.189 56.9081 104.706C57.772 103.881 59.4032 105.837 60.9305 108.475Z" fill="#9D9FE6"/>
<path d="M72.0486 100.705C68.207 100.082 64.1574 99.1028 61.9642 98.2332C56.9664 96.2531 48.6357 90.037 45.4417 86.1148C55.4055 90.8031 67.6133 95.2155 76.0785 95.1242C78.1499 95.1013 75.6821 97.7245 72.0486 100.705Z" fill="#9D9FE6"/>
<path d="M54.4267 110.22C45.0799 110.22 26.6604 108.786 14.7297 106.051C14.2832 105.949 14.004 105.503 14.1064 105.056C14.2088 104.609 14.6543 104.33 15.1008 104.432C30.7646 108.023 56.4867 109.177 59.4118 108.264C60.6847 107.867 64.7394 105.256 68.6425 102.319C73.0105 99.0324 75.1561 96.8982 75.7967 95.9557C61.0824 95.943 35.4801 82.9779 28.9646 77.6598C28.6094 77.37 28.5568 76.8474 28.8466 76.4922C29.1365 76.137 29.6597 76.0838 30.0149 76.3736C35.7402 81.0473 61.6304 94.4595 76.0688 94.294C77.3728 94.2718 77.6068 95.1122 77.6474 95.3678C77.7324 95.9062 77.9582 97.3352 69.9782 103.391C66.2901 106.189 61.6462 109.306 59.9065 109.849C59.1118 110.097 57.1558 110.22 54.4267 110.22Z" fill="#371B45"/>
<path d="M98.242 145.052L89.3861 151.314C86.7591 153.051 82.2427 154.78 76.0766 154.78C69.9125 154.78 65.3948 153.051 62.7691 151.314L53.9113 145.052C44.3476 133.932 52.5166 113.848 57.307 103.868C57.307 103.868 64.7593 91.6828 76.0766 91.6828C87.394 91.6828 94.8469 103.868 94.8469 103.868C99.6367 113.848 107.804 133.932 98.242 145.052Z" fill="url(#paint22_linear_11117_34902)"/>
<path d="M98.242 145.052L89.3861 151.314C86.7591 153.051 82.2427 154.78 76.0766 154.78C69.9125 154.78 65.3948 153.051 62.7691 151.314L53.9113 145.052C44.3476 133.932 52.5166 113.848 57.307 103.868C57.307 103.868 64.7593 91.6828 76.0766 91.6828C87.394 91.6828 94.8469 103.868 94.8469 103.868C99.6367 113.848 107.804 133.932 98.242 145.052Z" fill="url(#paint23_linear_11117_34902)" fill-opacity="0.2"/>
<path d="M93.2012 101.572C87.7398 102.578 72.0361 102.267 61.9644 98.2338C65.2554 95.0436 70.1333 91.6827 76.0768 91.6827C84.2521 91.6827 90.4118 98.0422 93.2012 101.572Z" fill="#9D9FE6"/>
<path d="M102.132 136.954C102.051 137.339 101.959 137.719 101.857 138.096C101.169 140.64 100.008 142.998 98.2413 145.052L89.3861 151.313C86.759 153.051 82.2426 154.779 76.0772 154.779C69.9137 154.779 65.3954 153.051 62.7677 151.313L53.9106 145.052C52.1468 142.998 50.9855 140.64 50.2948 138.096C50.1927 137.721 50.1013 137.339 50.0195 136.955C53.4584 140.05 60.8453 144.039 76.0753 144.039C91.3084 144.039 98.696 140.048 102.132 136.954Z" fill="#9D9FE6"/>
<path d="M94.0925 141.464C91.1154 146.407 85.5664 150.317 76.0757 150.317C66.5843 150.317 61.036 146.407 58.0582 141.464C62.2886 142.946 68.1103 144.039 76.0757 144.039C84.0404 144.039 89.8621 142.946 94.0925 141.464Z" fill="#FF9343"/>
<path d="M76.0753 102.911C87.6077 102.911 96.7629 112.608 97.049 129.879C97.1904 138.413 92.6391 150.317 76.0753 150.317C59.5109 150.317 54.9596 138.413 55.1011 129.879C55.3871 112.608 64.5423 102.911 76.0753 102.911Z" fill="#F8FDFF"/>
<path d="M94.0925 141.464C91.1154 146.407 85.5664 150.317 76.0757 150.317C66.5843 150.317 61.036 146.407 58.0582 141.464C62.2886 142.946 68.1103 144.039 76.0757 144.039C84.0404 144.039 89.8621 142.946 94.0925 141.464Z" fill="#E2EEF2"/>
<path d="M53.9101 145.053C48.1253 139.975 47.8398 131.214 49.2447 124.187C50.7206 116.984 53.6178 110.177 57.3052 103.867C54.7606 110.609 52.2751 117.428 51.0948 124.524C49.8929 131.49 49.9639 138.939 53.9101 145.053Z" fill="#371B45"/>
<path d="M98.2407 145.053C102.187 138.938 102.259 131.491 101.056 124.524C99.8757 117.428 97.3908 110.609 94.8456 103.867C98.533 110.177 101.43 116.984 102.907 124.187C104.312 131.212 104.026 139.978 98.2407 145.053Z" fill="#371B45"/>
<path d="M89.3855 151.313C82.6867 157.067 69.4711 157.069 62.7684 151.314C70.6526 154.859 81.4987 154.859 89.3855 151.313Z" fill="#371B45"/>
<path d="M17.9448 74.0442C15.9298 68.6437 14.5527 56.3211 23.5147 54.9568C26.7709 54.6156 28.307 56.1258 28.0844 58.7299C27.7977 62.0781 25.8316 67.1583 28.5518 70.9098C33.7259 78.0526 35.172 81.9894 32.4004 91.6653C32.4004 91.6653 33.0416 98.0394 31.253 102.326C29.3376 106.916 23.0263 111.471 10.0569 108.738C6.00839 107.711 3.78406 104.55 4.99196 100.234C3.00731 98.8664 -0.135026 94.0291 3.81146 88.262C1.59505 86.6149 -0.135026 80.7539 4.42718 76.9548C8.25639 73.7665 17.9448 74.0442 17.9448 74.0442Z" fill="url(#paint24_linear_11117_34902)"/>
<path d="M17.9448 74.0442C15.9298 68.6437 14.5527 56.3211 23.5147 54.9568C26.7709 54.6156 28.307 56.1258 28.0844 58.7299C27.7977 62.0781 25.8316 67.1583 28.5518 70.9098C33.7259 78.0526 35.172 81.9894 32.4004 91.6653C32.4004 91.6653 33.0416 98.0394 31.253 102.326C29.3376 106.916 23.0263 111.471 10.0569 108.738C6.00839 107.711 3.78406 104.55 4.99196 100.234C3.00731 98.8664 -0.135026 94.0291 3.81146 88.262C1.59505 86.6149 -0.135026 80.7539 4.42718 76.9548C8.25639 73.7665 17.9448 74.0442 17.9448 74.0442Z" fill="url(#paint25_linear_11117_34902)" fill-opacity="0.2"/>
<path d="M20.6302 89.2226C16.2819 89.8892 5.50467 89.1211 3.82971 84.9859C2.93524 82.7781 12.0188 87.6744 22.7676 84.9561C24.5213 84.5128 23.6968 88.1413 20.6302 89.2226Z" fill="#9D9FE6"/>
<path d="M20.6426 98.9233C12.7518 100.737 4.50756 98.3068 4.23395 95.3709C4.0759 93.6743 13.2284 97.807 22.9277 94.5122C23.9146 94.1767 22.9201 97.6834 20.6426 98.9233Z" fill="#9D9FE6"/>
<path d="M21.4991 106.413C16.415 109.226 7.07931 106.489 6.83469 103.864C6.69344 102.348 14.8751 106.042 23.5458 103.097C24.4274 102.797 23.4075 105.357 21.4991 106.413Z" fill="#9D9FE6"/>
<path d="M33.2472 88.272L33.2453 88.2828C33.029 89.3312 32.7474 90.4538 32.3998 91.6658C32.3998 91.6658 33.0417 98.0399 31.2537 102.325C29.7601 105.901 25.5995 109.454 17.7064 109.56C27.9868 107.859 26.9828 100.262 23.2839 98.3069C26.9809 95.9006 26.4151 91.1527 23.9067 88.5282C26.6631 86.075 27.0868 80.2603 20.5281 78.0551C26.7671 79.5886 34.6387 76.2012 33.2472 88.272Z" fill="#9D9FE6"/>
<path d="M32.2667 98.3069C32.5604 104.152 28.9332 108.013 23.5459 109.659C19.4481 110.88 15.0674 110.692 10.9122 109.915C7.13427 109.419 3.73805 106.745 3.77351 102.686C3.76996 101.76 3.94399 100.863 4.19267 100.011L4.52089 100.918C1.49241 98.6564 0.411407 94.5009 1.54803 90.9885C1.89812 89.8265 2.49298 88.7864 3.12652 87.7925L3.31641 88.9278C2.2266 88.0494 1.60764 86.9268 1.20985 85.7585C0.298514 83.1201 0.725294 80.0383 2.45435 77.823C3.03189 77.1177 3.6844 76.42 4.45354 75.9018C5.46477 75.2124 6.58432 74.7691 7.73032 74.4171C11.0697 73.4435 14.506 73.1956 17.9691 73.2146L17.1674 74.334C14.9837 68.492 13.9734 58.6055 20.2593 54.9758C22.2902 53.8919 24.7244 53.4232 26.9252 54.3961C29.4799 55.6576 29.3162 58.4501 28.8279 60.7943C28.233 64.0632 27.3533 67.7233 29.4818 70.5495C32.9847 75.4192 35.7297 80.5851 34.1377 86.7562C33.8231 88.0754 33.336 89.3363 32.7113 90.5356C32.7227 89.1765 32.8629 87.8699 32.9105 86.5742C33.4229 80.0472 31.6908 76.8088 27.9133 71.6784C27.7319 71.4311 27.4789 71.0303 27.3133 70.7702C26.2034 68.8916 25.9979 66.5031 26.2047 64.4323C26.3284 63.0528 26.5839 61.7196 26.8021 60.4404C27.014 58.9962 27.5626 57.0472 26.0163 56.2544C24.5506 55.6284 22.646 56.0293 21.2601 56.7732C16.9258 59.2842 17.0729 65.7027 17.7972 70.0618C18.0655 71.7038 18.5431 73.344 19.1253 74.8896C14.8404 74.8217 7.31497 74.9695 4.25553 78.2523C3.2462 79.3508 2.55431 80.7601 2.43158 82.2588C2.2488 84.1127 2.8791 86.4219 4.30671 87.5953L4.90936 88.078L4.49673 88.7306C3.35998 90.4265 2.60461 92.4092 2.78429 94.4552C2.95065 96.5996 4.10832 98.7211 5.92332 99.8887L5.79159 100.458C4.82463 104.313 6.90087 107.135 10.7141 107.835C17.4788 109.206 26.2415 109.224 30.4128 102.75C31.2399 101.445 31.7606 99.8849 32.2667 98.3069Z" fill="#371B45"/>
<path d="M10.1905 107.907C14.3426 108.845 21.2432 109.206 24.2317 105.669C26.0609 103.449 25.5008 100.139 22.9759 98.7134L21.8242 98.0208L22.9626 97.2972C24.2045 96.4891 25.0829 94.8959 25.119 93.3928C25.2167 91.4362 23.9571 89.7408 22.6582 88.3671L23.4757 87.8178C25.0486 86.3724 25.4583 83.6433 24.5247 81.7152C23.3717 79.4135 20.8582 78.3804 18.4773 77.6263C23.0387 77.4594 27.5247 80.2583 26.763 85.331C26.47 86.8874 25.8091 88.3759 24.3376 89.2372L24.5241 87.9726C27.1099 90.7245 27.6959 94.7266 25.0474 97.672C24.7011 98.057 24.3104 98.4077 23.8429 98.7045L23.8296 97.2889C25.9264 98.48 27.285 100.991 26.9279 103.418C25.7089 110.909 15.5224 110.841 9.77522 109.514C8.70228 109.22 9.10457 107.644 10.1905 107.907Z" fill="#371B45"/>
<path d="M11.2561 88.7946C14.2484 89.0705 22.7106 89.6362 24.3647 86.7954C24.8467 85.8105 26.3124 86.4815 25.8773 87.4918C23.6886 91.2066 14.8314 89.5138 11.2561 88.7946Z" fill="#371B45"/>
<path d="M11.2561 99.2322C15.1682 99.5354 21.085 99.4751 23.9194 96.4441C24.6659 95.6431 25.8729 96.7092 25.1632 97.5489C21.6489 100.676 15.531 100.079 11.2561 99.2322Z" fill="#371B45"/>
<path d="M109.128 131.867C107.899 132.477 106.779 133.359 106.149 134.568L104.866 133.515C106.05 132.496 107.613 131.977 109.128 131.867Z" fill="#371B45"/>
<path d="M77.4137 96.6754C83.765 97.9788 114.576 104.921 123.326 89.0202C127.023 82.3042 124.659 75.7595 124.428 74.8031C127.092 65.4069 131.132 49.6061 126.757 37.8188C121.49 23.6258 109.982 15.9604 94.6269 12.8088C79.2727 9.65732 65.6752 12.1702 55.2433 23.1406C46.5796 32.2521 44.0693 48.3661 42.816 58.0522C42.2281 58.8406 37.477 63.9246 38.2286 71.5539C40.0082 89.6164 71.0625 95.3714 77.4137 96.6754Z" fill="url(#paint26_linear_11117_34902)"/>
<path d="M77.4137 96.6754C83.765 97.9788 114.576 104.921 123.326 89.0202C127.023 82.3042 124.659 75.7595 124.428 74.8031C127.092 65.4069 131.132 49.6061 126.757 37.8188C121.49 23.6258 109.982 15.9604 94.6269 12.8088C79.2727 9.65732 65.6752 12.1702 55.2433 23.1406C46.5796 32.2521 44.0693 48.3661 42.816 58.0522C42.2281 58.8406 37.477 63.9246 38.2286 71.5539C40.0082 89.6164 71.0625 95.3714 77.4137 96.6754Z" fill="url(#paint27_linear_11117_34902)" fill-opacity="0.2"/>
<path d="M124.712 85.6834C124.396 86.773 123.945 87.8943 123.327 89.0188C114.576 104.922 83.7642 97.9787 77.4148 96.6754C71.0629 95.3714 40.0068 89.6169 38.2284 71.5526C38.1066 70.3019 38.1288 69.1177 38.2589 68.011C38.9242 62.3707 42.3243 58.7105 42.8152 58.0522C44.0691 48.3674 46.5807 32.2514 55.2444 23.1399C65.6757 12.1695 79.2731 9.65726 94.628 12.8088C109.981 15.9603 121.489 23.6257 126.759 37.8187C131.133 49.606 127.091 65.4074 124.428 74.803C124.619 75.5971 126.29 80.2683 124.712 85.6834Z" fill="url(#paint28_linear_11117_34902)"/>
<path d="M124.712 85.6834C124.396 86.773 123.945 87.8943 123.327 89.0188C114.576 104.922 83.7642 97.9787 77.4148 96.6754C71.0629 95.3714 40.0068 89.6169 38.2284 71.5526C38.1066 70.3019 38.1288 69.1177 38.2589 68.011C38.9242 62.3707 42.3243 58.7105 42.8152 58.0522C44.0691 48.3674 46.5807 32.2514 55.2444 23.1399C65.6757 12.1695 79.2731 9.65726 94.628 12.8088C109.981 15.9603 121.489 23.6257 126.759 37.8187C131.133 49.606 127.091 65.4074 124.428 74.803C124.619 75.5971 126.29 80.2683 124.712 85.6834Z" fill="url(#paint29_linear_11117_34902)" fill-opacity="0.2"/>
<path d="M124.712 85.6834C124.396 86.773 123.945 87.8943 123.327 89.0188C114.576 104.922 83.7642 97.9787 77.4148 96.6754C71.0629 95.3714 40.0068 89.6169 38.2284 71.5526C38.1066 70.3018 38.1288 69.1177 38.2589 68.011L38.2601 68.016C39.7075 75.7151 49.7608 83.1813 57.8587 79.7355C63.7305 77.2372 64.8163 72.6124 69.2661 70.1655C72.0555 68.6344 82.7367 70.6786 82.7367 70.6786C82.7367 70.6786 93.3596 73.0075 95.32 75.5134C98.4462 79.5148 97.6223 84.1936 102.035 88.8026C108.121 95.1602 120.301 92.2566 124.666 85.7506C124.682 85.7284 124.696 85.7062 124.712 85.6834Z" fill="#9D9FE6"/>
<path d="M77.5828 95.8505L78.2107 95.9805C108.119 102.197 118.851 95.4059 122.589 88.6145C124.733 84.7183 125.111 80.2628 123.712 75.3716C123.665 75.2105 123.63 75.0855 123.609 75.0005L123.557 74.7862L123.618 74.5737C125.676 67.3142 130.495 50.3128 125.968 38.112C121.167 25.176 110.566 16.9398 94.458 13.6336C78.3496 10.3279 65.3616 13.7217 55.8531 23.7211C46.8856 33.1522 44.6189 50.6769 43.651 58.1602L43.6225 58.3797L43.4906 58.556C43.4379 58.6264 43.3567 58.7266 43.2508 58.8573C40.0378 62.8016 38.6298 67.0459 39.0661 71.4716C39.8259 79.1859 47.0163 89.6552 76.9542 95.723L77.5828 95.8505ZM98.8488 100.144C89.9707 100.144 81.5683 98.3982 77.8682 97.6289L76.62 97.3727C72.7093 96.5805 63.5509 94.7241 54.9811 90.8178C44.0728 85.8454 38.1547 79.392 37.3905 71.6365C36.9091 66.7529 38.4414 62.0951 41.9449 57.7937C41.9684 57.7651 41.9906 57.7378 42.0109 57.7131C43.5565 45.856 46.4024 31.2165 54.6329 22.5611C64.5688 12.1127 78.0813 8.55394 94.796 11.9845C111.511 15.4158 122.53 24.0091 127.546 37.5266C131.702 48.7241 128.551 63.3007 125.301 74.8084C125.31 74.8394 125.32 74.8731 125.33 74.9086C126.855 80.2425 126.429 85.1268 124.064 89.4263C120.306 96.2539 112.324 99.8538 100.34 100.128C99.842 100.139 99.3441 100.144 98.8488 100.144Z" fill="#371B45"/>
<path d="M72.0771 66.6355C72.0771 66.6355 77.2861 63.3876 84.0008 64.5812C90.6432 66.1287 94.1518 71.1665 94.1518 71.1665L72.0771 66.6355Z" fill="url(#paint30_linear_11117_34902)"/>
<path d="M72.0771 66.6355C72.0771 66.6355 77.2861 63.3876 84.0008 64.5812C90.6432 66.1287 94.1518 71.1665 94.1518 71.1665L72.0771 66.6355Z" fill="url(#paint31_linear_11117_34902)" fill-opacity="0.2"/>
<path d="M72.0771 66.6355C75.4913 64.1303 79.9728 63.2633 84.1283 63.9628C86.7331 64.5875 89.1312 65.8294 91.1443 67.5786C92.3081 68.6238 93.3895 69.8004 94.1518 71.1665C92.721 69.7084 91.1119 68.4539 89.3639 67.427C87.668 66.4135 85.7811 65.6645 83.874 65.1996C79.9163 64.5178 75.7925 65.114 72.0771 66.6355Z" fill="#371B45"/>
<path d="M70.7818 69.1579C65.5835 71.7139 60.6828 83.3579 66.3313 91.9822C68.1522 94.7627 73.3726 100.516 83.7316 100.309C91.0476 100.162 97.7382 94.9961 99.3345 95.9227C99.8527 96.2234 100.047 98.7039 103.498 99.2836C106.544 99.7941 110.172 97.6847 109.602 92.1846C109.602 92.1846 112.319 91.5142 112.93 88.733C113.542 85.9519 110.923 83.0154 106.871 84.5071C106.56 84.6213 105.911 82.846 101.702 82.0069C99.0789 81.4843 96.4418 81.9302 95.1473 82.5321C95.2469 82.0488 96.1621 77.5863 93.6556 73.8532L70.7818 69.1579Z" fill="url(#paint32_linear_11117_34902)"/>
<path d="M70.7818 69.1579C65.5835 71.7139 60.6828 83.3579 66.3313 91.9822C68.1522 94.7627 73.3726 100.516 83.7316 100.309C91.0476 100.162 97.7382 94.9961 99.3345 95.9227C99.8527 96.2234 100.047 98.7039 103.498 99.2836C106.544 99.7941 110.172 97.6847 109.602 92.1846C109.602 92.1846 112.319 91.5142 112.93 88.733C113.542 85.9519 110.923 83.0154 106.871 84.5071C106.56 84.6213 105.911 82.846 101.702 82.0069C99.0789 81.4843 96.4418 81.9302 95.1473 82.5321C95.2469 82.0488 96.1621 77.5863 93.6556 73.8532L70.7818 69.1579Z" fill="url(#paint33_linear_11117_34902)" fill-opacity="0.2"/>
<path d="M66.33 91.9822C68.1528 94.764 73.3726 100.516 83.731 100.309C91.0469 100.162 97.7369 94.9949 99.3345 95.9234C99.8514 96.224 100.047 98.7051 103.498 99.2842C106.545 99.7948 110.172 97.6847 109.601 92.1846C109.601 92.1846 109.737 92.1516 109.951 92.0697C110.706 91.7805 112.454 90.8945 112.931 88.7324C113.543 85.9513 110.923 83.0147 106.871 84.5084C106.56 84.62 105.91 82.8467 101.703 82.0076C99.0789 81.4856 96.4424 81.9315 95.1479 82.5327C95.2475 82.0482 96.1633 77.5857 93.6555 73.8519C93.6555 73.8519 90.4825 68.1621 83.5585 66.7414C76.6345 65.3201 70.7817 69.1566 70.7817 69.1566C68.671 70.1961 66.6085 72.7344 65.2835 75.9588C63.3421 80.6744 62.9774 86.8595 66.33 91.9822Z" fill="url(#paint34_linear_11117_34902)"/>
<path d="M66.33 91.9822C68.1528 94.764 73.3726 100.516 83.731 100.309C91.0469 100.162 97.7369 94.9949 99.3345 95.9234C99.8514 96.224 100.047 98.7051 103.498 99.2842C106.545 99.7948 110.172 97.6847 109.601 92.1846C109.601 92.1846 109.737 92.1516 109.951 92.0697C110.706 91.7805 112.454 90.8945 112.931 88.7324C113.543 85.9513 110.923 83.0147 106.871 84.5084C106.56 84.62 105.91 82.8467 101.703 82.0076C99.0789 81.4856 96.4424 81.9315 95.1479 82.5327C95.2475 82.0482 96.1633 77.5857 93.6555 73.8519C93.6555 73.8519 90.4825 68.1621 83.5585 66.7414C76.6345 65.3201 70.7817 69.1566 70.7817 69.1566C68.671 70.1961 66.6085 72.7344 65.2835 75.9588C63.3421 80.6744 62.9774 86.8595 66.33 91.9822Z" fill="url(#paint35_linear_11117_34902)" fill-opacity="0.2"/>
<path d="M89.9416 73.3469C87.2645 71.8298 87.2347 70.7136 82.9098 69.8256C81.6528 69.5681 80.7223 69.4705 79.9593 69.4705C78.096 69.4705 77.2315 70.0514 75.0618 70.2931C75.0618 70.2931 77.5239 67.642 81.4764 67.642C82.0593 67.642 82.6745 67.6997 83.3189 67.8322C88.3332 68.8616 89.9416 73.3469 89.9416 73.3469Z" fill="#DADDE4"/>
<path d="M88.2539 87.835C85.8533 87.835 84.9039 85.9056 84.6908 83.9763C84.4771 82.0469 85.0003 80.1175 85.5445 80.1175C85.5457 80.1175 85.547 80.1175 85.5476 80.1175C86.5396 80.1309 87.7535 85.1629 91.7797 85.1623C92.5224 85.1616 93.3621 84.9904 94.3122 84.5845C96.225 83.7676 97.8341 83.5367 99.036 83.5367C100.166 83.5367 100.936 83.741 101.26 83.8545C102.035 84.1259 102.803 84.6042 102.657 85.0716C102.546 85.4217 101.987 85.4559 101.111 85.4559C101.004 85.4559 100.892 85.4559 100.776 85.4553C100.66 85.4547 100.539 85.454 100.415 85.454C100.013 85.454 99.5687 85.4597 99.0886 85.487C96.3684 85.643 90.8283 87.3834 89.4844 87.6872C89.0372 87.788 88.6281 87.835 88.2539 87.835Z" fill="#DADDE4"/>
<path d="M111.026 88.2986C110.219 87.7842 109.405 87.613 108.653 87.613C107.905 87.613 107.218 87.7823 106.662 87.9517C106.106 88.1216 105.68 88.291 105.452 88.291C105.377 88.291 105.323 88.2719 105.293 88.2282C104.974 87.7512 107.022 85.8834 108.977 85.8834C109.552 85.8834 110.119 86.0451 110.615 86.4511C111.513 87.1868 111.026 88.2986 111.026 88.2986Z" fill="#DADDE4"/>
<path d="M106.733 92.5027C106.733 92.5027 106.68 95.3841 105.156 95.3828C103.632 95.3815 104.255 92.4266 104.255 92.4266L106.733 92.5027Z" fill="#371B45"/>
<path d="M66.33 91.9822C68.1528 94.764 73.3726 100.516 83.731 100.309C91.0469 100.162 97.7369 94.9949 99.3345 95.9234C99.8514 96.224 100.047 98.7051 103.498 99.2842C106.545 99.7948 110.172 97.6847 109.601 92.1846C109.601 92.1846 109.737 92.1516 109.951 92.0697L108.169 92.2277C108.169 92.2277 108.32 97.3041 105.124 97.3504C100.522 97.4202 101.144 91.4355 100.071 90.703C98.3996 89.562 94.5695 94.1285 85.4111 95.4242C74.9335 96.9039 62.581 88.1356 65.2835 75.9588C63.3421 80.6744 62.9774 86.8595 66.33 91.9822Z" fill="#9D9FE6"/>
<path d="M70.7821 69.1577C68.1196 71.0566 66.6361 74.0603 65.6543 77.0755C62.4571 87.0445 67.5285 96.1591 77.6205 98.8039C84.8381 100.572 89.5974 98.6586 96.0863 95.7526C96.9666 95.4056 97.6897 95.0638 98.7146 94.9724C99.0108 94.9712 99.3539 94.9566 99.8106 95.2293C100.251 95.5794 100.241 95.7158 100.439 96.0532C100.905 97.0483 101.527 97.7764 102.566 98.1652C104.491 98.9643 106.951 98.3656 108.026 96.5067C108.753 95.3187 108.919 93.7807 108.764 92.2712C108.722 91.8539 108.991 91.4759 109.384 91.3712C109.463 91.3547 109.573 91.3104 109.689 91.2679C110.433 90.9748 111.128 90.4655 111.573 89.8085C113.355 87.0996 110.927 84.2462 107.875 85.0828C107.425 85.1697 106.865 85.5109 106.426 85.2591C106.2 85.1379 106.092 85.0377 105.96 84.9077C103.734 82.7494 99.8753 82.2699 96.9096 82.8572C96.4053 82.9619 95.9125 83.1103 95.4927 83.2993C95.0677 83.4896 94.5692 83.2999 94.379 82.875C94.3041 82.7082 94.2883 82.5293 94.3225 82.3625C94.5286 81.7016 94.6694 80.9907 94.757 80.2765C95.0164 78.0852 94.7335 75.8419 93.6553 73.8529C95.1293 75.658 95.8662 77.9882 96.0191 80.3038C96.0698 81.094 96.0648 81.8868 95.9715 82.7012L94.7918 81.7689C95.3918 81.4993 95.9753 81.3344 96.5639 81.2095C100.074 80.5182 104.452 81.1118 107.123 83.6906C107.169 83.735 107.215 83.7775 107.224 83.7832C107.224 83.7857 107.222 83.7756 107.14 83.735C107.1 83.7173 107.029 83.6849 106.899 83.6722C106.814 83.6621 106.666 83.6811 106.58 83.7166C106.877 83.612 107.178 83.5162 107.49 83.4433C113.154 82.0587 116.264 88.689 111.581 92.1475C111.019 92.5332 110.471 92.8141 109.804 93.0019L110.439 92.0974C110.772 94.7917 109.966 97.9559 107.435 99.3829C104.966 100.832 101.406 100.332 99.64 97.9997C99.2873 97.5354 99.0647 97.0458 98.8218 96.6018C98.8015 96.5498 98.7431 96.5257 98.8865 96.6367L98.9125 96.6506L98.9157 96.6538L98.9233 96.6576C98.9302 96.6595 98.9296 96.6614 98.9315 96.6614C98.6201 96.6284 98.2427 96.7521 97.8286 96.8853C95.9278 97.5747 94.1234 98.5007 92.1826 99.2371C89.8397 100.152 87.3491 100.89 84.8096 101.096C77.167 101.699 68.9409 98.4018 65.003 91.5799C61.9586 86.2885 62.3816 79.4603 65.3581 74.2766C66.6317 72.1335 68.3822 70.0304 70.7821 69.1577Z" fill="#371B45"/>
<path d="M107.507 92.1691C107.473 93.4331 107.445 94.8963 106.326 95.7944C105.426 96.4318 104.078 95.9504 103.606 95.0295C103.13 94.1257 103.075 93.137 103.405 92.1761C103.433 92.1082 103.475 92.0124 103.516 91.9516C103.658 91.7308 103.859 91.6186 104.011 91.5583C104.714 91.3211 105.339 91.4569 105.995 91.4949C107.079 91.63 108.091 91.6243 109.153 91.2539C110.497 90.8233 111.669 89.9594 112.293 88.7487C112.453 88.4392 112.833 88.3174 113.143 88.4772C113.459 88.6389 113.579 89.0315 113.408 89.3417C113.006 90.0977 112.431 90.7643 111.756 91.2799C110.486 92.2389 108.944 92.7494 107.366 92.7995C106.491 92.7875 105.547 92.5979 104.797 92.5915C104.641 92.5896 104.48 92.6099 104.433 92.6302C104.404 92.6454 104.472 92.601 104.487 92.556C104.177 93.2981 104.232 94.649 105.096 94.9858C105.656 95.1874 106.011 94.8202 106.224 94.2659C106.464 93.645 106.555 92.8731 106.561 92.1678C106.577 91.5514 107.492 91.5533 107.507 92.1691Z" fill="#371B45"/>
<path d="M95.5496 83.2716C94.4289 83.732 93.1103 84.3377 91.8164 84.2083C90.1566 84.0923 88.6681 82.8352 88.3218 81.2325C88.9104 82.5993 90.3615 83.4999 91.8209 83.3236C92.9542 83.1492 93.7838 82.4496 94.746 81.7913C95.7982 81.1272 96.6817 82.7483 95.5496 83.2716Z" fill="#371B45"/>
<path d="M89.8308 83.4936C86.6996 82.4262 82.9005 82.1002 80.0071 83.9426C79.083 84.5648 78.353 85.4813 77.8507 86.5747C78.6334 81.105 86.1941 80.4416 90.075 83.028C90.3332 83.1993 90.1188 83.6103 89.8308 83.4936Z" fill="#371B45"/>
<path d="M96.9013 82.6461C94.429 83.862 91.4532 85.5027 91.1006 88.5014C91.0092 89.4426 91.2509 90.4174 91.6156 91.365C89.2778 88.4151 90.9122 85.0657 93.8931 83.392C94.7918 82.8643 95.761 82.4723 96.7656 82.2478C97.0079 82.1926 97.1284 82.5434 96.9013 82.6461Z" fill="#371B45"/>
<path d="M107.358 85.1934C106.42 85.5739 105.047 86.0242 104.172 86.512C104.717 85.6608 105.73 84.6067 106.383 83.8209C107.404 82.7864 108.671 84.5693 107.358 85.1934Z" fill="#371B45"/>
<path d="M99.3525 92.2162C99.3525 92.2162 99.0722 95.577 100.466 97.6877L99.3525 92.2162Z" fill="url(#paint36_linear_11117_34902)"/>
<path d="M99.3525 92.2162C99.3525 92.2162 99.0722 95.577 100.466 97.6877L99.3525 92.2162Z" fill="url(#paint37_linear_11117_34902)" fill-opacity="0.2"/>
<path d="M99.3521 92.2161C99.5417 93.9977 99.9743 95.8738 101.168 97.2235C101.905 98.0721 100.689 99.1839 99.9096 98.3727C98.839 96.5271 98.9817 94.2172 99.3521 92.2161Z" fill="#371B45"/>
<path d="M73.0681 75.1596C73.0681 75.1596 77.0296 72.6893 82.1371 73.5969C87.1888 74.774 89.857 78.6055 89.857 78.6055" fill="url(#paint38_linear_11117_34902)"/>
<path d="M73.0681 75.1596C73.0681 75.1596 77.0296 72.6893 82.1371 73.5969C87.1888 74.774 89.857 78.6055 89.857 78.6055" fill="url(#paint39_linear_11117_34902)" fill-opacity="0.2"/>
<path d="M73.0681 75.1596C75.6184 73.1383 79.075 72.44 82.2639 72.9785C84.6614 73.5499 86.8343 74.8324 88.4814 76.6533C89.011 77.2539 89.5019 77.8926 89.857 78.6055C89.2799 78.0632 88.6881 77.5628 88.0647 77.1099C83.3821 73.5664 78.515 73.2182 73.0681 75.1596Z" fill="#371B45"/>
<path d="M64.5144 33.8669C65.5406 31.8012 71.4961 25.4556 75.018 29.4907C76.2592 30.9126 75.3085 33.9633 73.14 34.0642C69.979 34.2107 69.4183 33.6862 64.5144 33.8669Z" fill="#371B45"/>
<path d="M115.638 44.3599C115.508 42.0569 112.534 33.8791 107.707 36.1997C106.006 37.0185 105.678 40.1967 107.632 41.1436C110.479 42.5237 111.201 42.2618 115.638 44.3599Z" fill="#371B45"/>
<path d="M96.9496 64.7683C95.7255 70.713 98.9062 76.3913 104.054 77.4518C109.201 78.5122 114.367 74.5527 115.591 68.6079C116.816 62.6632 113.635 56.9849 108.488 55.9244C103.34 54.864 98.1743 58.8236 96.9496 64.7683Z" fill="#371B45"/>
<path d="M100.551 67.7321C100.113 69.8567 101.119 71.859 102.798 72.2047C104.476 72.5504 106.191 71.1081 106.629 68.9834C107.067 66.8587 106.061 64.8564 104.383 64.5108C102.704 64.1651 100.989 65.6074 100.551 67.7321Z" fill="white"/>
<path d="M110.808 67.0364C110.731 67.0364 110.655 67.0281 110.579 67.0129C109.649 66.8214 109.136 65.5003 109.432 64.0624C109.704 62.7426 110.564 61.7824 111.423 61.7824C111.499 61.7824 111.576 61.79 111.652 61.8058C112.581 61.9974 113.095 63.3178 112.798 64.7557C112.526 66.0761 111.666 67.0364 110.808 67.0364Z" fill="#5E6478"/>
<path d="M73.6479 59.9855C72.4327 65.9283 67.2757 69.8923 62.1295 68.8401C56.9839 67.7872 53.7975 62.1165 55.0127 56.1743C56.2286 50.2315 61.3855 46.2675 66.5311 47.3204C71.6773 48.3726 74.8631 54.0433 73.6479 59.9855Z" fill="#371B45"/>
<path d="M69.1726 61.2915C68.7381 63.4156 67.0257 64.8591 65.3481 64.516C63.6699 64.1728 62.6621 62.1724 63.0966 60.049C63.531 57.925 65.2435 56.4814 66.921 56.8245C68.5992 57.1677 69.607 59.1674 69.1726 61.2915Z" fill="white"/>
<path d="M60.4723 56.7051C60.3962 56.7051 60.3201 56.6975 60.2447 56.6822C59.3155 56.492 58.8005 55.1728 59.0948 53.7349C59.365 52.4145 60.2237 51.4536 61.0825 51.4536C61.1586 51.4536 61.2341 51.4612 61.3095 51.4764C62.2387 51.6667 62.7537 52.9859 62.46 54.4231C62.1899 55.7442 61.3305 56.7051 60.4723 56.7051Z" fill="#5E6478"/>
<defs>
<linearGradient id="paint0_linear_11117_34902" x1="135.672" y1="97.7063" x2="305.618" y2="-271.004" gradientUnits="userSpaceOnUse">
<stop stop-color="#9D9FE6"/>
<stop offset="0.163505" stop-color="#CFC0FF"/>
<stop offset="1" stop-color="#8E00FF"/>
</linearGradient>
<linearGradient id="paint1_linear_11117_34902" x1="132.956" y1="-101.238" x2="224.168" y2="-80.2663" gradientUnits="userSpaceOnUse">
<stop stop-color="white" stop-opacity="0"/>
<stop offset="1" stop-color="#8E00FF"/>
</linearGradient>
<linearGradient id="paint2_linear_11117_34902" x1="135.672" y1="97.7063" x2="305.618" y2="-271.004" gradientUnits="userSpaceOnUse">
<stop stop-color="#9D9FE6"/>
<stop offset="0.163505" stop-color="#CFC0FF"/>
<stop offset="1" stop-color="#8E00FF"/>
</linearGradient>
<linearGradient id="paint3_linear_11117_34902" x1="132.956" y1="-101.238" x2="224.168" y2="-80.2663" gradientUnits="userSpaceOnUse">
<stop stop-color="white" stop-opacity="0"/>
<stop offset="1" stop-color="#8E00FF"/>
</linearGradient>
<linearGradient id="paint4_linear_11117_34902" x1="37.9849" y1="78.4158" x2="210.2" y2="-304.08" gradientUnits="userSpaceOnUse">
<stop stop-color="#9D9FE6"/>
<stop offset="0.163505" stop-color="#CFC0FF"/>
<stop offset="1" stop-color="#8E00FF"/>
</linearGradient>
<linearGradient id="paint5_linear_11117_34902" x1="35.1236" y1="-126.31" x2="130.982" y2="-103.748" gradientUnits="userSpaceOnUse">
<stop stop-color="white" stop-opacity="0"/>
<stop offset="1" stop-color="#8E00FF"/>
</linearGradient>
<linearGradient id="paint6_linear_11117_34902" x1="37.9849" y1="78.4158" x2="210.2" y2="-304.08" gradientUnits="userSpaceOnUse">
<stop stop-color="#9D9FE6"/>
<stop offset="0.163505" stop-color="#CFC0FF"/>
<stop offset="1" stop-color="#8E00FF"/>
</linearGradient>
<linearGradient id="paint7_linear_11117_34902" x1="35.1236" y1="-126.31" x2="130.982" y2="-103.748" gradientUnits="userSpaceOnUse">
<stop stop-color="white" stop-opacity="0"/>
<stop offset="1" stop-color="#8E00FF"/>
</linearGradient>
<linearGradient id="paint8_linear_11117_34902" x1="46.6121" y1="146.517" x2="91.9741" y2="22.1579" gradientUnits="userSpaceOnUse">
<stop stop-color="#9D9FE6"/>
<stop offset="0.163505" stop-color="#CFC0FF"/>
<stop offset="1" stop-color="#8E00FF"/>
</linearGradient>
<linearGradient id="paint9_linear_11117_34902" x1="45.5304" y1="83.8108" x2="80.8017" y2="94.058" gradientUnits="userSpaceOnUse">
<stop stop-color="white" stop-opacity="0"/>
<stop offset="1" stop-color="#8E00FF"/>
</linearGradient>
<linearGradient id="paint10_linear_11117_34902" x1="58.5098" y1="180.297" x2="184.746" y2="-54.2765" gradientUnits="userSpaceOnUse">
<stop stop-color="#9D9FE6"/>
<stop offset="0.163505" stop-color="#CFC0FF"/>
<stop offset="1" stop-color="#8E00FF"/>
</linearGradient>
<linearGradient id="paint11_linear_11117_34902" x1="56.9356" y1="45.6741" x2="110.516" y2="56.2253" gradientUnits="userSpaceOnUse">
<stop stop-color="white" stop-opacity="0"/>
<stop offset="1" stop-color="#8E00FF"/>
</linearGradient>
<linearGradient id="paint12_linear_11117_34902" x1="58.5104" y1="180.296" x2="184.748" y2="-54.2749" gradientUnits="userSpaceOnUse">
<stop stop-color="#9D9FE6"/>
<stop offset="0.163505" stop-color="#CFC0FF"/>
<stop offset="1" stop-color="#8E00FF"/>
</linearGradient>
<linearGradient id="paint13_linear_11117_34902" x1="56.9363" y1="45.6734" x2="110.516" y2="56.2241" gradientUnits="userSpaceOnUse">
<stop stop-color="white" stop-opacity="0"/>
<stop offset="1" stop-color="#8E00FF"/>
</linearGradient>
<linearGradient id="paint14_linear_11117_34902" x1="90.6349" y1="180.297" x2="216.871" y2="-54.2765" gradientUnits="userSpaceOnUse">
<stop stop-color="#9D9FE6"/>
<stop offset="0.163505" stop-color="#CFC0FF"/>
<stop offset="1" stop-color="#8E00FF"/>
</linearGradient>
<linearGradient id="paint15_linear_11117_34902" x1="89.0608" y1="45.6741" x2="142.641" y2="56.2253" gradientUnits="userSpaceOnUse">
<stop stop-color="white" stop-opacity="0"/>
<stop offset="1" stop-color="#8E00FF"/>
</linearGradient>
<linearGradient id="paint16_linear_11117_34902" x1="90.6344" y1="180.296" x2="216.873" y2="-54.2737" gradientUnits="userSpaceOnUse">
<stop stop-color="#9D9FE6"/>
<stop offset="0.163505" stop-color="#CFC0FF"/>
<stop offset="1" stop-color="#8E00FF"/>
</linearGradient>
<linearGradient id="paint17_linear_11117_34902" x1="89.0603" y1="45.6734" x2="142.639" y2="56.2238" gradientUnits="userSpaceOnUse">
<stop stop-color="white" stop-opacity="0"/>
<stop offset="1" stop-color="#8E00FF"/>
</linearGradient>
<linearGradient id="paint18_linear_11117_34902" x1="42.981" y1="109.4" x2="74.3769" y2="-77.3703" gradientUnits="userSpaceOnUse">
<stop stop-color="#9D9FE6"/>
<stop offset="0.163505" stop-color="#CFC0FF"/>
<stop offset="1" stop-color="#8E00FF"/>
</linearGradient>
<linearGradient id="paint19_linear_11117_34902" x1="39.7817" y1="23.9342" x2="120.731" y2="74.9663" gradientUnits="userSpaceOnUse">
<stop stop-color="white" stop-opacity="0"/>
<stop offset="1" stop-color="#8E00FF"/>
</linearGradient>
<linearGradient id="paint20_linear_11117_34902" x1="99.3047" y1="146.287" x2="199.78" y2="-117.98" gradientUnits="userSpaceOnUse">
<stop stop-color="#9D9FE6"/>
<stop offset="0.163505" stop-color="#CFC0FF"/>
<stop offset="1" stop-color="#8E00FF"/>
</linearGradient>
<linearGradient id="paint21_linear_11117_34902" x1="97.0769" y1="11.682" x2="170.169" y2="32.0548" gradientUnits="userSpaceOnUse">
<stop stop-color="white" stop-opacity="0"/>
<stop offset="1" stop-color="#8E00FF"/>
</linearGradient>
<linearGradient id="paint22_linear_11117_34902" x1="73.5895" y1="154.78" x2="198.131" y2="-171.935" gradientUnits="userSpaceOnUse">
<stop stop-color="#9D9FE6"/>
<stop offset="0.163505" stop-color="#CFC0FF"/>
<stop offset="1" stop-color="#8E00FF"/>
</linearGradient>
<linearGradient id="paint23_linear_11117_34902" x1="70.8407" y1="-11.743" x2="161.063" y2="13.3391" gradientUnits="userSpaceOnUse">
<stop stop-color="white" stop-opacity="0"/>
<stop offset="1" stop-color="#8E00FF"/>
</linearGradient>
<linearGradient id="paint24_linear_11117_34902" x1="16.1662" y1="109.563" x2="152.373" y2="-140.304" gradientUnits="userSpaceOnUse">
<stop stop-color="#9D9FE6"/>
<stop offset="0.163505" stop-color="#CFC0FF"/>
<stop offset="1" stop-color="#8E00FF"/>
</linearGradient>
<linearGradient id="paint25_linear_11117_34902" x1="14.5012" y1="-34.6762" x2="71.2289" y2="-23.6481" gradientUnits="userSpaceOnUse">
<stop stop-color="white" stop-opacity="0"/>
<stop offset="1" stop-color="#8E00FF"/>
</linearGradient>
<linearGradient id="paint26_linear_11117_34902" x1="79.1882" y1="99.3022" x2="226.957" y2="-375.081" gradientUnits="userSpaceOnUse">
<stop stop-color="#9D9FE6"/>
<stop offset="0.163505" stop-color="#CFC0FF"/>
<stop offset="1" stop-color="#8E00FF"/>
</linearGradient>
<linearGradient id="paint27_linear_11117_34902" x1="74.5098" y1="-132.293" x2="222.772" y2="-81.8536" gradientUnits="userSpaceOnUse">
<stop stop-color="white" stop-opacity="0"/>
<stop offset="1" stop-color="#8E00FF"/>
</linearGradient>
<linearGradient id="paint28_linear_11117_34902" x1="79.1885" y1="99.3025" x2="226.958" y2="-375.083" gradientUnits="userSpaceOnUse">
<stop stop-color="#9D9FE6"/>
<stop offset="0.163505" stop-color="#CFC0FF"/>
<stop offset="1" stop-color="#8E00FF"/>
</linearGradient>
<linearGradient id="paint29_linear_11117_34902" x1="74.51" y1="-132.294" x2="222.773" y2="-81.854" gradientUnits="userSpaceOnUse">
<stop stop-color="white" stop-opacity="0"/>
<stop offset="1" stop-color="#8E00FF"/>
</linearGradient>
<linearGradient id="paint30_linear_11117_34902" x1="82.0827" y1="71.1665" x2="86.093" y2="30.9502" gradientUnits="userSpaceOnUse">
<stop stop-color="#9D9FE6"/>
<stop offset="0.163505" stop-color="#CFC0FF"/>
<stop offset="1" stop-color="#8E00FF"/>
</linearGradient>
<linearGradient id="paint31_linear_11117_34902" x1="80.9421" y1="53.0914" x2="99.8815" y2="73.2189" gradientUnits="userSpaceOnUse">
<stop stop-color="white" stop-opacity="0"/>
<stop offset="1" stop-color="#8E00FF"/>
</linearGradient>
<linearGradient id="paint32_linear_11117_34902" x1="86.1159" y1="100.314" x2="122.222" y2="-77.1052" gradientUnits="userSpaceOnUse">
<stop stop-color="#9D9FE6"/>
<stop offset="0.163505" stop-color="#CFC0FF"/>
<stop offset="1" stop-color="#8E00FF"/>
</linearGradient>
<linearGradient id="paint33_linear_11117_34902" x1="83.5735" y1="18.0884" x2="154.293" y2="54.9146" gradientUnits="userSpaceOnUse">
<stop stop-color="white" stop-opacity="0"/>
<stop offset="1" stop-color="#8E00FF"/>
</linearGradient>
<linearGradient id="paint34_linear_11117_34902" x1="86.1162" y1="100.314" x2="128.524" y2="-91.2697" gradientUnits="userSpaceOnUse">
<stop stop-color="#9D9FE6"/>
<stop offset="0.163505" stop-color="#CFC0FF"/>
<stop offset="1" stop-color="#8E00FF"/>
</linearGradient>
<linearGradient id="paint35_linear_11117_34902" x1="83.5737" y1="10.8774" x2="156.708" y2="45.8911" gradientUnits="userSpaceOnUse">
<stop stop-color="white" stop-opacity="0"/>
<stop offset="1" stop-color="#8E00FF"/>
</linearGradient>
<linearGradient id="paint36_linear_11117_34902" x1="99.8447" y1="97.6877" x2="114.638" y2="88.1248" gradientUnits="userSpaceOnUse">
<stop stop-color="#9D9FE6"/>
<stop offset="0.163505" stop-color="#CFC0FF"/>
<stop offset="1" stop-color="#8E00FF"/>
</linearGradient>
<linearGradient id="paint37_linear_11117_34902" x1="99.786" y1="83.2474" x2="101.853" y2="83.3891" gradientUnits="userSpaceOnUse">
<stop stop-color="white" stop-opacity="0"/>
<stop offset="1" stop-color="#8E00FF"/>
</linearGradient>
<linearGradient id="paint38_linear_11117_34902" x1="80.6778" y1="78.6055" x2="83.7279" y2="48.0187" gradientUnits="userSpaceOnUse">
<stop stop-color="#9D9FE6"/>
<stop offset="0.163505" stop-color="#CFC0FF"/>
<stop offset="1" stop-color="#8E00FF"/>
</linearGradient>
<linearGradient id="paint39_linear_11117_34902" x1="79.8103" y1="64.8583" x2="94.2149" y2="80.1664" gradientUnits="userSpaceOnUse">
<stop stop-color="white" stop-opacity="0"/>
<stop offset="1" stop-color="#8E00FF"/>
</linearGradient>
</defs>
</svg>
