<svg width="110" height="110" viewBox="0 0 110 110" fill="none" xmlns="http://www.w3.org/2000/svg">
<g clip-path="url(#clip0_11117_33423)">
<rect width="110" height="110" rx="55" fill="white"/>
<rect width="110" height="110" rx="55" fill="url(#paint0_linear_11117_33423)"/>
<rect width="110" height="110" rx="55" fill="url(#paint1_linear_11117_33423)"/>
<path d="M89.7236 72.846V80.5696C89.7236 80.5696 82.5524 84.2006 73.2343 85.0095C72.479 85.0754 71.7092 85.1235 70.9271 85.1484C64.0605 85.3692 61.6303 78.1572 60.7714 73.2166C60.3279 70.6634 60.3047 68.7177 60.3047 68.7177C60.3047 68.7177 60.8214 68.6875 61.739 68.6661C64.0784 68.6037 69.0172 68.5843 74.5724 69.1934C79.609 69.7439 85.1537 70.815 89.7236 72.846Z" fill="url(#paint2_linear_11117_33423)"/>
<path d="M89.7236 72.846V80.5696C89.7236 80.5696 82.5524 84.2006 73.2343 85.0095C72.479 85.0754 71.7092 85.1235 70.9271 85.1484C64.0605 85.3692 61.6303 78.1572 60.7714 73.2166C60.3279 70.6634 60.3047 68.7177 60.3047 68.7177C60.3047 68.7177 60.8214 68.6875 61.739 68.6661C64.0784 68.6037 69.0172 68.5843 74.5724 69.1934C79.609 69.7439 85.1537 70.815 89.7236 72.846Z" fill="url(#paint3_linear_11117_33423)" fill-opacity="0.2"/>
<path d="M73.5848 84.3887C73.3851 83.805 73.1624 83.2287 72.9161 82.6619C72.521 81.7558 72.0709 80.8663 71.4815 80.0648C71.1932 79.6614 70.8707 79.2807 70.5222 78.9268C70.2868 78.6945 70.0427 78.4686 69.7773 78.2695C70.54 78.6544 72.3614 79.3712 75.3915 79.3999C75.4874 81.3105 77.1887 82.9107 79.4873 83.4268C77.6739 83.8388 75.6856 84.1854 73.5848 84.3887Z" fill="#9D9FE6"/>
<path d="M80.198 71.4473C78.3024 71.0879 76.4023 70.8187 74.5698 70.6183C74.3936 70.5989 74.2177 70.5804 74.0425 70.5622C73.9804 70.5275 73.9132 70.4995 73.8418 70.4794L73.498 70.3844L73.4531 70.372C73.2151 70.3045 73.0173 70.1461 72.8984 69.9375C73.1023 69.853 73.3056 69.767 73.5069 69.6794C75.9209 69.9148 78.4779 70.2656 80.9999 70.782C80.7144 70.9914 80.4465 71.2131 80.198 71.4473Z" fill="#E6E7EC"/>
<path d="M60.9113 69.2764C61.0257 71.3919 61.6956 78.8835 65.5127 82.5323C66.9925 83.9471 68.8078 84.6318 70.907 84.5627C79.9499 84.2718 87.5164 80.9597 89.1386 80.2009V73.2279C78.9798 68.8728 64.0137 69.1627 60.9113 69.2764ZM70.6203 85.7373C68.3309 85.7373 66.3413 84.944 64.7022 83.3762C59.8978 78.7812 59.7239 69.1324 59.7188 68.7243C59.7147 68.4111 59.9581 68.1505 60.2703 68.1327C61.0043 68.0909 78.384 67.168 89.9609 72.31C90.1725 72.404 90.3085 72.6136 90.3085 72.8449V80.5688C90.3085 80.7893 90.1846 80.9913 89.9877 81.0907C89.9029 81.1337 81.3689 85.397 70.9446 85.7322C70.836 85.7357 70.7277 85.7373 70.6203 85.7373Z" fill="#371B45"/>
<path d="M73.8461 99.9606V113.099C73.8461 114.98 72.7986 116.667 71.2057 117.508C70.7765 117.738 70.306 117.906 69.8055 117.996C68.4709 118.242 66.8923 118.351 65.2069 118.103C62.7624 117.742 60.9541 115.639 60.9541 113.168V106.184C60.9541 106.184 60.8544 106.191 60.6779 106.205C59.675 106.273 56.1596 106.482 53.8648 106.184V113.836C53.8648 116.056 52.4003 118.011 50.2676 118.627C48.2831 119.203 45.6245 119.488 42.6865 118.501C40.659 117.818 39.298 115.912 39.298 113.774V96.5737C39.298 96.5737 38.512 94.4732 37.7267 91.4014C36.3883 86.1689 35.0451 78.1226 37.5715 72.8471C37.9688 72.0187 38.4604 71.2576 39.0628 70.5879C39.7325 69.8434 40.5379 69.2107 41.5001 68.7172C41.5001 68.7172 51.9157 65.0757 59.4503 67.6537C60.272 67.9351 61.0325 68.2772 61.7362 68.6656C63.491 69.6331 64.8845 70.882 65.9747 72.1487C68.4515 75.0243 69.3585 77.9961 69.3585 77.9961L69.3652 78.0034C69.3919 78.0283 69.499 78.1315 69.6646 78.315C69.6968 78.3507 69.7306 78.3883 69.7609 78.424C70.5019 79.2721 72.1092 81.4009 73.2281 84.9965C73.2297 85.0054 73.2316 85.0089 73.2316 85.0089C74.3272 88.5312 74.9545 93.4576 73.8461 99.9606Z" fill="url(#paint4_linear_11117_33423)"/>
<path d="M73.8461 99.9606V113.099C73.8461 114.98 72.7986 116.667 71.2057 117.508C70.7765 117.738 70.306 117.906 69.8055 117.996C68.4709 118.242 66.8923 118.351 65.2069 118.103C62.7624 117.742 60.9541 115.639 60.9541 113.168V106.184C60.9541 106.184 60.8544 106.191 60.6779 106.205C59.675 106.273 56.1596 106.482 53.8648 106.184V113.836C53.8648 116.056 52.4003 118.011 50.2676 118.627C48.2831 119.203 45.6245 119.488 42.6865 118.501C40.659 117.818 39.298 115.912 39.298 113.774V96.5737C39.298 96.5737 38.512 94.4732 37.7267 91.4014C36.3883 86.1689 35.0451 78.1226 37.5715 72.8471C37.9688 72.0187 38.4604 71.2576 39.0628 70.5879C39.7325 69.8434 40.5379 69.2107 41.5001 68.7172C41.5001 68.7172 51.9157 65.0757 59.4503 67.6537C60.272 67.9351 61.0325 68.2772 61.7362 68.6656C63.491 69.6331 64.8845 70.882 65.9747 72.1487C68.4515 75.0243 69.3585 77.9961 69.3585 77.9961L69.3652 78.0034C69.3919 78.0283 69.499 78.1315 69.6646 78.315C69.6968 78.3507 69.7306 78.3883 69.7609 78.424C70.5019 79.2721 72.1092 81.4009 73.2281 84.9965C73.2297 85.0054 73.2316 85.0089 73.2316 85.0089C74.3272 88.5312 74.9545 93.4576 73.8461 99.9606Z" fill="url(#paint5_linear_11117_33423)" fill-opacity="0.2"/>
<path d="M46.6165 118.566C46.4333 118.566 46.2501 118.562 46.0672 118.551C45.8429 118.546 45.6202 118.518 45.3966 118.501C45.1748 118.47 44.9512 118.45 44.7307 118.408C44.2876 118.341 43.8517 118.231 43.4185 118.115L43.0964 118.016C42.9912 117.981 42.8762 117.951 42.7842 117.912C42.6883 117.873 42.5882 117.843 42.4949 117.797C42.4018 117.751 42.3069 117.709 42.2145 117.662C41.4808 117.273 40.8662 116.667 40.4575 115.943C40.253 115.582 40.0994 115.191 40.0025 114.788L39.9417 114.482L39.9041 114.172C39.8894 113.964 39.8821 113.767 39.8844 113.52V107.871V98.559C40.1214 98.5252 40.3571 98.4854 40.5907 98.4405C41.6168 98.2413 42.6121 97.938 43.5755 97.5691C44.5389 97.1989 45.4708 96.7628 46.375 96.2779C46.5228 96.1979 46.6703 96.117 46.8169 96.0345C46.8936 96.0383 46.9704 96.0399 47.0469 96.0399C47.7535 96.0399 48.4589 95.8831 49.0502 95.5604C49.5762 95.2734 50.35 94.6639 50.609 93.4912C50.9748 93.5479 51.3412 93.574 51.7059 93.574C54.4143 93.574 57.0579 92.1283 59.0771 90.8523C58.1507 92.8444 55.926 94.6066 51.3657 95.454C51.3657 95.454 50.5195 96.9555 47.5547 96.9555C47.5547 96.9555 46.4269 97.5825 44.8238 98.2652C43.0687 99.0127 41.9246 100.73 41.9246 102.638V110.998C41.9246 113.836 44.1789 116.191 47.0166 116.248C47.1198 116.25 47.2247 116.251 47.332 116.251C50.495 116.251 52.1577 115.482 53.2352 114.441L53.2205 114.559C53.0807 115.378 52.7082 116.155 52.1551 116.776C51.6002 117.399 50.8693 117.845 50.0649 118.078C49.1983 118.325 48.3079 118.484 47.412 118.541C47.1469 118.557 46.8815 118.566 46.6165 118.566ZM42.2907 83.7857C42.0899 83.6885 41.8953 83.5821 41.7083 83.4664C41.3814 83.2609 41.0784 83.0271 40.8159 82.7589C40.5553 82.4893 40.3339 82.1883 40.1618 81.8582C39.8181 81.1984 39.6906 80.4159 39.7474 79.6188C39.769 79.2196 39.8296 78.816 39.8872 78.4031L39.9436 78.0941L39.993 77.7793C40.0124 77.6761 40.0322 77.5725 40.0497 77.4677C40.251 78.0421 41.3429 80.6472 44.9515 81.9742C44.9913 82.1382 45.0216 82.2322 45.0216 82.2322C45.0216 82.2322 44.7317 82.5154 44.4249 83.0405C44.3988 83.037 44.3726 83.0354 44.3465 83.0354C44.3118 83.0354 44.2771 83.0383 44.2427 83.0446C43.6909 83.144 42.9731 83.3804 42.2907 83.7857Z" fill="#9D9FE6"/>
<path d="M67.1391 117.565C66.6657 117.565 66.1929 117.54 65.724 117.488C65.6287 117.479 65.5341 117.467 65.4392 117.454L65.298 117.435L65.1696 117.41L64.9122 117.362L64.6608 117.29L64.535 117.253L64.4133 117.206L64.1693 117.111C64.0154 117.029 63.8516 116.965 63.7067 116.866C63.1026 116.512 62.5992 115.997 62.2284 115.402C61.8735 114.799 61.6409 114.115 61.6087 113.411L61.5954 113.144L61.5941 112.842L61.5909 112.236L61.5849 111.026C61.5801 109.413 61.5559 107.799 61.5425 106.186V106.185V106.18C61.5422 106.168 61.5418 106.156 61.5409 106.144C61.5396 106.127 61.5377 106.111 61.5352 106.094C62.1886 105.998 63.1679 105.804 64.2559 105.417C64.3002 105.401 64.3442 105.394 64.3865 105.394C64.6433 105.394 64.8466 105.659 64.7437 105.924C64.2667 107.147 63.5384 109.572 63.8475 112.408C64.0574 114.349 66.0569 115.427 68.3151 115.427C69.5521 115.427 70.8663 115.104 72.0072 114.422C71.976 114.943 71.8874 115.636 71.6625 116.375C71.2451 116.735 70.7602 117.014 70.2358 117.182C70.0734 117.244 69.902 117.276 69.7334 117.316C69.5553 117.355 69.3568 117.385 69.1689 117.414C68.7875 117.47 68.4043 117.511 68.0207 117.536C67.7269 117.556 67.4329 117.565 67.1391 117.565Z" fill="#9D9FE6"/>
<path d="M72.007 114.422C72.0411 113.853 72.0073 113.488 72.0073 113.488V99.5179C74.7344 88.7904 69.8466 78.9377 69.3945 78.0603C69.8903 78.8858 70.3318 79.6953 70.7568 80.5157C71.1882 81.3555 71.6071 82.1978 71.9732 83.0669C72.6961 84.8077 73.1931 86.6453 73.4804 88.5158C73.779 90.3853 73.8669 92.2875 73.8105 94.1851C73.7557 96.0829 73.5524 97.9792 73.2221 99.8553C73.2167 99.8869 73.2131 99.9229 73.2131 99.956V99.9621L73.1762 109.643L73.1714 112.064L73.1705 112.669L73.1698 112.971C73.1692 113.02 73.1708 113.075 73.1685 113.119L73.1619 113.25C73.1609 113.354 73.1542 113.458 73.1427 113.56C72.7932 113.894 72.4109 114.18 72.007 114.422Z" fill="#E6E7EC"/>
<path d="M60.9142 105.602C61.1649 105.591 61.4638 105.568 61.7444 105.549L62.6084 105.48L63.4852 105.398C63.7796 105.37 64.0775 105.343 64.3808 105.324H64.382C64.4295 105.321 64.4703 105.356 64.4735 105.404C64.4754 105.436 64.4595 105.465 64.434 105.481C64.1769 105.646 63.9112 105.8 63.6369 105.931C63.3638 106.067 63.0828 106.185 62.7977 106.294C62.5119 106.401 62.2217 106.499 61.9251 106.58C61.6237 106.662 61.3379 106.728 60.9999 106.769C60.6791 106.808 60.3872 106.579 60.3481 106.258C60.3092 105.937 60.5379 105.645 60.8591 105.606C60.8731 105.605 60.8871 105.604 60.9008 105.603L60.9142 105.602Z" fill="#371B45"/>
<path d="M69.3662 77.9922C69.8005 78.2433 70.1745 78.5778 70.5278 78.9267C70.8763 79.2806 71.1987 79.6613 71.4871 80.0647C72.0765 80.8662 72.5266 81.7557 72.9217 82.6618C73.7099 84.4771 74.2578 86.3896 74.5882 88.3321C74.9297 90.2748 75.0518 92.2475 75.0244 94.212C74.9931 96.1773 74.7972 98.1351 74.4777 100.068L74.4866 99.9612L74.5235 109.643L74.528 112.063L74.5293 112.668L74.5296 112.971C74.5293 113.022 74.5309 113.068 74.5293 113.125L74.5223 113.296C74.5165 113.755 74.4315 114.209 74.3152 114.651C74.1925 115.093 74.0077 115.515 73.7892 115.918C73.5557 116.312 73.2874 116.687 72.9695 117.019C72.3352 117.68 71.5403 118.197 70.6626 118.476C70.4462 118.555 70.2207 118.601 69.9967 118.652C69.7801 118.697 69.5793 118.726 69.3688 118.759C68.9517 118.819 68.5318 118.863 68.1106 118.89C67.2677 118.944 66.4177 118.928 65.5744 118.831C65.4689 118.819 65.3638 118.805 65.2586 118.79L65.1003 118.767L64.9318 118.734L64.5957 118.666L64.2659 118.568L64.1018 118.518L63.9422 118.455C63.8361 118.413 63.7288 118.372 63.624 118.326C63.421 118.221 63.2101 118.129 63.0202 118.001C62.2355 117.528 61.5853 116.852 61.1132 116.073C60.6566 115.286 60.3686 114.391 60.3336 113.481L60.3215 113.144L60.3227 112.841L60.3259 112.236L60.332 111.026C60.3367 109.412 60.361 107.799 60.3743 106.185V106.185L61.0058 106.768C60.4024 106.813 59.8111 106.845 59.2128 106.871C58.616 106.897 58.019 106.916 57.4201 106.921C56.2215 106.932 55.0214 106.913 53.7948 106.765L54.4549 106.185V111.833V113.245V113.598C54.4543 113.718 54.4572 113.827 54.4499 113.964C54.4428 114.095 54.4438 114.227 54.4285 114.358L54.3798 114.749C54.2039 115.787 53.7321 116.771 53.0318 117.556C52.3331 118.342 51.3958 118.914 50.3923 119.201C49.4486 119.471 48.475 119.645 47.4922 119.708C47.0009 119.737 46.5071 119.747 46.0149 119.719C45.7683 119.712 45.523 119.683 45.2773 119.663C45.033 119.63 44.7873 119.607 44.5449 119.561C44.0571 119.487 43.5783 119.367 43.103 119.239L42.75 119.131C42.6311 119.093 42.518 119.063 42.3925 119.012C42.2702 118.963 42.1446 118.923 42.0261 118.866C41.9073 118.809 41.7875 118.755 41.6706 118.694C40.7393 118.2 39.9604 117.433 39.444 116.518C39.185 116.061 38.9909 115.567 38.8689 115.055L38.7918 114.668L38.7437 114.276C38.7236 114.016 38.7169 113.742 38.7192 113.519V107.871V96.5743L38.7561 96.7788C38.3184 95.5691 37.9472 94.3697 37.5987 93.1495C37.254 91.9315 36.943 90.704 36.6722 89.4662C36.1316 86.9918 35.7388 84.4755 35.6097 81.9255C35.546 80.6515 35.5559 79.3685 35.6661 78.0859C35.7859 76.8049 35.9962 75.52 36.3944 74.2721C36.7892 73.0283 37.3562 71.8103 38.1753 70.7501C38.9884 69.6882 40.0496 68.8073 41.2392 68.1959C41.5263 68.0484 41.8793 68.1615 42.0268 68.4489C42.1746 68.7363 42.0612 69.0886 41.7741 69.2364L41.7725 69.2374C40.7307 69.7749 39.817 70.5328 39.1031 71.4631C38.385 72.3914 37.873 73.482 37.5101 74.6241C36.7933 76.9243 36.6611 79.4135 36.7783 81.8685C36.9026 84.3315 37.2849 86.7904 37.8153 89.2155C38.0804 90.4287 38.3856 91.6342 38.7246 92.8299C39.0642 94.0218 39.4363 95.2203 39.8524 96.3694L39.8543 96.3755C39.8779 96.4402 39.889 96.509 39.8894 96.5743V107.871V113.519C39.8871 113.766 39.8944 113.964 39.9091 114.171L39.9467 114.481L40.0075 114.787C40.1044 115.19 40.258 115.581 40.4625 115.942C40.8712 116.666 41.4858 117.272 42.2195 117.661C42.3119 117.708 42.4068 117.75 42.4999 117.796C42.5932 117.842 42.6933 117.872 42.7892 117.911C42.8812 117.95 42.9962 117.981 43.1014 118.015L43.4235 118.114C43.8567 118.23 44.2926 118.34 44.7357 118.407C44.9562 118.449 45.1798 118.469 45.4016 118.5C45.6252 118.517 45.8479 118.545 46.0722 118.55C46.5198 118.576 46.9691 118.567 47.417 118.54C48.3129 118.483 49.2033 118.324 50.0699 118.077C50.8743 117.844 51.6052 117.398 52.1601 116.775C52.7132 116.154 53.0856 115.377 53.2255 114.558L53.2637 114.249C53.2762 114.145 53.2739 114.041 53.2803 113.937C53.287 113.84 53.2841 113.714 53.2848 113.598V113.245V111.833V106.185C53.2848 105.861 53.5466 105.6 53.8697 105.6C53.8923 105.6 53.9149 105.601 53.9369 105.603L53.9449 105.604C55.0689 105.741 56.2406 105.762 57.407 105.752C57.9913 105.746 58.5769 105.727 59.1624 105.703C59.7464 105.677 60.3364 105.645 60.9131 105.602C61.2364 105.577 61.5184 105.82 61.5429 106.143C61.5439 106.155 61.5442 106.168 61.5445 106.18V106.185V106.185C61.5579 107.799 61.5821 109.412 61.5869 111.026L61.5929 112.236L61.5961 112.841L61.5974 113.144L61.6108 113.41C61.643 114.115 61.8755 114.799 62.2304 115.402C62.6013 115.997 63.1047 116.512 63.7087 116.866C63.8537 116.964 64.0174 117.029 64.1713 117.11L64.4153 117.205L64.537 117.253L64.6629 117.289L64.9142 117.361L65.1717 117.41L65.3001 117.435L65.4412 117.453C65.5361 117.466 65.6307 117.479 65.726 117.487C66.4862 117.572 67.2556 117.586 68.0227 117.536C68.4063 117.511 68.7896 117.469 69.1709 117.413C69.3589 117.384 69.5574 117.354 69.7355 117.316C69.904 117.275 70.0754 117.243 70.2379 117.182C71.5607 116.757 72.6324 115.627 73.0032 114.28C73.0908 113.943 73.1609 113.599 73.1641 113.249L73.1708 113.118C73.173 113.074 73.1714 113.02 73.1721 112.971L73.1727 112.668L73.1737 112.063L73.1785 109.643L73.2154 99.9612V99.9552C73.2154 99.922 73.2189 99.886 73.2243 99.8545C73.5547 97.9783 73.758 96.0821 73.8128 94.1842C73.8692 92.2867 73.7812 90.3844 73.4827 88.5149C73.1953 86.6445 72.6983 84.8069 71.9755 83.0661C71.6094 82.197 71.1905 81.3546 70.7591 80.5148C70.3236 79.6744 69.8709 78.8451 69.3605 77.9986L69.3618 77.9926L69.3662 77.9922Z" fill="#371B45"/>
<path d="M48.6607 94.1825C48.6607 94.1825 44.0854 97.5678 39.2999 98.0396C35.6402 98.4031 31.856 97.0616 29.9015 91.2001C28.4137 86.737 28.8253 82.9347 30.0652 79.8294C31.4301 76.4122 33.7997 73.8412 35.7489 72.1647C37.5288 70.6361 38.9577 69.8518 38.9577 69.8518L39.0648 70.5877L39.469 73.3601L40.0141 77.0997C37.0869 83.8309 43.77 84.9109 43.77 84.9109L46.2735 89.6572L48.6607 94.1825Z" fill="url(#paint6_linear_11117_33423)"/>
<path d="M48.6607 94.1825C48.6607 94.1825 44.0854 97.5678 39.2999 98.0396C35.6402 98.4031 31.856 97.0616 29.9015 91.2001C28.4137 86.737 28.8253 82.9347 30.0652 79.8294C31.4301 76.4122 33.7997 73.8412 35.7489 72.1647C37.5288 70.6361 38.9577 69.8518 38.9577 69.8518L39.0648 70.5877L39.469 73.3601L40.0141 77.0997C37.0869 83.8309 43.77 84.9109 43.77 84.9109L46.2735 89.6572L48.6607 94.1825Z" fill="url(#paint7_linear_11117_33423)" fill-opacity="0.2"/>
<path d="M38.223 97.5098C37.9914 97.5098 37.7604 97.5015 37.531 97.4836C36.5941 97.4129 35.68 97.1835 34.8517 96.7764C34.4379 96.5734 34.0444 96.3284 33.6787 96.0446C33.3142 95.7585 32.9771 95.4354 32.6665 95.0856C32.044 94.3847 31.5451 93.565 31.129 92.7013C30.9296 92.2642 30.7394 91.8207 30.5804 91.3626L30.4587 91.0198L30.3548 90.6696L30.1465 89.9694C30.069 89.7378 30.0308 89.4972 29.9735 89.2612L29.8148 88.5501L29.7055 87.831L29.6507 87.4716C29.6313 87.3519 29.6288 87.2305 29.617 87.11L29.5583 86.3865C29.5491 86.2604 29.5475 86.1339 29.5469 86.0074C29.976 90.1398 32.1908 93.1738 36.15 93.9352C36.7272 94.0461 37.2644 94.097 37.763 94.097C39.6022 94.097 40.925 93.406 41.8721 92.484C42.5425 93.4465 43.4011 94.3522 44.4454 95.1974C44.6458 95.3596 44.8701 95.4988 45.1106 95.6151C44.4718 95.9324 43.8206 96.222 43.158 96.4763C42.2478 96.8251 41.3153 97.108 40.3706 97.2912C39.6579 97.4292 38.937 97.5098 38.223 97.5098Z" fill="#9D9FE6"/>
<path d="M29.5508 84.9932C29.5645 84.7338 29.5855 84.4748 29.5989 84.2155C29.7056 83.2572 29.8662 82.3017 30.1491 81.3769C30.4317 80.4536 30.7856 79.5501 31.2272 78.686C32.1202 76.9644 33.2894 75.3788 34.6629 73.9853C35.2003 73.4366 35.7649 72.9129 36.3539 72.4188C36.7206 72.5631 37.0975 72.6966 37.4827 72.8199C32.182 77.1632 30.2507 81.9334 29.5508 84.9932Z" fill="#E6E7EC"/>
<path d="M39.2357 70.3667C39.0445 70.4741 38.8289 70.6082 38.6275 70.7372C38.423 70.8682 38.221 71.0052 38.02 71.1434C37.6189 71.4225 37.2273 71.7172 36.8428 72.0202C36.075 72.6287 35.347 73.2872 34.6623 73.9856C33.2889 75.3791 32.1197 76.9647 31.2267 78.6864C30.7851 79.5504 30.4312 80.4539 30.1486 81.3772C29.8657 82.302 29.7051 83.2575 29.5984 84.2158C29.5738 84.6978 29.5216 85.1789 29.542 85.6628C29.5477 85.9043 29.5382 86.1461 29.5557 86.3873L29.6143 87.1108C29.6261 87.2313 29.6286 87.3526 29.6481 87.4724L29.7029 87.8318L29.8121 88.5509L29.9708 89.2619C30.0281 89.498 30.0664 89.7386 30.1438 89.9702L30.3521 90.6704L30.456 91.0206L30.5777 91.3634C30.7367 91.8215 30.9269 92.265 31.1263 92.7021C31.5424 93.5658 32.0413 94.3855 32.6638 95.0864C32.9745 95.4362 33.3115 95.7593 33.676 96.0454C34.0417 96.3292 34.4352 96.5742 34.849 96.7772C35.6774 97.1843 36.5914 97.4137 37.5284 97.4844C38.466 97.5571 39.4243 97.4745 40.368 97.292C41.3126 97.1088 42.2451 96.8259 43.1553 96.477C44.0658 96.1276 44.9553 95.7115 45.8197 95.2479C46.2514 95.0147 46.678 94.771 47.0956 94.5139C47.5101 94.2597 47.9319 93.9854 48.3098 93.713L48.1403 94.4562L43.2509 85.1856L43.6752 85.4902H43.6749C43.5332 85.4679 43.4303 85.4456 43.3117 85.4191C43.197 85.3933 43.0846 85.3643 42.9728 85.3318C42.7494 85.2681 42.5299 85.1932 42.313 85.1091C41.8816 84.9374 41.461 84.7278 41.066 84.4675C40.2765 83.9558 39.575 83.2173 39.1889 82.3167C38.7855 81.4211 38.7352 80.4246 38.8776 79.5227C38.9031 79.293 38.9681 79.0738 39.0232 78.8536C39.049 78.7424 39.0958 78.6389 39.1318 78.5318C39.1707 78.4261 39.2073 78.32 39.251 78.2164C39.3447 78.0122 39.4453 77.8125 39.5517 77.6172C39.6728 77.4286 39.7916 77.2409 39.9299 77.0647C39.9611 77.0243 40.0194 77.0173 40.0599 77.0488C40.0857 77.0692 40.0978 77.1001 40.0953 77.1304L40.0943 77.1364C40.0723 77.3588 40.0312 77.57 39.992 77.7797L39.9426 78.0944L39.8863 78.4035C39.8286 78.8163 39.7681 79.22 39.7464 79.6192C39.6897 80.4163 39.8171 81.1988 40.1609 81.8586C40.3329 82.1886 40.5543 82.4897 40.8149 82.7592C41.0775 83.0275 41.3804 83.2613 41.7073 83.4668C42.0358 83.6697 42.3878 83.8443 42.7542 83.9909C42.9387 84.06 43.1235 84.1314 43.3127 84.1878L43.5953 84.27C43.6854 84.2948 43.7918 84.3209 43.8619 84.335L43.8753 84.3378C44.0572 84.3713 44.2054 84.4885 44.286 84.6398L49.1751 93.9108L49.1786 93.9169C49.3143 94.1746 49.2353 94.4884 49.0052 94.6538C48.5691 94.9682 48.1479 95.2403 47.7076 95.5114C47.2705 95.78 46.8255 96.0345 46.374 96.2782C45.4699 96.7631 44.538 97.1993 43.5746 97.5695C42.6112 97.9384 41.6159 98.2417 40.5897 98.4408C39.5648 98.639 38.5049 98.733 37.4395 98.6511C36.3767 98.5715 35.3081 98.307 34.3339 97.8275C33.8474 97.5889 33.3845 97.3006 32.9576 96.9689C32.5319 96.6351 32.142 96.2614 31.7868 95.8609C31.075 95.0587 30.5229 94.1456 30.0692 93.2032C29.8516 92.7279 29.6462 92.2478 29.476 91.7578L29.346 91.3911L29.2352 91.0199L29.015 90.277C28.9338 90.032 28.8911 89.7752 28.8306 89.5235L28.662 88.7659L28.5445 87.9965L28.4862 87.612C28.4661 87.4839 28.4623 87.3533 28.4499 87.2242L28.3871 86.4472C28.3689 86.1882 28.3779 85.9273 28.3718 85.6673C28.3511 85.1467 28.4052 84.6274 28.4333 84.1075C28.547 83.073 28.7226 82.0414 29.0268 81.0446C29.3308 80.0493 29.7127 79.0785 30.1849 78.154C31.14 76.3116 32.3822 74.6329 33.8257 73.1674C34.5461 72.4325 35.3097 71.7427 36.1148 71.1039C36.5184 70.786 36.9291 70.4769 37.3522 70.1829C37.5644 70.0367 37.7775 69.892 37.9954 69.7525C38.2172 69.611 38.4268 69.4791 38.6734 69.3409C38.9553 69.1828 39.3118 69.2829 39.4699 69.5645C39.6279 69.8465 39.5275 70.203 39.2459 70.3613H39.2456L39.2357 70.3667Z" fill="#371B45"/>
<path d="M72.8992 69.9385C72.854 69.8591 72.8202 69.7725 72.8001 69.6804L72.7858 69.6151L72.7852 69.6129C73.0251 69.6342 73.2649 69.6565 73.5077 69.6804C73.3064 69.768 73.1031 69.8541 72.8992 69.9385Z" fill="#B1A9BA"/>
<path d="M73.5099 69.6797C73.2672 69.6558 73.0273 69.6335 72.7874 69.6121L72.7542 69.4595C72.716 69.284 72.631 69.1324 72.5156 69.0138C72.5309 69.0081 72.5449 69.0024 72.5602 68.9963C73.2194 69.0533 73.8913 69.1186 74.5728 69.1932C74.2236 69.3611 73.869 69.5233 73.5099 69.6797Z" fill="#371B45"/>
<path d="M48.6979 74.2549C45.7465 74.2549 42.4558 74.0411 39.4693 73.3603L39.3008 72.2044C42.3481 72.9066 45.6844 73.1274 48.6743 73.1271C50.2421 73.1271 51.7146 73.0665 53.0005 72.9828C53.4044 73.3485 53.8428 73.6939 54.32 74.0166C52.7829 74.1437 50.8286 74.2549 48.6979 74.2549Z" fill="#9D9FE6"/>
<path d="M39.4689 73.3602C39.4682 73.3602 39.4692 73.3605 39.4689 73.3602C38.8205 73.2124 38.1859 73.0429 37.5733 72.8473C37.5436 72.8377 37.514 72.8285 37.4844 72.8189C37.8154 72.5475 38.1585 72.2789 38.5166 72.0113C38.775 72.0795 39.0372 72.1438 39.3003 72.2044L39.4689 73.3602Z" fill="#9D9FE6"/>
<path d="M37.4842 72.8203C37.0991 72.697 36.7222 72.5635 36.3555 72.4192C36.5167 72.2841 36.6798 72.151 36.8448 72.0203C36.9987 71.899 37.1539 71.7792 37.31 71.661C37.7047 71.7881 38.1071 71.905 38.5165 72.0127C38.1584 72.2803 37.8152 72.5489 37.4842 72.8203Z" fill="#B1A9BA"/>
<path d="M36.3569 72.418C36.1514 72.337 35.9491 72.2526 35.75 72.165C36.0609 71.898 36.3611 71.6537 36.6449 71.4323C36.8641 71.5113 37.0868 71.5871 37.3114 71.6597C37.1553 71.7779 37.0001 71.8977 36.8463 72.0191C36.6812 72.1497 36.5181 72.2829 36.3569 72.418Z" fill="#371B45"/>
<path d="M14.2182 52.7338C14.2182 52.7338 15.3251 55.857 18.6834 56.8341C18.6834 56.8341 21.2136 68.2682 32.7224 62.7818L40.0136 35.2213C40.0136 35.2213 32.3639 29.3184 24.8376 31.7072C17.3117 34.096 10.1631 42.5045 14.2182 52.7338Z" fill="#ADAEC4"/>
<path d="M16.0438 52.1311C16.0438 52.1311 17.0718 54.5635 19.8192 55.5155C20.0121 55.5824 20.1586 55.7407 20.2122 55.9376C20.6792 57.6468 23.3501 65.4074 32.4791 61.0554L38.9554 36.5766C38.9554 36.5766 32.1605 31.3336 25.4759 33.4554C18.7915 35.5772 12.4421 43.0452 16.0438 52.1311Z" fill="#EFEEFE"/>
<path d="M14.8209 52.5183C14.8311 52.5467 15.8754 55.3512 18.863 56.2203C19.0872 56.2857 19.258 56.4679 19.3084 56.696C19.3183 56.7403 20.359 61.2222 23.9057 62.9477C26.1388 64.0341 28.9223 63.8257 32.1821 62.3296L39.2844 35.483C37.7495 34.4196 31.2767 30.3343 25.032 32.3162C20.7322 33.6811 16.899 36.9782 15.0282 40.921C13.3159 44.53 13.2416 48.5334 14.8133 52.4983C14.8159 52.5046 14.8185 52.5116 14.8209 52.5183ZM27.0022 64.9121C25.681 64.9121 24.4573 64.6391 23.3374 64.0924C19.8301 62.3806 18.4965 58.5429 18.1547 57.336C14.8698 56.2019 13.7155 53.2167 13.6217 52.9602C11.9195 48.6602 12.0067 44.3083 13.8736 40.3734C15.9219 36.0562 19.9488 32.589 24.6456 31.098C32.401 28.6365 40.0822 34.4661 40.4052 34.7152C40.6088 34.8723 40.6983 35.1361 40.6327 35.3846L33.3412 62.9451C33.2934 63.1267 33.1678 63.2777 32.9984 63.3587C30.8268 64.3938 28.822 64.9121 27.0022 64.9121Z" fill="#371B45"/>
<path d="M45.5585 43.9154C46.6921 52.9341 40.3005 61.1639 31.2815 62.2971C31.0573 62.3255 30.832 62.3481 30.6081 62.3672C38.3147 61.0434 43.6916 53.8726 42.7062 46.0328C41.6927 37.9706 34.334 32.2567 26.2736 33.2701C18.2111 34.2835 12.4973 41.6404 13.5105 49.7026C13.6431 50.7568 13.8845 51.7696 14.2209 52.734C13.5645 51.2729 13.11 49.6921 12.8998 48.0205C11.7662 39.0018 18.158 30.772 27.1765 29.6385C36.1955 28.5049 44.425 34.8965 45.5585 43.9154Z" fill="url(#paint8_linear_11117_33423)"/>
<path d="M45.5585 43.9154C46.6921 52.9341 40.3005 61.1639 31.2815 62.2971C31.0573 62.3255 30.832 62.3481 30.6081 62.3672C38.3147 61.0434 43.6916 53.8726 42.7062 46.0328C41.6927 37.9706 34.334 32.2567 26.2736 33.2701C18.2111 34.2835 12.4973 41.6404 13.5105 49.7026C13.6431 50.7568 13.8845 51.7696 14.2209 52.734C13.5645 51.2729 13.11 49.6921 12.8998 48.0205C11.7662 39.0018 18.158 30.772 27.1765 29.6385C36.1955 28.5049 44.425 34.8965 45.5585 43.9154Z" fill="url(#paint9_linear_11117_33423)" fill-opacity="0.2"/>
<path d="M14.2578 40.8516C16.1586 35.3193 21.0673 31.0498 27.2525 30.2722C27.9196 30.1884 28.581 30.1476 29.2367 30.1476C32.1642 30.1476 34.9499 30.9625 37.3444 32.3991C37.0956 32.6071 36.849 32.8234 36.6066 33.0471C34.335 31.8352 31.7554 31.1566 29.0551 31.1566C28.3857 31.1566 27.7074 31.1983 27.026 31.284C21.1731 32.0196 16.4516 35.8086 14.2578 40.8516Z" fill="#E6E7EC"/>
<path d="M28.1368 32.5126C31.5263 32.5126 34.8011 33.6293 37.5219 35.7425C40.761 38.2577 42.826 41.8836 43.3374 45.952C43.8717 50.2017 42.6263 54.2669 40.1658 57.3852C43.6502 54.0391 45.5691 49.1446 44.9224 43.9939C43.8344 35.3395 35.9079 29.1833 27.254 30.2713C20.6242 31.1048 15.4608 35.9505 13.8966 42.063C15.9315 37.1054 20.506 33.3495 26.1912 32.6349C26.8418 32.5531 27.4914 32.5126 28.1368 32.5126ZM30.605 63.0051C30.2867 63.0051 30.013 62.7684 29.9716 62.4473C29.9283 62.1077 30.1599 61.7942 30.4973 61.7362C37.9274 60.4599 43.0105 53.5969 42.0694 46.1116C41.6008 42.3819 39.7074 39.0577 36.7381 36.7518C33.7689 34.4458 30.0799 33.4346 26.3508 33.9029C18.6513 34.8708 13.1744 41.9221 14.142 49.6218C14.2663 50.6098 14.4951 51.5859 14.8217 52.5223C14.9344 52.8453 14.7726 53.1999 14.4548 53.3264C14.1368 53.4529 13.7757 53.3066 13.6355 52.9947C12.9384 51.4426 12.4767 49.7958 12.2633 48.099C11.0877 38.7455 17.7409 30.1793 27.0944 29.0033C36.4482 27.8268 45.0144 34.4809 46.1904 43.8346C46.7597 48.3659 45.5306 52.8475 42.7295 56.454C39.9282 60.0607 35.89 62.3606 31.3587 62.9299C31.1424 62.9573 30.9137 62.9812 30.6594 63.0029C30.6413 63.0042 30.6231 63.0051 30.605 63.0051Z" fill="#371B45"/>
<path d="M95.0342 42.5746C95.0342 42.5746 94.7347 45.8749 91.7227 47.6526C91.7227 47.6526 92.1009 59.357 79.5921 56.8898L65.707 31.9908C65.707 31.9908 71.6583 24.3787 79.5411 24.8305C87.4243 25.2825 96.4315 31.6604 95.0342 42.5746Z" fill="#ADAEC4"/>
<path d="M93.1146 42.4443C93.1146 42.4443 92.7208 45.0554 90.2941 46.6579C90.124 46.7704 90.0211 46.9599 90.0179 47.1642C89.9886 48.9358 89.3215 57.1159 79.3993 55.1585L67.0664 33.0436C67.0664 33.0436 72.3524 26.2825 79.3541 26.684C86.3557 27.0854 94.3558 32.7499 93.1146 42.4443Z" fill="#EFEEFE"/>
<path d="M80.0032 56.318C83.5319 56.9612 86.2804 56.4741 88.1753 54.8687C91.1847 52.319 91.0837 47.7189 91.0825 47.6727C91.0755 47.4398 91.1959 47.221 91.3963 47.1024C94.0756 45.521 94.3936 42.5453 94.3964 42.5154C94.3971 42.509 94.398 42.5004 94.3987 42.494C94.9403 38.2638 93.8775 34.4031 91.3252 31.3304C88.5369 27.9731 84.0069 25.727 79.503 25.4686C72.9627 25.093 67.7025 30.6533 66.4778 32.0644L80.0032 56.318ZM82.8339 57.8711C81.7876 57.8711 80.6649 57.7532 79.467 57.5171C79.2829 57.4808 79.1239 57.3652 79.0325 57.2014L65.1474 32.3024C65.0222 32.0778 65.0435 31.8003 65.2022 31.5976C65.4532 31.2762 71.4523 23.7272 79.5763 24.1927C84.4956 24.4749 89.2554 26.8379 92.3084 30.5138C95.091 33.8641 96.2525 38.0596 95.6676 42.6467C95.6405 42.9175 95.2611 46.096 92.3587 48.0079C92.3262 49.2622 91.9838 53.3102 89.0091 55.8369C87.4149 57.1912 85.3459 57.8711 82.8339 57.8711Z" fill="#371B45"/>
<path d="M62.4896 41.7871C63.6232 50.8061 71.8526 57.1976 80.8713 56.0641C81.0959 56.0361 81.3198 56.0023 81.5416 55.9653C73.747 56.5898 66.7625 50.9727 65.7775 43.1329C64.764 35.0706 70.4798 27.7138 78.5405 26.7003C86.6027 25.6869 93.9596 31.4011 94.9727 39.4634C95.1052 40.5176 95.1221 41.5587 95.0348 42.5763C95.3094 40.9977 95.3582 39.3541 95.1482 37.6821C94.0147 28.6635 85.7852 22.2716 76.7662 23.4055C67.7476 24.539 61.3561 32.7685 62.4896 41.7871Z" fill="url(#paint10_linear_11117_33423)"/>
<path d="M62.4896 41.7871C63.6232 50.8061 71.8526 57.1976 80.8713 56.0641C81.0959 56.0361 81.3198 56.0023 81.5416 55.9653C73.747 56.5898 66.7625 50.9727 65.7775 43.1329C64.764 35.0706 70.4798 27.7138 78.5405 26.7003C86.6027 25.6869 93.9596 31.4011 94.9727 39.4634C95.1052 40.5176 95.1221 41.5587 95.0348 42.5763C95.3094 40.9977 95.3582 39.3541 95.1482 37.6821C94.0147 28.6635 85.7852 22.2716 76.7662 23.4055C67.7476 24.539 61.3561 32.7685 62.4896 41.7871Z" fill="url(#paint11_linear_11117_33423)" fill-opacity="0.2"/>
<path d="M92.1264 31.168C89.1492 27.2764 84.4647 24.836 79.344 24.836C78.674 24.836 77.997 24.8777 77.3149 24.9634C73.8843 25.3945 70.8421 26.8747 68.4699 29.0417C68.1796 28.885 67.8872 28.7368 67.5938 28.5966C69.9978 26.1687 73.2 24.4973 76.8453 24.0392C77.5159 23.9548 78.1853 23.913 78.8502 23.913C82.3435 23.913 85.7183 25.0638 88.5213 27.241C89.9575 28.3564 91.1697 29.6837 92.1264 31.168Z" fill="#E6E7EC"/>
<path d="M78.8528 23.9128C78.1879 23.9128 77.5185 23.9546 76.8479 24.039C68.1934 25.1267 62.0376 33.0525 63.1253 41.707C63.6522 45.8997 65.7801 49.6358 69.117 52.2278C69.751 52.72 70.4143 53.16 71.1012 53.5458C67.9172 51.1335 65.6823 47.4856 65.1452 43.212C64.0897 34.8134 70.0639 27.1217 78.4625 26.0659C82.5312 25.5542 86.5553 26.6581 89.7935 29.1734C90.9098 30.0403 91.8872 31.0397 92.7089 32.1433C91.6814 30.262 90.2679 28.5952 88.5239 27.2408C85.7209 25.0636 82.3461 23.9128 78.8528 23.9128ZM78.7856 56.834C75.0103 56.834 71.3631 55.5902 68.3333 53.2371C64.7265 50.4358 62.4266 46.3976 61.8573 41.8663C60.6817 32.5125 67.3348 23.9466 76.6883 22.771C81.2193 22.2011 85.7012 23.4302 89.3079 26.2315C92.9144 29.0326 95.2143 33.0707 95.7839 37.602C95.9971 39.2991 95.9575 41.0096 95.666 42.6851C95.6074 43.0222 95.293 43.2538 94.9543 43.2092C94.615 43.1655 94.3707 42.8619 94.4 42.521C94.4847 41.5324 94.4646 40.5305 94.3404 39.5425C93.8717 35.8128 91.9784 32.4886 89.0097 30.1827C86.0408 27.8767 82.3512 26.8649 78.6218 27.3339C70.9221 28.3017 65.4453 35.3531 66.4131 43.0528C67.3536 50.538 73.9755 55.9289 81.4923 55.3277C81.8322 55.3009 82.1355 55.5469 82.1773 55.8865C82.2193 56.2261 81.9864 56.5387 81.6487 56.595C81.4006 56.6365 81.1731 56.6699 80.9526 56.6976C80.2278 56.7887 79.5043 56.834 78.7856 56.834Z" fill="#371B45"/>
<path d="M82.3378 59.2374C80.7044 69.5444 57.6729 71.8689 57.6729 71.8689C57.6729 71.8689 34.7829 75.3166 30.6492 65.7347C27.6892 58.8736 30.0751 53.6443 30.9496 52.0975C31.1299 51.7751 31.2109 51.4078 31.1774 51.0385C30.8477 47.4789 31.1513 44.4491 31.8965 41.8717L31.8961 41.8698C33.7366 35.491 38.2743 31.8776 42.5791 29.8386C42.5791 29.8386 44.5528 25.5571 47.3551 24.5481C50.1013 23.5608 49.5976 26.9471 49.5766 27.086C49.6706 26.9417 52.7278 22.2355 55.6499 22.0188C58.6182 21.8003 58.4458 24.9387 56.9191 26.9044C62.721 26.9958 72.1748 28.7959 76.4391 38.8451C76.441 38.8486 76.4413 38.8521 76.4439 38.8556C77.2107 40.6671 77.8103 42.7447 78.1894 45.1293C78.2481 45.4957 78.4172 45.8312 78.6718 46.0991C79.9019 47.3817 83.5077 51.8576 82.3378 59.2374Z" fill="url(#paint12_linear_11117_33423)"/>
<path d="M82.3378 59.2374C80.7044 69.5444 57.6729 71.8689 57.6729 71.8689C57.6729 71.8689 34.7829 75.3166 30.6492 65.7347C27.6892 58.8736 30.0751 53.6443 30.9496 52.0975C31.1299 51.7751 31.2109 51.4078 31.1774 51.0385C30.8477 47.4789 31.1513 44.4491 31.8965 41.8717L31.8961 41.8698C33.7366 35.491 38.2743 31.8776 42.5791 29.8386C42.5791 29.8386 44.5528 25.5571 47.3551 24.5481C50.1013 23.5608 49.5976 26.9471 49.5766 27.086C49.6706 26.9417 52.7278 22.2355 55.6499 22.0188C58.6182 21.8003 58.4458 24.9387 56.9191 26.9044C62.721 26.9958 72.1748 28.7959 76.4391 38.8451C76.441 38.8486 76.4413 38.8521 76.4439 38.8556C77.2107 40.6671 77.8103 42.7447 78.1894 45.1293C78.2481 45.4957 78.4172 45.8312 78.6718 46.0991C79.9019 47.3817 83.5077 51.8576 82.3378 59.2374Z" fill="url(#paint13_linear_11117_33423)" fill-opacity="0.2"/>
<path d="M48.6185 70.9795C40.8264 70.9795 33.4154 69.421 31.4713 64.9135C30.0711 61.6684 29.9513 58.8164 30.2731 56.6137C30.4811 57.7778 30.8408 59.0216 31.4041 60.3259C33.6795 65.6023 41.9622 66.7059 48.4948 66.7059C48.7695 66.7059 49.0406 66.704 49.3088 66.7005C49.7026 68.1657 50.3076 69.6099 51.2076 70.9241C50.3442 70.9604 49.479 70.9795 48.6185 70.9795ZM65.0468 69.0619C64.6776 68.6659 64.3874 68.181 64.2131 67.6212C64.1331 67.3648 64.0653 67.0876 64.0092 66.7894C63.8881 66.1376 63.8321 65.5351 63.812 64.9594C70.3491 63.4713 79.3639 60.3227 80.3376 54.1748C80.5606 52.7721 80.601 51.478 80.5144 50.2986C81.3714 52.3528 81.9611 55.1459 81.4077 58.637C80.5975 63.751 73.0804 67.1915 65.0468 69.0619Z" fill="#9D9FE6"/>
<path d="M33.5547 39.3291C35.7249 34.758 39.4435 32.0302 42.8534 30.415C42.9888 30.3509 43.0974 30.2413 43.1602 30.1053C43.1786 30.0648 45.0564 26.0544 47.5714 25.15C47.7788 25.0754 48.0282 25.0072 48.2487 25.0072C48.3991 25.0072 48.5364 25.0391 48.6367 25.1225C49.0413 25.4577 49.0193 26.5237 48.9458 26.9863C48.8967 27.2855 49.0646 27.5776 49.3475 27.6862C49.4224 27.7149 49.4995 27.7286 49.5759 27.7286C49.7887 27.7286 49.9939 27.6219 50.1143 27.4342C50.9306 26.1599 53.5245 22.8176 55.6973 22.6564C55.7817 22.6503 55.863 22.6471 55.9407 22.6471C56.5588 22.6471 56.9764 22.8434 57.1848 23.232C57.592 23.9912 57.2539 25.4322 56.4151 26.5122C56.2666 26.7034 56.2389 26.9621 56.3437 27.1806C56.4485 27.3989 56.6677 27.539 56.9099 27.5429C61.3051 27.6114 67.8164 28.6901 72.4411 33.7379C67.0219 29.031 59.4888 28.2992 55.8808 28.2415C55.1633 28.2301 54.7619 27.3966 55.2121 26.8378C56.7595 24.9177 56.5126 23.5471 55.5702 23.5471C55.4603 23.5471 55.3414 23.5656 55.2146 23.6042C54.2286 23.9046 51.6152 26.7126 49.9965 28.5346C49.8206 28.7328 49.5899 28.823 49.3625 28.823C48.9681 28.823 48.5832 28.5509 48.5106 28.0969C48.3656 27.1927 48.0652 26.322 47.4449 26.322C47.3716 26.322 47.2939 26.3342 47.2114 26.36C46.0667 26.7145 44.8082 29.0915 44.2399 30.2824C44.0331 30.716 43.6715 31.0534 43.2299 31.2423C38.6556 33.1978 35.3748 36.8562 33.5547 39.3291Z" fill="#E6E7EC"/>
<path d="M48.2441 25.0069C48.0237 25.0069 47.7742 25.075 47.5668 25.1496C45.0519 26.0541 43.1741 30.0645 43.1556 30.1049C43.0929 30.241 42.9842 30.3506 42.8488 30.4146C37.1913 33.0943 30.6838 38.8375 31.8087 50.9799C31.8546 51.4785 31.7482 51.9732 31.5007 52.411C30.7153 53.8023 28.3737 58.857 31.2308 65.4808C35.1227 74.5017 57.3497 71.2705 57.5737 71.2368C57.5839 71.2352 57.5941 71.2339 57.6046 71.2329C57.8299 71.21 80.1649 68.84 81.703 59.1367C82.8325 52.0124 79.3127 47.6939 78.2072 46.54C77.859 46.1771 77.6334 45.7238 77.5547 45.2297C75.1462 30.0823 63.5833 27.6464 56.9053 27.5425C56.6632 27.5387 56.444 27.3985 56.3392 27.1803C56.2344 26.9617 56.2621 26.703 56.4105 26.5119C57.2494 25.4319 57.5874 23.9909 57.1803 23.2317C56.9455 22.7939 56.4456 22.6002 55.6928 22.656C53.52 22.8172 50.926 26.1595 50.1098 27.4339C49.946 27.6891 49.6259 27.7945 49.343 27.6859C49.0601 27.5772 48.8922 27.2851 48.9412 26.9859C49.0148 26.5233 49.0368 25.4573 48.6322 25.1222C48.5318 25.0387 48.3945 25.0069 48.2441 25.0069ZM48.6726 73.127C41.6066 73.1273 32.6065 71.8953 30.0575 65.987C26.9671 58.8229 29.5292 53.3034 30.3882 51.7824C30.507 51.5721 30.5583 51.3351 30.5363 51.0971C29.3566 38.365 36.1205 32.2525 42.0976 29.3575C42.5532 28.4416 44.4561 24.9103 47.1342 23.9472C48.0995 23.6 48.8791 23.6646 49.4503 24.1403C49.8001 24.4315 50.0056 24.8348 50.1222 25.2534C51.3529 23.7207 53.4614 21.5403 55.5985 21.3816C57.3061 21.2555 58.0277 22.108 58.3065 22.6276C58.8277 23.6 58.7082 25.0053 58.05 26.3032C61.32 26.4752 65.649 27.236 69.5246 29.6541C74.5686 32.8008 77.6952 37.9738 78.8169 45.0293C78.8545 45.2647 78.9625 45.4813 79.1295 45.6553C80.3385 46.9169 84.1868 51.6314 82.9653 59.3368C81.2822 69.9551 58.9134 72.3837 57.7486 72.5028C57.2844 72.572 53.4136 73.127 48.6726 73.127Z" fill="#371B45"/>
<path d="M46.9274 52.6192C46.9835 54.8624 45.5654 56.7176 43.76 56.7628C41.9542 56.8084 40.4447 55.0265 40.3883 52.7833C40.332 50.5404 41.75 48.685 43.5558 48.6397C45.3615 48.5945 46.871 50.376 46.9274 52.6192Z" fill="#371B45"/>
<path d="M45.8909 52.1135C45.9097 52.8625 45.4362 53.4818 44.8331 53.4968C44.2304 53.5121 43.7264 52.9173 43.7076 52.1683C43.6888 51.4193 44.1622 50.7999 44.7653 50.7846C45.3677 50.7697 45.8721 51.3645 45.8909 52.1135Z" fill="white"/>
<path d="M46.1522 50.998C46.0515 50.998 45.9493 50.9808 45.8489 50.9445L40.8104 49.1203C40.3478 48.9527 40.1086 48.442 40.2762 47.9794C40.4434 47.5168 40.9541 47.2776 41.417 47.4448L46.4555 49.2691C46.9181 49.4366 47.1574 49.9473 46.9898 50.4102C46.8585 50.7725 46.5167 50.998 46.1522 50.998Z" fill="#371B45"/>
<path d="M63.1205 50.609C63.3954 52.8359 65.0718 54.462 66.8645 54.2406C68.6569 54.0191 69.8873 52.0343 69.6123 49.8074C69.3374 47.5804 67.6613 45.9547 65.8686 46.1761C64.0756 46.3972 62.8455 48.382 63.1205 50.609Z" fill="#371B45"/>
<path d="M64.0714 49.9536C64.1635 50.6972 64.7229 51.24 65.3216 51.1661C65.9199 51.0922 66.3309 50.4295 66.2391 49.686C66.1473 48.9424 65.5876 48.3995 64.9889 48.4734C64.3903 48.5473 63.9797 49.2103 64.0714 49.9536Z" fill="white"/>
<path d="M63.5208 48.8975C63.2038 48.8975 62.8973 48.7283 62.7361 48.4301C62.5023 47.9971 62.6638 47.4568 63.0964 47.223L67.8112 44.6755C68.2439 44.4417 68.7845 44.6029 69.0184 45.0358C69.2522 45.4688 69.091 46.0094 68.658 46.2433L63.9432 48.7904C63.8088 48.8631 63.6638 48.8975 63.5208 48.8975Z" fill="#371B45"/>
<path d="M74.5009 71.5624C73.8736 74.4323 66.1093 79.048 56.8412 75.3425C48.1462 71.8667 48.2775 62.3558 48.9233 57.686C48.9284 57.6522 48.9335 57.6184 48.9366 57.5869C48.9886 57.225 49.0427 56.8943 49.094 56.5992C49.2702 55.6145 49.4333 55.0238 49.4333 55.0238L49.6296 54.9161C50.0233 54.6976 50.4251 54.4962 50.8326 54.3143C51.2088 54.1436 51.5905 53.9906 51.976 53.852C54.9443 52.7854 58.184 52.621 61.2756 53.414L61.5929 53.4952C65.2898 60.2895 63.1983 62.4326 64.0072 66.7893C64.0633 67.0875 64.1311 67.3647 64.2111 67.6212C64.9556 70.015 67.8252 71.0345 69.9008 69.6289C70.191 69.4346 70.4864 69.2667 70.7702 69.1262C71.0334 68.9937 71.2867 68.8863 71.5144 68.7971C72.0446 68.5906 72.6321 68.9051 72.7534 69.4601L72.8015 69.6802C72.8745 70.0135 73.1268 70.2798 73.4553 70.3728L73.844 70.4802C74.3133 70.6127 74.6048 71.0858 74.5009 71.5624Z" fill="url(#paint14_linear_11117_33423)"/>
<path d="M74.5009 71.5624C73.8736 74.4323 66.1093 79.048 56.8412 75.3425C48.1462 71.8667 48.2775 62.3558 48.9233 57.686C48.9284 57.6522 48.9335 57.6184 48.9366 57.5869C48.9886 57.225 49.0427 56.8943 49.094 56.5992C49.2702 55.6145 49.4333 55.0238 49.4333 55.0238L49.6296 54.9161C50.0233 54.6976 50.4251 54.4962 50.8326 54.3143C51.2088 54.1436 51.5905 53.9906 51.976 53.852C54.9443 52.7854 58.184 52.621 61.2756 53.414L61.5929 53.4952C65.2898 60.2895 63.1983 62.4326 64.0072 66.7893C64.0633 67.0875 64.1311 67.3647 64.2111 67.6212C64.9556 70.015 67.8252 71.0345 69.9008 69.6289C70.191 69.4346 70.4864 69.2667 70.7702 69.1262C71.0334 68.9937 71.2867 68.8863 71.5144 68.7971C72.0446 68.5906 72.6321 68.9051 72.7534 69.4601L72.8015 69.6802C72.8745 70.0135 73.1268 70.2798 73.4553 70.3728L73.844 70.4802C74.3133 70.6127 74.6048 71.0858 74.5009 71.5624Z" fill="url(#paint15_linear_11117_33423)" fill-opacity="0.2"/>
<path d="M68.5391 76.0352C71.3646 75.1817 73.3998 73.6741 74.1842 72.3325C73.3998 73.6744 71.3653 75.182 68.5391 76.0352Z" fill="#9D9FE6"/>
<path d="M63.7929 76.7227C63.619 76.7227 63.4438 76.7201 63.2673 76.7147C63.4438 76.7201 63.6187 76.7227 63.7926 76.7227C65.5331 76.7227 67.1353 76.4598 68.5406 76.0355C67.1353 76.4598 65.5334 76.7227 63.7929 76.7227ZM56.8413 75.3425C55.9015 74.9669 55.0645 74.5206 54.3203 74.0175H54.3206C55.0645 74.5206 55.9015 74.9669 56.8413 75.3425Z" fill="#9D9FE6"/>
<path d="M54.3196 74.0176C53.8423 73.6948 53.404 73.3495 53 72.9838C53.404 73.3495 53.8423 73.6948 54.3199 74.0176H54.3196Z" fill="#7A6D89"/>
<path d="M74.4915 71.1416C74.4288 70.8985 74.2676 70.687 74.043 70.5621C74.2676 70.687 74.4291 70.8985 74.4915 71.1416Z" fill="#9D9FE6"/>
<path d="M74.0445 70.5625C73.982 70.5278 73.9148 70.5001 73.8438 70.4797C73.9151 70.4997 73.9823 70.5278 74.0445 70.5625Z" fill="#B1A9BA"/>
<path d="M72.7542 69.4597C72.7157 69.2842 72.631 69.1325 72.5156 69.014C72.631 69.1325 72.716 69.2842 72.7542 69.4597Z" fill="#371B45"/>
<path d="M70.7695 69.126C70.8533 69.0836 70.9358 69.0441 71.0171 69.0068C70.9358 69.0441 70.8533 69.0839 70.7695 69.126ZM72.4638 68.966C72.4638 68.9657 72.4638 68.9657 72.4635 68.9657C72.4635 68.9657 72.4638 68.9657 72.4638 68.966Z" fill="#371B45"/>
<path d="M48.9375 57.5869L48.9381 57.5828C48.9381 57.584 48.9378 57.5853 48.9375 57.5869ZM49.0108 56.7382C49.0108 56.7382 49.0907 56.6063 49.0949 56.5996C49.0318 56.7035 49.0108 56.7382 49.0108 56.7382ZM49.1287 56.4139C49.1197 56.1711 49.0216 55.7741 49.4342 55.0239C49.6594 54.6145 49.8843 54.4851 50.0793 54.4851C50.1497 54.4851 50.2166 54.502 50.2778 54.5288C50.2941 54.5361 50.31 54.5441 50.3253 54.5527C50.0914 54.6677 49.8595 54.7891 49.6304 54.9162L49.4342 55.0239C49.4342 55.0239 49.2915 55.5409 49.1287 56.4139Z" fill="#9D9FE6"/>
<path d="M63.7922 76.7227C63.6183 76.7227 63.4434 76.7201 63.2669 76.7147C61.4359 76.6593 59.4616 76.3117 57.4064 75.5592C57.2188 75.4903 57.0298 75.418 56.8409 75.3425C55.9011 74.9669 55.0641 74.5206 54.3202 74.0175C53.8427 73.6948 53.4043 73.3494 53.0003 72.9837C52.8722 72.8677 52.7474 72.7492 52.6263 72.6297C48.2189 68.2663 48.4062 61.4246 48.9233 57.686L48.952 57.6216L48.9364 57.5869C48.9367 57.5853 48.937 57.584 48.937 57.5827L49.0938 56.5993C49.125 56.548 49.1304 56.4881 49.1275 56.4138C49.2903 55.5409 49.4331 55.0238 49.4331 55.0238L49.6293 54.9162C49.8584 54.789 50.0903 54.6677 50.3242 54.5526C50.5386 54.6721 50.6523 54.9225 50.6268 55.1707C50.4003 57.3782 49.3544 71.0715 57.9193 73.8509C60.1195 74.5648 62.1731 74.8637 63.9897 74.8637C69.869 74.8637 73.2553 71.731 71.0258 69.405C70.935 69.3097 70.8496 69.2173 70.77 69.1262C70.8538 69.0842 70.9363 69.0443 71.0175 69.0071C71.1915 68.9274 71.359 68.858 71.5145 68.7971C71.5343 68.7891 71.5543 68.7821 71.5744 68.7758C71.6665 68.7471 71.7595 68.7334 71.8509 68.7334C71.9981 68.7334 72.1412 68.7687 72.2692 68.8337C72.3393 68.8694 72.405 68.9137 72.4639 68.966C72.4642 68.966 72.4642 68.966 72.4642 68.9663C72.4642 68.9663 72.4642 68.9663 72.4645 68.9663C72.4817 68.9819 72.4986 68.9978 72.5146 69.0144C72.6299 69.1329 72.7146 69.2845 72.7532 69.4601L72.7863 69.6127L72.787 69.6149L72.8013 69.6802C72.8742 70.0135 73.1266 70.2798 73.4547 70.3728L73.5 70.3853L73.8437 70.4802C73.9148 70.5006 73.982 70.5283 74.0444 70.563C74.269 70.6879 74.4302 70.8995 74.493 71.1426C74.5274 71.276 74.5319 71.4191 74.5006 71.5625C74.4468 71.8087 74.3407 72.0674 74.1852 72.3328C73.4009 73.6744 71.3657 75.182 68.5402 76.0355C67.1349 76.4598 65.5327 76.7227 63.7922 76.7227Z" fill="#9D9FE6"/>
<path d="M52.1652 56.0723C52.1445 56.0723 52.1244 56.0624 52.1123 56.0442C52.0973 56.0219 52.0986 55.9936 52.1126 55.9729C52.472 55.4504 52.9699 55.0397 53.5265 54.7285C54.0824 54.4172 54.7062 54.2018 55.3495 54.1321L55.4696 54.1136L55.5906 54.1088L55.8325 54.0992L56.0746 54.0925C56.0768 54.0925 56.079 54.0925 56.0816 54.0925C56.1596 54.0925 56.2377 54.104 56.3154 54.1088C56.4757 54.1247 56.6359 54.1387 56.7952 54.1579C56.9517 54.1926 57.1081 54.2276 57.2623 54.2671L57.4942 54.3248C57.5694 54.3506 57.644 54.3777 57.7179 54.4064L58.1582 54.5819C58.4414 54.7195 58.7115 54.8823 58.9715 55.0521C59.0301 55.0904 59.0467 55.1691 59.0082 55.2277C58.9839 55.265 58.9432 55.2853 58.9021 55.2853C58.8941 55.2853 58.8864 55.2847 58.8785 55.2831L58.8622 55.2803C58.5599 55.2232 58.2795 55.1286 57.9919 55.0655L57.5611 54.9801L57.3489 54.9336L57.1336 54.9091C56.9899 54.8938 56.8481 54.8741 56.7067 54.8537L56.2794 54.8368C56.2176 54.8345 56.1561 54.8272 56.0943 54.8272C56.0851 54.8272 56.0759 54.8272 56.0666 54.8275L55.8548 54.8377C55.7136 54.8473 55.5709 54.8374 55.4313 54.8623C54.8658 54.9072 54.3134 55.0544 53.7715 55.2497C53.2312 55.4517 52.7045 55.724 52.2056 56.0579L52.2002 56.0617C52.1894 56.0691 52.1773 56.0723 52.1652 56.0723Z" fill="#9D9FE6"/>
<path d="M52.344 61.6914C52.3246 61.6914 52.3051 61.6822 52.293 61.6653C52.2768 61.6427 52.2777 61.6127 52.2934 61.5917C52.7301 60.9934 53.3199 60.5225 53.9742 60.166C54.6289 59.8101 55.3576 59.5658 56.1082 59.4836L56.248 59.4616L56.3895 59.4555L56.6717 59.4447L56.9543 59.4367C56.9585 59.4367 56.9626 59.4367 56.9668 59.4367C57.0566 59.4367 57.1461 59.4495 57.2356 59.4549L57.796 59.5119C57.9792 59.5502 58.1621 59.5887 58.3434 59.6336L58.6148 59.6983C58.7034 59.7273 58.7907 59.7585 58.8776 59.7913L59.3957 59.9895C59.7302 60.1447 60.0497 60.3301 60.3597 60.5196C60.419 60.5556 60.4375 60.6327 60.4015 60.6917C60.3779 60.7305 60.3365 60.7519 60.2944 60.7519C60.2855 60.7519 60.2766 60.7509 60.2677 60.749L60.252 60.7452C59.8994 60.6678 59.5699 60.5496 59.231 60.468L58.7225 60.3591L58.4711 60.3008L58.2156 60.2686C58.0452 60.2488 57.877 60.223 57.7091 60.1966L57.2003 60.1752C57.1264 60.1727 57.0525 60.1635 56.9785 60.1635C56.968 60.1635 56.9575 60.1634 56.947 60.1641L56.6937 60.1756L56.4408 60.1842L56.3143 60.1886L56.1888 60.2045L55.6863 60.2664C55.5213 60.3036 55.3572 60.3422 55.1903 60.3734C54.8615 60.4556 54.5372 60.5595 54.2167 60.6818C53.5785 60.9303 52.9605 61.2642 52.3858 61.6758L52.3803 61.6796C52.3695 61.6876 52.3568 61.6914 52.344 61.6914Z" fill="#9D9FE6"/>
<path d="M53.9202 67.7031C53.9084 67.7031 53.8966 67.6993 53.8864 67.692C53.8663 67.6773 53.859 67.6522 53.8657 67.6298C54.0482 67.0319 54.3955 66.495 54.8377 66.0407C55.2802 65.5874 55.8339 65.2229 56.446 65.0123C56.9012 64.8495 57.3845 64.7731 57.8621 64.7731C58.0233 64.7731 58.1842 64.782 58.3428 64.7989C58.9733 64.8632 59.5806 65.0461 60.1263 65.3335C60.1824 65.3628 60.2037 65.4322 60.1744 65.488C60.1537 65.5272 60.1136 65.5491 60.0721 65.5491C60.0664 65.5491 60.0604 65.5488 60.0546 65.5479C59.4614 65.4545 58.8825 65.3838 58.3126 65.3838C58.2986 65.3835 58.2849 65.3835 58.2712 65.3835C58.1424 65.3835 58.015 65.393 57.8876 65.3965C57.7477 65.4106 57.6072 65.4192 57.4696 65.445C57.1921 65.4806 56.9219 65.5501 56.6575 65.6342C56.128 65.8034 55.6332 66.0758 55.1818 66.424C54.7326 66.7735 54.3229 67.1982 53.9689 67.676L53.9657 67.6802C53.9546 67.6952 53.9374 67.7031 53.9202 67.7031Z" fill="#9D9FE6"/>
<path d="M58.2752 72.4619C58.2682 72.4619 58.2609 72.4603 58.2542 72.4565C58.237 72.4473 58.2284 72.4285 58.2309 72.41C58.3039 71.9203 58.5084 71.4552 58.8018 71.0464C59.0943 70.6374 59.4846 70.2837 59.9405 70.047C60.3964 69.8176 60.8978 69.6618 61.4025 69.6523C61.4643 69.6484 61.5261 69.6411 61.5879 69.6411C61.5885 69.6411 61.5895 69.6411 61.5901 69.6411L61.7775 69.6516L62.1489 69.6809C62.3926 69.7233 62.6325 69.7829 62.8664 69.8508C62.9142 69.8645 62.9413 69.9145 62.9276 69.9623C62.917 69.9992 62.8842 70.0241 62.8479 70.0269L62.8361 70.0276C62.5956 70.0454 62.3624 70.0343 62.1317 70.0435L61.7876 70.0738L61.6169 70.0846C61.5605 70.091 61.5054 70.105 61.4496 70.1145C61.3388 70.1369 61.2279 70.1547 61.117 70.1719C61.0087 70.198 60.9032 70.235 60.7962 70.2649C60.743 70.2802 60.6885 70.2917 60.6359 70.3095L60.4833 70.3736C60.383 70.4198 60.2753 70.4503 60.1813 70.5083C59.7824 70.6992 59.4323 70.9808 59.1185 71.3058C58.8063 71.6333 58.5396 72.0178 58.3172 72.4339L58.3153 72.438C58.3071 72.4533 58.2914 72.4619 58.2752 72.4619Z" fill="#9D9FE6"/>
<path d="M49.5045 55.0432C49.4242 56.5437 49.3376 58.0083 49.2847 59.4674C49.2637 60.1967 49.2433 60.9234 49.2531 61.6498C49.2703 62.3749 49.3038 63.1 49.3927 63.8165C49.5507 65.2524 49.8741 66.6631 50.3921 67.9884C50.51 68.3252 50.6712 68.6415 50.8158 68.9649C50.8843 69.129 50.9793 69.2787 51.0611 69.4351C51.1468 69.5897 51.2278 69.747 51.3173 69.899C51.6932 70.4948 52.0908 71.0781 52.5668 71.5946C53.4983 72.6443 54.6319 73.5045 55.8875 74.148C57.1376 74.7855 58.5219 75.2688 59.9154 75.582C62.704 76.2272 65.658 76.1835 68.3746 75.345C69.7286 74.9343 71.0377 74.3338 72.1406 73.5029C72.6883 73.0903 73.1888 72.6124 73.5271 72.0919C73.5746 72.0285 73.6017 71.9616 73.6412 71.8972C73.682 71.8322 73.7078 71.7675 73.7345 71.7035L73.7769 71.6076L73.8033 71.5155L73.832 71.4238C73.8349 71.4037 73.8387 71.3977 73.8381 71.3846C73.8489 71.2951 73.7909 71.1887 73.6998 71.1492C73.689 71.1431 73.6765 71.1399 73.6648 71.1351L73.5373 71.0985L73.2652 71.0214C72.9559 70.9325 72.6746 70.7471 72.4707 70.4983C72.3687 70.3737 72.2859 70.2339 72.2254 70.0848C72.1948 70.0102 72.1706 69.9334 72.1518 69.8554L72.119 69.7056L72.104 69.6378L72.0967 69.604L72.0935 69.5944C72.0909 69.5811 72.0871 69.569 72.0814 69.5578C72.0721 69.5342 72.0603 69.5129 72.0434 69.4947C71.9778 69.4164 71.8634 69.3788 71.7669 69.4173C71.7656 69.416 71.7427 69.4253 71.7223 69.4332L71.6618 69.4571L71.542 69.5062L71.305 69.6094C71.1482 69.6808 70.9943 69.7563 70.844 69.8366C70.5324 69.9975 70.3043 70.1705 69.8844 70.4059C69.7923 70.4652 69.6872 70.5005 69.5878 70.5461C69.4864 70.5881 69.3877 70.6356 69.2841 70.6713L68.9687 70.7643L68.8104 70.8086L68.6486 70.8366L68.3249 70.8898C68.2159 70.8981 68.1066 70.9023 67.9977 70.9077C67.7791 70.9281 67.5622 70.8965 67.3449 70.8854C66.9154 70.8239 66.4869 70.7283 66.0922 70.5464C65.2906 70.2125 64.6034 69.6212 64.1322 68.892C64.0676 68.804 64.0163 68.7088 63.9678 68.6116L63.8191 68.3223C63.7413 68.1232 63.6588 67.9142 63.5986 67.7186C63.4852 67.3302 63.4049 66.9304 63.3565 66.5471C63.1013 64.9962 63.2459 63.4307 63.2988 61.9862C63.3077 61.8027 63.3087 61.6227 63.3093 61.4427C63.3087 61.263 63.3163 61.0814 63.3052 60.9043L63.2845 60.369L63.2338 59.8383C63.2211 59.6608 63.1927 59.4853 63.1624 59.3104C63.1328 59.1348 63.1083 58.959 63.0748 58.7844L62.9582 58.2622L62.9022 58.0003C62.8827 57.913 62.8556 57.827 62.8327 57.7404C62.4765 56.3491 61.97 54.9785 61.5271 53.5321L61.5265 53.5308C61.5141 53.4897 61.537 53.4464 61.5784 53.4337C61.609 53.4244 61.6418 53.4353 61.6612 53.4592C62.6199 54.6341 63.3667 55.9786 63.8547 57.4418C63.9207 57.6228 63.9755 57.8082 64.0204 57.9965L64.1631 58.5595C64.2023 58.7493 64.2323 58.9411 64.267 59.1323C64.3024 59.3231 64.3355 59.5146 64.3521 59.7083C64.4591 60.4796 64.4629 61.2566 64.4543 62.0149C64.4167 63.5368 64.3078 64.965 64.5579 66.3592C64.6069 66.7131 64.6792 67.0435 64.7786 67.3675C64.8309 67.5262 64.8902 67.6619 64.9462 67.8094L65.0568 68.0139C65.0915 68.0834 65.1281 68.1516 65.1766 68.2124C65.5197 68.725 66.0119 69.1427 66.5901 69.3717C66.8734 69.5008 67.1811 69.5594 67.4854 69.6021C67.6393 69.604 67.7931 69.6304 67.9461 69.6107L68.1758 69.5964L68.4017 69.5546L68.5144 69.5349L68.624 69.5011L68.8429 69.4342C68.9146 69.4087 68.9824 69.3724 69.0528 69.3428C69.1217 69.3093 69.1959 69.2876 69.259 69.2427C69.4874 69.114 69.8633 68.8489 70.2122 68.6654C70.3893 68.5692 70.5687 68.48 70.7497 68.3962C70.8408 68.3545 70.9319 68.314 71.0233 68.2752L71.1616 68.2178L71.2307 68.1898C71.2533 68.1809 71.2734 68.1723 71.3171 68.1576C71.6159 68.0483 71.9549 68.033 72.2646 68.1171C72.5736 68.2003 72.8571 68.3755 73.0655 68.6212C73.1716 68.7425 73.257 68.8824 73.3197 69.0299C73.3525 69.1038 73.378 69.1796 73.3975 69.2571L73.4124 69.3147L73.4201 69.3491L73.4354 69.417L73.4634 69.54C73.4666 69.5521 73.4698 69.5642 73.4752 69.5756C73.4851 69.5986 73.4981 69.6199 73.5137 69.6394C73.5469 69.6776 73.5902 69.705 73.638 69.7187L73.9031 69.7923L74.0442 69.8318C74.121 69.8554 74.1968 69.8818 74.2698 69.9162C74.5635 70.0497 74.8126 70.2765 74.978 70.5524C75.142 70.8287 75.2258 71.1594 75.1994 71.4846C75.1959 71.5643 75.1793 71.6497 75.165 71.721L75.1159 71.8969L75.0634 72.0721L74.9965 72.233C74.9522 72.3407 74.906 72.4474 74.8502 72.5417C74.7948 72.6376 74.746 72.7421 74.6839 72.8291C74.2114 73.5602 73.6125 74.1181 72.9804 74.6052C71.708 75.5721 70.2724 76.2364 68.7865 76.6945C65.8061 77.6016 62.6059 77.6293 59.607 76.9255C58.1013 76.5779 56.6553 76.0726 55.2576 75.3555C53.8733 74.6301 52.6101 73.6466 51.5811 72.4589C51.056 71.873 50.6186 71.2183 50.2111 70.5515C50.114 70.382 50.026 70.2074 49.9333 70.0357C49.8451 69.8617 49.7435 69.6942 49.6695 69.5138C49.5141 69.1573 49.3427 68.8066 49.2181 68.4392C48.6701 66.9865 48.3448 65.4684 48.1951 63.9465C48.0428 62.4246 48.0259 60.8938 48.1932 59.3846C48.2802 58.6308 48.4178 57.8837 48.6061 57.1497C48.7972 56.4166 49.0317 55.6941 49.3647 55.0046C49.3822 54.968 49.4265 54.9527 49.4634 54.9702C49.4908 54.9836 49.5061 55.0116 49.5048 55.0406L49.5045 55.0432Z" fill="#371B45"/>
<path d="M44.8152 94.7425C44.1044 94.1681 43.2924 93.4092 42.5749 92.4551C41.6516 91.2212 40.8902 89.6575 40.7197 87.7367C40.4171 84.3285 44.3494 83.6202 44.3494 83.6202C44.5059 84.8854 44.8391 85.9921 45.2686 86.9489C46.9402 90.6729 50.0882 92.1766 50.0882 92.1766C50.4765 95.7222 46.4467 96.064 44.8152 94.7425Z" fill="white"/>
<path d="M47.0712 94.8701C46.3368 94.8701 45.6216 94.642 45.1835 94.2874C44.3893 93.6448 43.7145 92.9662 43.1602 92.2539C44.3077 91.747 44.8764 90.7425 45.1322 89.657C45.4342 90.0913 45.7936 90.5402 46.2189 91.0021C47.263 92.1357 48.3618 92.835 49.4756 93.2128C49.3526 93.8009 49.0241 94.2431 48.4933 94.5327C48.0626 94.7679 47.5627 94.8701 47.0712 94.8701Z" fill="#C3BAC7"/>
<path d="M43.8666 84.3535C42.9016 84.6762 41.1134 85.5642 41.3013 87.6834C41.5208 90.1598 42.8264 92.3817 45.1818 94.2871C45.9129 94.8791 47.4176 95.1187 48.4916 94.5325C49.2087 94.1412 49.5563 93.4719 49.5273 92.5403C48.4263 91.9165 44.7685 89.4885 43.8666 84.3535ZM47.049 96.0391C46.0916 96.0391 45.1308 95.7514 44.4458 95.197C41.8347 93.0841 40.3844 90.5912 40.1359 87.7866C39.8597 84.6702 42.7028 83.3216 44.2448 83.0438C44.4031 83.0154 44.5659 83.053 44.6956 83.1483C44.8249 83.2439 44.9094 83.3882 44.9291 83.5481C45.6393 89.3171 50.1492 91.5559 50.3407 91.6486C50.5226 91.7362 50.6472 91.9117 50.6691 92.1124C50.8988 94.2186 49.7548 95.176 49.0523 95.5596C48.461 95.8823 47.7556 96.0391 47.049 96.0391Z" fill="#371B45"/>
<path d="M46.2152 91.002C51.0291 96.2294 57.0033 92.2167 60.2838 90.0704C60.8984 89.6667 61.4123 89.1446 61.8242 88.5364C61.8242 88.5364 61.8242 88.5348 61.8264 88.5313C62.6736 87.2815 63.0849 85.6777 63.0428 84.0535V84.0519C62.9842 81.7272 62.0007 79.3629 60.0503 77.929C56.0702 75.0014 51.7991 76.488 50.1616 77.9959C50.1616 77.9959 48.7904 76.264 47.0547 76.7212C46.8527 76.7747 46.646 76.8569 46.4338 76.977C46.32 77.0417 46.2063 77.115 46.0919 77.201C43.9322 78.8181 45.0218 82.2315 45.0218 82.2315C45.0218 82.2315 41.3997 85.7723 46.2152 91.002Z" fill="#FA8385"/>
<path d="M60.2844 90.0711C60.8989 89.6675 61.4128 89.1453 61.8248 88.5371C61.8248 88.5371 61.8248 88.5355 61.827 88.532C62.0452 88.2102 62.2341 87.8652 62.3941 87.5023C62.7187 86.7657 62.9233 85.9565 63.0054 85.1215C63.0115 85.0603 63.0166 84.9988 63.0214 84.9374C62.8621 87.0327 61.9379 88.9895 60.2844 90.0711Z" fill="#9D9FE6"/>
<path d="M46.3633 77.0186C46.3924 77.0007 46.4216 76.9841 46.4507 76.9678C46.4444 76.9712 46.4382 76.9747 46.4319 76.9784C46.409 76.9913 46.3862 77.0048 46.3633 77.0186Z" fill="#9D9FE6"/>
<path d="M51.706 93.5732C51.3412 93.5732 50.9749 93.5471 50.6091 93.4904C50.229 93.4318 49.8499 93.3407 49.4718 93.2126C48.358 92.8348 47.2592 92.1354 46.2151 91.0019C44.2918 88.9132 43.7145 87.0938 43.7148 85.6617C43.7152 83.5087 45.0217 82.2315 45.0217 82.2315C45.0217 82.2315 44.7471 81.3713 44.7468 80.3104C44.7468 79.2574 45.0163 78.0063 46.0918 77.2009C46.1833 77.1331 46.2738 77.0722 46.3639 77.0181C46.3872 77.004 46.4104 76.9903 46.4337 76.9773C46.5207 77.0133 46.6038 77.0518 46.6838 77.092C45.2374 78.8824 46.9762 81.9651 46.9762 81.9651C46.9762 81.9651 44.9924 89.0639 50.971 90.8509C51.6089 91.0414 52.2387 91.1274 52.8568 91.1274C57.0405 91.1268 60.66 87.1903 62.222 85.1896C62.3023 87.0033 61.8585 88.4296 61.8263 88.5309V88.5312C61.8241 88.5347 61.8241 88.5363 61.8241 88.5363C61.4122 89.1445 60.8983 89.6667 60.2837 90.0703C59.9142 90.3122 59.5099 90.5779 59.0772 90.8515C57.058 92.1275 54.4144 93.5732 51.706 93.5732ZM62.3934 87.5016C62.7181 86.7653 62.9226 85.9558 63.0048 85.1207C62.9226 85.9558 62.7181 86.765 62.3934 87.5016Z" fill="#DF6C6E"/>
<path d="M46.7969 76.8066C46.8851 76.7725 46.9727 76.7441 47.0591 76.7215C46.9727 76.7444 46.8851 76.7725 46.7969 76.8066Z" fill="#9D9FE6"/>
<path d="M46.7344 76.8311C46.7542 76.8227 46.7741 76.8147 46.7936 76.807C46.8823 76.7728 46.9703 76.7446 47.057 76.7216C46.9508 76.7497 46.8432 76.7856 46.7344 76.8311Z" fill="#C1324F"/>
<path d="M63.0233 84.9277C63.0253 84.9029 63.0272 84.8784 63.0288 84.8535C63.0288 84.851 63.0291 84.8487 63.0291 84.8465C63.0294 84.8452 63.0294 84.8439 63.0294 84.8427C63.0466 84.5814 63.0517 84.318 63.0447 84.0542V84.0526C62.9861 81.7278 62.0026 79.3636 60.0522 77.9296C59.5666 77.5725 59.0773 77.2813 58.5886 77.0477C59.0773 77.2813 59.567 77.5725 60.0522 77.9296C62.0026 79.3636 62.9864 81.7278 63.045 84.0526V84.0542C63.0523 84.3466 63.0453 84.6385 63.0233 84.9277ZM50.1635 77.9965C50.1635 77.9965 49.5104 77.1717 48.5352 76.8107C49.5043 77.1691 50.1555 77.986 50.1638 77.9962C50.1635 77.9965 50.1638 77.9962 50.1635 77.9965Z" fill="#E9EAEF"/>
<path d="M62.2218 85.1895C62.1193 82.8714 61.1606 79.92 57.3914 78.2936C55.7456 77.5834 54.3769 77.3139 53.2465 77.3139C49.6853 77.3139 48.4932 79.9888 48.4932 79.9888C48.4932 79.9888 48.5356 78.0269 46.6836 77.0919C46.7894 76.9609 46.9127 76.8364 47.0544 76.721C47.2567 76.6678 47.4543 76.6442 47.6451 76.6442C47.9615 76.6442 48.26 76.7089 48.533 76.8099C49.5082 77.1709 50.1613 77.9957 50.1613 77.9957C50.1616 77.9954 50.1613 77.9957 50.1616 77.9954C50.1616 77.9957 50.1616 77.9957 50.1616 77.9957C51.1129 77.1196 52.9534 76.2505 55.1093 76.2505C56.2117 76.2505 57.3962 76.4776 58.5864 77.0469C59.0751 77.2805 59.5645 77.5717 60.05 77.9288C62.0004 79.3628 62.9839 81.727 63.0425 84.0518V84.0534C63.0495 84.3172 63.0444 84.5806 63.0272 84.8419C63.0441 84.5806 63.0495 84.3175 63.0425 84.0534C63.0244 84.0875 62.7332 84.5348 62.2218 85.1895Z" fill="#FEBBC3"/>
<path d="M46.457 76.9664C46.4714 76.9584 46.4857 76.9504 46.5 76.9428C46.487 76.9498 46.4739 76.9568 46.4612 76.9641C46.4596 76.9648 46.4583 76.9657 46.457 76.9664Z" fill="#E9EAEF"/>
<path d="M46.457 76.9648C46.4698 76.9575 46.483 76.9504 46.4961 76.9434C46.5764 76.9005 46.6561 76.8627 46.7349 76.8301C46.643 76.8682 46.5505 76.913 46.457 76.9648Z" fill="#FEBBC3"/>
<path d="M61.8281 88.5312V88.5309C62.0464 88.2095 62.2353 87.8641 62.3952 87.5016C62.2353 87.8644 62.0464 88.2095 61.8281 88.5312ZM63.0066 85.1207C63.0152 85.0319 63.0225 84.9423 63.0286 84.8528C63.027 84.8777 63.0251 84.9022 63.0232 84.927V84.9274C63.0232 84.9306 63.0228 84.9337 63.0225 84.9366C63.0177 84.9981 63.0126 85.0596 63.0066 85.1207ZM63.0289 84.8458C63.0292 84.8442 63.0292 84.8433 63.0292 84.842C63.0292 84.8433 63.0292 84.8445 63.0289 84.8458Z" fill="#DBD9E0"/>
<path d="M61.8281 88.5312C61.8603 88.4299 62.3041 87.0036 62.2238 85.1899C62.7352 84.5352 63.0263 84.0879 63.0445 84.0538C63.0515 84.3179 63.0461 84.5811 63.0292 84.8423C63.0292 84.8436 63.0292 84.8445 63.0289 84.8461C63.0289 84.8484 63.0286 84.8506 63.0286 84.8531C63.0225 84.9427 63.0152 85.0322 63.0066 85.1211C62.9244 85.9561 62.7199 86.7656 62.3952 87.5019C62.2353 87.8644 62.0464 88.2098 61.8281 88.5312Z" fill="#E9B7C2"/>
<path d="M46.4375 76.9775C46.4438 76.9738 46.4501 76.9703 46.4564 76.9668C46.4577 76.9662 46.459 76.9652 46.4605 76.9646C46.4526 76.9687 46.4451 76.9731 46.4375 76.9772V76.9775Z" fill="#DBD9E0"/>
<path d="M46.6876 77.0918C46.6076 77.0517 46.5245 77.0131 46.4375 76.9771V76.9768C46.4451 76.9726 46.4528 76.9682 46.4608 76.964C46.5538 76.9124 46.6459 76.8678 46.7373 76.8299C46.8456 76.7847 46.9527 76.749 47.0584 76.721C46.9167 76.8363 46.7934 76.9609 46.6876 77.0918Z" fill="#E9B7C2"/>
<path d="M50.5031 78.472L49.9548 78.8989C49.7646 79.0499 49.5684 79.2012 49.3766 79.3615C49.1861 79.523 48.9879 79.6836 48.7926 79.8544C48.5903 80.0203 48.3947 80.1975 48.1669 80.3689C48.1608 80.374 48.1526 80.3727 48.1475 80.367C48.1452 80.3641 48.1443 80.3603 48.1446 80.3568C48.2058 79.7938 48.4208 79.271 48.7059 78.7947C48.8477 78.5555 49.0099 78.327 49.1921 78.1142C49.2813 78.0059 49.3798 77.9052 49.4808 77.8055C49.5875 77.7055 49.6824 77.6185 49.8242 77.5191C50.0893 77.334 50.4537 77.3983 50.6388 77.6631C50.8182 77.9189 50.7634 78.2687 50.52 78.4589L50.5031 78.472Z" fill="#371B45"/>
<path d="M45.4334 82.6468C45.297 82.7831 42.3013 85.8862 46.6456 90.6045C51.0663 95.4044 56.562 91.8075 59.8454 89.6583L59.9652 89.5796C61.4664 88.5974 62.3989 86.6973 62.4588 84.4962C62.5273 81.9966 61.4979 79.7174 59.7052 78.3994C55.8745 75.5824 51.8889 77.2008 50.5585 78.4252C50.4387 78.5354 50.2794 78.5918 50.1166 78.5781C49.9541 78.5653 49.8047 78.4857 49.7037 78.3583C49.5441 78.1595 48.0882 76.4403 46.4436 77.6698C44.6378 79.0209 45.57 82.022 45.5799 82.0523C45.6468 82.2623 45.5901 82.4923 45.4334 82.6468ZM51.6876 94.167C49.6977 94.167 47.6628 93.4361 45.7851 91.3972C41.4156 86.6518 43.6002 83.0753 44.3772 82.0861C44.144 81.1255 43.6712 78.2831 45.7427 76.7331C47.5192 75.4046 49.2634 76.2906 50.2167 77.1932C52.391 75.5824 56.6458 74.6977 60.3981 77.4566C62.4996 79.0018 63.7073 81.6455 63.6283 84.5284C63.5579 87.1125 62.4279 89.3668 60.6059 90.559L60.4861 90.637C58.3665 92.0248 55.0936 94.1667 51.6876 94.167Z" fill="#371B45"/>
<path d="M86.2245 79.2303C86.2245 81.3343 83.9252 83.04 81.0888 83.04C78.2524 83.04 75.9531 81.3343 75.9531 79.2303C75.9531 77.1264 78.2524 75.421 81.0888 75.421C83.9252 75.421 86.2245 77.1264 86.2245 79.2303Z" fill="#FA8385"/>
<path d="M81.0848 82.4775C78.5631 82.4775 76.5117 81.0209 76.5117 79.2305C76.5117 79.0737 76.5273 78.9192 76.5579 78.7685C77.371 79.8909 78.9209 80.6762 80.7276 80.768C81.4148 81.3134 82.2157 81.7792 83.1024 82.1443C82.4932 82.3574 81.8083 82.4775 81.0848 82.4775Z" fill="#DF6C6E"/>
<path d="M81.085 75.9825C78.5634 75.9825 76.512 77.4394 76.512 79.2296C76.512 81.02 78.5634 82.4766 81.085 82.4766C83.6066 82.4766 85.658 81.02 85.658 79.2296C85.658 77.4394 83.6066 75.9825 81.085 75.9825ZM81.085 83.6016C77.9428 83.6016 75.3867 81.6403 75.3867 79.2296C75.3867 76.8188 77.9428 74.8576 81.085 74.8576C84.2269 74.8576 86.7833 76.8188 86.7833 79.2296C86.7833 81.6403 84.2269 83.6016 81.085 83.6016Z" fill="#371B45"/>
<path d="M97.4373 75.8788C97.4373 79.8338 93.115 83.04 87.7831 83.04C82.4512 83.04 78.1289 79.8338 78.1289 75.8788C78.1289 71.9238 82.4512 68.7175 87.7831 68.7175C93.115 68.7175 97.4373 71.9238 97.4373 75.8788Z" fill="#FA8385"/>
<path d="M87.7839 81.5996C83.4772 81.5996 79.8307 79.5093 78.5859 76.6207C78.664 76.023 78.8408 75.447 79.1046 74.9013C80.673 77.2837 83.9695 78.9254 87.7839 78.9254C91.9731 78.9254 95.5375 76.9457 96.8727 74.179C97.0705 74.4798 97.241 74.7923 97.3818 75.1147C97.384 75.1329 97.3865 75.1507 97.3888 75.1689V75.1711C96.893 78.7833 92.7826 81.5996 87.7839 81.5996Z" fill="#DF6C6E"/>
<path d="M78.1445 75.4873C78.2548 73.966 79.0057 72.5706 80.2001 71.4473C79.0057 72.5706 78.2551 73.966 78.1445 75.4873Z" fill="#E6E7EC"/>
<path d="M90.3065 68.9636C90.3055 68.9633 90.3042 68.963 90.3033 68.963C90.3042 68.9633 90.3055 68.9633 90.3065 68.9636ZM90.2794 68.9582C90.2784 68.9579 90.2765 68.9576 90.2753 68.9576C90.2768 68.9576 90.2781 68.9579 90.2794 68.9582ZM90.266 68.9557C90.2644 68.9554 90.2625 68.955 90.2612 68.9547C90.2628 68.955 90.2644 68.9554 90.266 68.9557ZM90.2526 68.9531C90.2504 68.9525 90.2488 68.9522 90.2466 68.9519C90.2485 68.9522 90.2507 68.9525 90.2526 68.9531ZM90.2389 68.9503C90.2367 68.95 90.2338 68.9493 90.2319 68.949C90.2342 68.9493 90.2367 68.95 90.2389 68.9503ZM90.2252 68.9477C90.2227 68.9471 90.2195 68.9464 90.217 68.9461C90.2198 68.9464 90.2224 68.9471 90.2252 68.9477ZM90.1978 68.9423C90.1832 68.9398 90.1692 68.9369 90.1548 68.9343C90.1692 68.9369 90.1835 68.9398 90.1978 68.9423ZM90.1536 68.934C90.1488 68.9331 90.145 68.9324 90.1402 68.9315C90.1446 68.9324 90.1488 68.9331 90.1536 68.934ZM90.1242 68.9286C90.1201 68.928 90.1156 68.927 90.1115 68.9264C90.1156 68.927 90.1201 68.9276 90.1242 68.9286ZM90.1099 68.9261C90.1058 68.9251 90.1013 68.9245 90.0968 68.9235C90.1016 68.9245 90.1054 68.9251 90.1099 68.9261ZM90.0816 68.921C90.0768 68.92 90.0723 68.919 90.0675 68.9184C90.072 68.919 90.0771 68.92 90.0816 68.921ZM90.0672 68.9181C89.3842 68.7954 88.6727 68.7266 87.9413 68.718C88.6724 68.7263 89.3842 68.7954 90.0672 68.9181ZM87.9406 68.718C87.9359 68.7177 87.9311 68.7177 87.9263 68.7177C87.9308 68.7177 87.9362 68.7177 87.9406 68.718ZM87.9241 68.7177C87.9196 68.7177 87.9155 68.7177 87.911 68.7177C87.9151 68.7177 87.9199 68.7177 87.9241 68.7177ZM87.9085 68.7174C87.9043 68.7174 87.9002 68.7174 87.896 68.7174C87.8999 68.7174 87.9046 68.7174 87.9085 68.7174ZM87.8769 68.7174C87.8734 68.7174 87.8696 68.7174 87.8658 68.7171C87.8699 68.7174 87.8731 68.7174 87.8769 68.7174ZM87.8616 68.7171C87.8581 68.7171 87.854 68.7171 87.8501 68.7171C87.8543 68.7171 87.8578 68.7171 87.8616 68.7171Z" fill="#CBEDFF"/>
<path d="M78.595 78.0781C78.328 77.4639 78.1681 76.8143 78.1353 76.1405C78.1311 76.0535 78.1289 75.9662 78.1289 75.8786C78.1289 75.7473 78.1337 75.617 78.1429 75.4877C78.2535 73.9664 79.0041 72.571 80.1985 71.4476C80.447 71.2135 80.7149 70.9917 81.0003 70.7824C81.4521 70.4517 81.9475 70.1535 82.4799 69.8936C82.7316 69.7706 82.9912 69.6562 83.2585 69.5508C84.6081 69.0187 86.1481 68.7173 87.7831 68.7173C87.7882 68.7173 87.7933 68.7173 87.7984 68.7173C87.7991 68.7173 87.8 68.7173 87.8006 68.7173C87.8051 68.7173 87.8092 68.7173 87.8137 68.7173C87.8147 68.7173 87.8159 68.7173 87.8169 68.7173C87.8207 68.7173 87.8252 68.7173 87.829 68.7173C87.8303 68.7173 87.8315 68.7173 87.8328 68.7173C87.8366 68.7173 87.8405 68.7173 87.8443 68.7173C87.8456 68.7173 87.8472 68.7173 87.8481 68.7173C87.8519 68.7173 87.8561 68.7173 87.8596 68.7173C87.8609 68.7173 87.8628 68.7173 87.8637 68.7173C87.8675 68.7176 87.8714 68.7176 87.8749 68.7176C87.8762 68.7176 87.8777 68.7176 87.879 68.7176C87.8828 68.7176 87.8867 68.7176 87.8908 68.7176C87.8918 68.7176 87.8927 68.7176 87.894 68.7176C87.8981 68.7176 87.9023 68.7176 87.9064 68.7176C87.9074 68.7176 87.908 68.718 87.909 68.718C87.9134 68.718 87.9176 68.718 87.922 68.718C87.923 68.718 87.9233 68.718 87.9243 68.718C87.929 68.718 87.9338 68.718 87.9386 68.7183C87.9389 68.7183 87.9389 68.7183 87.9392 68.7183C88.6707 68.7269 89.3821 68.7957 90.0652 68.9184C90.0655 68.9187 90.0652 68.9184 90.0655 68.9187C90.0703 68.9193 90.0747 68.9203 90.0795 68.9212C90.0798 68.9212 90.0798 68.9212 90.0802 68.9212C90.0846 68.9219 90.0891 68.9228 90.0935 68.9238C90.0939 68.9238 90.0948 68.9238 90.0948 68.9238C90.0993 68.9247 90.1037 68.9254 90.1079 68.9263C90.1085 68.9263 90.1088 68.9263 90.1095 68.9266C90.1136 68.9273 90.1181 68.9282 90.1222 68.9289C90.1228 68.9289 90.1235 68.9292 90.1238 68.9292C90.1283 68.9298 90.1327 68.9308 90.1369 68.9317C90.1372 68.9317 90.1378 68.9317 90.1381 68.9317C90.1429 68.9327 90.1467 68.9333 90.1515 68.9343C90.1515 68.9343 90.1525 68.9346 90.1528 68.9346C90.1671 68.9372 90.1811 68.94 90.1958 68.9426C90.1961 68.9429 90.1968 68.9429 90.1974 68.9429C90.2012 68.9438 90.2054 68.9445 90.2092 68.9451C90.2111 68.9458 90.213 68.9461 90.2149 68.9464C90.2175 68.9467 90.2207 68.9473 90.2232 68.948C90.2254 68.9483 90.2277 68.9489 90.2299 68.9493C90.2318 68.9496 90.2347 68.9502 90.2369 68.9505C90.2394 68.9512 90.242 68.9515 90.2445 68.9521C90.2468 68.9524 90.2484 68.9528 90.2506 68.9534C90.2535 68.9537 90.2563 68.9544 90.2592 68.955C90.2605 68.9553 90.2624 68.9556 90.264 68.9559C90.2668 68.9566 90.2703 68.9572 90.2732 68.9579C90.2745 68.9579 90.2764 68.9582 90.2774 68.9585C90.2809 68.9591 90.284 68.9598 90.2872 68.9604C90.2885 68.9607 90.2898 68.961 90.2911 68.9614C90.2942 68.962 90.2977 68.9626 90.3013 68.9633C90.3022 68.9633 90.3035 68.9636 90.3044 68.9639C90.3083 68.9645 90.3118 68.9655 90.3153 68.9661C90.3159 68.9661 90.3165 68.9665 90.3172 68.9665C90.3213 68.9674 90.3252 68.9681 90.3293 68.969H90.3296C94.1074 69.7333 96.962 72.1571 97.3829 75.1191C97.3825 75.1175 97.3816 75.1159 97.3813 75.1146C97.3188 74.6708 97.1984 74.2385 97.0302 73.8215C96.9818 73.9419 96.9289 74.061 96.8722 74.1789C95.3037 71.7978 92.0083 70.157 88.1947 70.157C84.0062 70.157 80.4409 72.1355 79.1041 74.9012C78.8766 74.5561 78.6858 74.1952 78.5348 73.8215C78.3599 74.2554 78.2385 74.7059 78.1786 75.1688V75.171C78.2474 75.6712 78.3854 76.1561 78.5854 76.6206C78.5555 76.8503 78.5402 77.0832 78.5402 77.3183C78.5402 77.5751 78.5593 77.8284 78.595 78.0781Z" fill="#FEB1BA"/>
<path d="M78.5865 76.6201C78.3864 76.1556 78.2485 75.6707 78.1797 75.1705V75.1683C78.2396 74.7054 78.361 74.2549 78.5359 73.821C78.6869 74.1947 78.8777 74.5557 79.1052 74.9007C78.8414 75.4464 78.6646 76.0224 78.5865 76.6201ZM97.3824 75.1141C97.2415 74.7917 97.0711 74.4792 96.8732 74.1784C96.93 74.0606 96.9828 73.9414 97.0313 73.821C97.1995 74.238 97.3199 74.6704 97.3824 75.1141Z" fill="#E6ADB9"/>
<path d="M87.7833 69.279C82.7702 69.279 78.6917 72.2394 78.6917 75.878C78.6917 79.5166 82.7702 82.4766 87.7833 82.4766C92.7966 82.4766 96.8749 79.5166 96.8749 75.878C96.8749 72.2394 92.7966 69.279 87.7833 69.279ZM87.7833 83.6016C82.1496 83.6016 77.5664 80.1369 77.5664 75.878C77.5664 71.6191 82.1496 68.1541 87.7833 68.1541C93.4169 68.1541 98.0001 71.6191 98.0001 75.878C98.0001 80.1369 93.4169 83.6016 87.7833 83.6016Z" fill="#371B45"/>
</g>
<defs>
<linearGradient id="paint0_linear_11117_33423" x1="80" y1="118" x2="45.5" y2="-5.5" gradientUnits="userSpaceOnUse">
<stop stop-color="white"/>
<stop offset="1" stop-color="#9D9FE6"/>
</linearGradient>
<linearGradient id="paint1_linear_11117_33423" x1="45" y1="32" x2="73.1923" y2="147" gradientUnits="userSpaceOnUse">
<stop stop-color="#EBDEF6"/>
<stop offset="1" stop-color="white"/>
</linearGradient>
<linearGradient id="paint2_linear_11117_33423" x1="73.639" y1="85.1533" x2="90.7568" y2="-9.70907" gradientUnits="userSpaceOnUse">
<stop stop-color="#C2C4FD"/>
<stop offset="0.163505" stop-color="#CFC0FF"/>
<stop offset="1" stop-color="#8E00FF"/>
</linearGradient>
<linearGradient id="paint3_linear_11117_33423" x1="72.1189" y1="41.5628" x2="112.083" y2="65.0327" gradientUnits="userSpaceOnUse">
<stop stop-color="white" stop-opacity="0"/>
<stop offset="1" stop-color="#8E00FF"/>
</linearGradient>
<linearGradient id="paint4_linear_11117_33423" x1="53.4988" y1="119.151" x2="168.121" y2="-141.273" gradientUnits="userSpaceOnUse">
<stop stop-color="#C2C4FD"/>
<stop offset="0.163505" stop-color="#CFC0FF"/>
<stop offset="1" stop-color="#8E00FF"/>
</linearGradient>
<linearGradient id="paint5_linear_11117_33423" x1="51.5209" y1="-19.1943" x2="117.624" y2="-3.27844" gradientUnits="userSpaceOnUse">
<stop stop-color="white" stop-opacity="0"/>
<stop offset="1" stop-color="#8E00FF"/>
</linearGradient>
<linearGradient id="paint6_linear_11117_33423" x1="37.8836" y1="98.0947" x2="101.52" y2="-40.0911" gradientUnits="userSpaceOnUse">
<stop stop-color="#C2C4FD"/>
<stop offset="0.163505" stop-color="#CFC0FF"/>
<stop offset="1" stop-color="#8E00FF"/>
</linearGradient>
<linearGradient id="paint7_linear_11117_33423" x1="36.8651" y1="23.5573" x2="71.0661" y2="31.4277" gradientUnits="userSpaceOnUse">
<stop stop-color="white" stop-opacity="0"/>
<stop offset="1" stop-color="#8E00FF"/>
</linearGradient>
<linearGradient id="paint8_linear_11117_33423" x1="27.6904" y1="62.3672" x2="84.3724" y2="-114.314" gradientUnits="userSpaceOnUse">
<stop stop-color="#C2C4FD"/>
<stop offset="0.163505" stop-color="#CFC0FF"/>
<stop offset="1" stop-color="#8E00FF"/>
</linearGradient>
<linearGradient id="paint9_linear_11117_33423" x1="25.9895" y1="-24.3525" x2="80.2149" y2="-6.44047" gradientUnits="userSpaceOnUse">
<stop stop-color="white" stop-opacity="0"/>
<stop offset="1" stop-color="#8E00FF"/>
</linearGradient>
<linearGradient id="paint10_linear_11117_33423" x1="77.2801" y1="56.1943" x2="134.151" y2="-120.75" gradientUnits="userSpaceOnUse">
<stop stop-color="#C2C4FD"/>
<stop offset="0.163505" stop-color="#CFC0FF"/>
<stop offset="1" stop-color="#8E00FF"/>
</linearGradient>
<linearGradient id="paint11_linear_11117_33423" x1="75.5792" y1="-30.6843" x2="129.824" y2="-12.7988" gradientUnits="userSpaceOnUse">
<stop stop-color="white" stop-opacity="0"/>
<stop offset="1" stop-color="#8E00FF"/>
</linearGradient>
<linearGradient id="paint12_linear_11117_33423" x1="53.3955" y1="72.4727" x2="136.674" y2="-201.487" gradientUnits="userSpaceOnUse">
<stop stop-color="#C2C4FD"/>
<stop offset="0.163505" stop-color="#CFC0FF"/>
<stop offset="1" stop-color="#8E00FF"/>
</linearGradient>
<linearGradient id="paint13_linear_11117_33423" x1="50.6385" y1="-60.7112" x2="137.557" y2="-30.4099" gradientUnits="userSpaceOnUse">
<stop stop-color="white" stop-opacity="0"/>
<stop offset="1" stop-color="#8E00FF"/>
</linearGradient>
<linearGradient id="paint14_linear_11117_33423" x1="60.3822" y1="76.7227" x2="98.7867" y2="-53.0896" gradientUnits="userSpaceOnUse">
<stop stop-color="#C2C4FD"/>
<stop offset="0.163505" stop-color="#CFC0FF"/>
<stop offset="1" stop-color="#8E00FF"/>
</linearGradient>
<linearGradient id="paint15_linear_11117_33423" x1="59.0459" y1="13.8969" x2="100.921" y2="28.8969" gradientUnits="userSpaceOnUse">
<stop stop-color="white" stop-opacity="0"/>
<stop offset="1" stop-color="#8E00FF"/>
</linearGradient>
<clipPath id="clip0_11117_33423">
<rect width="110" height="110" rx="55" fill="white"/>
</clipPath>
</defs>
</svg>
