<svg width="98" height="98" viewBox="0 0 98 98" fill="none" xmlns="http://www.w3.org/2000/svg">
<g clip-path="url(#clip0_11354_44720)">
<rect x="0.892334" y="0.892334" width="96.2154" height="96.2154" rx="48.1077" fill="white"/>
<g opacity="0.8" filter="url(#filter0_f_11354_44720)">
<path d="M82.9523 -27.0415C115.851 -61.1218 95.2061 69.6436 65.4158 89.6283C35.6255 109.613 -4.7726 101.593 -24.816 71.7154C-44.8593 41.8376 -36.9579 1.41615 -7.16761 -18.5685C22.6227 -38.5532 51.8357 20.2939 82.9523 -27.0415Z" fill="#FCEBE9"/>
<path d="M82.9523 -27.0415C115.851 -61.1218 95.2061 69.6436 65.4158 89.6283C35.6255 109.613 -4.7726 101.593 -24.816 71.7154C-44.8593 41.8376 -36.9579 1.41615 -7.16761 -18.5685C22.6227 -38.5532 51.8357 20.2939 82.9523 -27.0415Z" fill="url(#paint0_linear_11354_44720)" fill-opacity="0.2"/>
</g>
<g filter="url(#filter1_f_11354_44720)">
<ellipse cx="59.8923" cy="62.3923" rx="55.5" ry="33" transform="rotate(90 59.8923 62.3923)" fill="#FFF4D9"/>
</g>
<g opacity="0.5" filter="url(#filter2_ddddd_11354_44720)">
<path d="M13.2653 79.0799C13.2902 79.0695 13.317 79.0642 13.344 79.0643L140.269 79.8239C140.379 79.8245 140.468 79.9139 140.468 80.0239V90.2785C140.468 90.3889 140.378 90.4785 140.268 90.4785H-12.8764C-13.0947 90.4785 -13.1551 90.1786 -12.9539 90.0941L13.2653 79.0799Z" fill="#F1D6BC"/>
<path d="M13.2653 79.0799C13.2902 79.0695 13.317 79.0642 13.344 79.0643L140.269 79.8239C140.379 79.8245 140.468 79.9139 140.468 80.0239V90.2785C140.468 90.3889 140.378 90.4785 140.268 90.4785H-12.8764C-13.0947 90.4785 -13.1551 90.1786 -12.9539 90.0941L13.2653 79.0799Z" fill="url(#paint1_linear_11354_44720)"/>
<path d="M-13.3301 90.4789H139.935C139.935 91.3194 139.253 92.0008 138.413 92.0008H-11.8082C-12.6487 92.0008 -13.3301 91.3194 -13.3301 90.4789Z" fill="#C29FF9"/>
<path d="M-13.3301 90.4789H139.935C139.935 91.3194 139.253 92.0008 138.413 92.0008H-11.8082C-12.6487 92.0008 -13.3301 91.3194 -13.3301 90.4789Z" fill="url(#paint2_linear_11354_44720)"/>
</g>
<path d="M30.1139 44.9063C30.4718 44.1227 30.8099 43.4747 30.9341 43.2487L65.8324 44.7556C65.9815 44.4542 66.2947 44.1227 66.3544 45.2076C66.4289 46.5639 68.2932 48.5982 68.2932 48.8996C70.0828 51.386 71.4251 55.2286 71.4251 55.4546C72.1409 59.7342 69.7348 62.2608 68.4423 62.9891C68.9643 60.4274 67.7712 58.2424 67.622 58.2424C67.5475 60.2014 67.0255 63.8933 65.7578 65.4002C64.7437 66.6057 63.1479 67.6605 62.4768 68.0373C63.2523 64.1193 62.6508 62.5371 62.2531 62.2357C62.3724 63.622 61.9051 65.576 61.6565 66.3797L33.9169 67.8112C32.1869 66.7865 30.5116 65.3751 29.8901 64.7974C27.9215 62.3864 28.3242 57.514 28.7716 55.3793C27.7575 56.4642 27.3548 59.0963 27.2803 60.2767C23.8501 58.9205 25.5652 51.1599 26.9074 49.7284C28.2497 48.2968 29.6665 45.8857 30.1139 44.9063Z" fill="#6E483E"/>
<path d="M30.1139 44.9063C30.4718 44.1227 30.8099 43.4747 30.9341 43.2487L65.8324 44.7556C65.9815 44.4542 66.2947 44.1227 66.3544 45.2076C66.4289 46.5639 68.2932 48.5982 68.2932 48.8996C70.0828 51.386 71.4251 55.2286 71.4251 55.4546C72.1409 59.7342 69.7348 62.2608 68.4423 62.9891C68.9643 60.4274 67.7712 58.2424 67.622 58.2424C67.5475 60.2014 67.0255 63.8933 65.7578 65.4002C64.7437 66.6057 63.1479 67.6605 62.4768 68.0373C63.2523 64.1193 62.6508 62.5371 62.2531 62.2357C62.3724 63.622 61.9051 65.576 61.6565 66.3797L33.9169 67.8112C32.1869 66.7865 30.5116 65.3751 29.8901 64.7974C27.9215 62.3864 28.3242 57.514 28.7716 55.3793C27.7575 56.4642 27.3548 59.0963 27.2803 60.2767C23.8501 58.9205 25.5652 51.1599 26.9074 49.7284C28.2497 48.2968 29.6665 45.8857 30.1139 44.9063Z" fill="url(#paint3_linear_11354_44720)"/>
<path d="M38.3919 60.4268C39.585 57.7144 41.6232 56.5842 42.4932 56.3582L43.1643 56.5842L42.1204 71.0505L40.5544 71.2012C40.5047 70.9249 39.764 70.3272 37.1988 70.1464C33.9923 69.9203 33.7686 68.112 33.5449 68.112C35.5583 66.6051 36.9005 63.8173 38.3919 60.4268Z" fill="#FFA1AB"/>
<path d="M38.3919 60.4268C39.585 57.7144 41.6232 56.5842 42.4932 56.3582L43.1643 56.5842L42.1204 71.0505L40.5544 71.2012C40.5047 70.9249 39.764 70.3272 37.1988 70.1464C33.9923 69.9203 33.7686 68.112 33.5449 68.112C35.5583 66.6051 36.9005 63.8173 38.3919 60.4268Z" fill="url(#paint4_linear_11354_44720)"/>
<path d="M59.934 62.0102C58.204 57.8511 56.3298 56.6607 55.609 56.5853L55.1616 56.8114L54.4905 66.6063L56.7275 71.2023C57.2744 70.7754 58.7409 69.9667 60.2323 70.1475C61.7237 70.3283 62.8422 69.7205 63.215 69.394C62.0965 68.0378 62.0965 67.209 59.934 62.0102Z" fill="#FFA1AB"/>
<path d="M59.934 62.0102C58.204 57.8511 56.3298 56.6607 55.609 56.5853L55.1616 56.8114L54.4905 66.6063L56.7275 71.2023C57.2744 70.7754 58.7409 69.9667 60.2323 70.1475C61.7237 70.3283 62.8422 69.7205 63.215 69.394C62.0965 68.0378 62.0965 67.209 59.934 62.0102Z" fill="url(#paint5_linear_11354_44720)"/>
<path d="M50.4757 74.5844L57.858 73.3036L64.793 78.0503L60.468 82.7971L48.2386 84.1533L35.1145 79.4819L38.7684 73.0022L50.4757 74.5844Z" fill="url(#paint6_linear_11354_44720)"/>
<path d="M41.4487 67.7381C42.4628 64.4832 42.5672 58.7971 42.4927 56.361L44.1332 56.0596H53.678L55.5423 56.587C55.1843 58.5761 55.1943 61.7858 55.244 63.142C55.6019 67.5422 56.6857 71.3044 57.1828 72.6355C54.722 73.6904 48.9056 74.9712 46.3703 74.1425C44.342 73.4794 41.4487 72.8616 40.2556 72.6355C40.2307 72.3593 40.4346 70.993 41.4487 67.7381Z" fill="#FDEAEA"/>
<path d="M45.2488 54.9284C45.3085 55.5914 44.5777 56.0083 44.2048 56.1339C44.6522 57.4148 45.2488 57.9422 48.8281 58.2436C51.6916 58.4847 53.1531 56.9376 53.526 56.1339C52.8101 56.0736 52.5814 55.2549 52.5566 54.853C50.1455 54.8781 45.3085 54.9284 45.2488 54.9284Z" fill="#FE9D84"/>
<path d="M45.2488 54.9284C45.3085 55.5914 44.5777 56.0083 44.2048 56.1339C44.6522 57.4148 45.2488 57.9422 48.8281 58.2436C51.6916 58.4847 53.1531 56.9376 53.526 56.1339C52.8101 56.0736 52.5814 55.2549 52.5566 54.853C50.1455 54.8781 45.3085 54.9284 45.2488 54.9284Z" fill="url(#paint7_linear_11354_44720)"/>
<path d="M67.0974 41.2915C66.7991 39.423 65.4817 38.8554 64.8603 38.8051L62.2504 37.901L60.8336 45.4355C60.8087 46.0885 61.0722 47.4548 62.325 47.6959C63.5777 47.937 65.084 46.7917 65.6806 46.189C66.2771 45.3351 67.3957 43.1601 67.0974 41.2915Z" fill="#FE9B84"/>
<path fill-rule="evenodd" clip-rule="evenodd" d="M63.9162 40.4394C63.9122 40.4332 63.9003 40.4145 63.9003 40.3889H64.0495C64.0495 40.3772 64.0465 40.3686 64.0449 40.3645C64.0431 40.3602 64.0414 40.3574 64.0409 40.3566C64.0406 40.3562 64.0404 40.356 64.0404 40.356C64.0404 40.356 64.0413 40.3571 64.0436 40.3596C64.0502 40.3667 64.0613 40.3773 64.0782 40.3924C64.0921 40.4049 64.1085 40.4191 64.1275 40.4356C64.1311 40.4388 64.1348 40.442 64.1386 40.4453C64.1621 40.4658 64.1888 40.4891 64.2178 40.5151C64.3337 40.619 64.4867 40.7662 64.6306 40.9552C64.9187 41.3337 65.1725 41.8835 65.0171 42.5903L64.976 42.7771L64.88 42.6122C64.7597 42.4055 64.5229 42.0923 64.2073 41.8318C63.8915 41.5709 63.5038 41.3684 63.0801 41.3684V41.2177C63.5512 41.2177 63.9713 41.4422 64.3017 41.7151C64.5573 41.9261 64.7634 42.1695 64.903 42.3709C64.9687 41.8107 64.7569 41.3683 64.5124 41.0471C64.3766 40.8687 64.2313 40.7286 64.1188 40.6278C64.0907 40.6025 64.0647 40.5798 64.0413 40.5594C64.0376 40.5563 64.034 40.5531 64.0304 40.55C64.0115 40.5335 63.9941 40.5185 63.9794 40.5053C63.9622 40.4899 63.9464 40.4752 63.9345 40.4624C63.9287 40.456 63.9219 40.4481 63.9162 40.4394Z" fill="#FE4D6E"/>
<path d="M62.5481 44.8339C63.1446 44.6531 64.0395 43.5531 64.4123 43.0256C64.5913 44.1709 63.2441 45.1604 62.5481 45.512V44.8339Z" fill="#FE4D6E"/>
<path d="M47.5586 82.2793C46.5444 81.9177 45.1475 81.1743 44.5758 80.8478C44.1284 81.0738 43.2038 81.5259 43.0844 81.5259C42.9651 81.5259 42.9353 82.7816 42.9353 83.4095L48.1551 84.163L50.0194 82.8068C49.6217 82.7816 48.5727 82.641 47.5586 82.2793Z" fill="#FE9B84"/>
<path d="M47.5586 82.2793C46.5444 81.9177 45.1475 81.1743 44.5758 80.8478C44.1284 81.0738 43.2038 81.5259 43.0844 81.5259C42.9651 81.5259 42.9353 82.7816 42.9353 83.4095L48.1551 84.163L50.0194 82.8068C49.6217 82.7816 48.5727 82.641 47.5586 82.2793Z" fill="url(#paint8_linear_11354_44720)"/>
<path d="M66.5028 80.2375V79.258L62.4015 77.9771C59.8363 77.9168 54.87 80.2124 52.7075 81.3677C53.8261 81.5937 54.4226 83.2513 54.4226 83.5527C54.4226 83.8541 54.9446 85.361 55.1683 85.813C55.392 86.2651 55.392 86.8679 55.392 86.9432C57.4203 87.3049 60.413 86.5916 61.6558 86.1898C67.0844 84.5623 67.149 81.5435 66.5028 80.2375Z" fill="url(#paint9_linear_11354_44720)"/>
<path d="M35.0432 78.9125C37.847 78.1892 42.6741 79.8669 44.7372 80.7962C42.5896 82.1222 43.7429 85.3671 44.5881 86.8238C44.2152 87.075 42.351 87.5019 37.8769 87.2005C33.4027 86.8992 32.1848 83.8602 32.135 82.3784C31.9362 81.5245 32.2394 79.6358 35.0432 78.9125Z" fill="url(#paint10_linear_11354_44720)"/>
<path d="M28.1301 79.9322C27.981 80.3089 28.5776 80.4596 28.9504 80.535C29.3232 80.6103 29.0995 80.6856 29.1741 80.761C28.5776 80.761 28.8758 80.9871 28.8013 81.0624C29.5171 81.7857 30.8395 81.5647 31.4112 81.3638C34.2746 80.2788 37.0287 77.7472 38.0478 76.617C39.5392 75.4115 40.2103 72.2972 40.3595 70.8908C38.7438 70.3131 35.4826 69.2482 35.3633 69.6099C35.2142 70.062 35.3633 70.514 35.3633 71.0414C35.3633 71.4634 34.9159 72.1214 34.6922 72.3977C34.1951 73.2265 33.1113 75.0498 32.7534 75.7129C32.3955 76.3759 31.7094 76.9435 31.4112 77.1444C30.8146 77.0691 30.0689 77.1444 29.6961 77.2951C29.3978 77.4156 28.9255 77.5462 28.7267 77.5965C28.3688 78.1992 29.5718 78.2997 30.2181 78.2746C30.8146 78.576 30.6158 78.8522 30.4418 78.9527C29.7856 79.0732 29.1244 78.6011 28.8758 78.3499C28.2047 78.0485 28.503 78.576 28.7267 78.8773C28.9057 79.1185 28.6521 78.9778 28.503 78.8773C27.981 78.802 27.981 79.1787 28.5776 79.5554C29.0548 79.8568 28.8758 79.9322 28.7267 79.9322C28.2793 79.7815 28.2047 79.8568 28.1301 79.9322Z" fill="url(#paint11_linear_11354_44720)"/>
<path d="M28.1301 79.9322C27.981 80.3089 28.5776 80.4596 28.9504 80.535C29.3232 80.6103 29.0995 80.6856 29.1741 80.761C28.5776 80.761 28.8758 80.9871 28.8013 81.0624C29.5171 81.7857 30.8395 81.5647 31.4112 81.3638C34.2746 80.2788 37.0287 77.7472 38.0478 76.617C39.5392 75.4115 40.2103 72.2972 40.3595 70.8908C38.7438 70.3131 35.4826 69.2482 35.3633 69.6099C35.2142 70.062 35.3633 70.514 35.3633 71.0414C35.3633 71.4634 34.9159 72.1214 34.6922 72.3977C34.1951 73.2265 33.1113 75.0498 32.7534 75.7129C32.3955 76.3759 31.7094 76.9435 31.4112 77.1444C30.8146 77.0691 30.0689 77.1444 29.6961 77.2951C29.3978 77.4156 28.9255 77.5462 28.7267 77.5965C28.3688 78.1992 29.5718 78.2997 30.2181 78.2746C30.8146 78.576 30.6158 78.8522 30.4418 78.9527C29.7856 79.0732 29.1244 78.6011 28.8758 78.3499C28.2047 78.0485 28.503 78.576 28.7267 78.8773C28.9057 79.1185 28.6521 78.9778 28.503 78.8773C27.981 78.802 27.981 79.1787 28.5776 79.5554C29.0548 79.8568 28.8758 79.9322 28.7267 79.9322C28.2793 79.7815 28.2047 79.8568 28.1301 79.9322Z" fill="url(#paint12_linear_11354_44720)"/>
<path d="M48.3102 83.184C49.205 83.0634 51.8646 81.9785 53.0826 81.451C55.5881 81.873 55.7174 85.3439 55.4688 87.0266C55.1705 87.5691 53.6543 87.4033 52.9334 87.2526C51.1438 87.102 47.7882 87.4033 47.7882 87.554C47.7882 87.6746 47.1916 87.9559 46.8934 88.0814C45.5809 88.202 43.2643 86.675 42.2701 85.8964C41.8475 85.5197 41.0472 84.5703 41.2261 83.7868C41.4498 82.8073 42.8666 82.958 44.6563 83.3347C46.4459 83.7114 47.1916 83.3347 48.3102 83.184Z" fill="#FEB99F"/>
<path d="M48.3102 83.184C49.205 83.0634 51.8646 81.9785 53.0826 81.451C55.5881 81.873 55.7174 85.3439 55.4688 87.0266C55.1705 87.5691 53.6543 87.4033 52.9334 87.2526C51.1438 87.102 47.7882 87.4033 47.7882 87.554C47.7882 87.6746 47.1916 87.9559 46.8934 88.0814C45.5809 88.202 43.2643 86.675 42.2701 85.8964C41.8475 85.5197 41.0472 84.5703 41.2261 83.7868C41.4498 82.8073 42.8666 82.958 44.6563 83.3347C46.4459 83.7114 47.1916 83.3347 48.3102 83.184Z" fill="url(#paint13_linear_11354_44720)"/>
<path d="M62.2519 69.6233C62.1774 69.8494 62.0879 70.4371 62.3265 70.9795C62.5651 71.522 63.619 72.8632 64.1162 73.4659C64.6133 74.2445 65.6821 75.8468 65.9804 76.0277C66.055 76.0277 67.3226 75.9523 67.9937 76.4044C68.4412 76.4798 69.2912 76.7058 69.1123 77.0072C68.9333 77.3085 68.2423 77.183 67.9192 77.0825C67.4966 77.1076 66.7857 77.3085 67.3226 77.9113C67.5215 77.9615 68.0236 77.9867 68.4412 77.6853C68.9631 77.3085 69.4851 77.0825 69.4106 77.5346C69.3509 77.8962 68.988 77.9867 68.814 77.9867V78.062C69.1371 77.9364 69.7685 77.7908 69.7088 78.2127C69.6582 78.5708 69.21 78.7372 68.8933 78.7946C69.2367 78.7544 69.7321 78.7354 69.7834 78.8908C69.858 79.1168 69.0377 79.4182 68.5903 79.3429C68.5157 79.4182 68.5008 79.6141 69.0377 79.7949C69.0874 79.9708 68.9333 80.3073 67.9192 80.247C66.905 80.1867 66.4527 80.2219 66.3532 80.247L66.326 80.2338C65.6796 79.9204 63.8626 79.0393 61.6554 77.6853C59.5674 76.4044 58.3495 75.0482 58.0761 74.5961C57.8026 74.0185 57.0918 72.5919 56.7338 71.2056C56.6593 70.9544 56.5399 70.4521 56.6593 70.4521C56.8084 70.4521 58.8218 69.6233 58.8963 69.6233C58.9709 69.6233 61.9537 69.0959 62.2519 69.6233Z" fill="#FEB99F"/>
<path d="M62.2519 69.6233C62.1774 69.8494 62.0879 70.4371 62.3265 70.9795C62.5651 71.522 63.619 72.8632 64.1162 73.4659C64.6133 74.2445 65.6821 75.8468 65.9804 76.0277C66.055 76.0277 67.3226 75.9523 67.9937 76.4044C68.4412 76.4798 69.2912 76.7058 69.1123 77.0072C68.9333 77.3085 68.2423 77.183 67.9192 77.0825C67.4966 77.1076 66.7857 77.3085 67.3226 77.9113C67.5215 77.9615 68.0236 77.9867 68.4412 77.6853C68.9631 77.3085 69.4851 77.0825 69.4106 77.5346C69.3509 77.8962 68.988 77.9867 68.814 77.9867V78.062C69.1371 77.9364 69.7685 77.7908 69.7088 78.2127C69.6582 78.5708 69.21 78.7372 68.8933 78.7946C69.2367 78.7544 69.7321 78.7354 69.7834 78.8908C69.858 79.1168 69.0377 79.4182 68.5903 79.3429C68.5157 79.4182 68.5008 79.6141 69.0377 79.7949C69.0874 79.9708 68.9333 80.3073 67.9192 80.247C66.905 80.1867 66.4527 80.2219 66.3532 80.247L66.326 80.2338C65.6796 79.9204 63.8626 79.0393 61.6554 77.6853C59.5674 76.4044 58.3495 75.0482 58.0761 74.5961C57.8026 74.0185 57.0918 72.5919 56.7338 71.2056C56.6593 70.9544 56.5399 70.4521 56.6593 70.4521C56.8084 70.4521 58.8218 69.6233 58.8963 69.6233C58.9709 69.6233 61.9537 69.0959 62.2519 69.6233Z" fill="url(#paint14_linear_11354_44720)"/>
<path d="M33.048 47.6406C34.599 49.2078 36.1799 48.9968 36.7764 48.6954L36.5527 40.4828C35.8816 40.3321 34.0621 40.0609 32.1531 40.1814C30.2442 40.302 30.3635 42.2911 30.6618 43.2706C30.8109 44.0743 31.4969 46.0734 33.048 47.6406Z" fill="#FE9B84"/>
<path d="M32.3468 42.3466C32.7644 41.5027 33.4653 41.3922 33.7636 41.4424C32.2722 42.648 33.2416 43.4516 33.9127 43.7028L33.7636 44.0041C33.4158 43.7942 32.72 43.3647 32.7196 43.326C32.7196 44.1096 33.167 45.1594 33.3907 45.5864C32.7196 45.5111 31.8248 43.4014 32.3468 42.3466Z" fill="#FE4D6E"/>
<path d="M35.4141 45.2862V39.0326L36.8309 26.902H61.3641L62.7063 36.4708L62.4826 46.7931C62.1098 49.807 58.8287 55.8044 48.6873 55.6839C38.546 55.5633 35.6129 48.7019 35.4141 45.2862Z" fill="url(#paint15_linear_11354_44720)"/>
<path d="M56.6569 38.8067C57.3728 39.0478 57.3529 38.6058 57.2535 38.3547C56.2394 37.5711 55.5384 38.0282 55.3147 38.3547C55.9112 38.2341 56.4581 38.6058 56.6569 38.8067Z" fill="#642900"/>
<path d="M42.0267 38.9366C41.3108 39.1777 41.3307 38.7357 41.4301 38.4845C42.4442 37.701 43.1452 38.158 43.3689 38.4845C42.7723 38.364 42.2255 38.7357 42.0267 38.9366Z" fill="#642900"/>
<path d="M53.3149 44.9855V45.5882C55.5818 44.6841 57.7394 45.0608 58.5348 45.3622V44.1567C56.5065 43.6744 54.2098 44.5083 53.3149 44.9855Z" fill="#642900"/>
<path d="M45.562 44.9855V45.5882C43.2951 44.6841 41.1376 45.0608 40.3422 45.3622V44.1567C42.3705 43.6744 44.6672 44.5083 45.562 44.9855Z" fill="#642900"/>
<path fill-rule="evenodd" clip-rule="evenodd" d="M55.6122 43.2544C56.4976 43.2595 57.363 43.4533 57.8911 43.6312L57.8439 43.7742C57.328 43.6004 56.4783 43.41 55.6114 43.4051C54.7422 43.4001 53.8713 43.5814 53.2956 44.134L53.1929 44.0248C53.8103 43.4321 54.729 43.2493 55.6122 43.2544Z" fill="#642900"/>
<path fill-rule="evenodd" clip-rule="evenodd" d="M43.2647 43.2544C42.3793 43.2595 41.5139 43.4533 40.9859 43.6312L41.033 43.7742C41.5489 43.6004 42.3986 43.41 43.2656 43.4051C44.1347 43.4001 45.0057 43.5814 45.5814 44.134L45.6841 44.0248C45.0667 43.4321 44.1479 43.2493 43.2647 43.2544Z" fill="#642900"/>
<path fill-rule="evenodd" clip-rule="evenodd" d="M48.9185 47.0068H48.9219C49.1307 47.0068 49.4024 47.1184 49.6064 47.3225C49.8132 47.5295 49.9545 47.8358 49.8903 48.2247L49.7432 48.2C49.7984 47.8656 49.6786 47.6068 49.5014 47.4296C49.3225 47.2506 49.0891 47.1588 48.9252 47.1575C48.541 47.1938 48.3058 47.3749 48.1527 47.5879C47.9967 47.805 47.925 48.0564 47.8751 48.2331L47.7317 48.1917L47.7325 48.1887C47.782 48.0136 47.8596 47.7394 48.032 47.4994C48.2078 47.2547 48.4812 47.047 48.9152 47.0071L48.9185 47.0068Z" fill="#642900"/>
<path d="M48.985 50.9991C48.463 50.9991 47.6428 50.6224 47.3445 50.0197C48.5376 50.6827 49.9295 50.2959 50.4764 50.0197C50.3272 50.4717 49.507 50.9991 48.985 50.9991Z" fill="#FE4D6E"/>
<path d="M30.5593 36.6203C30.6339 37.8509 30.7383 40.3875 30.5593 40.6889L35.8537 40.4629C37.5688 40.6136 39.0602 38.73 39.955 37.2984C40.6708 36.1531 42.0926 31.7982 42.714 29.7639C42.6892 30.5927 42.6246 32.5215 42.5649 33.6065C42.4903 34.9627 41.5955 37.0724 41.5955 37.223C43.5045 37.223 44.7771 36.8714 45.1748 36.6956C47.9189 35.6107 48.3564 31.6224 48.2321 29.7639H48.5304C48.769 30.8488 48.2819 34.7366 48.0084 36.5449C50.3946 36.8463 52.234 35.9171 52.8554 35.4148C53.3525 34.9376 54.3319 33.6818 54.2722 32.4763C54.2126 31.2708 54.4959 29.5127 54.6451 28.7844C54.5705 29.3118 55.2416 32.627 56.211 35.4148C56.9865 37.645 59.1689 39.0564 60.1632 39.4834C60.7846 39.6843 62.3555 39.9204 63.6679 39.2574C64.9803 38.5943 65.8553 39.1318 66.1287 39.4834C66.1784 37.65 66.0541 33.0791 65.1593 29.4625C64.2645 25.8459 60.9586 22.7316 59.4175 21.6266C53.8696 17.2264 46.6662 17.7337 43.758 18.5374C40.5267 19.3913 33.6763 22.3197 32.1253 27.2021C30.5742 32.0845 30.435 35.5152 30.5593 36.6203Z" fill="#6E483E"/>
<path d="M30.5593 36.6203C30.6339 37.8509 30.7383 40.3875 30.5593 40.6889L35.8537 40.4629C37.5688 40.6136 39.0602 38.73 39.955 37.2984C40.6708 36.1531 42.0926 31.7982 42.714 29.7639C42.6892 30.5927 42.6246 32.5215 42.5649 33.6065C42.4903 34.9627 41.5955 37.0724 41.5955 37.223C43.5045 37.223 44.7771 36.8714 45.1748 36.6956C47.9189 35.6107 48.3564 31.6224 48.2321 29.7639H48.5304C48.769 30.8488 48.2819 34.7366 48.0084 36.5449C50.3946 36.8463 52.234 35.9171 52.8554 35.4148C53.3525 34.9376 54.3319 33.6818 54.2722 32.4763C54.2126 31.2708 54.4959 29.5127 54.6451 28.7844C54.5705 29.3118 55.2416 32.627 56.211 35.4148C56.9865 37.645 59.1689 39.0564 60.1632 39.4834C60.7846 39.6843 62.3555 39.9204 63.6679 39.2574C64.9803 38.5943 65.8553 39.1318 66.1287 39.4834C66.1784 37.65 66.0541 33.0791 65.1593 29.4625C64.2645 25.8459 60.9586 22.7316 59.4175 21.6266C53.8696 17.2264 46.6662 17.7337 43.758 18.5374C40.5267 19.3913 33.6763 22.3197 32.1253 27.2021C30.5742 32.0845 30.435 35.5152 30.5593 36.6203Z" fill="url(#paint16_linear_11354_44720)"/>
<path d="M57.5523 73.616C57.4529 73.2896 57.2391 72.6215 57.1794 72.5612L47.7837 73.4654L40.2523 72.4105L40.0286 73.4654C40.7743 74.0179 43.5035 75.1682 48.4549 75.349C53.4062 75.5298 56.5829 74.269 57.5523 73.616Z" fill="#FFA1AB"/>
<path d="M57.5523 73.616C57.4529 73.2896 57.2391 72.6215 57.1794 72.5612L47.7837 73.4654L40.2523 72.4105L40.0286 73.4654C40.7743 74.0179 43.5035 75.1682 48.4549 75.349C53.4062 75.5298 56.5829 74.269 57.5523 73.616Z" fill="url(#paint17_linear_11354_44720)"/>
</g>
<defs>
<filter id="filter0_f_11354_44720" x="-55.895" y="-52.6783" width="175.632" height="173.3" filterUnits="userSpaceOnUse" color-interpolation-filters="sRGB">
<feFlood flood-opacity="0" result="BackgroundImageFix"/>
<feBlend mode="normal" in="SourceGraphic" in2="BackgroundImageFix" result="shape"/>
<feGaussianBlur stdDeviation="10" result="effect1_foregroundBlur_11354_44720"/>
</filter>
<filter id="filter1_f_11354_44720" x="16.8923" y="-3.10767" width="86" height="131" filterUnits="userSpaceOnUse" color-interpolation-filters="sRGB">
<feFlood flood-opacity="0" result="BackgroundImageFix"/>
<feBlend mode="normal" in="SourceGraphic" in2="BackgroundImageFix" result="shape"/>
<feGaussianBlur stdDeviation="5" result="effect1_foregroundBlur_11354_44720"/>
</filter>
<filter id="filter2_ddddd_11354_44720" x="-25.3301" y="72.0643" width="268.798" height="182.937" filterUnits="userSpaceOnUse" color-interpolation-filters="sRGB">
<feFlood flood-opacity="0" result="BackgroundImageFix"/>
<feColorMatrix in="SourceAlpha" type="matrix" values="0 0 0 0 0 0 0 0 0 0 0 0 0 0 0 0 0 0 127 0" result="hardAlpha"/>
<feOffset dx="3" dy="5"/>
<feGaussianBlur stdDeviation="6"/>
<feColorMatrix type="matrix" values="0 0 0 0 0.615686 0 0 0 0 0.623529 0 0 0 0 0.901961 0 0 0 0.84 0"/>
<feBlend mode="normal" in2="BackgroundImageFix" result="effect1_dropShadow_11354_44720"/>
<feColorMatrix in="SourceAlpha" type="matrix" values="0 0 0 0 0 0 0 0 0 0 0 0 0 0 0 0 0 0 127 0" result="hardAlpha"/>
<feOffset dx="10" dy="20"/>
<feGaussianBlur stdDeviation="11"/>
<feColorMatrix type="matrix" values="0 0 0 0 0.615686 0 0 0 0 0.623529 0 0 0 0 0.901961 0 0 0 0.73 0"/>
<feBlend mode="normal" in2="effect1_dropShadow_11354_44720" result="effect2_dropShadow_11354_44720"/>
<feColorMatrix in="SourceAlpha" type="matrix" values="0 0 0 0 0 0 0 0 0 0 0 0 0 0 0 0 0 0 127 0" result="hardAlpha"/>
<feOffset dx="23" dy="45"/>
<feGaussianBlur stdDeviation="15"/>
<feColorMatrix type="matrix" values="0 0 0 0 0.835294 0 0 0 0 0.847059 0 0 0 0 0.972549 0 0 0 0.43 0"/>
<feBlend mode="normal" in2="effect2_dropShadow_11354_44720" result="effect3_dropShadow_11354_44720"/>
<feColorMatrix in="SourceAlpha" type="matrix" values="0 0 0 0 0 0 0 0 0 0 0 0 0 0 0 0 0 0 127 0" result="hardAlpha"/>
<feOffset dx="41" dy="79"/>
<feGaussianBlur stdDeviation="18"/>
<feColorMatrix type="matrix" values="0 0 0 0 0.0980392 0 0 0 0 0.219608 0 0 0 0 0 0 0 0 0.13 0"/>
<feBlend mode="normal" in2="effect3_dropShadow_11354_44720" result="effect4_dropShadow_11354_44720"/>
<feColorMatrix in="SourceAlpha" type="matrix" values="0 0 0 0 0 0 0 0 0 0 0 0 0 0 0 0 0 0 127 0" result="hardAlpha"/>
<feOffset dx="64" dy="124"/>
<feGaussianBlur stdDeviation="19.5"/>
<feColorMatrix type="matrix" values="0 0 0 0 0.0980392 0 0 0 0 0.219608 0 0 0 0 0 0 0 0 0.02 0"/>
<feBlend mode="normal" in2="effect4_dropShadow_11354_44720" result="effect5_dropShadow_11354_44720"/>
<feBlend mode="normal" in="SourceGraphic" in2="effect5_dropShadow_11354_44720" result="shape"/>
</filter>
<linearGradient id="paint0_linear_11354_44720" x1="4.27617" y1="-26.2455" x2="76.8596" y2="81.9513" gradientUnits="userSpaceOnUse">
<stop stop-color="#DCDCF8"/>
<stop offset="0.480274" stop-color="#E2C7FF"/>
<stop offset="1" stop-color="#E2C7FF"/>
</linearGradient>
<linearGradient id="paint1_linear_11354_44720" x1="63.2994" y1="79.0641" x2="63.2994" y2="90.4785" gradientUnits="userSpaceOnUse">
<stop stop-color="#E8D2F5"/>
<stop offset="1" stop-color="#A379B1"/>
</linearGradient>
<linearGradient id="paint2_linear_11354_44720" x1="61.6774" y1="80.0091" x2="62.6584" y2="92.0532" gradientUnits="userSpaceOnUse">
<stop stop-color="#DFD2F5"/>
<stop offset="1" stop-color="#160C41"/>
</linearGradient>
<linearGradient id="paint3_linear_11354_44720" x1="43.4625" y1="67.6867" x2="30.6751" y2="83.4428" gradientUnits="userSpaceOnUse">
<stop stop-color="#70483F"/>
<stop offset="0.699361" stop-color="#D68A78"/>
</linearGradient>
<linearGradient id="paint4_linear_11354_44720" x1="38.3546" y1="56.3582" x2="38.3917" y2="79.7363" gradientUnits="userSpaceOnUse">
<stop stop-color="#FF98A3"/>
<stop offset="1" stop-color="white"/>
</linearGradient>
<linearGradient id="paint5_linear_11354_44720" x1="58.8528" y1="56.5853" x2="58.8924" y2="79.6075" gradientUnits="userSpaceOnUse">
<stop stop-color="#FF98A3"/>
<stop offset="1" stop-color="white"/>
</linearGradient>
<linearGradient id="paint6_linear_11354_44720" x1="49.9537" y1="73.0022" x2="52.0111" y2="83.1553" gradientUnits="userSpaceOnUse">
<stop stop-color="#EACFFF"/>
<stop offset="1" stop-color="#9D9FE6"/>
</linearGradient>
<linearGradient id="paint7_linear_11354_44720" x1="41.9212" y1="56.5423" x2="49.2535" y2="63.7305" gradientUnits="userSpaceOnUse">
<stop stop-color="#F97267"/>
<stop offset="0.25" stop-color="#FCD5B8"/>
<stop offset="0.670478" stop-color="#FACBAB"/>
<stop offset="1" stop-color="#F97267"/>
</linearGradient>
<linearGradient id="paint8_linear_11354_44720" x1="42.1198" y1="82.8113" x2="48.594" y2="87.6348" gradientUnits="userSpaceOnUse">
<stop stop-color="#F97267"/>
<stop offset="0.25" stop-color="#FCD5B8"/>
<stop offset="0.670478" stop-color="#FACBAB"/>
<stop offset="1" stop-color="#F97267"/>
</linearGradient>
<linearGradient id="paint9_linear_11354_44720" x1="59.7445" y1="77.976" x2="59.7445" y2="87.0425" gradientUnits="userSpaceOnUse">
<stop stop-color="#9D9FE6"/>
<stop offset="1" stop-color="#EACFFF"/>
</linearGradient>
<linearGradient id="paint10_linear_11354_44720" x1="38.4117" y1="78.7363" x2="38.4117" y2="87.3042" gradientUnits="userSpaceOnUse">
<stop stop-color="#9D9FE6"/>
<stop offset="1" stop-color="#EACFFF"/>
</linearGradient>
<linearGradient id="paint11_linear_11354_44720" x1="34.2331" y1="69.5366" x2="27.9811" y2="112.993" gradientUnits="userSpaceOnUse">
<stop stop-color="#FEB99F"/>
<stop offset="0.5" stop-color="#CB947F"/>
<stop offset="1" stop-color="#986F5F"/>
</linearGradient>
<linearGradient id="paint12_linear_11354_44720" x1="25.8318" y1="80.6091" x2="41.9275" y2="69.6161" gradientUnits="userSpaceOnUse">
<stop stop-color="#F97267"/>
<stop offset="0.25" stop-color="#FCD5B8"/>
<stop offset="0.670478" stop-color="#FACBAB"/>
<stop offset="1" stop-color="#F97267"/>
</linearGradient>
<linearGradient id="paint13_linear_11354_44720" x1="39.5478" y1="85.3822" x2="52.5536" y2="95.1907" gradientUnits="userSpaceOnUse">
<stop stop-color="#F97267"/>
<stop offset="0.25" stop-color="#FCD5B8"/>
<stop offset="0.670478" stop-color="#FACBAB"/>
<stop offset="1" stop-color="#F97267"/>
</linearGradient>
<linearGradient id="paint14_linear_11354_44720" x1="52.6929" y1="70.8166" x2="70.2227" y2="82.7809" gradientUnits="userSpaceOnUse">
<stop stop-color="#F97267"/>
<stop offset="0.25" stop-color="#FCD5B8"/>
<stop offset="0.670478" stop-color="#FACBAB"/>
<stop offset="1" stop-color="#F97267"/>
</linearGradient>
<linearGradient id="paint15_linear_11354_44720" x1="32.2723" y1="43.9503" x2="67.2381" y2="55.5097" gradientUnits="userSpaceOnUse">
<stop stop-color="#F97267"/>
<stop offset="0.25" stop-color="#FCD5B8"/>
<stop offset="0.670478" stop-color="#FACBAB"/>
<stop offset="1" stop-color="#F97267"/>
</linearGradient>
<linearGradient id="paint16_linear_11354_44720" x1="44.5221" y1="40.3681" x2="37.3705" y2="70.3923" gradientUnits="userSpaceOnUse">
<stop stop-color="#70483F"/>
<stop offset="0.699361" stop-color="#D68A78"/>
</linearGradient>
<linearGradient id="paint17_linear_11354_44720" x1="36.775" y1="75.1327" x2="38.6939" y2="63.6768" gradientUnits="userSpaceOnUse">
<stop stop-color="#F97267"/>
<stop offset="0.25" stop-color="#FCD5B8"/>
<stop offset="0.670478" stop-color="#FACBAB"/>
<stop offset="1" stop-color="#F97267"/>
</linearGradient>
<clipPath id="clip0_11354_44720">
<rect x="0.892334" y="0.892334" width="96.2154" height="96.2154" rx="48.1077" fill="white"/>
</clipPath>
</defs>
</svg>
