<svg width="83" height="57" viewBox="0 0 83 57" fill="none" xmlns="http://www.w3.org/2000/svg">
<path d="M5.60404 41.52C8.56297 46.0356 17.0362 55.3726 33.8508 55.0359C45.7267 54.7981 56.5864 46.4104 59.1799 47.9176C60.0189 48.4056 60.3361 52.4332 65.9389 53.3732C70.8838 54.202 76.7728 50.7767 75.8452 41.8484C75.8452 41.8484 76.0655 41.7949 76.4135 41.6621C77.6397 41.1926 80.4772 39.7543 81.2504 36.2446C82.2439 31.73 77.9918 26.9632 71.414 29.3877C70.9095 29.5689 69.8532 26.6903 63.0242 25.3282C58.7649 24.4809 54.4851 25.2047 52.3838 26.1807C52.5454 25.3941 54.0321 18.1502 49.9613 12.0892C49.9613 12.0892 44.8104 2.8531 33.5708 0.546898C22.3312 -1.76033 12.8305 4.46744 12.8305 4.46744C9.40412 6.15488 6.05602 10.2751 3.90528 15.5094C0.753823 23.1641 0.161831 33.2043 5.60404 41.52Z" fill="url(#paint0_linear_11185_27175)"/>
<path d="M5.60404 41.52C8.56297 46.0356 17.0362 55.3726 33.8508 55.0359C45.7267 54.7981 56.5864 46.4104 59.1799 47.9176C60.0189 48.4056 60.3361 52.4332 65.9389 53.3732C70.8838 54.202 76.7728 50.7767 75.8452 41.8484C75.8452 41.8484 76.0655 41.7949 76.4135 41.6621C77.6397 41.1926 80.4772 39.7543 81.2504 36.2446C82.2439 31.73 77.9918 26.9632 71.414 29.3877C70.9095 29.5689 69.8532 26.6903 63.0242 25.3282C58.7649 24.4809 54.4851 25.2047 52.3838 26.1807C52.5454 25.3941 54.0321 18.1502 49.9613 12.0892C49.9613 12.0892 44.8104 2.8531 33.5708 0.546898C22.3312 -1.76033 12.8305 4.46744 12.8305 4.46744C9.40412 6.15488 6.05602 10.2751 3.90528 15.5094C0.753823 23.1641 0.161831 33.2043 5.60404 41.52Z" fill="url(#paint1_linear_11185_27175)" fill-opacity="0.2"/>
<path d="M43.9336 11.2697C39.5879 8.80697 39.5395 6.99496 32.519 5.55359C30.4784 5.13559 28.968 4.97704 27.7295 4.97704C24.7047 4.97704 23.3014 5.9201 19.7793 6.31236C19.7793 6.31236 23.776 2.00884 30.1922 2.00884C31.1383 2.00884 32.137 2.10252 33.183 2.3177C41.3227 3.98866 43.9336 11.2697 43.9336 11.2697Z" fill="#DADDE4"/>
<path d="M41.193 34.7876C37.2962 34.7876 35.755 31.6557 35.409 28.5238C35.0621 25.3919 35.9115 22.26 36.7948 22.26C36.7969 22.26 36.7989 22.26 36.8 22.26C38.4102 22.2816 40.3807 30.4501 46.9163 30.4491C48.1219 30.448 49.4851 30.1701 51.0273 29.5111C54.1325 28.1851 56.7444 27.8103 58.6954 27.8103C60.5291 27.8103 61.779 28.1418 62.3051 28.3261C63.5642 28.7668 64.811 29.5431 64.5731 30.3018C64.394 30.8702 63.486 30.9258 62.0631 30.9258C61.8901 30.9258 61.7089 30.9258 61.5205 30.9247C61.3321 30.9237 61.1355 30.9227 60.9337 30.9227C60.282 30.9227 59.5603 30.9319 58.7809 30.9762C54.3651 31.2295 45.372 34.0545 43.1904 34.5477C42.4645 34.7114 41.8005 34.7876 41.193 34.7876Z" fill="#DADDE4"/>
<path d="M78.1567 35.5397C76.8461 34.7047 75.5241 34.4267 74.3041 34.4267C73.0892 34.4267 71.9752 34.7016 71.0723 34.9765C70.1694 35.2524 69.4775 35.5273 69.1079 35.5273C68.9854 35.5273 68.8979 35.4964 68.8495 35.4254C68.3317 34.6512 71.6571 31.6192 74.8302 31.6192C75.7629 31.6192 76.6834 31.8817 77.4885 32.5406C78.9463 33.7349 78.1567 35.5397 78.1567 35.5397Z" fill="#DADDE4"/>
<path d="M5.60404 41.52C8.56297 46.0356 17.0362 55.3726 33.8508 55.0359C45.7267 54.7981 56.5864 46.4104 59.1799 47.9176C60.0189 48.4056 60.3361 52.4332 65.9389 53.3732C70.8838 54.202 76.7728 50.7767 75.8452 41.8484C75.8452 41.8484 76.0655 41.7949 76.4135 41.6621L73.5205 41.9184C73.5205 41.9184 73.7655 50.159 68.5776 50.2341C61.1072 50.3474 62.1172 40.6325 60.3762 39.4434C57.6623 37.5912 51.4448 45.004 36.5781 47.1074C19.5699 49.5093 -0.481639 35.2758 3.90528 15.5094C0.753823 23.1641 0.161831 33.2043 5.60404 41.52Z" fill="#9D9FE6"/>
<path d="M12.8319 4.46931C8.50986 7.55179 6.10174 12.4278 4.50799 17.3222C-0.681976 33.5047 7.55031 48.3004 23.9325 52.5937C35.6488 55.4641 43.3746 52.3579 53.9079 47.6405C55.337 47.0773 56.5107 46.5224 58.1744 46.3741C58.6552 46.3721 59.2122 46.3484 59.9535 46.7911C60.669 47.3594 60.6515 47.5808 60.9738 48.1285C61.7295 49.7439 62.7405 50.9258 64.4269 51.5569C67.5505 52.8541 71.5442 51.8823 73.2903 48.8646C74.4702 46.9363 74.7399 44.4396 74.4877 41.9893C74.4187 41.3118 74.8562 40.6982 75.4946 40.5283C75.6222 40.5016 75.8014 40.4295 75.9898 40.3605C77.1964 39.8849 78.3248 39.0581 79.0465 37.9915C81.9396 33.5943 77.9995 28.9624 73.0442 30.3203C72.3143 30.4614 71.4042 31.0153 70.6917 30.6066C70.3252 30.4099 70.1502 30.2472 69.935 30.0362C66.3223 26.5326 60.0585 25.7543 55.2443 26.7076C54.4258 26.8775 53.6259 27.1184 52.9443 27.4252C52.2545 27.7341 51.4453 27.4263 51.1364 26.7365C51.0149 26.4657 50.9892 26.1754 51.0448 25.9046C51.3794 24.8318 51.6079 23.6777 51.75 22.5184C52.1711 18.9613 51.7119 15.3198 49.9617 12.0911C52.3544 15.0212 53.5507 18.8038 53.7988 22.5627C53.8812 23.8455 53.8729 25.1324 53.7216 26.4544L51.8066 24.9409C52.7806 24.5034 53.7278 24.2357 54.6832 24.0329C60.3807 22.9107 67.4877 23.8743 71.8242 28.0605C71.8983 28.1325 71.9735 28.2015 71.9869 28.2108C71.9869 28.2149 71.9838 28.1984 71.852 28.1325C71.7861 28.1037 71.6708 28.0512 71.4608 28.0306C71.3228 28.0141 71.0819 28.045 70.9429 28.1027C71.4248 27.9328 71.9127 27.7773 72.4193 27.6589C81.6132 25.4114 86.6621 36.1744 79.0599 41.7885C78.1477 42.4145 77.2582 42.8706 76.1751 43.1753L77.2067 41.7072C77.7472 46.0807 76.4387 51.2172 72.3307 53.5337C68.3217 55.8851 62.5438 55.0749 59.6765 51.2882C59.1041 50.5346 58.7427 49.7398 58.3484 49.0191C58.3155 48.9346 58.2207 48.8955 58.4534 49.0757L58.4956 49.0983L58.5008 49.1035L58.5131 49.1097C58.5245 49.1127 58.5234 49.1158 58.5265 49.1158C58.021 49.0623 57.4084 49.2631 56.7361 49.4793C53.6506 50.5984 50.7215 52.1015 47.5711 53.2969C43.7679 54.7815 39.7248 55.9799 35.6025 56.3145C23.1964 57.2925 9.84314 51.9409 3.45065 40.8671C-1.4912 32.2775 -0.804485 21.1934 4.0272 12.7788C6.09454 9.29998 8.9361 5.88597 12.8319 4.46931Z" fill="#371B45"/>
<path d="M72.447 41.8231C72.3914 43.875 72.3471 46.2502 70.5299 47.708C69.069 48.7427 66.8802 47.9613 66.1142 46.4664C65.342 44.9993 65.2525 43.3942 65.7878 41.8345C65.8341 41.7243 65.9011 41.5688 65.968 41.47C66.1986 41.1117 66.526 40.9295 66.7721 40.8317C67.9138 40.4466 68.928 40.6669 69.9925 40.7287C71.752 40.948 73.3942 40.9387 75.1197 40.3375C77.3003 39.6384 79.2029 38.2362 80.216 36.2708C80.4754 35.7683 81.0931 35.5707 81.5966 35.8301C82.1083 36.0927 82.3029 36.7299 82.0259 37.2334C81.3732 38.4606 80.4394 39.5427 79.345 40.3797C77.2828 41.9364 74.7789 42.7652 72.2184 42.8465C70.7976 42.8269 69.2656 42.5191 68.0477 42.5088C67.7944 42.5057 67.5339 42.5387 67.4577 42.5716C67.4104 42.5963 67.5195 42.5243 67.5442 42.4512C67.0408 43.6557 67.1314 45.8487 68.5326 46.3954C69.4427 46.7228 70.0193 46.1267 70.3642 45.2268C70.7533 44.2189 70.9016 42.9659 70.9109 41.8211C70.9366 40.8203 72.4233 40.8234 72.447 41.8231Z" fill="#371B45"/>
<path d="M53.034 27.3804C51.2148 28.1278 49.0744 29.1111 46.9741 28.901C44.2798 28.7126 41.8634 26.6721 41.3013 24.0704C42.2567 26.2891 44.6123 27.751 46.9813 27.4648C48.8211 27.1817 50.1678 26.0461 51.7296 24.9774C53.4376 23.8995 54.8718 26.531 53.034 27.3804Z" fill="#371B45"/>
<path d="M43.7543 27.7401C38.6714 26.0074 32.5044 25.4782 27.8076 28.4691C26.3075 29.479 25.1225 30.9668 24.3071 32.7417C25.5776 23.8628 37.8509 22.7859 44.1507 26.9844C44.5697 27.2624 44.2218 27.9296 43.7543 27.7401Z" fill="#371B45"/>
<path d="M55.2291 26.3656C51.2159 28.3392 46.3852 31.0027 45.8128 35.8704C45.6645 37.3982 46.0568 38.9806 46.6488 40.5188C42.8539 35.7304 45.507 30.2933 50.3459 27.5763C51.8048 26.7197 53.3779 26.0835 55.0087 25.719C55.402 25.6294 55.5976 26.1988 55.2291 26.3656Z" fill="#371B45"/>
<path d="M72.2032 30.4987C70.6795 31.1164 68.4515 31.8474 67.0308 32.6392C67.9151 31.2575 69.5593 29.5464 70.6198 28.2708C72.2774 26.5916 74.3344 29.4856 72.2032 30.4987Z" fill="#371B45"/>
<path d="M59.2091 41.9002C59.517 44.7922 60.2191 47.8376 62.1567 50.0285C63.3531 51.406 61.3794 53.2108 60.1141 51.894C58.3762 48.898 58.6079 45.1484 59.2091 41.9002Z" fill="#371B45"/>
<path d="M16.541 14.2123C16.541 14.2123 22.9716 10.2022 31.2626 11.6755C39.463 13.5864 43.7943 19.8059 43.7943 19.8059" fill="url(#paint2_linear_11185_27175)"/>
<path d="M16.541 14.2123C16.541 14.2123 22.9716 10.2022 31.2626 11.6755C39.463 13.5864 43.7943 19.8059 43.7943 19.8059" fill="url(#paint3_linear_11185_27175)" fill-opacity="0.2"/>
<path d="M16.541 14.2123C20.6808 10.9312 26.2919 9.79762 31.4685 10.6717C35.3602 11.5993 38.8874 13.6811 41.5612 16.6369C42.4209 17.6119 43.2177 18.6487 43.7943 19.8059C42.8574 18.9256 41.8968 18.1133 40.8848 17.3782C33.2836 11.6261 25.3828 11.0609 16.541 14.2123Z" fill="#371B45"/>
<defs>
<linearGradient id="paint0_linear_11185_27175" x1="37.7228" y1="55.0448" x2="106.562" y2="-255.951" gradientUnits="userSpaceOnUse">
<stop stop-color="#9D9FE6"/>
<stop offset="0.163505" stop-color="#CFC0FF"/>
<stop offset="1" stop-color="#8E00FF"/>
</linearGradient>
<linearGradient id="paint1_linear_11185_27175" x1="33.5956" y1="-90.1365" x2="152.314" y2="-33.2993" gradientUnits="userSpaceOnUse">
<stop stop-color="white" stop-opacity="0"/>
<stop offset="1" stop-color="#8E00FF"/>
</linearGradient>
<linearGradient id="paint2_linear_11185_27175" x1="28.8938" y1="19.8059" x2="33.8449" y2="-29.8452" gradientUnits="userSpaceOnUse">
<stop stop-color="#9D9FE6"/>
<stop offset="0.163505" stop-color="#CFC0FF"/>
<stop offset="1" stop-color="#8E00FF"/>
</linearGradient>
<linearGradient id="paint3_linear_11185_27175" x1="27.4856" y1="-2.5097" x2="50.8683" y2="22.3397" gradientUnits="userSpaceOnUse">
<stop stop-color="white" stop-opacity="0"/>
<stop offset="1" stop-color="#8E00FF"/>
</linearGradient>
</defs>
</svg>
