<svg width="228" height="244" viewBox="0 0 228 244" fill="none" xmlns="http://www.w3.org/2000/svg">
<path d="M222.993 85.3262C217.809 96.5119 208.233 101.141 201.626 109.46C192.107 121.441 192.052 132.346 178.398 131.584C148.539 129.918 161.623 83.3884 160.05 69.4541L155.576 53.2923C168.878 37.04 190.145 27.0726 204.596 30.8858C222.079 35.4995 232.016 65.8494 222.993 85.3262Z" fill="url(#paint0_linear_11185_27058)"/>
<path d="M222.993 85.3262C217.809 96.5119 208.233 101.141 201.626 109.46C192.107 121.441 192.052 132.346 178.398 131.584C148.539 129.918 161.623 83.3884 160.05 69.4541L155.576 53.2923C168.878 37.04 190.145 27.0726 204.596 30.8858C222.079 35.4995 232.016 65.8494 222.993 85.3262Z" fill="url(#paint1_linear_11185_27058)" fill-opacity="0.2"/>
<path d="M222.993 85.3262C217.809 96.5119 208.233 101.141 201.626 109.46C192.107 121.441 192.052 132.346 178.398 131.584C148.539 129.918 161.623 83.3884 160.05 69.4541L155.576 53.2923C168.878 37.04 190.145 27.0726 204.596 30.8858C222.079 35.4995 232.016 65.8494 222.993 85.3262Z" fill="url(#paint2_linear_11185_27058)"/>
<path d="M222.993 85.3262C217.809 96.5119 208.233 101.141 201.626 109.46C192.107 121.441 192.052 132.346 178.398 131.584C148.539 129.918 161.623 83.3884 160.05 69.4541L155.576 53.2923C168.878 37.04 190.145 27.0726 204.596 30.8858C222.079 35.4995 232.016 65.8494 222.993 85.3262Z" fill="url(#paint3_linear_11185_27058)" fill-opacity="0.2"/>
<path d="M222.947 53.7443C219.212 44.5347 213.064 36.9921 205.343 34.9535C203.396 34.4392 201.321 34.194 199.156 34.194C191.143 34.194 181.895 37.5518 173.294 43.084C172.77 42.145 172.22 41.2291 171.644 40.3345C174.384 38.5241 177.23 36.9306 180.129 35.5952C186.418 32.6988 192.551 31.2096 197.973 31.2096C200.219 31.2096 202.345 31.4659 204.306 31.9828C210.845 33.7087 216.641 39.3289 220.627 47.8071C221.532 49.7312 222.305 51.7185 222.947 53.7443Z" fill="#DADDE4"/>
<path d="M156.825 53.56L161.14 69.1519C161.156 69.2091 161.168 69.2681 161.174 69.327C161.553 72.6839 161.121 77.7471 160.619 83.6091C159.461 97.1495 157.876 115.692 165.773 124.789C168.814 128.293 172.964 130.145 178.459 130.452C187.257 130.947 189.913 126.285 193.93 119.235C195.737 116.063 197.785 112.468 200.735 108.755C203.286 105.544 206.298 102.844 209.21 100.233C213.939 95.9918 218.831 91.6071 221.961 84.8497C226.809 74.3859 226.285 59.8458 220.625 47.8065C216.639 39.3283 210.843 33.7081 204.304 31.9822C197.607 30.2162 189.021 31.4978 180.127 35.5946C171.395 39.6163 163.141 45.9832 156.825 53.56ZM179.702 132.756C179.259 132.756 178.804 132.743 178.332 132.716C172.279 132.379 167.476 130.212 164.06 126.276C155.535 116.455 157.167 97.3589 158.359 83.416C158.845 77.7274 159.267 72.8061 158.93 69.6688L154.481 53.595C154.383 53.2405 154.463 52.8594 154.696 52.5749C168.521 35.6826 190.097 25.887 204.883 29.7899C212.082 31.69 218.402 37.7451 222.678 46.841C228.611 59.4622 229.138 74.7558 224.019 85.8032C220.692 92.9844 215.624 97.5272 210.724 101.921C207.751 104.587 204.942 107.105 202.511 110.166C199.67 113.742 197.667 117.257 195.9 120.357C191.975 127.247 188.835 132.756 179.702 132.756Z" fill="#371B45"/>
<path d="M222.988 85.3267C217.811 96.5133 208.232 101.144 201.621 109.459C200.034 111.457 198.711 113.427 197.541 115.317C191.708 124.754 189.777 132.218 178.397 131.582C150.532 130.034 160.06 89.4141 160.182 72.6637L161.771 72.5988C161.771 72.5988 179.768 39.9284 200.847 39.8865C215.495 39.8524 223.343 56.8386 226.334 70.784L226.338 70.7892L226.337 70.7934C226.308 71.5 226.258 72.2032 226.191 72.9021C225.796 77.2791 224.755 81.511 222.988 85.3267Z" fill="white"/>
<path d="M197.541 115.317C191.708 124.754 189.777 132.218 178.397 131.582C150.532 130.034 160.06 89.4141 160.182 72.6637L161.771 72.5988C161.771 72.5988 179.768 39.9284 200.847 39.8865C215.495 39.8524 223.343 56.8386 226.334 70.784L226.338 70.7892L226.337 70.7934C226.308 71.5 226.258 72.2032 226.191 72.9021C224.312 70.0723 207.576 49.9026 193.344 56.2345C180.444 61.9744 180.222 77.5765 179.959 95.4761C179.862 102.102 175.207 112.352 178.855 118.578C181.045 122.314 189.238 125.968 197.541 115.317Z" fill="#ADAEC4"/>
<path d="M161.3 73.7532C161.221 76.5863 160.929 80.0082 160.621 83.606C159.464 97.1473 157.879 115.692 165.776 124.789C168.818 128.293 172.968 130.145 178.462 130.451C187.262 130.94 189.916 126.285 193.932 119.235C195.739 116.063 197.787 112.468 200.737 108.754C203.287 105.545 206.299 102.845 209.211 100.235C213.942 95.9939 218.834 91.6083 221.963 84.8492C223.869 80.737 224.957 76.0412 225.199 70.8892C223.641 63.6969 217.398 41.0187 200.892 41.0187C200.879 41.0187 200.867 41.0187 200.853 41.0187C180.69 41.0597 162.942 72.8253 162.765 73.1457C162.574 73.4934 162.215 73.7156 161.819 73.7318L161.3 73.7532ZM179.705 132.754C179.262 132.754 178.807 132.741 178.336 132.715C172.282 132.377 167.48 130.212 164.064 126.275C155.538 116.455 157.17 97.3575 158.361 83.4129C158.72 79.2153 159.03 75.5901 159.052 72.6561C159.056 72.0512 159.534 71.5556 160.139 71.5309L161.095 71.4916C163.677 66.9838 180.638 38.7913 200.849 38.7511C200.863 38.7503 200.879 38.7503 200.893 38.7503C219.171 38.7503 225.822 62.9972 227.437 70.5065C227.467 70.6235 227.479 70.7448 227.471 70.8653C227.227 76.3625 226.067 81.3872 224.022 85.8018C220.696 92.9856 215.626 97.5293 210.725 101.924C207.751 104.589 204.944 107.106 202.513 110.165C199.672 113.741 197.67 117.256 195.903 120.358C191.978 127.246 188.84 132.754 179.705 132.754Z" fill="#371B45"/>
<path d="M198.137 101.035C197.925 101.035 197.766 100.974 197.671 100.849C196.687 99.5542 205.425 92.42 210.732 83.7975C214.931 76.9734 217.728 69.3206 218.963 69.3206C219.289 69.3206 219.507 69.852 219.612 71.0713C220.722 83.8556 201.71 101.037 198.137 101.035Z" fill="#ADAEC4"/>
<path d="M22.2776 44.1298C22.6351 56.4536 29.6135 64.4798 32.4107 74.7291C36.4401 89.4922 32.1954 99.5356 45.0455 104.214C73.1475 114.445 79.4486 66.5226 86.3838 54.3347L96.8612 41.2419C91.0368 21.0628 75.4167 3.52464 60.6314 1.33739C42.7447 -1.30868 21.6551 22.6733 22.2776 44.1298Z" fill="url(#paint4_linear_11185_27058)"/>
<path d="M22.2776 44.1298C22.6351 56.4536 29.6135 64.4798 32.4107 74.7291C36.4401 89.4922 32.1954 99.5356 45.0455 104.214C73.1475 114.445 79.4486 66.5226 86.3838 54.3347L96.8612 41.2419C91.0368 21.0628 75.4167 3.52464 60.6314 1.33739C42.7447 -1.30868 21.6551 22.6733 22.2776 44.1298Z" fill="url(#paint5_linear_11185_27058)" fill-opacity="0.2"/>
<path d="M22.2776 44.1298C22.6351 56.4536 29.6135 64.4798 32.4107 74.7291C36.4401 89.4922 32.1954 99.5356 45.0455 104.214C73.1475 114.445 79.4486 66.5226 86.3838 54.3347L96.8612 41.2419C91.0368 21.0628 75.4167 3.52464 60.6314 1.33739C42.7447 -1.30868 21.6551 22.6733 22.2776 44.1298Z" fill="url(#paint6_linear_11185_27058)"/>
<path d="M22.2776 44.1298C22.6351 56.4536 29.6135 64.4798 32.4107 74.7291C36.4401 89.4922 32.1954 99.5356 45.0455 104.214C73.1475 114.445 79.4486 66.5226 86.3838 54.3347L96.8612 41.2419C91.0368 21.0628 75.4167 3.52464 60.6314 1.33739C42.7447 -1.30868 21.6551 22.6733 22.2776 44.1298Z" fill="url(#paint7_linear_11185_27058)" fill-opacity="0.2"/>
<path d="M84.5949 24.8783C77.3198 14.1163 67.7044 6.16619 58.3385 4.78036C57.5012 4.65647 56.6579 4.59666 55.8078 4.59666C48.6309 4.59666 41.0686 8.86606 34.7563 15.1194C36.1439 13.5097 37.6382 11.9872 39.2282 10.574C45.3286 5.15371 51.8366 2.26844 57.8353 2.26844C58.7221 2.26844 59.5996 2.33164 60.4617 2.45894C67.3139 3.47311 74.701 8.03388 81.2619 15.3022C83.4005 17.6723 85.3887 20.2577 87.194 23.002C86.3123 23.5967 85.4451 24.2221 84.5949 24.8783Z" fill="#DADDE4"/>
<path d="M23.4087 44.0961C23.6247 51.5413 26.3926 57.4981 29.0694 63.2585C30.7184 66.8059 32.4229 70.4747 33.5028 74.4305C34.7511 79.005 35.2176 83.1163 35.6294 86.7432C36.5445 94.8062 37.1494 100.132 45.431 103.148C50.6018 105.031 55.1455 104.963 59.3227 102.94C70.1632 97.6897 76.0107 80.0209 80.2801 67.1203C82.129 61.5334 83.7259 56.7095 85.3962 53.7738C85.4253 53.7217 85.4586 53.6721 85.4962 53.626L95.6046 40.9938C92.7833 31.5425 87.704 22.4389 81.2627 15.3021C74.7018 8.03377 67.3147 3.473 60.4624 2.45883C53.7734 1.46944 46.2316 4.35132 39.229 10.5739C29.2838 19.4109 23.0743 32.5694 23.4087 44.0961ZM52.5003 106.763C49.9935 106.763 47.3739 106.269 44.6553 105.279C35.0536 101.784 34.3137 95.2598 33.3755 86.9995C32.9731 83.4529 32.5169 79.4339 31.3147 75.0278C30.2852 71.2565 28.696 67.8355 27.0128 64.2145C24.2392 58.2457 21.3711 52.0736 21.1416 44.1627C20.7885 31.9919 27.2965 18.1421 37.7227 8.87878C45.2354 2.20253 53.4282 -0.875 60.7948 0.21521C75.9227 2.45372 91.8956 19.9552 97.949 40.9271C98.0507 41.2809 97.9746 41.6628 97.7448 41.9499L87.3238 54.9717C85.779 57.7228 84.2274 62.4118 82.4332 67.8329C78.0365 81.1179 72.0147 99.3131 60.3103 104.981C57.8582 106.17 55.2472 106.763 52.5003 106.763Z" fill="#371B45"/>
<path d="M22.2774 44.1311C22.6302 56.4523 29.6109 64.4819 32.4116 74.7287C33.084 77.1902 33.524 79.5227 33.8547 81.7202C35.4977 92.6915 34.3332 100.313 45.043 104.211C71.2653 113.763 78.5088 72.6756 84.9945 57.2307L83.5592 56.5455C83.5592 56.5455 79.887 19.4271 60.5281 11.0856C47.0773 5.28428 33.1737 17.8063 24.9305 29.4457L24.9254 29.4492L24.9246 29.4534C24.6734 30.1147 24.442 30.7803 24.2275 31.4484C22.8673 35.6273 22.1567 39.9266 22.2774 44.1311Z" fill="white"/>
<path d="M33.8547 81.7202C35.4977 92.6915 34.3332 100.313 45.043 104.211C71.2653 113.763 78.5088 72.6756 84.9945 57.2307L83.5592 56.5455C83.5592 56.5455 79.887 19.4271 60.5281 11.0856C47.0773 5.28429 33.1737 17.8063 24.9305 29.4457L24.9254 29.4492L24.9246 29.4534C24.6734 30.1147 24.442 30.7803 24.2275 31.4484C27.0699 29.5884 50.3975 17.6414 60.9843 29.0681C70.5809 39.4251 64.6386 53.8524 57.8299 70.4089C55.3094 76.5375 55.5504 87.7924 49.7447 92.0772C46.2597 94.6489 37.2902 94.7805 33.8547 81.7202Z" fill="#ADAEC4"/>
<path d="M25.9333 29.9917C24.1271 34.8216 23.2779 39.5669 23.409 44.0969C23.6234 51.543 26.3922 57.5015 29.0707 63.2627C30.7188 66.8093 32.4233 70.4764 33.5033 74.4305C34.7516 79.0058 35.2181 83.1172 35.629 86.7449C36.5432 94.8062 37.1473 100.132 45.4306 103.148C50.6014 105.03 55.1451 104.962 59.3214 102.94C70.1637 97.6906 76.0112 80.02 80.2814 67.1186C81.4161 63.6899 82.4952 60.4296 83.5392 57.7938L83.0702 57.5699C82.713 57.399 82.4704 57.053 82.4311 56.6591C82.3952 56.2943 78.5949 20.1055 60.0775 12.1263C44.8915 5.57994 30.2019 23.9922 25.9333 29.9917ZM52.5008 106.763C49.994 106.763 47.3735 106.269 44.6549 105.278C35.0523 101.782 34.3124 95.259 33.376 87.0004C32.9736 83.4538 32.5173 79.4347 31.3152 75.0278C30.2856 71.259 28.6965 67.8389 27.0142 64.2188C24.2392 58.2491 21.3701 52.0744 21.1421 44.1627C21.0011 39.2952 21.9155 34.2159 23.8596 29.0639C23.9015 28.9494 23.9612 28.8426 24.0359 28.7469C28.4923 22.4653 44.1696 2.79802 60.9755 10.0433C79.5355 18.0421 84.0211 50.6365 84.6184 55.7962L85.4821 56.2097C86.0272 56.4703 86.2725 57.1136 86.0383 57.6716C84.902 60.3766 83.7588 63.8309 82.4345 67.8312C78.0378 81.117 72.0152 99.314 60.3099 104.982C57.8578 106.169 55.2477 106.763 52.5008 106.763Z" fill="#371B45"/>
<path d="M39.218 68.4249C36.3361 68.4249 24.7488 44.026 30.9953 32.3583C31.5045 31.4074 31.883 30.981 32.1701 30.981C33.4474 30.981 32.9365 39.3781 34.1455 47.5529C35.6261 57.569 40.8482 67.5688 39.4333 68.3703C39.3684 68.407 39.2966 68.4249 39.218 68.4249Z" fill="#ADAEC4"/>
<path d="M55.4407 157.891C59.8306 161.724 60.403 165.717 59.8912 168.09C59.4862 169.969 58.637 171.726 56.3745 172.896C53.9899 174.129 49.4104 174.579 45.0162 172.332C43.2237 171.414 41.0125 170.087 37.9204 170.314C37.6564 169.666 38.0623 168.933 38.8039 168.203C37.4625 167.238 35.7845 166.282 32.947 165.382C32.918 165.372 35.5119 157.679 47.8767 155.73C47.7827 153.947 48.8678 152.993 50.3921 152.907C50.9756 156.02 52.4964 155.321 55.4407 157.891Z" fill="#C4612B"/>
<path d="M56.3726 172.896C53.9897 174.129 49.4093 174.581 45.016 172.332C43.2277 171.419 41.0268 170.094 37.9493 170.311C37.939 170.31 37.9262 170.311 37.9177 170.312C37.8784 170.214 37.8527 170.114 37.8433 170.013C37.8177 169.739 37.8937 169.455 38.045 169.164C38.2141 168.848 38.4773 168.526 38.8028 168.205C37.4606 167.238 35.7825 166.281 32.9468 165.383C32.9459 165.374 32.9963 165.209 33.1219 164.933C33.1407 164.886 33.1664 164.837 33.1929 164.781C33.28 164.596 33.3953 164.377 33.538 164.126C33.5679 164.076 33.597 164.023 33.6303 163.968C33.7004 163.855 33.7721 163.736 33.8542 163.609C33.8892 163.553 33.9285 163.496 33.9678 163.439C34.2301 163.049 34.5496 162.621 34.9375 162.169C36.9607 159.811 40.8354 156.842 47.8756 155.73C47.7825 153.947 48.8667 152.993 50.3918 152.905C50.9745 156.021 52.4945 155.321 55.4405 157.891C59.0725 161.066 60.0918 164.346 60.0422 166.727L60.0448 166.733C60.0354 167.227 59.9799 167.683 59.8901 168.091C59.4835 169.969 58.6359 171.726 56.3726 172.896Z" fill="#C4612B"/>
<path d="M56.3726 172.896C53.9897 174.129 49.4093 174.581 45.016 172.332C43.2277 171.419 41.0268 170.094 37.9493 170.311C37.939 170.31 37.9262 170.311 37.9177 170.312C37.8784 170.214 37.8527 170.114 37.8433 170.013C37.8177 169.739 37.8937 169.455 38.045 169.164C38.2141 168.848 38.4773 168.526 38.8028 168.205C37.4606 167.238 35.7825 166.281 32.9468 165.383C32.9459 165.374 32.9963 165.209 33.1219 164.933C33.1407 164.886 33.1664 164.837 33.1929 164.781C33.28 164.596 33.3953 164.377 33.538 164.126C33.5679 164.076 33.597 164.023 33.6303 163.968C33.7004 163.855 33.7721 163.736 33.8542 163.609C33.8892 163.553 33.9285 163.496 33.9678 163.439C34.2301 163.049 34.5496 162.621 34.9375 162.169C36.9607 159.811 40.8354 156.842 47.8756 155.73C47.8731 155.677 47.8705 155.628 47.8705 155.577C47.8586 154.925 48.0132 154.392 48.2917 153.977C48.3122 153.947 48.331 153.919 48.3515 153.89C48.7736 153.321 49.4392 152.998 50.238 152.917C50.2884 152.913 50.3389 152.908 50.3918 152.905C50.9745 156.021 52.4945 155.321 55.4405 157.891C59.0725 161.066 60.0918 164.346 60.0422 166.727L60.0448 166.733C60.0354 167.227 59.9799 167.683 59.8901 168.091C59.7936 168.541 59.6706 168.984 59.5082 169.414C58.9964 170.776 58.0916 172.006 56.3726 172.896Z" fill="#666566"/>
<path d="M47.813 155.74C47.8301 155.681 47.8507 155.627 47.8712 155.575C47.8712 155.582 47.8721 155.589 47.8721 155.596C47.8721 155.611 47.8729 155.627 47.8729 155.642C47.8738 155.671 47.8755 155.7 47.8772 155.729C47.8558 155.733 47.8344 155.736 47.813 155.74Z" fill="#A3F2FF"/>
<path d="M47.8744 155.73C47.8727 155.701 47.871 155.672 47.8701 155.644C47.8718 155.672 47.8727 155.7 47.8744 155.73Z" fill="#DCA080"/>
<path d="M47.813 155.74C47.8344 155.736 47.8558 155.733 47.8772 155.729C47.8755 155.699 47.8746 155.671 47.8729 155.642C47.8729 155.627 47.8721 155.611 47.8721 155.596C47.8738 155.639 47.8746 155.684 47.8781 155.729C47.8567 155.732 47.8344 155.737 47.813 155.74Z" fill="#A3A3A3"/>
<path d="M59.5087 169.414C59.2609 168.554 58.9909 167.866 58.8483 166.927C58.5082 164.658 57.1762 161.602 55.0171 159.715C52.2831 157.325 50.6238 157.836 49.2585 155.012C48.3571 155.062 48.1153 154.954 47.871 155.577C47.8701 155.556 47.8701 155.536 47.8701 155.516C47.8684 154.892 48.0222 154.378 48.2922 153.976C48.3127 153.947 48.3315 153.919 48.352 153.89C48.7741 153.321 49.4396 152.997 50.2385 152.917C50.2872 152.915 50.3376 152.91 50.3906 152.908L50.3923 152.905C50.975 156.021 52.495 155.32 55.4409 157.891C58.9884 160.992 60.0427 164.192 60.0444 166.557C60.0444 166.615 60.0436 166.67 60.0427 166.727L60.0453 166.733C60.0359 167.227 59.9803 167.683 59.8906 168.091C59.7941 168.541 59.671 168.984 59.5087 169.414Z" fill="#A3A3A3"/>
<path d="M33.4421 165.546C33.3046 165.5 33.1661 165.453 33.0243 165.408C33.167 165.453 33.3063 165.499 33.4421 165.545V165.546ZM32.9448 165.382C32.944 165.382 32.9431 165.382 32.9414 165.382C32.9406 165.375 32.9654 165.296 33.0217 165.156C32.9636 165.301 32.9397 165.381 32.9423 165.382H32.9431C32.9431 165.382 32.9431 165.382 32.9431 165.382C32.944 165.382 32.9448 165.382 32.9448 165.382Z" fill="#A3F2FF"/>
<path d="M32.9478 165.381H32.947C32.9444 165.38 32.9683 165.301 33.0264 165.156C33.0521 165.092 33.0845 165.016 33.1238 164.929C33.123 164.93 33.123 164.931 33.123 164.932C32.9991 165.206 32.9478 165.369 32.9478 165.381Z" fill="#DCA080"/>
<path d="M33.1636 164.837C33.2465 164.66 33.3558 164.444 33.4951 164.199C33.3712 164.42 33.2695 164.614 33.1909 164.781C33.1815 164.801 33.1721 164.819 33.1636 164.837Z" fill="#DCA080"/>
<path d="M33.9624 163.444C33.9753 163.424 33.9881 163.404 34.0018 163.384C33.9898 163.402 33.9778 163.42 33.965 163.438C33.9641 163.44 33.9633 163.442 33.9624 163.444Z" fill="#DCA080"/>
<path d="M45.7554 156.14C45.7648 156.137 45.7742 156.135 45.7837 156.134C45.7742 156.135 45.7648 156.138 45.7554 156.14Z" fill="#DCA080"/>
<path d="M33.4457 165.545C33.3099 165.499 33.1706 165.454 33.0279 165.408C33.0015 165.4 32.975 165.391 32.9485 165.383C32.9485 165.383 32.9476 165.383 32.9468 165.383C32.9468 165.382 32.9468 165.382 32.9468 165.382C32.9468 165.372 32.9972 165.208 33.1219 164.932C33.1219 164.932 33.1219 164.931 33.1228 164.93C33.1356 164.901 33.1501 164.869 33.1655 164.838C33.1741 164.82 33.1834 164.801 33.1928 164.781C33.2714 164.615 33.3731 164.42 33.497 164.199C33.626 163.971 33.7807 163.717 33.9652 163.444C33.9661 163.442 33.9669 163.441 33.9678 163.439C33.9806 163.421 33.9926 163.403 34.0045 163.385C34.2591 163.01 34.5684 162.6 34.9392 162.168C36.2721 160.616 38.4081 158.796 41.7248 157.417C42.9107 156.925 44.247 156.488 45.7508 156.141C45.7525 156.141 45.7542 156.14 45.755 156.14C45.7644 156.138 45.7738 156.136 45.7832 156.134C45.7901 156.132 45.7977 156.13 45.8046 156.129C45.808 156.128 45.8114 156.127 45.8148 156.126C46.4505 155.981 47.1152 155.851 47.8115 155.74C47.6877 156.145 47.6586 156.666 47.6928 157.307C40.6492 158.416 36.7796 161.387 34.7538 163.744C34.1805 164.414 33.7533 165.032 33.4457 165.545Z" fill="#A3A3A3"/>
<path d="M56.3726 172.896C53.9897 174.129 49.4093 174.581 45.016 172.332C43.2277 171.419 41.0268 170.094 37.9493 170.311C37.939 170.31 37.9262 170.311 37.9177 170.312C37.8784 170.214 37.8527 170.114 37.8433 170.013C37.8177 169.739 37.8912 169.453 38.045 169.164C38.2133 168.848 38.4773 168.526 38.8028 168.205C37.4606 167.238 35.7825 166.281 32.9468 165.383C32.9459 165.374 32.9963 165.209 33.1219 164.933C33.1407 164.886 33.1664 164.837 33.1929 164.781C33.28 164.597 33.3953 164.377 33.538 164.126C33.5679 164.076 33.597 164.023 33.6303 163.968C33.7004 163.855 33.7721 163.736 33.8542 163.609C33.8892 163.553 33.9285 163.496 33.9686 163.439C34.2301 163.049 34.5496 162.621 34.9375 162.169C34.5061 163.547 34.976 164.327 36.3832 164.572C39.1975 165.065 41.7496 164.749 44.2641 166.042C42.7629 167.484 46.2506 169.452 47.4066 169.488C51.9366 169.63 53.8555 165.273 56.0949 164.753C58.993 164.082 60.0422 166.731 60.0448 166.733C60.0354 167.227 59.9799 167.683 59.8901 168.091C59.4835 169.969 58.6359 171.726 56.3726 172.896Z" fill="#515151"/>
<path d="M39.3939 169.2C41.7708 169.382 43.6282 170.351 45.0517 171.092L45.5233 171.336C49.4715 173.356 53.6486 173.046 55.8589 171.903C57.4874 171.061 58.3657 169.85 58.7963 167.855C59.0321 166.759 59.4337 162.865 54.7029 158.734C53.7246 157.879 52.93 157.425 52.2294 157.024C51.1315 156.397 50.1584 155.839 49.5902 154.249C49.1519 154.506 48.9545 154.977 48.9913 155.671C49.0212 156.244 48.6145 156.746 48.048 156.836C39.047 158.253 35.5892 162.734 34.476 164.721C36.958 165.624 38.4284 166.557 39.4554 167.296C39.7228 167.489 39.8911 167.789 39.9168 168.118C39.9415 168.446 39.8211 168.769 39.5861 169.001C39.5143 169.071 39.4502 169.138 39.3939 169.2ZM51.5511 175.049C49.351 175.049 46.8972 174.552 44.5049 173.327L44.0187 173.076C42.3714 172.217 40.5063 171.244 38.0003 171.43C37.5176 171.466 37.0656 171.185 36.8828 170.736C36.6641 170.199 36.5855 169.417 37.1682 168.454C36.1386 167.817 34.7468 167.127 32.6065 166.448C32.1127 166.291 31.7906 165.814 31.8299 165.297C31.8359 165.216 34.2008 157.113 46.8126 154.777C47.1073 153.058 48.4257 151.898 50.3267 151.79C50.8889 151.753 51.3862 152.148 51.4895 152.701C51.7672 154.183 52.1637 154.41 53.3393 155.082C54.092 155.513 55.0276 156.048 56.1742 157.049C61.8269 161.985 61.2835 166.929 60.9827 168.326C60.6239 169.99 59.8088 172.377 56.8859 173.889C55.5223 174.595 53.652 175.049 51.5511 175.049Z" fill="#371B45"/>
<path d="M48.9368 155.388C49.041 156.815 49.1239 158.303 49.6246 159.66C48.4677 158.659 47.6424 157.345 46.8076 156.072L48.9368 155.388Z" fill="#371B45"/>
<path d="M38.1562 167.291C40.0052 166.511 42.0096 165.776 44.0294 166.069C42.2129 166.503 40.728 167.834 39.4507 169.115L38.1562 167.291Z" fill="#371B45"/>
<path d="M79.7296 180.636C77.3177 184.928 70.4338 191.171 64.535 186.134C59.213 180.768 67.8117 172.853 61.1516 166.86C58.3928 164.555 55.5639 165.159 55.0128 167.058C54.3216 169.44 57.3658 170.188 57.3137 173.314C57.1326 178.122 53.9824 184.034 57.517 190.165C61.4105 197.229 73.8531 200.953 83.113 192.551L79.7296 180.636Z" fill="white"/>
<path d="M55.2164 168.868C55.8666 170.103 57.3507 171.123 57.3131 173.314C57.1328 178.121 53.9809 184.032 57.519 190.165C61.4108 197.229 73.8533 200.953 83.1133 192.552L79.7307 180.635C78.1065 183.522 74.4634 187.294 70.4562 187.919C68.5048 188.224 66.4671 187.782 64.5353 186.133C59.2141 180.766 67.811 172.854 61.1527 166.861C58.393 164.556 55.565 165.159 55.0139 167.057C54.8054 167.772 54.9327 168.339 55.2164 168.868Z" fill="url(#paint8_linear_11185_27058)"/>
<path d="M55.2164 168.868C55.8666 170.103 57.3507 171.123 57.3131 173.314C57.1328 178.121 53.9809 184.032 57.519 190.165C61.4108 197.229 73.8533 200.953 83.1133 192.552L79.7307 180.635C78.1065 183.522 74.4634 187.294 70.4562 187.919C68.5048 188.224 66.4671 187.782 64.5353 186.133C59.2141 180.766 67.811 172.854 61.1527 166.861C58.393 164.556 55.565 165.159 55.0139 167.057C54.8054 167.772 54.9327 168.339 55.2164 168.868Z" fill="url(#paint9_linear_11185_27058)" fill-opacity="0.2"/>
<path d="M57.3125 173.314C57.1322 178.121 53.9804 184.032 57.5184 190.165C61.4102 197.229 73.8528 200.953 83.1127 192.552L79.7301 180.635C78.1059 183.522 74.4628 187.294 70.4557 187.919C70.2686 188.977 70.225 190.411 70.7692 191.983C71.6783 194.602 63.0874 195.424 59.1794 189.208C54.9697 182.505 62.4218 172.897 56.588 168.983C56.1463 168.688 55.6883 168.663 55.2158 168.868C55.866 170.103 57.3501 171.123 57.3125 173.314Z" fill="#9D9FE6"/>
<path d="M71.0797 198.5C70.0655 198.5 69.0437 198.416 68.0175 198.245C63.0424 197.415 58.6431 194.527 56.537 190.705C53.8252 186.002 54.7402 181.499 55.5468 177.526C55.8552 176.008 56.1466 174.573 56.1953 173.272C56.2141 172.132 55.6741 171.425 55.0487 170.604C54.3284 169.662 53.4321 168.488 53.9379 166.747C54.26 165.634 55.1153 164.792 56.2841 164.436C57.9844 163.916 60.0725 164.502 61.8676 166.002C65.8713 169.603 65.0579 173.783 64.3402 177.47C63.743 180.54 63.2269 183.194 65.2963 185.314C66.847 186.623 68.5712 187.119 70.4218 186.79C73.7531 186.197 77.1348 182.97 78.7539 180.088L80.7036 181.184C78.8854 184.42 75.015 188.244 70.814 188.992C68.2935 189.44 65.8713 188.746 63.8079 186.984C63.7849 186.964 63.7618 186.943 63.7404 186.921C60.8004 183.956 61.5147 180.284 62.1453 177.043C62.8365 173.489 63.4337 170.419 60.4023 167.691C59.0054 166.525 57.6904 166.345 56.936 166.575C56.6259 166.67 56.2269 166.884 56.0859 167.37C55.9107 167.974 56.1363 168.344 56.8267 169.248C57.517 170.153 58.4637 171.392 58.4312 173.333C58.3748 174.84 58.0655 176.361 57.7391 177.971C56.9753 181.73 56.1859 185.618 58.485 189.607C60.2793 192.862 64.0694 195.319 68.3858 196.038C73.4079 196.875 78.3711 195.343 82.3611 191.723L83.8631 193.38C80.1662 196.734 75.7131 198.5 71.0797 198.5Z" fill="#371B45"/>
<path d="M106.161 199.681C95.4174 206.497 99.0844 232.809 92.6338 240.391C90.6285 242.747 88.0465 242.881 85.6551 242.881C80.2963 242.881 78.4354 242.881 73.2407 242.881C66.6935 242.881 65.7263 240.691 65.2957 239.182C64.6087 236.777 65.9245 231.289 69.5779 228.91C67.2052 210.442 72.4153 181.934 75.158 174.165" fill="url(#paint10_linear_11185_27058)"/>
<path d="M106.161 199.681C95.4174 206.497 99.0844 232.809 92.6338 240.391C90.6285 242.747 88.0465 242.881 85.6551 242.881C80.2963 242.881 78.4354 242.881 73.2407 242.881C66.6935 242.881 65.7263 240.691 65.2957 239.182C64.6087 236.777 65.9245 231.289 69.5779 228.91C67.2052 210.442 72.4153 181.934 75.158 174.165" fill="url(#paint11_linear_11185_27058)" fill-opacity="0.2"/>
<path d="M106.165 199.681C95.4235 206.495 99.0889 232.809 92.639 240.391C90.6312 242.746 88.051 242.88 85.6604 242.88H73.2443C66.6996 242.88 65.7316 240.69 65.301 239.18C65.0549 238.323 65.0669 237.075 65.3462 235.714C65.8495 233.26 67.2336 230.441 69.5815 228.909C67.2105 210.439 72.4198 181.933 75.1624 174.164L106.165 199.681Z" fill="url(#paint12_linear_11185_27058)"/>
<path d="M106.165 199.681C95.4235 206.495 99.0889 232.809 92.639 240.391C90.6312 242.746 88.051 242.88 85.6604 242.88H73.2443C66.6996 242.88 65.7316 240.69 65.301 239.18C65.0549 238.323 65.0669 237.075 65.3462 235.714C65.8495 233.26 67.2336 230.441 69.5815 228.909C67.2105 210.439 72.4198 181.933 75.1624 174.164L106.165 199.681Z" fill="url(#paint13_linear_11185_27058)" fill-opacity="0.2"/>
<path d="M65.2957 239.181C65.7264 240.69 66.6935 242.879 73.2416 242.879H85.6551C88.0483 242.879 90.6286 242.748 92.633 240.391C99.0837 232.809 95.4183 206.498 106.16 199.681L75.1597 174.164C74.2678 176.691 73.1126 181.411 72.0446 187.268V187.27C73.9738 194.185 79.3198 200.347 83.8207 205.111C88.8813 210.468 93.9419 214.114 91.4616 222.599C89.5469 229.155 79.2104 229.317 79.2104 229.317C85.04 231.445 90.4773 238.328 76.2047 238.328C70.1854 238.328 67.2865 238.761 65.1701 236.874H65.1616C65.0779 237.772 65.1223 238.574 65.2957 239.181Z" fill="#9D9FE6"/>
<path d="M65.2957 239.181C65.7264 240.69 66.6935 242.879 73.2416 242.879H85.6551C88.0483 242.879 90.6286 242.748 92.633 240.391C99.0837 232.809 95.4183 206.498 106.16 199.681L75.1597 174.164C74.2678 176.691 73.1126 181.411 72.0446 187.268V187.27C73.9738 194.185 79.3198 200.347 83.8207 205.111C88.8813 210.468 93.9419 214.114 91.4616 222.599C89.5469 229.155 79.2104 229.317 79.2104 229.317C85.04 231.445 90.4773 238.328 76.2047 238.328C70.1854 238.328 67.2865 238.761 65.1701 236.874H65.1616C65.0779 237.772 65.1223 238.574 65.2957 239.181Z" fill="#9D9FE6"/>
<path d="M84.0361 242.88H73.2468C66.6996 242.88 65.7315 240.69 65.3009 239.18C65.1283 238.574 65.0831 237.772 65.1668 236.874H65.1753C67.2917 238.762 70.1915 238.328 76.2107 238.328C80.0939 238.328 82.5179 237.819 83.8712 237.033C84.8333 238.756 85.0511 241.25 84.0361 242.88Z" fill="#E2EEF2"/>
<path d="M84.0361 242.88H73.2443C66.6996 242.88 65.7316 240.69 65.301 239.18C65.0549 238.323 65.0669 237.075 65.3462 235.714C65.8743 235.073 66.5484 234.635 67.3481 234.551C69.0782 234.367 70.2753 236.673 70.306 237.928C70.306 237.928 71.0861 234.165 73.9346 234.378C76.479 234.562 77.2958 237.976 77.2958 237.976C77.2958 237.976 78.6483 234.708 81.5029 235.127C84.1455 235.519 85.6492 240.288 84.0361 242.88Z" fill="white"/>
<path d="M84.0361 242.88H73.2468C66.6996 242.88 65.7315 240.69 65.3009 239.18C65.1283 238.574 65.0831 237.772 65.1668 236.874H65.1753C67.2917 238.762 70.1915 238.328 76.2107 238.328C80.0939 238.328 82.5179 237.819 83.8712 237.033C84.8333 238.756 85.0511 241.25 84.0361 242.88Z" fill="#E2EEF2"/>
<path d="M85.6555 244H73.2411C66.4282 244 64.8578 241.719 64.2204 239.489C63.4523 236.8 64.7544 231.21 68.3873 228.386C66.1898 209.659 71.4264 181.378 74.1041 173.792C74.3091 173.21 74.9473 172.905 75.5309 173.11C76.1136 173.316 76.4186 173.955 76.2135 174.537C73.5547 182.067 68.3275 210.394 70.6873 228.767C70.742 229.193 70.5481 229.612 70.1884 229.847C66.8955 231.991 65.8301 236.981 66.3709 238.874C66.6597 239.884 67.1963 241.763 73.2411 241.763H85.6555C88.0315 241.763 90.1325 241.605 91.7824 239.666C94.3199 236.683 95.2136 230.182 96.1594 223.298C97.4718 213.749 98.9593 202.925 105.562 198.737C106.084 198.407 106.774 198.561 107.106 199.082C107.437 199.604 107.282 200.295 106.76 200.626C101.034 204.258 99.6214 214.536 98.3749 223.603C97.3829 230.82 96.4465 237.635 93.486 241.115C91.221 243.777 88.3759 244 85.6555 244Z" fill="#371B45"/>
<path d="M82.0853 230.064C78.267 229.271 74.1095 228.433 70.3903 229.812C69.9443 230.021 69.5479 230.272 69.2668 230.561C68.8345 231.007 68.1236 231.018 67.6776 230.585C66.0585 228.54 70.5509 227.654 71.6864 227.689C75.315 227.593 78.8018 228.761 82.0853 230.064Z" fill="#371B45"/>
<path d="M108.395 199.681C119.137 206.497 115.471 232.809 121.922 240.391C123.927 242.747 126.509 242.881 128.901 242.881C134.258 242.881 136.12 242.881 141.315 242.881C147.862 242.881 148.829 240.691 149.26 239.182C149.947 236.777 148.631 231.289 144.978 228.91C147.35 210.442 142.14 181.934 139.398 174.165" fill="url(#paint14_linear_11185_27058)"/>
<path d="M108.395 199.681C119.137 206.497 115.471 232.809 121.922 240.391C123.927 242.747 126.509 242.881 128.901 242.881C134.258 242.881 136.12 242.881 141.315 242.881C147.862 242.881 148.829 240.691 149.26 239.182C149.947 236.777 148.631 231.289 144.978 228.91C147.35 210.442 142.14 181.934 139.398 174.165" fill="url(#paint15_linear_11185_27058)" fill-opacity="0.2"/>
<path d="M108.395 199.681C119.136 206.495 115.471 232.809 121.921 240.391C123.928 242.746 126.509 242.88 128.9 242.88H141.316C147.86 242.88 148.828 240.69 149.258 239.18C149.504 238.323 149.493 237.075 149.214 235.714C148.711 233.26 147.326 230.441 144.979 228.909C147.349 210.439 142.14 181.933 139.398 174.164L108.395 199.681Z" fill="url(#paint16_linear_11185_27058)"/>
<path d="M108.395 199.681C119.136 206.495 115.471 232.809 121.921 240.391C123.928 242.746 126.509 242.88 128.9 242.88H141.316C147.86 242.88 148.828 240.69 149.258 239.18C149.504 238.323 149.493 237.075 149.214 235.714C148.711 233.26 147.326 230.441 144.979 228.909C147.349 210.439 142.14 181.933 139.398 174.164L108.395 199.681Z" fill="url(#paint17_linear_11185_27058)" fill-opacity="0.2"/>
<path d="M149.259 239.181C148.828 240.69 147.861 242.879 141.313 242.879H128.9C126.506 242.879 123.926 242.748 121.921 240.391C115.471 232.809 119.136 206.498 108.395 199.681L139.395 174.164C140.287 176.691 141.442 181.411 142.51 187.268V187.27C140.581 194.185 135.235 200.347 130.734 205.111C125.673 210.468 120.613 214.114 123.093 222.599C125.008 229.155 135.344 229.317 135.344 229.317C129.515 231.445 124.077 238.328 138.349 238.328C144.369 238.328 147.268 238.761 149.385 236.874H149.393C149.477 237.772 149.432 238.574 149.259 239.181Z" fill="#9D9FE6"/>
<path d="M149.259 239.181C148.828 240.69 147.861 242.879 141.313 242.879H128.9C126.506 242.879 123.926 242.748 121.921 240.391C115.471 232.809 119.136 206.498 108.395 199.681L139.395 174.164C140.287 176.691 141.442 181.411 142.51 187.268V187.27C140.581 194.185 135.235 200.347 130.734 205.111C125.673 210.468 120.613 214.114 123.093 222.599C125.008 229.155 135.344 229.317 135.344 229.317C129.515 231.445 124.077 238.328 138.349 238.328C144.369 238.328 147.268 238.761 149.385 236.874H149.393C149.477 237.772 149.432 238.574 149.259 239.181Z" fill="#9D9FE6"/>
<path d="M130.526 242.88H141.315C147.862 242.88 148.83 240.69 149.26 239.18C149.433 238.574 149.479 237.772 149.395 236.874H149.386C147.27 238.762 144.37 238.328 138.351 238.328C134.468 238.328 132.044 237.819 130.691 237.033C129.729 238.756 129.511 241.25 130.526 242.88Z" fill="#E2EEF2"/>
<path d="M130.525 242.88H141.317C147.862 242.88 148.83 240.69 149.26 239.18C149.506 238.323 149.495 237.075 149.215 235.714C148.687 235.073 148.013 234.635 147.213 234.551C145.483 234.367 144.286 236.673 144.256 237.928C144.256 237.928 143.475 234.165 140.627 234.378C138.082 234.562 137.266 237.976 137.266 237.976C137.266 237.976 135.913 234.708 133.058 235.127C130.416 235.519 128.912 240.288 130.525 242.88Z" fill="white"/>
<path d="M130.526 242.88H141.315C147.862 242.88 148.83 240.69 149.26 239.18C149.433 238.574 149.479 237.772 149.395 236.874H149.386C147.27 238.762 144.37 238.328 138.351 238.328C134.468 238.328 132.044 237.819 130.691 237.033C129.729 238.756 129.511 241.25 130.526 242.88Z" fill="#E2EEF2"/>
<path d="M141.319 244H128.905C126.184 244 123.339 243.777 121.074 241.115C118.114 237.635 117.177 230.82 116.185 223.604C114.939 214.536 113.526 204.258 107.799 200.626C107.278 200.295 107.124 199.604 107.454 199.082C107.785 198.561 108.476 198.407 108.998 198.737C115.601 202.926 117.088 213.75 118.401 223.298C119.347 230.182 120.24 236.683 122.778 239.666C124.428 241.605 126.529 241.763 128.905 241.763H141.319C147.363 241.763 147.9 239.884 148.189 238.874C148.73 236.981 147.665 231.991 144.372 229.847C144.012 229.612 143.818 229.193 143.873 228.767C146.233 210.395 141.005 182.067 138.347 174.537C138.142 173.955 138.447 173.316 139.029 173.11C139.611 172.904 140.25 173.21 140.456 173.792C143.134 181.378 148.37 209.659 146.173 228.386C149.806 231.21 151.108 236.8 150.34 239.489C149.702 241.719 148.132 244 141.319 244Z" fill="#371B45"/>
<path d="M132.471 230.064C135.755 228.761 139.242 227.592 142.871 227.689C143.971 227.682 148.182 228.409 147.015 230.426C146.62 231 145.769 231.064 145.291 230.561C144.642 229.907 143.623 229.545 142.675 229.355C139.316 228.732 135.82 229.324 132.471 230.064Z" fill="#371B45"/>
<path d="M44.6288 103.751C52.69 110.331 87.6142 128.359 107.388 128.144C113.577 128.076 89.7066 145.529 85.2706 146.913C80.8346 148.297 45.9334 146.573 24.9956 141.773" fill="#C97043"/>
<path d="M107.019 135.581C100.378 140.374 91.1395 145.869 88.4269 146.615C83.4841 147.971 44.6044 146.283 21.2793 141.574L43.1501 104.285C46.9497 107.015 56.1128 111.762 67.0891 116.305C82.0421 122.499 100.363 128.329 113.066 128.208C116.175 128.178 112.472 131.643 107.019 135.581Z" fill="url(#paint18_linear_11185_27058)"/>
<path d="M107.019 135.581C100.378 140.374 91.1395 145.869 88.4269 146.615C83.4841 147.971 44.6044 146.283 21.2793 141.574L43.1501 104.285C46.9497 107.015 56.1128 111.762 67.0891 116.305C82.0421 122.499 100.363 128.329 113.066 128.208C116.175 128.178 112.472 131.643 107.019 135.581Z" fill="url(#paint19_linear_11185_27058)" fill-opacity="0.2"/>
<path d="M128.241 149.422C128.241 149.422 147.517 166.935 148.467 178.466C146.86 180.458 145.436 183.071 146.337 185.525C146.965 187.238 148.833 187.669 150.797 187.832C149.19 192.173 150.706 195.199 152.614 196.313C154.909 197.652 158.661 197.221 160.641 194.891C163.762 194.812 166.186 194.076 167.689 192.42C170.712 189.09 170.997 182.17 169.716 175.018C164.992 150.346 138.565 133.35 128.71 131.076L112.354 128.358" fill="url(#paint20_linear_11185_27058)"/>
<path d="M128.241 149.422C128.241 149.422 147.517 166.935 148.467 178.466C146.86 180.458 145.436 183.071 146.337 185.525C146.965 187.238 148.833 187.669 150.797 187.832C149.19 192.173 150.706 195.199 152.614 196.313C154.909 197.652 158.661 197.221 160.641 194.891C163.762 194.812 166.186 194.076 167.689 192.42C170.712 189.09 170.997 182.17 169.716 175.018C164.992 150.346 138.565 133.35 128.71 131.076L112.354 128.358" fill="url(#paint21_linear_11185_27058)" fill-opacity="0.2"/>
<path d="M169.917 187.7C169.482 189.621 168.755 191.245 167.689 192.42C166.185 194.077 163.761 194.813 160.641 194.891C158.658 197.223 154.909 197.654 152.614 196.314C150.705 195.198 149.189 192.174 150.797 187.832C148.834 187.669 146.963 187.239 146.334 185.525C145.435 183.07 146.86 180.459 148.468 178.466C147.743 169.689 136.401 157.443 131.024 152.098C131.128 146.613 134.501 143.853 134.501 143.853C141.394 159.107 151.23 164.629 151.915 177.64C148.909 178.642 146.427 181.918 147.743 183.965C148.789 185.586 150.705 184.267 152.753 184.722C154.803 185.175 154.605 188.718 154.431 190.815C154.395 191.248 153.341 190.418 153.38 190.815C153.489 191.947 153.973 192.763 155.13 192.956C158.247 193.477 160.163 191.234 160.163 191.234C160.163 191.234 164.558 193.32 169.917 187.7Z" fill="#9D9FE6"/>
<path d="M138.434 135.332C135.305 135.941 131.941 136.543 130.457 136.831C130.301 136.861 125.126 138.044 120.342 138.95L112.354 128.359L128.71 131.076C131.136 131.636 134.569 133.089 138.434 135.332Z" fill="#9D9FE6"/>
<path d="M155.638 198.175C154.316 198.175 153.046 197.862 152.048 197.279C149.846 195.994 148.281 192.93 149.328 188.784C147.861 188.526 146 187.865 145.284 185.911C144.436 183.599 145.117 180.983 147.307 178.13C145.965 167.153 127.673 150.42 127.486 150.25C127.029 149.834 126.995 149.128 127.41 148.671C127.826 148.214 128.533 148.179 128.99 148.595C129.791 149.322 148.605 166.54 149.579 178.375L149.616 178.821L149.335 179.169C147.446 181.51 146.79 183.519 147.384 185.141C147.73 186.084 148.745 186.541 150.887 186.718L152.354 186.84L151.843 188.221C150.508 191.827 151.55 194.399 153.175 195.347C154.948 196.383 158.099 196.153 159.786 194.168L160.11 193.787L160.61 193.774C163.597 193.699 165.641 193.009 166.859 191.669C169.317 188.961 169.973 182.81 168.613 175.216C163.932 150.772 137.715 134.328 128.489 132.175L112.169 129.462C111.56 129.361 111.148 128.785 111.249 128.175C111.35 127.566 111.924 127.154 112.535 127.256L128.958 129.988C133.887 131.124 143.163 135.938 151.884 143.819C159.052 150.297 168.155 160.931 170.811 174.808C171.698 179.755 172.575 188.7 168.514 193.173C166.938 194.909 164.524 195.834 161.145 195.993C159.659 197.493 157.591 198.175 155.638 198.175Z" fill="#371B45"/>
<path d="M154.429 190.814C153.942 189.721 153.411 188.362 152.375 187.74C152.22 187.677 152.146 187.722 152.133 187.769C152.1 187.838 151.852 188.127 151.679 188.516L149.91 187.148C150.734 186.269 152.266 185.575 153.251 186.65C154.253 187.824 154.324 189.378 154.429 190.814Z" fill="#371B45"/>
<path d="M86.982 146.129C86.2686 146.513 85.685 146.784 85.2706 146.913C80.8338 148.296 45.9334 146.574 24.9956 141.773L43.3865 107.726L48.7905 110.083C53.0616 119.207 47.7499 131.475 50.4122 136.532C54.5269 144.344 78.0715 144.396 81.5634 141.052C82.7271 139.94 84.9246 142.576 86.982 146.129Z" fill="#9D9FE6"/>
<path d="M101.963 135.662C96.7883 134.823 91.333 133.504 88.3785 132.332C81.6458 129.665 70.4233 121.291 66.1206 116.007C79.5432 122.323 95.9886 128.267 107.392 128.144C110.183 128.113 106.858 131.647 101.963 135.662Z" fill="#9D9FE6"/>
<path d="M78.2253 148.479C65.634 148.479 40.8207 146.547 24.7486 142.863C24.1471 142.725 23.771 142.125 23.9089 141.523C24.0469 140.921 24.647 140.545 25.2485 140.683C46.3495 145.52 81.0003 147.074 84.9408 145.845C86.6556 145.31 92.1177 141.792 97.3757 137.836C103.26 133.408 106.15 130.533 107.013 129.264C87.1913 129.246 52.7019 111.781 43.9247 104.617C43.4462 104.226 43.3753 103.522 43.7658 103.044C44.1562 102.565 44.8611 102.494 45.3396 102.884C53.0522 109.18 87.9295 127.248 107.38 127.025C109.136 126.995 109.452 128.127 109.506 128.471C109.621 129.197 109.925 131.122 99.175 139.28C94.2067 143.049 87.9508 147.249 85.6072 147.98C84.5367 148.314 81.9017 148.479 78.2253 148.479Z" fill="#371B45"/>
<path d="M137.248 195.403L125.318 203.838C121.779 206.178 115.695 208.507 107.389 208.507C99.085 208.507 92.9992 206.178 89.462 203.838L77.5295 195.403C64.646 180.423 75.6507 153.367 82.1039 139.923C82.1039 139.923 92.143 123.508 107.389 123.508C122.635 123.508 132.675 139.923 132.675 139.923C139.127 153.367 150.129 180.423 137.248 195.403Z" fill="url(#paint22_linear_11185_27058)"/>
<path d="M137.248 195.403L125.318 203.838C121.779 206.178 115.695 208.507 107.389 208.507C99.085 208.507 92.9992 206.178 89.462 203.838L77.5295 195.403C64.646 180.423 75.6507 153.367 82.1039 139.923C82.1039 139.923 92.143 123.508 107.389 123.508C122.635 123.508 132.675 139.923 132.675 139.923C139.127 153.367 150.129 180.423 137.248 195.403Z" fill="url(#paint23_linear_11185_27058)" fill-opacity="0.2"/>
<path d="M130.459 136.83C123.102 138.185 101.947 137.766 88.3794 132.333C92.8129 128.035 99.384 123.508 107.391 123.508C118.404 123.508 126.702 132.075 130.459 136.83Z" fill="#9D9FE6"/>
<path d="M142.488 184.493C142.379 185.012 142.255 185.524 142.118 186.032C141.191 189.459 139.626 192.636 137.247 195.402L125.318 203.837C121.779 206.177 115.695 208.505 107.389 208.505C99.086 208.505 92.9992 206.177 89.4595 203.837L77.5278 195.402C75.1518 192.636 73.5874 189.459 72.6569 186.032C72.5194 185.527 72.3963 185.012 72.2861 184.495C76.9187 188.664 86.8698 194.037 107.386 194.037C127.907 194.037 137.859 188.661 142.488 184.493Z" fill="#9D9FE6"/>
<path d="M131.66 190.568C127.65 197.228 120.174 202.495 107.389 202.495C94.6033 202.495 87.1291 197.228 83.1177 190.568C88.8165 192.566 96.659 194.037 107.389 194.037C118.119 194.037 125.961 192.566 131.66 190.568Z" fill="#FF9343"/>
<path d="M107.387 138.633C122.922 138.633 135.255 151.697 135.641 174.963C135.831 186.459 129.7 202.495 107.387 202.495C85.0723 202.495 78.9412 186.459 79.1317 174.963C79.517 151.697 91.8502 138.633 107.387 138.633Z" fill="#F8FDFF"/>
<path d="M131.66 190.568C127.65 197.228 120.174 202.495 107.389 202.495C94.6033 202.495 87.1291 197.228 83.1177 190.568C88.8165 192.566 96.659 194.037 107.389 194.037C118.119 194.037 125.961 192.566 131.66 190.568Z" fill="#E2EEF2"/>
<path d="M77.5291 195.403C69.7362 188.563 69.3517 176.76 71.2442 167.295C73.2324 157.591 77.1352 148.422 82.1027 139.921C78.6748 149.003 75.3265 158.19 73.7365 167.748C72.1174 177.133 72.2131 187.167 77.5291 195.403Z" fill="#371B45"/>
<path d="M137.244 195.403C142.56 187.166 142.656 177.134 141.036 167.748C139.446 158.19 136.099 149.004 132.67 139.921C137.637 148.422 141.54 157.591 143.529 167.295C145.422 176.758 145.036 188.566 137.244 195.403Z" fill="#371B45"/>
<path d="M125.32 203.837C116.296 211.588 98.4926 211.591 89.4634 203.838C100.084 208.613 114.695 208.614 125.32 203.837Z" fill="#371B45"/>
<path d="M25.8095 93.6975C22.7998 85.5065 20.7428 66.8167 34.1291 64.7476C38.9927 64.2301 41.2872 66.5205 40.9547 70.4702C40.5265 75.5484 37.5897 83.2536 41.6529 88.9436C49.3813 99.7771 51.5412 105.748 47.4013 120.423C47.4013 120.423 48.3591 130.091 45.6876 136.593C42.8266 143.555 33.3996 150.462 14.0276 146.317C7.98051 144.76 4.6581 139.966 6.46231 133.42C3.49789 131.345 -1.19571 124.009 4.69902 115.262C1.38845 112.763 -1.1957 103.874 5.6187 98.1119C11.3383 93.2762 25.8095 93.6975 25.8095 93.6975Z" fill="url(#paint24_linear_11185_27058)"/>
<path d="M25.8095 93.6975C22.7998 85.5065 20.7428 66.8167 34.1291 64.7476C38.9927 64.2301 41.2872 66.5205 40.9547 70.4702C40.5265 75.5484 37.5897 83.2536 41.6529 88.9436C49.3813 99.7771 51.5412 105.748 47.4013 120.423C47.4013 120.423 48.3591 130.091 45.6876 136.593C42.8266 143.555 33.3996 150.462 14.0276 146.317C7.98051 144.76 4.6581 139.966 6.46231 133.42C3.49789 131.345 -1.19571 124.009 4.69902 115.262C1.38845 112.763 -1.1957 103.874 5.6187 98.1119C11.3383 93.2762 25.8095 93.6975 25.8095 93.6975Z" fill="url(#paint25_linear_11185_27058)" fill-opacity="0.2"/>
<path d="M30.1594 116.508C23.5885 117.48 7.3028 116.359 4.77173 110.325C3.42008 107.104 17.1465 114.248 33.3893 110.282C36.0393 109.635 34.7934 114.93 30.1594 116.508Z" fill="#9D9FE6"/>
<path d="M32.7116 133.262C22.0817 135.706 10.9758 132.432 10.6072 128.477C10.3943 126.191 22.7238 131.758 35.79 127.32C37.1194 126.868 35.7797 131.592 32.7116 133.262Z" fill="#9D9FE6"/>
<path d="M33.866 143.352C27.0172 147.141 14.4409 143.453 14.1113 139.918C13.921 137.875 24.9427 142.851 36.6232 138.884C37.8108 138.48 36.4369 141.929 33.866 143.352Z" fill="#9D9FE6"/>
<path d="M49.6936 118.913L49.691 118.927C49.3996 120.34 49.0203 121.852 48.5521 123.485C48.5521 123.485 49.4167 132.071 47.0082 137.844C44.9961 142.662 39.3913 147.447 28.7583 147.59C42.6072 145.298 41.2547 135.065 36.2719 132.431C41.2521 129.189 40.49 122.793 37.1109 119.258C40.8241 115.953 41.3948 108.12 32.5595 105.149C40.9642 107.215 51.5681 102.652 49.6936 118.913Z" fill="#9D9FE6"/>
<path d="M47.3026 130.44C47.7433 139.266 42.3005 145.096 34.2168 147.581C28.0679 149.424 21.4945 149.14 15.2593 147.967C9.59046 147.218 4.49431 143.181 4.54751 137.052C4.54218 135.653 4.80333 134.299 5.17649 133.012L5.66899 134.383C1.12463 130.968 -0.497448 124.693 1.20809 119.39C1.73343 117.635 2.62603 116.065 3.57668 114.564L3.86162 116.278C2.22632 114.952 1.29755 113.257 0.700647 111.493C-0.666848 107.509 -0.0264485 102.856 2.56807 99.5109C3.43469 98.446 4.41379 97.3926 5.56792 96.6102C7.08531 95.5692 8.76524 94.8998 10.4849 94.3684C15.4956 92.8984 20.652 92.5239 25.8485 92.5527L24.6456 94.2429C21.3689 85.4221 19.8528 70.4943 29.2851 65.0137C32.3324 63.3771 35.9851 62.6694 39.2874 64.1384C43.1209 66.0432 42.8753 70.2597 42.1425 73.7991C41.2498 78.7348 39.9298 84.2614 43.1237 88.5286C48.38 95.8814 52.4989 103.681 50.1102 112.999C49.6381 114.991 48.9072 116.895 47.9698 118.706C47.9869 116.654 48.1972 114.681 48.2686 112.724C49.0376 102.869 46.4385 97.9796 40.7702 90.2332C40.498 89.8598 40.1183 89.2545 39.8699 88.8619C38.2044 86.0254 37.8961 82.4189 38.2063 79.2922C38.3919 77.2093 38.7754 75.1963 39.1028 73.2648C39.4207 71.0842 40.2439 68.1414 37.9237 66.9443C35.7243 65.9991 32.8663 66.6043 30.7869 67.7277C24.283 71.519 24.5038 81.2103 25.5906 87.7922C25.9932 90.2715 26.7098 92.748 27.5835 95.0818C21.1538 94.9793 9.8616 95.2025 5.2708 100.159C3.75627 101.818 2.71806 103.946 2.5339 106.209C2.25962 109.008 3.20542 112.495 5.3476 114.266L6.25191 114.995L5.63273 115.98C3.927 118.541 2.79353 121.535 3.06314 124.624C3.31278 127.862 5.04991 131.065 7.77339 132.828L7.57571 133.688C6.12475 139.508 9.24023 143.769 14.9621 144.827C25.1128 146.897 38.2615 146.924 44.5208 137.149C45.7618 135.177 46.5432 132.823 47.3026 130.44Z" fill="#371B45"/>
<path d="M14.2684 144.804C20.4918 146.21 30.835 146.75 35.3144 141.452C38.0561 138.126 37.2167 133.168 33.4321 131.033L31.7058 129.996L33.4122 128.912C35.2735 127.702 36.5902 125.315 36.6444 123.064C36.7908 120.133 34.9028 117.594 32.9559 115.536L34.1813 114.713C36.5388 112.548 37.153 108.46 35.7536 105.572C34.0254 102.124 30.258 100.577 26.6892 99.4473C33.5263 99.1974 40.2502 103.39 39.1084 110.988C38.6692 113.319 37.6787 115.549 35.4732 116.839L35.7527 114.945C39.6284 119.067 40.5068 125.062 36.537 129.473C36.0179 130.05 35.4323 130.575 34.7317 131.02L34.7117 128.9C37.8545 130.684 39.8908 134.445 39.3556 138.081C37.5285 149.3 22.2602 149.2 13.6459 147.212C12.0377 146.771 12.6407 144.411 14.2684 144.804Z" fill="#371B45"/>
<path d="M20.0654 119.617C24.0964 119.988 35.496 120.75 37.7242 116.924C38.3736 115.597 40.3481 116.501 39.762 117.862C36.8135 122.866 24.8818 120.585 20.0654 119.617Z" fill="#371B45"/>
<path d="M20.0654 133.678C25.3355 134.086 33.3062 134.005 37.1245 129.922C38.1301 128.843 39.756 130.279 38.7999 131.41C34.0657 135.623 25.8242 134.818 20.0654 133.678Z" fill="#371B45"/>
<path d="M151.914 177.641C150.259 178.462 148.75 179.65 147.901 181.279L146.173 179.86C147.767 178.488 149.873 177.789 151.914 177.641Z" fill="#371B45"/>
<path d="M109.19 130.233C117.746 131.989 159.251 141.341 171.04 119.921C176.019 110.874 172.835 102.057 172.524 100.769C176.112 88.1109 181.555 66.8254 175.662 50.9464C168.566 31.8268 153.063 21.5005 132.378 17.255C111.694 13.0096 93.3767 16.3947 79.3236 31.1731C67.6525 43.4474 64.2708 65.155 62.5826 78.2033C61.7905 79.2654 55.3903 86.1142 56.4027 96.3917C58.8002 120.724 100.634 128.477 109.19 130.233Z" fill="url(#paint26_linear_11185_27058)"/>
<path d="M109.19 130.233C117.746 131.989 159.251 141.341 171.04 119.921C176.019 110.874 172.835 102.057 172.524 100.769C176.112 88.1109 181.555 66.8254 175.662 50.9464C168.566 31.8268 153.063 21.5005 132.378 17.255C111.694 13.0096 93.3767 16.3947 79.3236 31.1731C67.6525 43.4474 64.2708 65.155 62.5826 78.2033C61.7905 79.2654 55.3903 86.1142 56.4027 96.3917C58.8002 120.724 100.634 128.477 109.19 130.233Z" fill="url(#paint27_linear_11185_27058)" fill-opacity="0.2"/>
<path d="M172.907 115.426C172.481 116.894 171.873 118.405 171.04 119.919C159.252 141.343 117.745 131.989 109.191 130.234C100.635 128.477 58.7982 120.725 56.4025 96.3902C56.2385 94.7053 56.2684 93.1102 56.4435 91.6193C57.3398 84.0211 61.9202 79.0904 62.5815 78.2035C64.2706 65.1569 67.654 43.4467 79.3251 31.1725C93.3773 16.394 111.695 13.0098 132.38 17.2552C153.062 21.5007 168.565 31.827 175.663 50.9466C181.556 66.8256 176.111 88.112 172.524 100.769C172.781 101.839 175.033 108.131 172.907 115.426Z" fill="url(#paint28_linear_11185_27058)"/>
<path d="M172.907 115.426C172.481 116.894 171.873 118.405 171.04 119.919C159.252 141.343 117.745 131.989 109.191 130.234C100.635 128.477 58.7982 120.725 56.4025 96.3902C56.2385 94.7053 56.2684 93.1102 56.4435 91.6193C57.3398 84.0211 61.9202 79.0904 62.5815 78.2035C64.2706 65.1569 67.654 43.4467 79.3251 31.1725C93.3773 16.394 111.695 13.0098 132.38 17.2552C153.062 21.5007 168.565 31.827 175.663 50.9466C181.556 66.8256 176.111 88.112 172.524 100.769C172.781 101.839 175.033 108.131 172.907 115.426Z" fill="url(#paint29_linear_11185_27058)" fill-opacity="0.2"/>
<path d="M172.907 115.426C172.481 116.894 171.873 118.405 171.04 119.919C159.252 141.343 117.745 131.989 109.191 130.234C100.635 128.477 58.7982 120.725 56.4025 96.3902C56.2385 94.7053 56.2684 93.1102 56.4435 91.6193L56.4452 91.6261C58.395 101.998 71.938 112.056 82.8469 107.414C90.7569 104.048 92.2196 97.8179 98.2141 94.5216C101.972 92.4591 116.361 95.2128 116.361 95.2128C116.361 95.2128 130.671 98.3502 133.312 101.726C137.523 107.116 136.413 113.419 142.358 119.628C150.556 128.193 166.964 124.281 172.845 115.517C172.866 115.487 172.885 115.457 172.907 115.426Z" fill="#9D9FE6"/>
<path d="M109.419 129.122L110.265 129.297C150.555 137.671 165.013 128.523 170.048 119.374C172.936 114.125 173.445 108.123 171.56 101.534C171.498 101.317 171.45 101.149 171.422 101.034L171.352 100.746L171.434 100.459C174.206 90.6799 180.699 67.777 174.6 51.341C168.132 33.9147 153.851 22.8196 132.152 18.3656C110.452 13.9125 92.9556 18.4844 80.1465 31.9548C68.0662 44.6596 65.0126 68.2674 63.7088 78.3484L63.6704 78.6441L63.4926 78.8816C63.4217 78.9764 63.3124 79.1114 63.1697 79.2874C58.8413 84.6009 56.9445 90.3185 57.5324 96.2805C58.5559 106.673 68.2422 120.776 108.572 128.95L109.419 129.122ZM138.067 134.906C126.107 134.906 114.788 132.554 109.803 131.517L108.122 131.172C102.854 130.105 90.5163 127.604 78.9717 122.342C64.277 115.644 56.3046 106.95 55.2751 96.5026C54.6266 89.9238 56.6908 83.6491 61.4105 77.8546C61.4421 77.8162 61.472 77.7794 61.4993 77.7461C63.5815 61.7732 67.4152 42.052 78.5027 30.3921C91.8876 16.3168 110.091 11.5228 132.607 16.1442C155.125 20.7665 169.968 32.3427 176.726 50.5524C182.324 65.6367 178.079 85.2733 173.701 100.775C173.714 100.817 173.727 100.863 173.74 100.91C175.795 108.096 175.221 114.676 172.034 120.468C166.973 129.665 156.22 134.515 140.076 134.884C139.405 134.899 138.734 134.906 138.067 134.906Z" fill="#371B45"/>
<path d="M102.002 89.7659C102.002 89.7659 109.02 85.3906 118.065 86.9986C127.013 89.0833 131.74 95.8698 131.74 95.8698L102.002 89.7659Z" fill="url(#paint30_linear_11185_27058)"/>
<path d="M102.002 89.7659C102.002 89.7659 109.02 85.3906 118.065 86.9986C127.013 89.0833 131.74 95.8698 131.74 95.8698L102.002 89.7659Z" fill="url(#paint31_linear_11185_27058)" fill-opacity="0.2"/>
<path d="M102.002 89.7659C106.602 86.3911 112.639 85.2231 118.237 86.1655C121.746 87.0071 124.976 88.68 127.688 91.0364C129.256 92.4445 130.713 94.0294 131.74 95.8698C129.812 93.9055 127.645 92.2155 125.29 90.8322C123.005 89.4669 120.463 88.4579 117.894 87.8316C112.563 86.9131 107.007 87.7163 102.002 89.7659Z" fill="#371B45"/>
<path d="M100.256 93.1641C93.253 96.6074 86.6511 112.293 94.2603 123.911C96.7133 127.657 103.746 135.407 117.701 135.128C127.556 134.93 136.569 127.971 138.72 129.22C139.418 129.625 139.68 132.966 144.329 133.747C148.432 134.435 153.319 131.593 152.551 124.184C152.551 124.184 156.211 123.281 157.034 119.534C157.859 115.788 154.33 111.832 148.872 113.841C148.454 113.995 147.579 111.604 141.909 110.473C138.375 109.769 134.823 110.37 133.079 111.181C133.213 110.53 134.446 104.518 131.069 99.4892L100.256 93.1641Z" fill="url(#paint32_linear_11185_27058)"/>
<path d="M100.256 93.1641C93.253 96.6074 86.6511 112.293 94.2603 123.911C96.7133 127.657 103.746 135.407 117.701 135.128C127.556 134.93 136.569 127.971 138.72 129.22C139.418 129.625 139.68 132.966 144.329 133.747C148.432 134.435 153.319 131.593 152.551 124.184C152.551 124.184 156.211 123.281 157.034 119.534C157.859 115.788 154.33 111.832 148.872 113.841C148.454 113.995 147.579 111.604 141.909 110.473C138.375 109.769 134.823 110.37 133.079 111.181C133.213 110.53 134.446 104.518 131.069 99.4892L100.256 93.1641Z" fill="url(#paint33_linear_11185_27058)" fill-opacity="0.2"/>
<path d="M148.686 124.612C148.686 124.612 148.615 128.494 146.562 128.492C144.508 128.49 145.347 124.51 145.347 124.51L148.686 124.612Z" fill="#371B45"/>
<path d="M138.743 124.227C138.743 124.227 138.366 128.754 140.244 131.598L138.743 124.227Z" fill="url(#paint34_linear_11185_27058)"/>
<path d="M138.743 124.227C138.743 124.227 138.366 128.754 140.244 131.598L138.743 124.227Z" fill="url(#paint35_linear_11185_27058)" fill-opacity="0.2"/>
<path d="M91.8105 45.6224C93.193 42.8396 101.216 34.2914 105.96 39.727C107.632 41.6426 106.352 45.7522 103.43 45.8881C99.172 46.0854 98.4167 45.3789 91.8105 45.6224Z" fill="#371B45"/>
<path d="M160.681 59.7581C160.506 56.6557 156.499 45.6392 149.997 48.7654C147.706 49.8684 147.264 54.1498 149.896 55.4254C153.732 57.2846 154.704 56.9317 160.681 59.7581Z" fill="#371B45"/>
<path d="M135.506 87.2504C133.857 95.2586 138.142 102.908 145.076 104.337C152.01 105.765 158.969 100.431 160.618 92.4229C162.268 84.4147 157.983 76.7652 151.049 75.3367C144.114 73.9082 137.156 79.2421 135.506 87.2504Z" fill="#371B45"/>
<path d="M140.36 91.2432C139.77 94.1054 141.125 96.8027 143.386 97.2684C145.647 97.734 147.958 95.7911 148.547 92.9289C149.137 90.0667 147.782 87.3693 145.521 86.9037C143.26 86.438 140.949 88.3809 140.36 91.2432Z" fill="white"/>
<path d="M154.177 90.3063C154.073 90.3063 153.971 90.2952 153.868 90.2747C152.616 90.0166 151.924 88.2369 152.323 86.3C152.689 84.522 153.848 83.2285 155.004 83.2285C155.107 83.2285 155.21 83.2387 155.313 83.2601C156.565 83.5181 157.257 85.297 156.858 87.2339C156.491 89.0127 155.333 90.3063 154.177 90.3063Z" fill="#5E6478"/>
<path d="M104.118 80.8078C102.481 88.8135 95.5334 94.1535 88.6009 92.736C81.6691 91.3177 77.3767 83.6786 79.0137 75.6738C80.6516 67.6681 87.5986 62.3281 94.5304 63.7464C101.463 65.1638 105.755 72.803 104.118 80.8078Z" fill="#371B45"/>
<path d="M98.0897 82.5672C97.5044 85.4285 95.1975 87.3732 92.9377 86.9109C90.6769 86.4487 89.3193 83.7539 89.9046 80.8934C90.4898 78.032 92.7967 76.0874 95.0566 76.5497C97.3173 77.0119 98.6749 79.7058 98.0897 82.5672Z" fill="white"/>
<path d="M86.3672 76.3888C86.2647 76.3888 86.1622 76.3785 86.0605 76.358C84.8088 76.1017 84.115 74.3246 84.5115 72.3877C84.8754 70.6088 86.0323 69.3144 87.1891 69.3144C87.2917 69.3144 87.3933 69.3246 87.495 69.3452C88.7467 69.6015 89.4405 71.3786 89.0449 73.3147C88.6809 75.0944 87.5232 76.3888 86.3672 76.3888Z" fill="#5E6478"/>
<defs>
<linearGradient id="paint0_linear_11185_27058" x1="187.672" y1="131.622" x2="416.609" y2="-365.076" gradientUnits="userSpaceOnUse">
<stop stop-color="#9D9FE6"/>
<stop offset="0.163505" stop-color="#CFC0FF"/>
<stop offset="1" stop-color="#8E00FF"/>
</linearGradient>
<linearGradient id="paint1_linear_11185_27058" x1="184.013" y1="-136.38" x2="306.886" y2="-108.129" gradientUnits="userSpaceOnUse">
<stop stop-color="white" stop-opacity="0"/>
<stop offset="1" stop-color="#8E00FF"/>
</linearGradient>
<linearGradient id="paint2_linear_11185_27058" x1="187.672" y1="131.622" x2="416.609" y2="-365.076" gradientUnits="userSpaceOnUse">
<stop stop-color="#9D9FE6"/>
<stop offset="0.163505" stop-color="#CFC0FF"/>
<stop offset="1" stop-color="#8E00FF"/>
</linearGradient>
<linearGradient id="paint3_linear_11185_27058" x1="184.013" y1="-136.38" x2="306.886" y2="-108.129" gradientUnits="userSpaceOnUse">
<stop stop-color="white" stop-opacity="0"/>
<stop offset="1" stop-color="#8E00FF"/>
</linearGradient>
<linearGradient id="paint4_linear_11185_27058" x1="56.0759" y1="105.636" x2="288.07" y2="-409.632" gradientUnits="userSpaceOnUse">
<stop stop-color="#9D9FE6"/>
<stop offset="0.163505" stop-color="#CFC0FF"/>
<stop offset="1" stop-color="#8E00FF"/>
</linearGradient>
<linearGradient id="paint5_linear_11185_27058" x1="52.2214" y1="-170.154" x2="181.354" y2="-139.76" gradientUnits="userSpaceOnUse">
<stop stop-color="white" stop-opacity="0"/>
<stop offset="1" stop-color="#8E00FF"/>
</linearGradient>
<linearGradient id="paint6_linear_11185_27058" x1="56.0759" y1="105.636" x2="288.07" y2="-409.632" gradientUnits="userSpaceOnUse">
<stop stop-color="#9D9FE6"/>
<stop offset="0.163505" stop-color="#CFC0FF"/>
<stop offset="1" stop-color="#8E00FF"/>
</linearGradient>
<linearGradient id="paint7_linear_11185_27058" x1="52.2214" y1="-170.154" x2="181.354" y2="-139.76" gradientUnits="userSpaceOnUse">
<stop stop-color="white" stop-opacity="0"/>
<stop offset="1" stop-color="#8E00FF"/>
</linearGradient>
<linearGradient id="paint8_linear_11185_27058" x1="67.6937" y1="197.376" x2="128.802" y2="29.8494" gradientUnits="userSpaceOnUse">
<stop stop-color="#9D9FE6"/>
<stop offset="0.163505" stop-color="#CFC0FF"/>
<stop offset="1" stop-color="#8E00FF"/>
</linearGradient>
<linearGradient id="paint9_linear_11185_27058" x1="66.2365" y1="112.903" x2="113.751" y2="126.708" gradientUnits="userSpaceOnUse">
<stop stop-color="white" stop-opacity="0"/>
<stop offset="1" stop-color="#8E00FF"/>
</linearGradient>
<linearGradient id="paint10_linear_11185_27058" x1="83.7223" y1="242.881" x2="253.777" y2="-73.1174" gradientUnits="userSpaceOnUse">
<stop stop-color="#9D9FE6"/>
<stop offset="0.163505" stop-color="#CFC0FF"/>
<stop offset="1" stop-color="#8E00FF"/>
</linearGradient>
<linearGradient id="paint11_linear_11185_27058" x1="81.6017" y1="61.5282" x2="153.781" y2="75.7419" gradientUnits="userSpaceOnUse">
<stop stop-color="white" stop-opacity="0"/>
<stop offset="1" stop-color="#8E00FF"/>
</linearGradient>
<linearGradient id="paint12_linear_11185_27058" x1="83.7272" y1="242.88" x2="253.785" y2="-73.1155" gradientUnits="userSpaceOnUse">
<stop stop-color="#9D9FE6"/>
<stop offset="0.163505" stop-color="#CFC0FF"/>
<stop offset="1" stop-color="#8E00FF"/>
</linearGradient>
<linearGradient id="paint13_linear_11185_27058" x1="81.6067" y1="61.5269" x2="153.785" y2="75.7399" gradientUnits="userSpaceOnUse">
<stop stop-color="white" stop-opacity="0"/>
<stop offset="1" stop-color="#8E00FF"/>
</linearGradient>
<linearGradient id="paint14_linear_11185_27058" x1="126.997" y1="242.881" x2="297.052" y2="-73.1174" gradientUnits="userSpaceOnUse">
<stop stop-color="#9D9FE6"/>
<stop offset="0.163505" stop-color="#CFC0FF"/>
<stop offset="1" stop-color="#8E00FF"/>
</linearGradient>
<linearGradient id="paint15_linear_11185_27058" x1="124.876" y1="61.5282" x2="197.056" y2="75.7419" gradientUnits="userSpaceOnUse">
<stop stop-color="white" stop-opacity="0"/>
<stop offset="1" stop-color="#8E00FF"/>
</linearGradient>
<linearGradient id="paint16_linear_11185_27058" x1="126.996" y1="242.88" x2="297.054" y2="-73.1139" gradientUnits="userSpaceOnUse">
<stop stop-color="#9D9FE6"/>
<stop offset="0.163505" stop-color="#CFC0FF"/>
<stop offset="1" stop-color="#8E00FF"/>
</linearGradient>
<linearGradient id="paint17_linear_11185_27058" x1="124.876" y1="61.5269" x2="197.053" y2="75.7396" gradientUnits="userSpaceOnUse">
<stop stop-color="white" stop-opacity="0"/>
<stop offset="1" stop-color="#8E00FF"/>
</linearGradient>
<linearGradient id="paint18_linear_11185_27058" x1="63.3962" y1="147.068" x2="100.139" y2="-101.217" gradientUnits="userSpaceOnUse">
<stop stop-color="#9D9FE6"/>
<stop offset="0.163505" stop-color="#CFC0FF"/>
<stop offset="1" stop-color="#8E00FF"/>
</linearGradient>
<linearGradient id="paint19_linear_11185_27058" x1="58.595" y1="34.1559" x2="170.811" y2="114.515" gradientUnits="userSpaceOnUse">
<stop stop-color="white" stop-opacity="0"/>
<stop offset="1" stop-color="#8E00FF"/>
</linearGradient>
<linearGradient id="paint20_linear_11185_27058" x1="138.68" y1="197.066" x2="274.032" y2="-158.934" gradientUnits="userSpaceOnUse">
<stop stop-color="#9D9FE6"/>
<stop offset="0.163505" stop-color="#CFC0FF"/>
<stop offset="1" stop-color="#8E00FF"/>
</linearGradient>
<linearGradient id="paint21_linear_11185_27058" x1="135.679" y1="15.7363" x2="234.143" y2="43.1811" gradientUnits="userSpaceOnUse">
<stop stop-color="white" stop-opacity="0"/>
<stop offset="1" stop-color="#8E00FF"/>
</linearGradient>
<linearGradient id="paint22_linear_11185_27058" x1="104.038" y1="208.507" x2="271.811" y2="-231.617" gradientUnits="userSpaceOnUse">
<stop stop-color="#9D9FE6"/>
<stop offset="0.163505" stop-color="#CFC0FF"/>
<stop offset="1" stop-color="#8E00FF"/>
</linearGradient>
<linearGradient id="paint23_linear_11185_27058" x1="100.335" y1="-15.8192" x2="221.876" y2="17.9695" gradientUnits="userSpaceOnUse">
<stop stop-color="white" stop-opacity="0"/>
<stop offset="1" stop-color="#8E00FF"/>
</linearGradient>
<linearGradient id="paint24_linear_11185_27058" x1="23.1529" y1="147.568" x2="231.442" y2="-228.725" gradientUnits="userSpaceOnUse">
<stop stop-color="#9D9FE6"/>
<stop offset="0.163505" stop-color="#CFC0FF"/>
<stop offset="1" stop-color="#8E00FF"/>
</linearGradient>
<linearGradient id="paint25_linear_11185_27058" x1="20.6659" y1="-71.1992" x2="105.491" y2="-54.9593" gradientUnits="userSpaceOnUse">
<stop stop-color="white" stop-opacity="0"/>
<stop offset="1" stop-color="#8E00FF"/>
</linearGradient>
<linearGradient id="paint26_linear_11185_27058" x1="111.58" y1="133.772" x2="310.643" y2="-505.279" gradientUnits="userSpaceOnUse">
<stop stop-color="#9D9FE6"/>
<stop offset="0.163505" stop-color="#CFC0FF"/>
<stop offset="1" stop-color="#8E00FF"/>
</linearGradient>
<linearGradient id="paint27_linear_11185_27058" x1="105.278" y1="-178.215" x2="305.004" y2="-110.267" gradientUnits="userSpaceOnUse">
<stop stop-color="white" stop-opacity="0"/>
<stop offset="1" stop-color="#8E00FF"/>
</linearGradient>
<linearGradient id="paint28_linear_11185_27058" x1="111.581" y1="133.773" x2="310.644" y2="-505.282" gradientUnits="userSpaceOnUse">
<stop stop-color="#9D9FE6"/>
<stop offset="0.163505" stop-color="#CFC0FF"/>
<stop offset="1" stop-color="#8E00FF"/>
</linearGradient>
<linearGradient id="paint29_linear_11185_27058" x1="105.278" y1="-178.216" x2="305.006" y2="-110.267" gradientUnits="userSpaceOnUse">
<stop stop-color="white" stop-opacity="0"/>
<stop offset="1" stop-color="#8E00FF"/>
</linearGradient>
<linearGradient id="paint30_linear_11185_27058" x1="115.481" y1="95.8698" x2="120.883" y2="41.6935" gradientUnits="userSpaceOnUse">
<stop stop-color="#9D9FE6"/>
<stop offset="0.163505" stop-color="#CFC0FF"/>
<stop offset="1" stop-color="#8E00FF"/>
</linearGradient>
<linearGradient id="paint31_linear_11185_27058" x1="113.945" y1="71.5203" x2="139.458" y2="98.6346" gradientUnits="userSpaceOnUse">
<stop stop-color="white" stop-opacity="0"/>
<stop offset="1" stop-color="#8E00FF"/>
</linearGradient>
<linearGradient id="paint32_linear_11185_27058" x1="120.913" y1="135.135" x2="169.552" y2="-103.87" gradientUnits="userSpaceOnUse">
<stop stop-color="#9D9FE6"/>
<stop offset="0.163505" stop-color="#CFC0FF"/>
<stop offset="1" stop-color="#8E00FF"/>
</linearGradient>
<linearGradient id="paint33_linear_11185_27058" x1="117.488" y1="24.3673" x2="212.756" y2="73.9768" gradientUnits="userSpaceOnUse">
<stop stop-color="white" stop-opacity="0"/>
<stop offset="1" stop-color="#8E00FF"/>
</linearGradient>
<linearGradient id="paint34_linear_11185_27058" x1="139.407" y1="131.598" x2="159.335" y2="118.715" gradientUnits="userSpaceOnUse">
<stop stop-color="#9D9FE6"/>
<stop offset="0.163505" stop-color="#CFC0FF"/>
<stop offset="1" stop-color="#8E00FF"/>
</linearGradient>
<linearGradient id="paint35_linear_11185_27058" x1="139.327" y1="112.145" x2="142.112" y2="112.335" gradientUnits="userSpaceOnUse">
<stop stop-color="white" stop-opacity="0"/>
<stop offset="1" stop-color="#8E00FF"/>
</linearGradient>
</defs>
</svg>
