<svg width="402" height="267" viewBox="0 0 402 267" fill="none" xmlns="http://www.w3.org/2000/svg">
<g opacity="0.1">
<path d="M200.927 0C114.16 0 43.8221 72.6878 43.8221 162.352H55.5231C55.5231 79.3659 120.622 12.092 200.927 12.092C281.231 12.092 346.33 79.3659 346.33 162.352H358.031C358.031 72.6878 287.693 0 200.927 0Z" fill="#FF2938"/>
<path d="M200.935 12.0908C120.631 12.0908 55.5314 79.3647 55.5314 162.351H67.2489C67.2489 86.0522 127.102 24.2005 200.934 24.2005C274.766 24.2005 334.619 86.0522 334.619 162.351H346.337C346.338 79.3647 281.239 12.0908 200.935 12.0908Z" fill="#FFAA00"/>
<path d="M200.94 36.4857C268.206 36.4857 322.737 92.8366 322.737 162.35H334.625C334.625 86.0519 274.772 24.2002 200.94 24.2002C127.108 24.2002 67.2549 86.0519 67.2549 162.35H79.1431C79.1431 92.8377 133.673 36.4857 200.94 36.4857Z" fill="#FFF100"/>
<path d="M200.941 36.4902C133.674 36.4902 79.144 92.8411 79.144 162.355H92.6183C92.6183 100.532 141.116 50.4145 200.941 50.4145C260.766 50.4145 309.263 100.532 309.263 162.355H322.738C322.738 92.8422 268.207 36.4902 200.941 36.4902Z" fill="#42D453"/>
<path d="M200.932 62.6718C254.205 62.6718 297.391 107.3 297.391 162.352H309.255C309.255 100.53 260.757 50.4121 200.932 50.4121C141.107 50.4121 92.6099 100.53 92.6099 162.352H104.473C104.473 107.301 147.659 62.6718 200.932 62.6718Z" fill="#268EF0"/>
<path d="M200.944 62.6699C147.671 62.6699 104.485 107.298 104.485 162.351H116.774C116.774 114.313 154.459 75.3703 200.944 75.3703C247.429 75.3703 285.113 114.313 285.113 162.351H297.403C297.403 107.299 254.217 62.6699 200.944 62.6699Z" fill="#AA32EB"/>
<path d="M200.946 87.2312C241.094 87.2312 273.641 120.865 273.641 162.354H285.115C285.115 114.316 247.431 75.374 200.946 75.374C154.461 75.374 116.776 114.316 116.776 162.354H128.251C128.251 120.864 160.797 87.2312 200.946 87.2312Z" fill="#FF22E5"/>
<g opacity="0.21">
<mask id="mask0_11099_128870" style="mask-type:luminance" maskUnits="userSpaceOnUse" x="43" y="0" width="316" height="163">
<path d="M200.956 0C114.19 0 43.8514 72.6878 43.8514 162.352H55.5524H67.2699H79.1582H92.6324H104.496H116.785H128.26C128.26 120.863 160.806 87.2287 200.955 87.2287C241.103 87.2287 273.65 120.863 273.65 162.352H285.124H297.414H309.277H322.752H334.64H346.358H358.059C358.06 72.6878 287.722 0 200.956 0Z" fill="white"/>
</mask>
<g mask="url(#mask0_11099_128870)">
<path d="M336.084 198.725C336.084 165.548 319.07 60.9599 256.917 25.7411C199.433 -6.83125 143.308 5.42011 126.998 10.0219C110.688 14.6236 256.408 -15.952 258.359 -16.6028C260.31 -17.2535 404.73 68.6178 402.779 71.2198C400.827 73.8217 398.875 178.258 396.273 184.263C393.67 190.269 336.084 205.218 336.084 198.725Z" fill="black"/>
</g>
</g>
<g opacity="0.16">
<mask id="mask1_11099_128870" style="mask-type:luminance" maskUnits="userSpaceOnUse" x="43" y="0" width="316" height="163">
<path d="M200.956 0C114.19 0 43.8514 72.6878 43.8514 162.352H55.5524H67.2699H79.1582H92.6324H104.496H116.785H128.26C128.26 120.863 160.806 87.2287 200.955 87.2287C241.103 87.2287 273.65 120.863 273.65 162.352H285.124H297.414H309.277H322.752H334.64H346.358H358.059C358.06 72.6878 287.722 0 200.956 0Z" fill="white"/>
</mask>
<g mask="url(#mask1_11099_128870)">
<path d="M186.351 287.222C260.722 287.222 321.012 228.272 321.012 155.552C321.012 82.8333 260.722 23.8828 186.351 23.8828C111.98 23.8828 51.6904 82.8333 51.6904 155.552C51.6904 228.272 111.98 287.222 186.351 287.222Z" fill="white"/>
</g>
</g>
<g opacity="0.16">
<mask id="mask2_11099_128870" style="mask-type:luminance" maskUnits="userSpaceOnUse" x="43" y="0" width="316" height="163">
<path d="M200.956 0C114.19 0 43.8514 72.6878 43.8514 162.352H55.5524H67.2699H79.1582H92.6324H104.496H116.785H128.26C128.26 120.863 160.806 87.2287 200.955 87.2287C241.103 87.2287 273.65 120.863 273.65 162.352H285.124H297.414H309.277H322.752H334.64H346.358H358.059C358.06 72.6878 287.722 0 200.956 0Z" fill="white"/>
</mask>
<g mask="url(#mask2_11099_128870)">
<path d="M188.083 287.221C241.507 287.221 284.816 238.61 284.816 178.645C284.816 118.68 241.507 70.0693 188.083 70.0693C134.658 70.0693 91.3494 118.68 91.3494 178.645C91.3494 238.61 134.658 287.221 188.083 287.221Z" fill="white"/>
</g>
</g>
<path d="M46.1848 148.891C46.7672 137.197 54.0599 124.768 65.6181 122.897C72.9501 121.712 80.4331 125.03 85.965 129.985C91.4968 134.941 95.4189 141.4 99.2581 147.757C103.553 142.139 110.443 138.594 117.511 138.364C118.798 138.323 120.185 138.419 121.195 139.218C122.329 140.115 122.694 141.656 122.905 143.086C123.638 148.044 123.371 153.146 122.124 158C129.938 156.722 136.862 165.729 134.995 173.424C133.128 181.119 124.697 186.013 116.791 185.579C111.397 195.142 100.061 200.998 89.1401 199.863C78.2181 198.728 68.3297 190.667 65.0181 180.198C62.8837 189.074 52.3011 194.854 43.6801 191.852C35.059 188.852 30.3528 177.75 34.191 169.467C26.6955 166.719 18.7252 159.893 21.0406 152.252C22.4652 147.553 27.5842 144.701 32.4933 144.588C37.4023 144.475 42.093 146.571 46.3296 149.053" fill="url(#paint0_linear_11099_128870)"/>
<path d="M276.575 151.466C269.328 149.638 261.27 156.211 261.604 163.677C261.938 171.144 270.55 176.971 277.606 174.503C275.18 183.035 281.683 192.514 290.266 194.757C298.847 197 308.279 192.92 313.917 186.072C320.617 189.874 327.821 193.594 335.521 193.399C343.221 193.205 351.331 187.63 351.565 179.93C359.556 180.298 368.35 176.616 371.322 169.188C374.294 161.761 368.173 151.553 360.264 152.753C365.491 149.673 365.699 141.317 361.431 137.005C357.162 132.694 350.039 132.235 344.465 134.629C338.889 137.023 334.65 141.756 331.265 146.791C335.296 140.925 332.904 132.008 326.933 128.133C320.961 124.257 312.592 125.228 306.963 129.584C301.334 133.941 298.333 141.134 298.044 148.247C296.804 143.531 293.613 139.164 289.08 137.367C284.549 135.569 278.736 136.868 276.037 140.929C273.338 144.989 274.886 151.459 279.43 153.224" fill="url(#paint1_linear_11099_128870)"/>
<path d="M132.181 100.624L130.129 101.506L129.692 103.696L128.219 102.017L126.002 102.278L127.144 100.359L126.21 98.3297L128.387 98.8232L130.029 97.3086L130.233 99.5319L132.181 100.624Z" fill="white"/>
<path d="M146.92 46.9358L145.497 44.8729L142.99 44.876L144.513 42.8845L143.735 40.5018L146.1 41.3347L148.126 39.8594L148.065 42.3651L150.094 43.8352L147.692 44.5512L146.92 46.9358Z" fill="white"/>
<path d="M270.254 26.0434L269.389 24.6746L267.772 24.6105L268.807 23.3659L268.368 21.8068L269.871 22.4069L271.218 21.5078L271.113 23.1238L272.383 24.1263L270.815 24.5257L270.254 26.0434Z" fill="white"/>
<path d="M215.985 60.2495L214.586 63.2498L216.266 66.1031L212.981 65.7007L210.786 68.1785L210.153 64.9299L207.119 63.6088L210.012 62.0031L210.331 58.708L212.753 60.9654L215.985 60.2495Z" fill="white"/>
<path d="M269.402 111.831L267.684 110.847L265.899 111.706L266.303 109.767L264.936 108.335L266.905 108.12L267.843 106.377L268.656 108.183L270.604 108.538L269.137 109.869L269.402 111.831Z" fill="white"/>
<path d="M312.467 79.2224L309.359 77.7461L306.38 79.4697L306.823 76.0566L304.263 73.7568L307.646 73.1236L309.042 69.9785L310.69 72.9995L314.113 73.3564L311.748 75.8569L312.467 79.2224Z" fill="white"/>
<path d="M334.677 121.658L333.833 119.949L331.948 119.675L333.312 118.346L332.99 116.467L334.677 117.354L336.363 116.467L336.041 118.346L337.405 119.675L335.52 119.949L334.677 121.658Z" fill="white"/>
<path d="M201.442 8.79449L199.22 8.10236L197.39 9.54041L197.362 7.21367L195.428 5.91735L197.633 5.17143L198.268 2.93262L199.659 4.79795L201.985 4.71104L200.64 6.60948L201.442 8.79449Z" fill="white"/>
<path d="M74.8471 113.273L72.5948 111.2L69.6101 111.88L70.8857 109.098L69.3163 106.469L72.3569 106.823L74.3722 104.519L74.9754 107.519L77.7894 108.723L75.1223 110.224L74.8471 113.273Z" fill="white"/>
<path d="M96.6181 55.6199L95.238 54.8615L93.8309 55.5671L94.1258 54.0204L93.0188 52.9L94.582 52.7034L95.3052 51.3047L95.9756 52.7293L97.5295 52.9848L96.3811 54.0628L96.6181 55.6199Z" fill="white"/>
<path d="M76.3697 76.5702C77.2087 76.5702 77.2097 75.2666 76.3697 75.2666C75.5306 75.2666 75.5296 76.5702 76.3697 76.5702Z" fill="white"/>
<path d="M144.275 57.7088C144.297 57.5464 144.318 57.384 144.339 57.2205C144.499 56.007 142.29 56.0049 142.45 57.2205C142.472 57.3829 142.492 57.5454 142.514 57.7088C142.663 58.8386 144.126 58.8406 144.275 57.7088Z" fill="white"/>
<path d="M157.064 55.7807C157.932 55.7807 157.934 54.4316 157.064 54.4316C156.196 54.4316 156.194 55.7807 157.064 55.7807Z" fill="white"/>
<path d="M164.863 45.6999C165.32 45.6999 165.321 44.9912 164.863 44.9912C164.407 44.9912 164.406 45.6999 164.863 45.6999Z" fill="white"/>
<path d="M122.58 115.932C123.831 115.932 123.833 113.988 122.58 113.988C121.329 113.988 121.327 115.932 122.58 115.932Z" fill="white"/>
<path d="M119.209 101.859C119.297 101.776 119.385 101.68 119.481 101.608C119.707 101.435 119.707 101.168 119.481 100.995C119.386 100.922 119.297 100.825 119.209 100.744C118.716 100.279 117.862 100.603 117.862 101.301C117.862 101.998 118.717 102.323 119.209 101.859Z" fill="white"/>
<path d="M137.55 94.1866C138.448 94.1866 138.449 92.791 137.55 92.791C136.652 92.791 136.651 94.1866 137.55 94.1866Z" fill="white"/>
<path d="M197.389 59.1039C198.346 59.1039 198.347 57.6172 197.389 57.6172C196.432 57.6172 196.431 59.1039 197.389 59.1039Z" fill="white"/>
<path d="M198.052 69.2582C198.686 69.2582 198.687 68.2754 198.052 68.2754C197.42 68.2754 197.419 69.2582 198.052 69.2582Z" fill="white"/>
<path d="M233.909 60.8656C234.014 60.9576 234.07 61.0259 234.14 61.149C234.282 61.3942 234.649 61.3942 234.792 61.149C234.864 61.027 234.918 60.9576 235.024 60.8656C235.559 60.4031 235.114 59.5186 234.466 59.5186C233.818 59.5186 233.376 60.4052 233.909 60.8656Z" fill="white"/>
<path d="M224.933 70.7613C225.255 70.6579 225.534 70.5554 225.718 70.2575C225.788 70.1458 225.788 69.9885 225.718 69.8768C225.535 69.5788 225.255 69.4754 224.933 69.3729C223.776 69.0005 223.769 71.1348 224.933 70.7613Z" fill="white"/>
<path d="M185.706 7.34883C187.031 7.34883 187.033 5.29004 185.706 5.29004C184.382 5.29004 184.38 7.34883 185.706 7.34883Z" fill="white"/>
<path d="M191.527 17.2696C192.234 17.2696 192.235 16.1719 191.527 16.1719C190.822 16.1708 190.821 17.2696 191.527 17.2696Z" fill="white"/>
<path d="M173.642 12.2653C173.7 11.8887 173.803 11.6177 173.532 11.3166C173.429 11.2018 173.215 11.2018 173.112 11.3166C172.841 11.6187 172.945 11.8897 173.003 12.2653C173.051 12.5819 173.593 12.5819 173.642 12.2653Z" fill="white"/>
<path d="M52.6518 121.458C52.6331 121.21 52.628 120.968 52.5338 120.735C52.1986 119.899 51.1609 119.897 50.8247 120.735C50.7316 120.969 50.7264 121.21 50.7078 121.458C50.6126 122.708 52.748 122.711 52.6518 121.458Z" fill="white"/>
<path d="M57.2012 114.632C57.4815 114.401 58.1509 113.86 57.7381 113.447C57.3243 113.034 56.7822 113.708 56.5535 113.984C56.178 114.441 56.7449 115.009 57.2012 114.632Z" fill="white"/>
<path d="M60.7713 101.579C61.1397 101.579 61.1397 101.007 60.7713 101.007C60.403 101.008 60.403 101.579 60.7713 101.579Z" fill="white"/>
<path d="M283.269 28.696C283.169 28.4735 283.1 28.2863 282.939 28.1C282.781 27.918 282.434 27.919 282.276 28.1C282.115 28.2863 282.045 28.4746 281.946 28.696C281.714 29.2091 281.98 29.8485 282.607 29.8485C283.234 29.8485 283.501 29.2081 283.269 28.696Z" fill="white"/>
<path d="M286.042 36.4179C286.257 36.1986 286.471 35.9792 286.685 35.7589C286.901 35.5375 286.567 35.2033 286.346 35.4195C286.126 35.6337 285.907 35.8478 285.687 36.062C285.455 36.2886 285.816 36.6496 286.042 36.4179Z" fill="white"/>
<path d="M259.761 15.6281C259.786 15.7843 259.81 15.9395 259.835 16.0957C259.936 16.7434 261.041 16.7444 261.143 16.0957C261.168 15.9395 261.192 15.7843 261.217 15.6281C261.408 14.4114 259.569 14.4042 259.761 15.6281Z" fill="white"/>
<path d="M245.536 24.3494C245.699 24.3287 245.861 24.308 246.025 24.2863C246.214 24.2615 246.354 24.1756 246.417 23.9884C246.442 23.9118 246.442 23.8487 246.417 23.7721C246.354 23.5828 246.213 23.498 246.025 23.4742C245.862 23.4535 245.7 23.4328 245.536 23.4111C244.934 23.3345 244.932 24.427 245.536 24.3494Z" fill="white"/>
<path d="M240.324 11.5041C241.133 11.5041 241.135 10.2461 240.324 10.2461C239.515 10.2461 239.514 11.5041 240.324 11.5041Z" fill="white"/>
<path d="M313.198 91.813C313.127 91.6827 313.053 91.5544 312.997 91.4157C312.821 90.9843 312.292 90.9833 312.115 91.4157C312.059 91.5533 311.984 91.6816 311.914 91.813C311.649 92.3044 311.977 92.9314 312.555 92.9314C313.134 92.9314 313.462 92.3044 313.198 91.813Z" fill="white"/>
<path d="M319.038 89.4954C319.759 89.4954 319.76 88.375 319.038 88.375C318.316 88.375 318.315 89.4954 319.038 89.4954Z" fill="white"/>
<path d="M291.699 73.235C292.435 73.235 292.436 72.0918 291.699 72.0918C290.963 72.0908 290.962 73.235 291.699 73.235Z" fill="white"/>
<path d="M304.147 61.6111C304.131 61.4487 304.117 61.2863 304.101 61.1228C304.019 60.2414 302.811 60.2393 302.729 61.1228C302.713 61.2852 302.699 61.4477 302.683 61.6111C302.596 62.5526 304.236 62.5546 304.147 61.6111Z" fill="white"/>
<path d="M273.521 124.693C274.33 124.693 274.332 123.435 273.521 123.435C272.712 123.435 272.711 124.693 273.521 124.693Z" fill="white"/>
<path d="M287.162 129.282C287.178 129.282 287.178 129.257 287.162 129.257C287.146 129.258 287.146 129.282 287.162 129.282Z" fill="white"/>
<path d="M284.575 128.707C286.37 128.707 286.373 125.917 284.575 125.917C282.779 125.917 282.777 128.707 284.575 128.707Z" fill="white"/>
<path d="M129.118 37.587C130.016 37.587 130.017 36.1924 129.118 36.1924C128.22 36.1924 128.219 37.587 129.118 37.587Z" fill="white"/>
<path d="M78.351 87.6677C79.2335 87.6677 79.2355 86.2959 78.351 86.2959C77.4685 86.2949 77.4675 87.6677 78.351 87.6677Z" fill="white"/>
<path d="M180.505 83.0055C180.811 83.0055 181.078 82.9031 181.352 82.7696C181.606 82.6455 181.606 82.2223 181.352 82.0982C181.079 81.9647 180.812 81.8623 180.505 81.8623C179.769 81.8613 179.767 83.0055 180.505 83.0055Z" fill="white"/>
<path d="M236.036 91.5348C236.067 91.779 236.075 92.0242 236.171 92.2518C236.269 92.4887 236.556 92.4887 236.656 92.2518C236.75 92.0252 236.759 91.7769 236.79 91.5348C236.853 91.0496 235.973 91.0496 236.036 91.5348Z" fill="white"/>
<path d="M126.36 135.003C126.709 134.7 127.04 134.381 127.395 134.085C127.693 133.837 127.368 133.396 127.039 133.474C126.574 133.584 126.105 133.66 125.637 133.76C124.527 133.998 125.363 135.87 126.36 135.003Z" fill="white"/>
<path d="M138.18 115.664C139.092 115.664 139.093 114.246 138.18 114.246C137.267 114.246 137.266 115.664 138.18 115.664Z" fill="white"/>
<path d="M91.1372 123.825C91.2314 123.747 91.3224 123.664 91.4103 123.577C91.5903 123.406 91.6514 123.062 91.5045 122.849C91.4952 122.836 91.4869 122.823 91.4776 122.811C91.4776 122.951 91.4776 123.093 91.4776 123.234C91.549 123.085 91.5893 122.991 91.6297 122.832C91.6793 122.636 91.5024 122.459 91.3058 122.508C91.1465 122.549 91.0534 122.589 90.9044 122.661C91.0451 122.661 91.1869 122.661 91.3276 122.661C91.3152 122.651 91.3017 122.643 91.2893 122.634C91.0772 122.487 90.7337 122.546 90.561 122.728C90.474 122.815 90.3923 122.906 90.3127 123.001C89.8181 123.568 90.5692 124.32 91.1372 123.825Z" fill="white"/>
<path d="M140.129 73.2948C140.923 73.2948 140.924 72.0596 140.129 72.0596C139.334 72.0596 139.333 73.2948 140.129 73.2948Z" fill="white"/>
<path d="M222.508 31.4412C222.736 31.1804 222.998 30.9311 223.139 30.6114C223.325 30.1914 222.949 29.8148 222.528 30.001C222.209 30.1428 221.959 30.4035 221.699 30.6321C221.144 31.1194 222.02 31.9967 222.508 31.4412Z" fill="white"/>
<path d="M99.824 45.8206C99.7847 45.533 99.7226 45.3602 99.5581 45.1243C99.3585 44.8388 98.9871 44.8388 98.7874 45.1243C98.6208 45.3633 98.5619 45.534 98.5215 45.8206C98.3725 46.9079 99.9751 46.9152 99.824 45.8206Z" fill="white"/>
<path d="M97.8548 81.3514C98.9732 81.3514 98.9753 79.6133 97.8548 79.6133C96.7364 79.6122 96.7344 81.3514 97.8548 81.3514Z" fill="white"/>
<path d="M87.432 96.0934C87.2469 96.2548 87.0606 96.4162 86.8744 96.5766C85.9423 97.3856 87.4165 98.8599 88.2256 97.9277C88.3869 97.7415 88.5484 97.5563 88.7087 97.3711C89.4733 96.4907 88.3125 95.3289 87.432 96.0934Z" fill="white"/>
</g>
<g opacity="0.5">
<mask id="mask3_11099_128870" style="mask-type:luminance" maskUnits="userSpaceOnUse" x="-22" y="18" width="376" height="240">
<path style="mix-blend-mode:multiply" d="M207.459 18.0967H124.358C40.9847 31.9203 -21.272 86.4499 -21.272 151.612C-21.284 171.817 -15.1753 191.773 -3.38516 210.045C8.405 228.317 25.5837 244.451 46.9159 257.287H284.901C326.406 232.172 353.083 194.076 353.083 151.598C353.083 86.4499 290.832 31.9203 207.459 18.0967Z" fill="url(#paint2_radial_11099_128870)"/>
</mask>
<g mask="url(#mask3_11099_128870)">
<path d="M207.458 18.0967H124.357C40.9837 31.9203 -21.2731 86.4499 -21.2731 151.612C-21.2851 171.817 -15.1764 191.773 -3.38626 210.045C8.40391 228.317 25.5826 244.451 46.9148 257.287H284.9C326.405 232.172 353.081 194.076 353.081 151.598C353.081 86.4499 290.831 31.9203 207.458 18.0967Z" fill="url(#paint3_radial_11099_128870)"/>
</g>
<mask id="mask4_11099_128870" style="mask-type:luminance" maskUnits="userSpaceOnUse" x="65" y="72" width="207" height="153">
<path style="mix-blend-mode:multiply" d="M241.584 201.98C281.956 172.45 281.956 124.573 241.584 95.0431C201.213 65.5131 135.758 65.5132 95.3868 95.0431C55.0155 124.573 55.0155 172.45 95.3868 201.98C135.758 231.51 201.213 231.51 241.584 201.98Z" fill="url(#paint4_radial_11099_128870)"/>
</mask>
<g mask="url(#mask4_11099_128870)">
<path d="M241.585 201.98C281.956 172.45 281.956 124.573 241.585 95.0431C201.214 65.5131 135.759 65.5132 95.3873 95.0431C55.016 124.573 55.016 172.45 95.3873 201.98C135.759 231.51 201.214 231.51 241.585 201.98Z" fill="url(#paint5_radial_11099_128870)"/>
</g>
<mask id="mask5_11099_128870" style="mask-type:luminance" maskUnits="userSpaceOnUse" x="96" y="97" width="142" height="105">
<path style="mix-blend-mode:multiply" d="M217.282 185.994C244.87 165.815 244.87 133.097 217.282 112.918C189.694 92.7383 144.965 92.7383 117.377 112.918C89.7888 133.097 89.7889 165.815 117.377 185.994C144.965 206.174 189.694 206.174 217.282 185.994Z" fill="url(#paint6_linear_11099_128870)"/>
</mask>
<g mask="url(#mask5_11099_128870)">
<path d="M217.284 185.994C244.872 165.815 244.872 133.097 217.284 112.918C189.696 92.7383 144.967 92.7383 117.378 112.918C89.7904 133.097 89.7904 165.815 117.379 185.994C144.967 206.174 189.696 206.174 217.284 185.994Z" fill="url(#paint7_linear_11099_128870)"/>
</g>
<mask id="mask6_11099_128870" style="mask-type:luminance" maskUnits="userSpaceOnUse" x="-181" y="124" width="715" height="188">
<path style="mix-blend-mode:multiply" d="M-181 162.008C-156.17 152.808 -121.265 128.255 -97.243 128.25C-75.0478 128.25 -6.99232 168.951 -6.99232 168.951C-6.99232 168.951 56.9127 148.087 85.1714 147.23C101.641 146.746 113.801 157.722 136.513 162.429C147.057 164.612 173.694 159.165 190.581 159.262C210.022 159.374 241.452 183.472 241.452 183.472C241.452 183.472 340.156 154.904 392.212 135.987C408.099 130.211 469.879 151.767 469.879 151.767C487.871 146.199 499.528 138.258 509.689 132.748C527.753 122.958 533.91 124.73 533.91 124.73V312H-181V162.008Z" fill="url(#paint8_linear_11099_128870)"/>
</mask>
<g mask="url(#mask6_11099_128870)">
<path d="M-181.002 162.008C-156.172 152.808 -121.267 128.255 -97.2447 128.25C-75.0494 128.25 -6.99397 168.951 -6.99397 168.951C-6.99397 168.951 56.911 148.087 85.1698 147.23C101.639 146.746 113.799 157.722 136.511 162.429C147.056 164.612 173.693 159.165 190.579 159.262C210.021 159.374 241.45 183.472 241.45 183.472C241.45 183.472 340.154 154.904 392.21 135.987C408.097 130.211 469.877 151.767 469.877 151.767C487.869 146.199 499.526 138.258 509.687 132.748C527.752 122.958 533.908 124.73 533.908 124.73V312H-181.002V162.008Z" fill="url(#paint9_linear_11099_128870)"/>
</g>
<mask id="mask7_11099_128870" style="mask-type:luminance" maskUnits="userSpaceOnUse" x="-98" y="128" width="184" height="65">
<path style="mix-blend-mode:multiply" d="M-43.2836 183.986C-53.4248 151.545 -97.2527 128.251 -97.2527 128.251C-75.0574 128.251 -7.00196 168.952 -7.00196 168.952C-7.00196 168.952 56.903 148.088 85.1618 147.231C85.1618 147.231 33.1323 178.021 15.6567 189.356C2.95382 197.621 -43.2836 183.986 -43.2836 183.986Z" fill="url(#paint10_linear_11099_128870)"/>
</mask>
<g mask="url(#mask7_11099_128870)">
<path d="M-43.2826 183.986C-53.4238 151.545 -97.2517 128.251 -97.2517 128.251C-75.0564 128.251 -7.00098 168.952 -7.00098 168.952C-7.00098 168.952 56.904 148.088 85.1628 147.231C85.1628 147.231 33.1333 178.021 15.6577 189.356C2.9548 197.621 -43.2826 183.986 -43.2826 183.986Z" fill="url(#paint11_linear_11099_128870)"/>
</g>
<mask id="mask8_11099_128870" style="mask-type:luminance" maskUnits="userSpaceOnUse" x="190" y="135" width="203" height="51">
<path style="mix-blend-mode:multiply" d="M190.577 159.263C210.019 159.375 241.448 183.473 241.448 183.473C241.448 183.473 340.152 154.906 392.208 135.988C392.208 135.988 379.783 145.987 370.688 151.511C345.137 167.006 306.075 170.952 279.868 175.992C260.506 179.716 241.475 185.429 240.263 185.429C200.824 185.347 190.577 159.263 190.577 159.263Z" fill="url(#paint12_linear_11099_128870)"/>
</mask>
<g mask="url(#mask8_11099_128870)">
<path d="M190.577 159.263C210.018 159.375 241.448 183.473 241.448 183.473C241.448 183.473 340.152 154.906 392.208 135.988C392.208 135.988 379.783 145.987 370.688 151.511C345.136 167.006 306.074 170.952 279.868 175.992C260.506 179.716 241.474 185.429 240.263 185.429C200.824 185.347 190.577 159.263 190.577 159.263Z" fill="url(#paint13_linear_11099_128870)"/>
</g>
<path d="M136.616 162.434C144.474 163.693 170.852 160.981 176.446 160.013C176.446 160.013 168.436 163.818 166.517 169.396C164.531 175.149 168.033 182.92 167.106 181.574C155.336 164.467 136.616 162.434 136.616 162.434Z" fill="url(#paint14_linear_11099_128870)"/>
<mask id="mask9_11099_128870" style="mask-type:luminance" maskUnits="userSpaceOnUse" x="-181" y="155" width="715" height="157">
<path style="mix-blend-mode:multiply" d="M533.91 192.371C509.08 185.05 471.395 155.606 447.372 155.606C425.177 155.606 352.998 187.989 352.998 187.989C352.998 187.989 295.997 181.298 267.738 180.62C251.269 180.223 239.109 188.967 216.397 192.725C205.852 194.463 170.246 181.549 162.243 186.406C140.471 199.634 111.458 209.478 111.458 209.478C111.458 209.478 54.3045 188.841 30.5272 188.633C3.43343 188.401 -33.0203 203.498 -51.1049 203.619C-70.712 203.75 -126.309 180.605 -140.164 180.402C-160.34 180.102 -181 208.001 -181 208.001V312H533.91V192.371Z" fill="url(#paint15_linear_11099_128870)"/>
</mask>
<g mask="url(#mask9_11099_128870)">
<path d="M533.908 192.371C509.078 185.05 471.393 155.606 447.371 155.606C425.176 155.606 352.996 187.989 352.996 187.989C352.996 187.989 295.995 181.298 267.737 180.62C251.267 180.223 239.107 188.967 216.395 192.725C205.851 194.463 170.244 181.549 162.241 186.406C140.469 199.634 111.456 209.478 111.456 209.478C111.456 209.478 54.3029 188.841 30.5255 188.633C3.43178 188.401 -33.022 203.498 -51.1065 203.619C-70.7136 203.75 -126.311 180.605 -140.166 180.402C-160.342 180.102 -181.002 208.001 -181.002 208.001V312H533.908V192.371Z" fill="url(#paint16_linear_11099_128870)"/>
</g>
<mask id="mask10_11099_128870" style="mask-type:luminance" maskUnits="userSpaceOnUse" x="-141" y="180" width="172" height="37">
<path style="mix-blend-mode:multiply" d="M30.5205 188.617C3.42676 188.385 -33.027 203.482 -51.1116 203.603C-70.7186 203.733 -126.316 180.589 -140.171 180.386C-140.171 180.386 -93.8804 203.196 -75.0544 214.197C-65.7871 219.596 -47.9143 212.168 -42.8305 210.483C-23.8722 204.189 30.5205 188.617 30.5205 188.617Z" fill="url(#paint17_linear_11099_128870)"/>
</mask>
<g mask="url(#mask10_11099_128870)">
<path opacity="0.3" d="M30.5205 188.617C3.42676 188.385 -33.027 203.482 -51.1116 203.603C-70.7186 203.733 -126.316 180.589 -140.171 180.386C-140.171 180.386 -93.8804 203.196 -75.0544 214.197C-65.7871 219.596 -47.9143 212.168 -42.8305 210.483C-23.8722 204.189 30.5205 188.617 30.5205 188.617Z" fill="url(#paint18_linear_11099_128870)"/>
</g>
<mask id="mask11_11099_128870" style="mask-type:luminance" maskUnits="userSpaceOnUse" x="111" y="186" width="52" height="37">
<path style="mix-blend-mode:multiply" d="M162.241 186.387C140.469 199.615 111.456 209.458 111.456 209.458C111.456 209.458 117.777 211.729 124.529 214.329C136.325 218.861 146.566 223.393 144.553 221.912C128.792 210.291 162.241 186.387 162.241 186.387Z" fill="url(#paint19_linear_11099_128870)"/>
</mask>
<g mask="url(#mask11_11099_128870)">
<path opacity="0.5" d="M162.239 186.387C140.468 199.615 111.454 209.458 111.454 209.458C111.454 209.458 117.776 211.729 124.528 214.329C136.324 218.861 146.564 223.393 144.552 221.912C128.791 210.291 162.239 186.387 162.239 186.387Z" fill="url(#paint20_linear_11099_128870)"/>
</g>
<mask id="mask12_11099_128870" style="mask-type:luminance" maskUnits="userSpaceOnUse" x="171" y="183" width="80" height="22">
<path style="mix-blend-mode:multiply" d="M250.705 183.141C250.705 183.141 236.976 190.249 240.339 196.955C242.199 200.663 239.863 204.29 239.863 204.29C204.845 190.733 210.26 198.519 171.681 185.479C177.404 186.129 183.046 187.111 188.555 188.418C197.365 190.466 207.784 192.563 215.033 192.844C216.509 192.902 221.652 191.875 228.503 190.074C234.931 188.355 242.358 185.721 250.705 183.141Z" fill="url(#paint21_linear_11099_128870)"/>
</mask>
<g mask="url(#mask12_11099_128870)">
<path opacity="0.6" d="M250.707 183.141C250.707 183.141 236.978 190.249 240.341 196.955C242.201 200.663 239.864 204.29 239.864 204.29C204.847 190.733 210.262 198.519 171.683 185.479C177.406 186.129 183.048 187.111 188.556 188.418C197.367 190.466 207.786 192.563 215.035 192.844C216.511 192.902 221.654 191.875 228.505 190.074C234.933 188.355 242.36 185.721 250.707 183.141Z" fill="url(#paint22_linear_11099_128870)"/>
</g>
</g>
<defs>
<linearGradient id="paint0_linear_11099_128870" x1="77.9674" y1="200.002" x2="77.9674" y2="122.657" gradientUnits="userSpaceOnUse">
<stop stop-color="#E8F4FF"/>
<stop offset="0.3704" stop-color="#E4F1FA"/>
<stop offset="0.8041" stop-color="#D8E7EC"/>
<stop offset="1" stop-color="#D0E1E3"/>
</linearGradient>
<linearGradient id="paint1_linear_11099_128870" x1="316.839" y1="195.375" x2="316.839" y2="125.705" gradientUnits="userSpaceOnUse">
<stop stop-color="#E8F4FF"/>
<stop offset="0.3704" stop-color="#E4F1FA"/>
<stop offset="0.8041" stop-color="#D8E7EC"/>
<stop offset="1" stop-color="#D0E1E3"/>
</linearGradient>
<radialGradient id="paint2_radial_11099_128870" cx="0" cy="0" r="1" gradientUnits="userSpaceOnUse" gradientTransform="translate(165.909 137.697) scale(175.742 128.548)">
<stop stop-color="#808080"/>
<stop offset="0.81" stop-color="#333333"/>
</radialGradient>
<radialGradient id="paint3_radial_11099_128870" cx="0" cy="0" r="1" gradientUnits="userSpaceOnUse" gradientTransform="translate(165.908 137.697) scale(175.742 128.548)">
<stop stop-color="#F2F3EC"/>
<stop offset="0.81" stop-color="#E9EADF"/>
</radialGradient>
<radialGradient id="paint4_radial_11099_128870" cx="0" cy="0" r="1" gradientUnits="userSpaceOnUse" gradientTransform="translate(168.488 148.51) rotate(90) scale(75.6161 103.377)">
<stop stop-color="#808080"/>
<stop offset="0.81" stop-color="#333333"/>
</radialGradient>
<radialGradient id="paint5_radial_11099_128870" cx="0" cy="0" r="1" gradientUnits="userSpaceOnUse" gradientTransform="translate(168.489 148.51) rotate(90) scale(75.6161 103.377)">
<stop stop-color="#F2F3EC"/>
<stop offset="0.81" stop-color="#E9EADF"/>
</radialGradient>
<linearGradient id="paint6_linear_11099_128870" x1="167.33" y1="97.7844" x2="167.33" y2="201.125" gradientUnits="userSpaceOnUse">
<stop stop-color="#B3B3B3"/>
<stop offset="0.81" stop-color="#666666"/>
</linearGradient>
<linearGradient id="paint7_linear_11099_128870" x1="167.332" y1="97.7844" x2="167.332" y2="201.125" gradientUnits="userSpaceOnUse">
<stop stop-color="#F2F3EC"/>
<stop offset="0.81" stop-color="#E9EADF"/>
</linearGradient>
<linearGradient id="paint8_linear_11099_128870" x1="176.455" y1="124.618" x2="176.455" y2="311.981" gradientUnits="userSpaceOnUse">
<stop stop-color="#808080"/>
<stop offset="0.81" stop-color="#1A1A1A"/>
</linearGradient>
<linearGradient id="paint9_linear_11099_128870" x1="176.453" y1="124.618" x2="176.453" y2="311.981" gradientUnits="userSpaceOnUse">
<stop stop-color="#DDE4F3"/>
<stop offset="0.81" stop-color="#ADB3EA"/>
</linearGradient>
<linearGradient id="paint10_linear_11099_128870" x1="-6.04212" y1="128.251" x2="-6.04212" y2="192.029" gradientUnits="userSpaceOnUse">
<stop stop-color="white"/>
<stop offset="0.03" stop-color="white"/>
<stop offset="0.81" stop-color="#808080"/>
</linearGradient>
<linearGradient id="paint11_linear_11099_128870" x1="-6.04114" y1="128.251" x2="-6.04114" y2="192.029" gradientUnits="userSpaceOnUse">
<stop stop-color="#F2F3EC"/>
<stop offset="0.03" stop-color="#F2F3EB"/>
<stop offset="0.81" stop-color="#E9EADF"/>
</linearGradient>
<linearGradient id="paint12_linear_11099_128870" x1="291.393" y1="136.003" x2="291.393" y2="185.444" gradientUnits="userSpaceOnUse">
<stop stop-color="white"/>
<stop offset="0.81" stop-color="#999999"/>
</linearGradient>
<linearGradient id="paint13_linear_11099_128870" x1="291.392" y1="136.003" x2="291.392" y2="185.444" gradientUnits="userSpaceOnUse">
<stop stop-color="#F2F3EC"/>
<stop offset="0.81" stop-color="#E9EADF"/>
</linearGradient>
<linearGradient id="paint14_linear_11099_128870" x1="156.534" y1="160.027" x2="156.534" y2="181.743" gradientUnits="userSpaceOnUse">
<stop stop-color="#F2F3EC"/>
<stop offset="0.81" stop-color="#E9EADF"/>
</linearGradient>
<linearGradient id="paint15_linear_11099_128870" x1="-181" y1="233.794" x2="533.91" y2="233.794" gradientUnits="userSpaceOnUse">
<stop stop-color="#999999"/>
<stop offset="0.81" stop-color="#4D4D4D"/>
</linearGradient>
<linearGradient id="paint16_linear_11099_128870" x1="-181.002" y1="233.794" x2="533.908" y2="233.794" gradientUnits="userSpaceOnUse">
<stop stop-color="#BCC2EA"/>
<stop offset="0.81" stop-color="#E2C7AE"/>
</linearGradient>
<linearGradient id="paint17_linear_11099_128870" x1="-54.8251" y1="216.134" x2="-54.8251" y2="180.386" gradientUnits="userSpaceOnUse">
<stop stop-color="#808080"/>
<stop offset="0.38" stop-color="#B3B3B3"/>
</linearGradient>
<linearGradient id="paint18_linear_11099_128870" x1="-54.8251" y1="216.134" x2="-54.8251" y2="180.386" gradientUnits="userSpaceOnUse">
<stop stop-color="#EAD9C8"/>
<stop offset="0.38" stop-color="#FFF3E9"/>
</linearGradient>
<linearGradient id="paint19_linear_11099_128870" x1="111.456" y1="204.292" x2="162.241" y2="204.292" gradientUnits="userSpaceOnUse">
<stop stop-color="#808080"/>
<stop offset="0.57" stop-color="#808080"/>
</linearGradient>
<linearGradient id="paint20_linear_11099_128870" x1="111.454" y1="204.292" x2="162.239" y2="204.292" gradientUnits="userSpaceOnUse">
<stop stop-color="#EAD9C8"/>
<stop offset="0.57" stop-color="#FFF3E9"/>
</linearGradient>
<linearGradient id="paint21_linear_11099_128870" x1="171.688" y1="193.715" x2="250.705" y2="193.715" gradientUnits="userSpaceOnUse">
<stop stop-color="#808080"/>
<stop offset="0.57" stop-color="#808080"/>
</linearGradient>
<linearGradient id="paint22_linear_11099_128870" x1="171.69" y1="193.715" x2="250.707" y2="193.715" gradientUnits="userSpaceOnUse">
<stop stop-color="#EAD9C8"/>
<stop offset="0.57" stop-color="#FFF3E9"/>
</linearGradient>
</defs>
</svg>
