<svg width="98" height="98" viewBox="0 0 98 98" fill="none" xmlns="http://www.w3.org/2000/svg">
<g clip-path="url(#clip0_11354_44585)">
<rect width="98" height="98" rx="49" fill="white"/>
<g opacity="0.8" filter="url(#filter0_f_11354_44585)">
<path d="M82.0599 -27.9338C114.958 -62.0142 94.3137 68.7513 64.5235 88.736C34.7332 108.721 -5.66493 100.701 -25.7083 70.823C-45.7516 40.9453 -37.8502 0.52382 -8.05995 -19.4609C21.7303 -39.4455 50.9434 19.4016 82.0599 -27.9338Z" fill="#FCEBE9"/>
<path d="M82.0599 -27.9338C114.958 -62.0142 94.3137 68.7513 64.5235 88.736C34.7332 108.721 -5.66493 100.701 -25.7083 70.823C-45.7516 40.9453 -37.8502 0.52382 -8.05995 -19.4609C21.7303 -39.4455 50.9434 19.4016 82.0599 -27.9338Z" fill="url(#paint0_linear_11354_44585)" fill-opacity="0.2"/>
</g>
<g filter="url(#filter1_f_11354_44585)">
<ellipse cx="60" cy="57.5" rx="52.5" ry="31" transform="rotate(90 60 57.5)" fill="#FFF4D9"/>
</g>
<g opacity="0.5" filter="url(#filter2_ddddd_11354_44585)">
<path d="M18.2765 92.968C18.3014 92.9575 18.3282 92.9522 18.3552 92.9524L165.873 93.8351C165.983 93.8358 166.071 93.9252 166.071 94.0351V106.015C166.071 106.125 165.982 106.215 165.871 106.215H-12.2653C-12.4836 106.215 -12.544 105.915 -12.3428 105.831L18.2765 92.968Z" fill="#F1D6BC"/>
<path d="M18.2765 92.968C18.3014 92.9575 18.3282 92.9522 18.3552 92.9524L165.873 93.8351C165.983 93.8358 166.071 93.9252 166.071 94.0351V106.015C166.071 106.125 165.982 106.215 165.871 106.215H-12.2653C-12.4836 106.215 -12.544 105.915 -12.3428 105.831L18.2765 92.968Z" fill="url(#paint1_linear_11354_44585)"/>
</g>
<path d="M22.3023 62.47C20.9529 63.3147 27.9903 78.1685 40.9492 80.4671C49.6018 82.002 59.856 81.2829 64.0193 79.2212C68.1826 77.1596 77.1885 69.686 75.0646 66.1639C72.9404 62.6418 66.2284 69.0845 62.0653 68.9127C57.902 68.7409 52.8892 67.6241 49.4057 67.6241C45.9221 67.6241 38.8702 70.3729 36.5761 70.0293C34.2822 69.6857 25.8709 60.2364 22.3023 62.47Z" fill="#3E3796"/>
<path d="M22.3023 62.47C20.9529 63.3147 27.9903 78.1685 40.9492 80.4671C49.6018 82.002 59.856 81.2829 64.0193 79.2212C68.1826 77.1596 77.1885 69.686 75.0646 66.1639C72.9404 62.6418 66.2284 69.0845 62.0653 68.9127C57.902 68.7409 52.8892 67.6241 49.4057 67.6241C45.9221 67.6241 38.8702 70.3729 36.5761 70.0293C34.2822 69.6857 25.8709 60.2364 22.3023 62.47Z" fill="url(#paint2_linear_11354_44585)"/>
<path d="M84.6984 32.1892C82.0848 30.4112 78.7769 30.1257 75.6402 29.7454C71.5571 29.2505 67.3319 28.4313 64.0612 25.9344C60.7029 23.3707 58.6588 19.2584 55.0101 17.1295C51.0248 14.8039 45.5028 15.5506 42.2762 18.8512C40.637 20.528 39.6722 22.7839 39.4316 25.1143C39.3371 25.3327 39.2479 25.5541 39.1646 25.7782C37.8227 29.3869 38.2723 33.866 41.0652 36.5128C42.7846 38.1422 45.1288 38.8974 47.177 40.0861C52.1463 42.9701 55.3477 48.3963 60.5213 50.8946C64.9254 53.0212 70.1308 52.6947 74.8831 51.5436C77.4114 50.9311 80.0207 50.0125 81.7004 48.0236C83.3803 46.0347 83.7005 42.6964 81.7513 40.9716C83.8218 40.5601 86.1894 39.923 87.0579 37.9964C87.9915 35.9251 86.5758 33.4663 84.6984 32.1892Z" fill="#F284D2"/>
<path d="M84.6984 32.1892C82.0848 30.4112 78.7769 30.1257 75.6402 29.7454C71.5571 29.2505 67.3319 28.4313 64.0612 25.9344C60.7029 23.3707 58.6588 19.2584 55.0101 17.1295C51.0248 14.8039 45.5028 15.5506 42.2762 18.8512C40.637 20.528 39.6722 22.7839 39.4316 25.1143C39.3371 25.3327 39.2479 25.5541 39.1646 25.7782C37.8227 29.3869 38.2723 33.866 41.0652 36.5128C42.7846 38.1422 45.1288 38.8974 47.177 40.0861C52.1463 42.9701 55.3477 48.3963 60.5213 50.8946C64.9254 53.0212 70.1308 52.6947 74.8831 51.5436C77.4114 50.9311 80.0207 50.0125 81.7004 48.0236C83.3803 46.0347 83.7005 42.6964 81.7513 40.9716C83.8218 40.5601 86.1894 39.923 87.0579 37.9964C87.9915 35.9251 86.5758 33.4663 84.6984 32.1892Z" fill="url(#paint3_linear_11354_44585)"/>
<path d="M84.6984 32.1892C82.0848 30.4112 78.7769 30.1257 75.6402 29.7454C71.5571 29.2505 67.3319 28.4313 64.0612 25.9344C60.7029 23.3707 58.6588 19.2584 55.0101 17.1295C51.0248 14.8039 45.5028 15.5506 42.2762 18.8512C40.637 20.528 39.6722 22.7839 39.4316 25.1143C39.3371 25.3327 39.2479 25.5541 39.1646 25.7782C37.8227 29.3869 38.2723 33.866 41.0652 36.5128C42.7846 38.1422 45.1288 38.8974 47.177 40.0861C52.1463 42.9701 55.3477 48.3963 60.5213 50.8946C64.9254 53.0212 70.1308 52.6947 74.8831 51.5436C77.4114 50.9311 80.0207 50.0125 81.7004 48.0236C83.3803 46.0347 83.7005 42.6964 81.7513 40.9716C83.8218 40.5601 86.1894 39.923 87.0579 37.9964C87.9915 35.9251 86.5758 33.4663 84.6984 32.1892Z" fill="url(#paint4_linear_11354_44585)" fill-opacity="0.5"/>
<mask id="mask0_11354_44585" style="mask-type:luminance" maskUnits="userSpaceOnUse" x="38" y="15" width="50" height="38">
<path d="M84.6962 32.1892C82.0826 30.4112 78.7747 30.1257 75.638 29.7454C71.5549 29.2505 67.3297 28.4313 64.059 25.9344C60.7007 23.3707 58.6566 19.2584 55.0079 17.1295C51.0226 14.8039 45.5006 15.5506 42.274 18.8512C40.6348 20.528 39.67 22.7839 39.4294 25.1143C39.3349 25.3327 39.2457 25.5541 39.1624 25.7782C37.8205 29.3869 38.2701 33.866 41.063 36.5128C42.7824 38.1422 45.1266 38.8974 47.1748 40.0861C52.1441 42.9701 55.3455 48.3963 60.5191 50.8946C64.9232 53.0212 70.1286 52.6947 74.8809 51.5436C77.4092 50.9311 80.0185 50.0125 81.6982 48.0236C83.3781 46.0347 83.6983 42.6964 81.7491 40.9716C83.8196 40.5601 86.1872 39.923 87.0557 37.9964C87.9893 35.9251 86.5736 33.4663 84.6962 32.1892Z" fill="white"/>
</mask>
<g mask="url(#mask0_11354_44585)">
<g opacity="0.32">
<path d="M58.8558 28.446C61.5412 30.2986 64.5206 31.6996 67.162 33.6145C68.7497 34.7655 70.3313 36.372 70.2577 38.3335C70.1889 40.1669 68.7073 41.5915 67.3319 42.8034C70.3804 44.1079 73.0495 46.2883 74.9377 49.0169C75.5675 49.927 76.1321 50.9913 75.9773 52.0874C75.7457 53.7286 74.0439 54.715 72.4663 55.2159C69.2098 56.25 65.68 56.2767 62.3356 55.5783C58.9911 54.8799 55.8215 53.4769 52.8884 51.7225C47.7917 48.674 43.1711 44.2487 41.5416 38.5322C40.5217 34.9543 40.7517 31.0855 41.8375 27.5271C42.5757 25.1072 43.7896 22.7033 45.8762 21.2762C47.7679 19.9825 51.4851 19.4773 52.9595 21.6843C53.7673 22.8935 54.2558 24.1807 55.2388 25.3019C56.2951 26.5067 57.54 27.5384 58.8558 28.446Z" fill="#F284D2"/>
<path d="M58.8558 28.446C61.5412 30.2986 64.5206 31.6996 67.162 33.6145C68.7497 34.7655 70.3313 36.372 70.2577 38.3335C70.1889 40.1669 68.7073 41.5915 67.3319 42.8034C70.3804 44.1079 73.0495 46.2883 74.9377 49.0169C75.5675 49.927 76.1321 50.9913 75.9773 52.0874C75.7457 53.7286 74.0439 54.715 72.4663 55.2159C69.2098 56.25 65.68 56.2767 62.3356 55.5783C58.9911 54.8799 55.8215 53.4769 52.8884 51.7225C47.7917 48.674 43.1711 44.2487 41.5416 38.5322C40.5217 34.9543 40.7517 31.0855 41.8375 27.5271C42.5757 25.1072 43.7896 22.7033 45.8762 21.2762C47.7679 19.9825 51.4851 19.4773 52.9595 21.6843C53.7673 22.8935 54.2558 24.1807 55.2388 25.3019C56.2951 26.5067 57.54 27.5384 58.8558 28.446Z" fill="url(#paint5_linear_11354_44585)"/>
<path d="M58.8558 28.446C61.5412 30.2986 64.5206 31.6996 67.162 33.6145C68.7497 34.7655 70.3313 36.372 70.2577 38.3335C70.1889 40.1669 68.7073 41.5915 67.3319 42.8034C70.3804 44.1079 73.0495 46.2883 74.9377 49.0169C75.5675 49.927 76.1321 50.9913 75.9773 52.0874C75.7457 53.7286 74.0439 54.715 72.4663 55.2159C69.2098 56.25 65.68 56.2767 62.3356 55.5783C58.9911 54.8799 55.8215 53.4769 52.8884 51.7225C47.7917 48.674 43.1711 44.2487 41.5416 38.5322C40.5217 34.9543 40.7517 31.0855 41.8375 27.5271C42.5757 25.1072 43.7896 22.7033 45.8762 21.2762C47.7679 19.9825 51.4851 19.4773 52.9595 21.6843C53.7673 22.8935 54.2558 24.1807 55.2388 25.3019C56.2951 26.5067 57.54 27.5384 58.8558 28.446Z" fill="url(#paint6_linear_11354_44585)" fill-opacity="0.5"/>
</g>
</g>
<mask id="mask1_11354_44585" style="mask-type:luminance" maskUnits="userSpaceOnUse" x="38" y="15" width="50" height="38">
<path d="M84.6962 32.1892C82.0826 30.4112 78.7747 30.1257 75.638 29.7454C71.5549 29.2505 67.3297 28.4313 64.059 25.9344C60.7007 23.3707 58.6566 19.2584 55.0079 17.1295C51.0226 14.8039 45.5006 15.5506 42.274 18.8512C40.6348 20.528 39.67 22.7839 39.4294 25.1143C39.3349 25.3327 39.2457 25.5541 39.1624 25.7782C37.8205 29.3869 38.2701 33.866 41.063 36.5128C42.7824 38.1422 45.1266 38.8974 47.1748 40.0861C52.1441 42.9701 55.3455 48.3963 60.5191 50.8946C64.9232 53.0212 70.1286 52.6947 74.8809 51.5436C77.4092 50.9311 80.0185 50.0125 81.6982 48.0236C83.3781 46.0347 83.6983 42.6964 81.7491 40.9716C83.8196 40.5601 86.1872 39.923 87.0557 37.9964C87.9893 35.9251 86.5736 33.4663 84.6962 32.1892Z" fill="white"/>
</mask>
<g mask="url(#mask1_11354_44585)">
<g opacity="0.39">
<path d="M84.1962 31.8735C84.0739 31.8012 83.9489 31.7346 83.8239 31.6678C78.2832 30.9039 72.5812 31.1384 67.2122 29.3983C63.9688 28.3471 60.8841 26.5346 58.8414 23.7477C58.8333 23.7367 58.8147 23.7472 58.8228 23.7585C62.409 28.7662 68.7089 30.3199 74.4994 30.9331C77.7284 31.275 80.9823 31.3975 84.1962 31.8735Z" fill="#E2B4FF"/>
<path d="M79.4076 33.1442C76.4343 32.0972 73.2708 31.8248 70.2083 31.1485C67.4484 30.5389 64.8607 29.4869 62.5945 27.7761C60.1944 25.9641 58.245 23.5623 56.9778 20.8326C56.9691 20.8137 56.9416 20.83 56.9501 20.8489C58.9784 25.3994 62.9064 28.9933 67.6174 30.6048C73.0864 32.4757 79.9078 31.8432 84.2298 36.2967C85.0541 37.1463 85.6893 38.1795 86.0689 39.2858C86.1324 39.2316 86.1937 39.1751 86.2538 39.1174C86.0795 38.625 85.857 38.1503 85.5866 37.7089C84.2055 35.4546 81.8501 34.0043 79.4076 33.1442Z" fill="#E2B4FF"/>
<path d="M82.439 46.8901C81.1643 46.4223 79.9573 45.7698 78.8764 44.9465C76.1327 42.8566 74.423 39.773 72.3634 37.0733C71.2711 35.6414 70.0558 34.2962 68.5749 33.2582C68.5664 33.2522 68.5584 33.266 68.5668 33.2722C71.4616 35.3669 73.187 38.561 75.2853 41.3693C76.2761 42.6954 77.3618 43.9654 78.6695 44.9895C79.7832 45.8615 81.0347 46.5491 82.359 47.0422C82.386 46.9914 82.4133 46.9411 82.439 46.8901Z" fill="#E2B4FF"/>
</g>
</g>
<path d="M46.8887 36.3353C46.8985 36.6893 46.9083 37.0555 46.7861 37.3873C46.7104 37.5938 46.5907 37.7781 46.4661 37.9576C45.9922 38.6409 45.4523 39.2799 44.8562 39.86C45.6355 40.0837 47.3065 41.4872 48.1176 41.497C50.3333 41.5265 51.6965 40.1279 53.9122 40.1181C53.8976 39.8649 53.6655 39.6855 53.4579 39.5405C52.7787 39.0636 52.102 38.5327 51.694 37.8052C51.0735 36.6966 51.1786 35.3374 51.3032 34.0715C50.3993 34.0789 49.4929 34.0887 48.589 34.0961C48.2324 34.0986 47.0646 33.9904 46.8399 34.3173C46.62 34.6393 46.879 35.9273 46.8887 36.3353Z" fill="#EE9075"/>
<path d="M46.8887 36.3353C46.8985 36.6893 46.9083 37.0555 46.7861 37.3873C46.7104 37.5938 46.5907 37.7781 46.4661 37.9576C45.9922 38.6409 45.4523 39.2799 44.8562 39.86C45.6355 40.0837 47.3065 41.4872 48.1176 41.497C50.3333 41.5265 51.6965 40.1279 53.9122 40.1181C53.8976 39.8649 53.6655 39.6855 53.4579 39.5405C52.7787 39.0636 52.102 38.5327 51.694 37.8052C51.0735 36.6966 51.1786 35.3374 51.3032 34.0715C50.3993 34.0789 49.4929 34.0887 48.589 34.0961C48.2324 34.0986 47.0646 33.9904 46.8399 34.3173C46.62 34.6393 46.879 35.9273 46.8887 36.3353Z" fill="url(#paint7_linear_11354_44585)"/>
<path d="M19.404 59.1717C19.2417 58.7763 18.7355 58.7067 18.3672 58.6449C17.8899 58.565 17.4016 58.5041 17.048 58.1353C16.6797 57.7511 16.654 57.2256 16.4205 56.7741C16.1951 56.3382 15.8182 55.9875 15.3793 55.7728C14.991 55.5828 14.1676 55.3224 13.8351 55.7248C13.6787 55.914 13.5945 56.219 13.7711 56.4241C13.9431 56.6239 14.255 56.6002 14.4981 56.702C14.8575 56.8526 15.0364 57.3103 14.916 57.6812C14.7956 58.0522 14.4199 58.3103 14.0314 58.3376C13.6429 58.3649 13.2562 58.1831 12.9888 57.8994C12.6079 57.4955 12.5035 56.761 12.9429 56.4218C13.1464 56.2647 13.4608 56.1754 13.4931 55.9202C13.5291 55.6354 13.173 55.4756 12.8877 55.4467C12.4712 55.4044 11.3664 55.942 11.2584 56.764C11.2148 57.0961 11.2701 57.3767 11.3953 57.6174C11.002 57.297 10.5811 56.9852 10.1667 56.7651C9.7743 56.5568 9.32983 56.9606 9.51927 57.3629C9.68004 57.7038 9.91031 58.017 10.1752 58.2855C10.68 58.7972 11.3047 59.1706 11.9221 59.5383C11.2467 59.2326 10.6754 58.7421 10.0596 58.3291C9.7977 58.1534 9.51905 57.9897 9.22869 57.8629C8.70579 57.6346 8.21613 58.2749 8.58079 58.714C8.86243 59.0532 9.21218 59.3426 9.58762 59.5737C9.97544 59.8123 10.3915 59.9958 10.8187 60.1538C10.6236 60.1242 10.3931 60.0989 10.0493 60.0472C9.80963 60.0114 9.50941 60.0118 9.39198 60.2241C9.26814 60.4475 9.43717 60.7295 9.63349 60.8931C10.5738 61.6757 11.7836 62.1424 13.5115 62.2712C14.8816 62.3734 18.1878 61.9849 18.53 61.8161C19.8061 61.1854 19.5871 59.6182 19.404 59.1717Z" fill="black"/>
<path d="M19.404 59.1717C19.2417 58.7763 18.7355 58.7067 18.3672 58.6449C17.8899 58.565 17.4016 58.5041 17.048 58.1353C16.6797 57.7511 16.654 57.2256 16.4205 56.7741C16.1951 56.3382 15.8182 55.9875 15.3793 55.7728C14.991 55.5828 14.1676 55.3224 13.8351 55.7248C13.6787 55.914 13.5945 56.219 13.7711 56.4241C13.9431 56.6239 14.255 56.6002 14.4981 56.702C14.8575 56.8526 15.0364 57.3103 14.916 57.6812C14.7956 58.0522 14.4199 58.3103 14.0314 58.3376C13.6429 58.3649 13.2562 58.1831 12.9888 57.8994C12.6079 57.4955 12.5035 56.761 12.9429 56.4218C13.1464 56.2647 13.4608 56.1754 13.4931 55.9202C13.5291 55.6354 13.173 55.4756 12.8877 55.4467C12.4712 55.4044 11.3664 55.942 11.2584 56.764C11.2148 57.0961 11.2701 57.3767 11.3953 57.6174C11.002 57.297 10.5811 56.9852 10.1667 56.7651C9.7743 56.5568 9.32983 56.9606 9.51927 57.3629C9.68004 57.7038 9.91031 58.017 10.1752 58.2855C10.68 58.7972 11.3047 59.1706 11.9221 59.5383C11.2467 59.2326 10.6754 58.7421 10.0596 58.3291C9.7977 58.1534 9.51905 57.9897 9.22869 57.8629C8.70579 57.6346 8.21613 58.2749 8.58079 58.714C8.86243 59.0532 9.21218 59.3426 9.58762 59.5737C9.97544 59.8123 10.3915 59.9958 10.8187 60.1538C10.6236 60.1242 10.3931 60.0989 10.0493 60.0472C9.80963 60.0114 9.50941 60.0118 9.39198 60.2241C9.26814 60.4475 9.43717 60.7295 9.63349 60.8931C10.5738 61.6757 11.7836 62.1424 13.5115 62.2712C14.8816 62.3734 18.1878 61.9849 18.53 61.8161C19.8061 61.1854 19.5871 59.6182 19.404 59.1717Z" fill="url(#paint8_linear_11354_44585)"/>
<path d="M78.5093 59.1717C78.6717 58.7763 79.1778 58.7067 79.5461 58.6449C80.0234 58.565 80.5117 58.5041 80.8653 58.1353C81.2337 57.7511 81.2594 57.2256 81.4928 56.7741C81.7183 56.3382 82.0951 55.9875 82.5341 55.7728C82.9223 55.5828 83.7457 55.3224 84.0782 55.7248C84.2347 55.914 84.3188 56.219 84.1422 56.4241C83.9702 56.6239 83.6583 56.6002 83.4152 56.702C83.0558 56.8526 82.8769 57.3103 82.9973 57.6812C83.1177 58.0522 83.4934 58.3103 83.8819 58.3376C84.2704 58.3649 84.6571 58.1831 84.9245 57.8994C85.3055 57.4955 85.4098 56.761 84.9704 56.4218C84.767 56.2647 84.4525 56.1754 84.4202 55.9202C84.3842 55.6354 84.7404 55.4756 85.0257 55.4467C85.4422 55.4044 86.5469 55.942 86.6549 56.764C86.6985 57.0961 86.6432 57.3767 86.518 57.6174C86.9113 57.297 87.3322 56.9852 87.7466 56.7651C88.139 56.5568 88.5835 56.9606 88.3941 57.3629C88.2333 57.7038 88.003 58.017 87.7381 58.2855C87.2333 58.7972 86.6086 59.1706 85.9912 59.5383C86.6666 59.2326 87.2379 58.7421 87.8537 58.3291C88.1156 58.1534 88.3943 57.9897 88.6846 57.8629C89.2075 57.6346 89.6972 58.2749 89.3325 58.714C89.0509 59.0532 88.7011 59.3426 88.3257 59.5737C87.9379 59.8123 87.5219 59.9958 87.0946 60.1538C87.2898 60.1242 87.5202 60.0989 87.864 60.0472C88.1037 60.0114 88.4039 60.0118 88.5213 60.2241C88.6452 60.4475 88.4762 60.7295 88.2798 60.8931C87.3395 61.6757 86.1297 62.1424 84.4018 62.2712C83.0317 62.3734 79.7255 61.9849 79.3833 61.8161C78.1072 61.1854 78.3263 59.6182 78.5093 59.1717Z" fill="black"/>
<path d="M78.5093 59.1717C78.6717 58.7763 79.1778 58.7067 79.5461 58.6449C80.0234 58.565 80.5117 58.5041 80.8653 58.1353C81.2337 57.7511 81.2594 57.2256 81.4928 56.7741C81.7183 56.3382 82.0951 55.9875 82.5341 55.7728C82.9223 55.5828 83.7457 55.3224 84.0782 55.7248C84.2347 55.914 84.3188 56.219 84.1422 56.4241C83.9702 56.6239 83.6583 56.6002 83.4152 56.702C83.0558 56.8526 82.8769 57.3103 82.9973 57.6812C83.1177 58.0522 83.4934 58.3103 83.8819 58.3376C84.2704 58.3649 84.6571 58.1831 84.9245 57.8994C85.3055 57.4955 85.4098 56.761 84.9704 56.4218C84.767 56.2647 84.4525 56.1754 84.4202 55.9202C84.3842 55.6354 84.7404 55.4756 85.0257 55.4467C85.4422 55.4044 86.5469 55.942 86.6549 56.764C86.6985 57.0961 86.6432 57.3767 86.518 57.6174C86.9113 57.297 87.3322 56.9852 87.7466 56.7651C88.139 56.5568 88.5835 56.9606 88.3941 57.3629C88.2333 57.7038 88.003 58.017 87.7381 58.2855C87.2333 58.7972 86.6086 59.1706 85.9912 59.5383C86.6666 59.2326 87.2379 58.7421 87.8537 58.3291C88.1156 58.1534 88.3943 57.9897 88.6846 57.8629C89.2075 57.6346 89.6972 58.2749 89.3325 58.714C89.0509 59.0532 88.7011 59.3426 88.3257 59.5737C87.9379 59.8123 87.5219 59.9958 87.0946 60.1538C87.2898 60.1242 87.5202 60.0989 87.864 60.0472C88.1037 60.0114 88.4039 60.0118 88.5213 60.2241C88.6452 60.4475 88.4762 60.7295 88.2798 60.8931C87.3395 61.6757 86.1297 62.1424 84.4018 62.2712C83.0317 62.3734 79.7255 61.9849 79.3833 61.8161C78.1072 61.1854 78.3263 59.6182 78.5093 59.1717Z" fill="url(#paint9_linear_11354_44585)"/>
<path d="M80.8593 57.277C80.5841 56.854 79.3844 57.8916 78.7587 57.5347C78.1331 57.1778 77.5143 56.191 77.0235 56.3258C76.5327 56.4606 75.7598 56.8025 74.786 56.3019C73.8124 55.8012 69.5005 53.5848 66.8706 51.0358C64.2405 48.487 59.6848 42.9067 58.2284 41.7708C56.3398 40.2978 53.5415 39.5025 51.2029 39.1972C47.6496 38.7333 43.1364 39.3784 40.1884 41.5784C38.7082 42.6828 34.0348 48.1648 31.351 50.6568C28.6674 53.1491 24.3094 55.2732 23.3253 55.7528C22.3412 56.2325 21.5758 55.8743 21.0878 55.7289C20.6 55.5837 19.9601 56.557 19.3271 56.9004C18.6941 57.2437 17.5167 56.1809 17.2325 56.5979C16.9483 57.015 16.3186 59.1683 16.4211 60.5805C16.4821 61.4215 16.4039 62.1908 16.8889 62.6162C17.374 63.0415 20.7518 62.3883 22.9093 61.9802C25.3616 61.5163 29.4309 60.2293 33.7942 57.6151C38.1575 55.0009 39.5056 50.1045 39.9042 50.9999C40.3026 51.8954 37.6011 64.9091 37.7422 65.9795C37.8832 67.05 38.0073 67.3398 38.1678 67.8037C38.3284 68.2674 37.363 68.5584 37.5598 69.1714C37.7566 69.7843 44.1255 71.8689 49.6085 71.6675C54.9286 71.4721 59.8375 69.7147 60.9634 68.8641C61.928 68.1351 60.8368 65.915 60.0657 62.6157C59.0091 58.0958 58.172 51.2344 58.3353 50.9738C58.6181 50.5229 59.973 55.2335 64.2797 57.9403C68.5863 60.6471 72.6274 62.0207 75.0692 62.5367C77.2175 62.9907 80.5809 63.7158 81.0746 63.301C81.5687 62.8862 81.5067 62.1153 81.5856 61.2759C81.7184 59.8662 81.1345 57.7001 80.8593 57.277Z" fill="url(#paint10_linear_11354_44585)"/>
<path d="M80.8593 57.277C80.5841 56.854 79.3844 57.8916 78.7587 57.5347C78.1331 57.1778 77.5143 56.191 77.0235 56.3258C76.5327 56.4606 75.7598 56.8025 74.786 56.3019C73.8124 55.8012 69.5005 53.5848 66.8706 51.0358C64.2405 48.487 59.6848 42.9067 58.2284 41.7708C56.3398 40.2978 53.5415 39.5025 51.2029 39.1972C47.6496 38.7333 43.1364 39.3784 40.1884 41.5784C38.7082 42.6828 34.0348 48.1648 31.351 50.6568C28.6674 53.1491 24.3094 55.2732 23.3253 55.7528C22.3412 56.2325 21.5758 55.8743 21.0878 55.7289C20.6 55.5837 19.9601 56.557 19.3271 56.9004C18.6941 57.2437 17.5167 56.1809 17.2325 56.5979C16.9483 57.015 16.3186 59.1683 16.4211 60.5805C16.4821 61.4215 16.4039 62.1908 16.8889 62.6162C17.374 63.0415 20.7518 62.3883 22.9093 61.9802C25.3616 61.5163 29.4309 60.2293 33.7942 57.6151C38.1575 55.0009 39.5056 50.1045 39.9042 50.9999C40.3026 51.8954 37.6011 64.9091 37.7422 65.9795C37.8832 67.05 38.0073 67.3398 38.1678 67.8037C38.3284 68.2674 37.363 68.5584 37.5598 69.1714C37.7566 69.7843 44.1255 71.8689 49.6085 71.6675C54.9286 71.4721 59.8375 69.7147 60.9634 68.8641C61.928 68.1351 60.8368 65.915 60.0657 62.6157C59.0091 58.0958 58.172 51.2344 58.3353 50.9738C58.6181 50.5229 59.973 55.2335 64.2797 57.9403C68.5863 60.6471 72.6274 62.0207 75.0692 62.5367C77.2175 62.9907 80.5809 63.7158 81.0746 63.301C81.5687 62.8862 81.5067 62.1153 81.5856 61.2759C81.7184 59.8662 81.1345 57.7001 80.8593 57.277Z" fill="white"/>
<path d="M59.2562 67.8685C57.1976 68.4489 55.0857 68.8255 52.9689 69.1174C51.9476 69.2582 50.9208 69.3997 49.8934 69.4853C48.8008 69.5765 47.7008 69.5811 46.6064 69.5202C44.7285 69.4157 42.9009 69.0726 41.067 68.6769C40.3432 68.5208 39.6157 68.3563 38.9229 68.0901C38.6612 67.9896 38.3839 67.8731 38.1323 67.7211C38.1419 67.7486 38.1513 67.7755 38.1614 67.8042C38.322 68.2681 37.3567 68.5589 37.5534 69.1718C37.7502 69.7848 44.1191 71.8697 49.6021 71.668C54.9222 71.4726 59.8311 69.7152 60.957 68.8646C61.354 68.5646 61.3996 68.0082 61.2659 67.2314C60.6031 67.4668 59.9309 67.6784 59.2562 67.8685Z" fill="url(#paint11_linear_11354_44585)"/>
<path d="M59.2562 67.8685C57.1976 68.4489 55.0857 68.8255 52.9689 69.1174C51.9476 69.2582 50.9208 69.3997 49.8934 69.4853C48.8008 69.5765 47.7008 69.5811 46.6064 69.5202C44.7285 69.4157 42.9009 69.0726 41.067 68.6769C40.3432 68.5208 39.6157 68.3563 38.9229 68.0901C38.6612 67.9896 38.3839 67.8731 38.1323 67.7211C38.1419 67.7486 38.1513 67.7755 38.1614 67.8042C38.322 68.2681 37.3567 68.5589 37.5534 69.1718C37.7502 69.7848 44.1191 71.8697 49.6021 71.668C54.9222 71.4726 59.8311 69.7152 60.957 68.8646C61.354 68.5646 61.3996 68.0082 61.2659 67.2314C60.6031 67.4668 59.9309 67.6784 59.2562 67.8685Z" fill="url(#paint12_linear_11354_44585)" fill-opacity="0.2"/>
<path d="M59.2562 67.8685C57.1976 68.4489 55.0857 68.8255 52.9689 69.1174C51.9476 69.2582 50.9208 69.3997 49.8934 69.4853C48.8008 69.5765 47.7008 69.5811 46.6064 69.5202C44.7285 69.4157 42.9009 69.0726 41.067 68.6769C40.3432 68.5208 39.6157 68.3563 38.9229 68.0901C38.6612 67.9896 38.3839 67.8731 38.1323 67.7211C38.1419 67.7486 38.1513 67.7755 38.1614 67.8042C38.322 68.2681 37.3567 68.5589 37.5534 69.1718C37.7502 69.7848 44.1191 71.8697 49.6021 71.668C54.9222 71.4726 59.8311 69.7152 60.957 68.8646C61.354 68.5646 61.3996 68.0082 61.2659 67.2314C60.6031 67.4668 59.9309 67.6784 59.2562 67.8685Z" fill="url(#paint13_linear_11354_44585)"/>
<path d="M41.4817 41.5075C42.1906 42.1439 42.9566 42.73 43.7642 43.2345C47.0431 45.2829 50.867 45.9794 54.6491 46.3949C56.2096 46.5662 57.7872 46.6916 59.3564 46.5756C60.3032 46.5056 61.2978 46.3437 62.1849 45.9618C60.505 44.0719 58.9661 42.3487 58.2264 41.7718C56.3378 40.2988 53.5395 39.5035 51.2007 39.1983C47.9568 38.7745 43.9167 39.2798 40.9939 41.044C41.1558 41.2099 41.323 41.3649 41.4817 41.5075Z" fill="url(#paint14_linear_11354_44585)"/>
<path d="M44.3076 41.7032C46.9836 43.805 50.3511 44.7958 53.7094 45.0224C55.5648 45.1476 57.4277 45.0172 59.2492 44.6447C59.7345 44.5454 60.2145 44.4265 60.6906 44.2937C59.6306 43.1202 58.7343 42.1703 58.2222 41.7707C56.3335 40.2976 53.5353 39.5023 51.1964 39.1971C48.5447 38.8508 45.3589 39.1234 42.6875 40.1977C43.1948 40.7347 43.7255 41.2459 44.3076 41.7032Z" fill="#FFC8CA"/>
<path d="M44.3076 41.7032C46.9836 43.805 50.3511 44.7958 53.7094 45.0224C55.5648 45.1476 57.4277 45.0172 59.2492 44.6447C59.7345 44.5454 60.2145 44.4265 60.6906 44.2937C59.6306 43.1202 58.7343 42.1703 58.2222 41.7707C56.3335 40.2976 53.5353 39.5023 51.1964 39.1971C48.5447 38.8508 45.3589 39.1234 42.6875 40.1977C43.1948 40.7347 43.7255 41.2459 44.3076 41.7032Z" fill="url(#paint15_linear_11354_44585)"/>
<path d="M42.2021 49.3647C42.2021 49.3647 41.4873 53.4892 44.4593 53.4892C47.4314 53.4892 47.1457 49.4927 47.1457 49.4927L42.2021 49.3647Z" fill="url(#paint16_linear_11354_44585)"/>
<path d="M42.2021 49.3647C42.2021 49.3647 41.4873 53.4892 44.4593 53.4892C47.4314 53.4892 47.1457 49.4927 47.1457 49.4927L42.2021 49.3647Z" fill="url(#paint17_linear_11354_44585)" fill-opacity="0.2"/>
<path d="M42.2021 49.3647C42.2021 49.3647 41.4873 53.4892 44.4593 53.4892C47.4314 53.4892 47.1457 49.4927 47.1457 49.4927L42.2021 49.3647Z" fill="url(#paint18_linear_11354_44585)"/>
<path d="M44.7249 51.1089L44.5004 51.1135C43.9483 51.1245 43.4114 50.8974 43.0167 50.4854L42.0766 49.5042C41.9966 49.4206 42.0576 49.2819 42.1732 49.2845L47.1892 49.397C47.3108 49.3998 47.3621 49.5534 47.2667 49.6287L45.9503 50.6693C45.6005 50.9456 45.1703 51.0999 44.7249 51.1089Z" fill="url(#paint19_linear_11354_44585)"/>
<path d="M44.7249 51.1089L44.5004 51.1135C43.9483 51.1245 43.4114 50.8974 43.0167 50.4854L42.0766 49.5042C41.9966 49.4206 42.0576 49.2819 42.1732 49.2845L47.1892 49.397C47.3108 49.3998 47.3621 49.5534 47.2667 49.6287L45.9503 50.6693C45.6005 50.9456 45.1703 51.0999 44.7249 51.1089Z" fill="url(#paint20_linear_11354_44585)" fill-opacity="0.2"/>
<path d="M44.7249 51.1089L44.5004 51.1135C43.9483 51.1245 43.4114 50.8974 43.0167 50.4854L42.0766 49.5042C41.9966 49.4206 42.0576 49.2819 42.1732 49.2845L47.1892 49.397C47.3108 49.3998 47.3621 49.5534 47.2667 49.6287L45.9503 50.6693C45.6005 50.9456 45.1703 51.0999 44.7249 51.1089Z" fill="url(#paint21_linear_11354_44585)"/>
<path d="M39.8669 50.2878C39.8116 49.5359 39.7623 48.7863 39.6619 48.0387C39.6571 48.0024 39.5981 48.0116 39.5986 48.0472C39.6119 48.8265 39.6802 49.6007 39.7408 50.3771C39.7458 50.4424 39.7506 50.5078 39.7555 50.573C39.7059 50.3705 39.6481 50.1695 39.5834 49.9722C39.4864 49.6762 39.3796 49.3719 39.2284 49.0986C39.2082 49.0621 39.1454 49.0867 39.1599 49.1276C39.264 49.4257 39.3936 49.7153 39.5 50.0129C39.602 50.2979 39.6814 50.5898 39.7784 50.8764C39.822 51.46 39.869 52.0452 39.9637 52.6211C39.9662 52.6365 39.9899 52.6324 39.9901 52.6177C39.9997 51.8415 39.9238 51.0615 39.8669 50.2878Z" fill="url(#paint22_linear_11354_44585)"/>
<path d="M39.8669 50.2878C39.8116 49.5359 39.7623 48.7863 39.6619 48.0387C39.6571 48.0024 39.5981 48.0116 39.5986 48.0472C39.6119 48.8265 39.6802 49.6007 39.7408 50.3771C39.7458 50.4424 39.7506 50.5078 39.7555 50.573C39.7059 50.3705 39.6481 50.1695 39.5834 49.9722C39.4864 49.6762 39.3796 49.3719 39.2284 49.0986C39.2082 49.0621 39.1454 49.0867 39.1599 49.1276C39.264 49.4257 39.3936 49.7153 39.5 50.0129C39.602 50.2979 39.6814 50.5898 39.7784 50.8764C39.822 51.46 39.869 52.0452 39.9637 52.6211C39.9662 52.6365 39.9899 52.6324 39.9901 52.6177C39.9997 51.8415 39.9238 51.0615 39.8669 50.2878Z" fill="url(#paint23_linear_11354_44585)" fill-opacity="0.2"/>
<path d="M39.8669 50.2878C39.8116 49.5359 39.7623 48.7863 39.6619 48.0387C39.6571 48.0024 39.5981 48.0116 39.5986 48.0472C39.6119 48.8265 39.6802 49.6007 39.7408 50.3771C39.7458 50.4424 39.7506 50.5078 39.7555 50.573C39.7059 50.3705 39.6481 50.1695 39.5834 49.9722C39.4864 49.6762 39.3796 49.3719 39.2284 49.0986C39.2082 49.0621 39.1454 49.0867 39.1599 49.1276C39.264 49.4257 39.3936 49.7153 39.5 50.0129C39.602 50.2979 39.6814 50.5898 39.7784 50.8764C39.822 51.46 39.869 52.0452 39.9637 52.6211C39.9662 52.6365 39.9899 52.6324 39.9901 52.6177C39.9997 51.8415 39.9238 51.0615 39.8669 50.2878Z" fill="url(#paint24_linear_11354_44585)"/>
<path d="M38.9746 49.6831C37.6189 52.6021 34.9083 54.5701 32.3685 56.394C30.9785 57.3924 29.5657 58.371 28.0467 59.1649C26.434 60.0077 24.7458 60.5222 22.9668 60.8752C21.9175 61.0835 20.8653 61.2762 19.8149 61.4792C18.7807 61.679 17.7053 61.8225 16.6937 62.1151C16.6267 62.1344 16.6361 62.2492 16.7109 62.2419C17.6553 62.148 18.5982 61.9105 19.5307 61.7346C20.4823 61.5552 21.4327 61.3683 22.3833 61.1836C24.1598 60.8382 25.8849 60.4152 27.5229 59.6258C29.1354 58.8487 30.6241 57.8432 32.0768 56.8031C33.3857 55.8658 34.7014 54.9228 35.8998 53.8446C37.2038 52.6715 38.3145 51.3227 38.9994 49.6935C39.0051 49.6797 38.981 49.6694 38.9746 49.6831Z" fill="url(#paint25_linear_11354_44585)"/>
<path d="M38.9746 49.6831C37.6189 52.6021 34.9083 54.5701 32.3685 56.394C30.9785 57.3924 29.5657 58.371 28.0467 59.1649C26.434 60.0077 24.7458 60.5222 22.9668 60.8752C21.9175 61.0835 20.8653 61.2762 19.8149 61.4792C18.7807 61.679 17.7053 61.8225 16.6937 62.1151C16.6267 62.1344 16.6361 62.2492 16.7109 62.2419C17.6553 62.148 18.5982 61.9105 19.5307 61.7346C20.4823 61.5552 21.4327 61.3683 22.3833 61.1836C24.1598 60.8382 25.8849 60.4152 27.5229 59.6258C29.1354 58.8487 30.6241 57.8432 32.0768 56.8031C33.3857 55.8658 34.7014 54.9228 35.8998 53.8446C37.2038 52.6715 38.3145 51.3227 38.9994 49.6935C39.0051 49.6797 38.981 49.6694 38.9746 49.6831Z" fill="url(#paint26_linear_11354_44585)" fill-opacity="0.2"/>
<path d="M38.9746 49.6831C37.6189 52.6021 34.9083 54.5701 32.3685 56.394C30.9785 57.3924 29.5657 58.371 28.0467 59.1649C26.434 60.0077 24.7458 60.5222 22.9668 60.8752C21.9175 61.0835 20.8653 61.2762 19.8149 61.4792C18.7807 61.679 17.7053 61.8225 16.6937 62.1151C16.6267 62.1344 16.6361 62.2492 16.7109 62.2419C17.6553 62.148 18.5982 61.9105 19.5307 61.7346C20.4823 61.5552 21.4327 61.3683 22.3833 61.1836C24.1598 60.8382 25.8849 60.4152 27.5229 59.6258C29.1354 58.8487 30.6241 57.8432 32.0768 56.8031C33.3857 55.8658 34.7014 54.9228 35.8998 53.8446C37.2038 52.6715 38.3145 51.3227 38.9994 49.6935C39.0051 49.6797 38.981 49.6694 38.9746 49.6831Z" fill="url(#paint27_linear_11354_44585)"/>
<path d="M80.953 62.3662C80.6739 62.9089 80.0173 62.6944 79.5919 62.4932C79.257 62.3349 78.9476 62.1939 78.5763 62.1453C78.0738 62.0793 77.6179 62.0591 77.1498 61.8455C76.7893 61.6809 76.4482 61.5038 76.0604 61.409C75.277 61.2172 74.4538 61.2562 73.6569 61.1623C72.7766 61.0585 71.9079 60.8674 71.0621 60.6035C67.7065 59.557 64.8117 57.406 62.4024 54.8887C61.0204 53.4448 59.776 51.8675 58.5779 50.2693C58.5595 50.245 58.5182 50.2677 58.5361 50.2936C60.6298 53.33 63.0572 56.2375 66.1073 58.354C67.5716 59.3703 69.1734 60.2014 70.8719 60.7473C71.6861 61.0089 72.5214 61.203 73.3686 61.3187C74.3325 61.4503 75.3671 61.3637 76.2975 61.6754C76.7916 61.8407 77.2248 62.1505 77.7429 62.2468C78.2802 62.3467 78.7885 62.3221 79.2976 62.5591C79.8558 62.8186 80.7331 63.2056 81.1152 62.461C81.1705 62.3536 81.0085 62.2582 80.953 62.3662Z" fill="url(#paint28_linear_11354_44585)"/>
<path d="M80.953 62.3662C80.6739 62.9089 80.0173 62.6944 79.5919 62.4932C79.257 62.3349 78.9476 62.1939 78.5763 62.1453C78.0738 62.0793 77.6179 62.0591 77.1498 61.8455C76.7893 61.6809 76.4482 61.5038 76.0604 61.409C75.277 61.2172 74.4538 61.2562 73.6569 61.1623C72.7766 61.0585 71.9079 60.8674 71.0621 60.6035C67.7065 59.557 64.8117 57.406 62.4024 54.8887C61.0204 53.4448 59.776 51.8675 58.5779 50.2693C58.5595 50.245 58.5182 50.2677 58.5361 50.2936C60.6298 53.33 63.0572 56.2375 66.1073 58.354C67.5716 59.3703 69.1734 60.2014 70.8719 60.7473C71.6861 61.0089 72.5214 61.203 73.3686 61.3187C74.3325 61.4503 75.3671 61.3637 76.2975 61.6754C76.7916 61.8407 77.2248 62.1505 77.7429 62.2468C78.2802 62.3467 78.7885 62.3221 79.2976 62.5591C79.8558 62.8186 80.7331 63.2056 81.1152 62.461C81.1705 62.3536 81.0085 62.2582 80.953 62.3662Z" fill="url(#paint29_linear_11354_44585)" fill-opacity="0.2"/>
<path d="M80.953 62.3662C80.6739 62.9089 80.0173 62.6944 79.5919 62.4932C79.257 62.3349 78.9476 62.1939 78.5763 62.1453C78.0738 62.0793 77.6179 62.0591 77.1498 61.8455C76.7893 61.6809 76.4482 61.5038 76.0604 61.409C75.277 61.2172 74.4538 61.2562 73.6569 61.1623C72.7766 61.0585 71.9079 60.8674 71.0621 60.6035C67.7065 59.557 64.8117 57.406 62.4024 54.8887C61.0204 53.4448 59.776 51.8675 58.5779 50.2693C58.5595 50.245 58.5182 50.2677 58.5361 50.2936C60.6298 53.33 63.0572 56.2375 66.1073 58.354C67.5716 59.3703 69.1734 60.2014 70.8719 60.7473C71.6861 61.0089 72.5214 61.203 73.3686 61.3187C74.3325 61.4503 75.3671 61.3637 76.2975 61.6754C76.7916 61.8407 77.2248 62.1505 77.7429 62.2468C78.2802 62.3467 78.7885 62.3221 79.2976 62.5591C79.8558 62.8186 80.7331 63.2056 81.1152 62.461C81.1705 62.3536 81.0085 62.2582 80.953 62.3662Z" fill="url(#paint30_linear_11354_44585)"/>
<path d="M58.3688 50.9039C58.5447 50.3837 58.7683 49.8838 58.9729 49.3746C58.9832 49.3489 58.9422 49.3328 58.9287 49.356C58.6814 49.7852 58.5112 50.2572 58.37 50.7326C58.3709 50.6758 58.3697 50.6193 58.3711 50.5626C58.3924 49.6729 58.5133 48.8002 58.6 47.9163C58.6037 47.88 58.545 47.8726 58.5367 47.9077C58.3319 48.7694 58.2775 49.6798 58.2583 50.5626C58.239 51.4509 58.2904 52.3443 58.4367 53.2205C58.4388 53.2324 58.4587 53.2297 58.4578 53.2177C58.4007 52.4465 58.364 51.6765 58.3688 50.9039Z" fill="url(#paint31_linear_11354_44585)"/>
<path d="M58.3688 50.9039C58.5447 50.3837 58.7683 49.8838 58.9729 49.3746C58.9832 49.3489 58.9422 49.3328 58.9287 49.356C58.6814 49.7852 58.5112 50.2572 58.37 50.7326C58.3709 50.6758 58.3697 50.6193 58.3711 50.5626C58.3924 49.6729 58.5133 48.8002 58.6 47.9163C58.6037 47.88 58.545 47.8726 58.5367 47.9077C58.3319 48.7694 58.2775 49.6798 58.2583 50.5626C58.239 51.4509 58.2904 52.3443 58.4367 53.2205C58.4388 53.2324 58.4587 53.2297 58.4578 53.2177C58.4007 52.4465 58.364 51.6765 58.3688 50.9039Z" fill="url(#paint32_linear_11354_44585)" fill-opacity="0.2"/>
<path d="M58.3688 50.9039C58.5447 50.3837 58.7683 49.8838 58.9729 49.3746C58.9832 49.3489 58.9422 49.3328 58.9287 49.356C58.6814 49.7852 58.5112 50.2572 58.37 50.7326C58.3709 50.6758 58.3697 50.6193 58.3711 50.5626C58.3924 49.6729 58.5133 48.8002 58.6 47.9163C58.6037 47.88 58.545 47.8726 58.5367 47.9077C58.3319 48.7694 58.2775 49.6798 58.2583 50.5626C58.239 51.4509 58.2904 52.3443 58.4367 53.2205C58.4388 53.2324 58.4587 53.2297 58.4578 53.2177C58.4007 52.4465 58.364 51.6765 58.3688 50.9039Z" fill="url(#paint33_linear_11354_44585)"/>
<path d="M56.7803 28.0872C56.473 32.4404 53.2468 36.6228 49.5362 36.6228C45.8256 36.6228 42.5742 32.4404 42.2669 28.0872C41.9311 23.3312 45.1669 19.1399 49.5236 19.1399C53.8802 19.1399 57.116 23.331 56.7803 28.0872Z" fill="#FFC8CA"/>
<path d="M56.7803 28.0872C56.473 32.4404 53.2468 36.6228 49.5362 36.6228C45.8256 36.6228 42.5742 32.4404 42.2669 28.0872C41.9311 23.3312 45.1669 19.1399 49.5236 19.1399C53.8802 19.1399 57.116 23.331 56.7803 28.0872Z" fill="url(#paint34_linear_11354_44585)"/>
<path d="M42.6229 25.8895C42.0161 25.5538 40.8478 25.5763 40.4246 26.2715C40.2767 26.5142 40.2276 26.7914 40.21 27.0606C40.1347 28.2109 40.6407 29.4796 41.6113 30.166C42.2328 30.6056 43.105 30.2558 43.285 29.5156L43.6602 27.9726C43.6921 27.8416 43.704 27.7052 43.6827 27.572C43.5745 26.8888 43.2431 26.2327 42.6229 25.8895Z" fill="#FFC8CA"/>
<path d="M42.6229 25.8895C42.0161 25.5538 40.8478 25.5763 40.4246 26.2715C40.2767 26.5142 40.2276 26.7914 40.21 27.0606C40.1347 28.2109 40.6407 29.4796 41.6113 30.166C42.2328 30.6056 43.105 30.2558 43.285 29.5156L43.6602 27.9726C43.6921 27.8416 43.704 27.7052 43.6827 27.572C43.5745 26.8888 43.2431 26.2327 42.6229 25.8895Z" fill="url(#paint35_linear_11354_44585)"/>
<path d="M42.5905 28.6478C42.5563 28.445 42.4933 28.2413 42.4203 28.0496C42.2933 27.7154 42.1137 27.3902 41.8557 27.139C41.6247 26.9141 41.2727 26.6548 40.9303 26.7143C40.6679 26.7598 40.4464 27.0264 40.5592 27.2928C40.5801 27.342 40.6542 27.3059 40.6427 27.2577C40.6081 27.1137 40.7083 26.9766 40.8429 26.9295C40.9789 26.8817 41.1411 26.9323 41.2621 26.9975C41.2782 27.0062 41.2924 27.0179 41.308 27.0271C41.2642 27.0519 41.2222 27.0811 41.1835 27.1199C41.0762 27.2276 40.9936 27.3684 40.9567 27.5158C40.9131 27.689 40.9147 27.878 40.9509 28.0523C40.9704 28.1467 41.0032 28.2395 41.0369 28.3298C41.072 28.4239 41.1289 28.5068 41.1817 28.5918C41.2087 28.6354 41.2936 28.6223 41.2867 28.5633C41.2775 28.4852 41.2734 28.4055 41.2615 28.3279C41.2488 28.2464 41.2248 28.1667 41.2119 28.0849C41.1883 27.9354 41.1656 27.7767 41.1956 27.6265C41.233 27.4394 41.3284 27.2634 41.4782 27.1463C41.6247 27.2667 41.7527 27.4129 41.8582 27.5668C42.0197 27.802 42.1339 28.0636 42.2132 28.3369C42.2589 28.4937 42.2873 28.6545 42.3288 28.8123C42.3476 28.8837 42.3616 28.9567 42.3814 29.0277C42.4027 29.1049 42.4417 29.1751 42.4733 29.2484C42.4949 29.2982 42.582 29.2854 42.591 29.233C42.6258 29.0337 42.6242 28.849 42.5905 28.6478Z" fill="#EC6059"/>
<path d="M42.5905 28.6478C42.5563 28.445 42.4933 28.2413 42.4203 28.0496C42.2933 27.7154 42.1137 27.3902 41.8557 27.139C41.6247 26.9141 41.2727 26.6548 40.9303 26.7143C40.6679 26.7598 40.4464 27.0264 40.5592 27.2928C40.5801 27.342 40.6542 27.3059 40.6427 27.2577C40.6081 27.1137 40.7083 26.9766 40.8429 26.9295C40.9789 26.8817 41.1411 26.9323 41.2621 26.9975C41.2782 27.0062 41.2924 27.0179 41.308 27.0271C41.2642 27.0519 41.2222 27.0811 41.1835 27.1199C41.0762 27.2276 40.9936 27.3684 40.9567 27.5158C40.9131 27.689 40.9147 27.878 40.9509 28.0523C40.9704 28.1467 41.0032 28.2395 41.0369 28.3298C41.072 28.4239 41.1289 28.5068 41.1817 28.5918C41.2087 28.6354 41.2936 28.6223 41.2867 28.5633C41.2775 28.4852 41.2734 28.4055 41.2615 28.3279C41.2488 28.2464 41.2248 28.1667 41.2119 28.0849C41.1883 27.9354 41.1656 27.7767 41.1956 27.6265C41.233 27.4394 41.3284 27.2634 41.4782 27.1463C41.6247 27.2667 41.7527 27.4129 41.8582 27.5668C42.0197 27.802 42.1339 28.0636 42.2132 28.3369C42.2589 28.4937 42.2873 28.6545 42.3288 28.8123C42.3476 28.8837 42.3616 28.9567 42.3814 29.0277C42.4027 29.1049 42.4417 29.1751 42.4733 29.2484C42.4949 29.2982 42.582 29.2854 42.591 29.233C42.6258 29.0337 42.6242 28.849 42.5905 28.6478Z" fill="url(#paint36_linear_11354_44585)"/>
<path d="M58.9105 27.0606C58.8928 26.7914 58.8437 26.5142 58.6958 26.2715C58.2724 25.5763 57.1044 25.5538 56.4975 25.8895C55.8769 26.2329 55.5455 26.8902 55.4372 27.5736C55.4164 27.7055 55.4281 27.8407 55.4597 27.9703L55.8388 29.5297C56.017 30.263 56.8791 30.6065 57.497 30.1743C58.4756 29.4904 58.9859 28.2158 58.9105 27.0606Z" fill="#FFC8CA"/>
<path d="M58.9105 27.0606C58.8928 26.7914 58.8437 26.5142 58.6958 26.2715C58.2724 25.5763 57.1044 25.5538 56.4975 25.8895C55.8769 26.2329 55.5455 26.8902 55.4372 27.5736C55.4164 27.7055 55.4281 27.8407 55.4597 27.9703L55.8388 29.5297C56.017 30.263 56.8791 30.6065 57.497 30.1743C58.4756 29.4904 58.9859 28.2158 58.9105 27.0606Z" fill="url(#paint37_linear_11354_44585)"/>
<path d="M56.5245 28.6478C56.5587 28.445 56.6217 28.2413 56.6947 28.0496C56.8217 27.7154 57.0013 27.3902 57.2593 27.139C57.4903 26.9141 57.8423 26.6548 58.1847 26.7143C58.4471 26.7598 58.6686 27.0264 58.5558 27.2928C58.5349 27.342 58.4609 27.3059 58.4723 27.2577C58.507 27.1137 58.4067 26.9766 58.2721 26.9295C58.1361 26.8817 57.9739 26.9323 57.8529 26.9975C57.8368 27.0062 57.8226 27.0179 57.807 27.0271C57.8508 27.0519 57.8928 27.0811 57.9315 27.1199C58.0389 27.2276 58.1214 27.3684 58.1583 27.5158C58.2019 27.689 58.2003 27.878 58.1641 28.0523C58.1446 28.1467 58.1118 28.2395 58.0781 28.3298C58.043 28.4239 57.9861 28.5068 57.9334 28.5918C57.9063 28.6354 57.8214 28.6223 57.8283 28.5633C57.8373 28.4852 57.8416 28.4055 57.8535 28.3279C57.8662 28.2464 57.8902 28.1667 57.9031 28.0849C57.9267 27.9354 57.9494 27.7767 57.9194 27.6265C57.882 27.4394 57.7866 27.2634 57.6368 27.1463C57.4903 27.2667 57.3623 27.4129 57.2568 27.5668C57.0953 27.802 56.9811 28.0636 56.9018 28.3369C56.8561 28.4937 56.8277 28.6545 56.7862 28.8123C56.7676 28.8837 56.7534 28.9567 56.7336 29.0277C56.7123 29.1049 56.6733 29.1751 56.6417 29.2484C56.6204 29.2982 56.533 29.2854 56.524 29.233C56.4892 29.0337 56.4908 28.849 56.5245 28.6478Z" fill="#EC6059"/>
<path d="M56.5245 28.6478C56.5587 28.445 56.6217 28.2413 56.6947 28.0496C56.8217 27.7154 57.0013 27.3902 57.2593 27.139C57.4903 26.9141 57.8423 26.6548 58.1847 26.7143C58.4471 26.7598 58.6686 27.0264 58.5558 27.2928C58.5349 27.342 58.4609 27.3059 58.4723 27.2577C58.507 27.1137 58.4067 26.9766 58.2721 26.9295C58.1361 26.8817 57.9739 26.9323 57.8529 26.9975C57.8368 27.0062 57.8226 27.0179 57.807 27.0271C57.8508 27.0519 57.8928 27.0811 57.9315 27.1199C58.0389 27.2276 58.1214 27.3684 58.1583 27.5158C58.2019 27.689 58.2003 27.878 58.1641 28.0523C58.1446 28.1467 58.1118 28.2395 58.0781 28.3298C58.043 28.4239 57.9861 28.5068 57.9334 28.5918C57.9063 28.6354 57.8214 28.6223 57.8283 28.5633C57.8373 28.4852 57.8416 28.4055 57.8535 28.3279C57.8662 28.2464 57.8902 28.1667 57.9031 28.0849C57.9267 27.9354 57.9494 27.7767 57.9194 27.6265C57.882 27.4394 57.7866 27.2634 57.6368 27.1463C57.4903 27.2667 57.3623 27.4129 57.2568 27.5668C57.0953 27.802 56.9811 28.0636 56.9018 28.3369C56.8561 28.4937 56.8277 28.6545 56.7862 28.8123C56.7676 28.8837 56.7534 28.9567 56.7336 29.0277C56.7123 29.1049 56.6733 29.1751 56.6417 29.2484C56.6204 29.2982 56.533 29.2854 56.524 29.233C56.4892 29.0337 56.4908 28.849 56.5245 28.6478Z" fill="url(#paint38_linear_11354_44585)"/>
<path d="M57.3496 25.0318C57.2741 23.6015 56.8542 22.2081 55.9354 21.1044C55.1589 20.1715 54.0745 19.5326 52.9308 19.1282C51.4185 18.5933 49.6883 18.2777 48.0863 18.4392C46.482 18.6011 44.933 19.3112 43.7411 20.3963C42.9444 21.1216 42.2965 22.0262 41.9541 23.0485C41.6433 23.9758 41.5931 24.9879 41.8055 25.9424C42.0116 26.8686 42.1408 27.7087 42.7529 28.4831C42.9329 28.7107 43.2919 28.5803 43.2783 28.2902C43.1813 26.2136 43.7274 24.1088 44.8262 22.3448C44.945 22.1539 45.2206 22.1565 45.3314 22.3521C46.0071 23.5475 47.1079 24.5001 48.3929 24.984C49.1466 25.2679 50.0646 25.3701 50.6995 24.8745C51.2978 24.4071 51.4487 23.5324 51.2632 22.7954C51.2203 22.6247 51.1614 22.4603 51.0928 22.2998C51.1559 22.4353 51.218 22.571 51.2795 22.7065C51.5827 23.3762 51.9033 24.058 52.4246 24.5759C52.9459 25.0938 53.716 25.4225 54.4238 25.2268C54.6722 25.1581 54.8965 25.0093 55.0696 24.8162C55.0997 24.7829 55.1215 24.7424 55.1343 24.6993C55.2061 24.4577 55.2419 24.2043 55.2646 23.9972C55.2813 23.8435 55.2919 23.6901 55.2965 23.5363C56.0905 25.3772 56.3801 27.4343 56.1056 29.4211C56.3113 29.4376 56.5095 29.3168 56.6368 29.1542C56.7641 28.9914 56.8324 28.7911 56.8923 28.5934C57.2301 27.4825 57.4136 26.244 57.3496 25.0318Z" fill="#F284D2"/>
<path d="M57.3496 25.0318C57.2741 23.6015 56.8542 22.2081 55.9354 21.1044C55.1589 20.1715 54.0745 19.5326 52.9308 19.1282C51.4185 18.5933 49.6883 18.2777 48.0863 18.4392C46.482 18.6011 44.933 19.3112 43.7411 20.3963C42.9444 21.1216 42.2965 22.0262 41.9541 23.0485C41.6433 23.9758 41.5931 24.9879 41.8055 25.9424C42.0116 26.8686 42.1408 27.7087 42.7529 28.4831C42.9329 28.7107 43.2919 28.5803 43.2783 28.2902C43.1813 26.2136 43.7274 24.1088 44.8262 22.3448C44.945 22.1539 45.2206 22.1565 45.3314 22.3521C46.0071 23.5475 47.1079 24.5001 48.3929 24.984C49.1466 25.2679 50.0646 25.3701 50.6995 24.8745C51.2978 24.4071 51.4487 23.5324 51.2632 22.7954C51.2203 22.6247 51.1614 22.4603 51.0928 22.2998C51.1559 22.4353 51.218 22.571 51.2795 22.7065C51.5827 23.3762 51.9033 24.058 52.4246 24.5759C52.9459 25.0938 53.716 25.4225 54.4238 25.2268C54.6722 25.1581 54.8965 25.0093 55.0696 24.8162C55.0997 24.7829 55.1215 24.7424 55.1343 24.6993C55.2061 24.4577 55.2419 24.2043 55.2646 23.9972C55.2813 23.8435 55.2919 23.6901 55.2965 23.5363C56.0905 25.3772 56.3801 27.4343 56.1056 29.4211C56.3113 29.4376 56.5095 29.3168 56.6368 29.1542C56.7641 28.9914 56.8324 28.7911 56.8923 28.5934C57.2301 27.4825 57.4136 26.244 57.3496 25.0318Z" fill="url(#paint39_linear_11354_44585)"/>
<path d="M47.5325 28.4561C47.1951 28.8696 46.5156 29.1515 45.8794 29.0694C45.5881 29.0317 45.3065 28.9127 45.0992 28.7517C44.8696 28.5733 44.7389 28.3574 44.5742 28.1452C44.5354 28.0951 44.4455 28.1052 44.4311 28.1639C44.363 28.4436 44.5758 28.7372 44.8233 28.9317C45.0957 29.1458 45.4413 29.295 45.8264 29.3449C46.6105 29.4463 47.4188 29.0977 47.6791 28.5154C47.7087 28.4484 47.5843 28.3926 47.5325 28.4561Z" fill="black"/>
<path d="M54.223 28.1624C54.2088 28.1036 54.1187 28.0935 54.0799 28.1436C53.9152 28.3558 53.7845 28.5717 53.5549 28.7501C53.3476 28.9112 53.066 29.0303 52.7747 29.0678C52.1385 29.1499 51.4587 28.868 51.1216 28.4546C51.0697 28.391 50.9454 28.4466 50.9753 28.5135C51.2356 29.0957 52.0438 29.4444 52.8279 29.343C53.213 29.2933 53.5586 29.1439 53.8311 28.9297C54.0783 28.7358 54.2911 28.442 54.223 28.1624Z" fill="black"/>
<path d="M50.5489 30.3368C50.5427 30.2071 50.5381 30.0739 50.4771 29.9561C50.4067 29.8199 50.2668 29.742 50.1165 29.7356C49.9881 29.7303 49.8592 29.7723 49.7395 29.8144C49.728 29.8185 49.717 29.8245 49.7056 29.8286C49.7074 29.7078 49.703 29.5868 49.6968 29.4667C49.6874 29.2779 49.6877 29.0886 49.6973 28.9001C49.7179 28.5021 49.7611 28.1078 49.8514 27.7192C49.875 27.6179 49.7278 27.5775 49.6961 27.6762C49.5716 28.0657 49.4806 28.4695 49.4556 28.8783C49.4358 29.2016 49.4173 29.5845 49.52 29.9067C49.4735 29.9271 49.4253 29.9432 49.3799 29.9657C49.1501 30.0798 48.9106 30.2443 48.7565 30.4524C48.701 30.5275 48.8045 30.5957 48.8703 30.5663C48.9755 30.5194 49.0733 30.4588 49.1769 30.4087C49.2687 30.3646 49.3631 30.3249 49.4572 30.2861C49.5592 30.2438 49.6643 30.2087 49.7707 30.1795C49.8636 30.154 49.9675 30.1251 50.0493 30.1242C50.0509 30.1242 50.1094 30.1299 50.0854 30.1251C50.089 30.1258 50.1026 30.1315 50.1122 30.1352C50.1143 30.1393 50.1197 30.1453 50.1211 30.1437C50.125 30.1545 50.1305 30.1696 50.1317 30.1726C50.136 30.1977 50.1372 30.202 50.1353 30.1857C50.1365 30.197 50.1374 30.2085 50.1381 30.2197C50.1397 30.2436 50.1404 30.2672 50.1411 30.2911C50.1431 30.3568 50.1434 30.4227 50.1496 30.488C50.161 30.6092 50.1766 30.7305 50.1915 30.8515C50.2067 30.9735 50.236 31.1237 50.3064 31.2268C50.3408 31.2771 50.4172 31.284 50.4502 31.2268C50.5218 31.1021 50.5362 30.9317 50.5415 30.7909C50.5479 30.6395 50.5562 30.4886 50.5489 30.3368Z" fill="#EC6059"/>
<path d="M47.3569 25.3318C47.0558 25.2137 46.7363 25.1694 46.4313 25.1928C45.8068 25.2408 45.1621 25.5952 44.885 26.2284C44.8573 26.2915 44.9385 26.3714 44.9873 26.3278C45.4217 25.9385 45.8857 25.6269 46.4783 25.6053C46.7315 25.5961 46.987 25.6434 47.2377 25.7268C47.4931 25.8117 47.7454 25.987 48.0053 26.0244C48.0573 26.032 48.1213 25.9805 48.0883 25.911C47.9415 25.6025 47.6319 25.4395 47.3569 25.3318Z" fill="#F284D2"/>
<path d="M47.3569 25.3318C47.0558 25.2137 46.7363 25.1694 46.4313 25.1928C45.8068 25.2408 45.1621 25.5952 44.885 26.2284C44.8573 26.2915 44.9385 26.3714 44.9873 26.3278C45.4217 25.9385 45.8857 25.6269 46.4783 25.6053C46.7315 25.5961 46.987 25.6434 47.2377 25.7268C47.4931 25.8117 47.7454 25.987 48.0053 26.0244C48.0573 26.032 48.1213 25.9805 48.0883 25.911C47.9415 25.6025 47.6319 25.4395 47.3569 25.3318Z" fill="url(#paint40_linear_11354_44585)"/>
<path d="M51.4336 25.3318C51.7347 25.2137 52.0542 25.1694 52.3592 25.1928C52.9837 25.2408 53.6284 25.5952 53.9054 26.2284C53.9332 26.2915 53.852 26.3714 53.8032 26.3278C53.3688 25.9385 52.9048 25.6269 52.3122 25.6053C52.059 25.5961 51.8035 25.6434 51.5528 25.7268C51.2973 25.8117 51.0451 25.987 50.7852 26.0244C50.7331 26.032 50.6692 25.9805 50.7022 25.911C50.849 25.6025 51.1586 25.4395 51.4336 25.3318Z" fill="#F284D2"/>
<path d="M51.4336 25.3318C51.7347 25.2137 52.0542 25.1694 52.3592 25.1928C52.9837 25.2408 53.6284 25.5952 53.9054 26.2284C53.9332 26.2915 53.852 26.3714 53.8032 26.3278C53.3688 25.9385 52.9048 25.6269 52.3122 25.6053C52.059 25.5961 51.8035 25.6434 51.5528 25.7268C51.2973 25.8117 51.0451 25.987 50.7852 26.0244C50.7331 26.032 50.6692 25.9805 50.7022 25.911C50.849 25.6025 51.1586 25.4395 51.4336 25.3318Z" fill="url(#paint41_linear_11354_44585)"/>
<path d="M51.0753 33.4874C50.9157 33.5147 50.7719 33.6045 50.6293 33.6775C50.4586 33.7648 50.2779 33.8298 50.0917 33.875C49.7321 33.9625 49.3507 33.9701 48.9895 33.8872C48.3227 33.7342 47.7164 33.2997 47.3331 32.7352C47.2882 32.6688 47.193 32.7258 47.2265 32.7977C47.5538 33.4975 48.184 34.0071 48.9385 34.1782C49.3344 34.2677 49.7468 34.2643 50.1426 34.1768C50.4843 34.1012 51.001 33.9497 51.1691 33.6098C51.2031 33.5413 51.1476 33.4749 51.0753 33.4874Z" fill="#EC6059"/>
<g opacity="0.39">
<path d="M54.3197 17.7192C54.6144 17.6748 54.9169 17.7058 55.2105 17.6546C55.3465 17.6307 55.4841 17.5816 55.6022 17.5088C55.4059 17.3765 55.2064 17.2481 55.0002 17.1278C53.4519 16.2243 51.6715 15.7902 49.8842 15.7838C49.9479 15.8672 50.0165 15.9469 50.089 16.0183C50.3243 16.2507 50.6179 16.527 50.5394 16.8485C50.4619 17.1666 50.0624 17.2835 49.7372 17.2507C49.412 17.2178 49.0851 17.0952 48.7664 17.1677C48.4448 17.241 48.2226 17.4838 48.0061 17.7444C47.646 18.1785 47.1298 18.4665 46.5685 18.5186C45.9179 18.579 45.7119 18.2958 45.661 17.9141C45.5993 17.4532 45.2227 17.094 44.7586 17.0775C44.7212 17.0761 44.6893 17.0743 44.6606 17.0722C43.7818 17.543 42.9674 18.1321 42.266 18.8495C41.9053 19.2186 41.583 19.6196 41.2883 20.0392C41.2899 20.1166 41.3074 20.1905 41.3567 20.2505C41.5262 20.4567 41.8562 20.3164 42.0757 20.1646C42.4218 19.9253 42.7678 19.6857 43.1139 19.4464C43.4894 19.1867 43.9749 18.9191 44.3721 19.1437C44.6095 19.2779 44.7303 19.5532 44.7879 19.8199C44.8455 20.0865 44.8567 20.3648 44.951 20.6207C45.1097 21.0518 45.5136 21.3825 45.967 21.4525C46.4204 21.5226 46.905 21.3292 47.1862 20.9659C47.3972 20.6933 47.4997 20.3368 47.7593 20.1102C48.0992 19.8132 48.6212 19.8263 49.0395 19.9956C49.4578 20.1648 49.8085 20.4629 50.1869 20.7086C50.5977 20.9753 51.0651 21.187 51.5545 21.1824C52.0439 21.1778 52.5535 20.9142 52.7352 20.4592C52.8854 20.0826 52.7941 19.6568 52.8402 19.254C52.9269 18.4947 53.5647 17.8331 54.3197 17.7192Z" fill="#E2B4FF"/>
<path d="M54.3197 17.7192C54.6144 17.6748 54.9169 17.7058 55.2105 17.6546C55.3465 17.6307 55.4841 17.5816 55.6022 17.5088C55.4059 17.3765 55.2064 17.2481 55.0002 17.1278C53.4519 16.2243 51.6715 15.7902 49.8842 15.7838C49.9479 15.8672 50.0165 15.9469 50.089 16.0183C50.3243 16.2507 50.6179 16.527 50.5394 16.8485C50.4619 17.1666 50.0624 17.2835 49.7372 17.2507C49.412 17.2178 49.0851 17.0952 48.7664 17.1677C48.4448 17.241 48.2226 17.4838 48.0061 17.7444C47.646 18.1785 47.1298 18.4665 46.5685 18.5186C45.9179 18.579 45.7119 18.2958 45.661 17.9141C45.5993 17.4532 45.2227 17.094 44.7586 17.0775C44.7212 17.0761 44.6893 17.0743 44.6606 17.0722C43.7818 17.543 42.9674 18.1321 42.266 18.8495C41.9053 19.2186 41.583 19.6196 41.2883 20.0392C41.2899 20.1166 41.3074 20.1905 41.3567 20.2505C41.5262 20.4567 41.8562 20.3164 42.0757 20.1646C42.4218 19.9253 42.7678 19.6857 43.1139 19.4464C43.4894 19.1867 43.9749 18.9191 44.3721 19.1437C44.6095 19.2779 44.7303 19.5532 44.7879 19.8199C44.8455 20.0865 44.8567 20.3648 44.951 20.6207C45.1097 21.0518 45.5136 21.3825 45.967 21.4525C46.4204 21.5226 46.905 21.3292 47.1862 20.9659C47.3972 20.6933 47.4997 20.3368 47.7593 20.1102C48.0992 19.8132 48.6212 19.8263 49.0395 19.9956C49.4578 20.1648 49.8085 20.4629 50.1869 20.7086C50.5977 20.9753 51.0651 21.187 51.5545 21.1824C52.0439 21.1778 52.5535 20.9142 52.7352 20.4592C52.8854 20.0826 52.7941 19.6568 52.8402 19.254C52.9269 18.4947 53.5647 17.8331 54.3197 17.7192Z" fill="url(#paint42_linear_11354_44585)"/>
</g>
<path d="M77.5852 63.1106C75.5677 58.9365 66.0246 63.2004 61.0334 66.3348C56.0423 69.4692 47.799 76.0428 43.9368 77.3408C43.9368 77.3408 42.8314 80.7481 45.1617 81.9538C45.1617 81.9538 52.1357 78.8724 59.7949 77.435C67.4536 75.9976 80.4823 69.1045 77.5852 63.1106Z" fill="#6151B9"/>
<path d="M77.5852 63.1106C75.5677 58.9365 66.0246 63.2004 61.0334 66.3348C56.0423 69.4692 47.799 76.0428 43.9368 77.3408C43.9368 77.3408 42.8314 80.7481 45.1617 81.9538C45.1617 81.9538 52.1357 78.8724 59.7949 77.435C67.4536 75.9976 80.4823 69.1045 77.5852 63.1106Z" fill="url(#paint43_linear_11354_44585)"/>
<mask id="mask2_11354_44585" style="mask-type:luminance" maskUnits="userSpaceOnUse" x="43" y="61" width="35" height="21">
<path d="M77.5847 63.1084C75.5672 58.9344 66.0241 63.1982 61.0329 66.3326C56.0419 69.467 47.7985 76.0406 43.9363 77.3386C43.9363 77.3386 42.8309 80.7459 45.1613 81.9516C45.1613 81.9516 52.1352 78.8702 59.7944 77.4328C67.4532 75.9954 80.4818 69.1023 77.5847 63.1084Z" fill="white"/>
</mask>
<g mask="url(#mask2_11354_44585)">
<g opacity="0.42">
<path d="M58.5577 76.6097C62.0944 76.3043 65.5165 75.2435 68.9067 74.1891C67.3992 76.192 65.156 77.541 62.7958 78.3802C60.4356 79.2193 57.9394 79.5898 55.4613 79.9545C52.9832 80.3189 50.4871 80.6866 48.125 81.5205C47.0212 81.9103 45.813 82.4033 44.7254 81.9695C43.8028 81.6014 43.2489 80.6616 42.857 79.7478C42.3852 78.6473 42.0625 77.3253 42.6735 76.2958C43.0932 75.5886 43.8716 75.1769 44.6454 74.9008C45.5749 74.5692 46.6774 74.2862 47.6728 74.3538C48.3789 74.4015 48.9986 74.9479 49.622 75.2425C51.3893 76.0776 53.3268 76.5091 55.2707 76.6446C56.3652 76.7209 57.4653 76.7041 58.5577 76.6097Z" fill="#3E3796"/>
<path d="M58.5577 76.6097C62.0944 76.3043 65.5165 75.2435 68.9067 74.1891C67.3992 76.192 65.156 77.541 62.7958 78.3802C60.4356 79.2193 57.9394 79.5898 55.4613 79.9545C52.9832 80.3189 50.4871 80.6866 48.125 81.5205C47.0212 81.9103 45.813 82.4033 44.7254 81.9695C43.8028 81.6014 43.2489 80.6616 42.857 79.7478C42.3852 78.6473 42.0625 77.3253 42.6735 76.2958C43.0932 75.5886 43.8716 75.1769 44.6454 74.9008C45.5749 74.5692 46.6774 74.2862 47.6728 74.3538C48.3789 74.4015 48.9986 74.9479 49.622 75.2425C51.3893 76.0776 53.3268 76.5091 55.2707 76.6446C56.3652 76.7209 57.4653 76.7041 58.5577 76.6097Z" fill="url(#paint44_linear_11354_44585)"/>
</g>
</g>
<path d="M21.4814 61.4408C23.8026 57.4282 33.0035 62.3893 37.7486 65.8859C42.4938 69.3824 50.2273 76.5504 53.9826 78.132C53.9826 78.132 54.8325 81.6118 52.4194 82.6412C52.4194 82.6412 45.6929 79.0502 38.1614 77.0476C30.63 75.0449 18.1481 67.2027 21.4814 61.4408Z" fill="#6151B9"/>
<path d="M21.4814 61.4408C23.8026 57.4282 33.0035 62.3893 37.7486 65.8859C42.4938 69.3824 50.2273 76.5504 53.9826 78.132C53.9826 78.132 54.8325 81.6118 52.4194 82.6412C52.4194 82.6412 45.6929 79.0502 38.1614 77.0476C30.63 75.0449 18.1481 67.2027 21.4814 61.4408Z" fill="url(#paint45_linear_11354_44585)"/>
<mask id="mask3_11354_44585" style="mask-type:luminance" maskUnits="userSpaceOnUse" x="20" y="59" width="35" height="25">
<path d="M21.4777 61.5032C23.7989 57.3369 32.9998 62.4881 37.745 66.1186C42.4901 69.7491 50.2236 77.1916 53.9789 78.8338C53.9789 78.8338 54.8289 82.4469 52.4157 83.5157C52.4157 83.5157 45.6892 79.7872 38.1578 77.7078C30.6263 75.6285 18.1444 67.4859 21.4777 61.5032Z" fill="white"/>
</mask>
<g mask="url(#mask3_11354_44585)">
<g opacity="0.25">
<path d="M30.303 73.0879C33.7631 74.6839 37.4251 75.7434 41.0084 77.0122C45.5765 78.6297 50.0311 80.5936 54.3251 82.883C54.7446 83.1067 55.2354 83.5619 54.9973 83.9849C54.8551 84.2372 54.5297 84.2866 54.2487 84.299C50.9127 84.4478 47.6663 83.2789 44.5261 82.0983C40.0025 80.3976 35.478 78.6292 31.2819 76.184C28.6639 74.6584 26.1769 72.8623 23.9864 70.7231C23.6119 70.3574 21.1001 68.2351 22.4644 68.0558C23.036 67.9806 23.5304 68.7346 23.9247 69.0785C24.5079 69.5871 25.1189 70.0609 25.7496 70.504C27.1844 71.5122 28.7212 72.3582 30.303 73.0879Z" fill="#3E3796"/>
<path d="M30.303 73.0879C33.7631 74.6839 37.4251 75.7434 41.0084 77.0122C45.5765 78.6297 50.0311 80.5936 54.3251 82.883C54.7446 83.1067 55.2354 83.5619 54.9973 83.9849C54.8551 84.2372 54.5297 84.2866 54.2487 84.299C50.9127 84.4478 47.6663 83.2789 44.5261 82.0983C40.0025 80.3976 35.478 78.6292 31.2819 76.184C28.6639 74.6584 26.1769 72.8623 23.9864 70.7231C23.6119 70.3574 21.1001 68.2351 22.4644 68.0558C23.036 67.9806 23.5304 68.7346 23.9247 69.0785C24.5079 69.5871 25.1189 70.0609 25.7496 70.504C27.1844 71.5122 28.7212 72.3582 30.303 73.0879Z" fill="url(#paint46_linear_11354_44585)"/>
</g>
</g>
</g>
<defs>
<filter id="filter0_f_11354_44585" x="-56.7874" y="-53.5707" width="175.632" height="173.3" filterUnits="userSpaceOnUse" color-interpolation-filters="sRGB">
<feFlood flood-opacity="0" result="BackgroundImageFix"/>
<feBlend mode="normal" in="SourceGraphic" in2="BackgroundImageFix" result="shape"/>
<feGaussianBlur stdDeviation="10" result="effect1_foregroundBlur_11354_44585"/>
</filter>
<filter id="filter1_f_11354_44585" x="19" y="-5" width="82" height="125" filterUnits="userSpaceOnUse" color-interpolation-filters="sRGB">
<feFlood flood-opacity="0" result="BackgroundImageFix"/>
<feBlend mode="normal" in="SourceGraphic" in2="BackgroundImageFix" result="shape"/>
<feGaussianBlur stdDeviation="5" result="effect1_foregroundBlur_11354_44585"/>
</filter>
<filter id="filter2_ddddd_11354_44585" x="-24.6313" y="85.9524" width="293.703" height="185.031" filterUnits="userSpaceOnUse" color-interpolation-filters="sRGB">
<feFlood flood-opacity="0" result="BackgroundImageFix"/>
<feColorMatrix in="SourceAlpha" type="matrix" values="0 0 0 0 0 0 0 0 0 0 0 0 0 0 0 0 0 0 127 0" result="hardAlpha"/>
<feOffset dx="3" dy="5"/>
<feGaussianBlur stdDeviation="6"/>
<feColorMatrix type="matrix" values="0 0 0 0 0.615686 0 0 0 0 0.623529 0 0 0 0 0.901961 0 0 0 0.84 0"/>
<feBlend mode="normal" in2="BackgroundImageFix" result="effect1_dropShadow_11354_44585"/>
<feColorMatrix in="SourceAlpha" type="matrix" values="0 0 0 0 0 0 0 0 0 0 0 0 0 0 0 0 0 0 127 0" result="hardAlpha"/>
<feOffset dx="10" dy="20"/>
<feGaussianBlur stdDeviation="11"/>
<feColorMatrix type="matrix" values="0 0 0 0 0.615686 0 0 0 0 0.623529 0 0 0 0 0.901961 0 0 0 0.73 0"/>
<feBlend mode="normal" in2="effect1_dropShadow_11354_44585" result="effect2_dropShadow_11354_44585"/>
<feColorMatrix in="SourceAlpha" type="matrix" values="0 0 0 0 0 0 0 0 0 0 0 0 0 0 0 0 0 0 127 0" result="hardAlpha"/>
<feOffset dx="23" dy="45"/>
<feGaussianBlur stdDeviation="15"/>
<feColorMatrix type="matrix" values="0 0 0 0 0.835294 0 0 0 0 0.847059 0 0 0 0 0.972549 0 0 0 0.43 0"/>
<feBlend mode="normal" in2="effect2_dropShadow_11354_44585" result="effect3_dropShadow_11354_44585"/>
<feColorMatrix in="SourceAlpha" type="matrix" values="0 0 0 0 0 0 0 0 0 0 0 0 0 0 0 0 0 0 127 0" result="hardAlpha"/>
<feOffset dx="41" dy="79"/>
<feGaussianBlur stdDeviation="18"/>
<feColorMatrix type="matrix" values="0 0 0 0 0.0980392 0 0 0 0 0.219608 0 0 0 0 0 0 0 0 0.13 0"/>
<feBlend mode="normal" in2="effect3_dropShadow_11354_44585" result="effect4_dropShadow_11354_44585"/>
<feColorMatrix in="SourceAlpha" type="matrix" values="0 0 0 0 0 0 0 0 0 0 0 0 0 0 0 0 0 0 127 0" result="hardAlpha"/>
<feOffset dx="64" dy="124"/>
<feGaussianBlur stdDeviation="19.5"/>
<feColorMatrix type="matrix" values="0 0 0 0 0.0980392 0 0 0 0 0.219608 0 0 0 0 0 0 0 0 0.02 0"/>
<feBlend mode="normal" in2="effect4_dropShadow_11354_44585" result="effect5_dropShadow_11354_44585"/>
<feBlend mode="normal" in="SourceGraphic" in2="effect5_dropShadow_11354_44585" result="shape"/>
</filter>
<linearGradient id="paint0_linear_11354_44585" x1="3.38384" y1="-27.1379" x2="75.9673" y2="81.0589" gradientUnits="userSpaceOnUse">
<stop stop-color="#DCDCF8"/>
<stop offset="0.480274" stop-color="#E2C7FF"/>
<stop offset="1" stop-color="#E2C7FF"/>
</linearGradient>
<linearGradient id="paint1_linear_11354_44585" x1="76.4068" y1="92.9521" x2="76.4068" y2="106.215" gradientUnits="userSpaceOnUse">
<stop stop-color="#E8D2F5"/>
<stop offset="1" stop-color="#A379B1"/>
</linearGradient>
<linearGradient id="paint2_linear_11354_44585" x1="48.7396" y1="55.876" x2="48.7595" y2="81.2913" gradientUnits="userSpaceOnUse">
<stop stop-color="#EACFFF"/>
<stop offset="1" stop-color="#9D9FE6"/>
</linearGradient>
<linearGradient id="paint3_linear_11354_44585" x1="57.6635" y1="51.9326" x2="44.1321" y2="63.9437" gradientUnits="userSpaceOnUse">
<stop stop-color="#70483F"/>
<stop offset="0.699361" stop-color="#D68A78"/>
</linearGradient>
<linearGradient id="paint4_linear_11354_44585" x1="81.943" y1="25.8105" x2="85.6011" y2="43.9188" gradientUnits="userSpaceOnUse">
<stop stop-color="#70483F" stop-opacity="0"/>
<stop offset="1" stop-color="#D68A78"/>
</linearGradient>
<linearGradient id="paint5_linear_11354_44585" x1="54.6896" y1="55.5475" x2="42.4931" y2="63.4891" gradientUnits="userSpaceOnUse">
<stop stop-color="#70483F"/>
<stop offset="0.699361" stop-color="#D68A78"/>
</linearGradient>
<linearGradient id="paint6_linear_11354_44585" x1="72.1194" y1="29.9837" x2="76.8407" y2="47.1279" gradientUnits="userSpaceOnUse">
<stop stop-color="#70483F" stop-opacity="0"/>
<stop offset="1" stop-color="#D68A78"/>
</linearGradient>
<linearGradient id="paint7_linear_11354_44585" x1="43.3975" y1="39.2395" x2="61.8906" y2="43.2645" gradientUnits="userSpaceOnUse">
<stop stop-color="#F97267"/>
<stop offset="0.130016" stop-color="#FCD5B8"/>
<stop offset="0.5" stop-color="#FACBAB"/>
<stop offset="1" stop-color="#F97267"/>
</linearGradient>
<linearGradient id="paint8_linear_11354_44585" x1="21.002" y1="60.1903" x2="5.22807" y2="65.3162" gradientUnits="userSpaceOnUse">
<stop stop-color="#F97267"/>
<stop offset="0.25" stop-color="#FCD5B8"/>
<stop offset="0.5" stop-color="#FACBAB"/>
<stop offset="1" stop-color="#F97267"/>
</linearGradient>
<linearGradient id="paint9_linear_11354_44585" x1="76.9113" y1="60.1903" x2="92.6853" y2="65.3162" gradientUnits="userSpaceOnUse">
<stop stop-color="#F97267"/>
<stop offset="0.25" stop-color="#FCD5B8"/>
<stop offset="0.5" stop-color="#FACBAB"/>
<stop offset="1" stop-color="#F97267"/>
</linearGradient>
<linearGradient id="paint10_linear_11354_44585" x1="45.9601" y1="39.0555" x2="76.2951" y2="227.659" gradientUnits="userSpaceOnUse">
<stop stop-color="#9D9FE6"/>
<stop offset="0.163505" stop-color="#CFC0FF"/>
<stop offset="1" stop-color="#8E00FF"/>
</linearGradient>
<linearGradient id="paint11_linear_11354_44585" x1="48.3174" y1="67.2314" x2="49.8974" y2="93.5282" gradientUnits="userSpaceOnUse">
<stop stop-color="#9D9FE6"/>
<stop offset="0.163505" stop-color="#CFC0FF"/>
<stop offset="1" stop-color="#8E00FF"/>
</linearGradient>
<linearGradient id="paint12_linear_11354_44585" x1="47.0873" y1="78.9764" x2="57.6668" y2="60.3157" gradientUnits="userSpaceOnUse">
<stop stop-color="white" stop-opacity="0"/>
<stop offset="1" stop-color="#8E00FF"/>
</linearGradient>
<linearGradient id="paint13_linear_11354_44585" x1="49.4302" y1="67.2314" x2="49.4315" y2="74.2407" gradientUnits="userSpaceOnUse">
<stop stop-color="#FF98A3"/>
<stop offset="1" stop-color="white"/>
</linearGradient>
<linearGradient id="paint14_linear_11354_44585" x1="51.5894" y1="39.057" x2="51.5938" y2="50.97" gradientUnits="userSpaceOnUse">
<stop stop-color="#FF98A3"/>
<stop offset="1" stop-color="white"/>
</linearGradient>
<linearGradient id="paint15_linear_11354_44585" x1="40.1461" y1="40.4108" x2="63.4705" y2="47.5169" gradientUnits="userSpaceOnUse">
<stop stop-color="#F97267"/>
<stop offset="0.25" stop-color="#FCD5B8"/>
<stop offset="0.342484" stop-color="#FBD2B5"/>
<stop offset="0.619322" stop-color="#FACBAB"/>
<stop offset="1" stop-color="#F97267"/>
</linearGradient>
<linearGradient id="paint16_linear_11354_44585" x1="44.405" y1="49.3647" x2="50.4363" y2="72.2338" gradientUnits="userSpaceOnUse">
<stop stop-color="#9D9FE6"/>
<stop offset="0.163505" stop-color="#CFC0FF"/>
<stop offset="1" stop-color="#8E00FF"/>
</linearGradient>
<linearGradient id="paint17_linear_11354_44585" x1="44.1452" y1="60.2499" x2="52.0517" y2="57.0729" gradientUnits="userSpaceOnUse">
<stop stop-color="white" stop-opacity="0"/>
<stop offset="1" stop-color="#8E00FF"/>
</linearGradient>
<linearGradient id="paint18_linear_11354_44585" x1="44.6399" y1="49.3647" x2="44.6454" y2="55.8609" gradientUnits="userSpaceOnUse">
<stop stop-color="#FF98A3"/>
<stop offset="1" stop-color="white"/>
</linearGradient>
<linearGradient id="paint19_linear_11354_44585" x1="44.4317" y1="49.2844" x2="45.6259" y2="60.0006" gradientUnits="userSpaceOnUse">
<stop stop-color="#9D9FE6"/>
<stop offset="0.163505" stop-color="#CFC0FF"/>
<stop offset="1" stop-color="#8E00FF"/>
</linearGradient>
<linearGradient id="paint20_linear_11354_44585" x1="44.1591" y1="54.1126" x2="49.221" y2="49.2992" gradientUnits="userSpaceOnUse">
<stop stop-color="white" stop-opacity="0"/>
<stop offset="1" stop-color="#8E00FF"/>
</linearGradient>
<linearGradient id="paint21_linear_11354_44585" x1="44.6783" y1="49.2844" x2="44.6793" y2="52.1658" gradientUnits="userSpaceOnUse">
<stop stop-color="#FF98A3"/>
<stop offset="1" stop-color="white"/>
</linearGradient>
<linearGradient id="paint22_linear_11354_44585" x1="39.5354" y1="48.0156" x2="51.222" y2="54.5799" gradientUnits="userSpaceOnUse">
<stop stop-color="#9D9FE6"/>
<stop offset="0.163505" stop-color="#CFC0FF"/>
<stop offset="1" stop-color="#8E00FF"/>
</linearGradient>
<linearGradient id="paint23_linear_11354_44585" x1="39.4923" y1="60.196" x2="41.0092" y2="60.1057" gradientUnits="userSpaceOnUse">
<stop stop-color="white" stop-opacity="0"/>
<stop offset="1" stop-color="#8E00FF"/>
</linearGradient>
<linearGradient id="paint24_linear_11354_44585" x1="39.5743" y1="48.0156" x2="39.6156" y2="55.2846" gradientUnits="userSpaceOnUse">
<stop stop-color="#FF98A3"/>
<stop offset="1" stop-color="white"/>
</linearGradient>
<linearGradient id="paint25_linear_11354_44585" x1="26.7797" y1="49.6766" x2="39.8185" y2="121.839" gradientUnits="userSpaceOnUse">
<stop stop-color="#9D9FE6"/>
<stop offset="0.163505" stop-color="#CFC0FF"/>
<stop offset="1" stop-color="#8E00FF"/>
</linearGradient>
<linearGradient id="paint26_linear_11354_44585" x1="25.6248" y1="82.8391" x2="56.0086" y2="65.0188" gradientUnits="userSpaceOnUse">
<stop stop-color="white" stop-opacity="0"/>
<stop offset="1" stop-color="#8E00FF"/>
</linearGradient>
<linearGradient id="paint27_linear_11354_44585" x1="27.8245" y1="49.6766" x2="27.8359" y2="69.4678" gradientUnits="userSpaceOnUse">
<stop stop-color="#FF98A3"/>
<stop offset="1" stop-color="white"/>
</linearGradient>
<linearGradient id="paint28_linear_11354_44585" x1="68.773" y1="50.2589" x2="81.8188" y2="122.845" gradientUnits="userSpaceOnUse">
<stop stop-color="#9D9FE6"/>
<stop offset="0.163505" stop-color="#CFC0FF"/>
<stop offset="1" stop-color="#8E00FF"/>
</linearGradient>
<linearGradient id="paint29_linear_11354_44585" x1="67.6055" y1="83.6048" x2="98.2363" y2="65.544" gradientUnits="userSpaceOnUse">
<stop stop-color="white" stop-opacity="0"/>
<stop offset="1" stop-color="#8E00FF"/>
</linearGradient>
<linearGradient id="paint30_linear_11354_44585" x1="69.8291" y1="50.2589" x2="69.8406" y2="70.1595" gradientUnits="userSpaceOnUse">
<stop stop-color="#FF98A3"/>
<stop offset="1" stop-color="white"/>
</linearGradient>
<linearGradient id="paint31_linear_11354_44585" x1="58.5808" y1="47.8849" x2="69.8817" y2="52.6239" gradientUnits="userSpaceOnUse">
<stop stop-color="#9D9FE6"/>
<stop offset="0.163505" stop-color="#CFC0FF"/>
<stop offset="1" stop-color="#8E00FF"/>
</linearGradient>
<linearGradient id="paint32_linear_11354_44585" x1="58.5436" y1="61.9866" x2="59.8567" y2="61.9283" gradientUnits="userSpaceOnUse">
<stop stop-color="white" stop-opacity="0"/>
<stop offset="1" stop-color="#8E00FF"/>
</linearGradient>
<linearGradient id="paint33_linear_11354_44585" x1="58.6145" y1="47.8849" x2="58.6786" y2="56.3002" gradientUnits="userSpaceOnUse">
<stop stop-color="#FF98A3"/>
<stop offset="1" stop-color="white"/>
</linearGradient>
<linearGradient id="paint34_linear_11354_44585" x1="40.3291" y1="31.2637" x2="62.6063" y2="34.9846" gradientUnits="userSpaceOnUse">
<stop stop-color="#F97267"/>
<stop offset="0.25" stop-color="#FCD5B8"/>
<stop offset="0.5" stop-color="#FACBAB"/>
<stop offset="1" stop-color="#F97267"/>
</linearGradient>
<linearGradient id="paint35_linear_11354_44585" x1="39.9914" y1="29.2138" x2="44.9079" y2="29.6976" gradientUnits="userSpaceOnUse">
<stop stop-color="#F97267"/>
<stop offset="0.25" stop-color="#FCD5B8"/>
<stop offset="0.5" stop-color="#FACBAB"/>
<stop offset="1" stop-color="#F97267"/>
</linearGradient>
<linearGradient id="paint36_linear_11354_44585" x1="41.3495" y1="29.2433" x2="40.5499" y2="29.6748" gradientUnits="userSpaceOnUse">
<stop stop-color="#70483F"/>
<stop offset="0.699361" stop-color="#D68A78"/>
</linearGradient>
<linearGradient id="paint37_linear_11354_44585" x1="53.5519" y1="29.2728" x2="66.973" y2="29.4284" gradientUnits="userSpaceOnUse">
<stop stop-color="#F97267"/>
<stop offset="0.25" stop-color="#FCD5B8"/>
<stop offset="0.5" stop-color="#FACBAB"/>
<stop offset="1" stop-color="#F97267"/>
</linearGradient>
<linearGradient id="paint38_linear_11354_44585" x1="57.319" y1="29.2433" x2="56.5194" y2="29.6748" gradientUnits="userSpaceOnUse">
<stop stop-color="#70483F"/>
<stop offset="0.699361" stop-color="#D68A78"/>
</linearGradient>
<linearGradient id="paint39_linear_11354_44585" x1="47.8417" y1="29.2667" x2="43.7505" y2="33.1398" gradientUnits="userSpaceOnUse">
<stop stop-color="#70483F"/>
<stop offset="0.699361" stop-color="#D68A78"/>
</linearGradient>
<linearGradient id="paint40_linear_11354_44585" x1="46.1442" y1="26.324" x2="45.7863" y2="26.9885" gradientUnits="userSpaceOnUse">
<stop stop-color="#70483F"/>
<stop offset="0.699361" stop-color="#D68A78"/>
</linearGradient>
<linearGradient id="paint41_linear_11354_44585" x1="51.9579" y1="26.324" x2="51.6" y2="26.9885" gradientUnits="userSpaceOnUse">
<stop stop-color="#70483F"/>
<stop offset="0.699361" stop-color="#D68A78"/>
</linearGradient>
<linearGradient id="paint42_linear_11354_44585" x1="57.5347" y1="18.6773" x2="51.1073" y2="28.5766" gradientUnits="userSpaceOnUse">
<stop stop-color="#70483F"/>
<stop offset="0.699361" stop-color="#D68A78"/>
</linearGradient>
<linearGradient id="paint43_linear_11354_44585" x1="60.8226" y1="54.6584" x2="60.8583" y2="81.9538" gradientUnits="userSpaceOnUse">
<stop stop-color="#EACFFF"/>
<stop offset="1" stop-color="#9D9FE6"/>
</linearGradient>
<linearGradient id="paint44_linear_11354_44585" x1="55.6117" y1="71.5951" x2="55.6185" y2="82.1386" gradientUnits="userSpaceOnUse">
<stop stop-color="#EACFFF"/>
<stop offset="1" stop-color="#9D9FE6"/>
</linearGradient>
<linearGradient id="paint45_linear_11354_44585" x1="37.5141" y1="52.5418" x2="37.5589" y2="82.6411" gradientUnits="userSpaceOnUse">
<stop stop-color="#EACFFF"/>
<stop offset="1" stop-color="#9D9FE6"/>
</linearGradient>
<linearGradient id="paint46_linear_11354_44585" x1="38.5475" y1="62.7444" x2="38.5707" y2="84.3118" gradientUnits="userSpaceOnUse">
<stop stop-color="#EACFFF"/>
<stop offset="1" stop-color="#9D9FE6"/>
</linearGradient>
<clipPath id="clip0_11354_44585">
<rect width="98" height="98" rx="49" fill="white"/>
</clipPath>
</defs>
</svg>
