<svg width="402" height="438" viewBox="0 0 402 438" fill="none" xmlns="http://www.w3.org/2000/svg">
<g opacity="0.5" filter="url(#filter0_f_11097_17694)">
<path d="M283.612 398.913C282.878 379.149 267.731 363.366 249.144 363.366C235.195 363.366 223.188 372.26 217.75 385.049C214.167 382.661 209.942 381.278 205.414 381.278C201.044 381.278 196.954 382.567 193.453 384.805C191.651 359.587 172.037 339.722 148.089 339.722C131.151 339.722 116.384 349.665 108.547 364.404C108.553 364.058 108.572 363.714 108.572 363.366C108.572 339.906 95.2781 319.78 76.3378 311.197C73.3143 263.098 36.0249 225.087 -9.53855 225.087C-28.267 225.087 -45.5963 231.512 -59.7246 242.417V429.999H283.648C283.648 429.999 287.22 411.369 283.612 398.913Z" fill="#EBECFF"/>
<path d="M279.441 389.916C278.531 366.364 259.747 347.555 236.696 347.555C219.397 347.555 204.506 358.153 197.763 373.394C193.319 370.548 188.079 368.901 182.464 368.901C177.044 368.901 171.973 370.437 167.631 373.103C165.396 343.051 141.072 319.379 111.372 319.379C90.3664 319.379 72.0539 331.228 62.3349 348.791C62.342 348.378 62.3652 347.969 62.3652 347.555C62.3652 319.597 45.8791 295.614 22.39 285.385C19.1807 236.322 -15.1654 196.071 -60.4297 185.492V420.145H280.532C281.489 412.406 282.359 399.597 279.441 389.916Z" fill="#B4B6FF"/>
<path d="M62.7384 430.001C62.7384 430.001 58.9364 411.532 62.7756 399.185C63.5569 379.592 79.6791 363.946 99.4633 363.946C114.311 363.946 127.091 372.762 132.88 385.441C136.694 383.074 141.191 381.703 146.01 381.703C150.662 381.703 155.015 382.98 158.742 385.198C160.66 360.199 181.537 340.508 207.028 340.508C225.057 340.508 240.774 350.364 249.116 364.975C249.109 364.632 249.09 364.292 249.09 363.947C249.09 340.69 263.24 320.738 283.4 312.23C286.618 264.548 326.308 226.866 374.807 226.866C425.409 226.866 466.431 267.888 466.431 318.49V430.001H62.7384Z" fill="#D5D6FF"/>
<path d="M181.543 430C181.543 430 183.822 418.93 181.521 411.529C181.053 399.785 171.389 390.407 159.53 390.407C150.63 390.407 142.97 395.691 139.5 403.291C137.214 401.872 134.519 401.05 131.63 401.05C128.842 401.05 126.233 401.816 123.999 403.146C122.849 388.161 110.336 376.358 95.0566 376.358C84.2495 376.358 74.829 382.266 69.8291 391.023C69.8326 390.817 69.8446 390.614 69.8446 390.407C69.8446 376.466 61.363 364.508 49.2792 359.407C47.3501 330.827 23.5598 308.24 -5.51049 308.24C-35.8413 308.241 -60.4297 332.829 -60.4297 363.16V430H181.543Z" fill="#FEFEFE"/>
<path d="M224.458 430.001C224.458 430.001 222.179 418.93 224.481 411.529C224.949 399.785 234.613 390.407 246.472 390.407C255.371 390.407 263.032 395.691 266.501 403.291C268.787 401.872 271.483 401.051 274.371 401.051C277.16 401.051 279.768 401.816 282.003 403.146C283.152 388.162 295.666 376.358 310.945 376.358C321.751 376.358 331.173 382.266 336.172 391.023C336.169 390.817 336.157 390.614 336.157 390.407C336.157 376.466 344.639 364.508 356.722 359.407C358.652 330.827 382.442 308.24 411.511 308.24C441.843 308.24 466.431 332.829 466.431 363.159V430.001H224.458Z" fill="#FEFEFE"/>
</g>
<g opacity="0.5">
<path d="M109.799 43.9372C109.799 41.1699 108.315 37.6017 105.092 36.7031C102.696 36.0389 100.267 37.25 98.9971 39.2165C99.3618 37.4193 99.5506 35.5636 99.5506 33.6623C99.5506 18.2174 87.0293 5.69604 71.5843 5.69604C56.1394 5.69604 43.6181 18.2174 43.6181 33.6623C43.6181 34.7888 43.6832 35.9022 43.8199 36.9896C40.994 33.1153 34.7236 31.5331 30.374 32.7572C24.9891 34.2679 23.179 38.8584 23.0748 44.2628C20.1837 42.3549 16.8239 41.2741 13.2036 41.4043C9.90883 41.5215 1.03385 44.4646 1.82173 48.9965H48.2021H94.9666H117.457C117.678 39.9978 109.799 43.9372 109.799 43.9372Z" fill="#D5D6FF"/>
<path d="M66.5615 41.6576C61.2469 40.5904 56.7906 43.8337 52.0021 45.4804C47.2534 47.1135 42.4786 46.4981 37.8894 44.7075C35.475 43.7653 33.0697 42.5705 30.516 42.0437C27.4986 41.4219 25.7627 43.695 23.149 44.7069C21.9633 45.1659 21.193 44.1925 21.1943 43.1865C18.7604 41.9649 16.0653 41.3021 13.2036 41.405C9.90883 41.5222 1.03385 44.4653 1.82173 48.9972H76.8273C74.4266 45.3867 70.79 42.5067 66.5615 41.6576Z" fill="#FEFEFE"/>
<path d="M244.272 46.5789C244.272 43.208 246.08 38.8617 250.005 37.7678C252.924 36.9591 255.883 38.4339 257.429 40.8294C256.985 38.6403 256.755 36.3802 256.755 34.0641C256.755 15.2515 272.007 0 290.819 0C309.632 0 324.883 15.2515 324.883 34.0641C324.883 35.4361 324.804 36.7924 324.637 38.1168C328.079 33.398 335.717 31.4707 341.015 32.9618C347.574 34.8019 349.779 40.3932 349.906 46.9761C353.427 44.6522 357.52 43.3356 361.929 43.4945C365.942 43.6371 376.752 47.2223 375.792 52.7419H319.299H262.338H234.944C234.675 41.7807 244.272 46.5789 244.272 46.5789Z" fill="#FEFEFE"/>
<path d="M290.535 52.7404H428.25C426.159 52.5274 423.68 52.7319 421.614 52.2898C419.293 51.793 418.716 50.5057 416.667 49.4228C411.096 46.4777 407.691 53.6402 402.258 51.4186C396.683 49.1389 394.982 45.9288 388.218 48.3179C384.45 49.6488 377.632 53.9352 374.791 48.6851C370.967 48.7561 366.862 47.4531 363.032 47.5717C354.476 47.8367 346.994 51.1796 338.153 48.8472C327.548 46.0493 317.895 39.0952 306.284 40.5505C300.604 41.2628 292.916 47.5091 290.535 52.7404Z" fill="#D5D6FF"/>
</g>
<defs>
<filter id="filter0_f_11097_17694" x="-68.4297" y="177.492" width="542.861" height="260.509" filterUnits="userSpaceOnUse" color-interpolation-filters="sRGB">
<feFlood flood-opacity="0" result="BackgroundImageFix"/>
<feBlend mode="normal" in="SourceGraphic" in2="BackgroundImageFix" result="shape"/>
<feGaussianBlur stdDeviation="4" result="effect1_foregroundBlur_11097_17694"/>
</filter>
</defs>
</svg>
