<svg width="353" height="200" viewBox="0 0 353 200" fill="none" xmlns="http://www.w3.org/2000/svg">
<g opacity="0.1">
<path d="M180.927 0C94.1604 0 23.8221 72.6878 23.8221 162.352H35.5231C35.5231 79.3659 100.622 12.092 180.927 12.092C261.231 12.092 326.33 79.3659 326.33 162.352H338.031C338.031 72.6878 267.693 0 180.927 0Z" fill="#FF2938"/>
<path d="M180.935 12.0908C100.631 12.0908 35.5314 79.3647 35.5314 162.351H47.2489C47.2489 86.0522 107.102 24.2005 180.934 24.2005C254.766 24.2005 314.619 86.0522 314.619 162.351H326.337C326.338 79.3647 261.239 12.0908 180.935 12.0908Z" fill="#FFAA00"/>
<path d="M180.94 36.4857C248.206 36.4857 302.737 92.8366 302.737 162.35H314.625C314.625 86.0519 254.772 24.2002 180.94 24.2002C107.108 24.2002 47.2549 86.0519 47.2549 162.35H59.1431C59.1431 92.8377 113.673 36.4857 180.94 36.4857Z" fill="#FFF100"/>
<path d="M180.941 36.4902C113.674 36.4902 59.144 92.8411 59.144 162.355H72.6183C72.6183 100.532 121.116 50.4145 180.941 50.4145C240.766 50.4145 289.263 100.532 289.263 162.355H302.738C302.738 92.8422 248.207 36.4902 180.941 36.4902Z" fill="#42D453"/>
<path d="M180.932 62.6718C234.205 62.6718 277.391 107.3 277.391 162.352H289.255C289.255 100.53 240.757 50.4121 180.932 50.4121C121.107 50.4121 72.6099 100.53 72.6099 162.352H84.4733C84.4733 107.301 127.659 62.6718 180.932 62.6718Z" fill="#268EF0"/>
<path d="M180.944 62.6699C127.671 62.6699 84.4847 107.298 84.4847 162.351H96.7744C96.7744 114.313 134.459 75.3703 180.944 75.3703C227.429 75.3703 265.113 114.313 265.113 162.351H277.403C277.403 107.299 234.217 62.6699 180.944 62.6699Z" fill="#AA32EB"/>
<path d="M180.946 87.2312C221.094 87.2312 253.641 120.865 253.641 162.354H265.115C265.115 114.316 227.431 75.374 180.946 75.374C134.461 75.374 96.7764 114.316 96.7764 162.354H108.251C108.251 120.864 140.797 87.2312 180.946 87.2312Z" fill="#FF22E5"/>
<g opacity="0.21">
<mask id="mask0_11099_128871" style="mask-type:luminance" maskUnits="userSpaceOnUse" x="23" y="0" width="316" height="163">
<path d="M180.956 0C94.1897 0 23.8514 72.6878 23.8514 162.352H35.5524H47.2699H59.1582H72.6324H84.4958H96.7855H108.26C108.26 120.863 140.806 87.2287 180.955 87.2287C221.103 87.2287 253.65 120.863 253.65 162.352H265.124H277.414H289.277H302.752H314.64H326.358H338.059C338.06 72.6878 267.722 0 180.956 0Z" fill="white"/>
</mask>
<g mask="url(#mask0_11099_128871)">
<path d="M316.084 198.725C316.084 165.548 299.07 60.9599 236.917 25.7411C179.433 -6.83125 123.308 5.42011 106.998 10.0219C90.6876 14.6236 236.408 -15.952 238.359 -16.6028C240.31 -17.2535 384.73 68.6178 382.779 71.2198C380.827 73.8217 378.875 178.258 376.273 184.263C373.67 190.269 316.084 205.218 316.084 198.725Z" fill="black"/>
</g>
</g>
<g opacity="0.16">
<mask id="mask1_11099_128871" style="mask-type:luminance" maskUnits="userSpaceOnUse" x="23" y="0" width="316" height="163">
<path d="M180.956 0C94.1897 0 23.8514 72.6878 23.8514 162.352H35.5524H47.2699H59.1582H72.6324H84.4958H96.7855H108.26C108.26 120.863 140.806 87.2287 180.955 87.2287C221.103 87.2287 253.65 120.863 253.65 162.352H265.124H277.414H289.277H302.752H314.64H326.358H338.059C338.06 72.6878 267.722 0 180.956 0Z" fill="white"/>
</mask>
<g mask="url(#mask1_11099_128871)">
<path d="M166.351 287.222C240.722 287.222 301.012 228.272 301.012 155.552C301.012 82.8333 240.722 23.8828 166.351 23.8828C91.98 23.8828 31.6904 82.8333 31.6904 155.552C31.6904 228.272 91.98 287.222 166.351 287.222Z" fill="white"/>
</g>
</g>
<g opacity="0.16">
<mask id="mask2_11099_128871" style="mask-type:luminance" maskUnits="userSpaceOnUse" x="23" y="0" width="316" height="163">
<path d="M180.956 0C94.1897 0 23.8514 72.6878 23.8514 162.352H35.5524H47.2699H59.1582H72.6324H84.4958H96.7855H108.26C108.26 120.863 140.806 87.2287 180.955 87.2287C221.103 87.2287 253.65 120.863 253.65 162.352H265.124H277.414H289.277H302.752H314.64H326.358H338.059C338.06 72.6878 267.722 0 180.956 0Z" fill="white"/>
</mask>
<g mask="url(#mask2_11099_128871)">
<path d="M168.083 287.221C221.507 287.221 264.816 238.61 264.816 178.645C264.816 118.68 221.507 70.0693 168.083 70.0693C114.658 70.0693 71.3494 118.68 71.3494 178.645C71.3494 238.61 114.658 287.221 168.083 287.221Z" fill="white"/>
</g>
</g>
<path d="M26.1848 148.891C26.7672 137.197 34.0599 124.768 45.6181 122.897C52.9501 121.712 60.4331 125.03 65.965 129.985C71.4968 134.941 75.4189 141.4 79.2581 147.757C83.5526 142.139 90.4429 138.594 97.5111 138.364C98.7981 138.323 100.185 138.419 101.195 139.218C102.329 140.115 102.694 141.656 102.905 143.086C103.638 148.044 103.371 153.146 102.124 158C109.938 156.722 116.862 165.729 114.995 173.424C113.128 181.119 104.697 186.013 96.791 185.579C91.3968 195.142 80.061 200.998 69.1401 199.863C58.2181 198.728 48.3297 190.667 45.0181 180.198C42.8837 189.074 32.3011 194.854 23.6801 191.852C15.059 188.852 10.3528 177.75 14.191 169.467C6.69555 166.719 -1.27477 159.893 1.0406 152.252C2.4652 147.553 7.58425 144.701 12.4933 144.588C17.4023 144.475 22.093 146.571 26.3296 149.053" fill="url(#paint0_linear_11099_128871)"/>
<path d="M256.575 151.466C249.328 149.638 241.27 156.211 241.604 163.677C241.938 171.144 250.55 176.971 257.606 174.503C255.18 183.035 261.683 192.514 270.266 194.757C278.847 197 288.279 192.92 293.917 186.072C300.617 189.874 307.821 193.594 315.521 193.399C323.221 193.205 331.331 187.63 331.565 179.93C339.556 180.298 348.35 176.616 351.322 169.188C354.294 161.761 348.173 151.553 340.264 152.753C345.491 149.673 345.699 141.317 341.431 137.005C337.162 132.694 330.039 132.235 324.465 134.629C318.889 137.023 314.65 141.756 311.265 146.791C315.296 140.925 312.904 132.008 306.933 128.133C300.961 124.257 292.592 125.228 286.963 129.584C281.334 133.941 278.333 141.134 278.044 148.247C276.804 143.531 273.613 139.164 269.08 137.367C264.549 135.569 258.736 136.868 256.037 140.929C253.338 144.989 254.886 151.459 259.43 153.224" fill="url(#paint1_linear_11099_128871)"/>
<path d="M112.181 100.624L110.129 101.506L109.692 103.696L108.219 102.017L106.002 102.278L107.144 100.359L106.21 98.3297L108.387 98.8232L110.029 97.3086L110.233 99.5319L112.181 100.624Z" fill="white"/>
<path d="M126.92 46.9358L125.497 44.8729L122.99 44.876L124.513 42.8845L123.735 40.5018L126.1 41.3347L128.126 39.8594L128.065 42.3651L130.094 43.8352L127.692 44.5512L126.92 46.9358Z" fill="white"/>
<path d="M250.254 26.0434L249.389 24.6746L247.772 24.6105L248.807 23.3659L248.368 21.8068L249.871 22.4069L251.218 21.5078L251.113 23.1238L252.383 24.1263L250.815 24.5257L250.254 26.0434Z" fill="white"/>
<path d="M195.985 60.2495L194.586 63.2498L196.266 66.1031L192.981 65.7007L190.786 68.1785L190.153 64.9299L187.119 63.6088L190.012 62.0031L190.331 58.708L192.753 60.9654L195.985 60.2495Z" fill="white"/>
<path d="M249.402 111.831L247.684 110.847L245.899 111.706L246.303 109.767L244.936 108.335L246.905 108.12L247.843 106.377L248.656 108.183L250.604 108.538L249.137 109.869L249.402 111.831Z" fill="white"/>
<path d="M292.467 79.2224L289.359 77.7461L286.38 79.4697L286.823 76.0566L284.263 73.7568L287.646 73.1236L289.042 69.9785L290.69 72.9995L294.113 73.3564L291.748 75.8569L292.467 79.2224Z" fill="white"/>
<path d="M314.677 121.658L313.833 119.949L311.948 119.675L313.312 118.346L312.99 116.467L314.677 117.354L316.363 116.467L316.041 118.346L317.405 119.675L315.52 119.949L314.677 121.658Z" fill="white"/>
<path d="M181.442 8.79449L179.22 8.10236L177.39 9.54041L177.362 7.21367L175.428 5.91735L177.633 5.17143L178.268 2.93262L179.659 4.79795L181.985 4.71104L180.64 6.60948L181.442 8.79449Z" fill="white"/>
<path d="M54.8471 113.273L52.5948 111.2L49.6101 111.88L50.8857 109.098L49.3163 106.469L52.3569 106.823L54.3722 104.519L54.9754 107.519L57.7894 108.723L55.1223 110.224L54.8471 113.273Z" fill="white"/>
<path d="M76.6181 55.6199L75.238 54.8615L73.8309 55.5671L74.1258 54.0204L73.0188 52.9L74.582 52.7034L75.3052 51.3047L75.9756 52.7293L77.5295 52.9848L76.3811 54.0628L76.6181 55.6199Z" fill="white"/>
<path d="M56.3697 76.5702C57.2087 76.5702 57.2097 75.2666 56.3697 75.2666C55.5306 75.2666 55.5296 76.5702 56.3697 76.5702Z" fill="white"/>
<path d="M124.275 57.7088C124.297 57.5464 124.318 57.384 124.339 57.2205C124.499 56.007 122.29 56.0049 122.45 57.2205C122.472 57.3829 122.492 57.5454 122.514 57.7088C122.663 58.8386 124.126 58.8406 124.275 57.7088Z" fill="white"/>
<path d="M137.064 55.7807C137.932 55.7807 137.934 54.4316 137.064 54.4316C136.196 54.4316 136.194 55.7807 137.064 55.7807Z" fill="white"/>
<path d="M144.863 45.6999C145.32 45.6999 145.321 44.9912 144.863 44.9912C144.407 44.9912 144.406 45.6999 144.863 45.6999Z" fill="white"/>
<path d="M102.58 115.932C103.831 115.932 103.833 113.988 102.58 113.988C101.329 113.988 101.327 115.932 102.58 115.932Z" fill="white"/>
<path d="M99.2093 101.859C99.2973 101.776 99.3852 101.68 99.4814 101.608C99.7069 101.435 99.7069 101.168 99.4814 100.995C99.3862 100.922 99.2973 100.825 99.2093 100.744C98.7158 100.279 97.8623 100.603 97.8623 101.301C97.8623 101.998 98.7169 102.323 99.2093 101.859Z" fill="white"/>
<path d="M117.55 94.1866C118.448 94.1866 118.449 92.791 117.55 92.791C116.652 92.791 116.651 94.1866 117.55 94.1866Z" fill="white"/>
<path d="M177.389 59.1039C178.346 59.1039 178.347 57.6172 177.389 57.6172C176.432 57.6172 176.431 59.1039 177.389 59.1039Z" fill="white"/>
<path d="M178.052 69.2582C178.686 69.2582 178.687 68.2754 178.052 68.2754C177.42 68.2754 177.419 69.2582 178.052 69.2582Z" fill="white"/>
<path d="M213.909 60.8656C214.014 60.9576 214.07 61.0259 214.14 61.149C214.282 61.3942 214.649 61.3942 214.792 61.149C214.864 61.027 214.918 60.9576 215.024 60.8656C215.559 60.4031 215.114 59.5186 214.466 59.5186C213.818 59.5186 213.376 60.4052 213.909 60.8656Z" fill="white"/>
<path d="M204.933 70.7613C205.255 70.6579 205.534 70.5554 205.718 70.2575C205.788 70.1458 205.788 69.9885 205.718 69.8768C205.535 69.5788 205.255 69.4754 204.933 69.3729C203.776 69.0005 203.769 71.1348 204.933 70.7613Z" fill="white"/>
<path d="M165.706 7.34883C167.031 7.34883 167.033 5.29004 165.706 5.29004C164.382 5.29004 164.38 7.34883 165.706 7.34883Z" fill="white"/>
<path d="M171.527 17.2696C172.234 17.2696 172.235 16.1719 171.527 16.1719C170.822 16.1708 170.821 17.2696 171.527 17.2696Z" fill="white"/>
<path d="M153.642 12.2653C153.7 11.8887 153.803 11.6177 153.532 11.3166C153.429 11.2018 153.215 11.2018 153.112 11.3166C152.841 11.6187 152.945 11.8897 153.003 12.2653C153.051 12.5819 153.593 12.5819 153.642 12.2653Z" fill="white"/>
<path d="M32.6518 121.458C32.6331 121.21 32.628 120.968 32.5338 120.735C32.1986 119.899 31.1609 119.897 30.8247 120.735C30.7316 120.969 30.7264 121.21 30.7078 121.458C30.6126 122.708 32.748 122.711 32.6518 121.458Z" fill="white"/>
<path d="M37.2012 114.632C37.4815 114.401 38.1509 113.86 37.7381 113.447C37.3243 113.034 36.7822 113.708 36.5535 113.984C36.178 114.441 36.7449 115.009 37.2012 114.632Z" fill="white"/>
<path d="M40.7713 101.579C41.1397 101.579 41.1397 101.007 40.7713 101.007C40.403 101.008 40.403 101.579 40.7713 101.579Z" fill="white"/>
<path d="M263.269 28.696C263.169 28.4735 263.1 28.2863 262.939 28.1C262.781 27.918 262.434 27.919 262.276 28.1C262.115 28.2863 262.045 28.4746 261.946 28.696C261.714 29.2091 261.98 29.8485 262.607 29.8485C263.234 29.8485 263.501 29.2081 263.269 28.696Z" fill="white"/>
<path d="M266.042 36.4179C266.257 36.1986 266.471 35.9792 266.685 35.7589C266.901 35.5375 266.567 35.2033 266.346 35.4195C266.126 35.6337 265.907 35.8478 265.687 36.062C265.455 36.2886 265.816 36.6496 266.042 36.4179Z" fill="white"/>
<path d="M239.761 15.6281C239.786 15.7843 239.81 15.9395 239.835 16.0957C239.936 16.7434 241.041 16.7444 241.143 16.0957C241.168 15.9395 241.192 15.7843 241.217 15.6281C241.408 14.4114 239.569 14.4042 239.761 15.6281Z" fill="white"/>
<path d="M225.536 24.3494C225.699 24.3287 225.861 24.308 226.025 24.2863C226.214 24.2615 226.354 24.1756 226.417 23.9884C226.442 23.9118 226.442 23.8487 226.417 23.7721C226.354 23.5828 226.213 23.498 226.025 23.4742C225.862 23.4535 225.7 23.4328 225.536 23.4111C224.934 23.3345 224.932 24.427 225.536 24.3494Z" fill="white"/>
<path d="M220.324 11.5041C221.133 11.5041 221.135 10.2461 220.324 10.2461C219.515 10.2461 219.514 11.5041 220.324 11.5041Z" fill="white"/>
<path d="M293.198 91.813C293.127 91.6827 293.053 91.5544 292.997 91.4157C292.821 90.9843 292.292 90.9833 292.115 91.4157C292.059 91.5533 291.984 91.6816 291.914 91.813C291.649 92.3044 291.977 92.9314 292.555 92.9314C293.134 92.9314 293.462 92.3044 293.198 91.813Z" fill="white"/>
<path d="M299.038 89.4954C299.759 89.4954 299.76 88.375 299.038 88.375C298.316 88.375 298.315 89.4954 299.038 89.4954Z" fill="white"/>
<path d="M271.699 73.235C272.435 73.235 272.436 72.0918 271.699 72.0918C270.963 72.0908 270.962 73.235 271.699 73.235Z" fill="white"/>
<path d="M284.147 61.6111C284.131 61.4487 284.117 61.2863 284.101 61.1228C284.019 60.2414 282.811 60.2393 282.729 61.1228C282.713 61.2852 282.699 61.4477 282.683 61.6111C282.596 62.5526 284.236 62.5546 284.147 61.6111Z" fill="white"/>
<path d="M253.521 124.693C254.33 124.693 254.332 123.435 253.521 123.435C252.712 123.435 252.711 124.693 253.521 124.693Z" fill="white"/>
<path d="M267.162 129.282C267.178 129.282 267.178 129.257 267.162 129.257C267.146 129.258 267.146 129.282 267.162 129.282Z" fill="white"/>
<path d="M264.575 128.707C266.37 128.707 266.373 125.917 264.575 125.917C262.779 125.917 262.777 128.707 264.575 128.707Z" fill="white"/>
<path d="M109.118 37.587C110.016 37.587 110.017 36.1924 109.118 36.1924C108.22 36.1924 108.219 37.587 109.118 37.587Z" fill="white"/>
<path d="M58.351 87.6677C59.2335 87.6677 59.2355 86.2959 58.351 86.2959C57.4685 86.2949 57.4675 87.6677 58.351 87.6677Z" fill="white"/>
<path d="M160.505 83.0055C160.811 83.0055 161.078 82.9031 161.352 82.7696C161.606 82.6455 161.606 82.2223 161.352 82.0982C161.079 81.9647 160.812 81.8623 160.505 81.8623C159.769 81.8613 159.767 83.0055 160.505 83.0055Z" fill="white"/>
<path d="M216.036 91.5348C216.067 91.779 216.075 92.0242 216.171 92.2518C216.269 92.4887 216.556 92.4887 216.656 92.2518C216.75 92.0252 216.759 91.7769 216.79 91.5348C216.853 91.0496 215.973 91.0496 216.036 91.5348Z" fill="white"/>
<path d="M106.36 135.003C106.709 134.7 107.04 134.381 107.395 134.085C107.693 133.837 107.368 133.396 107.039 133.474C106.574 133.584 106.105 133.66 105.637 133.76C104.527 133.998 105.363 135.87 106.36 135.003Z" fill="white"/>
<path d="M118.18 115.664C119.092 115.664 119.093 114.246 118.18 114.246C117.267 114.246 117.266 115.664 118.18 115.664Z" fill="white"/>
<path d="M71.1372 123.825C71.2314 123.747 71.3224 123.664 71.4103 123.577C71.5903 123.406 71.6514 123.062 71.5045 122.849C71.4952 122.836 71.4869 122.823 71.4776 122.811C71.4776 122.951 71.4776 123.093 71.4776 123.234C71.549 123.085 71.5893 122.991 71.6297 122.832C71.6793 122.636 71.5024 122.459 71.3058 122.508C71.1465 122.549 71.0534 122.589 70.9044 122.661C71.0451 122.661 71.1869 122.661 71.3276 122.661C71.3152 122.651 71.3017 122.643 71.2893 122.634C71.0772 122.487 70.7337 122.546 70.561 122.728C70.474 122.815 70.3923 122.906 70.3127 123.001C69.8181 123.568 70.5692 124.32 71.1372 123.825Z" fill="white"/>
<path d="M120.129 73.2948C120.923 73.2948 120.924 72.0596 120.129 72.0596C119.334 72.0596 119.333 73.2948 120.129 73.2948Z" fill="white"/>
<path d="M202.508 31.4412C202.736 31.1804 202.998 30.9311 203.139 30.6114C203.325 30.1914 202.949 29.8148 202.528 30.001C202.209 30.1428 201.959 30.4035 201.699 30.6321C201.144 31.1194 202.02 31.9967 202.508 31.4412Z" fill="white"/>
<path d="M79.824 45.8206C79.7847 45.533 79.7226 45.3602 79.5581 45.1243C79.3585 44.8388 78.9871 44.8388 78.7874 45.1243C78.6208 45.3633 78.5619 45.534 78.5215 45.8206C78.3725 46.9079 79.9751 46.9152 79.824 45.8206Z" fill="white"/>
<path d="M77.8548 81.3514C78.9732 81.3514 78.9753 79.6133 77.8548 79.6133C76.7364 79.6122 76.7344 81.3514 77.8548 81.3514Z" fill="white"/>
<path d="M67.432 96.0934C67.2469 96.2548 67.0606 96.4162 66.8744 96.5766C65.9423 97.3856 67.4165 98.8599 68.2256 97.9277C68.3869 97.7415 68.5484 97.5563 68.7087 97.3711C69.4733 96.4907 68.3125 95.3289 67.432 96.0934Z" fill="white"/>
</g>
<defs>
<linearGradient id="paint0_linear_11099_128871" x1="57.9674" y1="200.002" x2="57.9674" y2="122.657" gradientUnits="userSpaceOnUse">
<stop stop-color="#E8F4FF"/>
<stop offset="0.3704" stop-color="#E4F1FA"/>
<stop offset="0.8041" stop-color="#D8E7EC"/>
<stop offset="1" stop-color="#D0E1E3"/>
</linearGradient>
<linearGradient id="paint1_linear_11099_128871" x1="296.839" y1="195.375" x2="296.839" y2="125.705" gradientUnits="userSpaceOnUse">
<stop stop-color="#E8F4FF"/>
<stop offset="0.3704" stop-color="#E4F1FA"/>
<stop offset="0.8041" stop-color="#D8E7EC"/>
<stop offset="1" stop-color="#D0E1E3"/>
</linearGradient>
</defs>
</svg>
