<svg width="110" height="110" viewBox="0 0 110 110" fill="none" xmlns="http://www.w3.org/2000/svg">
<g clip-path="url(#clip0_11117_33184)">
<rect width="110" height="110" rx="55" fill="white"/>
<rect width="110" height="110" rx="55" fill="url(#paint0_linear_11117_33184)"/>
<rect width="110" height="110" rx="55" fill="url(#paint1_linear_11117_33184)"/>
<path d="M83.4192 83.334C81.8581 84.6972 81.6547 86.1168 81.8365 86.9608C81.9805 87.6289 82.2827 88.2536 83.0871 88.6697C83.935 89.1084 85.5636 89.2685 87.1262 88.469C87.7636 88.1429 88.55 87.6707 89.6493 87.7516C89.7431 87.5212 89.5989 87.2605 89.3354 87.0011C89.8123 86.6575 90.409 86.3177 91.4179 85.9977C91.4282 85.9945 90.5059 83.2583 86.109 82.5656C86.1424 81.9317 85.7565 81.5923 85.2143 81.5615C85.0069 82.6688 84.4661 82.4199 83.4192 83.334Z" fill="#C4612B"/>
<path d="M83.0871 88.6681C83.9345 89.1067 85.5634 89.2676 87.1255 88.4677C87.7615 88.1431 88.5442 87.6718 89.6384 87.7491C89.6423 87.7487 89.6468 87.7491 89.6498 87.7494C89.6636 87.7144 89.6729 87.6789 89.6763 87.6429C89.6853 87.5454 89.6584 87.4446 89.6044 87.3412C89.5445 87.229 89.4507 87.1144 89.3349 87C89.8124 86.6563 90.409 86.316 91.4175 85.9964C91.4177 85.9935 91.3997 85.935 91.3552 85.8364C91.3484 85.8198 91.3394 85.8024 91.3299 85.7826C91.2989 85.717 91.2577 85.639 91.207 85.5496C91.1966 85.532 91.1862 85.5129 91.1744 85.4936C91.1494 85.4535 91.1238 85.411 91.0947 85.3659C91.0822 85.3459 91.0682 85.3256 91.0542 85.3055C90.9611 85.1667 90.8474 85.0147 90.7095 84.8537C89.99 84.0154 88.612 82.9595 86.1086 82.5639C86.1417 81.93 85.7563 81.591 85.2138 81.5596C85.0067 82.6674 84.4662 82.4184 83.4185 83.3326C82.1269 84.4618 81.7646 85.6279 81.7822 86.4745C81.782 86.4759 81.782 86.4759 81.7812 86.4766C81.7846 86.6524 81.8044 86.8147 81.8363 86.9598C81.9809 87.6275 82.2823 88.2523 83.0871 88.6681Z" fill="#C4612B"/>
<path d="M83.0872 88.6681C83.9346 89.1067 85.5634 89.2676 87.1255 88.4677C87.7615 88.1431 88.5442 87.6718 89.6385 87.7491C89.6423 87.7487 89.6468 87.7491 89.6498 87.7494C89.6636 87.7144 89.673 87.6789 89.6763 87.6429C89.6853 87.5454 89.6584 87.4446 89.6044 87.3412C89.5445 87.229 89.4507 87.1144 89.335 87C89.8124 86.6563 90.409 86.316 91.4175 85.9964C91.4178 85.9935 91.3997 85.935 91.3552 85.8364C91.3484 85.8198 91.3394 85.8024 91.3299 85.7826C91.299 85.717 91.2578 85.639 91.2071 85.5496C91.1966 85.532 91.1863 85.5129 91.1744 85.4936C91.1494 85.4535 91.1238 85.411 91.0947 85.3659C91.0822 85.3459 91.0682 85.3256 91.0542 85.3055C90.9611 85.1667 90.8474 85.0147 90.7095 84.8537C89.99 84.0154 88.6121 82.9595 86.1086 82.5639C86.1096 82.5451 86.1105 82.5278 86.1106 82.5096C86.1147 82.2778 86.0597 82.0881 85.9607 81.9405C85.9533 81.93 85.9467 81.9203 85.9393 81.9098C85.7894 81.7075 85.5527 81.5925 85.2686 81.5639C85.2507 81.5622 85.2326 81.5606 85.2138 81.5596C85.0067 82.6674 84.4662 82.4184 83.4185 83.3326C82.1269 84.4618 81.7646 85.6279 81.7822 86.4745C81.782 86.4759 81.782 86.4759 81.7812 86.4766C81.7846 86.6524 81.8044 86.8147 81.8363 86.9598C81.8707 87.1196 81.9143 87.2772 81.972 87.43C82.154 87.9144 82.4758 88.3519 83.0872 88.6681Z" fill="#666566"/>
<g opacity="0.4">
<path d="M86.1118 82.5107C86.1193 82.5289 86.1266 82.5485 86.1326 82.5694C86.1251 82.5684 86.1169 82.5667 86.1094 82.5656C86.1109 82.5471 86.111 82.5286 86.1118 82.5107Z" fill="white"/>
</g>
<g opacity="0.4">
<path d="M81.972 87.4301C82.0601 87.1243 82.1562 86.8798 82.2068 86.5456C82.3278 85.7391 82.8015 84.6521 83.5694 83.9813C84.5416 83.1312 85.1314 83.313 85.6171 82.3088C85.9377 82.3265 86.0237 82.2883 86.1106 82.5096C86.1147 82.2778 86.0597 82.0881 85.9607 81.9405C85.9533 81.93 85.9467 81.9203 85.9393 81.9098C85.7894 81.7075 85.5527 81.5925 85.2686 81.5639C85.2513 81.563 85.2333 81.5614 85.2145 81.5604L85.2138 81.5596C85.0067 82.6674 84.4662 82.4184 83.4185 83.3326C82.1269 84.4618 81.7646 85.6279 81.7822 86.4745C81.782 86.4759 81.782 86.4759 81.7812 86.4766C81.7846 86.6524 81.8044 86.8147 81.8363 86.9598C81.8707 87.1196 81.9143 87.2772 81.972 87.4301Z" fill="white"/>
</g>
<g opacity="0.4">
<path d="M90.7103 84.8542C91.2503 85.4825 91.4205 85.9868 91.4193 85.997C91.3585 86.0162 91.2996 86.0361 91.2414 86.0553C91.1321 85.8731 90.9801 85.6528 90.7763 85.4146C90.0559 84.5762 88.6797 83.52 86.1751 83.1257C86.1872 82.8976 86.1769 82.7122 86.1328 82.5684C88.6223 82.9661 89.9931 84.0194 90.7103 84.8542Z" fill="white"/>
</g>
<path d="M83.0871 88.668C83.9345 89.1066 85.5634 89.2675 87.1255 88.4675C87.7615 88.143 88.5442 87.6717 89.6384 87.749C89.6423 87.7486 89.6468 87.749 89.6498 87.7492C89.6636 87.7142 89.6729 87.6788 89.6763 87.6428C89.6853 87.5453 89.6592 87.4438 89.6044 87.3411C89.5445 87.2289 89.4507 87.1143 89.3349 86.9999C89.8124 86.6561 90.409 86.3158 91.4175 85.9963C91.4177 85.9933 91.3997 85.9349 91.3552 85.8362C91.3484 85.8197 91.3394 85.8022 91.3299 85.7825C91.2989 85.7168 91.2577 85.6389 91.207 85.5494C91.1966 85.5318 91.1862 85.5127 91.1744 85.4935C91.1494 85.4533 91.1238 85.4109 91.0947 85.3658C91.0822 85.3457 91.0682 85.3255 91.0542 85.3053C90.9611 85.1666 90.8474 85.0146 90.7095 84.8535C90.863 85.3436 90.6959 85.6208 90.1953 85.7083C89.1945 85.8833 88.2872 85.7709 87.3928 86.231C87.9269 86.7437 86.6865 87.4435 86.2755 87.4563C84.6647 87.5067 83.9822 85.9572 83.1857 85.7727C82.1552 85.5339 81.782 86.4758 81.7812 86.4764C81.7846 86.6522 81.8044 86.8144 81.8363 86.9596C81.9809 87.6274 82.2823 88.2522 83.0871 88.668Z" fill="#595959"/>
<path d="M84.802 89.5281C84.0381 89.5281 83.3577 89.363 82.861 89.1061C81.7863 88.5502 81.4871 87.6744 81.3556 87.0639C81.2458 86.5542 81.0469 84.7521 83.0956 82.9632C83.5103 82.6011 83.862 82.3999 84.1187 82.253C84.5401 82.012 84.6402 81.9548 84.7309 81.4705C84.7764 81.2276 84.9947 81.0561 85.2421 81.0701C85.9431 81.1099 86.4357 81.5254 86.5674 82.1461C90.7235 82.9432 91.8788 85.5755 91.9083 85.9592C91.9257 86.1864 91.7847 86.3963 91.5677 86.4657C90.8674 86.6878 90.3957 86.9127 90.043 87.1226C90.2189 87.4602 90.1849 87.7397 90.1046 87.9367C90.0241 88.1342 89.8237 88.2573 89.6132 88.2416C88.7499 88.1773 88.0981 88.5172 87.5235 88.8165C87.4645 88.8472 87.4067 88.8774 87.35 88.9064C86.4859 89.3485 85.5984 89.5281 84.802 89.5281ZM85.5385 82.1966C85.323 82.6971 84.9848 82.8906 84.6071 83.1066C84.3617 83.247 84.0836 83.4062 83.7425 83.704L83.7425 83.7041C82.0989 85.1391 82.2359 86.48 82.317 86.8568C82.4633 87.5357 82.7611 87.9472 83.3129 88.2326C84.0781 88.6285 85.5276 88.7342 86.9019 88.0308C86.9566 88.0029 87.0123 87.9739 87.0692 87.9443C87.5455 87.6961 88.1568 87.3777 88.9306 87.2801C88.867 87.1881 88.8361 87.0763 88.8449 86.963C88.8561 86.8185 88.9303 86.6863 89.0478 86.6017C89.4028 86.3459 89.905 86.0259 90.7344 85.7134C90.2924 84.986 89.0502 83.5264 86.0324 83.051C85.7835 83.0118 85.6045 82.7909 85.6178 82.5393C85.6241 82.421 85.6151 82.2923 85.5385 82.1966Z" fill="#371B45"/>
<path d="M86.5757 82.7138C86.4929 82.8351 86.4114 82.9424 86.3269 83.0536C86.2428 83.1635 86.1563 83.2717 86.0676 83.3779C85.9792 83.484 85.8876 83.5881 85.7915 83.6877C85.6954 83.7865 85.5958 83.8842 85.4844 83.9609C85.53 83.835 85.5522 83.7059 85.572 83.577C85.591 83.4481 85.6043 83.3186 85.6139 83.1883C85.6237 83.0583 85.6307 82.9283 85.6349 82.798C85.6388 82.6692 85.6426 82.535 85.6393 82.4131L86.5757 82.7138Z" fill="#371B45"/>
<path d="M89.0502 87.4003C88.9591 87.2872 88.8367 87.1633 88.7214 87.0503C88.6031 86.936 88.4801 86.8246 88.3508 86.7221C88.2214 86.6201 88.087 86.52 87.9429 86.4378C87.7988 86.3552 87.6465 86.2822 87.4766 86.2407C87.6463 86.1998 87.8291 86.193 88.0108 86.2014C88.1935 86.2095 88.3734 86.2391 88.5535 86.2741C88.7336 86.3097 88.9106 86.3566 89.0868 86.4095C89.2654 86.465 89.432 86.5182 89.6194 86.5983L89.0502 87.4003Z" fill="#371B45"/>
<path d="M74.7814 91.4215C75.6389 92.9481 78.0868 95.1678 80.1844 93.3766C82.0769 91.4682 79.0193 88.6539 81.3877 86.5227C82.3688 85.703 83.3747 85.9176 83.5707 86.5932C83.8165 87.4403 82.7338 87.7063 82.7523 88.8177C82.8168 90.5277 83.9371 92.6299 82.6801 94.8102C81.2955 97.3223 76.8709 98.6462 73.5781 95.6588L74.7814 91.4215Z" fill="white"/>
<path d="M83.4984 87.2365C83.2672 87.6758 82.7394 88.0387 82.7527 88.8176C82.8168 90.5271 83.9376 92.6293 82.6796 94.8101C81.2955 97.3217 76.8709 98.6461 73.5781 95.6587L74.7808 91.4211C75.3584 92.4478 76.654 93.7888 78.0791 94.0112C78.7728 94.1197 79.4975 93.9625 80.1846 93.3761C82.0766 91.4675 79.0196 88.6539 81.3873 86.5229C82.3687 85.703 83.3745 85.9177 83.5703 86.5926C83.6444 86.8471 83.5991 87.0485 83.4984 87.2365Z" fill="url(#paint2_linear_11117_33184)"/>
<path d="M83.4984 87.2365C83.2672 87.6758 82.7394 88.0387 82.7527 88.8176C82.8168 90.5271 83.9376 92.6293 82.6796 94.8101C81.2955 97.3217 76.8709 98.6461 73.5781 95.6587L74.7808 91.4211C75.3584 92.4478 76.654 93.7888 78.0791 94.0112C78.7728 94.1197 79.4975 93.9625 80.1846 93.3761C82.0766 91.4675 79.0196 88.6539 81.3873 86.5229C82.3687 85.703 83.3745 85.9177 83.5703 86.5926C83.6444 86.8471 83.5991 87.0485 83.4984 87.2365Z" fill="url(#paint3_linear_11117_33184)" fill-opacity="0.2"/>
<path d="M82.7527 88.8172C82.8168 90.5266 83.9376 92.6289 82.6796 94.8096C81.2955 97.3212 76.8709 98.6456 73.5781 95.6583L74.7808 91.4206C75.3584 92.4474 76.654 93.7884 78.0791 94.0108C78.1455 94.387 78.161 94.897 77.9673 95.4558C77.6443 96.3874 80.6991 96.6795 82.0888 94.4689C83.5858 92.0856 80.9359 88.6689 83.0105 87.2771C83.1676 87.1719 83.3302 87.1631 83.4984 87.2361C83.2672 87.6754 82.7394 88.0383 82.7527 88.8172Z" fill="#9D9FE6"/>
<path d="M77.8547 97.8682C76.1835 97.8683 74.5788 97.2321 73.2461 96.023L73.9069 95.2947C75.304 96.5621 77.0414 97.0988 78.7978 96.806C80.3051 96.5548 81.6271 95.6991 82.2479 94.573C83.0524 93.1772 82.7753 91.8126 82.5072 90.4929C82.3901 89.9164 82.2795 89.3718 82.2593 88.8364C82.247 88.1035 82.5951 87.6477 82.8491 87.3148C83.0903 86.9989 83.1461 86.9002 83.0968 86.7304C83.0661 86.6243 82.9854 86.5507 82.8571 86.5115C82.6134 86.437 82.1846 86.4992 81.7083 86.8944C80.6775 87.8273 80.8849 88.8927 81.1248 90.126C81.3535 91.3012 81.6126 92.6331 80.5319 93.7229C80.5224 93.7325 80.5124 93.7417 80.5021 93.7505C79.7464 94.396 78.8581 94.6499 77.9332 94.4856C76.4092 94.2144 75.008 92.832 74.3511 91.6624L75.2085 91.1807C75.7732 92.1862 76.9496 93.3116 78.1054 93.5173C78.7423 93.6306 79.3124 93.4667 79.8477 93.016C80.5117 92.3338 80.3986 91.5429 80.1595 90.3138C79.9124 89.0441 79.6049 87.4639 81.0571 86.1572C81.0616 86.1531 81.0661 86.1492 81.0708 86.1453C81.7333 85.5916 82.5083 85.3767 83.1442 85.5708C83.5906 85.7071 83.9176 86.0298 84.0413 86.4562C84.2343 87.1211 83.8855 87.5779 83.6308 87.9116C83.419 88.1891 83.236 88.4287 83.2422 88.8097C83.2592 89.2546 83.3621 89.761 83.4709 90.2971C83.7468 91.6554 84.0902 93.346 83.1045 95.0559C82.3465 96.4312 80.7565 97.4766 78.9595 97.7761C78.5896 97.8377 78.2204 97.8682 77.8547 97.8682Z" fill="#371B45"/>
<path d="M50.9403 91.3516C50.9403 91.3516 47.3957 100.295 52.3251 110.151C49.9497 110.941 49.5652 113.109 49.8729 114.149C50.2571 115.448 51.5671 115.539 53.2793 115.539C53.9109 115.539 57.8557 115.539 58.5009 115.539C60.9458 115.539 62.312 114.802 62.23 111.81C62.102 107.138 59.8532 102.324 63.4977 96.6686" fill="url(#paint4_linear_11117_33184)"/>
<path d="M50.9403 91.3516C50.9403 91.3516 47.3957 100.295 52.3251 110.151C49.9497 110.941 49.5652 113.109 49.8729 114.149C50.2571 115.448 51.5671 115.539 53.2793 115.539C53.9109 115.539 57.8557 115.539 58.5009 115.539C60.9458 115.539 62.312 114.802 62.23 111.81C62.102 107.138 59.8532 102.324 63.4977 96.6686" fill="url(#paint5_linear_11117_33184)" fill-opacity="0.2"/>
<path d="M62.2262 111.81C62.3086 114.802 60.9428 115.539 58.4975 115.539L53.2752 115.539C51.5639 115.539 50.2534 115.448 49.8686 114.149C49.7481 113.742 49.7346 113.164 49.903 112.563C50.6419 113.166 51.7274 113.84 55.3245 113.748C60.7116 113.612 60.5702 111.208 60.1191 108.708C59.6679 106.208 59.7379 103.752 58.7975 103.027C58.0992 102.489 52.3642 100.9 49.7813 97.0482C50.0518 93.5838 50.9369 91.3513 50.9369 91.3513L63.4937 96.6683C59.8498 102.323 62.0984 107.138 62.2262 111.81Z" fill="#9D9FE6"/>
<path d="M62.2262 111.81C62.3086 114.802 60.9428 115.539 58.4975 115.539L53.2752 115.539C51.5639 115.539 50.2534 115.448 49.8686 114.149C49.7481 113.742 49.7346 113.164 49.903 112.563C50.6419 113.166 51.7274 113.84 55.3245 113.748C60.7116 113.612 60.5702 111.208 60.1191 108.708C59.6679 106.208 59.7379 103.752 58.7975 103.027C58.0992 102.489 52.3642 100.9 49.7813 97.0482C50.0518 93.5838 50.9369 91.3513 50.9369 91.3513L63.4937 96.6683C59.8498 102.323 62.0984 107.138 62.2262 111.81Z" fill="#9D9FE6"/>
<path d="M58.4986 116.031L53.2769 116.031C51.7789 116.031 49.9144 116.031 49.3989 114.288C49.0274 113.033 49.5213 110.874 51.6485 109.889C49.2712 104.874 49.0481 100.143 49.2915 97.0167C49.5642 93.5151 50.4434 91.264 50.4808 91.1699L51.3953 91.5319C51.3866 91.5538 50.5259 93.7666 50.2691 97.1304C50.033 100.223 50.2738 104.955 52.7624 109.93C52.8263 110.058 52.8316 110.207 52.777 110.338C52.7224 110.47 52.6133 110.572 52.478 110.617C50.3395 111.329 50.1157 113.245 50.342 114.009C50.6047 114.897 51.4597 115.047 53.2769 115.047L58.4985 115.047C59.8066 115.047 60.604 114.827 61.0839 114.334C61.5558 113.849 61.7691 113.028 61.7361 111.823C61.7037 110.642 61.5339 109.461 61.3542 108.211C60.8267 104.542 60.2814 100.748 63.0819 96.4017L63.9086 96.9346C61.3071 100.971 61.8259 104.58 62.3276 108.071C62.5035 109.294 62.6852 110.559 62.7191 111.796C62.7598 113.28 62.4554 114.335 61.7888 115.02C61.1086 115.719 60.0939 116.031 58.4986 116.031Z" fill="#371B45"/>
<path d="M56.6346 110.653C55.9127 110.542 55.1896 110.507 54.469 110.511C54.1087 110.515 53.7492 110.527 53.391 110.548C53.0352 110.57 52.6707 110.6 52.3301 110.643L52.3164 109.659C52.7012 109.698 53.0621 109.751 53.4306 109.812C53.7967 109.873 54.1605 109.943 54.5215 110.022C55.2429 110.182 55.9557 110.384 56.6346 110.653Z" fill="#371B45"/>
<path d="M54.1556 66.6094C51.7583 66.6094 46.66 74.64 42.0802 74.675C38.2691 74.7042 34.5338 71.5083 34.5338 71.5083C34.5338 71.5083 27.3168 76.5587 27.8266 78.4488C28.342 80.3597 34.0882 85.0379 41.1038 85.0499C48.8909 85.0633 53.0565 80.9019 55.5079 76.6902C63.691 72.7294 56.5528 66.6094 54.1556 66.6094Z" fill="url(#paint6_linear_11117_33184)"/>
<path d="M54.1556 66.6094C51.7583 66.6094 46.66 74.64 42.0802 74.675C38.2691 74.7042 34.5338 71.5083 34.5338 71.5083C34.5338 71.5083 27.3168 76.5587 27.8266 78.4488C28.342 80.3597 34.0882 85.0379 41.1038 85.0499C48.8909 85.0633 53.0565 80.9019 55.5079 76.6902C63.691 72.7294 56.5528 66.6094 54.1556 66.6094Z" fill="url(#paint7_linear_11117_33184)" fill-opacity="0.2"/>
<path d="M53.3299 79.7596C50.7593 82.7138 46.9532 85.0594 41.1038 85.0496C34.0878 85.0373 28.3417 80.3596 27.8266 78.4491C27.5647 77.4792 29.3387 75.6757 31.1274 74.1512L35.9638 74.0996C35.8199 76.6407 33.2542 82.302 41.2906 82.7052C50.0609 83.1465 51.7206 74.7487 51.7206 74.7487L53.3299 79.7596Z" fill="#9D9FE6"/>
<path d="M59.3154 71.8391C54.9462 72.1821 51.488 71.4051 49.0391 70.5335C51.1425 68.553 52.9755 66.6094 54.1545 66.6094C55.6666 66.6094 59.0683 69.046 59.3154 71.8391Z" fill="#9D9FE6"/>
<path d="M52.5825 67.8516C53.1357 68.6568 53.1591 70.1357 53.2747 71.6122C52.612 71.5077 51.9875 71.3799 51.3987 71.2372C51.3704 70.089 51.2438 68.9568 50.9844 67.8516L52.5825 67.8516Z" fill="#E2D9D3"/>
<path d="M70.5568 68.7847C67.4674 70.1898 64.6275 71.0356 62.0508 71.4893C64.1235 69.4387 66.5392 67.5946 69.8438 68.2917C70.038 68.3716 70.2802 68.54 70.5568 68.7847Z" fill="#E2D9D3"/>
<path d="M70.3962 68.8597C62.5196 72.4003 56.267 72.3105 51.9102 71.3528C51.9335 71.075 51.9532 70.7947 51.9692 70.5132C52.2433 65.0031 59.472 65.3154 65.9201 64.9736C67.2035 65.8256 68.7857 67.1545 70.3962 68.8597Z" fill="#B25B36"/>
<path d="M41.143 85.5412C41.1302 85.5412 41.118 85.5412 41.1053 85.5412C37.9722 85.5358 34.6601 84.5921 31.7791 82.884C29.4557 81.5064 27.6774 79.7754 27.354 78.5764C27.1827 77.9411 27.34 76.7647 30.6704 73.8967C32.4095 72.3991 34.2359 71.1177 34.2541 71.1049C34.4378 70.9763 34.6855 70.9884 34.8557 71.1342C34.8914 71.1646 38.4684 74.1828 42.0305 74.183C42.0467 74.183 42.0625 74.183 42.0787 74.1828C44.5364 74.1641 47.3425 71.4809 49.5971 69.325C51.4714 67.5328 52.9518 66.1172 54.1578 66.1172C55.8513 66.1172 59.0812 68.4438 59.7135 71.2011C60.0858 72.825 59.7128 75.1523 55.8595 77.0661C54.3829 79.5677 52.656 81.4646 50.584 82.8618C47.9471 84.6398 44.7707 85.5412 41.143 85.5412ZM34.5176 72.1255C33.9348 72.5465 32.5955 73.5364 31.3072 74.6463C28.2221 77.3041 28.2639 78.1731 28.3036 78.3203C28.7079 79.8195 34.0491 84.5456 41.1069 84.5578C41.1191 84.5578 41.1322 84.5578 41.1444 84.5578C47.3472 84.5581 51.9069 81.9032 55.0851 76.4424C55.1343 76.3578 55.2077 76.2898 55.2958 76.2471C57.1706 75.3398 59.2924 73.7658 58.7548 71.4209C58.2227 69.1005 55.3453 67.1007 54.1578 67.1007C53.3464 67.1007 51.786 68.5928 50.2769 70.0358C47.7726 72.4304 44.9341 75.1446 42.0862 75.1664C42.0677 75.1665 42.0486 75.1665 42.0302 75.1665C38.6913 75.1668 35.4983 72.8917 34.5176 72.1255Z" fill="#371B45"/>
<path d="M65.9163 64.9746C71.4838 68.6687 82.6767 81.3622 77.4175 94.6486C75.8056 98.721 69.7718 101.705 63.3551 101.524C57.9152 101.37 51.5122 99.3724 49.8275 94.0339C47.6821 87.2355 51.4097 80.0098 51.9653 70.5136C52.2393 65.0046 59.4676 65.3159 65.9163 64.9746Z" fill="url(#paint8_linear_11117_33184)"/>
<path d="M65.9163 64.9746C71.4838 68.6687 82.6767 81.3622 77.4175 94.6486C75.8056 98.721 69.7718 101.705 63.3551 101.524C57.9152 101.37 51.5122 99.3724 49.8275 94.0339C47.6821 87.2355 51.4097 80.0098 51.9653 70.5136C52.2393 65.0046 59.4676 65.3159 65.9163 64.9746Z" fill="url(#paint9_linear_11117_33184)" fill-opacity="0.2"/>
<path d="M70.3923 68.8597C62.5157 72.4003 56.2631 72.3105 51.9062 71.3528C51.9296 71.075 51.9493 70.7947 51.9653 70.5132C52.2394 65.0031 59.4681 65.3154 65.9162 64.9736C67.1996 65.8256 68.7818 67.1545 70.3923 68.8597Z" fill="#9D9FE6"/>
<path d="M77.4218 94.6488C75.8089 98.7205 69.7751 101.705 63.359 101.523C57.9191 101.37 51.5153 99.3721 49.831 94.0341C48.9828 91.3455 49.0528 88.5893 49.4831 85.6523L78.7052 85.6523C78.972 88.5512 78.6339 91.584 77.4218 94.6488Z" fill="#9D9FE6"/>
<path d="M66.1902 64.5645C67.0035 65.1075 67.7625 65.7083 68.4895 66.3421C69.2161 66.9764 69.9102 67.6437 70.5755 68.3378C71.9059 69.726 73.1237 71.2194 74.2161 72.8019C74.7624 73.593 75.2769 74.4068 75.7528 75.2436C76.2309 76.0792 76.6701 76.9378 77.066 77.8172C77.4638 78.6957 77.8162 79.5959 78.1166 80.5146C78.4188 81.4325 78.6699 82.3688 78.8575 83.3194C79.2404 85.2184 79.3697 87.1752 79.2156 89.1138C79.0571 91.0519 78.6071 92.9657 77.8978 94.7734C77.5341 95.7234 76.9591 96.5791 76.2892 97.3147C75.6157 98.052 74.8428 98.6803 74.0213 99.2197C72.3724 100.295 70.5356 101.026 68.646 101.486C66.755 101.942 64.7967 102.13 62.8562 102.036C60.9225 101.946 58.9917 101.648 57.1264 101.067C56.1946 100.776 55.2808 100.411 54.4064 99.953C53.5324 99.4963 52.7012 98.9379 51.9555 98.2694C51.2104 97.6015 50.556 96.8162 50.0535 95.9369C49.8036 95.497 49.5887 95.0366 49.4172 94.5609C49.3719 94.4428 49.3354 94.3219 49.2946 94.2023L49.1878 93.8476C49.1206 93.61 49.0579 93.3712 49.0026 93.1308C48.5571 91.2037 48.5249 89.2171 48.717 87.2962C48.9081 85.3704 49.2768 83.4901 49.6692 81.6312C50.065 79.7724 50.4734 77.9281 50.8094 76.0748C50.9814 75.149 51.1625 74.2261 51.3483 73.3007C51.5406 72.3758 51.7271 71.4484 51.9674 70.5132C52.0943 71.4705 52.1078 72.4321 52.068 73.3888C52.0247 74.3455 51.9207 75.2975 51.7719 76.2402C51.4676 78.1248 51.0793 79.9887 50.7157 81.8446C50.3542 83.7001 49.9984 85.549 49.8334 87.4004C49.7529 88.3254 49.7123 89.2495 49.7478 90.1665C49.7833 91.0831 49.8941 91.9922 50.0974 92.8784C50.148 93.1 50.2056 93.3198 50.2669 93.5385L50.3645 93.8647C50.4005 93.9693 50.4319 94.0756 50.4716 94.1788C50.6211 94.5953 50.8083 94.9969 51.026 95.3815C51.4641 96.1497 52.0368 96.841 52.702 97.439C53.3671 98.0381 54.1223 98.5445 54.925 98.9707C55.7285 99.3968 56.5796 99.7442 57.4559 100.023C59.2097 100.58 61.0556 100.878 62.9068 100.974C64.7531 101.074 66.6097 100.917 68.4061 100.487C70.1987 100.059 71.9374 99.3708 73.4719 98.3781C74.2363 97.8806 74.9472 97.3048 75.5557 96.6437C76.1622 95.9815 76.6646 95.2366 76.9824 94.4141C77.6578 92.692 78.0844 90.876 78.2353 89.0345C78.3815 87.1924 78.2595 85.3296 77.893 83.512C77.7136 82.6024 77.4728 81.7041 77.1822 80.8213C76.8934 79.938 76.5538 79.0701 76.1695 78.2216C75.7871 77.3721 75.3621 76.541 74.8985 75.7309C74.4372 74.9196 73.9376 74.1294 73.4067 73.3605C72.3451 71.8225 71.1588 70.3678 69.8656 69.0185C69.219 68.3439 68.545 67.6961 67.8432 67.0835C67.1416 66.4716 66.4103 65.8939 65.6465 65.384L66.1902 64.5645Z" fill="#371B45"/>
<path d="M26.3596 70.0681C29.0935 67.3343 34.2813 67.9 34.3804 73.7283C34.4933 80.3708 29.4324 82.6302 25.3655 79.58C21.5312 76.7043 23.8619 72.5658 26.3596 70.0681Z" fill="#DFE6F4"/>
<path d="M29.0671 81.4094C27.728 81.4094 26.3349 80.9227 25.0699 79.974C23.7041 78.9495 22.9591 77.6938 22.856 76.2417C22.6544 73.4058 24.9956 70.7368 26.0115 69.7209C27.603 68.1292 29.938 67.5716 31.8209 68.3328C33.7145 69.0984 34.8264 71.0621 34.8715 73.7205C34.9292 77.1072 33.6837 79.7025 31.4545 80.8409C30.7086 81.2218 29.8981 81.4093 29.0671 81.4094ZM30.041 68.9774C28.8641 68.9774 27.6378 69.4854 26.7069 70.4163C25.7864 71.3367 23.6642 73.7402 23.837 76.172C23.9191 77.327 24.5324 78.3414 25.6601 79.1871C27.4028 80.4942 29.402 80.7847 31.0072 79.965C32.889 79.004 33.9391 76.734 33.8882 73.7371C33.8495 71.4596 32.9845 69.8641 31.4523 69.2447C31.0068 69.0645 30.528 68.9774 30.041 68.9774Z" fill="#371B45"/>
<path d="M25.7883 81.4935C23.9554 83.3265 21.538 83.2514 20.2439 83.2514C18.9498 83.2514 16.5309 83.3265 14.6979 81.4935C12.9312 79.7268 11.8521 73.8129 12.9312 67.5559C12.9312 66.7019 16.2055 66.01 20.2439 66.01C24.2822 66.01 27.555 66.702 27.555 67.5559C28.6356 73.8129 27.555 79.7268 25.7883 81.4935Z" fill="white"/>
<path d="M25.7892 81.494C23.9562 83.327 21.5393 83.2521 20.2448 83.252C18.9503 83.252 16.5321 83.327 14.6991 81.494C13.8078 80.6028 13.0899 78.6517 12.7383 76.1328C13.1071 77.3314 13.5804 78.2522 14.1176 78.7894C15.9506 80.6224 18.3688 80.5474 19.6633 80.5474C20.9578 80.5474 23.3748 80.6224 25.2077 78.7894C26.758 77.2392 27.7796 72.4976 27.278 67.1338C27.4587 67.2678 27.5558 67.4104 27.5558 67.5567C28.6365 73.813 27.5558 79.7274 25.7892 81.494Z" fill="#DFE6F4"/>
<path d="M20.5539 83.7439C20.4978 83.7439 20.4433 83.7438 20.3907 83.7437L20.2445 83.7435L20.0982 83.7437C18.7587 83.7475 16.2608 83.7517 14.3509 81.8416C12.5168 80.0076 11.3036 74.1465 12.4417 67.5051C12.5612 65.5747 19.4526 65.5186 20.2445 65.5186C21.0363 65.5186 27.9265 65.5746 28.0458 67.505C29.1852 74.1452 27.9717 80.0065 26.1367 81.8416C24.3018 83.6765 21.9265 83.7439 20.5539 83.7439ZM13.422 67.5974C13.4208 67.6116 13.419 67.6257 13.4164 67.6398C12.3715 73.699 13.4155 79.5153 15.0463 81.1461C16.6675 82.7674 18.8133 82.7621 20.0963 82.7602L20.2445 82.76L20.3926 82.7602C21.6758 82.7634 23.8202 82.767 25.4413 81.1461C27.073 79.5143 28.1172 73.6978 27.0711 67.6399C27.0685 67.6258 27.0667 67.6116 27.0655 67.5973C26.7826 67.196 24.3147 66.5021 20.2445 66.5021C16.1738 66.5021 13.7053 67.1961 13.422 67.5974Z" fill="#371B45"/>
<path d="M20.2434 69.6401C23.5643 69.6401 26.2563 69.0709 26.2563 68.3689C26.2563 67.6668 23.5643 67.0977 20.2434 67.0977C16.9226 67.0977 14.2305 67.6668 14.2305 68.3689C14.2305 69.0709 16.9226 69.64 20.2434 69.6401Z" fill="#371B45"/>
<path d="M20.2431 69.8866C18.0784 69.8866 13.9844 69.5696 13.9844 68.3696C13.9844 67.1696 18.0784 66.8525 20.2431 66.8525C22.408 66.8525 26.502 67.1696 26.502 68.3696C26.502 69.5695 22.408 69.8866 20.2431 69.8866ZM20.2431 67.3443C18.6536 67.3443 17.1616 67.4746 16.0422 67.7113C14.7639 67.9815 14.4761 68.2847 14.4761 68.3696C14.4761 68.4545 14.7639 68.7576 16.0422 69.0278C17.1616 69.2645 18.6536 69.3948 20.2431 69.3948C21.8327 69.3948 23.3246 69.2645 24.4441 69.0279C25.7225 68.7576 26.0102 68.4545 26.0102 68.3696C26.0102 68.2847 25.7225 67.9815 24.4441 67.7113C23.3246 67.4746 21.8327 67.3443 20.2431 67.3443Z" fill="#371B45"/>
<path d="M32.7089 75.753C32.7089 75.753 33.784 76.5558 35.086 75.6844C36.5373 74.713 36.9373 70.7361 35.166 69.8218C33.5474 68.9864 31.5547 70.8618 31.5547 70.8618L32.7089 75.753Z" fill="url(#paint10_linear_11117_33184)"/>
<path d="M32.7089 75.753C32.7089 75.753 33.784 76.5558 35.086 75.6844C36.5373 74.713 36.9373 70.7361 35.166 69.8218C33.5474 68.9864 31.5547 70.8618 31.5547 70.8618L32.7089 75.753Z" fill="url(#paint11_linear_11117_33184)" fill-opacity="0.2"/>
<path d="M36.3236 72.872C36.2376 74.0547 35.7827 75.2164 35.0844 75.6836C33.7825 76.5552 32.7081 75.7524 32.7081 75.7524L31.8672 72.1885L34.3112 71.666C34.8979 71.9979 34.798 73.5372 35.3282 73.7421C35.8584 73.947 36.2978 72.9347 36.3236 72.872Z" fill="#9D9FE6"/>
<g opacity="0.3">
<path d="M36.2447 73.4941C36.2841 72.2979 35.9362 71.1276 35.0731 70.6826C33.7983 70.0236 32.2898 71.0489 31.7084 71.5136L31.5547 70.8621C31.5547 70.8621 33.5475 68.9861 35.1653 69.822C36.2361 70.374 36.514 72.0447 36.2447 73.4941Z" fill="white"/>
</g>
<path d="M33.8371 76.5852C33.0155 76.5852 32.4502 76.1737 32.4143 76.147C32.3217 76.0779 32.2564 75.9784 32.2299 75.8659L31.0756 70.9747C31.0353 70.8037 31.0893 70.6242 31.2173 70.5037C31.309 70.4174 33.4854 68.4016 35.3912 69.3849C36.2266 69.8161 36.7486 70.8181 36.8233 72.1337C36.9042 73.5601 36.4274 75.3782 35.3591 76.0932C34.8054 76.4638 34.2834 76.5852 33.8371 76.5852ZM33.1393 75.4371C33.4139 75.5723 34.0581 75.7806 34.8122 75.2758C35.4627 74.8403 35.9149 73.4846 35.8414 72.1894C35.787 71.23 35.4584 70.5264 34.94 70.2589C33.9177 69.7311 32.6069 70.6377 32.102 71.0415L33.1393 75.4371Z" fill="#371B45"/>
<path d="M28.7218 70.3474C31.196 68.216 34.5058 69.628 34.5343 72.7242C34.538 73.1155 34.3901 73.8158 33.9444 74.0843C34.453 76.1528 34.3834 78.7178 32.3585 79.8447C31.2401 80.4672 28.9573 80.2545 27.9876 78.5655C27.0286 76.8951 27.2445 71.6199 28.7218 70.3474Z" fill="url(#paint12_linear_11117_33184)"/>
<path d="M28.7218 70.3474C31.196 68.216 34.5058 69.628 34.5343 72.7242C34.538 73.1155 34.3901 73.8158 33.9444 74.0843C34.453 76.1528 34.3834 78.7178 32.3585 79.8447C31.2401 80.4672 28.9573 80.2545 27.9876 78.5655C27.0286 76.8951 27.2445 71.6199 28.7218 70.3474Z" fill="url(#paint13_linear_11117_33184)" fill-opacity="0.2"/>
<g opacity="0.3">
<path d="M34.31 71.4412C33.249 69.9426 31.0215 69.5996 29.2376 71.1351C27.7907 72.3816 27.5792 77.5474 28.5185 79.1837C28.5443 79.2292 28.5726 79.2747 28.6009 79.3177C28.3648 79.11 28.1558 78.8604 27.9874 78.5666C27.0285 76.8959 27.2449 71.6207 28.7213 70.3483C30.8211 68.5399 33.522 69.2824 34.31 71.4412Z" fill="white"/>
</g>
<path d="M33.9441 74.085C34.4518 76.154 34.3829 78.7185 32.3581 79.8458C31.2395 80.4679 28.9565 80.2552 27.9865 78.566C27.8501 78.3288 27.737 78.019 27.6484 77.6575C28.6344 79.3 30.8531 79.5329 31.9224 78.8525C33.6127 77.7768 33.29 73.8735 32.3791 72.9318C32.8253 72.6638 34.0178 73.0597 33.7363 71.0927C33.692 70.7841 33.6269 70.4989 33.5421 70.2383C34.1407 70.8271 34.5243 71.6803 34.5342 72.7253C34.5366 73.1162 34.3891 73.817 33.9441 74.085Z" fill="#9D9FE6"/>
<path d="M30.9511 80.654C29.7147 80.654 28.3137 80.1202 27.5617 78.81C26.5578 77.0617 26.6615 71.4731 28.4014 69.9744C29.7236 68.8352 31.4247 68.5259 32.8403 69.167C34.1944 69.7803 35.0117 71.1083 35.0266 72.7194C35.0302 73.1153 34.9133 73.8134 34.4913 74.2665C34.8199 75.8056 35.1023 78.8805 32.5981 80.2742C32.1621 80.5168 31.5775 80.654 30.9511 80.654ZM29.0432 70.7196C27.7999 71.7907 27.5512 76.8167 28.4146 78.3204C29.2113 79.7081 31.1809 79.9375 32.1199 79.4148C34.2074 78.253 33.7577 75.3819 33.4674 74.2015C33.416 73.9923 33.5066 73.7741 33.6911 73.6629C33.9057 73.5336 34.0464 73.0754 34.0431 72.7285C34.032 71.5105 33.4306 70.514 32.4346 70.0629C31.3557 69.5742 30.0878 69.82 29.0432 70.7196Z" fill="#371B45"/>
<path d="M30.2344 72.9133C30.9325 72.635 31.7366 72.5389 32.5269 72.7246C32.9205 72.8182 33.3108 72.9843 33.6585 73.2446C34.0053 73.5029 34.3069 73.8645 34.4869 74.2991L33.5483 74.5931C33.502 74.3119 33.3691 74.0329 33.1616 73.7897C32.9549 73.5461 32.678 73.3407 32.3653 73.189C31.7372 72.8839 30.977 72.7912 30.2344 72.9133Z" fill="#371B45"/>
<path d="M63.7651 98.5527C62.8431 104.72 64.4925 108.362 65.6758 111.051C64.3855 111.878 63.6607 113.753 64.0628 114.988C64.4754 116.256 65.3844 116.399 67.4737 116.399C68.4946 116.399 71.1704 116.399 71.838 116.399C74.8499 116.399 75.649 115.2 75.9871 113.94C76.4377 112.261 75.2397 106.471 75.1573 104.945C74.9729 101.532 75.8027 98.5732 77.4178 94.6484" fill="url(#paint14_linear_11117_33184)"/>
<path d="M63.7651 98.5527C62.8431 104.72 64.4925 108.362 65.6758 111.051C64.3855 111.878 63.6607 113.753 64.0628 114.988C64.4754 116.256 65.3844 116.399 67.4737 116.399C68.4946 116.399 71.1704 116.399 71.838 116.399C74.8499 116.399 75.649 115.2 75.9871 113.94C76.4377 112.261 75.2397 106.471 75.1573 104.945C74.9729 101.532 75.8027 98.5732 77.4178 94.6484" fill="url(#paint15_linear_11117_33184)" fill-opacity="0.2"/>
<path d="M75.1568 104.944C75.2392 106.47 76.4366 112.26 75.9866 113.94C75.6486 115.2 74.8495 116.398 71.8375 116.398L67.4733 116.398C65.3833 116.398 64.4748 116.256 64.0618 114.987C63.9548 114.659 63.9277 114.284 63.9696 113.897C64.701 114.264 66.0165 114.675 69.1255 114.628C74.8728 114.541 74.6269 112.412 74.1204 109.496C73.5205 106.053 73.137 103.072 72.7067 101.53C72.4522 100.621 71.0519 99.2303 68.6695 99.1959C66.9336 99.1701 64.6543 99.8241 63.5 101.583C63.5196 100.645 63.602 99.6372 63.7643 98.5517L77.4177 94.6484C75.8022 98.5726 74.9724 101.53 75.1568 104.944Z" fill="#9D9FE6"/>
<path d="M63.7659 98.5523C63.7945 99.098 63.8056 99.6349 63.823 100.168C63.8465 100.702 63.8662 101.231 63.8997 101.757C63.9685 102.808 64.0659 103.848 64.2524 104.871C64.3453 105.383 64.4521 105.891 64.5859 106.392C64.718 106.894 64.8604 107.394 65.0286 107.887C65.348 108.879 65.7504 109.847 66.1267 110.853L66.1444 110.9C66.225 111.116 66.1349 111.354 65.9418 111.465C65.3862 111.823 64.9455 112.414 64.6873 113.061C64.4323 113.709 64.3435 114.431 64.5915 115C64.6517 115.148 64.7247 115.275 64.8109 115.377C64.8973 115.48 64.9974 115.56 65.1233 115.625C65.3729 115.758 65.7202 115.824 66.0835 115.859C66.816 115.927 67.6127 115.901 68.4015 115.907L70.769 115.907L71.9476 115.906C72.324 115.901 72.6974 115.878 73.058 115.823C73.7775 115.715 74.4569 115.471 74.8942 115.008C75.1145 114.778 75.2799 114.497 75.3987 114.173C75.4292 114.093 75.4556 114.009 75.4814 113.924C75.4929 113.883 75.5073 113.836 75.516 113.798L75.5405 113.687C75.5671 113.527 75.5845 113.351 75.591 113.168C75.6062 112.803 75.5905 112.419 75.5666 112.036C75.542 111.653 75.5058 111.266 75.4634 110.879C75.3785 110.105 75.2714 109.328 75.1572 108.55L74.8084 106.206C74.7542 105.808 74.697 105.421 74.6683 104.989L74.6458 104.38C74.6415 104.177 74.6449 103.974 74.6442 103.771C74.6641 102.145 74.9357 100.528 75.3656 98.9785C75.792 97.4247 76.3633 95.9313 76.9638 94.4609L77.8733 94.8352C77.2807 96.2859 76.7228 97.7475 76.3138 99.2395C75.9009 100.73 75.6468 102.252 75.6276 103.785C75.6285 103.976 75.625 104.168 75.6291 104.36L75.6502 104.933C75.6735 105.289 75.7292 105.684 75.7823 106.068L76.1303 108.407C76.2454 109.191 76.3539 109.978 76.4412 110.773C76.4846 111.17 76.5223 111.569 76.5482 111.973C76.5731 112.378 76.5909 112.784 76.5736 113.208C76.5658 113.419 76.5466 113.637 76.5077 113.866L76.4682 114.044C76.4543 114.102 76.4394 114.149 76.4247 114.203C76.3931 114.307 76.36 114.411 76.3205 114.516C76.1686 114.932 75.9317 115.349 75.6041 115.689C75.2787 116.031 74.8752 116.284 74.4631 116.455C74.0497 116.629 73.6257 116.731 73.2066 116.795C72.7869 116.859 72.3704 116.884 71.958 116.889L70.769 116.89L68.4015 116.89C67.6129 116.884 66.8281 116.913 65.9873 116.838C65.5693 116.793 65.1208 116.729 64.6661 116.496C64.4416 116.381 64.2256 116.211 64.0589 116.011C63.8904 115.812 63.7696 115.589 63.6814 115.372C63.5954 115.163 63.5239 114.921 63.492 114.687C63.4592 114.452 63.4545 114.22 63.47 113.993C63.5018 113.539 63.6114 113.106 63.7736 112.697C63.9368 112.288 64.1542 111.903 64.4254 111.553C64.6967 111.203 65.0237 110.886 65.4112 110.637L65.4112 110.637L65.2264 111.249C64.7369 110.296 64.2859 109.297 63.93 108.255C63.7581 107.732 63.599 107.203 63.4755 106.665C63.3535 106.127 63.2502 105.583 63.1806 105.036C63.041 103.942 63.0061 102.837 63.0978 101.747C63.1973 100.657 63.4058 99.5817 63.7659 98.5523Z" fill="#371B45"/>
<path d="M78.7786 89.8413C78.5512 91.6054 78.084 93.238 77.4213 94.6493C72.569 98.0018 52.041 97.5863 49.7396 93.731C49.2811 92.7438 49.0352 91.6693 48.9405 90.5248L48.9405 90.5236C48.4058 84.0374 52.7442 75.3224 50.9862 67.8516L52.5844 67.8516C53.8396 69.6809 52.3643 74.9954 55.4525 75.8375C59.7553 77.0104 62.7525 66.7968 69.846 68.2929C71.3987 68.931 75.9904 75.2524 77.827 80.6985C78.8868 83.842 79.1424 87.0113 78.7786 89.8413Z" fill="white"/>
<path d="M52.5825 67.8516C53.1357 68.6568 53.1591 70.1357 53.2747 71.6122C52.612 71.5077 51.9875 71.3799 51.3987 71.2372C51.3704 70.089 51.2438 68.9568 50.9844 67.8516L52.5825 67.8516Z" fill="#DFE6F4"/>
<path d="M70.5568 68.7847C67.4674 70.1898 64.6275 71.0356 62.0508 71.4893C64.1235 69.4387 66.5392 67.5946 69.8438 68.2917C70.038 68.3716 70.2802 68.54 70.5568 68.7847Z" fill="#DFE6F4"/>
<path d="M78.7755 89.8407C78.5481 91.6049 78.0809 93.2375 77.4183 94.6488C72.566 98.0013 52.038 97.5858 49.7366 93.7305C49.278 92.7433 49.0322 91.6688 48.9375 90.5243C50.0083 91.6319 52.1781 93.0973 56.1871 93.117C61.9123 93.1441 62.672 90.201 62.5872 86.669C62.5024 83.1358 70.6789 82.9895 71.537 86.6383C72.3939 90.287 75.5582 95.3717 78.7742 89.842C78.7742 89.842 78.7743 89.8407 78.7755 89.8407Z" fill="#DFE6F4"/>
<path d="M64.3236 97.4124C60.7902 97.4124 57.2402 97.1039 54.4868 96.5059C51.6918 95.8989 49.9514 95.0501 49.3138 93.9828C49.3052 93.9682 49.2973 93.9532 49.2901 93.9378C47.6453 90.3974 48.5938 85.8768 49.5979 81.0909C50.5239 76.6778 51.4813 72.1145 50.5041 67.9638C50.4696 67.8176 50.504 67.6636 50.5972 67.5458C50.6905 67.428 50.8325 67.3594 50.9827 67.3594L52.5809 67.3594C52.743 67.3594 52.8946 67.4392 52.9863 67.5729C53.5375 68.376 53.6256 69.6327 53.719 70.9633C53.8559 72.9139 53.9975 74.9309 55.5788 75.3622C57.2058 75.8059 58.7437 74.2041 60.5237 72.3493C62.844 69.9316 65.7322 66.9232 69.9446 67.8109C69.9738 67.8171 70.0023 67.8259 70.0299 67.8372C71.7655 68.5501 76.4097 74.9674 78.2899 80.5408C79.9382 85.4271 79.7786 90.7791 77.8627 94.8575C77.8259 94.9361 77.7687 95.0036 77.6973 95.0529C75.3853 96.6507 69.8752 97.4124 64.3236 97.4124ZM50.1707 93.4988C50.4633 93.9678 51.4406 94.838 54.6955 95.5448C61.4575 97.0132 73.3928 96.6709 77.0295 94.3165C78.7858 90.4775 78.9105 85.4574 77.358 80.8552C75.5291 75.4338 71.0844 69.41 69.6935 68.7633C66.0413 68.0215 63.4873 70.6817 61.2334 73.0303C59.3193 75.0247 57.512 76.9092 55.32 76.3109C53.0653 75.6961 52.8837 73.11 52.738 71.0321C52.6636 69.9713 52.5928 68.9629 52.2973 68.3428L51.5908 68.3428C52.3986 72.532 51.4649 76.9824 50.5605 81.2928C49.5934 85.9024 48.6799 90.2573 50.1707 93.4988Z" fill="#371B45"/>
<path d="M72.3536 78.6539C71.2802 83.7025 62.9801 85.7926 61.9859 79.0176C61.1561 73.3625 64.7089 70.8665 67.4566 70.7603C70.7708 70.6323 73.3371 74.0284 72.3536 78.6539Z" fill="url(#paint16_linear_11117_33184)"/>
<path d="M72.3536 78.6539C71.2802 83.7025 62.9801 85.7926 61.9859 79.0176C61.1561 73.3625 64.7089 70.8665 67.4566 70.7603C70.7708 70.6323 73.3371 74.0284 72.3536 78.6539Z" fill="url(#paint17_linear_11117_33184)" fill-opacity="0.2"/>
<path d="M66.4225 83.8078C66.3663 83.8078 66.3104 83.8069 66.2548 83.8051C63.6983 83.7236 61.9204 81.9604 61.499 79.0887C61.0056 75.7259 62.0335 73.6582 62.9826 72.5157C64.0978 71.1734 65.7631 70.3333 67.4373 70.2687C69.0179 70.2065 70.4694 70.8617 71.5213 72.1105C72.9045 73.7527 73.383 76.1749 72.8342 78.7559C72.1627 81.9141 69.0217 83.8078 66.4225 83.8078ZM67.6372 71.2483C67.5834 71.2483 67.5295 71.2493 67.4752 71.2515C66.0755 71.3056 64.6789 72.0131 63.7391 73.1441C62.5614 74.5619 62.1232 76.568 62.4722 78.9459C62.8239 81.3432 64.2141 82.756 66.2861 82.8221C68.5176 82.8958 71.2918 81.2809 71.8723 78.5513C72.3574 76.2692 71.9554 74.1525 70.7691 72.744C69.9533 71.7754 68.8464 71.2483 67.6372 71.2483Z" fill="#371B45"/>
<path d="M62.9426 74.7314C62.9426 74.7314 61.0154 92.6262 65.2398 95.5579C66.698 96.5699 68.3446 96.6331 69.5125 96.5409C71.8074 96.3597 73.3241 95.2441 73.4997 93.87C73.7179 92.1613 72.5367 91.7186 71.5386 91.9807L71.6101 75.0247" fill="url(#paint18_linear_11117_33184)"/>
<path d="M62.9426 74.7314C62.9426 74.7314 61.0154 92.6262 65.2398 95.5579C66.698 96.5699 68.3446 96.6331 69.5125 96.5409C71.8074 96.3597 73.3241 95.2441 73.4997 93.87C73.7179 92.1613 72.5367 91.7186 71.5386 91.9807L71.6101 75.0247" fill="url(#paint19_linear_11117_33184)" fill-opacity="0.2"/>
<path d="M73.4965 93.8711C73.3206 95.2455 71.8036 96.3606 69.5096 96.5425C68.3417 96.6335 66.6944 96.5708 65.2364 95.559C64.5565 95.0869 64.0353 94.2264 63.6406 93.115C64.42 93.9129 65.7306 94.7488 67.7566 94.6493C70.6788 94.5054 71.3967 92.2803 71.4287 92.1758C71.4114 92.2557 71.0611 93.8822 72.2499 93.9547C73.2346 94.0162 73.4165 93.2441 73.3637 92.6749C73.5026 92.9724 73.5604 93.367 73.4965 93.8711Z" fill="#9D9FE6"/>
<path d="M62.9404 74.7324C62.8121 77.6047 62.7606 80.4752 62.8313 83.3351C62.872 84.7644 62.9408 86.1914 63.0817 87.6063C63.2161 89.02 63.4204 90.4277 63.7668 91.7767C63.9421 92.4488 64.1591 93.107 64.4521 93.7051C64.5991 94.0028 64.7655 94.285 64.9566 94.5321C65.0515 94.6561 65.1523 94.7713 65.2591 94.874C65.3126 94.9251 65.3671 94.9741 65.4235 95.0185C65.4821 95.0652 65.5307 95.1016 65.6035 95.1467C66.1392 95.5059 66.7493 95.7448 67.3897 95.8772C68.0312 96.0091 68.7021 96.0373 69.3787 95.9883C70.0476 95.9433 70.7009 95.8086 71.2931 95.565C71.8815 95.3227 72.4068 94.9499 72.7081 94.4748C72.7834 94.3569 72.8443 94.2334 72.8888 94.106C72.9111 94.0424 72.9288 93.9776 72.9433 93.9123C72.9509 93.8797 72.9548 93.8465 72.9612 93.8137C72.9666 93.7792 72.9701 93.7394 72.9748 93.7025C73.0061 93.4042 72.984 93.1197 72.8952 92.9094C72.8073 92.6987 72.6598 92.5601 72.4378 92.4775C72.2173 92.3951 71.9319 92.3881 71.6602 92.452L71.66 92.452C71.4089 92.5264 71.1451 92.3832 71.0707 92.1321C71.0595 92.0942 71.0532 92.056 71.0515 92.0183L71.0502 91.9796C70.9952 90.5664 71.0822 89.1537 71.1234 87.7409L71.2701 83.5024L71.4313 79.264L71.608 75.0257L71.7489 79.2654L71.8743 83.505L71.9852 87.7445C72.0145 89.1577 72.0895 90.571 72.0227 91.9838L71.4129 91.5114L71.4132 91.5113C71.8341 91.3957 72.2962 91.3689 72.7601 91.5129C72.9901 91.5849 73.2168 91.7079 73.4083 91.877C73.6011 92.0455 73.7521 92.2588 73.8537 92.4813C74.058 92.9314 74.0776 93.3887 74.0452 93.8013C74.0399 93.8536 74.0363 93.9034 74.0291 93.9578C74.0204 94.0134 74.0136 94.0695 74.0024 94.1246C73.9805 94.2351 73.9527 94.3443 73.9177 94.4507C73.8481 94.6638 73.7526 94.8661 73.6383 95.0529C73.4097 95.4277 73.1075 95.7374 72.7795 95.9888C72.4502 96.24 72.0942 96.439 71.7275 96.5944C70.9939 96.9073 70.219 97.0567 69.4569 97.108C68.7022 97.1596 67.9236 97.1359 67.159 96.9685C66.3963 96.8024 65.6475 96.5001 64.9943 96.0507C64.915 96.0003 64.8194 95.9291 64.7388 95.8625C64.6551 95.7946 64.5768 95.7226 64.5015 95.6487C64.3515 95.5005 64.2174 95.3428 64.0964 95.1799C63.8558 94.8527 63.6655 94.5076 63.5025 94.158C63.1799 93.4573 62.9647 92.7379 62.7938 92.0174C62.6227 91.2967 62.5064 90.5715 62.4163 89.8469C62.3263 89.1221 62.2646 88.3972 62.2207 87.6729C62.1411 86.2238 62.131 84.7774 62.1722 83.3347C62.1936 82.6133 62.225 81.8929 62.2666 81.1735C62.3117 80.4542 62.3654 79.7359 62.4273 79.0186C62.5594 77.5847 62.7157 76.1536 62.9404 74.7324Z" fill="#371B45"/>
<path d="M71.0508 93.5243L71.0659 91.834L72.0043 92.1285L71.0508 93.5243Z" fill="#3A3A3A"/>
<path d="M20.3617 63.5119C20.3617 63.5119 18.1376 62.5591 17.9532 59.5164C17.7688 56.4737 20.9036 55.1522 20.0738 53.3696C19.244 51.587 20.8114 49.4971 20.8114 49.4971C20.8114 49.4971 20.1898 51.3532 21.3032 52.8436C22.9475 55.0446 22.4354 55.7244 21.0266 58.6251C20.2429 60.2387 21.4282 62.0981 20.3617 63.5119Z" fill="white"/>
<path d="M97.4238 51.9133C97.3684 52.217 97.286 52.5206 97.1713 52.8262C97.137 52.9166 97.1002 53.0079 97.0609 53.099C96.3677 54.6859 94.1937 56.2774 91.4165 57.5259L91.4153 57.5258C87.5398 59.2687 82.4899 60.3435 78.6504 59.8007L70.668 49.659L74.4112 29.6999C74.4112 29.6999 84.4614 28.7162 87.595 29.5968C90.7273 30.4772 91.4704 33.4483 91.5494 37.2191C91.6296 40.9911 95.3511 47.377 95.3511 47.377L97.4238 51.9133Z" fill="#F4F4F4"/>
<path d="M50.1483 44.6446C50.1483 44.6446 38.4073 56.4704 32.5102 55.1998C23.6025 53.2807 20.3766 45.305 20.3555 41.5888C20.4204 41.3226 20.6968 40.4125 21.4419 40.5077C22.3144 40.6185 25.2111 39.2509 26.2042 38.1253C27.1973 36.9979 26.0108 31.7603 28.074 27.6061C30.2334 23.2567 36.4978 21.2593 38.7508 25.4044L42.8879 28.027C45.8975 33.8049 50.1483 44.6446 50.1483 44.6446Z" fill="#F4F4F4"/>
<path d="M50.1475 44.6448C50.1475 44.6448 38.4068 56.4704 32.5099 55.1992C25.1025 53.6038 21.6251 47.8203 20.6519 43.7804C20.4539 42.9608 20.3586 42.2147 20.3555 41.588C20.4196 41.322 20.6965 40.4125 21.4419 40.5079C22.314 40.6188 25.2105 39.2509 26.2041 38.1253C27.1965 36.9983 26.0102 31.7595 28.0737 27.6065C30.233 23.257 36.4976 21.2594 38.7508 25.4039L40.2972 26.385L42.8872 28.027C45.8975 33.8051 50.1475 44.6448 50.1475 44.6448Z" fill="#F4F4F4"/>
<path d="M50.1475 44.6448C50.1475 44.6448 44.6683 50.164 39.3158 53.2558C36.834 54.6894 34.3786 55.6024 32.5099 55.1992C28.2802 54.2878 25.331 52.0117 23.3993 49.4736C21.9477 47.5673 21.0687 45.5126 20.6519 43.7804C20.4539 42.9608 20.3586 42.2147 20.3555 41.588C20.4196 41.322 20.6965 40.4125 21.442 40.5079C22.314 40.6188 25.2106 39.2509 26.2041 38.1253C27.1965 36.9983 26.0102 31.7595 28.0737 27.6065C30.233 23.257 36.4976 21.2594 38.7508 25.4039L40.2972 26.385L42.8872 28.027C45.8975 33.8051 50.1475 44.6448 50.1475 44.6448Z" fill="#F4F4F4"/>
<path d="M40.2972 26.385L38.3537 28.6847C38.3537 28.6847 35.0166 25.3941 32.4682 28.1358C30.2112 30.5638 31.3532 37.3589 29.7707 41.2109C28.957 43.1926 26.7423 43.8869 23.5681 42.7294C21.7673 42.0729 20.9879 42.922 20.6519 43.7804C20.4539 42.9608 20.3586 42.2147 20.3555 41.588C20.4196 41.322 20.6965 40.4126 21.4419 40.5079C22.314 40.6188 25.2105 39.2509 26.2041 38.1253C27.1965 36.9983 26.0102 31.7595 28.0737 27.6065C30.233 23.257 36.4976 21.2594 38.7508 25.4039L40.2972 26.385Z" fill="#ADAEC4"/>
<path d="M33.4351 55.7843C33.0779 55.7843 32.7347 55.7508 32.4064 55.6801C27.3305 54.5865 24.3262 51.6359 22.6998 49.3532C20.6247 46.4407 19.8741 43.4339 19.8636 41.5912L19.8633 41.5307L19.8776 41.472C20.1196 40.4788 20.7426 39.9222 21.5041 40.0195C22.1572 40.0999 24.9148 38.8429 25.8352 37.7996C26.1288 37.4664 26.1702 36.1982 26.2103 34.9717C26.28 32.8398 26.3753 29.9201 27.6335 27.387C28.995 24.6449 31.9201 22.6931 34.7469 22.6407C34.7849 22.64 34.8227 22.6397 34.8603 22.6397C36.7178 22.6397 38.2225 23.4933 39.1192 25.0554L43.2628 27.6821L43.3239 27.7994C46.3111 33.5343 50.5634 44.356 50.606 44.4647L50.7231 44.7632L50.4973 44.9907C50.0364 45.4549 39.7049 55.7843 33.4351 55.7843ZM20.8479 41.6493C20.8749 43.2748 21.5822 46.0897 23.5007 48.7824C25.0263 50.9235 27.8457 53.6915 32.6137 54.7187C34.8773 55.2065 38.551 53.5796 43.2344 50.0133C46.2625 47.7074 48.815 45.2631 49.5716 44.5227C48.8674 42.7451 45.1915 33.5464 42.5125 28.3709L38.3797 25.7509L38.3187 25.6388C37.3933 23.9363 35.8756 23.6022 34.765 23.624C32.3291 23.6692 29.7003 25.4357 28.5143 27.8244C27.3514 30.166 27.2637 32.8484 27.1933 35.0038C27.1392 36.657 27.1001 37.8515 26.5729 38.4499C25.5729 39.5836 22.7318 41.0039 21.5326 41.0041C21.4781 41.0041 21.4272 41.0011 21.3798 40.9951C21.0721 40.9561 20.8993 41.4679 20.8479 41.6493Z" fill="#371B45"/>
<path d="M42.8882 28.0253L39.7905 28.4311C36.1442 24.8563 31.6903 23.9508 29.7047 28.5295C27.9558 32.5623 28.9305 38.7122 27.1099 40.4298C25.5241 41.926 22.3147 40.6168 21.4422 40.5059C20.6971 40.4107 20.4207 41.3209 20.3558 41.587C20.3368 40.986 20.3814 40.4321 20.4943 39.9413C21.1876 36.9255 24.2103 34.4407 25.3861 31.6237C26.1546 27.7054 26.9394 25.4795 28.5011 23.8574C32.2687 19.9438 39.7139 21.8958 42.7579 26.0417C43.2197 26.6706 42.247 26.793 42.8882 28.0253Z" fill="url(#paint20_linear_11117_33184)"/>
<path d="M42.8882 28.0253L39.7905 28.4311C36.1442 24.8563 31.6903 23.9508 29.7047 28.5295C27.9558 32.5623 28.9305 38.7122 27.1099 40.4298C25.5241 41.926 22.3147 40.6168 21.4422 40.5059C20.6971 40.4107 20.4207 41.3209 20.3558 41.587C20.3368 40.986 20.3814 40.4321 20.4943 39.9413C21.1876 36.9255 24.2103 34.4407 25.3861 31.6237C26.1546 27.7054 26.9394 25.4795 28.5011 23.8574C32.2687 19.9438 39.7139 21.8958 42.7579 26.0417C43.2197 26.6706 42.247 26.793 42.8882 28.0253Z" fill="url(#paint21_linear_11117_33184)" fill-opacity="0.2"/>
<path d="M42.8877 28.0254L40.6987 28.3123L39.7905 28.4306C36.1439 24.8564 31.6897 23.9511 29.7047 28.5298C27.9552 32.5619 28.9309 38.7127 27.1094 40.4294C25.5238 41.9256 22.3145 40.6172 21.4424 40.5063C20.697 40.4109 20.4201 41.3204 20.356 41.5864C20.3476 41.3198 20.3508 41.0616 20.3687 40.8159C20.3902 40.5066 20.431 40.2138 20.4946 39.9416C21.1869 36.9259 24.2099 34.4401 25.3857 31.6233C26.1548 27.7053 26.9396 25.4796 28.5013 23.8568C32.269 19.944 39.7133 21.896 42.7577 26.0418C43.2196 26.6706 42.2471 26.7928 42.8877 28.0254Z" fill="url(#paint22_linear_11117_33184)"/>
<path d="M42.8877 28.0254L40.6987 28.3123L39.7905 28.4306C36.1439 24.8564 31.6897 23.9511 29.7047 28.5298C27.9552 32.5619 28.9309 38.7127 27.1094 40.4294C25.5238 41.9256 22.3145 40.6172 21.4424 40.5063C20.697 40.4109 20.4201 41.3204 20.356 41.5864C20.3476 41.3198 20.3508 41.0616 20.3687 40.8159C20.3902 40.5066 20.431 40.2138 20.4946 39.9416C21.1869 36.9259 24.2099 34.4401 25.3857 31.6233C26.1548 27.7053 26.9396 25.4796 28.5013 23.8568C32.269 19.944 39.7133 21.896 42.7577 26.0418C43.2196 26.6706 42.2471 26.7928 42.8877 28.0254Z" fill="url(#paint23_linear_11117_33184)" fill-opacity="0.2"/>
<path d="M40.6987 28.312L39.7905 28.4304C36.1439 24.8561 31.6897 23.9508 29.7047 28.5295C27.9552 32.5616 28.9309 38.7124 27.1094 40.4291C25.5238 41.9253 22.3145 40.6169 21.4424 40.506C20.697 40.4106 20.4201 41.3201 20.356 41.5861C20.3476 41.3195 20.3508 41.0613 20.3687 40.8157C20.4811 40.2834 20.7749 39.8124 21.446 39.7556C22.6554 39.6531 24.9489 40.5943 26.0618 39.9708C27.7384 39.0294 27.4687 34.057 28.3052 30.3656C29.125 26.7488 30.7118 23.7747 35.2628 24.5523C38.0634 25.0314 39.9945 27.3381 40.6987 28.312Z" fill="#9D9FE6"/>
<g opacity="0.4">
<path d="M42.8044 26.6909C39.6096 22.7858 32.4377 21.0143 28.8194 24.8561C27.4617 26.2973 26.3479 29.003 25.5787 32.9222C24.8675 34.8652 22.7162 36.049 20.4961 39.9416C21.1884 36.9259 24.2114 34.4401 25.3872 31.6233C26.1563 27.7053 26.9411 25.4796 28.5028 23.8568C32.2705 19.944 39.7148 21.896 42.7592 26.0418C42.9545 26.3086 42.8927 26.4837 42.8044 26.6909Z" fill="white"/>
</g>
<path d="M20.3557 42.0793C20.3388 42.0793 20.3216 42.0784 20.3044 42.0766C20.0597 42.0512 19.8716 41.8489 19.8638 41.603C19.8433 40.9518 19.8939 40.3558 20.0145 39.8316C20.4295 38.0265 21.611 36.4305 22.7535 34.887C23.6116 33.728 24.4226 32.6323 24.9127 31.4798C25.6344 27.8135 26.3984 25.3324 28.1463 23.5168C29.7103 21.8924 32.0104 21.0935 34.6208 21.2676C37.9684 21.4907 41.3178 23.2506 43.1539 25.7512C43.5233 26.2544 43.3492 26.665 43.2451 26.9104C43.149 27.1372 43.073 27.3164 43.3239 27.7988C43.3981 27.9411 43.398 28.1107 43.3238 28.2529C43.2497 28.3953 43.1107 28.4924 42.9516 28.5133L39.8539 28.9192C39.7037 28.9387 39.5537 28.8885 39.4459 28.7828C37.2612 26.641 34.9572 25.6188 33.1227 25.9769C31.8356 26.2285 30.8372 27.1533 30.1554 28.7256C29.3523 30.5773 29.1392 32.9705 28.9512 35.082C28.7276 37.5932 28.5344 39.7619 27.4469 40.788C25.9774 42.1743 23.4428 41.5134 22.0813 41.1583C21.7808 41.0799 21.5213 41.0122 21.3798 40.9943C21.0289 40.951 20.852 41.6265 20.8332 41.7039C20.779 41.9261 20.58 42.0793 20.3557 42.0793ZM21.3344 40.0077C21.3902 40.0077 21.4466 40.0113 21.504 40.0186C21.7081 40.0446 21.9824 40.1161 22.3294 40.2066C23.5069 40.5136 25.6986 41.0853 26.7719 40.0726C27.5878 39.3028 27.7743 37.2102 27.9715 34.9947C28.1661 32.8091 28.3868 30.3318 29.253 28.3343C30.0599 26.4736 31.3327 25.3247 32.934 25.0116C35.0386 24.6006 37.5903 25.6562 39.9613 27.9132L42.2121 27.6183C42.0973 27.0978 42.2425 26.7554 42.3397 26.5264C42.3598 26.4788 42.3867 26.4155 42.3937 26.3857C42.3897 26.377 42.3805 26.3597 42.361 26.3332C40.6896 24.0567 37.6258 22.4536 34.5555 22.249C32.2377 22.0945 30.214 22.7871 28.8549 24.1989C27.4531 25.6549 26.6716 27.6227 25.868 31.7188C25.8617 31.7513 25.8521 31.7831 25.8393 31.8136C25.3053 33.093 24.4099 34.3025 23.544 35.4722C22.4614 36.9346 21.342 38.4468 20.973 40.0519C20.9722 40.0554 20.9714 40.0589 20.9706 40.0624C21.0865 40.0263 21.2082 40.0077 21.3344 40.0077Z" fill="#371B45"/>
<path d="M97.4238 51.9133C97.3684 52.217 97.286 52.5206 97.1713 52.8262C96.5978 50.2007 92.8561 52.964 88.5734 50.694C84.2182 48.3852 88.6672 35.5042 85.5187 34.9952C82.3023 34.4749 78.6298 38.6599 78.6298 38.6599C78.6298 38.6599 74.4067 61.0725 91.4153 57.5258C87.5398 59.2687 82.4899 60.3435 78.6504 59.8007L70.668 49.659L74.4112 29.6999C74.4112 29.6999 84.4614 28.7162 87.595 29.5968C90.7273 30.4772 91.4704 33.4483 91.5494 37.2191C91.6296 40.9911 95.3511 47.377 95.3511 47.377L97.4238 51.9133Z" fill="#ADAEC4"/>
<path d="M80.7747 60.4322C80.0117 60.4322 79.2758 60.3855 78.5793 60.2872L78.3839 60.2595L78.2617 60.1044L70.1406 49.7868L73.9935 29.2463L74.3608 29.2103C74.775 29.1698 84.5401 28.228 87.7254 29.1228C91.398 30.1548 91.9669 33.7892 92.0389 37.2083C92.1149 40.8083 95.7367 47.0657 95.7734 47.1284L95.7957 47.1716L97.9333 51.8493L97.9055 52.0015C97.825 52.4416 97.6915 52.877 97.5089 53.2956C95.9103 56.9558 87.3607 60.4322 80.7747 60.4322ZM78.911 59.3392C81.8813 59.7107 85.8333 59.1261 89.5331 57.7616C93.1741 56.4187 95.8849 54.5567 96.6074 52.9021C96.7393 52.6003 96.8402 52.2883 96.9083 51.9729L94.9112 47.6023C94.6333 47.1226 91.1355 41.0108 91.0556 37.2291C90.9631 32.8356 89.9211 30.7614 87.4594 30.0697C84.7814 29.3172 76.6516 29.9908 74.8236 30.1552L71.1897 49.5293L78.911 59.3392Z" fill="#371B45"/>
<path d="M56.3019 70.2215C41.9514 69.769 29.7116 63.1834 29.3242 52.6214C29.2186 49.7421 30.2037 47.9866 31.1076 46.4787C32.2667 36.2621 34.7813 28.7215 41.2932 24.1843C47.1674 20.0914 57.8423 19.2123 66.5957 22.4933C71.8416 24.4597 84.5995 29.5165 81.3175 52.8183C81.8325 63.148 73.9433 70.394 56.3019 70.2215Z" fill="url(#paint24_linear_11117_33184)"/>
<path d="M56.3019 70.2215C41.9514 69.769 29.7116 63.1834 29.3242 52.6214C29.2186 49.7421 30.2037 47.9866 31.1076 46.4787C32.2667 36.2621 34.7813 28.7215 41.2932 24.1843C47.1674 20.0914 57.8423 19.2123 66.5957 22.4933C71.8416 24.4597 84.5995 29.5165 81.3175 52.8183C81.8325 63.148 73.9433 70.394 56.3019 70.2215Z" fill="url(#paint25_linear_11117_33184)" fill-opacity="0.2"/>
<path d="M81.3168 52.8174C81.3814 54.1219 81.3135 55.3775 81.1067 56.5752C79.6829 64.8602 71.7148 70.3713 56.3018 70.2219C43.2168 69.8078 31.8862 64.2969 29.6959 55.3214C29.4854 54.4527 29.3582 53.5524 29.3242 52.6208C29.2188 49.7417 30.203 47.9868 31.1066 46.4793C32.2666 36.2623 34.7816 28.7219 41.2926 24.1849C47.1665 20.0914 57.8419 19.2119 66.5952 22.4939C71.8419 24.4592 84.5987 29.5168 81.3168 52.8174Z" fill="url(#paint26_linear_11117_33184)"/>
<path d="M81.3168 52.8174C81.3814 54.1219 81.3135 55.3775 81.1067 56.5752C79.6829 64.8602 71.7148 70.3713 56.3018 70.2219C43.2168 69.8078 31.8862 64.2969 29.6959 55.3214C29.4854 54.4527 29.3582 53.5524 29.3242 52.6208C29.2188 49.7417 30.203 47.9868 31.1066 46.4793C32.2666 36.2623 34.7816 28.7219 41.2926 24.1849C47.1665 20.0914 57.8419 19.2119 66.5952 22.4939C71.8419 24.4592 84.5987 29.5168 81.3168 52.8174Z" fill="url(#paint27_linear_11117_33184)" fill-opacity="0.2"/>
<path d="M81.1099 56.5758C79.6862 64.8608 71.7181 70.3719 56.305 70.2225C43.2201 69.8084 31.8895 64.2975 29.6992 55.322C31.022 58.1633 39.0129 60.4377 41.6356 58.901C48.6939 58.9125 52.6805 60.1223 52.6805 60.1223C52.6805 60.1223 55.2739 65.4026 64.3193 65.6244C72.9285 65.8353 79.2797 61.8245 81.1099 56.5758Z" fill="#9D9FE6"/>
<g opacity="0.4">
<path d="M74.7167 28.398C72.2506 26.7736 68.9328 25.3086 66.4701 24.386C66.1098 24.2515 65.7464 24.1229 65.3788 24.0012C64.6568 24.815 62.5326 25.1719 60.1275 24.8073C57.6325 24.4294 55.6577 23.396 55.308 22.369C49.743 22.3152 44.5928 23.6217 41.1444 26.0235C39.6151 27.0882 38.2783 28.3455 37.1211 29.814C38.4198 27.8836 39.9876 26.2873 41.8527 24.9881C45.1655 22.6795 50.1132 21.4218 55.4608 21.4701C56.3904 21.478 57.3311 21.5252 58.2791 21.6136C60.8509 21.8535 63.3184 22.3814 65.6259 23.1861C65.8358 23.2574 66.0441 23.3335 66.251 23.4106C68.2462 24.1591 71.6862 25.4485 74.7167 28.398Z" fill="white"/>
</g>
<path d="M56.9107 70.7169C56.707 70.7169 56.5024 70.7159 56.2966 70.7139L56.2859 70.7136C48.9956 70.4838 42.2594 68.679 37.3183 65.6317C31.957 62.3255 29.0227 57.833 28.8323 52.64C28.7199 49.5778 29.8058 47.6954 30.6306 46.3178C31.2727 40.7147 32.2614 36.4834 33.7402 33.0097C35.4349 29.0284 37.8134 26.0098 41.0114 23.7815C43.9542 21.7311 48.1512 20.4179 52.8291 20.0837C57.5612 19.7457 62.5114 20.4381 66.7678 22.0335C69.2768 22.974 73.9468 24.7245 77.5424 29.354C81.7914 34.8248 83.2273 42.7271 81.8104 52.8414C82.0263 57.3804 80.6884 61.188 77.8334 64.1596C75.7696 66.3078 72.9399 67.9561 69.4228 69.0587C65.9111 70.1596 61.7041 70.7169 56.9107 70.7169ZM56.3114 69.7304C65.9144 69.8247 73.1052 67.6616 77.1242 63.4782C79.7937 60.6997 81.0391 57.1216 80.8258 52.8435L80.8235 52.7968L80.83 52.7504C84.0938 29.5783 71.2556 24.7661 66.4225 22.9545C57.9442 19.7766 47.4936 20.4638 41.5738 24.5884C35.8745 28.5594 32.8905 35.1228 31.5957 46.5348L31.5837 46.6407L31.5289 46.7321C30.5342 48.3914 29.7188 49.9786 29.8151 52.604C29.993 57.4534 32.766 61.6688 37.8345 64.7946C42.6306 67.7524 49.1922 69.5052 56.3114 69.7304Z" fill="#371B45"/>
<path d="M67.6717 36.5607C67.6717 36.5607 66.9812 32.7896 64.5893 32.3764C62.4263 32.0027 61.9247 34.6809 63.8543 35.4637C65.3645 36.0764 67.6717 36.5607 67.6717 36.5607Z" fill="#371B45"/>
<path d="M37.6602 32.7603C37.6602 32.7603 39.2629 29.9726 41.2887 30.0231C43.2363 30.0717 42.7828 32.5989 41.1702 32.8347C40.2291 32.9724 37.6602 32.7603 37.6602 32.7603Z" fill="#371B45"/>
<path d="M97.4872 51.4151C97.4742 51.5812 97.4525 51.7478 97.4223 51.9136C96.2115 49.1277 92.7474 51.6191 90.3438 50.1027C87.0792 48.0409 88.9264 42.4205 89.4883 39.352C90.0516 36.2811 91.7696 31.7944 85.9894 31.5162C82.3593 31.3413 78.1885 32.9915 78.0428 33.0492C78.0403 33.0502 78.039 33.0513 78.039 33.0513C78.039 33.0513 75.4904 32.3374 74.4875 30.8593C73.4845 29.3813 74.9275 28.9129 74.9275 28.9129C75.6683 28.662 76.4027 28.4413 77.1269 28.2504C82.4425 26.8473 87.2536 27.0401 90.6006 28.8782C96.3898 32.0555 93.2821 38.9329 94.2847 42.3147C95.0001 44.7259 96.9564 47.2503 97.4126 49.8796C97.4124 49.8821 97.4133 49.8858 97.4143 49.8884C97.5014 50.3925 97.5313 50.9023 97.4872 51.4151Z" fill="url(#paint28_linear_11117_33184)"/>
<path d="M97.4872 51.4151C97.4742 51.5812 97.4525 51.7478 97.4223 51.9136C96.2115 49.1277 92.7474 51.6191 90.3438 50.1027C87.0792 48.0409 88.9264 42.4205 89.4883 39.352C90.0516 36.2811 91.7696 31.7944 85.9894 31.5162C82.3593 31.3413 78.1885 32.9915 78.0428 33.0492C78.0403 33.0502 78.039 33.0513 78.039 33.0513C78.039 33.0513 75.4904 32.3374 74.4875 30.8593C73.4845 29.3813 74.9275 28.9129 74.9275 28.9129C75.6683 28.662 76.4027 28.4413 77.1269 28.2504C82.4425 26.8473 87.2536 27.0401 90.6006 28.8782C96.3898 32.0555 93.2821 38.9329 94.2847 42.3147C95.0001 44.7259 96.9564 47.2503 97.4126 49.8796C97.4124 49.8821 97.4133 49.8858 97.4143 49.8884C97.5014 50.3925 97.5313 50.9023 97.4872 51.4151Z" fill="url(#paint29_linear_11117_33184)" fill-opacity="0.2"/>
<path d="M97.4873 51.4157C97.4743 51.5819 97.4526 51.7484 97.4224 51.9142C96.2116 49.1283 92.7475 51.6197 90.344 50.1034C87.0794 48.0415 88.9265 42.4211 89.4884 39.3526C90.0517 36.2817 91.7698 31.795 85.9895 31.5168C82.3594 31.3419 78.1886 32.9921 78.043 33.0499C78.2197 32.9494 85.2363 28.9705 89.3801 31.582C93.4679 34.1587 88.674 42.6744 89.8786 47.2688C90.9461 51.3397 96.9954 48.2194 97.4873 51.4157Z" fill="#9D9FE6"/>
<g opacity="0.4">
<path d="M97.4141 49.8794C96.3804 45.7625 93.8854 45.5162 93.2375 41.5915C92.4758 36.9855 95.5588 30.2276 86.7361 28.7254C80.5252 27.6673 77.1725 30.1402 76.4965 29.1426C76.2996 28.8523 76.58 28.4833 77.1284 28.2502C82.444 26.847 87.2551 27.0398 90.6021 28.878C96.3914 32.0552 93.2837 38.9327 94.2862 42.3145C95.0016 44.7256 96.9579 47.25 97.4141 49.8794Z" fill="white"/>
</g>
<path d="M74.9297 28.9127C75.3106 28.7006 75.7024 28.5122 76.1008 28.3393C76.4986 28.1643 76.9041 28.0079 77.315 27.8661C78.1366 27.582 78.9795 27.3552 79.8361 27.1883C80.6928 27.0209 81.5632 26.9206 82.4375 26.8556C83.3119 26.7928 84.1936 26.7794 85.075 26.8339C85.5155 26.8632 85.9564 26.9024 86.3954 26.9658C86.8348 27.0248 87.2727 27.1046 87.7072 27.2037C88.5757 27.4032 89.4314 27.687 90.2481 28.0699C91.0622 28.443 91.8563 28.9447 92.5281 29.5894C92.8656 29.9099 93.1687 30.2702 93.4324 30.656C93.6953 31.0427 93.9148 31.4575 94.0923 31.8853C94.4479 32.7433 94.6259 33.6481 94.7076 34.5382C94.7882 35.4305 94.7707 36.3133 94.7312 37.1813C94.6907 38.0493 94.6184 38.9053 94.585 39.7452C94.5692 40.1647 94.5624 40.5806 94.5839 40.9853C94.6052 41.3895 94.6525 41.7852 94.7549 42.145C94.9761 42.9158 95.3277 43.68 95.702 44.4375C96.0775 45.1971 96.4829 45.9571 96.8543 46.7485C97.2245 47.5394 97.5662 48.364 97.7836 49.2468C98.0015 50.1254 98.0808 51.0756 97.9092 52.0023C97.8597 52.2696 97.603 52.4461 97.3358 52.3966C97.1742 52.3667 97.0459 52.2611 96.9805 52.1232L96.9745 52.1103L96.9744 52.11C96.8392 51.8013 96.6593 51.5411 96.4258 51.3652C96.1939 51.1873 95.9002 51.0836 95.563 51.0366C95.2261 50.9896 94.8565 50.9949 94.4764 51.0164C94.0954 51.0383 93.7023 51.0763 93.2976 51.1022C92.8932 51.1281 92.4761 51.1426 92.0476 51.113C91.6203 51.0844 91.1785 51.0063 90.7522 50.8484C90.5397 50.7686 90.3322 50.6688 90.1363 50.5498C89.9437 50.4315 89.7633 50.3029 89.5911 50.1573C89.2487 49.8661 88.9555 49.5147 88.7263 49.1322C88.2664 48.3615 88.0673 47.4982 87.9907 46.6656C87.9157 45.8282 87.9608 45.0039 88.0488 44.1962C88.2248 42.5814 88.6127 41.0186 88.9086 39.4945L89.0179 38.9094L89.1384 38.3216C89.2201 37.9332 89.3022 37.5506 89.3746 37.1706C89.5183 36.4126 89.6359 35.6595 89.6122 34.9437C89.5891 34.2296 89.4129 33.5695 88.989 33.1032C88.5704 32.6312 87.9146 32.3456 87.2077 32.1868C86.4973 32.027 85.7332 31.9887 84.9738 32.0006C84.2116 32.0181 83.4427 32.0816 82.6736 32.1835C81.9041 32.283 81.1342 32.4144 80.362 32.5589C79.5914 32.7108 78.8188 32.8726 78.0413 33.0511C78.7373 32.6578 79.4721 32.3377 80.2223 32.0604C80.972 31.7788 81.7428 31.5497 82.5292 31.3714C84.1023 31.0239 85.7463 30.8608 87.4218 31.1669C87.84 31.2497 88.2626 31.3695 88.6705 31.5623C89.0768 31.7537 89.4716 32.0198 89.7936 32.3715C90.1171 32.7211 90.3555 33.1486 90.5 33.5864C90.6475 34.0252 90.7061 34.4722 90.7222 34.9044C90.7488 35.7712 90.6206 36.5917 90.4652 37.3829C90.3867 37.7787 90.3001 38.1681 90.2163 38.5524L90.0946 39.125L89.9807 39.7041C89.8192 40.4942 89.6344 41.2594 89.4726 42.0253C89.3101 42.7902 89.1658 43.5532 89.0717 44.3152C88.9789 45.0762 88.9377 45.8388 88.9983 46.5774C89.0601 47.3135 89.2312 48.0293 89.5818 48.6236C89.757 48.9198 89.975 49.1842 90.2331 49.4073C90.3619 49.5178 90.5033 49.6202 90.6469 49.7093C90.7887 49.7953 90.9387 49.8677 91.096 49.9269C91.7285 50.1636 92.4696 50.1718 93.2348 50.1207C93.6188 50.0963 94.0126 50.0582 94.4205 50.0345C94.8285 50.0123 95.2534 50.0014 95.7004 50.0628C96.1432 50.1229 96.6248 50.2772 97.0224 50.5833C97.4228 50.886 97.6968 51.3049 97.8762 51.7177L97.8764 51.718L96.9417 51.8259C97.0829 51.0615 97.0218 50.2634 96.8283 49.4808C96.6357 48.6964 96.3206 47.9268 95.964 47.1664C95.6069 46.405 95.2051 45.6511 94.8204 44.8735C94.6282 44.4845 94.44 44.0894 94.2664 43.6824C94.0915 43.2751 93.9311 42.8597 93.8018 42.4188C93.6671 41.9534 93.6129 41.4918 93.5856 41.0409C93.5588 40.5893 93.5639 40.1469 93.5774 39.7096C93.6068 38.8356 93.6737 37.9817 93.7076 37.1363C93.7429 36.2919 93.7421 35.4553 93.6594 34.6394C93.5746 33.8252 93.4037 33.0305 93.092 32.3056C92.7821 31.5809 92.3326 30.931 91.7615 30.3938C91.4764 30.125 91.1637 29.8823 90.8301 29.6659C90.4975 29.4505 90.1396 29.2599 89.7709 29.0865C89.0356 28.7392 88.2543 28.4801 87.4532 28.291C87.0531 28.1942 86.6474 28.1147 86.2378 28.0544C85.8289 27.9898 85.4154 27.9477 85.001 27.9147C84.1712 27.8568 83.3346 27.8381 82.4974 27.8806C81.6599 27.9185 80.8236 28.0077 79.9883 28.1202C79.1527 28.2314 78.3164 28.3603 77.4761 28.4987L76.2105 28.7088C75.9983 28.743 75.7878 28.7843 75.5732 28.8143C75.3603 28.8503 75.1465 28.8849 74.9297 28.9127Z" fill="#371B45"/>
<path d="M43.1457 52.7828C43.1457 52.7828 43.6891 50.601 45.7282 49.6641C48.2036 48.5269 52.8479 49.2948 54.7842 53.7921C56.6645 60.9426 41.1545 60.8415 43.1457 52.7828Z" fill="url(#paint30_linear_11117_33184)"/>
<path d="M43.1457 52.7828C43.1457 52.7828 43.6891 50.601 45.7282 49.6641C48.2036 48.5269 52.8479 49.2948 54.7842 53.7921C56.6645 60.9426 41.1545 60.8415 43.1457 52.7828Z" fill="url(#paint31_linear_11117_33184)" fill-opacity="0.2"/>
<g opacity="0.4">
<path d="M54.8301 53.9788C52.6787 50.3804 48.5664 49.8137 46.2896 50.8599C44.2501 51.7967 43.7067 53.9788 43.7067 53.9788C43.4657 54.9537 43.4805 55.8118 43.6907 56.5555C43.0268 55.5893 42.7626 54.3341 43.1461 52.7838C43.1461 52.7838 43.6895 50.6017 45.7278 49.665C48.2037 48.5278 52.8483 49.2962 54.7846 53.7932C54.8005 53.8559 54.8165 53.9173 54.8301 53.9788Z" fill="white"/>
</g>
<path d="M42.668 52.6648C42.6816 52.6036 42.6905 52.5672 42.7026 52.521L42.7392 52.3924C42.7643 52.3077 42.7919 52.2252 42.8208 52.143C42.8805 51.9797 42.947 51.8197 43.0201 51.6625C43.1679 51.349 43.345 51.0481 43.5497 50.7634C43.7572 50.4811 43.9906 50.2136 44.2538 49.974C44.5192 49.7374 44.8086 49.5233 45.1214 49.3485C45.7511 48.9977 46.4422 48.804 47.1238 48.7251C47.8087 48.6491 48.4948 48.6764 49.1608 48.7962C50.4903 49.0401 51.7455 49.6438 52.725 50.5376C53.7116 51.4237 54.4115 52.576 54.7836 53.7929C54.1552 52.6854 53.3365 51.7158 52.34 51.0171C51.3475 50.3169 50.1939 49.884 49.0185 49.7526C48.4317 49.6876 47.8383 49.6891 47.2674 49.785C46.6941 49.8696 46.1496 50.0489 45.6747 50.3212C45.4346 50.4562 45.2126 50.6227 45.0061 50.8081C44.7974 50.9914 44.6072 51.1993 44.435 51.4237C44.2618 51.6474 44.1048 51.8876 43.9684 52.1403C43.899 52.266 43.8346 52.3948 43.7762 52.5255C43.747 52.5905 43.7177 52.6559 43.6918 52.7211L43.6222 52.9025L43.6052 52.9469C43.5082 53.2 43.2244 53.3266 42.9713 53.2296C42.7412 53.1414 42.6157 52.8984 42.668 52.6648Z" fill="#371B45"/>
<path d="M53.1265 55.7031C50.2785 50.8676 44.316 51.4939 43.1477 52.783C42.3136 53.7032 41.5825 56.9447 41.582 61.1533C41.5815 65.612 42.5548 72.321 44.1207 75.2039C43.4717 76.1423 43.1133 77.3445 43.7176 78.1451C44.5295 79.2208 46.2352 78.9519 47.1393 77.807C48.3712 78.9673 49.9188 78.7486 50.4996 78.0222C51.0742 77.3035 51.0298 75.8279 49.7764 75.081C50.7557 72.5208 50.6677 63.1407 53.1265 59.9409L53.1265 55.7031Z" fill="url(#paint32_linear_11117_33184)"/>
<path d="M53.1265 55.7031C50.2785 50.8676 44.316 51.4939 43.1477 52.783C42.3136 53.7032 41.5825 56.9447 41.582 61.1533C41.5815 65.612 42.5548 72.321 44.1207 75.2039C43.4717 76.1423 43.1133 77.3445 43.7176 78.1451C44.5295 79.2208 46.2352 78.9519 47.1393 77.807C48.3712 78.9673 49.9188 78.7486 50.4996 78.0222C51.0742 77.3035 51.0298 75.8279 49.7764 75.081C50.7557 72.5208 50.6677 63.1407 53.1265 59.9409L53.1265 55.7031Z" fill="url(#paint33_linear_11117_33184)" fill-opacity="0.2"/>
<path d="M53.127 55.703L53.127 59.9406C53.0803 60.0008 53.036 60.0635 52.9918 60.1275C52.9918 60.1287 52.9905 60.1287 52.9905 60.1287C50.6708 63.4935 50.7372 72.5687 49.777 75.0815C51.0297 75.8277 51.074 77.303 50.4999 78.0222C49.9196 78.7487 48.3718 78.9676 47.14 77.807C46.2352 78.9516 44.5301 79.2208 43.7175 78.1451C43.4494 77.7898 43.3708 77.3546 43.4236 76.8985C43.4887 76.3281 43.7592 75.7257 44.1207 75.2045C42.5545 72.3216 41.582 65.6117 41.582 61.1528C41.5832 56.9447 42.3135 53.7028 43.1483 52.7832C44.3161 51.4936 50.2786 50.8679 53.127 55.703Z" fill="url(#paint34_linear_11117_33184)"/>
<path d="M53.127 55.703L53.127 59.9406C53.0803 60.0008 53.036 60.0635 52.9918 60.1275C52.9918 60.1287 52.9905 60.1287 52.9905 60.1287C50.6708 63.4935 50.7372 72.5687 49.777 75.0815C51.0297 75.8277 51.074 77.303 50.4999 78.0222C49.9196 78.7487 48.3718 78.9676 47.14 77.807C46.2352 78.9516 44.5301 79.2208 43.7175 78.1451C43.4494 77.7898 43.3708 77.3546 43.4236 76.8985C43.4887 76.3281 43.7592 75.7257 44.1207 75.2045C42.5545 72.3216 41.582 65.6117 41.582 61.1528C41.5832 56.9447 42.3135 53.7028 43.1483 52.7832C44.3161 51.4936 50.2786 50.8679 53.127 55.703Z" fill="url(#paint35_linear_11117_33184)" fill-opacity="0.2"/>
<g opacity="0.4">
<path d="M44.1207 75.2044C42.5545 72.3215 41.582 65.6116 41.582 61.1527C41.5832 56.9446 42.3135 53.7027 43.1483 52.7831C44.2694 51.5452 49.8078 50.9194 52.7693 55.1472C49.7032 52.0492 45.0144 52.67 43.9928 53.7974C43.1581 54.7169 41.7721 64.9725 44.8068 75.2452L44.1207 75.2044Z" fill="white"/>
</g>
<path d="M50.498 78.0233C49.9178 78.7499 48.3699 78.9687 47.1381 77.8082C46.2333 78.9527 44.5282 79.222 43.7156 78.1463C43.4476 77.791 43.3689 77.3558 43.4217 76.8997C43.8533 77.2906 44.4606 77.7 45.1047 77.7C46.3341 77.7 46.9783 76.5481 46.9783 76.5481C46.9783 76.5481 48.3915 77.9005 49.4531 77.0362C50.2726 76.3688 48.7052 75.7336 48.2954 75.6875C49.576 74.0992 48.6079 62.9328 52.9887 60.1299C50.6689 63.4947 50.7353 72.5699 49.7751 75.0827C51.0278 75.8289 51.0721 77.3042 50.498 78.0233Z" fill="#9D9FE6"/>
<path d="M53.1252 55.7044C52.703 55.1171 52.2189 54.5858 51.6814 54.1284C51.1406 53.6751 50.548 53.2938 49.9146 53.0093C49.2833 52.7216 48.618 52.5172 47.9386 52.4067C47.2614 52.2893 46.5699 52.2551 45.8923 52.3152C45.554 52.3467 45.2185 52.3933 44.8942 52.4704C44.5715 52.5484 44.2555 52.6497 43.9795 52.7864C43.8434 52.8548 43.7138 52.9315 43.6164 53.014C43.5907 53.0341 43.5698 53.0549 43.5482 53.0749C43.5291 53.0958 43.5115 53.1123 43.4914 53.1389C43.4717 53.1625 43.4516 53.1867 43.4322 53.2163C43.4123 53.2435 43.3924 53.272 43.3735 53.3042C43.2179 53.5525 43.0893 53.8648 42.9805 54.1821C42.7626 54.8226 42.6145 55.5095 42.4971 56.1995C42.3805 56.8913 42.301 57.5933 42.2446 58.2978C42.189 59.0025 42.16 59.7106 42.1499 60.4191C42.1392 61.1285 42.1486 61.835 42.1818 62.5449C42.2468 63.9638 42.3796 65.3844 42.5685 66.7955C42.7532 68.207 42.9927 69.6119 43.3116 70.9905C43.4737 71.6787 43.6554 72.3601 43.8651 73.0263C44.0792 73.6889 44.3246 74.3406 44.6348 74.9253L44.8053 75.2466L44.6018 75.5389C44.3038 75.9669 44.0765 76.4545 44.0058 76.9124C43.9718 77.1397 43.9793 77.3544 44.0364 77.5317C44.0638 77.6213 44.1035 77.7022 44.1554 77.777C44.2098 77.8541 44.279 77.9317 44.3523 77.9931C44.643 78.2461 45.0929 78.3216 45.5398 78.2141C45.987 78.1101 46.4095 77.8342 46.7063 77.4674L47.0882 76.9957L47.5152 77.4079C47.877 77.7571 48.322 77.9954 48.7886 78.0669C49.0207 78.1022 49.2568 78.0953 49.4742 78.0441C49.6912 77.9939 49.8874 77.8939 50.0226 77.77C50.1489 77.6552 50.2496 77.4665 50.301 77.2549C50.3519 77.0426 50.355 76.8102 50.3101 76.5889C50.2227 76.1416 49.9352 75.7546 49.5234 75.5048L49.1875 75.3144L49.3159 74.9066C49.3999 74.6396 49.4618 74.337 49.5181 74.0318C49.571 73.7247 49.6224 73.4121 49.6644 73.0957L49.7891 72.141L49.9064 71.1781L50.0232 70.2107L50.1507 69.2412C50.2341 68.5939 50.3318 67.9466 50.4389 67.2996C50.6453 66.0049 50.9171 64.7121 51.3039 63.4449C51.5037 62.8135 51.7318 62.1878 52.0217 61.5883C52.312 60.9921 52.6607 60.4102 53.1252 59.9422C52.8024 60.5141 52.582 61.1186 52.4067 61.7358C52.3165 62.0434 52.2436 62.356 52.1726 62.6685C52.1015 62.981 52.0394 63.2958 51.9846 63.6123C51.7536 64.8755 51.6076 66.1565 51.4559 67.4401L51.2503 69.3728L51.1486 70.3428L51.0354 71.3146C50.9981 71.6392 50.956 71.964 50.9088 72.2893C50.8617 72.6145 50.8162 72.9411 50.7564 73.2677C50.6975 73.5943 50.6362 73.923 50.5541 74.2528C50.474 74.5836 50.3786 74.9149 50.2345 75.2579L50.0269 74.6598C50.3329 74.8405 50.6167 75.0803 50.8395 75.3752C51.0629 75.6691 51.2223 76.0142 51.3019 76.3759C51.3816 76.7377 51.3859 77.1157 51.3047 77.4855C51.2213 77.8527 51.0531 78.2241 50.7468 78.5246C50.4479 78.8123 50.0892 78.9814 49.7285 79.0737C49.3661 79.1649 48.9952 79.1784 48.6369 79.13C47.9179 79.032 47.2628 78.6795 46.7609 78.2088L47.5697 78.1493C47.1298 78.7106 46.5119 79.1281 45.8041 79.3038C45.4507 79.3907 45.072 79.4168 44.6918 79.3522C44.3129 79.2896 43.9332 79.1255 43.6255 78.8699C43.4705 78.7419 43.3383 78.5987 43.2201 78.4349C43.1005 78.2678 43.0062 78.0804 42.9435 77.8874C42.8146 77.4993 42.808 77.1051 42.8566 76.747C42.9072 76.3872 43.015 76.0555 43.1494 75.7449C43.2849 75.4344 43.4497 75.1447 43.6371 74.8716L43.6041 75.4851C43.2345 74.7985 42.9692 74.097 42.7352 73.3917C42.5054 72.6861 42.3156 71.9746 42.15 71.2603C41.8218 69.8314 41.5793 68.3924 41.3924 66.9475C41.2121 65.5016 41.0917 64.0496 41.039 62.5901C40.9858 61.1285 41.0217 59.6623 41.1636 58.2026C41.2352 57.4724 41.3307 56.7433 41.4665 56.0167C41.604 55.2901 41.7711 54.5661 42.0297 53.8464C42.1623 53.4864 42.3101 53.1277 42.5424 52.768C42.5703 52.7233 42.6023 52.6781 42.6362 52.6331C42.6677 52.5884 42.705 52.5432 42.7439 52.4984C42.7796 52.4543 42.8268 52.4079 42.8711 52.3649C42.916 52.3243 42.9615 52.2841 43.0074 52.2495C43.1908 52.1059 43.3779 52.0057 43.5654 51.9173C43.9404 51.7445 44.3194 51.6386 44.6998 51.5635C45.0801 51.4912 45.4611 51.4467 45.8417 51.4366C46.6023 51.4142 47.3594 51.4925 48.0922 51.6685C48.8226 51.8519 49.5306 52.1242 50.178 52.5005C50.8248 52.8761 51.4146 53.3442 51.9106 53.8905C52.4096 54.4338 52.8168 55.0506 53.1252 55.7044Z" fill="#371B45"/>
<path d="M55.4336 48.8862C55.6869 48.2882 56.0721 47.7638 56.5412 47.3042C57.0117 46.847 57.5774 46.4603 58.2203 46.1961C58.8604 45.9277 59.5828 45.8021 60.3045 45.83C61.0285 45.8538 61.7405 46.0587 62.3751 46.3674C63.012 46.6772 63.5726 47.0952 64.0493 47.5676C64.5263 48.0413 64.9251 48.567 65.2546 49.1201C65.5912 49.6692 65.8443 50.2538 66.0519 50.8454C66.103 50.9936 66.1499 51.1433 66.196 51.2924C66.2382 51.443 66.275 51.5956 66.3125 51.7468C66.351 51.8976 66.3818 52.0509 66.407 52.2057C66.4335 52.36 66.4574 52.5145 66.4752 52.6704C66.0536 52.2008 65.688 51.7211 65.294 51.2737C64.905 50.825 64.5232 50.3869 64.121 49.989C63.3201 49.1927 62.4698 48.5184 61.5612 48.1322C61.1083 47.9362 60.6441 47.8141 60.1688 47.7648C59.694 47.7146 59.2035 47.7196 58.6953 47.8018C58.1879 47.8824 57.6619 48.0208 57.1221 48.21C56.5799 48.3974 56.0335 48.6404 55.4336 48.8862Z" fill="#371B45"/>
<path d="M44.5941 47.6266C44.4787 47.5316 44.3735 47.4359 44.2741 47.34C44.1727 47.2452 44.0661 47.1568 43.9709 47.0647C43.7697 46.8874 43.5776 46.7166 43.3811 46.5622C42.9923 46.25 42.6042 45.9909 42.2128 45.79C41.8195 45.5921 41.4231 45.4525 41.0118 45.3655C40.6011 45.275 40.1691 45.2611 39.7294 45.3131C38.8477 45.4107 37.9462 45.7705 37.0866 46.2746C36.6539 46.5247 36.2289 46.8117 35.8114 47.1271C35.3926 47.4416 34.9828 47.7832 34.5508 48.1306C34.926 47.0926 35.5442 46.1389 36.3661 45.3392C37.1876 44.5471 38.2425 43.9056 39.4724 43.6686C39.778 43.6075 40.0941 43.5837 40.4116 43.5791C40.5708 43.586 40.7308 43.5878 40.89 43.6057C41.0487 43.6298 41.2093 43.6415 41.366 43.6813C41.9967 43.8146 42.597 44.1005 43.088 44.4966C43.5781 44.8955 43.9555 45.3968 44.2098 45.9322C44.3366 46.2011 44.434 46.4785 44.4993 46.762C44.5152 46.833 44.5295 46.9042 44.5417 46.9758C44.5537 47.0474 44.5699 47.1164 44.574 47.1903C44.588 47.3353 44.5962 47.4805 44.5941 47.6266Z" fill="#371B45"/>
<path d="M33.0163 52.3526C33.373 54.0395 35.4381 54.1387 35.924 52.2883C36.3264 50.756 35.2856 47.8408 34.6364 47.807C33.9132 47.7694 32.63 50.5264 33.0163 52.3526Z" fill="#71EBFF"/>
<path d="M34.4337 54.0155C34.4194 54.0155 34.4052 54.0153 34.3909 54.0149C33.5497 53.9946 32.8525 53.3571 32.6561 52.4286C32.3247 50.8612 33.113 48.7379 33.824 47.9057C34.1013 47.5812 34.3848 47.4245 34.6561 47.4383C34.8995 47.451 35.1263 47.6056 35.3494 47.9108C35.9732 48.7646 36.6395 51.018 36.2815 52.3816C36.0196 53.3787 35.297 54.0154 34.4337 54.0155ZM34.6086 48.1818C34.1817 48.3516 33.0245 50.6056 33.3778 52.276C33.3779 52.276 33.3779 52.276 33.3779 52.276C33.504 52.8723 33.9086 53.2654 34.4089 53.2775C34.8296 53.2874 35.3543 53.0086 35.5681 52.1942C35.9235 50.8404 35.0297 48.4501 34.6086 48.1818Z" fill="#1ACFFF"/>
<g opacity="0.7">
<path d="M33.6924 52.075C33.8668 52.6766 34.3932 52.5855 34.4811 52.0026C34.5776 51.3628 34.2758 50.5742 34.0303 50.5941C33.7681 50.6155 33.4952 51.395 33.6924 52.075Z" fill="white"/>
</g>
<path d="M64.3131 56.211C64.6699 57.8979 66.735 57.9971 67.2209 56.1467C67.6233 54.6144 66.5825 51.6992 65.9332 51.6654C65.21 51.6278 63.9269 54.3848 64.3131 56.211Z" fill="#71EBFF"/>
<path d="M65.7306 57.8739C65.7163 57.8739 65.7021 57.8737 65.6878 57.8733C64.8466 57.853 64.1494 57.2155 63.953 56.287C63.6216 54.7196 64.4098 52.5963 65.1209 51.7641C65.3981 51.4396 65.6817 51.2829 65.953 51.2967C66.1964 51.3094 66.4232 51.464 66.6462 51.7692C67.27 52.623 67.9364 54.8764 67.5783 56.24C67.3165 57.2371 66.5939 57.8738 65.7306 57.8739ZM65.9055 52.0402C65.4786 52.21 64.3214 54.464 64.6747 56.1344C64.6748 56.1344 64.6748 56.1344 64.6748 56.1344C64.8009 56.7307 65.2055 57.1238 65.7057 57.1359C66.1265 57.1458 66.6512 56.867 66.865 56.0526C67.2203 54.6988 66.3265 52.3085 65.9055 52.0402Z" fill="#1ACFFF"/>
<g opacity="0.7">
<path d="M64.9853 55.9324C65.1598 56.5341 65.6862 56.4429 65.7741 55.86C65.8705 55.2202 65.5688 54.4316 65.3233 54.4515C65.0611 54.4729 64.7882 55.2524 64.9853 55.9324Z" fill="white"/>
</g>
<path d="M43.8778 73.3779C43.9159 73.5683 44.01 73.8043 44.1139 74.0212C44.2198 74.2414 44.3433 74.4576 44.4824 74.6639C44.6218 74.8701 44.7769 75.0676 44.9548 75.2457C45.1328 75.423 45.3344 75.5826 45.5745 75.6879C45.313 75.6625 45.0535 75.5686 44.8122 75.446C44.57 75.3228 44.3417 75.1704 44.1254 75.0022C43.9092 74.8335 43.7047 74.6486 43.5117 74.4473C43.3187 74.2418 43.1377 74.0369 42.9687 73.7533L43.8778 73.3779Z" fill="#371B45"/>
<path d="M50.558 74.0308C50.4904 74.1434 50.4296 74.2249 50.362 74.3162C50.2959 74.4049 50.2275 74.4906 50.1565 74.574C50.0149 74.7409 49.8653 74.8994 49.705 75.0457C49.5432 75.1909 49.3721 75.3245 49.1904 75.4376C49.006 75.5479 48.8111 75.6355 48.6133 75.6877C48.7759 75.5612 48.9095 75.4136 49.0245 75.2562C49.1368 75.0954 49.2301 74.9253 49.3113 74.7509C49.3913 74.5753 49.4576 74.3943 49.5139 74.2119C49.5422 74.1208 49.5675 74.0288 49.5895 73.9371C49.6108 73.8485 49.6339 73.7474 49.6417 73.6738L50.558 74.0308Z" fill="#371B45"/>
</g>
<defs>
<linearGradient id="paint0_linear_11117_33184" x1="75.5" y1="123" x2="71" y2="38.5" gradientUnits="userSpaceOnUse">
<stop stop-color="white"/>
<stop offset="1" stop-color="#BBBCEA"/>
</linearGradient>
<linearGradient id="paint1_linear_11117_33184" x1="45" y1="32" x2="73.1923" y2="147" gradientUnits="userSpaceOnUse">
<stop stop-color="#EBDEF6"/>
<stop offset="1" stop-color="white"/>
</linearGradient>
<linearGradient id="paint2_linear_11117_33184" x1="78.1238" y1="85.9922" x2="99.8542" y2="145.565" gradientUnits="userSpaceOnUse">
<stop stop-color="#C2C4FD"/>
<stop offset="0.163505" stop-color="#CFC0FF"/>
<stop offset="1" stop-color="#8E00FF"/>
</linearGradient>
<linearGradient id="paint3_linear_11117_33184" x1="77.6056" y1="116.031" x2="94.5019" y2="111.122" gradientUnits="userSpaceOnUse">
<stop stop-color="white" stop-opacity="0"/>
<stop offset="1" stop-color="#8E00FF"/>
</linearGradient>
<linearGradient id="paint4_linear_11117_33184" x1="55.9578" y1="91.3516" x2="117.32" y2="200.204" gradientUnits="userSpaceOnUse">
<stop stop-color="#C2C4FD"/>
<stop offset="0.163505" stop-color="#CFC0FF"/>
<stop offset="1" stop-color="#8E00FF"/>
</linearGradient>
<linearGradient id="paint5_linear_11117_33184" x1="55.2452" y1="155.187" x2="79.5803" y2="150.612" gradientUnits="userSpaceOnUse">
<stop stop-color="white" stop-opacity="0"/>
<stop offset="1" stop-color="#8E00FF"/>
</linearGradient>
<linearGradient id="paint6_linear_11117_33184" x1="42.0918" y1="66.6094" x2="61.9473" y2="172.236" gradientUnits="userSpaceOnUse">
<stop stop-color="#C2C4FD"/>
<stop offset="0.163505" stop-color="#CFC0FF"/>
<stop offset="1" stop-color="#8E00FF"/>
</linearGradient>
<linearGradient id="paint7_linear_11117_33184" x1="40.4627" y1="115.277" x2="84.1738" y2="90.6344" gradientUnits="userSpaceOnUse">
<stop stop-color="white" stop-opacity="0"/>
<stop offset="1" stop-color="#8E00FF"/>
</linearGradient>
<linearGradient id="paint8_linear_11117_33184" x1="62.5931" y1="64.9746" x2="136.9" y2="252.295" gradientUnits="userSpaceOnUse">
<stop stop-color="#C2C4FD"/>
<stop offset="0.163505" stop-color="#CFC0FF"/>
<stop offset="1" stop-color="#8E00FF"/>
</linearGradient>
<linearGradient id="paint9_linear_11117_33184" x1="61.0627" y1="161.454" x2="111.571" y2="147.961" gradientUnits="userSpaceOnUse">
<stop stop-color="white" stop-opacity="0"/>
<stop offset="1" stop-color="#8E00FF"/>
</linearGradient>
<linearGradient id="paint10_linear_11117_33184" x1="33.7242" y1="69.6074" x2="47.7941" y2="101.928" gradientUnits="userSpaceOnUse">
<stop stop-color="#C2C4FD"/>
<stop offset="0.163505" stop-color="#CFC0FF"/>
<stop offset="1" stop-color="#8E00FF"/>
</linearGradient>
<linearGradient id="paint11_linear_11117_33184" x1="33.4769" y1="86.7167" x2="41.7323" y2="84.7071" gradientUnits="userSpaceOnUse">
<stop stop-color="white" stop-opacity="0"/>
<stop offset="1" stop-color="#8E00FF"/>
</linearGradient>
<linearGradient id="paint12_linear_11117_33184" x1="30.6371" y1="69.3281" x2="55.9874" y2="121.208" gradientUnits="userSpaceOnUse">
<stop stop-color="#C2C4FD"/>
<stop offset="0.163505" stop-color="#CFC0FF"/>
<stop offset="1" stop-color="#8E00FF"/>
</linearGradient>
<linearGradient id="paint13_linear_11117_33184" x1="30.2688" y1="97.9285" x2="42.7067" y2="95.231" gradientUnits="userSpaceOnUse">
<stop stop-color="white" stop-opacity="0"/>
<stop offset="1" stop-color="#8E00FF"/>
</linearGradient>
<linearGradient id="paint14_linear_11117_33184" x1="69.8062" y1="94.6484" x2="121.534" y2="197.663" gradientUnits="userSpaceOnUse">
<stop stop-color="#C2C4FD"/>
<stop offset="0.163505" stop-color="#CFC0FF"/>
<stop offset="1" stop-color="#8E00FF"/>
</linearGradient>
<linearGradient id="paint15_linear_11117_33184" x1="69.0869" y1="152.052" x2="93.4368" y2="146.913" gradientUnits="userSpaceOnUse">
<stop stop-color="white" stop-opacity="0"/>
<stop offset="1" stop-color="#8E00FF"/>
</linearGradient>
<linearGradient id="paint16_linear_11117_33184" x1="66.7144" y1="70.7568" x2="91.3085" y2="135.965" gradientUnits="userSpaceOnUse">
<stop stop-color="#C2C4FD"/>
<stop offset="0.163505" stop-color="#CFC0FF"/>
<stop offset="1" stop-color="#8E00FF"/>
</linearGradient>
<linearGradient id="paint17_linear_11117_33184" x1="66.1614" y1="103.904" x2="84.2844" y2="98.8117" gradientUnits="userSpaceOnUse">
<stop stop-color="white" stop-opacity="0"/>
<stop offset="1" stop-color="#8E00FF"/>
</linearGradient>
<linearGradient id="paint18_linear_11117_33184" x1="67.4998" y1="74.7314" x2="126.183" y2="166.878" gradientUnits="userSpaceOnUse">
<stop stop-color="#C2C4FD"/>
<stop offset="0.163505" stop-color="#CFC0FF"/>
<stop offset="1" stop-color="#8E00FF"/>
</linearGradient>
<linearGradient id="paint19_linear_11117_33184" x1="66.9302" y1="132.37" x2="86.5247" y2="129.109" gradientUnits="userSpaceOnUse">
<stop stop-color="white" stop-opacity="0"/>
<stop offset="1" stop-color="#8E00FF"/>
</linearGradient>
<linearGradient id="paint20_linear_11117_33184" x1="30.5665" y1="21.7354" x2="61.4234" y2="130.727" gradientUnits="userSpaceOnUse">
<stop stop-color="#C2C4FD"/>
<stop offset="0.163505" stop-color="#CFC0FF"/>
<stop offset="1" stop-color="#8E00FF"/>
</linearGradient>
<linearGradient id="paint21_linear_11117_33184" x1="29.402" y1="74.127" x2="65.5156" y2="60.609" gradientUnits="userSpaceOnUse">
<stop stop-color="white" stop-opacity="0"/>
<stop offset="1" stop-color="#8E00FF"/>
</linearGradient>
<linearGradient id="paint22_linear_11117_33184" x1="30.5662" y1="21.7354" x2="61.4219" y2="130.724" gradientUnits="userSpaceOnUse">
<stop stop-color="#C2C4FD"/>
<stop offset="0.163505" stop-color="#CFC0FF"/>
<stop offset="1" stop-color="#8E00FF"/>
</linearGradient>
<linearGradient id="paint23_linear_11117_33184" x1="29.4018" y1="74.1252" x2="65.5146" y2="60.6075" gradientUnits="userSpaceOnUse">
<stop stop-color="white" stop-opacity="0"/>
<stop offset="1" stop-color="#8E00FF"/>
</linearGradient>
<linearGradient id="paint24_linear_11117_33184" x1="53.1276" y1="20.4902" x2="135.267" y2="290.44" gradientUnits="userSpaceOnUse">
<stop stop-color="#C2C4FD"/>
<stop offset="0.163505" stop-color="#CFC0FF"/>
<stop offset="1" stop-color="#8E00FF"/>
</linearGradient>
<linearGradient id="paint25_linear_11117_33184" x1="50.4131" y1="151.747" x2="136.007" y2="121.936" gradientUnits="userSpaceOnUse">
<stop stop-color="white" stop-opacity="0"/>
<stop offset="1" stop-color="#8E00FF"/>
</linearGradient>
<linearGradient id="paint26_linear_11117_33184" x1="53.1272" y1="20.4902" x2="135.269" y2="290.44" gradientUnits="userSpaceOnUse">
<stop stop-color="#C2C4FD"/>
<stop offset="0.163505" stop-color="#CFC0FF"/>
<stop offset="1" stop-color="#8E00FF"/>
</linearGradient>
<linearGradient id="paint27_linear_11117_33184" x1="50.4128" y1="151.747" x2="136.006" y2="121.938" gradientUnits="userSpaceOnUse">
<stop stop-color="white" stop-opacity="0"/>
<stop offset="1" stop-color="#8E00FF"/>
</linearGradient>
<linearGradient id="paint28_linear_11117_33184" x1="84.7275" y1="27.3293" x2="128.957" y2="158.172" gradientUnits="userSpaceOnUse">
<stop stop-color="#C2C4FD"/>
<stop offset="0.163505" stop-color="#CFC0FF"/>
<stop offset="1" stop-color="#8E00FF"/>
</linearGradient>
<linearGradient id="paint29_linear_11117_33184" x1="83.5197" y1="92.2109" x2="122.403" y2="80.0212" gradientUnits="userSpaceOnUse">
<stop stop-color="white" stop-opacity="0"/>
<stop offset="1" stop-color="#8E00FF"/>
</linearGradient>
<linearGradient id="paint30_linear_11117_33184" x1="48.396" y1="49.1953" x2="62.7032" y2="103.567" gradientUnits="userSpaceOnUse">
<stop stop-color="#C2C4FD"/>
<stop offset="0.163505" stop-color="#CFC0FF"/>
<stop offset="1" stop-color="#8E00FF"/>
</linearGradient>
<linearGradient id="paint31_linear_11117_33184" x1="47.7773" y1="75.0674" x2="66.6004" y2="67.4868" gradientUnits="userSpaceOnUse">
<stop stop-color="white" stop-opacity="0"/>
<stop offset="1" stop-color="#8E00FF"/>
</linearGradient>
<linearGradient id="paint32_linear_11117_33184" x1="46.8147" y1="51.8613" x2="123.585" y2="154.133" gradientUnits="userSpaceOnUse">
<stop stop-color="#C2C4FD"/>
<stop offset="0.163505" stop-color="#CFC0FF"/>
<stop offset="1" stop-color="#8E00FF"/>
</linearGradient>
<linearGradient id="paint33_linear_11117_33184" x1="46.2181" y1="123.02" x2="66.8974" y2="120.101" gradientUnits="userSpaceOnUse">
<stop stop-color="white" stop-opacity="0"/>
<stop offset="1" stop-color="#8E00FF"/>
</linearGradient>
<linearGradient id="paint34_linear_11117_33184" x1="46.8149" y1="51.8613" x2="123.584" y2="154.136" gradientUnits="userSpaceOnUse">
<stop stop-color="#C2C4FD"/>
<stop offset="0.163505" stop-color="#CFC0FF"/>
<stop offset="1" stop-color="#8E00FF"/>
</linearGradient>
<linearGradient id="paint35_linear_11117_33184" x1="46.2183" y1="123.02" x2="66.8985" y2="120.1" gradientUnits="userSpaceOnUse">
<stop stop-color="white" stop-opacity="0"/>
<stop offset="1" stop-color="#8E00FF"/>
</linearGradient>
<clipPath id="clip0_11117_33184">
<rect width="110" height="110" rx="55" fill="white"/>
</clipPath>
</defs>
</svg>
