<svg width="110" height="110" viewBox="0 0 110 110" fill="none" xmlns="http://www.w3.org/2000/svg">
<g clip-path="url(#clip0_11117_33663)">
<rect width="110" height="110" rx="55" fill="white"/>
<rect width="110" height="110" rx="55" fill="url(#paint0_linear_11117_33663)"/>
<rect width="110" height="110" rx="55" fill="url(#paint1_linear_11117_33663)"/>
<path d="M60.0907 106.645C33.2485 106.645 11.4883 103.99 11.4883 100.717C11.4883 99.6658 13.73 98.6787 17.6638 97.8228C18.3858 98.4257 19.2123 99.0087 20.1632 99.5916C23.9401 101.908 37.9914 102.71 52.8676 103.557C56.1832 103.746 59.6113 103.941 62.8035 104.151C63.8186 104.218 64.7887 104.251 65.7132 104.251C65.8923 104.251 66.0695 104.249 66.245 104.247C66.3076 104.293 66.3713 104.336 66.4361 104.375C66.6735 104.521 66.9749 104.6 67.275 104.6C67.4805 104.6 67.6851 104.563 67.8676 104.484C68.2285 104.347 68.5933 104.218 68.9609 104.095C71.5321 103.832 73.6352 103.234 75.255 102.306C75.8133 102.114 76.362 101.896 76.8956 101.634C77.5247 101.321 78.1201 100.886 78.6098 100.358C78.9184 100.361 79.2276 100.362 79.5375 100.362C80.7363 100.362 81.9456 100.342 83.1546 100.314C84.1255 101.9 85.4332 103.031 86.8569 103.355C87.2808 103.631 87.7807 103.761 88.3122 103.761C88.9087 103.761 89.5452 103.597 90.1591 103.287C91.5719 102.598 92.6868 101.325 93.7546 100.32C93.7769 100.3 93.7988 100.279 93.8211 100.258C96.785 100.228 99.3268 99.3085 101.315 97.5755C105.991 98.4864 108.694 99.5629 108.694 100.717C108.694 103.99 86.9333 106.645 60.0907 106.645Z" fill="#B99AE3"/>
<path d="M95.1875 74.3606C106.935 83.3739 105.201 93.4577 107.023 93.4336C109.093 93.4062 106.08 76.7869 101.235 69.5424L95.1875 74.3606Z" fill="#FBD7E0"/>
<path d="M107.011 94.0117C106.012 94.0117 105.746 92.9132 105.306 91.0997C104.446 87.5585 102.847 80.9665 94.8354 74.8195C94.5828 74.6254 94.5347 74.2624 94.7278 74.0087C94.9214 73.7554 95.2833 73.7071 95.5363 73.9009C103.871 80.2963 105.533 87.1462 106.426 90.8264C106.603 91.5542 106.799 92.3618 106.973 92.7152C107.237 91.8792 107.197 88.7908 105.976 83.5103C104.684 77.9228 102.732 72.8215 100.754 69.864C100.577 69.5989 100.647 69.2395 100.912 69.0617C101.176 68.8836 101.535 68.9546 101.712 69.22C103.736 72.2463 105.666 77.2156 107.007 82.8538C107.935 86.7573 108.733 91.8618 107.927 93.4021C107.653 93.9259 107.247 94.0089 107.029 94.0117C107.023 94.0117 107.017 94.0117 107.011 94.0117Z" fill="#371B45"/>
<path d="M109.169 97.2292C106.711 97.2016 103.946 95.2791 104.282 92.2638C104.454 90.7185 105.918 89.4727 107.615 89.6544C108.065 89.7026 108.53 89.8517 108.991 90.121C111.122 91.365 109.272 93.5192 109.824 95.14C110.276 96.4649 112.03 96.2989 112.03 96.2989C112.03 96.2989 110.968 97.0092 109.745 97.1902C109.556 97.2161 109.363 97.2317 109.169 97.2292Z" fill="#71757F"/>
<path d="M110.133 96.5176C109.618 96.3657 109.074 96.0421 108.842 95.3616C108.348 93.9124 109.597 92.0759 108.832 90.702C109.624 91.2307 109.54 91.8867 109.316 93.0481C109.171 93.7964 109.021 94.5703 109.279 95.3264C109.473 95.8963 109.832 96.2596 110.23 96.4903C110.198 96.4995 110.166 96.5087 110.133 96.5176Z" fill="#AAACB2"/>
<path d="M107.293 90.2136C106.812 90.2136 106.426 90.3548 106.179 90.4797C105.45 90.8477 104.943 91.5559 104.857 92.3273C104.712 93.6345 105.252 94.556 105.731 95.0992C106.562 96.0413 107.883 96.636 109.178 96.6509C109.534 96.6562 109.898 96.5881 110.232 96.4905C109.834 96.2599 109.475 95.8965 109.281 95.3267C109.023 94.5705 109.173 93.7967 109.318 93.0483C109.554 91.8267 109.634 91.1638 108.703 90.6206C108.182 90.3165 107.703 90.2136 107.293 90.2136ZM109.208 97.8076C109.194 97.8076 109.179 97.8076 109.164 97.8076C107.554 97.7888 105.907 97.0447 104.867 95.8653C103.959 94.8352 103.559 93.5674 103.711 92.1992C103.84 91.0436 104.587 89.9887 105.66 89.4465C106.793 88.8745 108.113 88.938 109.284 89.6211C110.966 90.6029 110.668 92.1435 110.45 93.2687C110.329 93.896 110.214 94.4882 110.372 94.953C110.669 95.8245 111.968 95.7234 111.981 95.7227C112.243 95.6996 112.489 95.8586 112.576 96.1076C112.663 96.3567 112.572 96.6331 112.353 96.7797C112.29 96.8219 110.797 97.8076 109.208 97.8076Z" fill="#371B45"/>
<path d="M105.338 87.4911C104.522 94.6344 100.557 100.34 92.3392 99.6226C89.9432 99.5647 87.4445 99.629 84.9349 99.6932C80.7578 99.8 76.5509 99.9068 72.7396 99.4494C68.6636 98.9594 65.0391 97.8247 62.3884 95.3565C62.2709 95.2472 62.1548 95.1362 62.0423 95.0215C55.5254 88.4455 65.5982 64.6164 65.5982 64.6164C65.5982 64.6164 66.8287 63.7141 68.9187 62.6433C74.6902 59.6836 87.0175 55.431 98.0672 65.3183C103.323 70.0205 106.238 79.6288 105.338 87.4911Z" fill="url(#paint2_linear_11117_33663)"/>
<path d="M105.338 87.4911C104.522 94.6344 100.557 100.34 92.3392 99.6226C89.9432 99.5647 87.4445 99.629 84.9349 99.6932C80.7578 99.8 76.5509 99.9068 72.7396 99.4494C68.6636 98.9594 65.0391 97.8247 62.3884 95.3565C62.2709 95.2472 62.1548 95.1362 62.0423 95.0215C55.5254 88.4455 65.5982 64.6164 65.5982 64.6164C65.5982 64.6164 66.8287 63.7141 68.9187 62.6433C74.6902 59.6836 87.0175 55.431 98.0672 65.3183C103.323 70.0205 106.238 79.6288 105.338 87.4911Z" fill="url(#paint3_linear_11117_33663)" fill-opacity="0.2"/>
<path d="M78.429 78.1024C78.429 87.2477 71.3512 94.7359 62.3884 95.3555C62.2709 95.2462 62.1548 95.1351 62.0423 95.0205C55.5254 88.4445 65.5982 64.6154 65.5982 64.6154C65.5982 64.6154 66.8287 63.7131 68.9187 62.6422C74.5593 65.484 78.429 71.3412 78.429 78.1024Z" fill="#A7ACB7"/>
<path d="M79.5556 99.2051C79.5096 99.2051 79.464 99.2051 79.418 99.2051C79.4937 99.0539 79.5609 98.8985 79.6186 98.7395C79.666 98.6164 79.625 98.472 79.5117 98.3943C79.5029 98.3886 79.4944 98.3833 79.4852 98.3783C79.8344 97.7031 80.7986 95.6259 80.7971 93.293C80.7968 92.6443 80.7218 91.9755 80.5378 91.3116C80.4256 90.906 80.2877 90.5338 80.1316 90.1921C80.5735 90.6821 81.1202 91.1739 81.751 91.6526C81.7114 91.8162 81.6757 91.9829 81.6438 92.1533C81.5087 92.881 81.4482 93.6705 81.4744 94.5047C81.5271 96.1759 81.9205 97.7868 82.5496 99.1703C81.5479 99.1909 80.5481 99.2051 79.5556 99.2051ZM96.2854 98.841C96.3063 98.8087 96.3212 98.7715 96.3279 98.7307C96.3417 98.5994 96.2961 98.5121 96.2154 98.455L97.9636 95.3861L97.9654 95.3829C100.518 94.6537 102.762 93.0652 104.245 90.2677C104.03 91.0941 103.765 91.8783 103.45 92.6106C102.359 95.1416 100.269 97.9777 96.2854 98.841Z" fill="#9AA1C6"/>
<path d="M104.725 87.7773C105.155 80.2039 102.282 71.4305 97.3344 67.0033C92.1376 62.3522 86.658 60.8297 81.7106 60.8297C81.5801 60.8297 81.4481 60.8307 81.3182 60.8329C81.199 60.4685 81.0762 60.1115 80.9492 59.7599C81.4715 59.7262 81.9898 59.7091 82.5039 59.7091C88.1062 59.7091 93.1944 61.7292 97.6861 65.7486C100.718 68.4616 103.107 73.0393 104.242 78.3084C104.951 81.5984 105.106 84.8621 104.725 87.7773Z" fill="#ECEFF4"/>
<path d="M66.0688 64.9925C65.6693 65.9611 63.459 71.4368 61.9351 77.5058C59.7616 86.1614 59.9414 92.0771 62.4545 94.613C67.3598 99.5622 76.2983 99.3337 84.9424 99.1133C87.4053 99.0505 89.9524 98.9852 92.3566 99.0438L92.3923 99.0459C98.9935 99.6211 102.049 95.8642 103.45 92.6108C105.09 88.8003 105.379 83.5872 104.242 78.3081C103.107 73.0389 100.718 68.4612 97.6861 65.7482C91.604 60.3056 84.4304 58.5293 76.3641 60.4688C70.8838 61.7863 66.828 64.4673 66.0688 64.9925ZM79.5382 100.362C72.5018 100.362 65.8218 99.6512 61.6365 95.4284C54.9232 88.6541 64.6521 65.3775 65.0696 64.3896L65.1319 64.2427L65.2603 64.1487C65.4418 64.0156 69.7803 60.8712 76.0563 59.3532C81.8801 57.9449 90.493 57.7611 98.4539 64.8853C105.204 70.9255 108.146 84.6222 104.509 93.0692C102.318 98.1567 97.9851 100.689 92.3109 100.2C89.9404 100.143 87.4145 100.207 84.9717 100.27C83.1612 100.316 81.338 100.362 79.5382 100.362Z" fill="#371B45"/>
<path d="M43.169 42.8573C43.169 42.8573 40.8458 47.2568 38.7014 49.4117C37.1877 50.9325 32.4003 53.2424 33.5597 61.8462C35.1505 73.6492 38.7842 75.8591 29.8439 80.2351C22.3621 83.8973 14.2423 78.7204 14.6558 72.9701C14.8808 69.8405 17.5455 68.5252 20.6191 63.2279C23.6678 57.9737 24.7664 46.1342 33.5233 42.3379C37.7896 40.4882 43.169 42.8573 43.169 42.8573Z" fill="#F4F4F4"/>
<path d="M37.2237 42.2119C36.0657 42.2119 34.8624 42.3861 33.7503 42.868C27.7524 45.4685 25.4192 52.1822 23.5445 57.577C22.7623 59.828 22.0234 61.9541 21.116 63.5182C19.8167 65.7575 18.5832 67.3045 17.5921 68.5475C16.2408 70.2421 15.348 71.3616 15.2295 73.0108C15.0687 75.2463 16.3473 77.5125 18.6496 79.0731C21.1332 80.7564 25.3112 81.8088 29.5895 79.7146C35.9652 76.5939 35.6118 74.9858 34.298 69.0027C33.8862 67.1278 33.3739 64.7945 32.9868 61.9232C31.9529 54.2501 35.558 51.2862 37.4948 49.6938C37.8153 49.4305 38.092 49.203 38.2916 49.0022C39.8993 47.387 41.6457 44.4061 42.3438 43.1586C41.3857 42.8169 39.3831 42.2119 37.2237 42.2119ZM24.6128 82.0312C22.2692 82.0312 19.9618 81.3585 18.0039 80.0311C15.3555 78.2364 13.8883 75.5805 14.079 72.9278C14.2234 70.9202 15.2586 69.6219 16.6913 67.8251C17.6587 66.6119 18.8627 65.1021 20.1192 62.9363C20.9708 61.4687 21.6919 59.3933 22.4554 57.1966C24.4044 51.5882 26.83 44.608 33.2928 41.8063C37.7385 39.8789 43.1703 42.2264 43.3992 42.3272L43.9675 42.5774L43.677 43.1273C43.5804 43.3101 41.2884 47.6287 39.1078 49.8194C38.8676 50.061 38.5704 50.3055 38.2261 50.5883C36.3396 52.1392 33.1821 54.7351 34.13 61.7682C34.5103 64.5922 35.0173 66.8997 35.4242 68.754C36.7415 74.7516 37.2867 77.2344 30.0954 80.7542C28.3497 81.6087 26.4699 82.0312 24.6128 82.0312Z" fill="#371B45"/>
<path d="M37.2262 42.2127C36.0682 42.2127 34.8656 42.3862 33.7542 42.8681C27.7553 45.4686 25.4223 52.183 23.5476 57.5781C22.7655 59.8291 22.0267 61.9553 21.1193 63.5193C19.82 65.7583 18.5868 67.3046 17.5959 68.5472C16.6352 69.7522 15.9063 70.6663 15.5225 71.6868C16.0168 70.7897 16.7906 69.8807 17.9758 69.0507C22.2689 66.0446 24.0976 63.3877 27.7595 54.8367C29.3386 51.1512 33.249 48.8352 39.076 48.1298C40.4389 46.471 41.7615 44.2054 42.3467 43.159C41.3885 42.8177 39.3859 42.2127 37.2262 42.2127ZM15.1044 77.0166C14.337 75.7257 13.9837 74.3121 14.0827 72.9283C14.2271 70.9203 15.2623 69.622 16.6951 67.8252C17.6623 66.612 18.8661 65.1026 20.1225 62.9374C20.9741 61.4699 21.6951 59.3945 22.4585 57.1974C24.4074 51.5887 26.8329 44.6081 33.2968 41.8061C37.7421 39.8801 43.1732 42.2269 43.4021 42.3277L43.97 42.5782L43.6798 43.1278C43.6024 43.2747 41.7611 46.7456 39.8109 49.0513L39.663 49.2266L39.4355 49.2521C33.8381 49.8837 30.2663 51.9162 28.8192 55.293C25.0519 64.0906 23.1485 66.8395 18.636 69.9992C14.7425 72.725 16.0792 76.3598 16.138 76.5131L15.1044 77.0166Z" fill="#363D56"/>
<path d="M43.1678 42.8565C43.1678 42.8565 41.5816 45.8597 39.8203 48.1193C39.671 48.3112 39.5199 48.4979 39.3689 48.6763C34.937 49.1763 30.129 50.7659 28.2873 55.0639C24.5252 63.8487 22.6484 66.4819 18.3037 69.5242C14.0161 72.5257 15.5556 76.6101 15.5975 76.7197C14.9109 75.5648 14.5617 74.2817 14.6557 72.9685C14.8706 69.9855 17.3015 68.6503 20.1923 63.9413C20.3333 63.7125 20.476 63.4733 20.6187 63.2274C23.6674 57.9732 24.7653 46.1326 33.5235 42.3363C37.7891 40.4877 43.1678 42.8565 43.1678 42.8565Z" fill="url(#paint4_linear_11117_33663)"/>
<path d="M43.1678 42.8565C43.1678 42.8565 41.5816 45.8597 39.8203 48.1193C39.671 48.3112 39.5199 48.4979 39.3689 48.6763C34.937 49.1763 30.129 50.7659 28.2873 55.0639C24.5252 63.8487 22.6484 66.4819 18.3037 69.5242C14.0161 72.5257 15.5556 76.6101 15.5975 76.7197C14.9109 75.5648 14.5617 74.2817 14.6557 72.9685C14.8706 69.9855 17.3015 68.6503 20.1923 63.9413C20.3333 63.7125 20.476 63.4733 20.6187 63.2274C23.6674 57.9732 24.7653 46.1326 33.5235 42.3363C37.7891 40.4877 43.1678 42.8565 43.1678 42.8565Z" fill="url(#paint5_linear_11117_33663)" fill-opacity="0.2"/>
<path d="M15.5195 71.6875C15.9033 70.667 16.6322 69.753 17.5929 68.548C18.407 67.5272 19.3848 66.3009 20.4283 64.6545C20.5323 64.5232 20.6336 64.3908 20.7332 64.2557C20.8125 64.2745 20.9003 64.2862 20.996 64.2862C21.5822 64.2862 22.4726 63.8565 23.6145 62.0355C24.5111 60.6073 25.898 54.9901 28.5346 50.9028C27.4088 52.8384 26.4556 55.0944 25.6474 57.6889C25.2523 58.9574 24.9373 60.2199 24.6741 61.4206C22.6783 65.1179 20.8974 67.0038 17.9728 69.0515C16.7876 69.8814 16.0138 70.7905 15.5195 71.6875Z" fill="url(#paint6_linear_11117_33663)"/>
<path d="M15.5195 71.6875C15.9033 70.667 16.6322 69.753 17.5929 68.548C18.407 67.5272 19.3848 66.3009 20.4283 64.6545C20.5323 64.5232 20.6336 64.3908 20.7332 64.2557C20.8125 64.2745 20.9003 64.2862 20.996 64.2862C21.5822 64.2862 22.4726 63.8565 23.6145 62.0355C24.5111 60.6073 25.898 54.9901 28.5346 50.9028C27.4088 52.8384 26.4556 55.0944 25.6474 57.6889C25.2523 58.9574 24.9373 60.2199 24.6741 61.4206C22.6783 65.1179 20.8974 67.0038 17.9728 69.0515C16.7876 69.8814 16.0138 70.7905 15.5195 71.6875Z" fill="url(#paint7_linear_11117_33663)" fill-opacity="0.2"/>
<path d="M20.736 64.2549C20.7194 64.251 20.7033 64.2471 20.6875 64.2425C20.8304 64.0097 20.9743 63.7688 21.1191 63.5193C22.0265 61.9552 22.7653 59.8291 23.5475 57.5781C25.4221 52.183 27.7551 45.4686 33.7541 42.8681C34.8654 42.3862 36.068 42.2127 37.2261 42.2127C37.9822 42.2127 38.7188 42.2865 39.3985 42.3976C38.9782 42.5125 38.5674 42.6385 38.1665 42.7762C37.8923 42.7517 37.6124 42.7389 37.329 42.7389C36.1597 42.7389 34.9319 42.9539 33.7941 43.4379C25.3754 47.0188 25.5059 57.7928 20.736 64.2549Z" fill="#ECEFF4"/>
<path d="M20.4297 64.6533C20.5147 64.5188 20.6003 64.3819 20.6861 64.2421C20.7019 64.2467 20.7181 64.2506 20.7346 64.2545C20.635 64.3897 20.5337 64.522 20.4297 64.6533Z" fill="#E1E3EE"/>
<path d="M37.2262 42.2127C36.0682 42.2127 34.8656 42.3862 33.7542 42.8681C27.7553 45.4686 25.4223 52.183 23.5476 57.5781C22.7655 59.8291 22.0267 61.9553 21.1193 63.5193C19.82 65.7583 18.5868 67.3046 17.5959 68.5472C16.6352 69.7522 15.9063 70.6663 15.5225 71.6868C16.0168 70.7897 16.7906 69.8807 17.9758 69.0507C22.2689 66.0446 24.0976 63.3877 27.7595 54.8367C29.3386 51.1512 33.249 48.8352 39.076 48.1298C40.4389 46.471 41.7615 44.2054 42.3467 43.159C41.3885 42.8177 39.3859 42.2127 37.2262 42.2127ZM15.1044 77.0166C14.337 75.7257 13.9837 74.3121 14.0827 72.9283C14.2271 70.9203 15.2623 69.622 16.6951 67.8252C17.6623 66.612 18.8661 65.1026 20.1225 62.9374C20.9741 61.4699 21.6951 59.3945 22.4585 57.1974C24.4074 51.5887 26.8329 44.6081 33.2968 41.8061C37.7421 39.8801 43.1732 42.2269 43.4021 42.3277L43.97 42.5782L43.6798 43.1278C43.6024 43.2747 41.7611 46.7456 39.8109 49.0513L39.663 49.2266L39.4355 49.2521C33.8381 49.8837 30.2663 51.9162 28.8192 55.293C25.0519 64.0906 23.1485 66.8395 18.636 69.9992C14.7425 72.725 16.0792 76.3598 16.138 76.5131L15.1044 77.0166Z" fill="#371B45"/>
<path d="M77.3103 74.9063C77.3121 75.1252 77.3121 75.3424 77.3086 75.5613C77.2399 81.1576 75.9085 86.8884 71.4901 90.045C65.3089 94.4611 57.8685 94.503 42.2511 92.5688C26.635 90.6326 21.4225 83.4945 20.8064 77.9706C20.427 74.5749 21.8976 71.3946 23.5562 69.1755C24.3654 67.4719 24.6843 62.719 26.1984 57.8604C29.9238 45.9038 36.7078 41.2048 50.3358 42.2065C56.4331 42.6543 61.9462 44.0115 66.3229 47.0066C70.5617 49.9055 73.7347 54.3384 75.3414 60.9733C75.8095 62.9078 77.2817 68.7614 77.3103 74.9063Z" fill="url(#paint8_linear_11117_33663)"/>
<path d="M77.3103 74.9063C77.3121 75.1252 77.3121 75.3424 77.3086 75.5613C77.2399 81.1576 75.9085 86.8884 71.4901 90.045C65.3089 94.4611 57.8685 94.503 42.2511 92.5688C26.635 90.6326 21.4225 83.4945 20.8064 77.9706C20.427 74.5749 21.8976 71.3946 23.5562 69.1755C24.3654 67.4719 24.6843 62.719 26.1984 57.8604C29.9238 45.9038 36.7078 41.2048 50.3358 42.2065C56.4331 42.6543 61.9462 44.0115 66.3229 47.0066C70.5617 49.9055 73.7347 54.3384 75.3414 60.9733C75.8095 62.9078 77.2817 68.7614 77.3103 74.9063Z" fill="url(#paint9_linear_11117_33663)" fill-opacity="0.2"/>
<path d="M25.9492 61.0215C26.1753 60.0457 26.4375 59.0391 26.751 58.0328C29.6282 48.7966 34.2275 44.1463 42.2792 42.9612C42.3288 42.9711 42.3797 42.9793 42.4321 42.9856C42.5 42.9938 42.5697 43.0002 42.6405 43.0009C42.6858 43.0013 42.7325 43.0013 42.7792 43.0016C42.8655 42.9998 42.9529 42.9988 43.0417 42.9988C44.2755 42.9988 45.7466 43.1808 46.7886 43.7368C35.6003 44.1445 29.625 49.3708 26.1488 60.5293C26.0971 60.6958 26.0302 60.8597 25.9492 61.0215ZM64.5852 46.6255C61.0103 45.1103 56.9633 44.284 52.6241 43.9107C52.7232 43.6261 52.801 43.333 52.858 43.0353C57.51 43.6123 61.4016 44.7963 64.5852 46.6255Z" fill="#ECEFF4"/>
<path d="M54.8027 90.7578C53.4592 90.4019 52.0642 90.2149 50.6737 90.2149C49.8079 90.2149 48.9442 90.2877 48.0968 90.4374C48.8561 89.0117 49.4346 87.5608 49.9444 86.2104L49.4448 85.0306L52.5047 86.8249C52.5047 86.8249 54.0621 88.5792 57.802 88.5792C59.0863 88.5792 60.6283 88.3723 62.4529 87.8163C62.1815 87.943 61.9137 88.0774 61.6497 88.2187C61.436 88.3187 61.3023 88.5504 61.3377 88.797C61.3387 88.8041 61.3398 88.8116 61.3409 88.8187C59.2742 89.5379 57.0876 90.2497 54.8027 90.7578ZM65.058 86.8888C70.8974 84.4511 64.2195 83.4778 65.7268 76.4675C67.0741 70.2002 70.5372 60.5653 65.9171 47.4562C65.9783 47.4977 66.0392 47.5392 66.0997 47.5814C66.9287 48.9262 68.3485 51.6311 69.1177 55.5661V55.5679C69.1177 55.5693 69.1195 55.5743 69.1209 55.5814C69.1227 55.5913 69.1262 55.6065 69.1312 55.6282C69.1329 55.6385 69.1361 55.6484 69.1379 55.6619C69.4503 57.2948 69.6506 59.1367 69.6513 61.1787C69.652 62.6928 69.5423 64.3165 69.2872 66.0463C68.5219 71.2392 67.0196 75.1962 67.0182 78.0199C67.0171 81.0852 68.7851 82.8157 75.185 83.343C75.2706 83.4363 75.3622 83.5314 75.4606 83.6279C75.0962 84.6268 74.6695 85.5003 74.2014 86.2632C73.5174 86.0599 72.7935 85.9701 72.0342 85.9701C70.9013 85.9701 69.6884 86.1703 68.4097 86.4921C68.402 86.4921 68.3945 86.4921 68.3871 86.4921C67.3497 86.4921 66.3155 86.5826 65.3082 86.8306C65.2247 86.849 65.1412 86.8686 65.058 86.8888ZM34.4763 85.7267C33.6052 85.2821 32.6563 85.0259 31.6751 85.0259C31.3677 85.0259 31.057 85.0511 30.7443 85.1036C27.0257 83.6123 23.9005 82.3097 22.6171 81.7715C22.0726 80.7396 21.7587 79.7958 21.5781 79.0315C23.1055 80.949 26.8466 84.796 32.2777 84.796C32.842 84.796 33.4244 84.7545 34.0248 84.6647C34.3128 84.6218 34.5817 84.5643 34.8333 84.4944C34.7212 84.9106 34.6037 85.3219 34.4763 85.7267Z" fill="url(#paint10_linear_11117_33663)"/>
<path d="M54.8027 90.7578C53.4592 90.4019 52.0642 90.2149 50.6737 90.2149C49.8079 90.2149 48.9442 90.2877 48.0968 90.4374C48.8561 89.0117 49.4346 87.5608 49.9444 86.2104L49.4448 85.0306L52.5047 86.8249C52.5047 86.8249 54.0621 88.5792 57.802 88.5792C59.0863 88.5792 60.6283 88.3723 62.4529 87.8163C62.1815 87.943 61.9137 88.0774 61.6497 88.2187C61.436 88.3187 61.3023 88.5504 61.3377 88.797C61.3387 88.8041 61.3398 88.8116 61.3409 88.8187C59.2742 89.5379 57.0876 90.2497 54.8027 90.7578ZM65.058 86.8888C70.8974 84.4511 64.2195 83.4778 65.7268 76.4675C67.0741 70.2002 70.5372 60.5653 65.9171 47.4562C65.9783 47.4977 66.0392 47.5392 66.0997 47.5814C66.9287 48.9262 68.3485 51.6311 69.1177 55.5661V55.5679C69.1177 55.5693 69.1195 55.5743 69.1209 55.5814C69.1227 55.5913 69.1262 55.6065 69.1312 55.6282C69.1329 55.6385 69.1361 55.6484 69.1379 55.6619C69.4503 57.2948 69.6506 59.1367 69.6513 61.1787C69.652 62.6928 69.5423 64.3165 69.2872 66.0463C68.5219 71.2392 67.0196 75.1962 67.0182 78.0199C67.0171 81.0852 68.7851 82.8157 75.185 83.343C75.2706 83.4363 75.3622 83.5314 75.4606 83.6279C75.0962 84.6268 74.6695 85.5003 74.2014 86.2632C73.5174 86.0599 72.7935 85.9701 72.0342 85.9701C70.9013 85.9701 69.6884 86.1703 68.4097 86.4921C68.402 86.4921 68.3945 86.4921 68.3871 86.4921C67.3497 86.4921 66.3155 86.5826 65.3082 86.8306C65.2247 86.849 65.1412 86.8686 65.058 86.8888ZM34.4763 85.7267C33.6052 85.2821 32.6563 85.0259 31.6751 85.0259C31.3677 85.0259 31.057 85.0511 30.7443 85.1036C27.0257 83.6123 23.9005 82.3097 22.6171 81.7715C22.0726 80.7396 21.7587 79.7958 21.5781 79.0315C23.1055 80.949 26.8466 84.796 32.2777 84.796C32.842 84.796 33.4244 84.7545 34.0248 84.6647C34.3128 84.6218 34.5817 84.5643 34.8333 84.4944C34.7212 84.9106 34.6037 85.3219 34.4763 85.7267Z" fill="url(#paint11_linear_11117_33663)" fill-opacity="0.2"/>
<path d="M42.3225 91.9947C57.3172 93.8529 65.0389 93.9445 71.1553 89.5741C75.2546 86.6454 79.2198 79.364 74.8293 61.3082L74.7816 61.111C71.9995 49.6305 64.2184 43.8071 50.2947 42.7842C37.0715 41.813 30.4696 46.088 26.7485 58.0325C25.9599 60.5645 25.4938 63.1005 25.1191 65.1382C24.7686 67.0454 24.4917 68.5517 24.0766 69.4249L24.0519 69.4771L24.0174 69.5232C22.8557 71.0763 20.9681 74.231 21.3787 77.9056C21.6842 80.6399 24.0973 89.7359 42.3225 91.9947ZM57.2786 94.3604C53.1641 94.3604 48.2546 93.8952 42.1809 93.1426C34.9928 92.2516 29.394 90.2067 25.5401 87.0644C22.4902 84.5774 20.6053 81.3705 20.2326 78.0344C19.782 74.0022 21.7915 70.5855 23.0582 68.8781C23.3972 68.1259 23.6701 66.6413 23.985 64.9285C24.3651 62.8603 24.8383 60.286 25.6478 57.6876C29.5143 45.2761 36.6795 40.6247 50.3789 41.6306C64.8744 42.6955 72.9845 48.7985 75.9021 60.8377L75.9499 61.0343C80.4932 79.7191 76.2142 87.3798 71.8244 90.5162C67.9469 93.2866 63.5302 94.3604 57.2786 94.3604Z" fill="#371B45"/>
<path d="M62.7375 65.4533C63.2824 65.8826 64.0296 65.2762 63.713 64.6578C63.0191 63.302 61.9106 61.9057 60.2226 61.5974C57.1688 61.0399 57.8754 62.9911 59.4888 63.5713C60.4303 63.9098 61.6492 64.5953 62.7375 65.4533Z" fill="#371B45"/>
<path d="M30.8601 61.9661C30.236 62.268 29.6363 61.5144 30.0778 60.9789C31.0462 59.8045 32.4282 58.6797 34.1428 58.7425C37.2447 58.8564 36.1362 60.6099 34.4365 60.8285C33.4444 60.9559 32.107 61.3629 30.8601 61.9661Z" fill="#371B45"/>
<path d="M52.4032 41.8603C52.3944 42.9102 52.2048 43.8934 51.9426 44.7383L49.5625 43.8491C49.4998 42.1243 47.9066 40.2834 46.3381 38.9653C46.1258 38.7864 45.9139 38.6182 45.7076 38.4603C45.6595 38.4238 45.6114 38.3855 45.565 38.3471C43.221 36.3917 46.0922 32.8207 48.5456 34.6349C51.5431 36.8512 52.4234 39.5209 52.4032 41.8603Z" fill="url(#paint12_linear_11117_33663)"/>
<path d="M52.4032 41.8603C52.3944 42.9102 52.2048 43.8934 51.9426 44.7383L49.5625 43.8491C49.4998 42.1243 47.9066 40.2834 46.3381 38.9653C46.1258 38.7864 45.9139 38.6182 45.7076 38.4603C45.6595 38.4238 45.6114 38.3855 45.565 38.3471C43.221 36.3917 46.0922 32.8207 48.5456 34.6349C51.5431 36.8512 52.4234 39.5209 52.4032 41.8603Z" fill="url(#paint13_linear_11117_33663)" fill-opacity="0.2"/>
<path d="M51.6401 40.1465C50.4308 37.8334 48.7055 35.9982 47.4414 35.9982C47.2032 35.9982 46.9818 36.0631 46.7826 36.2026C46.1789 36.6259 46.041 37.2901 46.1075 37.959C45.8549 37.7532 45.6107 37.5179 45.4858 37.2362C44.9632 36.1714 45.9677 34.7868 47.1074 34.7868C47.1297 34.7868 47.1523 34.7875 47.1746 34.7886C47.5854 34.8017 47.9523 34.9767 48.2778 35.2428L48.8754 35.7172L49.4287 36.2356C50.5196 37.315 51.3068 38.6672 51.6401 40.1465Z" fill="#ECEFF4"/>
<path d="M51.6647 44.6529C51.7344 43.5824 51.8497 42.5803 51.8133 41.5723C51.7691 39.5423 50.8601 37.6539 49.4272 36.2364L48.8738 35.718L48.2762 35.2436C47.9507 34.9775 47.5838 34.8025 47.173 34.7894C46.0061 34.7333 44.9514 36.1516 45.4842 37.237C45.6562 37.6241 46.0525 37.9236 46.3875 38.1798C48.0628 39.5799 50.0071 41.4914 50.1359 43.8297C50.1408 44.5784 49.0479 44.6323 48.9838 43.8825C48.9198 42.9515 48.3788 42.0669 47.7936 41.3246C47.1613 40.5365 46.3985 39.829 45.5907 39.1871C45.0841 38.8149 44.5958 38.3891 44.3191 37.7987C43.3479 35.8436 45.0873 33.3928 47.2186 33.4922C47.8881 33.5092 48.5472 33.8062 49.0486 34.2203L49.7077 34.7546C51.6785 36.4691 52.9667 38.894 52.9731 41.5425C53.0078 42.6882 52.7629 43.8368 52.2152 44.8246C52.0649 45.1007 51.6304 44.9641 51.6647 44.6529Z" fill="#371B45"/>
<path d="M49.4966 43.8036L47.6458 44.4043C46.6777 43.2596 44.4498 42.9665 42.779 43.002C42.7323 43.0017 42.6856 43.0017 42.6403 43.0013C42.5696 43.0006 42.4999 42.9942 42.4319 42.9861C40.3112 42.7309 40.4106 39.4278 42.6725 39.3512C46.0441 39.2384 47.9366 40.9156 48.9439 42.6479C49.1704 43.0361 49.3519 43.4278 49.4966 43.8036Z" fill="url(#paint14_linear_11117_33663)"/>
<path d="M49.4966 43.8036L47.6458 44.4043C46.6777 43.2596 44.4498 42.9665 42.779 43.002C42.7323 43.0017 42.6856 43.0017 42.6403 43.0013C42.5696 43.0006 42.4999 42.9942 42.4319 42.9861C40.3112 42.7309 40.4106 39.4278 42.6725 39.3512C46.0441 39.2384 47.9366 40.9156 48.9439 42.6479C49.1704 43.0361 49.3519 43.4278 49.4966 43.8036Z" fill="url(#paint15_linear_11117_33663)" fill-opacity="0.2"/>
<path d="M42.4319 42.9854C42.3795 42.979 42.3286 42.9708 42.2791 42.9609C41.6843 42.8424 41.2838 42.4709 41.0757 42.0085C40.9629 41.758 40.9063 41.4809 40.9063 41.2027C40.9059 40.3011 41.4975 39.3902 42.6725 39.3505C42.7808 39.347 42.8876 39.3452 42.9927 39.3452C46.1647 39.3452 47.9688 40.9703 48.9439 42.6472C47.3393 41.4383 45.0162 40.5754 43.58 40.5754C43.1296 40.5754 42.7666 40.6602 42.5405 40.8461C41.7367 41.5064 42.0204 42.3584 42.4319 42.9854Z" fill="#ECEFF4"/>
<path d="M48.9574 44.0109C48.0899 41.8443 46.2843 40.2987 43.941 40.05L43.3753 39.9992L42.8021 39.9953C42.2285 39.9645 41.7197 40.2792 41.5775 40.8611C41.3645 41.6619 41.8857 42.4447 42.7394 42.4011L43.0543 42.4028C43.9127 42.4209 44.7781 42.4905 45.6266 42.7364C46.4803 42.9886 47.3702 43.4215 47.8645 44.2153C47.9483 44.3533 47.9048 44.5332 47.7672 44.6173C47.6561 44.6851 47.5195 44.6691 47.425 44.59C46.8416 44.1511 46.1198 43.9428 45.3708 43.7966C44.6186 43.6628 43.8363 43.5833 43.0522 43.5943C42.8406 43.5965 42.5834 43.6085 42.3676 43.5848C39.3357 43.1941 39.7373 38.6484 42.7752 38.7073C46.1577 38.598 48.876 40.3973 50.0337 43.595C50.2757 44.3075 49.2543 44.7025 48.9574 44.0109Z" fill="#371B45"/>
<path d="M63.9122 73.994C63.2534 76.8773 59.602 78.1057 56.9476 77.4195C54.0258 76.7442 52.1874 73.5806 52.9959 70.7455C53.062 70.5089 53.3072 70.3708 53.5436 70.4372C53.7116 70.4844 53.8291 70.6221 53.8602 70.7835C54.3344 73.004 55.1899 74.9726 57.4451 75.6287C59.3596 76.2014 62.0497 75.584 63.0888 73.7289C63.3096 73.2691 64.0013 73.4951 63.9122 73.994Z" fill="#371B45"/>
<path d="M28.0586 69.7901C28.594 71.7275 30.7866 73.128 32.7007 73.1216C34.9372 73.1227 36.0517 71.3613 36.9624 69.4421C37.1545 69.0347 37.7797 69.1564 37.8102 69.6014C38.0207 72.4815 35.6165 75.158 32.6735 74.9766C29.9866 74.8613 27.1433 72.6642 27.196 69.8558C27.2282 69.3487 27.9536 69.2994 28.0586 69.7901Z" fill="#371B45"/>
<path d="M81.5981 83.3833C81.0359 84.3701 80.3223 84.9963 79.4444 85.1209C77.4599 85.4019 76.023 84.2537 75.1838 83.3428C62.8883 82.3295 67.6896 76.8765 69.286 66.0461C69.8854 61.9837 69.6805 58.5053 69.1367 55.6618C69.135 55.6483 69.1318 55.6383 69.13 55.628C69.125 55.6064 69.1215 55.5911 69.1197 55.5812C69.1183 55.5741 69.1166 55.5691 69.1166 55.5677V55.5659C68.2384 51.0742 66.5128 48.1852 65.7857 47.0923C65.1612 46.1531 60.5195 44.1192 60.5195 44.1192C60.5195 44.1192 65.0622 42.3128 68.1209 43.845C71.4988 45.5385 82.3454 53.4278 83.225 71.5562C83.455 76.3056 82.9865 80.9474 81.5981 83.3833Z" fill="url(#paint16_linear_11117_33663)"/>
<path d="M81.5981 83.3833C81.0359 84.3701 80.3223 84.9963 79.4444 85.1209C77.4599 85.4019 76.023 84.2537 75.1838 83.3428C62.8883 82.3295 67.6896 76.8765 69.286 66.0461C69.8854 61.9837 69.6805 58.5053 69.1367 55.6618C69.135 55.6483 69.1318 55.6383 69.13 55.628C69.125 55.6064 69.1215 55.5911 69.1197 55.5812C69.1183 55.5741 69.1166 55.5691 69.1166 55.5677V55.5659C68.2384 51.0742 66.5128 48.1852 65.7857 47.0923C65.1612 46.1531 60.5195 44.1192 60.5195 44.1192C60.5195 44.1192 65.0622 42.3128 68.1209 43.845C71.4988 45.5385 82.3454 53.4278 83.225 71.5562C83.455 76.3056 82.9865 80.9474 81.5981 83.3833Z" fill="url(#paint17_linear_11117_33663)" fill-opacity="0.2"/>
<path d="M83.1055 77.5762C83.2926 75.7087 83.3266 73.6433 83.2254 71.5562C83.3266 73.6429 83.293 75.7087 83.1055 77.5762Z" fill="#ECEFF4"/>
<path d="M82.0262 82.4922C82.7615 79.9264 82.9914 76.3672 82.817 72.7458C81.9374 54.6174 71.0908 46.7281 67.713 45.0346C66.8026 44.5783 65.7606 44.4182 64.7459 44.4182C63.7233 44.4182 62.7288 44.5807 61.9249 44.7667C61.6245 44.6237 61.3524 44.4973 61.1292 44.3952C60.7633 44.2273 60.5291 44.1244 60.5199 44.1205C60.5195 44.1202 60.5195 44.1202 60.5195 44.1202C60.5195 44.1202 62.7599 43.2296 65.1531 43.2296C66.1678 43.2296 67.2102 43.3896 68.1209 43.8459C71.4988 45.5395 82.3454 53.4287 83.225 71.5571C83.3262 73.6442 83.2922 75.7097 83.105 77.5771C82.9129 79.4868 82.5601 81.1889 82.0262 82.4922Z" fill="#ECEFF4"/>
<path d="M69.1315 55.6279C69.1265 55.6059 69.1229 55.5904 69.1211 55.5799C69.1247 55.5955 69.1279 55.6128 69.1315 55.6279Z" fill="#A7ACB7"/>
<path d="M78.8412 85.1641C77.8774 85.1641 77.0608 84.8305 76.3978 84.3916C76.0408 84.1556 75.7287 83.8888 75.4619 83.6277C75.3636 83.5311 75.2719 83.4361 75.1863 83.3427C68.7865 82.8155 67.0185 81.085 67.0195 78.0196C67.0209 75.1959 68.5232 71.2389 69.2885 66.046C69.5437 64.3162 69.6533 62.6925 69.6526 61.1785C69.6519 59.1365 69.4517 57.2945 69.1392 55.6616C69.3289 56.5508 70.7424 63.4785 70.1883 70.398C69.883 74.2198 66.7269 79.0784 70.1296 80.7433C73.5326 82.4067 78.8005 82.7083 78.8005 82.7083C78.8005 82.7083 76.4905 83.2941 78.5755 83.9541C78.8094 84.0283 79.0956 84.0733 79.4141 84.0733C80.0633 84.0733 80.8474 83.887 81.6006 83.3832C81.0384 84.37 80.3248 84.9962 79.447 85.1208C79.2389 85.1502 79.0372 85.1641 78.8412 85.1641Z" fill="url(#paint18_linear_11117_33663)"/>
<path d="M78.8412 85.1641C77.8774 85.1641 77.0608 84.8305 76.3978 84.3916C76.0408 84.1556 75.7287 83.8888 75.4619 83.6277C75.3636 83.5311 75.2719 83.4361 75.1863 83.3427C68.7865 82.8155 67.0185 81.085 67.0195 78.0196C67.0209 75.1959 68.5232 71.2389 69.2885 66.046C69.5437 64.3162 69.6533 62.6925 69.6526 61.1785C69.6519 59.1365 69.4517 57.2945 69.1392 55.6616C69.3289 56.5508 70.7424 63.4785 70.1883 70.398C69.883 74.2198 66.7269 79.0784 70.1296 80.7433C73.5326 82.4067 78.8005 82.7083 78.8005 82.7083C78.8005 82.7083 76.4905 83.2941 78.5755 83.9541C78.8094 84.0283 79.0956 84.0733 79.4141 84.0733C80.0633 84.0733 80.8474 83.887 81.6006 83.3832C81.0384 84.37 80.3248 84.9962 79.447 85.1208C79.2389 85.1502 79.0372 85.1641 78.8412 85.1641Z" fill="url(#paint19_linear_11117_33663)" fill-opacity="0.2"/>
<path d="M62.138 44.2226C63.6813 44.9532 65.7819 46.0436 66.2666 46.7728C67.8528 49.1579 71.3775 55.8194 69.8572 66.1317C69.5044 68.5226 68.9995 70.6458 68.5541 72.519C67.6907 76.1481 67.067 78.7707 68.2331 80.3837C69.1807 81.6948 71.4044 82.4523 75.2306 82.7678L75.4542 82.7862L75.6067 82.9516C76.7605 84.2016 78.0243 84.7388 79.3642 84.5483C81.6523 84.2229 83.0028 78.8927 82.6487 71.5858C82.2768 63.9208 80.0885 57.2905 76.1445 51.8794C72.4648 46.8309 68.6004 44.7328 67.8631 44.3635C66.0692 43.4643 63.6473 43.838 62.138 44.2226ZM78.8469 85.7419C77.4426 85.7423 76.0985 85.115 74.9164 83.9018C70.8086 83.5395 68.4546 82.661 67.2994 81.0628C65.8222 79.019 66.4973 76.1801 67.4321 72.2507C67.8723 70.4003 68.3708 68.3036 68.7161 65.9625C70.1781 56.0479 66.8189 49.6884 65.3071 47.4143C64.9795 46.9214 62.4472 45.5958 60.2889 44.6502L59.0198 44.0942L60.3073 43.5825C60.5026 43.5048 65.1281 41.7001 68.3786 43.3288C69.1577 43.7191 73.2386 45.9329 77.0754 51.1971C81.1552 56.7941 83.4179 63.6348 83.8007 71.5294C84.1163 78.0379 83.1589 85.1771 79.5259 85.6937C79.2984 85.726 79.0719 85.7419 78.8469 85.7419Z" fill="#371B45"/>
<path d="M78.8101 94.6471C78.612 95.9064 78.9966 100.144 73.9084 102.334C71.5714 103.341 68.0796 103.917 62.8435 103.573C46.212 102.484 24.9873 101.873 20.4663 99.0984C17.9885 97.5798 16.0344 95.8759 14.8056 93.2498C13.9142 92.9837 13.3769 92.0562 13.5078 91.1723C13.6086 90.4836 14.1156 89.8218 15.1749 89.517C15.744 88.6821 16.2274 87.475 16.7882 86.2728C17.8274 84.0541 19.1368 81.8535 21.7707 82.0422C21.7707 82.0422 38.6308 89.1821 46.5495 91.5374C47.3099 91.7631 47.9899 91.9447 48.5621 92.0728C48.8207 92.0728 49.0776 92.0693 49.3327 92.0611C61.3511 91.6889 71.2289 82.8133 76.5273 88.3624C77.5463 89.4297 78.3335 91.0878 78.6711 92.5795C78.8455 93.3474 78.9011 94.0695 78.8101 94.6471Z" fill="#98C6EC"/>
<path d="M73.9084 102.334C71.5714 103.341 68.0796 103.917 62.8435 103.573C46.212 102.484 24.9873 101.873 20.4663 99.0984C17.9885 97.5798 16.0344 95.8759 14.8056 93.2498C13.9142 92.9837 13.3769 92.0562 13.5078 91.1723C13.6086 90.4836 14.1156 89.8218 15.1749 89.517C15.744 88.6821 16.2274 87.475 16.7882 86.2728C17.7737 87.4296 19.078 88.5491 20.5369 88.746C24.7085 89.3034 27.4265 87.2947 27.7439 87.0492C27.43 87.31 24.9906 89.4819 27.8245 91.6165C29.4999 92.8794 43.5393 94.2263 43.5393 94.2263C43.5393 94.2263 44.9814 92.9046 46.5495 91.5374C47.3099 91.7631 47.9899 91.9447 48.562 92.0728C48.8207 92.0728 49.0776 92.0693 49.3327 92.0611C49.0255 96.1235 53.5063 97.4871 56.5615 96.2378C60.0451 94.8135 58.4636 92.6672 58.4636 92.6672C58.4636 92.6672 69.2412 90.1248 69.4191 90.3271C69.52 90.4413 71.8973 96.8658 73.9084 102.334Z" fill="#6DA7E7"/>
<path d="M49.4164 93.4055C47.1722 93.5116 45.5655 93.4222 44.543 93.3147C45.119 92.7942 45.8843 92.1125 46.6719 91.4256C47.4977 91.1765 48.4579 90.9693 49.5424 90.8682C49.2788 91.8365 49.2554 92.6817 49.4164 93.4055Z" fill="#227BDD"/>
<path d="M57.3848 91.6797C57.2075 91.5988 57.0285 91.5207 56.8477 91.4462C58.1936 91.0843 59.4988 90.6688 60.7623 90.2405C60.694 90.3913 60.6307 90.5492 60.5726 90.7139C59.5498 91.0545 58.4879 91.3852 57.3848 91.6797Z" fill="#C5E4FD"/>
<path d="M28.6941 85.8369C24.8872 84.3566 21.9751 83.2488 21.0865 83.2488C21.0751 83.2488 21.0644 83.2488 21.0536 83.2492C20.4335 83.2701 19.6591 83.4692 18.957 83.797C19.6139 83.0757 20.4142 82.6098 21.4641 82.6098C21.5204 82.6098 21.5779 82.6112 21.6357 82.6137C22.2528 82.8745 25.2182 84.1238 29.0299 85.6652C28.9159 85.7198 28.8041 85.7769 28.6941 85.8369Z" fill="#C5E4FD"/>
<path d="M78.8101 94.6471C78.5214 96.4854 79.4735 104.664 62.8435 103.573C46.212 102.484 24.9873 101.873 20.4663 99.0984C17.9885 97.5797 16.0344 95.8758 14.8056 93.2498C13.9142 92.9836 13.3769 92.0561 13.5078 91.1723C26.0618 93.5812 49.5694 104.521 70.3072 95.6974C73.7201 94.2447 76.4749 93.231 78.6711 92.5795C78.8455 93.3473 78.9011 94.0694 78.8101 94.6471Z" fill="#6DA7E7"/>
<path d="M21.4648 82.6088C19.0679 82.6088 17.9727 85.0368 16.9122 87.3883C16.4987 88.3048 16.1082 89.1706 15.6498 89.8433L15.5323 90.0158L15.3321 90.0729C14.5295 90.3032 14.0671 90.7978 14.0635 91.4301C14.0603 92.0053 14.4412 92.5375 14.9694 92.6954L15.217 92.7692L15.3267 93.0038C16.3678 95.2292 17.9945 96.9044 20.7658 98.6044C24.2957 100.769 38.8546 101.599 52.934 102.402C56.252 102.591 59.6827 102.786 62.8794 102.996C69.2222 103.412 73.6474 102.513 76.0332 100.324C77.9173 98.5951 78.0786 96.475 78.1748 95.2087C78.1943 94.956 78.2109 94.7382 78.2392 94.5572C78.466 93.1116 77.6038 90.3262 76.1103 88.7622C73.2939 85.8118 68.9042 87.3677 63.3468 89.3377C58.9658 90.8904 54.0004 92.6504 48.5615 92.6504H48.4982L48.4366 92.6369C42.0831 91.2257 23.3026 83.317 21.6363 82.6127C21.5785 82.6102 21.5211 82.6088 21.4648 82.6088ZM65.7142 104.25C64.7896 104.25 63.8195 104.217 62.8044 104.15C59.6122 103.941 56.1841 103.745 52.8685 103.556C37.9923 102.709 23.941 101.907 20.1641 99.5908C17.2743 97.8184 15.5324 96.0492 14.3863 93.7116C13.4998 93.3306 12.9045 92.4258 12.9102 91.4237C12.9165 90.3213 13.6198 89.4385 14.8043 89.0276C15.1653 88.4545 15.5043 87.703 15.8613 86.9114C17.0045 84.3772 18.425 81.2246 21.8103 81.4644L21.9057 81.4712L21.9937 81.5088C22.1951 81.594 42.1518 90.0307 48.6245 91.4936C53.8419 91.4798 58.6863 89.7628 62.9625 88.247C68.6767 86.2216 73.6117 84.4723 76.9436 87.962C78.5435 89.6386 79.6814 92.804 79.3785 94.7367C79.3573 94.8723 79.3424 95.0689 79.3251 95.2963C79.2228 96.6397 79.0325 99.1398 76.8116 101.177C74.585 103.22 70.8593 104.25 65.7142 104.25Z" fill="#371B45"/>
<path d="M66.0179 96.2386V97.9326C66.0179 97.9326 54.5621 103.076 32.9159 98.4024C24.7201 96.6328 24.4583 95.6141 21.5272 94.8094C17.807 93.7893 16.3851 93.5686 14.802 93.2506C13.2155 92.7773 12.7522 90.2115 15.1714 89.5178C16.8721 89.0569 21.6555 91.4045 28.5477 93.7516C37.9419 96.9511 51.2539 100.15 66.0179 96.2386Z" fill="#83D3FF"/>
<path d="M51.7009 98.9941C47.5761 98.9941 43.6622 98.5517 40.0271 97.8676C40.2638 97.7746 40.4938 97.6781 40.7185 97.5773C44.5355 98.2675 48.2944 98.612 51.9766 98.612C54.9645 98.612 57.9016 98.3853 60.7781 97.9314C60.8099 98.034 60.8428 98.1358 60.8764 98.2366C57.7275 98.7663 54.6595 98.9941 51.7009 98.9941ZM23.347 92.9298C19.5855 91.514 16.8389 90.4102 15.3817 90.4102C15.1911 90.4102 15.0226 90.429 14.8768 90.4684C14.6739 90.5266 14.4914 90.5979 14.3281 90.6798C14.5428 90.4109 14.8816 90.2019 15.3227 90.0756C15.4267 90.0475 15.5501 90.0341 15.6921 90.0341C16.8666 90.0341 19.299 90.9538 22.2923 92.0867C22.6668 92.2283 23.0522 92.3741 23.4489 92.5235C23.4024 92.6498 23.3679 92.7854 23.347 92.9298Z" fill="#DAF2FF"/>
<path d="M66.0182 97.2609V97.9326C66.0182 97.9326 54.5623 103.076 32.9162 98.4024C24.7204 96.6328 24.4585 95.6141 21.5274 94.8094C17.8072 93.7893 16.3854 93.5686 14.8023 93.2506C13.7681 92.9423 13.2108 91.7437 13.6187 90.7555C13.8252 91.2774 14.265 91.7135 14.8543 91.8817C16.5012 92.2 17.9802 92.4203 21.848 93.4408C24.8967 94.2456 25.2014 95.1124 33.69 97.0334C51.8602 101.145 61.6935 98.4847 66.0182 97.2609Z" fill="#37AEE2"/>
<path d="M14.9462 92.6883C15.1861 92.7366 15.4226 92.7827 15.6644 92.8295C17.0076 93.0907 18.5301 93.3866 21.6816 94.251C22.7114 94.5338 23.4125 94.8368 24.2244 95.1877C25.7592 95.8512 27.6691 96.6766 33.0397 97.8361C52.1907 101.971 63.3942 98.3137 65.4436 97.5399V96.9838C57.6419 98.9336 49.3276 99.1337 40.7189 97.5771C33.2173 96.221 26.9038 93.8316 22.2937 92.0869C18.9386 90.817 16.2885 89.8149 15.3242 90.0757C14.5292 90.3035 14.0669 90.7989 14.0635 91.4319C14.0605 91.9985 14.4303 92.523 14.9462 92.6883ZM50.221 100.936C45.5435 100.936 39.6935 100.456 32.797 98.967C27.316 97.7836 25.3487 96.9331 23.7679 96.2497C22.9959 95.9162 22.329 95.628 21.3773 95.3665C18.2678 94.5139 16.768 94.2222 15.4449 93.965C15.1912 93.9157 14.9431 93.8674 14.6911 93.817L14.6401 93.8042C13.6157 93.4987 12.9044 92.5208 12.9102 91.4258C12.9162 90.2588 13.7033 89.3377 15.0152 88.9612C16.3471 88.6 18.739 89.5052 22.701 91.0047C32.0674 94.5494 47.7436 100.482 65.8731 95.6791L66.597 95.4872V98.3066L66.2559 98.4596C66.1356 98.5135 63.2492 99.7887 57.6585 100.493C55.6715 100.743 53.181 100.936 50.221 100.936Z" fill="#371B45"/>
<path d="M37.3867 89.3398C37.3867 89.3398 33.3935 82.3877 27.0078 87.4486L37.3867 89.3398Z" fill="#6DA7E7"/>
<path d="M27.6057 87.502C27.56 87.502 27.5144 87.5012 27.4688 87.4991C28.693 86.755 30.0619 86.1799 31.4602 86.1799C31.8186 86.1799 32.1795 86.2178 32.54 86.3005C33.075 86.4261 33.5845 86.6369 34.0628 86.9108C34.0313 86.9914 33.9995 87.0712 33.9666 87.151C33.2653 86.8175 32.466 86.5975 31.5773 86.5975C30.7833 86.5975 29.9182 86.7731 28.988 87.2004C28.5525 87.4005 28.0805 87.502 27.6057 87.502Z" fill="#C5E4FD"/>
<path d="M36.8847 89.6276C35.8512 88.1139 34.3421 86.7233 32.5377 86.2996C30.6632 85.8703 28.7862 86.6499 27.1845 87.6742C27.0496 87.7612 26.8696 87.7214 26.7836 87.5855C26.7082 87.467 26.7298 87.3144 26.8267 87.2208C27.579 86.493 28.4667 85.8696 29.4853 85.4633C32.837 84.0912 36.1997 86.124 37.8842 89.0503C38.2316 89.7159 37.2848 90.2627 36.8847 89.6276Z" fill="#371B45"/>
<path d="M43.168 93.1034C43.168 93.1034 48.7788 88.6269 57.724 92.1631C57.724 92.1631 56.5387 92.8639 51.0878 93.3014C45.6365 93.7389 43.168 93.1034 43.168 93.1034Z" fill="#6DA7E7"/>
<path d="M49.4164 93.4055C47.1722 93.5116 45.5655 93.4222 44.543 93.3147C45.119 92.7942 45.8843 92.1125 46.6719 91.4256C47.4977 91.1765 48.4579 90.9693 49.5424 90.8682C49.2788 91.8365 49.2554 92.6817 49.4164 93.4055Z" fill="#6DA7E7"/>
<path d="M42.8114 92.6499C47.113 89.4945 53.1771 89.5849 57.8319 91.8931C57.9756 91.9637 58.035 92.1372 57.9649 92.2813C57.9016 92.4111 57.7541 92.4725 57.6207 92.4314C56.4205 92.0691 55.2101 91.7827 53.9926 91.6004C50.9849 91.1362 47.8419 91.4205 45.068 92.6985C44.5313 92.9437 43.9828 93.2389 43.5041 93.5732C42.8945 93.9873 42.2449 93.1265 42.8114 92.6499Z" fill="#371B45"/>
<path d="M49.9434 86.2095C47.5831 92.4623 43.7604 100.856 27.2599 98.9943C25.8768 100.255 22.4905 99.5468 24.0283 95.6728C24.0467 95.6224 24.0686 95.5702 24.0904 95.5177C23.5817 94.6846 23.3518 93.9675 23.3266 93.3731C23.2242 90.9536 26.4893 90.5296 28.0489 92.3495C36.176 90.3461 33.9749 81.4584 37.8361 76.317C39.4527 74.1618 45.1538 75.5137 47.5477 80.5511L47.5813 80.6317L49.131 84.2903L49.9434 86.2095Z" fill="url(#paint20_linear_11117_33663)"/>
<path d="M49.9434 86.2095C47.5831 92.4623 43.7604 100.856 27.2599 98.9943C25.8768 100.255 22.4905 99.5468 24.0283 95.6728C24.0467 95.6224 24.0686 95.5702 24.0904 95.5177C23.5817 94.6846 23.3518 93.9675 23.3266 93.3731C23.2242 90.9536 26.4893 90.5296 28.0489 92.3495C36.176 90.3461 33.9749 81.4584 37.8361 76.317C39.4527 74.1618 45.1538 75.5137 47.5477 80.5511L47.5813 80.6317L49.131 84.2903L49.9434 86.2095Z" fill="url(#paint21_linear_11117_33663)" fill-opacity="0.2"/>
<path d="M28.4349 93.4551C27.371 92.6642 26.4422 92.3963 25.6724 92.3963C24.4809 92.3963 23.6703 93.0378 23.3266 93.3745C23.3251 93.3387 23.3243 93.3029 23.3242 93.2681C23.3222 91.9226 24.3904 91.2268 25.5884 91.2268C26.4606 91.2268 27.4014 91.5954 28.0489 92.3509C36.1761 90.3475 33.975 81.4598 37.8362 76.3184C38.329 75.6612 39.2015 75.3302 40.2442 75.3302C42.6219 75.3302 45.8837 77.0507 47.5477 80.5525L47.5813 80.6331C45.353 77.9197 42.4623 76.6384 40.5227 76.6384C40.1218 76.6384 39.7616 76.6931 39.4563 76.8013C37.529 77.485 37.1243 82.0307 35.0997 87.4482C32.9107 93.3021 28.4349 93.4551 28.4349 93.4551Z" fill="#ECEFF4"/>
<path d="M25.6979 99.5674C24.6627 99.5674 23.6367 98.9216 23.6367 97.454C23.6367 96.9576 23.7544 96.3665 24.029 95.6746C24.8499 95.9354 25.738 96.3278 26.2918 96.897C26.5508 97.1627 26.7932 97.2717 27.0157 97.2717C28.016 97.2717 28.6238 95.0735 28.6238 95.0735C28.6238 95.0735 29.9269 96.9594 33.9222 96.9594C34.7969 96.9594 35.8003 96.8693 36.9477 96.6489C45.5214 95.0022 46.6585 84.1903 48.7722 84.1903C48.8886 84.1903 49.0079 84.2233 49.1317 84.2921L49.9441 86.2113C49.2563 88.0337 48.4435 90.0385 47.2296 91.9177C46.8967 92.4329 46.5336 92.9382 46.1345 93.4285C46.1342 93.4289 46.1345 93.4285 46.1342 93.4289C45.1382 94.6523 43.9172 95.7782 42.3844 96.7071C41.8665 97.0211 41.3124 97.3125 40.7197 97.5779C40.4951 97.6786 40.2651 97.7752 40.0284 97.8681C39.2227 98.1846 38.3481 98.4554 37.3999 98.6711C36.314 98.9184 35.1309 99.0937 33.837 99.1859C33.1523 99.2346 32.4362 99.2597 31.6886 99.2597C30.3232 99.2597 28.852 99.1757 27.2606 98.9961C26.854 99.3669 26.2745 99.567 25.6979 99.5674Z" fill="url(#paint22_linear_11117_33663)"/>
<path d="M25.6979 99.5674C24.6627 99.5674 23.6367 98.9216 23.6367 97.454C23.6367 96.9576 23.7544 96.3665 24.029 95.6746C24.8499 95.9354 25.738 96.3278 26.2918 96.897C26.5508 97.1627 26.7932 97.2717 27.0157 97.2717C28.016 97.2717 28.6238 95.0735 28.6238 95.0735C28.6238 95.0735 29.9269 96.9594 33.9222 96.9594C34.7969 96.9594 35.8003 96.8693 36.9477 96.6489C45.5214 95.0022 46.6585 84.1903 48.7722 84.1903C48.8886 84.1903 49.0079 84.2233 49.1317 84.2921L49.9441 86.2113C49.2563 88.0337 48.4435 90.0385 47.2296 91.9177C46.8967 92.4329 46.5336 92.9382 46.1345 93.4285C46.1342 93.4289 46.1345 93.4285 46.1342 93.4289C45.1382 94.6523 43.9172 95.7782 42.3844 96.7071C41.8665 97.0211 41.3124 97.3125 40.7197 97.5779C40.4951 97.6786 40.2651 97.7752 40.0284 97.8681C39.2227 98.1846 38.3481 98.4554 37.3999 98.6711C36.314 98.9184 35.1309 99.0937 33.837 99.1859C33.1523 99.2346 32.4362 99.2597 31.6886 99.2597C30.3232 99.2597 28.852 99.1757 27.2606 98.9961C26.854 99.3669 26.2745 99.567 25.6979 99.5674Z" fill="url(#paint23_linear_11117_33663)" fill-opacity="0.2"/>
<path d="M50.2109 86.3124C48.0735 94.3528 42.8285 99.0624 34.4898 99.7582C32.0576 99.9612 29.6057 99.9253 27.1937 99.5698L27.6459 99.4233C26.2108 100.725 23.5872 100.222 23.1466 98.2236C22.9058 97.2272 23.1894 96.1777 23.557 95.2941L23.5965 95.8211C22.9876 94.8268 22.4428 93.4561 22.9406 92.2352C23.4699 90.9206 25.0492 90.4433 26.3308 90.7226C27.1548 90.8865 27.9314 91.3194 28.4901 91.9687L27.9091 91.7824C33.9562 90.3762 33.913 84.4123 35.5537 79.5235C35.8841 78.546 36.2992 77.5656 36.8515 76.6796C37.2389 76.0256 37.7781 75.3433 38.508 75.0644C39.5624 74.6148 40.765 74.6886 41.8226 74.9576C44.5551 75.6971 46.7923 77.8306 47.807 80.4276C47.8651 80.5766 47.7918 80.7448 47.6429 80.8034C47.5074 80.8566 47.3559 80.7998 47.2862 80.6767C46.644 79.5515 45.8214 78.5524 44.841 77.7572C43.8751 76.9755 42.7457 76.3645 41.5427 76.0789C40.511 75.8241 39.1194 75.7897 38.3934 76.5902C35.1641 80.8782 36.2426 87.3549 31.9734 91.055C30.8918 91.9868 29.5551 92.5833 28.1872 92.9179C27.9672 92.9732 27.7443 92.8934 27.6063 92.7312C27.2291 92.2863 26.6888 91.9708 26.105 91.8569C24.9787 91.6075 23.7402 92.1937 23.9092 93.4622C23.9634 94.0391 24.236 94.6505 24.58 95.2171C24.6798 95.3811 24.6872 95.5787 24.6195 95.7441C24.41 96.2447 24.254 96.7614 24.2182 97.2535C24.1182 98.2289 24.6699 98.9765 25.6536 98.9875C26.1015 98.9982 26.5699 98.8428 26.87 98.5674C26.992 98.4372 27.1587 98.4035 27.3225 98.4205C29.6672 98.5919 32.0322 98.7551 34.3737 98.5096C42.8798 97.6392 46.3412 93.5739 49.6716 86.1077C49.816 85.7997 50.305 85.9672 50.2109 86.3124Z" fill="#371B45"/>
<path d="M52.5057 86.8243C52.5057 86.8243 50.7599 87.4615 49.292 86.445C47.9669 85.5274 48.32 83.4953 48.32 83.4953" fill="#C2C6D2"/>
<path d="M52.6021 87.0957C50.9236 88.0317 48.2852 87.3512 47.9048 85.279C47.7838 84.6513 47.8195 84.0456 48.0336 83.4452C48.0909 83.2937 48.26 83.2174 48.4111 83.2749C48.5282 83.3189 48.5958 83.4275 48.6018 83.5446C48.6606 84.0484 48.7504 84.5665 48.9128 84.9955C49.4262 86.4357 51.1118 86.6667 52.4425 86.5496C52.7496 86.5266 52.871 86.9513 52.6021 87.0957Z" fill="#371B45"/>
<path d="M37.3247 76.0502C38.9979 72.9877 42.5043 72.2848 45.5471 73.6651C47.1891 74.4255 48.5032 75.7877 49.4737 77.2645C49.5622 77.3975 49.5264 77.5771 49.3938 77.6658C49.2678 77.7499 49.0987 77.7204 49.0063 77.603C48.3114 76.7134 47.509 75.9179 46.606 75.2977C43.9694 73.4717 40.2752 73.5853 38.4378 76.4438C38.395 76.5087 38.3586 76.5658 38.3282 76.6169C37.9337 77.2386 37.0006 76.7116 37.3247 76.0502Z" fill="#371B45"/>
<path d="M28.5684 97.0967C28.4509 97.9228 28.1452 98.6732 27.6955 99.3751C27.2625 100.011 26.3171 99.3981 26.718 98.7406C26.9741 98.4504 27.2713 98.2002 27.4949 97.8667C27.6977 97.5885 27.888 97.2585 28.0161 96.947C28.146 96.6387 28.6116 96.7682 28.5684 97.0967Z" fill="#371B45"/>
<path d="M79.3607 98.6086C77.5647 102.174 73.188 101.833 67.5995 103.917C65.9005 104.552 64.3929 100.173 63.3573 95.9588C62.454 92.2853 61.9102 88.7345 61.9102 88.7345C65.7636 86.7699 68.8962 87.0335 71.4377 87.2971C73.5153 87.5125 75.1981 87.7279 76.5574 86.7262C76.5574 86.7262 78.9092 87.5207 80.1313 90.1925C80.2874 90.5342 80.4253 90.9064 80.5375 91.312C81.5282 94.8897 79.3607 98.6086 79.3607 98.6086Z" fill="url(#paint24_linear_11117_33663)"/>
<path d="M79.3607 98.6086C77.5647 102.174 73.188 101.833 67.5995 103.917C65.9005 104.552 64.3929 100.173 63.3573 95.9588C62.454 92.2853 61.9102 88.7345 61.9102 88.7345C65.7636 86.7699 68.8962 87.0335 71.4377 87.2971C73.5153 87.5125 75.1981 87.7279 76.5574 86.7262C76.5574 86.7262 78.9092 87.5207 80.1313 90.1925C80.2874 90.5342 80.4253 90.9064 80.5375 91.312C81.5282 94.8897 79.3607 98.6086 79.3607 98.6086Z" fill="url(#paint25_linear_11117_33663)" fill-opacity="0.2"/>
<path d="M68.6641 102.885C69.5238 101.578 69.8656 99.4493 69.5564 97.0681C69.5327 96.8843 69.5051 96.6994 69.4732 96.5131C70.6391 97.2551 72.4428 98.0318 74.8969 98.0442C74.9079 98.0442 74.9192 98.0442 74.9301 98.0442C80.6719 98.0442 80.1295 90.1919 80.1295 90.1919H80.1312C80.2873 90.5336 80.4253 90.9058 80.5374 91.3114C80.7214 91.9753 80.7964 92.6441 80.7968 93.2927C80.7982 95.6257 79.834 97.7029 79.4848 98.3781C79.442 98.355 79.3949 98.3437 79.3486 98.3437C79.2527 98.3437 79.1586 98.3912 79.1034 98.4782C78.4488 99.4877 77.5215 100.201 76.4335 100.666C73.9812 101.652 71.2409 102.073 68.6641 102.885Z" fill="url(#paint26_linear_11117_33663)"/>
<path d="M68.6641 102.885C69.5238 101.578 69.8656 99.4493 69.5564 97.0681C69.5327 96.8843 69.5051 96.6994 69.4732 96.5131C70.6391 97.2551 72.4428 98.0318 74.8969 98.0442C74.9079 98.0442 74.9192 98.0442 74.9301 98.0442C80.6719 98.0442 80.1295 90.1919 80.1295 90.1919H80.1312C80.2873 90.5336 80.4253 90.9058 80.5374 91.3114C80.7214 91.9753 80.7964 92.6441 80.7968 93.2927C80.7982 95.6257 79.834 97.7029 79.4848 98.3781C79.442 98.355 79.3949 98.3437 79.3486 98.3437C79.2527 98.3437 79.1586 98.3912 79.1034 98.4782C78.4488 99.4877 77.5215 100.201 76.4335 100.666C73.9812 101.652 71.2409 102.073 68.6641 102.885Z" fill="url(#paint27_linear_11117_33663)" fill-opacity="0.2"/>
<path d="M76.728 86.9586C75.3194 88.274 73.2379 88.0813 71.2873 87.889C70.5475 87.8159 69.8268 87.7428 69.1687 87.752C67.3582 87.6999 65.5569 87.9589 63.8484 88.5603C63.2939 88.7534 62.7048 89.0053 62.1723 89.2508L62.4812 88.6473C62.91 91.1048 63.4185 93.573 64.0214 95.995C64.325 97.2053 64.6582 98.4075 65.057 99.5749C65.4437 100.68 65.8924 101.873 66.5632 102.797C66.7794 103.066 66.9711 103.294 67.2446 103.349C67.2694 103.351 67.2935 103.35 67.3182 103.347C67.3264 103.348 67.3381 103.344 67.3501 103.34C67.361 103.336 67.3724 103.332 67.3816 103.332C70.3119 102.2 73.5698 101.819 76.4343 100.667C77.5223 100.202 78.4496 99.4886 79.1042 98.4792C79.1916 98.3411 79.3773 98.3028 79.5122 98.3951C79.6254 98.4728 79.6664 98.6172 79.619 98.7403C79.1601 100.009 78.0888 101.041 76.8964 101.635C74.598 102.763 72.0127 103.086 69.6188 103.884C69.0282 104.069 68.4437 104.266 67.8684 104.484C67.4191 104.679 66.8367 104.62 66.4369 104.376C64.4668 103.184 63.3771 98.4845 62.7894 96.3034C62.1815 93.8206 61.7099 91.328 61.3377 88.7981C61.3023 88.5515 61.436 88.3198 61.6498 88.2197C62.8004 87.6044 64.0295 87.1141 65.3082 86.8316C67.821 86.2128 70.5001 86.5754 72.9832 86.8742C74.2024 86.9966 75.3559 87.0431 76.3961 86.4878C76.6884 86.3352 76.9778 86.7269 76.728 86.9586Z" fill="#371B45"/>
<path d="M67.5905 94.0498L66.2499 90.9039L63.0273 88.3995C63.0273 88.3995 67.5431 86.3777 68.5741 88.0625C68.9658 88.7022 68.6884 89.3409 68.226 89.8692C69.1544 89.8245 70.0828 89.9874 70.3793 90.7357C71.1718 92.7426 67.7172 94.0012 67.5905 94.0498Z" fill="#EFF0F4"/>
<path d="M63.8851 88.5183L66.5136 90.5611C66.5716 90.6061 66.6172 90.6654 66.6462 90.7335L67.8199 93.4877C68.6849 93.1066 69.6523 92.4881 69.9612 91.7898C70.0921 91.4942 70.0967 91.2019 69.9757 90.8953C69.7584 90.3467 68.9146 90.2697 68.2455 90.3024C68.0718 90.3116 67.9108 90.2144 67.8351 90.0576C67.7597 89.9007 67.7852 89.7137 67.8998 89.5828C68.4779 88.9225 68.3506 88.5283 68.2045 88.2895C67.667 87.4116 65.3856 87.9605 63.8851 88.5183ZM67.5948 94.4805C67.4246 94.4805 67.2612 94.3832 67.1915 94.22L65.8947 91.1777L62.7613 88.7426C62.641 88.6489 62.5788 88.4992 62.5968 88.3476C62.6149 88.1965 62.7111 88.0659 62.8498 88.0035C63.3476 87.7806 67.7466 85.8827 68.9414 87.8356C69.135 88.1518 69.3476 88.7262 69.0147 89.4561C70.1356 89.5807 70.5952 90.109 70.7799 90.5756C70.9879 91.1025 70.9787 91.6294 70.7519 92.1418C70.1699 93.4575 68.3071 94.2427 67.7502 94.4521C67.6996 94.4712 67.6468 94.4805 67.5948 94.4805Z" fill="#371B45"/>
<path d="M69.155 95.0707C70.3449 99.4379 69.4009 103.501 67.0463 104.146C64.6916 104.792 61.8179 101.775 60.628 97.4076C59.4378 93.0407 60.3818 88.9772 62.7364 88.3318C65.0911 87.6864 67.9648 90.7035 69.155 95.0707Z" fill="url(#paint28_linear_11117_33663)"/>
<path d="M69.155 95.0707C70.3449 99.4379 69.4009 103.501 67.0463 104.146C64.6916 104.792 61.8179 101.775 60.628 97.4076C59.4378 93.0407 60.3818 88.9772 62.7364 88.3318C65.0911 87.6864 67.9648 90.7035 69.155 95.0707Z" fill="url(#paint29_linear_11117_33663)" fill-opacity="0.2"/>
<path d="M69.4734 96.5127C69.3927 96.0379 69.2866 95.5554 69.1539 95.0689C69.0506 94.6907 68.9353 94.3227 68.8086 93.9668C68.9353 94.3231 69.051 94.6907 69.1539 95.0689C69.287 95.555 69.3931 96.0379 69.4734 96.5127Z" fill="#ECEFF4"/>
<path d="M69.5558 97.0674C69.5317 96.8836 69.5041 96.6987 69.4727 96.5124C69.5045 96.6987 69.5321 96.8836 69.5558 97.0674Z" fill="#E1E3EE"/>
<path d="M68.4888 93.1523C67.5642 90.9797 66.2219 89.3383 64.8438 88.629C66.2222 89.338 67.5646 90.9794 68.4891 93.152L68.4888 93.1523Z" fill="#FAFAFC"/>
<path d="M68.8106 93.9668C68.7151 93.6982 68.6128 93.4363 68.5046 93.1816C68.5049 93.1816 68.5049 93.1816 68.5049 93.1819C68.5007 93.172 68.4964 93.1617 68.4922 93.1518L68.4925 93.1514C68.6051 93.4158 68.7112 93.6875 68.8106 93.9668Z" fill="#B2B2D4"/>
<path d="M60.207 92.2598C60.2838 91.7006 60.4059 91.1814 60.5708 90.7149V90.7145C60.4062 91.1814 60.2842 91.7006 60.2074 92.2598C60.207 92.2598 60.207 92.2598 60.207 92.2598Z" fill="#C5E4FD"/>
<path d="M60.127 94.374C60.0874 93.6268 60.115 92.9153 60.2052 92.2593C60.2052 92.2593 60.2052 92.2593 60.2056 92.2593C60.1153 92.915 60.0877 93.6253 60.127 94.3722C60.127 94.3726 60.127 94.3733 60.127 94.374Z" fill="#BCD7F5"/>
<path d="M60.5703 90.7158C60.6283 90.5512 60.6917 90.3933 60.76 90.2425C60.6917 90.3933 60.6283 90.5512 60.5703 90.7155V90.7158Z" fill="#EDF7FE"/>
<path d="M60.7617 90.2412C60.7716 90.2199 60.7812 90.199 60.7911 90.1781C60.7812 90.199 60.7713 90.2199 60.7617 90.2412Z" fill="#B2B2D4"/>
<path d="M68.8077 95.248C67.6012 91.8651 65.3866 89.5311 63.3876 89.5311C63.1671 89.5311 62.9495 89.5595 62.7358 89.618C61.202 90.0388 60.2669 91.9102 60.1307 94.3723C60.0914 93.6254 60.119 92.9151 60.2092 92.2593C60.286 91.7001 60.4081 91.181 60.5726 90.7141C60.6306 90.5498 60.694 90.3919 60.7623 90.2411C60.7718 90.2198 60.7817 90.1989 60.7916 90.1779C61.2396 89.2234 61.8991 88.5617 62.7358 88.3318C62.9499 88.2732 63.1682 88.2445 63.389 88.2445C63.868 88.2445 64.3595 88.3786 64.8467 88.6291C66.2248 89.3384 67.5672 90.9798 68.4917 93.1524C68.496 93.1624 68.5002 93.1727 68.5044 93.1826C68.6601 93.888 68.7603 94.5813 68.8077 95.248Z" fill="#ECEFF4"/>
<path d="M68.6641 102.885C69.3239 101.882 69.6785 100.395 69.6678 98.6808C69.6647 98.1617 69.6282 97.6216 69.5564 97.0681C69.8656 99.4493 69.5238 101.578 68.6641 102.885Z" fill="#7B81B5"/>
<path d="M67.3008 104.061C67.8418 103.846 68.2993 103.44 68.664 102.886C68.2996 103.44 67.8418 103.846 67.3008 104.061Z" fill="#371B45"/>
<path d="M60.4775 96.8154C60.4665 96.7682 60.4556 96.7207 60.4453 96.6731C60.446 96.6753 60.4467 96.6774 60.4478 96.6792C60.4577 96.7246 60.468 96.7704 60.4786 96.8154H60.4775Z" fill="#1B62C8"/>
<path d="M61.7566 100.313C61.677 100.162 61.5992 100.006 61.5234 99.8472H61.5238C61.5992 100.006 61.677 100.162 61.7566 100.313Z" fill="#1B62C8"/>
<path d="M60.9553 98.459C60.9295 98.3852 60.904 98.311 60.8789 98.2362H60.8793C60.904 98.311 60.9299 98.3852 60.9557 98.459H60.9553Z" fill="#69A9E3"/>
<path d="M60.8757 98.2354C60.8421 98.1346 60.8092 98.0327 60.7773 97.9302H60.7777C60.8095 98.0327 60.8421 98.1346 60.8761 98.2354H60.8757Z" fill="#AEC2E3"/>
<path d="M61.0579 98.748C61.0225 98.653 60.9874 98.5568 60.9531 98.4599H60.9535C60.9874 98.5568 61.0225 98.653 61.0582 98.748H61.0579Z" fill="#2C8BCC"/>
<path d="M61.5246 99.8477C61.3576 99.4964 61.2015 99.1291 61.0582 98.7477H61.0586C61.2019 99.1291 61.3576 99.496 61.5249 99.8477H61.5246ZM60.7787 97.9316C60.7249 97.7588 60.674 97.5839 60.6255 97.4064C60.5714 97.2088 60.5219 97.0122 60.4766 96.8164H60.4776C60.5226 97.0126 60.5721 97.2095 60.6262 97.4072C60.6743 97.5842 60.7253 97.7591 60.7791 97.9316H60.7787Z" fill="#371B45"/>
<path d="M66.3958 104.232C64.775 104.232 63.0119 102.698 61.7601 100.314C61.6805 100.162 61.6027 100.006 61.5273 99.8475C61.3599 99.4958 61.2043 99.129 61.061 98.7475C61.0252 98.6524 60.9902 98.5563 60.9562 98.4594C60.9304 98.3856 60.9046 98.3114 60.8798 98.2366C60.8458 98.1358 60.8133 98.034 60.7815 97.9314C60.7277 97.759 60.6767 97.584 60.6286 97.407C60.5745 97.2093 60.5249 97.0124 60.48 96.8162C60.4694 96.7711 60.4591 96.7254 60.4492 96.6799C61.7 99.6374 63.7248 101.619 65.5654 101.619C65.7858 101.619 66.0031 101.591 66.2164 101.533C68.0563 101.029 69.0349 98.4388 68.8081 95.2482C68.9358 95.6066 69.0523 95.977 69.1559 96.3574C69.4397 97.3981 69.6024 98.4214 69.653 99.3862C69.6658 99.1559 69.6714 98.921 69.67 98.6812C69.6806 100.395 69.3261 101.882 68.6662 102.885C68.3015 103.439 67.844 103.845 67.303 104.06C67.2198 104.093 67.1346 104.122 67.0475 104.146C66.8342 104.204 66.6162 104.232 66.3958 104.232Z" fill="url(#paint30_linear_11117_33663)"/>
<path d="M66.3958 104.232C64.775 104.232 63.0119 102.698 61.7601 100.314C61.6805 100.162 61.6027 100.006 61.5273 99.8475C61.3599 99.4958 61.2043 99.129 61.061 98.7475C61.0252 98.6524 60.9902 98.5563 60.9562 98.4594C60.9304 98.3856 60.9046 98.3114 60.8798 98.2366C60.8458 98.1358 60.8133 98.034 60.7815 97.9314C60.7277 97.759 60.6767 97.584 60.6286 97.407C60.5745 97.2093 60.5249 97.0124 60.48 96.8162C60.4694 96.7711 60.4591 96.7254 60.4492 96.6799C61.7 99.6374 63.7248 101.619 65.5654 101.619C65.7858 101.619 66.0031 101.591 66.2164 101.533C68.0563 101.029 69.0349 98.4388 68.8081 95.2482C68.9358 95.6066 69.0523 95.977 69.1559 96.3574C69.4397 97.3981 69.6024 98.4214 69.653 99.3862C69.6658 99.1559 69.6714 98.921 69.67 98.6812C69.6806 100.395 69.3261 101.882 68.6662 102.885C68.3015 103.439 67.844 103.845 67.303 104.06C67.2198 104.093 67.1346 104.122 67.0475 104.146C66.8342 104.204 66.6162 104.232 66.3958 104.232Z" fill="url(#paint31_linear_11117_33663)" fill-opacity="0.2"/>
<path d="M69.4741 96.5127C69.4738 96.5123 69.4734 96.5123 69.4731 96.512C69.3927 96.0376 69.2866 95.5554 69.1543 95.0693C69.0513 94.6914 68.9356 94.3234 68.8086 93.9672C68.8089 93.9668 68.8089 93.9668 68.8093 93.9668C68.936 94.3227 69.0513 94.6907 69.1546 95.0689C69.2873 95.5554 69.3935 96.0379 69.4741 96.5127Z" fill="#BDBFDA"/>
<path d="M69.6683 98.6807C69.6637 97.9891 69.6 97.2606 69.4727 96.5123C69.473 96.5127 69.4734 96.5127 69.4737 96.513C69.5052 96.6993 69.5328 96.8842 69.5569 97.068C69.6287 97.6215 69.6651 98.1616 69.6683 98.6807Z" fill="#B4B6D5"/>
<path d="M68.8093 93.9668C68.7137 93.6982 68.6118 93.4363 68.5043 93.1816C68.5043 93.1812 68.5043 93.1812 68.5039 93.1812C68.6122 93.436 68.7144 93.6978 68.81 93.9664C68.8096 93.9664 68.8096 93.9664 68.8093 93.9668Z" fill="#8E8EC0"/>
<path d="M69.652 99.3857C69.6014 98.421 69.4387 97.3976 69.1549 96.3569C69.0513 95.9766 68.9349 95.6061 68.8071 95.2478C68.7597 94.581 68.6596 93.8877 68.5039 93.1823C68.6115 93.4371 68.7134 93.6989 68.8089 93.9675C68.9359 94.3238 69.0516 94.6917 69.1546 95.0696C69.2869 95.5557 69.393 96.038 69.4734 96.5124C69.6007 97.2607 69.6644 97.9891 69.669 98.6807C69.6704 98.9206 69.6648 99.1555 69.652 99.3857Z" fill="#BDBFDA"/>
<path d="M67.6083 100.577C67.2424 101.516 66.4499 102.143 65.0668 101.819C64.7661 101.749 64.3047 101.51 63.8242 101.079C64.6253 101.565 65.4461 101.744 66.2132 101.533C66.7574 101.383 67.2255 101.053 67.6083 100.577Z" fill="#D7DAE2"/>
<path d="M26.2931 96.8965C26.2931 96.8965 25.923 96.4398 25.402 96.0889C24.7051 95.6195 24.0243 95.4158 23.4844 94.2268" fill="#F4DE3D"/>
<path d="M26.0676 97.0779C25.3665 96.3466 24.3297 96.1564 23.612 95.3957C23.3428 95.1132 23.1285 94.7914 22.9578 94.4657C22.8027 94.1818 22.91 93.8241 23.196 93.6737C23.4787 93.5247 23.8283 93.634 23.9768 93.9175C24.0918 94.2049 24.2147 94.4898 24.3894 94.7229C24.7466 95.2317 25.3234 95.4744 25.8111 95.9141C26.0786 96.1603 26.3026 96.4154 26.5149 96.7131C26.7197 97.0073 26.3121 97.3376 26.0676 97.0779Z" fill="#371B45"/>
<path d="M55.9514 93.626C55.1935 93.626 54.057 93.3968 53.0508 93.1147C54.4144 92.9614 55.4019 92.795 56.1078 92.6449C56.5645 92.8606 56.8133 93.0863 56.8129 93.247C56.8122 93.5185 56.4704 93.626 55.9514 93.626Z" fill="#C5E4FD"/>
<path d="M53.0469 93.1143C51.8135 92.7683 50.7754 92.3425 50.8692 92.1615C50.9382 92.0278 51.4558 91.9387 52.2077 91.9387C52.8498 91.9387 53.6626 92.0037 54.5131 92.1615C55.1769 92.2847 55.7157 92.461 56.1039 92.6445C55.398 92.7946 54.4105 92.961 53.0469 93.1143Z" fill="#C5E4FD"/>
<path d="M75.1836 83.3447C75.1836 83.3447 75.7299 83.3408 76.6675 83.2127C77.5538 83.0914 77.9441 82.8487 78.7982 82.7099" fill="#C2C6D2"/>
<path d="M75.1792 82.766C75.7407 82.7983 76.3744 82.7834 76.9296 82.7316C77.5208 82.6663 78.1393 82.4679 78.7517 82.4243C79.1031 82.3966 79.1862 82.9086 78.8455 82.9945C78.2412 83.1364 77.7118 83.4128 77.0951 83.5775C76.4409 83.7403 75.8472 83.8539 75.1806 83.9231C74.3531 83.9586 74.3499 82.733 75.1792 82.766Z" fill="#371B45"/>
<path d="M64.793 44.7445C64.793 44.7445 65.778 46.683 66.4669 48.208L64.793 44.7445Z" fill="#C2C6D2"/>
<path d="M65.0536 44.6141C65.7188 45.7205 66.3712 46.8279 66.996 47.9701C67.1496 48.2507 67.0473 48.6034 66.7671 48.7574C66.4611 48.9295 66.0627 48.7783 65.9456 48.4473C65.5086 47.2537 65.0281 46.059 64.5391 44.8745C64.4065 44.5463 64.8703 44.3125 65.0536 44.6141Z" fill="#371B45"/>
<path d="M28.557 92.0753C28.6465 92.3432 28.7109 92.6218 28.7434 92.8953C28.777 93.1693 28.7806 93.4379 28.7671 93.6976C28.7586 93.8601 28.6206 93.9847 28.4589 93.9762C28.3344 93.9698 28.2321 93.8864 28.1954 93.7743C28.04 93.3254 27.8242 92.9411 27.5415 92.6236C26.9474 91.8465 28.2321 91.15 28.557 92.0753Z" fill="#371B45"/>
<path d="M65.0694 101.82C64.2595 101.631 62.2679 100.201 61.9424 97.1303C61.7181 95.0162 63.0997 95.6783 63.5845 96.4699C63.9634 97.088 64.3505 97.2882 64.82 97.3428C65.3465 97.4038 65.6755 96.9064 65.9897 96.4352C66.1574 96.1839 66.4981 96.1857 66.6743 96.2389C68.2269 96.7109 68.7834 102.685 65.0694 101.82Z" fill="#EFF0F4"/>
<path d="M67.6083 100.577C67.2424 101.516 66.4499 102.143 65.0668 101.819C64.7661 101.749 64.3047 101.51 63.8242 101.079C64.6253 101.565 65.4461 101.744 66.2132 101.533C66.7574 101.383 67.2255 101.053 67.6083 100.577Z" fill="#D7DAE2"/>
<path d="M62.8126 93.7474C62.8473 94.3133 62.5709 94.7029 62.1955 94.617C61.8198 94.5312 61.4872 94.0025 61.4522 93.4362C61.4175 92.8702 61.6938 92.4806 62.0692 92.5665C62.445 92.6524 62.7776 93.1811 62.8126 93.7474Z" fill="#EFF0F4"/>
<path d="M67.0704 94.2278C67.1051 94.7938 66.8287 95.1834 66.4533 95.0975C66.0776 95.0116 65.745 94.483 65.71 93.917C65.6753 93.3507 65.9516 92.9611 66.327 93.047C66.7028 93.1328 67.0354 93.6615 67.0704 94.2278Z" fill="#EFF0F4"/>
<path d="M65.0784 92.7052C65.1236 93.4404 64.7649 93.9456 64.2773 93.8342C63.7898 93.7228 63.3577 93.0366 63.3125 92.3014C63.2672 91.5665 63.6259 91.0609 64.1135 91.1723C64.6014 91.2837 65.0331 91.97 65.0784 92.7052Z" fill="#EFF0F4"/>
<path d="M63.3907 88.8216C63.2187 88.8216 63.0496 88.8436 62.8847 88.8887C60.875 89.4397 60.0945 93.2704 61.1804 97.2544C62.1767 100.911 64.462 103.655 66.3843 103.655C66.5566 103.655 66.7254 103.633 66.8903 103.588C67.8155 103.334 68.5164 102.37 68.8646 100.872C69.2414 99.25 69.1455 97.2434 68.5946 95.2223C67.5983 91.5658 65.3133 88.8216 63.3907 88.8216ZM66.3871 104.812C63.8942 104.812 61.2342 101.839 60.0676 97.5592C58.7741 92.8123 59.878 88.5136 62.5808 87.7731C65.2839 87.0329 68.4138 90.1707 69.7074 94.9172C70.3078 97.1203 70.4072 99.3284 69.9876 101.134C69.5393 103.065 68.5472 104.333 67.1946 104.704C66.9288 104.776 66.6589 104.812 66.3871 104.812Z" fill="#371B45"/>
<path d="M96.8474 83.5138C98.9356 82.6657 101.411 82.8229 103.082 84.4381C103.349 84.6786 103.021 85.0956 102.726 84.8901C102.042 84.3632 101.279 84.0208 100.422 83.9374C99.3793 83.8413 98.2874 84.0715 97.3587 84.5509C96.6471 84.916 96.1235 83.8618 96.8474 83.5138Z" fill="#371B45"/>
<path d="M102.343 87.6982L97.9635 95.3855L96.0851 98.6836C93.4492 98.6513 91.9989 102.073 89.3916 102.98C86.7461 103.901 86.2759 101.502 86.2759 101.502C86.2759 101.502 84.107 100.78 84.562 95.0435C84.5956 94.6077 84.6459 94.1447 84.7131 93.6497C84.9565 91.8482 81.8507 91.2252 82.5474 89.6242C86.1585 81.3173 98.4872 79.0429 102.343 87.6982Z" fill="url(#paint32_linear_11117_33663)"/>
<path d="M102.343 87.6982L97.9635 95.3855L96.0851 98.6836C93.4492 98.6513 91.9989 102.073 89.3916 102.98C86.7461 103.901 86.2759 101.502 86.2759 101.502C86.2759 101.502 84.107 100.78 84.562 95.0435C84.5956 94.6077 84.6459 94.1447 84.7131 93.6497C84.9565 91.8482 81.8507 91.2252 82.5474 89.6242C86.1585 81.3173 98.4872 79.0429 102.343 87.6982Z" fill="url(#paint33_linear_11117_33663)" fill-opacity="0.2"/>
<path d="M91.0781 101.211C91.1676 101.055 91.2522 100.893 91.3318 100.724C91.8873 99.5415 92.1877 98.0413 92.1346 96.3587C92.1152 95.7406 92.049 95.1303 91.9418 94.5374C92.4431 95.44 93.1034 96.3995 93.7105 96.5602C94.0565 96.6518 94.3605 96.6915 94.6375 96.6915C95.8423 96.6915 96.535 95.9357 97.9644 95.3868L96.2162 98.4557C96.1048 98.3766 95.9261 98.3553 95.7446 98.3553C95.5571 98.3553 95.3664 98.378 95.2432 98.3837C94.4157 98.4915 93.6422 98.9535 93.0181 99.4492C92.2917 100.013 91.7079 100.645 91.0781 101.211Z" fill="#9AA1C6"/>
<path d="M89.8727 92.8008L87.7307 89.0669L83.6367 87.9233C83.6367 87.9233 86.0529 84.6572 88.2434 85.8139C88.7964 86.1059 89.2755 86.8933 89.1768 87.9134C90.2135 87.5344 91.0877 87.8467 91.4829 88.4048C93.1526 90.7623 89.9997 92.7525 89.8727 92.8008Z" fill="#EFF0F4"/>
<path d="M84.4009 87.6876L87.8457 88.6503C87.955 88.6808 88.0481 88.7532 88.1047 88.8518L90.0171 92.1851C90.4922 91.8242 91.2841 91.0911 91.4861 90.2346C91.6142 89.6928 91.4974 89.1768 91.1291 88.6567C90.8507 88.2635 90.1844 88.0077 89.3236 88.3221C89.1838 88.3728 89.0282 88.3483 88.9107 88.2571C88.7932 88.1659 88.7309 88.0208 88.7451 87.8725C88.8275 87.0216 88.4376 86.4081 88.0406 86.1984C86.6845 85.4824 85.1298 86.8911 84.4009 87.6876ZM89.872 93.2354C89.7209 93.2354 89.5759 93.1559 89.497 93.0178L87.4431 89.4384L83.5196 88.3419C83.3823 88.3036 83.273 88.2 83.2266 88.0652C83.1803 87.93 83.2033 87.7806 83.2885 87.666C83.3961 87.5202 85.9538 84.116 88.4436 85.4309C88.9977 85.7237 89.5185 86.4074 89.6081 87.352C90.6274 87.1827 91.4383 87.5954 91.8343 88.1546C92.3876 88.9356 92.538 89.762 92.2804 90.61C91.8222 92.1219 90.1869 93.1456 90.0252 93.207C89.975 93.2261 89.9229 93.2354 89.872 93.2354Z" fill="#371B45"/>
<path d="M102.083 87.8161C100.908 85.8095 99.2792 84.1787 97.1231 83.3779C91.8901 81.4746 85.6955 84.5495 83.3331 89.4557C83.2432 89.6782 83.0508 89.9394 83.0964 90.164C83.2408 90.577 83.6331 90.8399 84.0156 91.1983C84.3181 91.4697 84.6528 91.7607 84.9437 92.1769C85.2526 92.5935 85.4355 93.2357 85.3428 93.7569L85.2678 94.3374C85.157 95.2898 85.0919 96.2815 85.1337 97.2268C85.2059 98.518 85.4217 100.209 86.4598 100.954L86.8437 101.391C86.8465 101.404 86.8628 101.466 86.8766 101.507C87.2898 102.835 88.5632 102.8 89.6477 102.242C90.972 101.548 91.7918 100.4 93.0188 99.448C93.6429 98.9523 94.4164 98.4903 95.244 98.3825C95.5727 98.3679 96.3818 98.2299 96.3295 98.7302C96.3079 98.8593 96.2053 98.9544 96.0829 98.9718C95.1683 99.1294 94.4588 99.6666 93.7565 100.319C92.6887 101.325 91.5738 102.597 90.161 103.287C88.3134 104.218 86.2652 103.836 85.7118 101.614L86.0957 102.051C83.6225 100.882 83.7697 96.4983 84.0093 94.1955C84.0248 93.9762 84.1349 93.4507 84.0634 93.2463C83.6321 92.1528 82.1595 91.7387 81.8506 90.4567C81.6631 89.6647 82.145 88.9934 82.4716 88.3327C84.0839 85.372 86.9042 83.1529 90.1066 82.1683C94.9913 80.5712 100.947 82.3297 102.609 87.5801C102.707 87.9144 102.257 88.107 102.083 87.8161Z" fill="#371B45"/>
<path d="M92.1342 96.3585C92.2729 100.756 89.9989 103.906 87.0552 103.395C84.1118 102.883 81.6131 98.903 81.4748 94.5053C81.3361 90.1072 83.6101 86.957 86.5538 87.4687C89.4972 87.9807 91.9958 91.9608 92.1342 96.3585Z" fill="url(#paint34_linear_11117_33663)"/>
<path d="M92.1342 96.3585C92.2729 100.756 89.9989 103.906 87.0552 103.395C84.1118 102.883 81.6131 98.903 81.4748 94.5053C81.3361 90.1072 83.6101 86.957 86.5538 87.4687C89.4972 87.9807 91.9958 91.9608 92.1342 96.3585Z" fill="url(#paint35_linear_11117_33663)" fill-opacity="0.2"/>
<path d="M91.617 93.1846C91.5176 92.8532 91.4054 92.5306 91.2812 92.2173V92.217C91.4054 92.5303 91.5176 92.8535 91.617 93.1846Z" fill="#ECEFF4"/>
<path d="M81.75 91.6523C81.8179 91.3734 81.8975 91.1041 81.9874 90.8469L81.9878 90.8472C81.8975 91.1045 81.8179 91.3734 81.75 91.6523Z" fill="#ECEFF4"/>
<path d="M90.8935 91.3486C89.8597 89.2697 88.2827 87.7698 86.5522 87.469C86.3413 87.4324 86.1344 87.4147 85.9313 87.4147C85.4349 87.4147 84.9625 87.5215 84.5238 87.7219H84.5234C84.9622 87.5211 85.4345 87.4143 85.9309 87.4143C86.134 87.4143 86.341 87.4324 86.5519 87.469C88.2831 87.7698 89.86 89.2697 90.8935 91.3483C90.8935 91.3486 90.8935 91.3486 90.8935 91.3486Z" fill="#FAFAFC"/>
<path d="M91.2801 92.2168C91.1616 91.9177 91.0325 91.6271 90.8934 91.3475C90.8934 91.3475 90.8934 91.3475 90.8934 91.3471C91.0325 91.6271 91.162 91.9173 91.2801 92.2164V92.2168ZM84.293 87.8368C84.293 87.8365 84.293 87.8365 84.2933 87.8361C84.3687 87.7949 84.4458 87.7563 84.5233 87.7208H84.5237C84.4458 87.7566 84.3687 87.7949 84.293 87.8368Z" fill="#B2B2D4"/>
<path d="M81.9886 90.8486L81.9883 90.8483C82.479 89.4485 83.2886 88.3886 84.2945 87.8376C84.2941 87.8379 84.2941 87.8379 84.2941 87.8383C83.2886 88.389 82.479 89.4488 81.9886 90.8486Z" fill="#B2B2D4"/>
<path d="M92.1251 97.3281C92.1251 97.3271 92.1247 97.326 92.1247 97.3246C92.1272 97.2756 92.1293 97.227 92.1314 97.1777C92.1297 97.2281 92.1276 97.2781 92.1251 97.3281ZM92.1336 96.3584C92.1 95.2946 91.9287 94.2557 91.645 93.2859C91.6549 93.4275 91.6616 93.5687 91.6665 93.7103C91.675 93.9818 91.6747 94.2482 91.6651 94.5094C90.7901 91.4316 88.8024 89.0188 86.5532 88.6274C86.343 88.5909 86.1357 88.5731 85.9329 88.5731C83.5107 88.5731 81.6659 91.1144 81.4834 94.6953C81.4798 94.6329 81.4766 94.569 81.4749 94.5048C81.4483 93.6713 81.5088 92.8821 81.644 92.1544C81.6758 91.9841 81.7116 91.8173 81.7512 91.6537C81.8191 91.3748 81.8987 91.1059 81.989 90.8486C82.4793 89.4488 83.2889 88.389 84.2944 87.8383C84.3701 87.7964 84.4473 87.7581 84.5251 87.7223C84.9638 87.5218 85.4362 87.415 85.9326 87.415C86.1357 87.415 86.3427 87.4327 86.5535 87.4693C88.2841 87.7702 89.861 89.27 90.8949 91.3489C91.0339 91.6285 91.163 91.9191 91.2816 92.2183C91.4058 92.5316 91.5179 92.8541 91.6174 93.1855C91.917 94.1854 92.0989 95.2588 92.1336 96.3584Z" fill="#ECEFF4"/>
<path d="M86.8586 103.355C85.4348 103.031 84.1271 101.9 83.1562 100.315H83.1566C84.1271 101.899 85.4345 103.03 86.8579 103.355C86.8582 103.355 86.8586 103.355 86.8586 103.355Z" fill="#947BCC"/>
<path d="M83.1546 100.315C83.0268 100.106 82.9048 99.8893 82.7891 99.6654C82.9048 99.8893 83.0268 100.106 83.1549 100.315H83.1546Z" fill="#371B45"/>
<path d="M91.0781 101.211C91.1676 101.056 91.2526 100.893 91.3322 100.724C91.2526 100.893 91.168 101.055 91.0785 101.211C91.0781 101.211 91.0781 101.211 91.0781 101.211Z" fill="#7B81B5"/>
<path d="M87.6749 103.449C87.4715 103.449 87.2645 103.431 87.054 103.395C86.9878 103.383 86.922 103.37 86.8562 103.355C86.8562 103.355 86.8558 103.354 86.8555 103.354C86.9213 103.369 86.9874 103.383 87.0536 103.394C87.2645 103.431 87.4715 103.449 87.6749 103.449C89.0689 103.449 90.2712 102.607 91.0758 101.21C91.0758 101.21 91.0758 101.21 91.0761 101.21C90.2716 102.608 89.0689 103.449 87.6749 103.449Z" fill="#371B45"/>
<path d="M87.6755 103.449C87.472 103.449 87.2651 103.431 87.0542 103.395C86.988 103.383 86.9219 103.37 86.8561 103.355C85.4327 103.03 84.1253 101.899 83.1548 100.315C83.0267 100.105 82.9046 99.8885 82.7889 99.6646C82.0799 98.2922 81.61 96.6539 81.4961 94.9352C82.3824 97.9792 84.3567 100.358 86.5861 100.745C86.7966 100.782 87.0043 100.8 87.2074 100.8C89.6685 100.8 91.5314 98.179 91.6644 94.5086C91.9181 95.4017 92.0784 96.3516 92.124 97.3238C92.0589 98.6158 91.7769 99.7725 91.3304 100.723C91.2508 100.892 91.1659 101.055 91.0764 101.211C90.2718 102.608 89.0695 103.449 87.6755 103.449ZM92.1307 97.1769C92.1403 96.9094 92.141 96.6355 92.1329 96.3577C92.1414 96.6358 92.1407 96.9094 92.1307 97.1769Z" fill="#9AA1C6"/>
<path d="M92.1243 97.3232C92.0787 96.351 91.9184 95.4011 91.6647 94.508C91.6742 94.2469 91.6746 93.9804 91.6661 93.709C91.6612 93.5674 91.6544 93.4262 91.6445 93.2846C91.9283 94.2543 92.0995 95.2933 92.1331 96.357C92.1413 96.6349 92.1406 96.9088 92.131 97.1763C92.1289 97.2257 92.1268 97.2743 92.1243 97.3232Z" fill="#BDBFDA"/>
<path d="M90.3033 99.0388C90.1051 100.662 89.1817 102.135 87.1033 101.924C86.4371 101.857 85.0788 101.158 84.1992 99.5118C84.9277 100.162 85.7387 100.598 86.5864 100.744C88.0685 101.002 89.3816 100.332 90.3033 99.0388Z" fill="#A7ACB7"/>
<path d="M85.9372 87.9934C85.2286 87.9934 84.5595 88.2538 83.9775 88.7608C82.6927 89.8803 81.9717 92.021 82.0495 94.4867C82.1794 98.6179 84.4686 102.358 87.1522 102.825C88.0502 102.981 88.9065 102.731 89.6283 102.103C90.9133 100.983 91.634 98.8425 91.5562 96.3765C91.4263 92.2456 89.1372 88.505 86.4538 88.0384C86.2797 88.0082 86.1071 87.9934 85.9372 87.9934ZM87.6816 104.028C87.4424 104.028 87.2 104.007 86.9552 103.964C83.7068 103.4 81.0457 99.2527 80.8968 94.5232C80.8083 91.7137 81.6773 89.2331 83.221 87.8876C84.2131 87.0233 85.3994 86.6812 86.6505 86.8991C89.8989 87.4636 92.5603 91.6108 92.7089 96.3399C92.7974 99.1498 91.9284 101.63 90.3847 102.976C89.5869 103.671 88.6634 104.028 87.6816 104.028Z" fill="#371B45"/>
<path d="M87.1039 101.926C86.1596 101.831 83.8315 100.471 83.4335 96.9466C83.1592 94.5202 84.7723 95.0787 85.3419 95.9257C85.787 96.5875 86.2392 96.761 86.7862 96.7525C87.3994 96.7432 87.7797 96.1134 88.1431 95.5162C88.3366 95.1983 88.7336 95.1479 88.9388 95.1834C90.7504 95.4942 91.435 102.364 87.1039 101.926Z" fill="#EFF0F4"/>
<path d="M90.3033 99.0388C90.1051 100.662 89.1817 102.135 87.1033 101.924C86.4371 101.857 85.0788 101.158 84.1992 99.5118C84.9277 100.162 85.7387 100.598 86.5864 100.744C88.0685 101.002 89.3816 100.332 90.3033 99.0388Z" fill="#D7DAE2"/>
<path d="M84.4262 92.8748C84.4701 93.5284 84.1506 94.0241 83.7125 93.9819C83.2749 93.9393 82.8839 93.3751 82.84 92.7215C82.7958 92.0676 83.1153 91.5719 83.5533 91.6141C83.9914 91.6567 84.382 92.2209 84.4262 92.8748Z" fill="#EFF0F4"/>
<path d="M89.3868 92.781C89.431 93.435 89.1115 93.9307 88.6735 93.8881C88.2354 93.8459 87.8448 93.2813 87.801 92.6277C87.7567 91.9738 88.0762 91.4781 88.5143 91.5207C88.9519 91.5629 89.3429 92.1271 89.3868 92.781Z" fill="#EFF0F4"/>
<path d="M87.0606 91.3132C87.1176 92.162 86.7032 92.8056 86.1343 92.7506C85.5657 92.6956 85.0584 91.9629 85.0014 91.1142C84.9441 90.2654 85.3587 89.6218 85.9273 89.6768C86.4959 89.7318 87.0033 90.4645 87.0606 91.3132Z" fill="#EFF0F4"/>
<path d="M21.1624 41.6416C20.9649 41.6416 20.7777 41.5394 20.6714 41.3663C20.5455 41.1612 20.5596 40.8993 20.7069 40.7088L24.8587 35.3417L19.7301 36.3437C19.4175 36.4051 19.1146 36.2003 19.0537 35.8867C18.9928 35.5734 19.1968 35.2696 19.5095 35.2086L26.145 33.9121C26.3817 33.8663 26.6205 33.9713 26.7465 34.1764C26.8724 34.3818 26.8583 34.6437 26.7111 34.8343L22.5592 40.201L27.1912 39.2962C27.504 39.2348 27.8065 39.4395 27.8673 39.7532C27.9282 40.0669 27.7244 40.3706 27.4116 40.4316L21.2728 41.631C21.2359 41.6381 21.199 41.6416 21.1624 41.6416Z" fill="#371B45"/>
<path d="M33.2334 31.2119C33.1906 31.2119 33.1468 31.2069 33.1032 31.197L28.158 30.0523C27.9237 29.998 27.7475 29.804 27.716 29.5652C27.6842 29.3264 27.8034 29.0929 28.0154 28.979L32.6054 26.5133L28.7559 25.6223C28.4456 25.5507 28.2521 25.2402 28.3235 24.929C28.3954 24.6178 28.705 24.4244 29.0153 24.4954L34.3607 25.7323C34.5946 25.7866 34.7708 25.9807 34.8026 26.2195C34.8345 26.4583 34.7152 26.6918 34.5033 26.8057L29.9132 29.2717L33.3626 30.0697C33.6729 30.1418 33.8664 30.4522 33.795 30.7634C33.7334 31.031 33.496 31.2119 33.2334 31.2119Z" fill="#371B45"/>
<path d="M28.3757 19.5117H24.319C24.0787 19.5117 23.8636 19.3623 23.7791 19.1367C23.6946 18.911 23.7584 18.6566 23.9393 18.498L26.8401 15.9535H23.9907C23.6722 15.9535 23.4141 15.6948 23.4141 15.3751C23.4141 15.0558 23.6722 14.7971 23.9907 14.7971H28.3757C28.6159 14.7971 28.8311 14.9465 28.9156 15.1718C28.9998 15.3975 28.9361 15.6519 28.7553 15.8105L25.8544 18.355H28.3757C28.6941 18.355 28.9524 18.614 28.9524 18.9334C28.9524 19.2527 28.6941 19.5117 28.3757 19.5117Z" fill="#371B45"/>
</g>
<defs>
<linearGradient id="paint0_linear_11117_33663" x1="80" y1="118" x2="45.5" y2="-5.5" gradientUnits="userSpaceOnUse">
<stop stop-color="white"/>
<stop offset="1" stop-color="#9D9FE6"/>
</linearGradient>
<linearGradient id="paint1_linear_11117_33663" x1="45" y1="32" x2="73.1923" y2="147" gradientUnits="userSpaceOnUse">
<stop stop-color="#EBDEF6"/>
<stop offset="1" stop-color="white"/>
</linearGradient>
<linearGradient id="paint2_linear_11117_33663" x1="80.5397" y1="99.7861" x2="144.281" y2="-122.99" gradientUnits="userSpaceOnUse">
<stop stop-color="#9D9FE6"/>
<stop offset="0.163505" stop-color="#CFC0FF"/>
<stop offset="1" stop-color="#8E00FF"/>
</linearGradient>
<linearGradient id="paint3_linear_11117_33663" x1="78.1809" y1="-7.47074" x2="151.524" y2="19.6939" gradientUnits="userSpaceOnUse">
<stop stop-color="white" stop-opacity="0"/>
<stop offset="1" stop-color="#8E00FF"/>
</linearGradient>
<linearGradient id="paint4_linear_11117_33663" x1="27.5708" y1="76.7197" x2="98.7164" y2="-103.245" gradientUnits="userSpaceOnUse">
<stop stop-color="#9D9FE6"/>
<stop offset="0.163505" stop-color="#CFC0FF"/>
<stop offset="1" stop-color="#8E00FF"/>
</linearGradient>
<linearGradient id="paint5_linear_11117_33663" x1="26.0968" y1="-15.8852" x2="74.7209" y2="-2.85095" gradientUnits="userSpaceOnUse">
<stop stop-color="white" stop-opacity="0"/>
<stop offset="1" stop-color="#8E00FF"/>
</linearGradient>
<linearGradient id="paint6_linear_11117_33663" x1="21.4187" y1="71.6875" x2="71.4931" y2="-25.8717" gradientUnits="userSpaceOnUse">
<stop stop-color="#9D9FE6"/>
<stop offset="0.163505" stop-color="#CFC0FF"/>
<stop offset="1" stop-color="#8E00FF"/>
</linearGradient>
<linearGradient id="paint7_linear_11117_33663" x1="20.7462" y1="16.8336" x2="43.5522" y2="21.5422" gradientUnits="userSpaceOnUse">
<stop stop-color="white" stop-opacity="0"/>
<stop offset="1" stop-color="#8E00FF"/>
</linearGradient>
<linearGradient id="paint8_linear_11117_33663" x1="46.3848" y1="93.7881" x2="129.333" y2="-188.514" gradientUnits="userSpaceOnUse">
<stop stop-color="#9D9FE6"/>
<stop offset="0.163505" stop-color="#CFC0FF"/>
<stop offset="1" stop-color="#8E00FF"/>
</linearGradient>
<linearGradient id="paint9_linear_11117_33663" x1="43.4621" y1="-42.6892" x2="134.91" y2="-9.70732" gradientUnits="userSpaceOnUse">
<stop stop-color="white" stop-opacity="0"/>
<stop offset="1" stop-color="#8E00FF"/>
</linearGradient>
<linearGradient id="paint10_linear_11117_33663" x1="46.0008" y1="90.7578" x2="108.18" y2="-149.977" gradientUnits="userSpaceOnUse">
<stop stop-color="#9D9FE6"/>
<stop offset="0.163505" stop-color="#CFC0FF"/>
<stop offset="1" stop-color="#8E00FF"/>
</linearGradient>
<linearGradient id="paint11_linear_11117_33663" x1="43.2167" y1="-23.5218" x2="127.474" y2="11.0483" gradientUnits="userSpaceOnUse">
<stop stop-color="white" stop-opacity="0"/>
<stop offset="1" stop-color="#8E00FF"/>
</linearGradient>
<linearGradient id="paint12_linear_11117_33663" x1="48.1891" y1="44.7383" x2="71.4408" y2="-7.85851" gradientUnits="userSpaceOnUse">
<stop stop-color="#9D9FE6"/>
<stop offset="0.163505" stop-color="#CFC0FF"/>
<stop offset="1" stop-color="#8E00FF"/>
</linearGradient>
<linearGradient id="paint13_linear_11117_33663" x1="47.7909" y1="16.7571" x2="61.1083" y2="19.9496" gradientUnits="userSpaceOnUse">
<stop stop-color="white" stop-opacity="0"/>
<stop offset="1" stop-color="#8E00FF"/>
</linearGradient>
<linearGradient id="paint14_linear_11117_33663" x1="44.7999" y1="44.4043" x2="50.2811" y2="15.443" gradientUnits="userSpaceOnUse">
<stop stop-color="#9D9FE6"/>
<stop offset="0.163505" stop-color="#CFC0FF"/>
<stop offset="1" stop-color="#8E00FF"/>
</linearGradient>
<linearGradient id="paint15_linear_11117_33663" x1="44.356" y1="31.0542" x2="56.3042" y2="37.7444" gradientUnits="userSpaceOnUse">
<stop stop-color="white" stop-opacity="0"/>
<stop offset="1" stop-color="#8E00FF"/>
</linearGradient>
<linearGradient id="paint16_linear_11117_33663" x1="70.8363" y1="85.1641" x2="179.869" y2="-98.9648" gradientUnits="userSpaceOnUse">
<stop stop-color="#9D9FE6"/>
<stop offset="0.163505" stop-color="#CFC0FF"/>
<stop offset="1" stop-color="#8E00FF"/>
</linearGradient>
<linearGradient id="paint17_linear_11117_33663" x1="69.6602" y1="-25.5102" x2="109.954" y2="-18.2992" gradientUnits="userSpaceOnUse">
<stop stop-color="white" stop-opacity="0"/>
<stop offset="1" stop-color="#8E00FF"/>
</linearGradient>
<linearGradient id="paint18_linear_11117_33663" x1="73.6285" y1="85.1641" x2="153.591" y2="-37.7966" gradientUnits="userSpaceOnUse">
<stop stop-color="#9D9FE6"/>
<stop offset="0.163505" stop-color="#CFC0FF"/>
<stop offset="1" stop-color="#8E00FF"/>
</linearGradient>
<linearGradient id="paint19_linear_11117_33663" x1="72.8751" y1="7.30269" x2="98.8252" y2="11.5315" gradientUnits="userSpaceOnUse">
<stop stop-color="white" stop-opacity="0"/>
<stop offset="1" stop-color="#8E00FF"/>
</linearGradient>
<linearGradient id="paint20_linear_11117_33663" x1="35.3896" y1="99.5654" x2="74.1331" y2="-32.8292" gradientUnits="userSpaceOnUse">
<stop stop-color="#9D9FE6"/>
<stop offset="0.163505" stop-color="#CFC0FF"/>
<stop offset="1" stop-color="#8E00FF"/>
</linearGradient>
<linearGradient id="paint21_linear_11117_33663" x1="34.0141" y1="35.6012" x2="77.0082" y2="51.1708" gradientUnits="userSpaceOnUse">
<stop stop-color="white" stop-opacity="0"/>
<stop offset="1" stop-color="#8E00FF"/>
</linearGradient>
<linearGradient id="paint22_linear_11117_33663" x1="35.5607" y1="99.5674" x2="52.1086" y2="11.4841" gradientUnits="userSpaceOnUse">
<stop stop-color="#9D9FE6"/>
<stop offset="0.163505" stop-color="#CFC0FF"/>
<stop offset="1" stop-color="#8E00FF"/>
</linearGradient>
<linearGradient id="paint23_linear_11117_33663" x1="34.2014" y1="58.9848" x2="70.6623" y2="79.552" gradientUnits="userSpaceOnUse">
<stop stop-color="white" stop-opacity="0"/>
<stop offset="1" stop-color="#8E00FF"/>
</linearGradient>
<linearGradient id="paint24_linear_11117_33663" x1="70.4707" y1="103.979" x2="98.1251" y2="9.785" gradientUnits="userSpaceOnUse">
<stop stop-color="#9D9FE6"/>
<stop offset="0.163505" stop-color="#CFC0FF"/>
<stop offset="1" stop-color="#8E00FF"/>
</linearGradient>
<linearGradient id="paint25_linear_11117_33663" x1="69.4948" y1="58.4471" x2="100.023" y2="69.4663" gradientUnits="userSpaceOnUse">
<stop stop-color="white" stop-opacity="0"/>
<stop offset="1" stop-color="#8E00FF"/>
</linearGradient>
<linearGradient id="paint26_linear_11117_33663" x1="74.1633" y1="102.885" x2="96.9025" y2="35.2573" gradientUnits="userSpaceOnUse">
<stop stop-color="#9D9FE6"/>
<stop offset="0.163505" stop-color="#CFC0FF"/>
<stop offset="1" stop-color="#8E00FF"/>
</linearGradient>
<linearGradient id="paint27_linear_11117_33663" x1="73.5364" y1="69.3864" x2="93.6996" y2="75.7412" gradientUnits="userSpaceOnUse">
<stop stop-color="white" stop-opacity="0"/>
<stop offset="1" stop-color="#8E00FF"/>
</linearGradient>
<linearGradient id="paint28_linear_11117_33663" x1="64.4447" y1="104.233" x2="103.995" y2="30.6834" gradientUnits="userSpaceOnUse">
<stop stop-color="#9D9FE6"/>
<stop offset="0.163505" stop-color="#CFC0FF"/>
<stop offset="1" stop-color="#8E00FF"/>
</linearGradient>
<linearGradient id="paint29_linear_11117_33663" x1="63.951" y1="62.0372" x2="80.7572" y2="65.3493" gradientUnits="userSpaceOnUse">
<stop stop-color="white" stop-opacity="0"/>
<stop offset="1" stop-color="#8E00FF"/>
</linearGradient>
<linearGradient id="paint30_linear_11117_33663" x1="64.6287" y1="104.232" x2="79.8232" y2="55.7108" gradientUnits="userSpaceOnUse">
<stop stop-color="#9D9FE6"/>
<stop offset="0.163505" stop-color="#CFC0FF"/>
<stop offset="1" stop-color="#8E00FF"/>
</linearGradient>
<linearGradient id="paint31_linear_11117_33663" x1="64.1523" y1="80.5217" x2="79.2677" y2="85.637" gradientUnits="userSpaceOnUse">
<stop stop-color="white" stop-opacity="0"/>
<stop offset="1" stop-color="#8E00FF"/>
</linearGradient>
<linearGradient id="paint32_linear_11117_33663" x1="91.4643" y1="103.19" x2="129.305" y2="-8.4396" gradientUnits="userSpaceOnUse">
<stop stop-color="#9D9FE6"/>
<stop offset="0.163505" stop-color="#CFC0FF"/>
<stop offset="1" stop-color="#8E00FF"/>
</linearGradient>
<linearGradient id="paint33_linear_11117_33663" x1="90.4361" y1="47.8041" x2="123.553" y2="58.157" gradientUnits="userSpaceOnUse">
<stop stop-color="white" stop-opacity="0"/>
<stop offset="1" stop-color="#8E00FF"/>
</linearGradient>
<linearGradient id="paint34_linear_11117_33663" x1="86.3057" y1="103.449" x2="123.545" y2="26.3402" gradientUnits="userSpaceOnUse">
<stop stop-color="#9D9FE6"/>
<stop offset="0.163505" stop-color="#CFC0FF"/>
<stop offset="1" stop-color="#8E00FF"/>
</linearGradient>
<linearGradient id="paint35_linear_11117_33663" x1="85.7543" y1="61.1305" x2="104.355" y2="65.2121" gradientUnits="userSpaceOnUse">
<stop stop-color="white" stop-opacity="0"/>
<stop offset="1" stop-color="#8E00FF"/>
</linearGradient>
<clipPath id="clip0_11117_33663">
<rect width="110" height="110" rx="55" fill="white"/>
</clipPath>
</defs>
</svg>
