<svg width="110" height="110" viewBox="0 0 110 110" fill="none" xmlns="http://www.w3.org/2000/svg">
<g clip-path="url(#clip0_11117_32952)">
<rect width="110" height="110" rx="55" fill="white"/>
<rect width="110" height="110" rx="55" fill="url(#paint0_linear_11117_32952)"/>
<path d="M87.2255 80.4743C86.9013 82.6688 85.7623 87.9319 82.0893 90.1149C79.5935 91.5969 78.2669 91.3032 77.5731 90.7006C76.9573 90.168 76.8359 89.3948 76.8359 89.3948C76.8359 89.3948 83.0106 86.0026 84.3958 80.1484C84.4887 79.7579 84.8452 79.4868 85.245 79.4868L86.3746 79.4868C86.8993 79.4868 87.3011 79.9531 87.2255 80.4743Z" fill="url(#paint1_linear_11117_32952)"/>
<path d="M87.2255 80.4743C86.9013 82.6688 85.7623 87.9319 82.0893 90.1149C79.5935 91.5969 78.2669 91.3032 77.5731 90.7006C76.9573 90.168 76.8359 89.3948 76.8359 89.3948C76.8359 89.3948 83.0106 86.0026 84.3958 80.1484C84.4887 79.7579 84.8452 79.4868 85.245 79.4868L86.3746 79.4868C86.8993 79.4868 87.3011 79.9531 87.2255 80.4743Z" fill="url(#paint2_linear_11117_32952)" fill-opacity="0.2"/>
<path d="M82.9423 88.6611C82.3691 88.5824 81.7862 88.5224 81.1992 88.4777C82.9624 86.9129 84.8465 84.3925 85.9904 80.3381C86.0438 80.3412 86.0972 80.3426 86.1506 80.3426C86.2577 80.3426 86.3649 80.3367 86.4713 80.3249C86.5005 80.3214 86.5296 80.318 86.5584 80.3142C86.566 80.3388 86.5698 80.3686 86.5646 80.4026C86.298 82.216 85.4398 86.2964 82.9423 88.6611Z" fill="#9D9FE6"/>
<path d="M77.6277 89.6929C77.7456 89.9388 77.954 90.2352 78.3076 90.3972C79.0517 90.7387 80.2424 90.4454 81.7518 89.5487C85.1851 87.5085 86.267 82.4562 86.5724 80.3786C86.5842 80.2988 86.5482 80.2434 86.526 80.2173C86.5034 80.1913 86.4542 80.148 86.3744 80.148L85.2462 80.148C85.1473 80.148 85.0603 80.2125 85.0392 80.3009C83.8148 85.47 79.1485 88.745 77.6277 89.6929ZM78.998 91.8545C78.5361 91.8545 78.1148 91.7654 77.7355 91.5875C76.4304 90.9741 76.1932 89.5584 76.1839 89.4984C76.1405 89.2238 76.274 88.9513 76.5174 88.8171C76.5767 88.7845 82.4536 85.4888 83.7545 79.9968C83.9175 79.3085 84.5308 78.828 85.2462 78.828L86.3744 78.828C86.8165 78.828 87.2361 79.0197 87.5249 79.3543C87.8141 79.6893 87.9431 80.1324 87.8786 80.571C87.5454 82.8352 86.3474 88.3535 82.4262 90.6836C81.1138 91.4634 79.9668 91.8545 78.998 91.8545Z" fill="#371B45"/>
<path d="M89.4783 76.6389C88.8036 79.5536 87.7311 80.1583 86.4763 80.3005C85.796 80.3764 85.0984 80.2114 84.5602 79.7908C84.0145 79.3643 83.5179 78.6382 83.7038 77.4389C83.7284 77.2835 83.7645 77.1317 83.8137 76.9801C84.4392 75.0148 86.9312 73.2808 87.0203 70.7052C87.0318 70.4039 87.0068 70.0874 86.9444 69.7594C86.9444 69.7594 90.2894 73.1369 89.4783 76.6389Z" fill="#7C7C7C"/>
<path d="M86.1557 80.3184C85.8308 80.3184 85.5084 80.2632 85.207 80.1509C84.9761 80.0645 84.7573 79.9449 84.5604 79.791C84.3984 79.6644 84.2407 79.5115 84.1041 79.3274C83.8475 78.9824 83.6644 78.5289 83.6641 77.9363C83.6641 77.7803 83.6765 77.6145 83.7039 77.4391C83.7286 77.2837 83.7646 77.1319 83.8138 76.9803C84.2473 77.4023 84.9518 77.9065 85.8353 77.9065C86.1221 77.9065 86.4279 77.8534 86.7493 77.7269C88.3166 77.1111 88.5669 73.4724 87.0205 70.7055C87.0222 70.6583 87.0229 70.6108 87.0229 70.5629C87.0232 70.3046 86.9972 70.0363 86.9445 69.7596C86.9445 69.7596 89.6036 72.4443 89.605 75.5088C89.6054 75.8815 89.5662 76.2595 89.4785 76.6391C89.0579 78.455 88.4833 79.3745 87.8062 79.8437C87.4216 80.1103 87.0042 80.2317 86.5635 80.2899C86.5347 80.2937 86.5056 80.2972 86.4764 80.3007C86.37 80.3125 86.2628 80.3184 86.1557 80.3184Z" fill="#675F6B"/>
<path d="M87.5721 71.6118C87.2791 72.9367 86.4712 74.0341 85.7309 75.0393C85.0881 75.912 84.481 76.7365 84.3568 77.5396C84.2403 78.291 84.4404 78.8572 84.9685 79.2708C85.353 79.5718 85.8623 79.7039 86.4033 79.6439C87.2885 79.5448 88.2052 79.2195 88.837 76.4904C89.2614 74.6565 88.3765 72.8184 87.5721 71.6118ZM86.1484 80.9785C85.4092 80.9785 84.7129 80.7472 84.1543 80.3104C83.5188 79.8124 82.8114 78.8926 83.0521 77.3378C83.2261 76.2147 83.9591 75.2192 84.6678 74.2564C85.6758 72.8874 86.6279 71.5945 86.2985 69.8844C86.2438 69.599 86.3818 69.3112 86.6387 69.1756C86.8956 69.0401 87.2111 69.0886 87.4157 69.2953C87.5627 69.4437 91.0055 72.9755 90.123 76.7879C89.4871 79.5351 88.4521 80.7427 86.5506 80.956H86.5503C86.4154 80.9712 86.2812 80.9785 86.1484 80.9785Z" fill="#371B45"/>
<path d="M92.2144 99.9863C92.0532 105.075 89.8739 107.436 87.7381 108.524C86.0058 109.407 83.995 109.562 82.1189 109.059L73.9504 106.86L66.5688 104.872C64.6829 105.171 62.8105 105.353 61.1542 105.462C57.8716 105.676 55.4403 105.603 55.4403 105.603C55.4403 105.603 53.0086 105.676 49.7282 105.462C48.0718 105.353 46.1995 105.171 44.3136 104.872L36.9319 106.858L28.7618 109.059C26.8873 109.562 24.8748 109.407 23.1446 108.524C21.007 107.436 18.8293 105.075 18.6663 99.9863C18.3612 90.4837 25.0472 89.0721 32.812 88.9944C33.3633 88.9886 33.9188 88.9886 34.4794 88.9944L34.9912 84.3038C35.2887 81.5785 36.3102 79.0275 37.8965 76.8954C39.316 74.9887 41.1888 73.416 43.3985 72.3546C43.643 72.237 43.893 72.1233 44.1509 72.0117C46.9803 70.7853 50.655 69.9157 55.3873 69.9157C60.5137 69.9157 64.3285 70.4462 67.1999 71.4732C70.2057 72.5519 72.1727 74.176 73.5222 76.3098C74.9019 78.4929 75.6352 81.2106 76.1661 84.4248C76.5926 86.5628 76.4008 88.9944 76.4008 88.9944C76.9619 88.9886 77.5173 88.9886 78.0707 88.9944C85.8352 89.0721 92.5195 90.4837 92.2144 99.9863Z" fill="url(#paint3_linear_11117_32952)"/>
<path d="M92.2144 99.9863C92.0532 105.075 89.8739 107.436 87.7381 108.524C86.0058 109.407 83.995 109.562 82.1189 109.059L73.9504 106.86L66.5688 104.872C64.6829 105.171 62.8105 105.353 61.1542 105.462C57.8716 105.676 55.4403 105.603 55.4403 105.603C55.4403 105.603 53.0086 105.676 49.7282 105.462C48.0718 105.353 46.1995 105.171 44.3136 104.872L36.9319 106.858L28.7618 109.059C26.8873 109.562 24.8748 109.407 23.1446 108.524C21.007 107.436 18.8293 105.075 18.6663 99.9863C18.3612 90.4837 25.0472 89.0721 32.812 88.9944C33.3633 88.9886 33.9188 88.9886 34.4794 88.9944L34.9912 84.3038C35.2887 81.5785 36.3102 79.0275 37.8965 76.8954C39.316 74.9887 41.1888 73.416 43.3985 72.3546C43.643 72.237 43.893 72.1233 44.1509 72.0117C46.9803 70.7853 50.655 69.9157 55.3873 69.9157C60.5137 69.9157 64.3285 70.4462 67.1999 71.4732C70.2057 72.5519 72.1727 74.176 73.5222 76.3098C74.9019 78.4929 75.6352 81.2106 76.1661 84.4248C76.5926 86.5628 76.4008 88.9944 76.4008 88.9944C76.9619 88.9886 77.5173 88.9886 78.0707 88.9944C85.8352 89.0721 92.5195 90.4837 92.2144 99.9863Z" fill="url(#paint4_linear_11117_32952)" fill-opacity="0.2"/>
<path d="M22.4698 108.134H22.4677C20.5681 106.907 18.8125 104.538 18.6664 99.9862C18.522 95.514 19.9279 92.8334 22.2663 91.2433H22.2684C22.7167 91.0231 30.2381 87.5082 33.3289 97.1575C36.3212 106.5 29.4399 111.235 22.4698 108.134Z" fill="#EDEEF2"/>
<path d="M26.69 109.737C25.2361 109.738 23.7039 109.408 22.1976 108.738C21.8644 108.59 21.7146 108.2 21.8627 107.866C22.0108 107.533 22.4008 107.383 22.734 107.531C25.8945 108.937 29.1473 108.654 31.2225 106.793C33.4426 104.802 33.9801 101.363 32.6975 97.3581C31.7294 94.335 30.227 92.3818 28.2322 91.5531C25.4341 90.3912 22.5759 91.826 22.5472 91.8402C22.223 92.0066 21.8249 91.878 21.6588 91.5538C21.4924 91.2292 21.6207 90.8315 21.9452 90.6651C22.0839 90.594 25.3828 88.9404 28.7385 90.334C31.1077 91.3183 32.8629 93.5461 33.9548 96.9556C35.4031 101.478 34.7287 105.421 32.1039 107.775C30.6566 109.074 28.752 109.737 26.69 109.737Z" fill="#371B45"/>
<path d="M88.4101 108.134H88.4118C90.3116 106.907 92.0671 104.538 92.2131 99.9862C92.3576 95.514 90.9516 92.8334 88.6132 91.2433H88.6112C88.1628 91.0231 80.6418 87.5082 77.5506 97.1575C74.5587 106.5 81.4396 111.235 88.4101 108.134Z" fill="#EDEEF2"/>
<path d="M55.441 81.9922C33.5931 81.9922 44.3135 104.871 44.3135 104.871C48.2216 105.604 55.441 105.604 55.441 105.604C55.441 105.604 62.66 105.604 66.5681 104.871C66.5681 104.871 77.2884 81.9922 55.441 81.9922Z" fill="#EDEEF2"/>
<path d="M84.1887 109.737C82.1263 109.738 80.2224 109.074 78.7748 107.775C76.15 105.421 75.4756 101.478 76.9239 96.9556C78.0158 93.5461 79.7706 91.3183 82.1402 90.334C85.4952 88.9397 88.7944 90.594 88.9334 90.6651C89.2576 90.8315 89.3863 91.2292 89.2198 91.5538C89.0538 91.8776 88.6567 92.0063 88.3325 91.8409C88.3034 91.8263 85.4196 90.3943 82.635 91.5579C80.6461 92.3894 79.1475 94.3408 78.1812 97.3581C76.8986 101.363 77.436 104.802 79.6562 106.793C81.7314 108.654 84.9841 108.937 88.1443 107.531C88.4775 107.383 88.8676 107.533 89.016 107.866C89.164 108.2 89.0142 108.59 88.681 108.738C87.1751 109.408 85.6422 109.737 84.1887 109.737Z" fill="#371B45"/>
<path d="M54.4016 104.954C53.5618 104.954 52.2588 104.936 50.7023 104.855C50.7356 104.702 50.7602 104.548 50.7758 104.392C50.8007 104.161 50.7973 103.926 50.7824 103.696L50.7241 103.12C50.6842 102.737 50.6492 102.352 50.6045 101.97L50.4519 100.827C50.4048 100.445 50.3434 100.067 50.282 99.6886L50.0993 98.5537C49.9585 97.8016 49.8354 97.0451 49.679 96.2971L49.454 95.173L49.2134 94.0531C49.057 93.3052 48.8784 92.5635 48.7099 91.8191C48.5213 91.0264 48.3226 90.2366 48.1094 89.4505C49.6725 92.55 52.057 95.6175 55.3742 95.6175C58.9847 95.6175 61.4736 91.982 63.0017 88.628C62.6997 89.6845 62.4268 90.7497 62.1719 91.8191C62.0038 92.5635 61.8252 93.3052 61.6688 94.0531L61.4278 95.173L61.2032 96.2975C61.0464 97.0451 60.9237 97.8016 60.7826 98.5537L60.5998 99.6889C60.5385 100.067 60.4771 100.445 60.4299 100.827L60.2774 101.97C60.2326 102.353 60.198 102.737 60.1578 103.121L60.0992 103.696C60.0846 103.926 60.0811 104.161 60.1061 104.392C60.1217 104.547 60.1463 104.702 60.1796 104.855C58.6203 104.936 57.3149 104.954 56.4754 104.954C55.843 104.954 55.4744 104.944 55.4605 104.944C55.4539 104.943 55.4473 104.943 55.4408 104.943C55.4345 104.943 55.4279 104.943 55.4213 104.944C55.4075 104.944 55.0372 104.954 54.4016 104.954Z" fill="#9D9FE6"/>
<path d="M32.5352 107.357C33.6381 106.196 34.3278 104.71 34.5882 103C34.6409 103.157 34.6946 103.314 34.7491 103.471C35.0032 104.199 35.274 104.922 35.5642 105.639C35.6742 105.91 35.7865 106.181 35.9023 106.451L32.5352 107.357Z" fill="#9D9FE6"/>
<path d="M26.6905 108.416C25.4315 108.416 24.0951 108.129 22.7737 107.547C21.3046 106.582 20.299 105.106 19.7656 103.137C20.7443 103.662 22.5851 104.422 25.0286 104.422C27.3447 104.422 30.2022 103.74 33.3818 101.525C33.3533 103.708 32.6224 105.537 31.2237 106.792C30.0243 107.868 28.4318 108.416 26.6905 108.416Z" fill="#9D9FE6"/>
<path d="M26.6125 108.685C25.5012 108.685 24.4163 108.432 23.4426 107.936C23.21 107.818 22.9867 107.688 22.7734 107.548C24.0948 108.13 25.4312 108.417 26.6902 108.417C28.4315 108.417 30.024 107.868 31.2234 106.792C32.6221 105.538 33.353 103.709 33.3815 101.526C33.5812 101.386 33.7823 101.241 33.9844 101.09C34.1724 101.731 34.3728 102.368 34.5864 103.001C34.326 104.711 33.6363 106.196 32.5334 107.358L28.5896 108.42C27.9325 108.597 27.2678 108.685 26.6125 108.685Z" fill="#371B45"/>
<path d="M78.3437 107.357L74.9766 106.451C75.0924 106.181 75.2051 105.91 75.315 105.639C75.6048 104.922 75.8756 104.199 76.1298 103.471C76.1842 103.314 76.238 103.158 76.291 103.001C76.5511 104.711 77.2407 106.196 78.3437 107.357Z" fill="#9D9FE6"/>
<path d="M84.1913 108.416C82.4504 108.416 80.8574 107.867 79.6581 106.792C78.2597 105.537 77.5288 103.708 77.5 101.525C80.6792 103.739 83.5363 104.422 85.8522 104.422C88.2963 104.422 90.1378 103.661 91.1163 103.137C90.583 105.105 89.5772 106.581 88.1084 107.547C86.787 108.129 85.4503 108.416 84.1913 108.416Z" fill="#9D9FE6"/>
<path d="M84.2665 108.685C83.6112 108.685 82.9465 108.597 82.2894 108.42L78.3456 107.358C77.2427 106.196 76.553 104.712 76.293 103.002C76.5062 102.369 76.7066 101.731 76.8946 101.091C77.0967 101.242 77.2978 101.387 77.4975 101.526C77.5263 103.709 78.2572 105.538 79.6556 106.792C80.855 107.868 82.4479 108.417 84.1888 108.417C85.4478 108.417 86.7845 108.13 88.1059 107.548C87.8923 107.688 87.669 107.818 87.4364 107.936C86.4624 108.433 85.3781 108.685 84.2665 108.685Z" fill="#371B45"/>
<path d="M66.5679 104.211C66.6258 104.211 66.6834 104.218 66.7396 104.233L82.2903 108.42C84.0618 108.897 85.8895 108.725 87.4373 107.936C90.043 106.609 91.4286 103.927 91.5551 99.9644C91.6595 96.7075 90.9341 94.3303 89.3377 92.6979C86.7903 90.0928 82.3264 89.5935 76.408 89.6539C76.2235 89.6566 76.0456 89.5797 75.9194 89.4444C75.7929 89.3092 75.7294 89.1268 75.7436 88.9424C75.7453 88.9188 75.9218 86.5721 75.5179 84.5537C75.5165 84.5465 75.5151 84.5392 75.5141 84.5319C73.9496 75.0754 70.5388 70.5747 55.3871 70.5747C50.9003 70.5747 46.9631 71.3736 43.6837 72.9499C39.2632 75.074 36.1838 79.4515 35.6471 84.3741L35.136 89.0655C35.0992 89.4004 34.8163 89.6539 34.4796 89.6539H34.4734C28.5536 89.5928 24.0911 90.0928 21.5439 92.6979C19.9473 94.3303 19.2219 96.7075 19.3262 99.9644C19.4527 103.926 20.8383 106.608 23.4441 107.936C24.9919 108.725 26.8199 108.897 28.591 108.42L44.1418 104.233C44.2316 104.209 44.3252 104.204 44.4171 104.219C49.9104 105.094 55.3666 104.945 55.4211 104.944C55.4343 104.944 55.4471 104.944 55.4603 104.944C55.5147 104.945 60.9761 105.094 66.4639 104.219C66.4986 104.213 66.5333 104.211 66.5679 104.211ZM84.2674 110.005C83.497 110.005 82.7172 109.902 81.9474 109.695L66.5322 105.545C61.1322 106.389 55.8063 106.273 55.4408 106.264C55.0754 106.273 49.7495 106.389 44.3491 105.545L28.9343 109.695C26.8473 110.257 24.6847 110.05 22.8445 109.113C20.736 108.038 18.1849 105.586 18.0066 100.007C17.8902 96.3708 18.7385 93.6781 20.5999 91.7749C23.6694 88.6359 29.0019 88.3047 33.8881 88.3293L34.3347 84.2313C34.9293 78.7771 38.2105 74.1149 43.112 71.7599C46.571 70.0973 50.701 69.2544 55.3871 69.2544C71.39 69.2544 75.1611 74.3233 76.8147 84.3058C77.1139 85.8093 77.1222 87.4251 77.0952 88.329C81.9505 88.3151 87.2334 88.6577 90.2816 91.7749C92.1428 93.6781 92.9913 96.3708 92.8748 100.007C92.6962 105.586 90.1453 108.038 88.0368 109.113C86.8756 109.704 85.5857 110.005 84.2674 110.005Z" fill="#371B45"/>
<path d="M49.7262 105.462C49.4176 106.061 48.919 106.559 48.2859 106.87C46.7963 107.602 44.4406 108.42 41.2569 108.513C40.7149 108.53 40.148 108.524 39.5589 108.494C38.4556 108.437 37.4646 107.813 36.9299 106.858C36.8807 106.773 36.8353 106.684 36.7954 106.593C35.4747 103.618 33.0129 97.0396 32.81 88.9946C32.7077 84.9007 33.189 80.4264 34.7049 75.8533C35.1165 74.6082 35.6054 73.3572 36.1796 72.1027C36.1796 72.1027 36.1834 72.1006 36.1911 72.0989C36.4886 71.989 42.9094 69.6579 44.149 72.0118C44.3251 72.3471 44.3973 72.7754 44.3307 73.3194C44.1393 74.9036 44.2665 76.6037 44.5089 78.1369C44.9506 80.9153 45.7731 83.1459 45.7731 83.1459C45.7731 83.1459 49.2051 94.6631 50.0067 103.003C50.0182 103.131 50.0314 103.256 50.0428 103.381C50.0525 103.506 50.0636 103.631 50.0733 103.756C50.1205 104.361 49.9936 104.948 49.7262 105.462Z" fill="url(#paint5_linear_11117_32952)"/>
<path d="M49.7262 105.462C49.4176 106.061 48.919 106.559 48.2859 106.87C46.7963 107.602 44.4406 108.42 41.2569 108.513C40.7149 108.53 40.148 108.524 39.5589 108.494C38.4556 108.437 37.4646 107.813 36.9299 106.858C36.8807 106.773 36.8353 106.684 36.7954 106.593C35.4747 103.618 33.0129 97.0396 32.81 88.9946C32.7077 84.9007 33.189 80.4264 34.7049 75.8533C35.1165 74.6082 35.6054 73.3572 36.1796 72.1027C36.1796 72.1027 36.1834 72.1006 36.1911 72.0989C36.4886 71.989 42.9094 69.6579 44.149 72.0118C44.3251 72.3471 44.3973 72.7754 44.3307 73.3194C44.1393 74.9036 44.2665 76.6037 44.5089 78.1369C44.9506 80.9153 45.7731 83.1459 45.7731 83.1459C45.7731 83.1459 49.2051 94.6631 50.0067 103.003C50.0182 103.131 50.0314 103.256 50.0428 103.381C50.0525 103.506 50.0636 103.631 50.0733 103.756C50.1205 104.361 49.9936 104.948 49.7262 105.462Z" fill="url(#paint6_linear_11117_32952)" fill-opacity="0.2"/>
<path d="M48.2866 106.869C46.7971 107.6 44.4413 108.418 41.2576 108.512C41.2576 108.512 40.3346 105.337 41.9566 104.897C43.5773 104.458 44.0852 105.843 44.0852 105.843C44.0852 105.843 44.1515 104.255 45.3682 103.986C46.5831 103.715 47.2936 104.797 47.2936 104.797C47.2936 104.797 47.3543 102.659 50.0075 103.002C50.0321 103.256 50.055 103.506 50.0741 103.755C50.176 105.06 49.4617 106.292 48.2866 106.869Z" fill="#EDEEF2"/>
<path d="M40.9369 107.792L40.3877 107.791C40.2046 107.789 40.0215 107.778 39.8381 107.773C39.7497 107.769 39.6484 107.767 39.5701 107.761C39.4979 107.754 39.4251 107.751 39.354 107.737C38.7798 107.653 38.2434 107.346 37.8686 106.906C37.776 106.795 37.6901 106.679 37.6193 106.552C37.5815 106.491 37.5486 106.427 37.5184 106.361L37.4948 106.312L37.4671 106.249L37.4109 106.121C37.2615 105.78 37.1166 105.436 36.9765 105.091C36.6956 104.399 36.4328 103.699 36.1856 102.994C35.6925 101.582 35.2643 100.147 34.904 98.695C34.1839 95.7922 33.731 92.8227 33.5948 89.8401C33.464 86.8592 33.6176 83.8638 34.1509 80.9297C34.4436 79.3031 34.8454 77.6964 35.3527 76.1229C35.8846 76.3157 36.4404 76.4991 37.0222 76.6728C36.0396 80.3687 33.9283 90.8539 38.0281 101.451C38.6869 103.153 39.9355 104.458 41.4417 105.221C40.8734 105.807 40.957 107.005 41.0898 107.79C41.0388 107.791 40.9879 107.792 40.9369 107.792Z" fill="#9D9FE6"/>
<path d="M41.0855 107.788C40.9527 107.004 40.8691 105.806 41.4374 105.219C42.4142 105.714 43.4994 105.981 44.6028 105.981C45.6218 105.981 46.6558 105.754 47.6346 105.267C48.2431 104.965 48.8284 104.583 49.3624 104.1C49.3607 104.158 49.3565 104.215 49.3496 104.273C49.3163 104.564 49.2358 104.852 49.1013 105.114C48.9675 105.377 48.7882 105.615 48.5739 105.817C48.4637 105.914 48.3503 106.009 48.2251 106.086C48.1634 106.127 48.1006 106.165 48.0344 106.197C47.9761 106.23 47.8919 106.269 47.8094 106.308C47.1592 106.616 46.4782 106.869 45.7837 107.078C44.3937 107.496 42.9412 107.717 41.4807 107.775C41.349 107.779 41.2172 107.785 41.0855 107.788Z" fill="#9D9FE6"/>
<path d="M45.9761 83.085C46.5735 84.4987 47.0641 85.9435 47.5124 87.4019C47.9656 88.8592 48.3543 90.3346 48.7076 91.8193C48.8762 92.5637 49.0547 93.3054 49.2111 94.0533L49.4517 95.1733L49.6768 96.2974C49.8331 97.0453 49.9562 97.8019 50.097 98.5539L50.2797 99.6888C50.3411 100.067 50.4025 100.446 50.4496 100.827L50.6022 101.97C50.6469 102.352 50.682 102.737 50.7218 103.12L50.7801 103.696C50.795 103.927 50.7985 104.161 50.7735 104.392C50.727 104.855 50.6022 105.311 50.3952 105.728C50.1892 106.145 49.9101 106.525 49.5745 106.848C49.4028 107.005 49.2229 107.154 49.0273 107.28C48.9302 107.345 48.8311 107.405 48.7278 107.459C48.6203 107.519 48.5325 107.56 48.4427 107.602C47.7222 107.949 46.9764 108.231 46.2177 108.464C44.6994 108.929 43.1252 109.177 41.5514 109.249C41.3544 109.255 41.1575 109.267 40.9609 109.268L40.3704 109.271C40.1738 109.269 39.9775 109.26 39.7813 109.255C39.68 109.251 39.5913 109.251 39.4796 109.243C39.3628 109.233 39.2456 109.227 39.1301 109.206C38.1984 109.073 37.3267 108.586 36.7137 107.874C36.5611 107.695 36.4214 107.504 36.3039 107.3C36.2425 107.2 36.188 107.095 36.1381 106.989L36.0996 106.91L36.0698 106.842L36.0112 106.709C35.8562 106.354 35.7068 105.998 35.5618 105.639C35.2716 104.923 35.0008 104.2 34.7467 103.471C34.2394 102.014 33.7997 100.534 33.4294 99.0359C32.6898 96.0408 32.2245 92.9729 32.0865 89.8835C32.0154 88.3391 32.0296 86.7892 32.142 85.2455C32.2502 83.7019 32.445 82.1634 32.7356 80.6423C33.0217 79.1208 33.4072 77.618 33.8774 76.143C34.1146 75.4059 34.3791 74.6784 34.6607 73.9575C34.9474 73.2388 35.2543 72.5286 35.5799 71.8272C35.7335 71.4964 36.126 71.3529 36.4568 71.5065C36.7841 71.6587 36.9283 72.0449 36.7817 72.374L36.7803 72.3771C35.5639 75.1025 34.6815 77.9714 34.1534 80.9044C33.6201 83.8385 33.4665 86.8339 33.5972 89.8148C33.7335 92.7974 34.1863 95.7669 34.9065 98.6698C35.2668 100.122 35.695 101.557 36.188 102.968C36.4353 103.674 36.6981 104.374 36.979 105.065C37.119 105.411 37.264 105.755 37.4134 106.096L37.4696 106.224L37.4973 106.286L37.5209 106.335C37.5511 106.401 37.584 106.465 37.6218 106.527C37.6925 106.653 37.7785 106.77 37.8711 106.881C38.2459 107.321 38.7823 107.628 39.3565 107.712C39.4276 107.726 39.5004 107.728 39.5725 107.736C39.6509 107.742 39.7521 107.743 39.8406 107.748C40.024 107.753 40.2071 107.764 40.3901 107.765L40.9394 107.767C41.1224 107.766 41.3048 107.756 41.4876 107.751C42.948 107.693 44.4005 107.472 45.7906 107.054C46.4851 106.845 47.1661 106.593 47.8162 106.284C47.8987 106.245 47.983 106.206 48.0412 106.173C48.1074 106.141 48.1702 106.103 48.2319 106.063C48.3571 105.985 48.4705 105.891 48.5807 105.793C48.795 105.592 48.9743 105.353 49.1081 105.091C49.2427 104.828 49.3231 104.54 49.3564 104.249C49.3748 104.102 49.3723 103.956 49.3661 103.807L49.3141 103.248C49.2784 102.876 49.2482 102.504 49.2083 102.131L49.0689 101.014C49.0266 100.641 48.9694 100.269 48.9126 99.8972L48.743 98.7807C48.6106 98.0383 48.4965 97.2936 48.3484 96.5529L48.1362 95.4406L47.9081 94.3304C47.7597 93.5897 47.5891 92.8526 47.4292 92.1137C47.0925 90.6387 46.7631 89.1619 46.4504 87.6782C46.131 86.197 45.8263 84.7084 45.5686 83.2064L45.5683 83.2043C45.5482 83.0881 45.6262 82.9775 45.7427 82.9578C45.8426 82.9404 45.9383 82.9956 45.9761 83.085Z" fill="#371B45"/>
<path d="M78.0699 88.9947C77.8671 97.0393 75.4053 103.618 74.0842 106.593C74.0426 106.686 73.9993 106.775 73.9497 106.86C73.4154 107.813 72.424 108.437 71.3211 108.494C70.7316 108.524 70.1651 108.53 69.6231 108.513C66.439 108.42 64.0833 107.601 62.5937 106.87C61.9609 106.559 61.4623 106.06 61.1534 105.462C60.8864 104.948 60.7591 104.361 60.8066 103.756C60.816 103.631 60.8275 103.506 60.8372 103.381C60.8483 103.256 60.8614 103.13 60.8732 103.004C61.6749 94.6628 65.1069 83.146 65.1069 83.146C65.1069 83.146 65.9917 80.7465 66.4182 77.8225C66.6308 76.3746 66.7272 74.7959 66.5489 73.3195C66.4411 72.4211 66.7064 71.8354 67.1991 71.4734C69.1075 70.0712 74.4198 72.0005 74.6889 72.099C74.6965 72.1007 74.7 72.1028 74.7 72.1028C75.2139 73.2227 75.6573 74.3389 76.0401 75.4515C77.6622 80.1647 78.176 84.7815 78.0699 88.9947Z" fill="url(#paint7_linear_11117_32952)"/>
<path d="M78.0699 88.9947C77.8671 97.0393 75.4053 103.618 74.0842 106.593C74.0426 106.686 73.9993 106.775 73.9497 106.86C73.4154 107.813 72.424 108.437 71.3211 108.494C70.7316 108.524 70.1651 108.53 69.6231 108.513C66.439 108.42 64.0833 107.601 62.5937 106.87C61.9609 106.559 61.4623 106.06 61.1534 105.462C60.8864 104.948 60.7591 104.361 60.8066 103.756C60.816 103.631 60.8275 103.506 60.8372 103.381C60.8483 103.256 60.8614 103.13 60.8732 103.004C61.6749 94.6628 65.1069 83.146 65.1069 83.146C65.1069 83.146 65.9917 80.7465 66.4182 77.8225C66.6308 76.3746 66.7272 74.7959 66.5489 73.3195C66.4411 72.4211 66.7064 71.8354 67.1991 71.4734C69.1075 70.0712 74.4198 72.0005 74.6889 72.099C74.6965 72.1007 74.7 72.1028 74.7 72.1028C75.2139 73.2227 75.6573 74.3389 76.0401 75.4515C77.6622 80.1647 78.176 84.7815 78.0699 88.9947Z" fill="url(#paint8_linear_11117_32952)" fill-opacity="0.2"/>
<path d="M62.5937 106.869C64.0832 107.6 66.4389 108.418 69.623 108.512C69.623 108.512 70.5457 105.337 68.9237 104.897C67.303 104.458 66.7954 105.843 66.7954 105.843C66.7954 105.843 66.7292 104.255 65.5121 103.986C64.2975 103.715 63.5867 104.797 63.5867 104.797C63.5867 104.797 63.526 102.659 60.8728 103.002C60.8482 103.256 60.8256 103.506 60.8066 103.755C60.7043 105.06 61.4186 106.292 62.5937 106.869Z" fill="#EDEEF2"/>
<path d="M69.9345 107.792C69.8836 107.792 69.8326 107.791 69.7816 107.79C69.9148 107.005 69.998 105.807 69.4297 105.221C70.9359 104.458 72.1845 103.153 72.8433 101.451C77.105 90.4358 74.6553 79.5413 73.7386 76.2675C74.3114 76.0917 74.8599 75.9089 75.3859 75.7189C75.9563 77.4211 76.4025 79.1638 76.7205 80.93C77.2538 83.8638 77.4077 86.8596 77.277 89.8404C77.1407 92.8227 76.6876 95.7922 75.9674 98.695C75.6071 100.147 75.1789 101.582 74.6859 102.994C74.439 103.699 74.1758 104.399 73.895 105.091C73.7549 105.436 73.6099 105.78 73.4605 106.121L73.4047 106.249L73.3769 106.312L73.353 106.361C73.3232 106.427 73.2902 106.491 73.2524 106.553C73.1814 106.679 73.0957 106.795 73.0028 106.906C72.628 107.346 72.0919 107.653 71.5174 107.737C71.4463 107.751 71.3735 107.754 71.3014 107.761C71.2234 107.767 71.1221 107.769 71.0333 107.773C70.8503 107.778 70.6672 107.789 70.4838 107.791L69.9345 107.792Z" fill="#9D9FE6"/>
<path d="M69.7808 107.788C69.6491 107.785 69.5173 107.779 69.3856 107.776C67.9251 107.717 66.4726 107.496 65.0826 107.078C64.3881 106.869 63.7074 106.617 63.0569 106.308C62.9748 106.269 62.8902 106.231 62.8319 106.197C62.7657 106.165 62.7029 106.127 62.6415 106.086C62.516 106.009 62.403 105.915 62.292 105.818C62.0781 105.615 61.8988 105.377 61.765 105.114C61.6305 104.852 61.55 104.564 61.5167 104.273C61.5098 104.215 61.5056 104.158 61.5039 104.101C62.0379 104.583 62.6235 104.965 63.2317 105.267C64.2105 105.754 65.2445 105.981 66.2635 105.981C67.3669 105.981 68.4521 105.714 69.4289 105.219C69.9972 105.806 69.914 107.004 69.7808 107.788Z" fill="#9D9FE6"/>
<path d="M65.3091 83.2064C65.0515 84.7084 64.7467 86.1966 64.4274 87.6782C64.1146 89.1616 63.7852 90.6387 63.4489 92.1133C63.2887 92.8522 63.1177 93.5894 62.97 94.33L62.7415 95.4403L62.5293 96.5526C62.3813 97.2932 62.2672 98.038 62.1347 98.7804L61.9652 99.8969C61.9083 100.269 61.8515 100.641 61.8088 101.014L61.6698 102.131C61.6292 102.504 61.5994 102.876 61.5637 103.248L61.512 103.807C61.5054 103.956 61.5033 104.102 61.5214 104.248C61.5546 104.54 61.6351 104.828 61.7696 105.09C61.9035 105.352 62.0827 105.591 62.2967 105.793C62.4076 105.891 62.5207 105.985 62.6462 106.062C62.7075 106.103 62.7703 106.141 62.8365 106.173C62.8948 106.206 62.9794 106.245 63.0616 106.283C63.712 106.593 64.3927 106.845 65.0872 107.054C66.4773 107.472 67.9297 107.693 69.3902 107.751C69.5729 107.756 69.7556 107.766 69.9384 107.766L70.4876 107.765C70.671 107.763 70.8541 107.753 71.0372 107.747C71.1259 107.743 71.2272 107.742 71.3052 107.736C71.3773 107.728 71.4501 107.726 71.5212 107.711C72.0958 107.627 72.6318 107.321 73.0066 106.881C73.0996 106.77 73.1852 106.653 73.2563 106.527C73.2941 106.465 73.327 106.401 73.3568 106.335L73.3808 106.286L73.4085 106.224L73.4643 106.096C73.6138 105.755 73.7587 105.411 73.8988 105.065C74.1797 104.374 74.4428 103.673 74.6897 102.968C75.1828 101.556 75.611 100.121 75.9712 98.6694C76.6914 95.7665 77.1446 92.7971 77.2809 89.8148C77.4116 86.8339 77.2576 83.8381 76.7243 80.9044C76.1963 77.971 75.3142 75.1025 74.0975 72.3768L74.0964 72.3743C73.9477 72.0411 74.0971 71.6511 74.4303 71.5023C74.7601 71.3553 75.146 71.5009 75.2979 71.8272C75.6238 72.5283 75.9307 73.2388 76.2171 73.9572C76.4986 74.6781 76.7632 75.4059 77.0007 76.1427C77.4705 77.6177 77.8564 79.1204 78.1421 80.6423C78.4331 82.163 78.6276 83.7015 78.7358 85.2455C78.8484 86.7892 78.8623 88.3388 78.7912 89.8831C78.6532 92.9725 78.1879 96.0405 77.4487 99.0356C77.0784 100.533 76.6384 102.014 76.1311 103.471C75.8769 104.2 75.6061 104.923 75.3162 105.639C75.1713 105.998 75.0215 106.354 74.8665 106.709L74.8083 106.842L74.7781 106.909L74.7396 106.989C74.6897 107.095 74.6353 107.199 74.5742 107.3C74.4563 107.504 74.3166 107.694 74.1644 107.873C73.551 108.586 72.6793 109.073 71.748 109.206C71.6322 109.227 71.5146 109.233 71.3978 109.243C71.2868 109.251 71.1981 109.251 71.0968 109.255C70.9002 109.26 70.704 109.269 70.507 109.271L69.9169 109.268C69.7203 109.266 69.5233 109.255 69.3264 109.249C67.7529 109.177 66.1787 108.929 64.6604 108.464C63.9014 108.23 63.1555 107.949 62.435 107.602C62.3452 107.56 62.2575 107.519 62.1503 107.458C62.0467 107.405 61.9475 107.344 61.8508 107.28C61.6545 107.154 61.4749 107.005 61.3036 106.848C60.9676 106.525 60.6889 106.145 60.4825 105.728C60.2755 105.311 60.1507 104.855 60.1043 104.392C60.0793 104.161 60.0828 103.926 60.0973 103.696L60.1559 103.12C60.1961 102.737 60.2308 102.352 60.2755 101.97L60.4281 100.827C60.4753 100.445 60.5366 100.067 60.598 99.6888L60.7807 98.5536C60.9219 97.8015 61.0446 97.0449 61.2013 96.2974L61.426 95.1729L61.667 94.053C61.8234 93.3051 62.0019 92.5634 62.1701 91.8189C62.5234 90.3346 62.9125 88.8589 63.3653 87.4019C63.814 85.9435 64.3043 84.4987 64.9017 83.085C64.9478 82.9761 65.0733 82.9252 65.1822 82.9713C65.2755 83.0105 65.3261 83.1086 65.3095 83.2043L65.3091 83.2064Z" fill="#371B45"/>
<path d="M49.0658 78.5449C47.4445 78.46 45.9261 78.3306 44.5042 78.1607C44.4594 77.8778 44.4185 77.589 44.3828 77.2967C45.6914 77.4534 47.0627 77.5744 48.4951 77.659C48.6747 77.9569 48.8654 78.2526 49.0658 78.5449ZM63.9276 78.1566C63.8194 77.9662 63.7407 77.7582 63.697 77.5383C63.6839 77.4732 63.6707 77.4045 63.6575 77.3331C64.6422 77.2322 65.5982 77.1153 66.5226 76.9822C66.491 77.2741 66.4539 77.5626 66.4123 77.8462C65.6138 77.961 64.7861 78.0643 63.9276 78.1566Z" fill="#9D9FE6"/>
<path d="M44.5113 78.1367C42.021 77.841 39.8262 77.4183 37.897 76.8954C37.6008 76.8153 37.311 76.7328 37.0273 76.6478C37.1071 76.3483 37.1796 76.0931 37.2402 75.8861C39.3702 76.4942 41.754 76.9568 44.3899 77.2727C44.4256 77.565 44.4666 77.8538 44.5113 78.1367Z" fill="#9D9FE6"/>
<path d="M37.025 76.6475C36.4432 76.4737 35.8874 76.2903 35.3555 76.0975C35.4338 75.8548 35.5146 75.6128 35.5978 75.3715C36.1266 75.5532 36.6734 75.7244 37.2379 75.8857C37.1772 76.0927 37.1048 76.3479 37.025 76.6475Z" fill="#9D9FE6"/>
<path d="M35.3575 76.0967C35.1366 76.0166 34.9199 75.9348 34.707 75.8515C34.7854 75.6144 34.8669 75.3769 34.9508 75.139C35.1644 75.2181 35.3804 75.295 35.5999 75.3706C35.5167 75.6119 35.4359 75.854 35.3575 76.0967Z" fill="#371B45"/>
<path d="M66.4102 77.8467C66.4518 77.563 66.4889 77.2746 66.5204 76.9826C69.0845 76.6144 71.4146 76.1231 73.511 75.5093C73.5637 75.6768 73.6413 75.932 73.7353 76.267C73.6618 76.2895 73.5879 76.312 73.5134 76.3342C71.4572 76.9483 69.1012 77.4597 66.4102 77.8467Z" fill="#9D9FE6"/>
<path d="M73.7361 76.2666C73.6421 75.9317 73.5644 75.6765 73.5117 75.509C74.0682 75.346 74.6088 75.1744 75.1324 74.9944C75.2187 75.2347 75.3023 75.476 75.3834 75.7181C74.8574 75.9081 74.3089 76.0908 73.7361 76.2666Z" fill="#9D9FE6"/>
<path d="M75.3917 75.6934C75.3105 75.4513 75.227 75.21 75.1406 74.9697C75.3598 74.8941 75.5751 74.8175 75.788 74.7391C75.8754 74.9767 75.9596 75.2135 76.0411 75.4506C75.8285 75.5328 75.6122 75.6136 75.3917 75.6934Z" fill="#371B45"/>
<path d="M25.4089 65.7002C20.6064 63.6662 20.5076 59.2672 20.5272 58.5009C20.5292 58.4253 20.5324 58.3858 20.5324 58.3858C12.6114 53.7617 13.7122 45.6134 13.7122 45.6134C18.5289 32.5363 34.233 32.1417 34.233 32.1417C35.5842 58.3671 25.4089 65.7002 25.4089 65.7002Z" fill="#EFEEFE"/>
<path d="M25.4076 65.7002C20.6051 63.6662 20.5063 59.2672 20.5259 58.5009C22.0325 57.6244 23.1452 56.2496 23.9517 54.8512C25.1157 52.8325 25.7433 50.5475 25.848 48.2195C25.9638 45.637 26.598 43.067 27.2644 41.0133C27.8545 39.194 25.9995 37.5525 24.2551 38.3358C18.0299 41.1312 13.7109 45.6134 13.7109 45.6134C18.5276 32.5363 34.2317 32.1417 34.2317 32.1417C35.5829 58.3671 25.4076 65.7002 25.4076 65.7002Z" fill="#ADAEC4"/>
<path d="M14.36 45.767C14.3238 46.1297 14.1895 47.9334 14.8035 50.1439C15.7128 53.4174 17.752 55.9982 20.8647 57.8147C21.0831 57.9423 21.2094 58.1836 21.1899 58.436C21.1771 58.6177 20.9295 62.85 25.3033 64.9297C26.0151 64.2962 27.9603 62.3271 29.7834 58.3594C31.8566 53.848 34.1821 45.7805 33.6069 32.8421C32.3274 32.9496 29.3008 33.3258 25.9773 34.6042C20.2022 36.825 16.294 40.5805 14.36 45.767ZM25.4083 66.3604C25.3209 66.3604 25.2336 66.343 25.1507 66.308C20.4265 64.3066 19.9109 60.1049 19.8706 58.7585C15.8268 56.2731 14.1824 52.8793 13.5157 50.4396C12.774 47.7264 13.0467 45.6138 13.0587 45.525C13.0652 45.4771 13.0768 45.4303 13.0935 45.3853C15.1307 39.8538 19.4359 35.6943 25.5439 33.3563C30.1253 31.6025 34.0528 31.485 34.2175 31.4808C34.5802 31.4735 34.8749 31.7495 34.8933 32.107C35.5982 45.7896 33.1249 54.3019 30.9263 59.0335C28.5061 64.2415 25.9038 66.1568 25.7942 66.2359C25.6802 66.318 25.5446 66.3604 25.4083 66.3604Z" fill="#371B45"/>
<path d="M34.2361 32.1399C34.2361 32.1399 18.1848 35.2501 13.7148 45.6123C13.7148 45.6123 14.5569 31.1316 38.0491 27.9478C38.0491 27.9478 36.7925 31.4981 34.2361 32.1399Z" fill="url(#paint9_linear_11117_32952)"/>
<path d="M34.2361 32.1399C34.2361 32.1399 18.1848 35.2501 13.7148 45.6123C13.7148 45.6123 14.5569 31.1316 38.0491 27.9478C38.0491 27.9478 36.7925 31.4981 34.2361 32.1399Z" fill="url(#paint10_linear_11117_32952)" fill-opacity="0.2"/>
<path d="M15.8555 41.0762C16.3048 40.2076 16.8891 39.269 17.648 38.3099C20.283 34.9799 25.5947 30.7504 36.0772 28.9213C35.7576 29.2521 35.4469 29.5902 35.1442 29.9362C24.3163 32.0035 18.9601 36.6352 16.3147 40.5703C16.1575 40.7374 16.0044 40.9059 15.8555 41.0762Z" fill="#ECEDF1"/>
<path d="M36.943 28.7778C25.8856 30.5202 20.3553 34.8894 17.6487 38.31C16.8898 39.269 16.3055 40.2076 15.8562 41.0762C18.1244 38.4878 21.3423 36.2202 25.379 34.3901C29.8551 32.3603 33.7468 31.5646 34.0911 31.4966C35.45 31.1467 36.4118 29.7664 36.943 28.7778ZM13.7151 46.2734C13.6646 46.2734 13.6135 46.2675 13.5626 46.2558C13.2509 46.1819 13.0373 45.8948 13.0558 45.5751C13.0649 45.4187 13.3155 41.701 16.5527 37.5679C19.4994 33.8055 25.6055 28.9689 37.9604 27.2945C38.1882 27.263 38.416 27.3538 38.5612 27.5324C38.7065 27.7109 38.7481 27.9519 38.6715 28.169C38.6153 28.3274 37.2638 32.0614 34.3966 32.7809C34.3852 32.784 34.3734 32.7865 34.3619 32.7889C34.2045 32.8194 18.5991 35.9574 14.3209 45.8747C14.2148 46.1209 13.9736 46.2734 13.7151 46.2734Z" fill="#371B45"/>
<path d="M86.1698 64.4141C90.8819 62.1787 90.7945 57.7793 90.7425 57.0147C90.7373 56.9395 90.7325 56.8996 90.7325 56.8996C98.4508 51.9447 97.0063 43.8502 97.0063 43.8502C91.6406 30.9884 75.9338 31.2585 75.9338 31.2585C75.6931 57.5178 86.1698 64.4141 86.1698 64.4141Z" fill="#EFEEFE"/>
<path d="M86.1698 64.4141C90.8819 62.1787 90.7945 57.7793 90.7425 57.0147C89.1999 56.2027 88.0303 54.8764 87.1656 53.513C85.917 51.5453 85.1934 49.2891 84.9902 46.9674C84.7651 44.3925 84.0228 41.8513 83.2704 39.8277C82.6036 38.0351 84.3879 36.3167 86.1639 37.0254C92.5015 39.5548 97.0063 43.8502 97.0063 43.8502C91.6406 30.9884 75.9338 31.2585 75.9338 31.2585C75.6931 57.5178 86.1698 64.4141 86.1698 64.4141Z" fill="#ADAEC4"/>
<path d="M76.5862 31.9325C76.5359 54.5449 84.592 62.2937 86.239 63.6401C90.5212 61.3777 90.0947 57.1593 90.0739 56.9759C90.0455 56.7259 90.1613 56.4797 90.3731 56.3438C97.2777 51.9118 96.4708 44.7895 96.3626 44.0322C94.2108 38.9321 90.147 35.3451 84.2834 33.3701C80.909 32.2338 77.8691 31.9856 76.5862 31.9325ZM86.1672 65.0742C86.04 65.0742 85.9137 65.0378 85.8042 64.9657C85.6915 64.8915 83.0102 63.0881 80.3719 57.9869C77.9752 53.3525 75.1441 44.9525 75.2697 31.2522C75.2731 30.8944 75.5606 30.6045 75.9184 30.5983C76.0831 30.5962 80.012 30.5466 84.6638 32.1052C90.8651 34.1828 95.3422 38.1564 97.6116 43.5967C97.6303 43.6411 97.6438 43.6876 97.6521 43.7351C97.6681 43.8231 98.0297 45.9223 97.4035 48.6646C96.8404 51.1299 95.3412 54.5903 91.406 57.2442C91.4227 58.5913 91.0857 62.8111 86.4502 65.0108C86.3603 65.0534 86.2636 65.0742 86.1672 65.0742Z" fill="#371B45"/>
<path d="M75.9324 31.2582C75.9324 31.2582 92.1007 33.6867 97.005 43.8506C97.005 43.8506 95.5511 29.418 71.9453 27.2308C71.9453 27.2308 73.351 30.7249 75.9324 31.2582Z" fill="url(#paint11_linear_11117_32952)"/>
<path d="M75.9324 31.2582C75.9324 31.2582 92.1007 33.6867 97.005 43.8506C97.005 43.8506 95.5511 29.418 71.9453 27.2308C71.9453 27.2308 73.351 30.7249 75.9324 31.2582Z" fill="url(#paint12_linear_11117_32952)" fill-opacity="0.2"/>
<path d="M94.6706 39.4092C94.5146 39.2459 94.3547 39.0839 94.1907 38.9234C91.3811 35.1038 85.8337 30.7026 74.9281 29.0952C74.6112 28.7623 74.2863 28.4378 73.9531 28.1205C84.5036 29.5047 89.9893 33.506 92.7628 36.7216C93.5617 37.6474 94.1852 38.5607 94.6706 39.4092Z" fill="#ECEDF1"/>
<path d="M76.0499 30.6084C76.397 30.6618 80.3186 31.2921 84.8764 33.1305C88.987 34.7886 92.298 36.9179 94.6735 39.4078C94.188 38.5594 93.5646 37.6461 92.7657 36.7203C89.9169 33.4173 84.2065 29.2856 73.0853 28.0124C73.6578 28.9777 74.6772 30.3161 76.0499 30.6084ZM97.0049 44.5107C96.7566 44.5107 96.5229 44.3703 96.4106 44.1377C91.7168 34.4096 75.9924 31.9346 75.8343 31.9107C75.8225 31.909 75.8103 31.9069 75.7989 31.9045C72.904 31.3067 71.3957 27.6334 71.3329 27.4773C71.2469 27.2638 71.2785 27.021 71.4158 26.8366C71.5535 26.6521 71.7761 26.5523 72.0059 26.5738C84.4208 27.7239 90.7262 32.298 93.8295 35.9325C97.2383 39.9248 97.646 43.6286 97.662 43.7843C97.6939 44.1033 97.4924 44.3987 97.1842 44.4861C97.1245 44.5028 97.0642 44.5107 97.0049 44.5107Z" fill="#371B45"/>
<path d="M56.0876 77.0958L56.0443 77.0965C11.0211 78.0494 27.7319 50.9662 28.0058 50.5303C28.0076 50.5265 28.0076 50.5244 28.0076 50.5244C28.9628 37.9837 34.219 30.7057 39.8327 26.4856C48.7053 19.8126 60.9541 19.5533 70.101 25.8455C75.888 29.8243 81.4476 36.8731 82.9323 49.3625C82.9323 49.3625 101.422 76.1198 56.0876 77.0958Z" fill="url(#paint13_linear_11117_32952)"/>
<path d="M56.0876 77.0958L56.0443 77.0965C11.0211 78.0494 27.7319 50.9662 28.0058 50.5303C28.0076 50.5265 28.0076 50.5244 28.0076 50.5244C28.9628 37.9837 34.219 30.7057 39.8327 26.4856C48.7053 19.8126 60.9541 19.5533 70.101 25.8455C75.888 29.8243 81.4476 36.8731 82.9323 49.3625C82.9323 49.3625 101.422 76.1198 56.0876 77.0958Z" fill="url(#paint14_linear_11117_32952)" fill-opacity="0.2"/>
<path d="M78.2693 35.9678C75.9257 32.1228 73.0388 29.3514 70.1338 27.3542C68.0555 25.9242 65.6214 24.7762 63.2969 24.0199C63.465 23.8129 63.6218 23.5928 63.7639 23.3573C65.8426 24.0865 67.8492 25.0966 69.7288 26.3888C73.3137 28.8541 76.1656 32.0562 78.2693 35.9678Z" fill="#ECEDF1"/>
<path d="M31.7031 37.7939C33.6584 33.4164 36.5054 29.8107 40.2262 27.0129C43.7751 24.3444 47.852 22.7245 52.0444 22.161C52.0021 22.186 51.9619 22.2099 51.9234 22.2324C51.9331 22.2349 51.9428 22.2373 51.9522 22.2401C52.3103 22.3389 52.6227 22.5452 52.8523 22.8236C52.8807 22.8586 52.9081 22.8944 52.9341 22.9315C48.2917 23.3808 43.7525 25.0691 39.8622 27.9941C36.8664 30.2459 33.9326 33.4188 31.7031 37.7939Z" fill="#ECEDF1"/>
<path d="M47.7511 76.2607C42.9235 75.9202 38.8379 75.1474 35.5491 73.9491C31.4049 72.439 28.4924 70.2411 26.8925 67.4165C24.016 62.3379 25.9872 56.2624 27.4282 53.0759C26.7739 57.7284 27.3793 67.4037 42.6062 70.6065C42.6815 70.6225 42.756 70.6301 42.8289 70.6301C43.4443 70.6298 43.954 70.093 43.8916 69.4481C42.9103 59.3116 47.8163 54.4708 47.8562 54.4313C47.8562 54.432 47.8555 54.433 47.8548 54.4351C46.6638 57.1178 46.0951 60.047 45.8548 62.695C45.5809 65.0088 45.5133 67.6222 45.9162 70.2771C45.9776 70.8492 46.0285 71.1741 46.0296 71.1804C46.0441 71.1824 46.0584 71.1842 46.0726 71.1859C46.4023 72.8946 46.9384 74.6085 47.7511 76.2607ZM63.4811 75.9983C63.3667 74.8207 63.3452 73.2899 63.6202 71.5406C63.6431 71.3964 63.6666 71.2459 63.6913 71.0909C63.6972 71.0715 65.1222 66.143 64.2797 61.0023C64.0283 58.8144 63.3997 56.7718 62.1185 55.2839C62.0592 55.1962 61.9988 55.1088 61.9371 55.0225C61.9371 55.0225 64.7883 55.3141 65.797 62.0401C66.22 64.8594 66.1562 67.2463 65.969 68.9873C65.8819 69.7945 66.5175 70.4689 67.2886 70.4689C67.3798 70.4689 67.4728 70.4595 67.5667 70.4397C84.0311 66.979 84.5713 57.0533 83.7524 52.1584C85.3141 55.3474 87.3438 61.1431 84.7593 66.1926C83.2804 69.0819 80.4636 71.4009 76.3866 73.085C72.971 74.4962 68.6482 75.4705 63.4811 75.9983Z" fill="#9D9FE6"/>
<path d="M56.0291 76.4376C64.5904 76.2562 71.4394 75.1283 76.386 73.0846C80.4629 71.4006 83.2798 69.0816 84.7586 66.1922C88.538 58.8081 82.4504 49.828 82.3883 49.7382C82.3276 49.6498 82.2888 49.5475 82.2763 49.4411C81.0374 39.0192 76.8152 31.2631 69.7266 26.3887C60.77 20.23 48.9151 20.4807 40.2273 27.0128C33.3512 32.183 29.4608 40.1104 28.664 50.5752C28.6557 50.6824 28.6214 50.7861 28.5642 50.8773C28.5063 50.9691 22.8038 60.1989 26.8919 67.4162C28.4917 70.2407 31.4043 72.4387 35.5485 73.9487C40.5775 75.7812 47.4678 76.6182 56.0291 76.4376ZM53.7649 77.7822C38.813 77.7822 29.3911 74.516 25.7397 68.0608C21.506 60.5765 26.5874 51.5985 27.3599 50.3155C28.2143 39.5338 32.276 31.3394 39.434 25.9577C43.8992 22.6003 49.2296 20.7629 54.8488 20.644C60.4691 20.5219 65.8712 22.1356 70.4745 25.301C77.8537 30.3751 82.2583 38.3903 83.5679 49.1266C84.3942 50.3755 89.8504 59.1306 85.9371 66.7872C82.3928 73.722 72.3399 77.413 56.0572 77.7573C55.2798 77.7739 54.5142 77.7822 53.7649 77.7822Z" fill="#371B45"/>
<path d="M51.9258 22.2323C53.9882 21.0166 61.4641 16.5267 63.4274 20.3599C64.4391 22.3366 62.3546 24.8401 59.0966 26.0887C59.0966 26.0887 63.0581 29.6656 60.7159 31.6957C58.3737 33.7262 55.0391 29.5928 55.0391 29.5928L53.1851 23.4424C53.0055 22.8467 52.5281 22.3876 51.9258 22.2323Z" fill="#9D9FE6"/>
<path d="M52.9365 22.9316C52.9136 22.8987 52.8894 22.8668 52.8644 22.8356C52.8897 22.8668 52.9136 22.8987 52.9369 22.9316H52.9365ZM51.9476 22.2385C51.9403 22.2364 51.9331 22.2344 51.9258 22.2326C51.9643 22.2101 52.0048 22.1862 52.0468 22.1612H52.0471C52.0048 22.1862 51.9646 22.2097 51.9261 22.2326C51.9334 22.2344 51.9403 22.2364 51.9476 22.2385Z" fill="#ECEDF1"/>
<path d="M52.0469 22.1611C52.0888 22.1365 52.1322 22.1109 52.1776 22.0842C52.1325 22.1109 52.0888 22.1365 52.0472 22.1611H52.0469ZM52.8149 21.7128C52.9973 21.6081 53.1935 21.4964 53.4019 21.3806H53.4023C53.1939 21.4964 52.9976 21.6081 52.8149 21.7128Z" fill="#C3BAC7"/>
<path d="M54.2617 20.917C54.4139 20.8372 54.5696 20.7571 54.7288 20.6771C54.7291 20.6771 54.7298 20.6767 54.7302 20.6764C54.5707 20.7568 54.4143 20.8372 54.2617 20.917Z" fill="#C3BAC7"/>
<path d="M52.9365 22.9316C52.9133 22.8987 52.8894 22.8668 52.864 22.8356C52.6324 22.5485 52.3134 22.337 51.9473 22.2385C51.94 22.2364 51.9331 22.2344 51.9258 22.2326C51.9643 22.2097 52.0045 22.1862 52.0468 22.1612C52.0884 22.1366 52.1321 22.1109 52.1772 22.0842C52.3623 21.975 52.5766 21.8498 52.8145 21.7129C52.9972 21.6081 53.1934 21.4965 53.4018 21.3807H53.4032C53.4594 21.3491 53.5173 21.3179 53.5749 21.2864C53.5787 21.2846 53.5825 21.2826 53.5863 21.2805C53.6477 21.2472 53.709 21.2118 53.7725 21.1785C53.9303 21.0926 54.0936 21.0052 54.2614 20.9171C54.414 20.8374 54.5703 20.7569 54.7298 20.6765C55.3488 20.4091 55.975 20.163 56.6084 19.9508C57.4118 19.6831 58.2287 19.466 59.0418 19.3509C59.3938 19.3024 59.7478 19.2729 60.0931 19.2729C60.5404 19.2729 60.9735 19.3221 61.3681 19.4424C61.7152 19.5489 62.0265 19.7094 62.2793 19.9317C62.4055 20.043 62.5231 20.164 62.6212 20.3044C62.6736 20.3717 62.7172 20.4473 62.763 20.5211C62.805 20.5985 62.8493 20.6761 62.8781 20.7465C62.9478 20.9005 62.9915 21.0603 63.0102 21.2254C62.4225 20.5998 61.5955 20.3516 60.6507 20.3516C58.3608 20.3516 55.3793 21.8093 53.4355 22.8893C53.2697 22.9022 53.1023 22.9171 52.9365 22.9316Z" fill="#EBEAF2"/>
<path d="M51.3592 21.0828C52.1418 20.6147 52.9202 20.2066 53.7281 19.8193C54.5332 19.4337 55.3598 19.0891 56.2107 18.7909C57.0623 18.4954 57.9399 18.2486 58.8581 18.1064C59.7734 17.9732 60.7471 17.9251 61.7356 18.2069C62.2249 18.3491 62.7148 18.5873 63.1246 18.9382C63.3292 19.1119 63.5185 19.3071 63.6753 19.5225C63.7571 19.6275 63.8268 19.7402 63.8965 19.8515C63.961 19.9649 64.0262 20.0769 64.0827 20.2083C64.1957 20.4628 64.2789 20.736 64.316 21.0159C64.3531 21.2953 64.3504 21.5769 64.315 21.848C64.2408 22.3921 64.0397 22.8865 63.7841 23.3199C63.2675 24.1899 62.5553 24.8535 61.7949 25.4041C61.0304 25.9537 60.1954 26.3764 59.3313 26.7058L59.5377 25.5994L59.5383 25.6001C59.7828 25.8057 59.9853 25.9992 60.1937 26.2127C60.3976 26.4246 60.5969 26.6423 60.7838 26.8733C61.1562 27.3362 61.505 27.8334 61.7738 28.4083C61.9093 28.6943 62.0248 29.0012 62.1059 29.332C62.1826 29.6635 62.2197 30.0237 62.1839 30.3971C62.1503 30.7695 62.0296 31.1509 61.8379 31.4807C61.6472 31.8129 61.3889 32.0823 61.1156 32.299C60.8414 32.5195 60.5137 32.7022 60.1607 32.8139C59.8074 32.9238 59.434 32.9672 59.0831 32.9349C58.3757 32.8753 57.7731 32.6065 57.2454 32.2966C56.7159 31.9835 56.253 31.6034 55.8668 31.1614C55.4836 30.7168 55.1546 30.2331 54.9524 29.6624C54.9309 29.6017 54.9625 29.5352 55.0232 29.5137C55.0557 29.5022 55.0904 29.506 55.1185 29.5216L55.1234 29.5244C56.1303 30.0879 56.9722 30.7356 57.8511 31.2037C58.2904 31.4252 58.7488 31.5722 59.1542 31.5722C59.5595 31.5764 59.8976 31.4523 60.2027 31.1853C60.5141 30.9089 60.6784 30.6163 60.7075 30.2605C60.7356 29.9024 60.6236 29.4658 60.4267 29.0345C60.0259 28.1732 59.3431 27.3129 58.6528 26.5792C58.382 26.3376 58.3581 25.9215 58.6001 25.6503C58.6712 25.5706 58.7575 25.5123 58.8508 25.4759L58.8591 25.4728C59.6278 25.1757 60.3584 24.7863 61.0172 24.3185C61.6722 23.8511 62.2609 23.2859 62.6392 22.6469C62.8289 22.3293 62.9575 21.9944 63.0026 21.6705C63.0466 21.3463 63.0078 21.0356 62.8767 20.7468C62.8479 20.6764 62.8036 20.5987 62.7616 20.5214C62.7158 20.4476 62.6721 20.372 62.6198 20.3047C62.5217 20.1643 62.4041 20.0433 62.2779 19.932C62.0251 19.7097 61.7138 19.5492 61.3667 19.4427C60.668 19.2295 59.8487 19.2395 59.0404 19.3512C58.2273 19.4663 57.4104 19.6834 56.607 19.951C55.803 20.2201 55.0107 20.5447 54.2302 20.8973C53.4535 21.2506 52.674 21.6428 51.9473 22.0592L51.9348 22.0661C51.6619 22.2222 51.3138 22.1275 51.1574 21.855C51.0027 21.5849 51.0939 21.2416 51.3592 21.0828Z" fill="#371B45"/>
<path d="M59.3016 33.7275C58.7683 33.7275 58.1952 33.6381 57.5974 33.447C54.4258 32.4342 53.9851 30.0057 53.9688 28.8202C53.9657 28.6045 54.1408 28.4537 54.3308 28.4537C54.3994 28.4537 54.4698 28.4731 54.5343 28.5164C54.6085 28.5664 54.682 28.6149 54.7555 28.6621L55.0135 29.5175C54.958 29.5417 54.9303 29.6048 54.9511 29.6628C55.1532 30.2335 55.4823 30.7172 55.8654 31.1617C56.2517 31.6038 56.7146 31.9838 57.2441 32.2969C57.7718 32.6069 58.3744 32.8756 59.0818 32.9352C59.1577 32.9422 59.2343 32.9456 59.312 32.9456C59.5928 32.9456 59.8824 32.9002 60.1594 32.8142C60.5124 32.7026 60.8401 32.5199 61.1143 32.2993C61.3875 32.0826 61.6459 31.8132 61.8366 31.481C62.0283 31.1513 62.149 30.7699 62.1826 30.3975C62.2183 30.0241 62.1812 29.6638 62.1046 29.3323C62.0235 29.0015 61.908 28.6947 61.7724 28.4086C61.5037 27.8337 61.1549 27.3365 60.7825 26.8736C60.6209 26.6742 60.4503 26.4846 60.2756 26.3001C60.5023 26.1909 60.726 26.074 60.9458 25.9485L61.2887 26.4159C64.3622 30.3496 62.5796 33.7275 59.3016 33.7275Z" fill="#9D9FE6"/>
<path d="M59.1742 31.5723C59.1676 31.5723 59.1614 31.5723 59.1551 31.5723C58.7498 31.5723 58.2914 31.4252 57.8521 31.2037C56.9731 30.7356 56.1312 30.0879 55.1243 29.5244L55.1195 29.5217C55.1021 29.5123 55.0827 29.5071 55.0629 29.5071C55.0498 29.5071 55.0369 29.5092 55.0241 29.5137C55.021 29.5147 55.0182 29.5158 55.0158 29.5172L54.7578 28.6618C55.9731 29.4454 57.0962 29.9007 58.0591 30.1586C58.2377 30.2065 58.4114 30.2287 58.5795 30.2287C59.4304 30.2287 60.1194 29.6552 60.3732 28.9211C60.3919 28.9589 60.41 28.9967 60.4276 29.0345C60.6246 29.4658 60.7366 29.9024 60.7085 30.2606C60.6794 30.6163 60.515 30.909 60.2037 31.1853C59.9034 31.4481 59.5709 31.5723 59.1742 31.5723Z" fill="#9D9FE6"/>
<path d="M59.3131 32.9453C59.2355 32.9453 59.1588 32.9418 59.0829 32.9349C58.3755 32.8753 57.7729 32.6066 57.2452 32.2966C56.7157 31.9835 56.2528 31.6034 55.8666 31.1614C55.4834 30.7168 55.1544 30.2331 54.9522 29.6624C54.9314 29.6045 54.9592 29.5414 55.0146 29.5171C55.0171 29.5158 55.0198 29.5147 55.023 29.5137C55.0358 29.5092 55.0486 29.5071 55.0618 29.5071C55.0816 29.5071 55.101 29.5123 55.1183 29.5216L55.1232 29.5244C56.1301 30.0879 56.972 30.7356 57.8509 31.2037C58.2902 31.4252 58.7486 31.5722 59.154 31.5722C59.1602 31.5722 59.1665 31.5722 59.173 31.5722C59.5697 31.5722 59.9022 31.4481 60.2025 31.1853C60.5139 30.9089 60.6782 30.6163 60.7073 30.2605C60.7354 29.9024 60.6234 29.4658 60.4265 29.0345C60.4088 28.9967 60.3908 28.9589 60.372 28.9211C60.5673 28.3573 60.5052 27.6982 60.0621 27.1316C59.6332 26.5841 59.2653 26.2464 59.2653 26.2464L60.4573 25.2811L60.9469 25.9482C60.7271 26.0737 60.5035 26.1906 60.2767 26.2998C60.4514 26.4842 60.622 26.6739 60.7836 26.8733C61.156 27.3362 61.5048 27.8334 61.7736 28.4083C61.9091 28.6943 62.0246 29.0012 62.1057 29.332C62.1824 29.6635 62.2195 30.0237 62.1837 30.3971C62.1501 30.7695 62.0294 31.151 61.8377 31.4807C61.647 31.8129 61.3887 32.0823 61.1154 32.299C60.8412 32.5195 60.5135 32.7022 60.1605 32.8139C59.8835 32.8999 59.594 32.9453 59.3131 32.9453Z" fill="#371B45"/>
<path d="M64.6502 78.8808C64.1627 78.5694 63.8173 78.0816 63.7043 77.514C63.4685 76.334 63.2053 74.1874 63.6214 71.5408C64.2632 67.4645 65.662 59.0673 61.9394 55.0829L47.8578 54.4311C47.8578 54.4311 39.394 75.0268 55.4818 84.3318C55.8747 84.5593 56.1971 84.8991 56.3736 85.3173C56.6784 86.0406 57.5165 87.1248 59.7574 86.6605C61.8971 86.2174 62.35 85.0527 62.4086 84.3041C62.4339 83.9775 62.7123 83.7268 63.0382 83.7601C63.9127 83.8495 65.3985 83.7334 66.0281 82.1013C66.6522 80.4834 65.4727 79.4061 64.6502 78.8808Z" fill="url(#paint15_linear_11117_32952)"/>
<path d="M64.6502 78.8808C64.1627 78.5694 63.8173 78.0816 63.7043 77.514C63.4685 76.334 63.2053 74.1874 63.6214 71.5408C64.2632 67.4645 65.662 59.0673 61.9394 55.0829L47.8578 54.4311C47.8578 54.4311 39.394 75.0268 55.4818 84.3318C55.8747 84.5593 56.1971 84.8991 56.3736 85.3173C56.6784 86.0406 57.5165 87.1248 59.7574 86.6605C61.8971 86.2174 62.35 85.0527 62.4086 84.3041C62.4339 83.9775 62.7123 83.7268 63.0382 83.7601C63.9127 83.8495 65.3985 83.7334 66.0281 82.1013C66.6522 80.4834 65.4727 79.4061 64.6502 78.8808Z" fill="url(#paint16_linear_11117_32952)" fill-opacity="0.2"/>
<path d="M63.707 83.7725C63.7095 83.752 63.7122 83.7305 63.714 83.7104C63.7379 83.4035 63.9855 83.1636 64.2857 83.1636C64.3048 83.1636 64.3242 83.1646 64.3436 83.1664C64.4716 83.1795 64.6127 83.1882 64.7622 83.1882C64.9393 83.1882 65.128 83.1761 65.3211 83.1459C64.8311 83.5797 64.2365 83.7378 63.707 83.7725Z" fill="#ECEDF1"/>
<path d="M58.7432 86.7725C57.2491 86.7725 56.6249 85.9223 56.3704 85.32C56.1926 84.8997 55.868 84.5582 55.4731 84.3294C55.4592 84.3214 55.4446 84.3131 55.4311 84.3051C55.4467 84.3141 55.4616 84.3228 55.4776 84.3318C55.8704 84.5592 56.1929 84.899 56.3694 85.3172C56.6232 85.9195 57.247 86.7725 58.7432 86.7725C59.0434 86.7725 59.3787 86.7381 59.7532 86.6605C59.8066 86.6497 59.8586 86.6383 59.9096 86.6261C59.8586 86.6383 59.8066 86.6497 59.7532 86.6608C59.3787 86.7381 59.0434 86.7725 58.7432 86.7725ZM55.4301 84.3044C55.427 84.3027 55.4228 84.3002 55.42 84.2985C55.4238 84.3009 55.4259 84.302 55.4301 84.3044ZM55.3808 84.2756C55.3788 84.2746 55.3788 84.2746 55.3767 84.2735C55.3777 84.2739 55.3798 84.2753 55.3808 84.2756ZM55.3566 84.2614L55.3545 84.2604C55.3555 84.2611 55.3555 84.2607 55.3566 84.2614ZM55.3441 84.2541H55.3438C55.3448 84.2545 55.3431 84.2538 55.3441 84.2541Z" fill="#BFB9C7"/>
<path d="M45.8555 62.6989C45.8555 62.6982 45.8555 62.6964 45.8558 62.6954C46.4082 58.0259 47.8 54.5728 47.8558 54.4355C47.8565 54.4341 47.8568 54.4327 47.8575 54.4313C47.8575 54.4313 47.8575 54.4316 47.8572 54.4316C47.8575 54.4313 47.8575 54.4313 47.8575 54.4313C47.8624 54.4316 47.8672 54.4316 47.8721 54.432L47.8575 54.4313C47.8575 54.4313 46.4189 57.9319 45.8555 62.6989Z" fill="#9E9AAD"/>
<path d="M45.9173 70.2773C45.5144 67.6224 45.582 65.009 45.8559 62.6953C45.8556 62.6963 45.8556 62.698 45.8556 62.6987C45.582 65.0115 45.5148 67.6238 45.9173 70.2773ZM47.8559 54.4353C47.8566 54.4333 47.8573 54.4322 47.8573 54.4315C47.8576 54.4315 47.8577 54.4312 47.8577 54.4312C47.857 54.4326 47.8566 54.4339 47.8559 54.4353Z" fill="#847A93"/>
<path d="M58.7471 86.7725C57.251 86.7725 56.6272 85.9195 56.3734 85.3172C56.1969 84.899 55.8744 84.5592 55.4816 84.3318C55.4656 84.3228 55.4507 84.3141 55.4351 84.3051C55.4341 84.3044 55.4348 84.3051 55.4341 84.3044C55.4299 84.302 55.4278 84.3009 55.424 84.2985C55.423 84.2982 55.423 84.2978 55.422 84.2975C55.4188 84.2957 55.4161 84.294 55.4129 84.2923C55.4122 84.2916 55.4105 84.2905 55.4095 84.2902C55.4074 84.2888 55.4043 84.2871 55.4025 84.286C55.4005 84.285 55.3991 84.2839 55.397 84.2829C55.3952 84.2819 55.3935 84.2808 55.3914 84.2798C55.3894 84.2784 55.3866 84.2767 55.3848 84.2756C55.3838 84.2753 55.3817 84.2739 55.3807 84.2735C55.3779 84.2718 55.3755 84.2701 55.3724 84.2683C55.3713 84.268 55.3706 84.2676 55.3699 84.2669C55.3668 84.2652 55.3633 84.2631 55.3606 84.2614C55.3595 84.2607 55.3595 84.2611 55.3585 84.2604C55.3547 84.2579 55.3519 84.2565 55.3481 84.2541C55.3471 84.2538 55.3488 84.2545 55.3477 84.2541C49.2265 80.6592 46.7074 75.4151 45.9242 70.323C45.9242 70.3223 45.9238 70.3212 45.9238 70.3205C45.9235 70.3181 45.9231 70.316 45.9228 70.3136C45.9228 70.3126 45.9224 70.3105 45.9221 70.3098C45.9221 70.3081 45.9217 70.306 45.9214 70.3046C45.921 70.3022 45.9207 70.3001 45.9203 70.2977C45.9203 70.297 45.92 70.2959 45.92 70.2952C45.919 70.2886 45.9183 70.2838 45.9172 70.2772C45.5147 67.6236 45.5819 65.0113 45.8555 62.6986C46.419 57.9317 47.8576 54.431 47.8576 54.431L47.8721 54.4317C48.3943 54.4654 48.748 54.9796 48.5895 55.4809C46.9914 60.5398 43.4474 76.0191 56.7867 83.7368C57.1813 83.9653 57.5048 84.3068 57.6823 84.7267C57.9372 85.3287 58.5609 86.1788 60.055 86.1788C60.3553 86.1788 60.6909 86.1445 61.0654 86.0669C61.1948 86.0402 61.3175 86.0103 61.435 85.9784C61.0717 86.2413 60.5814 86.4705 59.9136 86.6261C59.8626 86.6383 59.8106 86.6497 59.7572 86.6605C59.3827 86.7381 59.0474 86.7725 58.7471 86.7725Z" fill="#9D9FE6"/>
<path d="M50.1248 61.1322C50.9219 60.6804 51.779 60.4048 52.6615 60.212C53.5446 60.0265 54.4555 59.9468 55.3695 59.988C56.2818 60.0289 57.202 60.1922 58.0654 60.5258C58.928 60.8521 59.7366 61.3496 60.3597 62.0188C60.4246 62.0882 60.4207 62.1971 60.3511 62.2616C60.3042 62.3056 60.2387 62.3177 60.1815 62.2994L60.1739 62.2969C59.7529 62.161 59.358 62.0157 58.9527 61.9055C58.5487 61.7949 58.1507 61.6901 57.746 61.6142C56.9402 61.4547 56.1271 61.3583 55.3029 61.3115C53.6535 61.2175 51.9722 61.3399 50.2413 61.4762L50.2305 61.4772C50.1286 61.4852 50.0398 61.4093 50.0318 61.3077C50.0259 61.2338 50.0644 61.1666 50.1248 61.1322Z" fill="#371B45"/>
<path d="M51.4343 71.0523C52.0581 70.5391 52.7605 70.1695 53.4977 69.8679C54.2362 69.5724 55.0154 69.3651 55.8156 69.2621C56.6138 69.1588 57.438 69.1612 58.2386 69.3197C59.0372 69.4719 59.8152 69.7812 60.4581 70.268C60.525 70.3183 60.5382 70.4133 60.4875 70.4802C60.4525 70.5263 60.396 70.5468 60.3426 70.5384L60.3388 70.5377C59.5739 70.4136 58.853 70.3266 58.1263 70.3134C57.4023 70.2975 56.6818 70.337 55.9588 70.4216C54.5122 70.5911 53.0698 70.9507 51.5875 71.3332L51.5785 71.3356C51.4915 71.3581 51.4024 71.3058 51.3802 71.2187C51.3639 71.1556 51.3871 71.0911 51.4343 71.0523Z" fill="#371B45"/>
<path d="M54.4203 78.7224C54.7958 78.2373 55.257 77.85 55.7511 77.5012C56.249 77.1593 56.7923 76.8778 57.3658 76.6649C57.939 76.4499 58.5537 76.3285 59.1702 76.3032C59.3256 76.3022 59.4806 76.306 59.6338 76.3098C59.7878 76.3164 59.9421 76.348 60.0939 76.3698L60.32 76.4111C60.3949 76.4281 60.4691 76.452 60.5423 76.4759C60.6886 76.5241 60.8332 76.5733 60.9729 76.6316C61.0312 76.6559 61.0586 76.7228 61.0343 76.781C61.0176 76.8213 60.9802 76.8473 60.9393 76.8507L60.9296 76.8514C60.3401 76.9034 59.7947 76.9416 59.2531 77.0577C58.7157 77.1767 58.1869 77.3112 57.6661 77.4998C57.146 77.6867 56.6321 77.9024 56.1207 78.1416C55.6082 78.3774 55.0982 78.6416 54.5808 78.9051L54.5742 78.9083C54.5132 78.9395 54.4387 78.9152 54.4078 78.8542C54.3856 78.8101 54.3922 78.7592 54.4203 78.7224Z" fill="#371B45"/>
<path d="M48.043 54.5085C47.7178 56.0566 47.3901 57.5927 47.1072 59.1273C46.8197 60.6606 46.5545 62.1977 46.4421 63.7479C46.2042 66.8401 46.3828 69.9725 47.2403 72.9174C47.6696 74.3865 48.2708 75.8001 49.0447 77.1115L49.336 77.6028L49.4088 77.7256L49.491 77.8424L49.655 78.0761L49.9819 78.5445C50.0901 78.7013 50.1966 78.8594 50.3228 79.0022L51.0488 79.8854L51.8436 80.7092L52.0422 80.9152C52.1112 80.9811 52.1851 81.0424 52.2562 81.1059L52.6868 81.4852L53.1171 81.8645C53.2617 81.9901 53.4216 82.0972 53.5727 82.2144C53.8817 82.4419 54.183 82.679 54.4968 82.8999L55.4704 83.5185L56.0037 83.8558C56.2162 84.0015 56.4122 84.1755 56.5827 84.377C56.752 84.5781 56.8959 84.8114 56.9992 85.0562C57.0554 85.1925 57.1282 85.3187 57.2121 85.4307C57.2967 85.5431 57.3893 85.6453 57.4992 85.7268C57.5494 85.7733 57.6122 85.8038 57.668 85.844C57.7308 85.8742 57.7894 85.9113 57.8563 85.9366C58.1184 86.0462 58.427 86.0971 58.7564 86.0968C58.9197 86.1013 59.0914 86.0802 59.2613 86.0652C59.434 86.033 59.6077 86.0132 59.7797 85.9664C60.1247 85.8867 60.4551 85.7781 60.7405 85.627C61.3181 85.3267 61.6822 84.8735 61.7411 84.3045L61.7477 84.2494C61.7536 84.1984 61.7585 84.1474 61.7699 84.0972C61.7907 83.9959 61.824 83.8971 61.8687 83.8031C61.9582 83.6156 62.0969 83.4509 62.2689 83.3253C62.4422 83.2026 62.6531 83.1197 62.8701 83.102C62.9242 83.0979 62.9786 83.0951 63.032 83.0982L63.1381 83.1055L63.2637 83.1149C63.5976 83.1332 63.9232 83.101 64.213 83.016C64.5008 82.9256 64.7487 82.7834 64.9498 82.5847C65.1478 82.3839 65.3042 82.1197 65.4127 81.824C65.626 81.2428 65.541 80.7127 65.1568 80.2207C64.9706 79.9755 64.7175 79.7529 64.437 79.5574L64.1919 79.3944C64.0854 79.3205 63.9824 79.2408 63.8867 79.1524C63.6929 78.978 63.5247 78.7741 63.3857 78.5508C63.2474 78.3271 63.1402 78.0827 63.0709 77.8275C63.0528 77.7651 63.0386 77.6957 63.0255 77.6375L62.9956 77.4842L62.9398 77.1777C62.8698 76.7682 62.8167 76.3577 62.7782 75.9465C62.7006 75.1236 62.6801 74.2974 62.7189 73.4739C62.739 73.062 62.7692 72.6507 62.8171 72.2412C62.8597 71.8328 62.9277 71.4181 62.987 71.0325C63.1094 70.2506 63.2283 69.4725 63.3302 68.6948C63.54 67.1404 63.6912 65.5849 63.7321 64.0343C63.7706 62.4851 63.6829 60.9404 63.4065 59.4467C63.1246 57.9561 62.6271 56.5195 61.7307 55.2768L61.7276 55.2723C61.6357 55.1451 61.6645 54.9672 61.7921 54.8753C61.901 54.7966 62.0466 54.8067 62.144 54.8906C62.7755 55.4346 63.2917 56.117 63.6891 56.8531C64.0896 57.5899 64.3815 58.3791 64.5878 59.1811C65.0001 60.7892 65.0996 62.4355 65.0916 64.0558C65.0812 65.6793 64.9339 67.2888 64.7293 68.88C64.6242 69.6754 64.5022 70.4663 64.3781 71.2516C64.316 71.65 64.2546 72.0186 64.2148 72.3993C64.1697 72.778 64.1412 73.1584 64.1222 73.5391C64.0878 74.3002 64.0972 75.0637 64.1624 75.8216C64.1943 76.2006 64.2401 76.5779 64.3004 76.9513L64.3489 77.2304L64.3746 77.3691C64.3833 77.4076 64.3878 77.436 64.3975 77.469C64.4308 77.5973 64.4835 77.72 64.5525 77.8344C64.6222 77.9482 64.7068 78.0546 64.8077 78.1468C64.8569 78.1936 64.911 78.2356 64.9668 78.2755L65.2158 78.4443C65.583 78.7051 65.9325 79.0126 66.2279 79.3996C66.5251 79.7796 66.757 80.2595 66.8361 80.7799C66.9203 81.2994 66.8416 81.8309 66.6703 82.2834C66.5049 82.7307 66.2532 83.1672 65.8905 83.5303C65.5271 83.8905 65.0639 84.1478 64.5937 84.2889C64.1208 84.4255 63.6451 84.4626 63.1877 84.4359L63.0164 84.4224L62.9738 84.4186C62.9648 84.4182 62.9741 84.4193 62.9741 84.4193C62.9779 84.4183 62.9828 84.42 62.9873 84.4186C63.0064 84.4162 63.0265 84.4099 63.0372 84.3995C63.0501 84.3919 63.0556 84.3818 63.0605 84.3739C63.0629 84.3697 63.0643 84.3655 63.065 84.3614L63.0657 84.3562L63.056 84.4488C63.004 84.9547 62.807 85.4626 62.4932 85.8704C62.1801 86.2788 61.7786 86.5902 61.3629 86.8069C60.9464 87.0285 60.5158 87.1679 60.0896 87.2698C59.8785 87.327 59.6573 87.3565 59.4399 87.3957C59.2152 87.4186 58.9919 87.4453 58.7582 87.4421C58.296 87.4442 57.805 87.3769 57.3331 87.1821C56.8615 86.9914 56.4281 86.6523 56.1244 86.2414C55.9708 86.0365 55.8442 85.8159 55.7471 85.5864C55.6954 85.4657 55.6282 85.3586 55.5422 85.256C55.4555 85.1551 55.3522 85.0635 55.2371 84.9855L54.7631 84.6894L53.7222 84.0407C53.3851 83.8083 53.0596 83.5583 52.7281 83.3174C52.5648 83.1932 52.3938 83.0795 52.2371 82.9467L51.7708 82.5438L51.3047 82.1402C51.2278 82.0722 51.148 82.007 51.0731 81.9367L50.8564 81.7168C48.4716 79.4367 46.7635 76.4742 45.8436 73.3241C45.7389 72.9274 45.628 72.5318 45.5295 72.1337L45.2833 70.9295C45.2199 70.5256 45.1654 70.1202 45.1072 69.7156C45.0611 69.3099 45.0306 68.9029 44.9917 68.4968C44.8752 66.8699 44.9078 65.2396 45.0645 63.6269C45.1044 63.2237 45.1561 62.8222 45.2015 62.4199C45.2615 62.0198 45.3166 61.6193 45.3828 61.2206C45.5198 60.4241 45.6755 59.6304 45.8863 58.851C46.0902 58.0701 46.3364 57.3004 46.6304 56.5487C46.9251 55.7962 47.2497 55.0598 47.6689 54.3545C47.7268 54.2578 47.8519 54.2259 47.949 54.2834C48.0257 54.3292 48.0617 54.418 48.0444 54.5008L48.043 54.5085Z" fill="#371B45"/>
<path d="M45.7605 51.1307C45.7625 54.5596 43.7189 57.3404 41.1964 57.3418C38.6735 57.3432 36.6267 54.5648 36.625 51.1359C36.6229 47.7071 38.6662 44.9262 41.1891 44.9248C43.7116 44.9231 45.7584 47.7018 45.7605 51.1307Z" fill="#371B45"/>
<path d="M43.9241 49.3378C43.9248 50.5632 43.2584 51.5569 42.4359 51.5576C41.6135 51.558 40.946 50.5649 40.9453 49.3395C40.9446 48.1138 41.611 47.1201 42.4335 47.1194C43.256 47.1191 43.9234 48.1121 43.9241 49.3378Z" fill="white"/>
<path d="M40.3135 53.2245C40.3142 54.0539 39.9453 54.7266 39.4896 54.7266C39.034 54.7269 38.6644 54.0549 38.6641 53.2255C38.6634 52.3961 39.0323 51.7235 39.4879 51.7231C39.9435 51.7228 40.3131 52.3951 40.3135 53.2245Z" fill="white"/>
<path d="M64.125 51.1307C64.1229 54.5596 66.1666 57.3404 68.6891 57.3418C71.2119 57.3432 73.2584 54.5648 73.2605 51.1359C73.2625 47.7071 71.2189 44.9262 68.6964 44.9248C66.1735 44.9231 64.1271 47.7018 64.125 51.1307Z" fill="#371B45"/>
<path d="M65.9609 49.3378C65.9602 50.5632 66.6267 51.5569 67.4491 51.5576C68.2716 51.558 68.9387 50.5649 68.9394 49.3395C68.9401 48.1138 68.274 47.1201 67.4516 47.1194C66.6291 47.1191 65.9616 48.1121 65.9609 49.3378Z" fill="white"/>
<path d="M69.5703 53.2245C69.5696 54.0539 69.9385 54.7266 70.3942 54.7266C70.8498 54.7269 71.2194 54.0549 71.2197 53.2255C71.2204 52.3961 70.8515 51.7235 70.3959 51.7231C69.9403 51.7228 69.5707 52.3951 69.5703 53.2245Z" fill="white"/>
</g>
<defs>
<linearGradient id="paint0_linear_11117_32952" x1="45" y1="32" x2="73.1923" y2="147" gradientUnits="userSpaceOnUse">
<stop stop-color="#EBDEF6"/>
<stop offset="1" stop-color="white"/>
</linearGradient>
<linearGradient id="paint1_linear_11117_32952" x1="81.5493" y1="91.1934" x2="103.761" y2="29.8057" gradientUnits="userSpaceOnUse">
<stop stop-color="#C2C4FD"/>
<stop offset="0.163505" stop-color="#CFC0FF"/>
<stop offset="1" stop-color="#8E00FF"/>
</linearGradient>
<linearGradient id="paint2_linear_11117_32952" x1="81.0119" y1="60.2979" x2="98.5092" y2="65.4226" gradientUnits="userSpaceOnUse">
<stop stop-color="white" stop-opacity="0"/>
<stop offset="1" stop-color="#8E00FF"/>
</linearGradient>
<linearGradient id="paint3_linear_11117_32952" x1="52.0016" y1="109.344" x2="91.1177" y2="-117.742" gradientUnits="userSpaceOnUse">
<stop stop-color="#C2C4FD"/>
<stop offset="0.163505" stop-color="#CFC0FF"/>
<stop offset="1" stop-color="#8E00FF"/>
</linearGradient>
<linearGradient id="paint4_linear_11117_32952" x1="48.2003" y1="5.28704" x2="145.703" y2="65.2725" gradientUnits="userSpaceOnUse">
<stop stop-color="white" stop-opacity="0"/>
<stop offset="1" stop-color="#8E00FF"/>
</linearGradient>
<linearGradient id="paint5_linear_11117_32952" x1="40.6319" y1="108.522" x2="145.188" y2="-41.1995" gradientUnits="userSpaceOnUse">
<stop stop-color="#C2C4FD"/>
<stop offset="0.163505" stop-color="#CFC0FF"/>
<stop offset="1" stop-color="#8E00FF"/>
</linearGradient>
<linearGradient id="paint6_linear_11117_32952" x1="39.7388" y1="9.39937" x2="70.609" y2="14.084" gradientUnits="userSpaceOnUse">
<stop stop-color="white" stop-opacity="0"/>
<stop offset="1" stop-color="#8E00FF"/>
</linearGradient>
<linearGradient id="paint7_linear_11117_32952" x1="68.6321" y1="108.522" x2="173.185" y2="-41.2001" gradientUnits="userSpaceOnUse">
<stop stop-color="#C2C4FD"/>
<stop offset="0.163505" stop-color="#CFC0FF"/>
<stop offset="1" stop-color="#8E00FF"/>
</linearGradient>
<linearGradient id="paint8_linear_11117_32952" x1="67.7389" y1="9.40127" x2="98.6095" y2="14.0861" gradientUnits="userSpaceOnUse">
<stop stop-color="white" stop-opacity="0"/>
<stop offset="1" stop-color="#8E00FF"/>
</linearGradient>
<linearGradient id="paint9_linear_11117_32952" x1="24.7445" y1="45.6123" x2="47.9236" y2="-53.7366" gradientUnits="userSpaceOnUse">
<stop stop-color="#C2C4FD"/>
<stop offset="0.163505" stop-color="#CFC0FF"/>
<stop offset="1" stop-color="#8E00FF"/>
</linearGradient>
<linearGradient id="paint10_linear_11117_32952" x1="23.4872" y1="-1.00687" x2="60.3415" y2="15.733" gradientUnits="userSpaceOnUse">
<stop stop-color="white" stop-opacity="0"/>
<stop offset="1" stop-color="#8E00FF"/>
</linearGradient>
<linearGradient id="paint11_linear_11117_32952" x1="83.3038" y1="43.8506" x2="103.4" y2="-50.4271" gradientUnits="userSpaceOnUse">
<stop stop-color="#C2C4FD"/>
<stop offset="0.163505" stop-color="#CFC0FF"/>
<stop offset="1" stop-color="#8E00FF"/>
</linearGradient>
<linearGradient id="paint12_linear_11117_32952" x1="82.009" y1="-0.0114451" x2="118.719" y2="18.2392" gradientUnits="userSpaceOnUse">
<stop stop-color="white" stop-opacity="0"/>
<stop offset="1" stop-color="#8E00FF"/>
</linearGradient>
<linearGradient id="paint13_linear_11117_32952" x1="52.813" y1="77.1211" x2="141.316" y2="-228.285" gradientUnits="userSpaceOnUse">
<stop stop-color="#C2C4FD"/>
<stop offset="0.163505" stop-color="#CFC0FF"/>
<stop offset="1" stop-color="#8E00FF"/>
</linearGradient>
<linearGradient id="paint14_linear_11117_32952" x1="49.6139" y1="-70.2051" x2="149.386" y2="-33.719" gradientUnits="userSpaceOnUse">
<stop stop-color="white" stop-opacity="0"/>
<stop offset="1" stop-color="#8E00FF"/>
</linearGradient>
<linearGradient id="paint15_linear_11117_32952" x1="54.9566" y1="86.7725" x2="132.161" y2="-66.0119" gradientUnits="userSpaceOnUse">
<stop stop-color="#C2C4FD"/>
<stop offset="0.163505" stop-color="#CFC0FF"/>
<stop offset="1" stop-color="#8E00FF"/>
</linearGradient>
<linearGradient id="paint16_linear_11117_32952" x1="53.8937" y1="1.41866" x2="89.8924" y2="8.96825" gradientUnits="userSpaceOnUse">
<stop stop-color="white" stop-opacity="0"/>
<stop offset="1" stop-color="#8E00FF"/>
</linearGradient>
<clipPath id="clip0_11117_32952">
<rect width="110" height="110" rx="55" fill="white"/>
</clipPath>
</defs>
</svg>
