<svg width="222" height="175" viewBox="0 0 222 175" fill="none" xmlns="http://www.w3.org/2000/svg">
<g filter="url(#filter0_f_11097_16344)">
<path d="M98.7184 141.413C61.8709 141.413 32 137.223 32 132.055C32 130.875 33.5573 129.747 36.398 128.707C36.3472 129.018 36.3029 129.33 36.2649 129.643C36.1868 130.29 36.1474 130.994 36.5012 131.539C36.812 132.019 37.3634 132.276 37.8904 132.498C44.0219 135.073 50.5539 135.969 57.2051 135.968C63.4235 135.968 69.7453 135.186 75.9374 134.261C79.9019 135.181 84.3334 135.468 89.1166 135.777L90.1423 135.844C91.9203 135.96 93.6663 136.018 95.3839 136.018C110.038 136.018 122.416 131.81 131.229 123.882C151.639 125.482 165.437 128.543 165.437 132.055C165.437 137.223 135.566 141.413 98.7184 141.413ZM56.8138 130.815C53.3409 130.815 49.8748 130.542 46.4538 129.92C45.5307 129.752 44.5624 129.535 43.8743 128.897C43.32 128.384 43.0374 127.67 42.963 126.914C47.9416 125.854 54.4149 124.945 61.9629 124.244C63.3833 126.724 65.0296 128.634 66.8779 130.118C63.5368 130.56 60.1723 130.815 56.8138 130.815Z" fill="black" fill-opacity="0.5"/>
</g>
<path d="M66.0403 65.1878C67.3823 68.6687 66.515 71.1001 65.5171 72.2913C64.7272 73.2347 63.7217 73.9762 62.0911 73.9637C60.373 73.9506 57.6448 72.8389 55.8273 70.2546C55.0858 69.2001 54.2298 67.7884 52.4111 66.9947C52.455 66.5488 52.9036 66.2548 53.541 66.0626C53.0698 65.1154 52.4047 64.0733 51.0664 62.7172C51.0527 62.7031 54.8178 59.1197 62.4015 61.7062C62.88 60.6686 63.7799 60.4525 64.6689 60.858C64.0701 62.7956 65.1399 62.8533 66.0403 65.1878Z" fill="#C4612B"/>
<path d="M62.091 73.9637C60.3734 73.9512 57.6442 72.84 55.8277 70.2552C55.0872 69.205 54.2362 67.7971 52.4288 67.0023C52.4231 66.9985 52.4155 66.9952 52.4105 66.993C52.4179 66.9255 52.4328 66.8613 52.4576 66.8014C52.5251 66.6386 52.6526 66.5003 52.8253 66.3811C53.0149 66.2526 53.2604 66.1486 53.5407 66.0637C53.0689 65.1159 52.4043 64.0733 51.0664 62.7178C51.0685 62.7129 51.1462 62.635 51.3 62.5152C51.3247 62.4945 51.3536 62.4744 51.3854 62.451C51.4898 62.3721 51.6208 62.2828 51.7766 62.1831C51.8081 62.1635 51.8406 62.1418 51.8756 62.1211C51.9491 62.0781 52.0254 62.0318 52.1096 61.985C52.1464 61.9632 52.1857 61.9431 52.2249 61.9224C52.4895 61.7797 52.7982 61.6327 53.153 61.4923C55.0024 60.7611 58.0829 60.2358 62.4019 61.7068C62.8809 60.6697 63.7792 60.453 64.6693 60.858C64.0694 62.7962 65.1392 62.8533 66.0407 65.1883C67.1497 68.0704 66.7485 70.2317 66.0097 71.565V71.5694C65.8567 71.8465 65.689 72.0882 65.5164 72.2929C64.726 73.2347 63.7215 73.9768 62.091 73.9637Z" fill="#C4612B"/>
<path d="M62.091 73.9637C60.3734 73.9512 57.6442 72.8401 55.8277 70.2552C55.0872 69.205 54.2362 67.7972 52.4288 67.0023C52.4231 66.9985 52.4155 66.9952 52.4105 66.9931C52.4179 66.9256 52.4328 66.8613 52.4576 66.8014C52.5251 66.6386 52.6526 66.5004 52.8253 66.3811C53.0149 66.2527 53.2604 66.1487 53.5407 66.0637C53.0689 65.1159 52.4043 64.0734 51.0664 62.7178C51.0685 62.7129 51.1462 62.635 51.3 62.5153C51.3247 62.4946 51.3536 62.4744 51.3854 62.451C51.4898 62.3721 51.6208 62.2828 51.7766 62.1832C51.8081 62.1636 51.8406 62.1418 51.8756 62.1211C51.9491 62.0781 52.0254 62.0318 52.1096 61.985C52.1464 61.9632 52.1857 61.9431 52.2249 61.9224C52.4895 61.7798 52.7982 61.6328 53.153 61.4923C55.0024 60.7612 58.0829 60.2358 62.4019 61.7068C62.416 61.6758 62.4291 61.6475 62.4438 61.6186C62.6321 61.2457 62.8788 60.9903 63.1602 60.8379C63.1809 60.8276 63.2 60.8178 63.2201 60.8069C63.629 60.6109 64.1021 60.6261 64.5784 60.8194C64.6089 60.8314 64.6389 60.8439 64.6693 60.8581C64.0694 62.7962 65.1392 62.8533 66.0407 65.1883C67.1497 68.0705 66.7485 70.2318 66.0097 71.565V71.5694C65.8567 71.8465 65.689 72.0882 65.5164 72.2929C65.3275 72.5183 65.1261 72.7328 64.9056 72.9277C64.2093 73.5462 63.3295 73.973 62.091 73.9637Z" fill="#666566"/>
<path d="M62.091 73.9637C60.3734 73.9512 57.6442 72.84 55.8277 70.2552C55.0872 69.205 54.2362 67.7971 52.4288 67.0023C52.4231 66.9985 52.4155 66.9952 52.4105 66.993C52.4179 66.9255 52.4327 66.8613 52.4577 66.8014C52.5251 66.6386 52.6519 66.4987 52.8253 66.3811C53.0149 66.2526 53.2604 66.1486 53.5407 66.0637C53.0689 65.1159 52.4043 64.0733 51.0664 62.7178C51.0685 62.7129 51.1462 62.635 51.3 62.5152C51.3247 62.4945 51.3536 62.4744 51.3854 62.451C51.4898 62.372 51.6208 62.2828 51.7766 62.1831C51.8081 62.1635 51.8406 62.1418 51.8756 62.1211C51.9491 62.0781 52.0254 62.0318 52.1096 61.9844C52.1464 61.9632 52.1857 61.9431 52.2249 61.9224C52.4896 61.7797 52.7982 61.6327 53.1529 61.4923C52.4972 62.1439 52.5308 62.7254 53.2545 63.285C54.7014 64.4033 56.2408 64.9858 57.279 66.4693C55.9982 66.8373 57.3862 68.9927 58.0299 69.3585C60.553 70.7903 62.1629 69.0852 63.9807 69.2257C65.879 69.3732 66.0086 71.5677 66.0097 71.5694C65.8567 71.8465 65.689 72.0882 65.5164 72.2929C64.726 73.2347 63.7215 73.9768 62.091 73.9637Z" fill="#595959"/>
<path d="M53.6093 66.8109C54.8895 67.6231 55.6484 68.7196 56.2303 69.5602L56.4244 69.8389C58.0547 72.1576 60.5079 73.2268 62.0976 73.2388C62.1096 73.2388 62.1216 73.2388 62.1335 73.2388C63.2844 73.2388 64.131 72.8152 64.9585 71.8277C65.418 71.2789 66.8041 69.1987 65.3603 65.4542C65.0614 64.679 64.7478 64.1852 64.4707 63.7497C64.0374 63.068 63.653 62.4627 63.8 61.3989C63.488 61.419 63.2447 61.6243 63.0639 62.0157C62.9071 62.3549 62.5212 62.522 62.1662 62.4006C56.6718 60.5262 53.3833 62.0135 52.1518 62.8062C53.2818 64.0534 53.8342 65.0181 54.1944 65.7417C54.2901 65.9338 54.2959 66.1587 54.2109 66.3563C54.1255 66.5528 53.9578 66.7025 53.752 66.7646C53.7002 66.7804 53.6529 66.7956 53.6093 66.8109ZM62.1319 74.6973C62.1167 74.6973 62.1014 74.6967 62.0862 74.6967C60.0702 74.6815 57.1687 73.4331 55.2314 70.6779L55.0314 70.3904C54.356 69.4148 53.5902 68.3086 52.1201 67.6667C51.8303 67.5404 51.6552 67.2415 51.686 66.9268C51.7224 66.5566 51.9107 66.089 52.5236 65.7161C52.1312 65.0513 51.5502 64.2489 50.5478 63.2335C50.3101 62.9924 50.2697 62.6184 50.4502 62.3315C50.4778 62.2879 54.2459 58.403 62.0802 60.8387C62.764 59.9535 63.8599 59.6916 64.9721 60.199C65.3058 60.3509 65.4741 60.7271 65.3663 61.0777C65.0826 61.9939 65.2264 62.2193 65.7016 62.9673C65.9994 63.4361 66.3702 64.0191 66.7208 64.9294C68.4515 69.4186 66.6652 72.0612 66.0767 72.764C65.3799 73.5954 64.2148 74.6967 62.1319 74.6973Z" fill="#371B45"/>
<path d="M63.1178 61.8326C62.8287 62.4538 62.5603 63.1098 62.3627 63.7691C62.299 63.9929 62.2391 64.2183 62.2195 64.4551C62.1188 64.2373 62.0556 63.9994 61.9985 63.7626C61.8335 63.0407 61.7421 62.321 61.6816 61.58C61.6386 61.1559 61.9566 60.777 62.3828 60.7482C62.9501 60.6926 63.3753 61.3318 63.1178 61.8326Z" fill="#371B45"/>
<path d="M53.4406 65.3407C54.7219 65.455 56.0778 65.6412 57.1327 66.4148C55.974 66.1225 54.737 66.4377 53.633 66.7861C52.4668 67.1231 52.2261 65.3227 53.4406 65.3407Z" fill="#371B45"/>
<path d="M64.4076 67.9697C64.0271 67.9697 63.6373 67.611 63.6144 67.1792C63.5605 66.1394 63.9536 64.4403 64.1594 64.4403C64.1643 64.4403 64.1692 64.4414 64.1735 64.4436C64.5873 64.614 65.4621 66.723 64.9531 67.6191C64.8121 67.8674 64.6112 67.9697 64.4076 67.9697Z" fill="#A3A3A3"/>
<path d="M60.027 63.7607C60.0079 63.7607 59.9889 63.7607 59.9693 63.7602C59.2109 63.7417 55.254 62.4242 55.4087 62.2712C55.6296 62.0524 56.5722 61.9157 57.6109 61.9157C58.8343 61.9157 60.1914 62.1046 60.6607 62.5712C61.2323 63.1385 60.9938 63.7607 60.027 63.7607Z" fill="#A3A3A3"/>
<path d="M62.6371 70.7148C62.7743 73.2888 61.0567 74.8779 59.3451 77.0991C58.536 78.1488 57.7282 79.3383 57.1188 80.8371C53.4446 89.8646 63.309 95.6582 63.309 95.6582L67.1536 90.4302C63.9878 89.7551 62.219 88.3723 61.4775 86.6052C60.3027 83.8172 61.6812 80.0662 64.1397 76.5945C66.2003 73.6879 65.5296 71.5026 64.4098 70.0784C63.8158 69.3189 62.5843 69.7539 62.6371 70.7148Z" fill="url(#paint0_linear_11097_16344)"/>
<path d="M62.6371 70.7148C62.7743 73.2888 61.0567 74.8779 59.3451 77.0991C58.536 78.1488 57.7282 79.3383 57.1188 80.8371C53.4446 89.8646 63.309 95.6582 63.309 95.6582L67.1536 90.4302C63.9878 89.7551 62.219 88.3723 61.4775 86.6052C60.3027 83.8172 61.6812 80.0662 64.1397 76.5945C66.2003 73.6879 65.5296 71.5026 64.4098 70.0784C63.8158 69.3189 62.5843 69.7539 62.6371 70.7148Z" fill="url(#paint1_linear_11097_16344)" fill-opacity="0.2"/>
<path d="M59.3451 77.0992C58.536 78.1488 57.7282 79.3383 57.1188 80.8371C53.4446 89.8646 63.309 95.6582 63.309 95.6582L67.1536 90.4302C63.9878 89.7551 62.219 88.3723 61.4775 86.6052C60.4584 86.193 59.3614 85.3007 58.7635 83.4116C58.0377 81.1158 58.654 78.868 59.3451 77.0992Z" fill="#9D9FE6"/>
<path d="M63.3093 96.3848C63.1835 96.3848 63.0566 96.3526 62.9407 96.2846C62.8367 96.2236 52.5769 90.0614 56.4457 80.5608C57.3073 78.4442 58.5298 76.9329 59.6083 75.5991C60.9509 73.9391 62.0108 72.6282 61.9101 70.7521C61.8698 69.9987 62.3015 69.3394 63.0098 69.0732C63.7225 68.8053 64.5157 69.0274 64.985 69.6252C66.181 71.1485 67.1082 73.6675 64.7356 77.0151C62.1867 80.6115 61.2285 83.9651 62.1066 86.2162C62.7812 87.9447 64.5309 89.1223 67.308 89.7152C67.7021 89.799 67.9531 90.1866 67.8693 90.5802C67.7849 90.9744 67.3983 91.2248 67.0036 91.1415C63.7165 90.4398 61.6123 88.9606 60.7478 86.7459C59.6731 83.9901 60.6667 80.2347 63.5461 76.1718C65.0329 74.0731 65.1314 72.1736 63.8379 70.5251C63.7257 70.3825 63.5798 70.4162 63.5232 70.4386C63.4127 70.4794 63.3604 70.5589 63.3664 70.6743C63.4971 73.1095 62.1589 74.7639 60.7423 76.5159C59.727 77.7713 58.5766 79.1938 57.7961 81.1107C54.4055 89.4375 63.2995 94.8032 63.6795 95.0275C64.0263 95.2317 64.1422 95.6787 63.9381 96.0255C63.802 96.2563 63.5586 96.3848 63.3093 96.3848Z" fill="#371B45"/>
<path d="M90.2068 134.874C76.2465 133.961 65.5667 133.65 60.3659 118.216C60.0305 117.175 59.773 116.086 59.5879 114.96C57.8899 104.672 62.3138 91.416 70.633 85.8662C77.3647 81.3743 83.9581 81.6056 89.5966 81.8376C93.1625 81.984 96.3467 82.131 98.942 81.0825C99.6568 80.7917 100.327 80.4123 100.95 79.9163C100.95 79.9163 99.6034 73.8554 106.666 77.4893L141.273 77.7109C150.798 105.416 133.574 137.711 90.2068 134.874Z" fill="url(#paint2_linear_11097_16344)"/>
<path d="M90.2068 134.874C76.2465 133.961 65.5667 133.65 60.3659 118.216C60.0305 117.175 59.773 116.086 59.5879 114.96C57.8899 104.672 62.3138 91.416 70.633 85.8662C77.3647 81.3743 83.9581 81.6056 89.5966 81.8376C93.1625 81.984 96.3467 82.131 98.942 81.0825C99.6568 80.7917 100.327 80.4123 100.95 79.9163C100.95 79.9163 99.6034 73.8554 106.666 77.4893L141.273 77.7109C150.798 105.416 133.574 137.711 90.2068 134.874Z" fill="url(#paint3_linear_11097_16344)" fill-opacity="0.2"/>
<path d="M59.8123 104.594C60.1547 106.065 61.7085 106.996 63.2149 107.112C64.7207 107.228 66.1955 106.71 67.617 106.199C69.1898 105.634 70.7621 105.069 72.3343 104.504C71.1677 105.006 69.989 105.515 68.9677 106.27C67.372 107.45 66.2375 109.174 64.6211 110.326C63.6194 111.039 62.4674 111.507 61.3274 111.969C61.0356 112.087 60.7318 112.208 60.4177 112.19C59.8422 112.157 59.3806 111.653 59.2102 111.103C59.0398 110.552 59.098 109.96 59.1579 109.387C59.3256 107.784 59.4938 106.18 59.6615 104.577C59.5493 104.655 59.4372 104.734 59.325 104.813L59.8123 104.594Z" fill="#9D9FE6"/>
<path d="M60.2566 112.213C60.2555 112.198 60.2545 112.183 60.2539 112.168C60.2561 112.168 60.2583 112.169 60.2604 112.169C60.2588 112.183 60.2577 112.198 60.2566 112.213ZM61.0694 106.354C60.8729 106.217 60.6911 106.062 60.5294 105.891C60.7782 104.157 61.168 102.407 61.6971 100.678C63.5765 94.544 67.0308 89.4395 71.1754 86.6745C76.2003 83.3209 81.1365 82.7062 85.7101 82.7062C87.0744 82.7062 88.4077 82.7612 89.7001 82.814C90.5353 82.8489 91.3497 82.8821 92.1424 82.9C86.5621 83.3655 79.6633 83.4984 73.9165 86.8465C66.0399 91.4348 62.5726 98.7828 61.0694 106.354Z" fill="#E7E8ED"/>
<path d="M60.2552 112.17C60.2531 112.169 60.2509 112.169 60.2487 112.168C60.1246 110.149 60.2171 108.033 60.5242 105.891C60.6859 106.062 60.8677 106.217 61.0642 106.355C60.6793 108.293 60.4235 110.245 60.2552 112.17Z" fill="#DCDFE6"/>
<path d="M45.9904 112.786C47.0231 113.291 47.1261 114.714 46.9608 115.851C46.6791 117.791 46.0401 119.679 45.0855 121.39C44.4142 122.595 43.5812 123.729 43.1689 125.044C42.7566 126.359 42.8641 127.96 43.8751 128.897C44.5632 129.535 45.5315 129.752 46.4546 129.92C55.0869 131.489 63.9982 130.839 72.6141 129.181C75.6459 128.598 78.7861 127.827 81.1211 125.808C83.4566 123.788 84.6783 120.154 83.0679 117.52C84.8231 118.677 86.5783 119.835 88.3335 120.992C89.284 121.619 90.2531 122.255 91.3457 122.575C92.9866 123.055 94.7423 122.782 96.4262 122.485C100.269 121.807 104.139 121.006 107.653 119.308C111.166 117.61 114.331 114.912 115.872 111.327C117.379 107.819 117.333 103.554 119.863 100.695C119.133 109.157 122.654 117.321 125.553 125.305C125.691 125.685 125.829 126.103 125.693 126.484C125.572 126.82 125.267 127.047 124.974 127.251C113.259 135.376 97.8689 136.498 83.853 133.892C83.05 133.743 82.2437 133.582 81.4271 133.563C80.6012 133.545 79.7797 133.672 78.963 133.799C65.2438 135.929 50.6917 137.875 37.8913 132.498C37.3642 132.276 36.8129 132.019 36.502 131.539C36.1482 130.994 36.1876 130.29 36.2658 129.644C37.1056 122.706 41.1243 116.216 46.9615 112.372L45.9904 112.786Z" fill="#9D9FE6"/>
<path d="M101.715 77.938C105.374 82.3984 110.088 86.1009 115.544 87.9742C122.349 90.3114 129.902 89.7169 136.679 92.1346C137.426 92.4014 138.171 92.7101 138.79 93.2061C139.657 93.8991 140.21 94.9035 140.676 95.9102C141.531 97.7563 142.167 99.7031 142.568 101.697C143.734 98.0002 143.311 94.0134 142.876 90.1611C142.592 87.6509 142.309 85.1411 142.025 82.6308C133.965 82.1942 125.926 81.3678 117.945 80.1554C115.561 79.7928 113.172 79.3943 110.871 78.6724C107.915 77.7447 104.864 76.2704 101.862 77.0381" fill="#9D9FE6"/>
<path d="M85.7045 82.7049C81.1309 82.7049 76.1947 83.3195 71.1698 86.6731C67.0251 89.4382 63.5708 94.5426 61.6915 100.677C59.8476 106.698 59.7006 112.981 61.2887 117.916C66.1497 132.341 75.8348 132.968 89.2405 133.836L90.2678 133.902C109.758 135.18 125.568 129.234 134.788 117.168C142.873 106.588 145.015 92.2468 140.569 78.6773L106.656 78.4607C106.503 78.4596 106.354 78.4225 106.217 78.3529C103.392 76.8982 102.467 77.3283 102.251 77.4954C101.711 77.9119 101.781 79.1864 101.896 79.7041C101.976 80.0667 101.843 80.4434 101.553 80.6748C98.4226 83.172 94.3787 83.006 89.6945 82.8127C88.4021 82.7599 87.0688 82.7049 85.7045 82.7049ZM95.382 136.017C93.6644 136.017 91.9184 135.959 90.1404 135.843L89.1147 135.776C75.487 134.893 64.7234 134.197 59.442 118.525C57.7306 113.208 57.8744 106.5 59.8323 100.107C61.8701 93.4554 65.5133 88.1098 70.0907 85.0557C77.142 80.3503 84.1453 80.6394 89.7745 80.8697C93.8283 81.0363 97.3599 81.1822 99.899 79.4782C99.8086 78.5516 99.8467 76.8938 101.064 75.9558C102.31 74.9944 104.219 75.1778 106.898 76.5176L141.277 76.737C141.689 76.7398 142.056 77.0027 142.19 77.3931C147.133 91.7699 144.943 107.081 136.333 118.349C127.554 129.838 113.139 136.017 95.382 136.017Z" fill="#371B45"/>
<path d="M101.846 79.6912C102.349 81.8492 104.223 83.458 106.113 84.4912C106.72 84.8293 107.641 85.1984 108.3 85.4451C106.706 85.1968 105.068 84.7493 103.658 83.9501C102.151 83.0905 100.705 81.8068 100.056 80.1419C99.7949 78.9513 101.511 78.5169 101.846 79.6912Z" fill="#371B45"/>
<path d="M95.0015 131.353C94.8597 131.212 94.72 131.073 94.582 130.931L95.0667 131.319C95.0444 131.33 95.0238 131.341 95.0015 131.353Z" fill="#C2C7D4"/>
<path d="M90.4521 128.653C87.5449 130.865 83.4542 132.595 78.7391 133.833C66.015 137.177 48.7462 136.941 37.9327 132.97C37.2522 132.722 36.7442 132.19 36.4987 131.541L36.4963 131.533C36.3602 131.181 36.3067 130.792 36.3432 130.398C36.839 125.289 39.2525 120.229 42.2299 116.49L42.2421 116.476C42.9299 115.613 43.6494 114.821 44.381 114.113C44.9108 113.603 45.5209 113.195 46.182 112.903C46.1893 112.898 46.1966 112.896 46.2039 112.893C46.9841 112.55 47.8372 112.369 48.7049 112.369H59.7031C61.1371 112.369 62.5106 111.805 63.5505 110.815C66.7761 107.745 70.3878 105.493 74.4104 104.104L83.2626 117.65L90.4521 128.653Z" fill="url(#paint4_linear_11097_16344)"/>
<path d="M90.4521 128.653C87.5449 130.865 83.4542 132.595 78.7391 133.833C66.015 137.177 48.7462 136.941 37.9327 132.97C37.2522 132.722 36.7442 132.19 36.4987 131.541L36.4963 131.533C36.3602 131.181 36.3067 130.792 36.3432 130.398C36.839 125.289 39.2525 120.229 42.2299 116.49L42.2421 116.476C42.9299 115.613 43.6494 114.821 44.381 114.113C44.9108 113.603 45.5209 113.195 46.182 112.903C46.1893 112.898 46.1966 112.896 46.2039 112.893C46.9841 112.55 47.8372 112.369 48.7049 112.369H59.7031C61.1371 112.369 62.5106 111.805 63.5505 110.815C66.7761 107.745 70.3878 105.493 74.4104 104.104L83.2626 117.65L90.4521 128.653Z" fill="url(#paint5_linear_11097_16344)" fill-opacity="0.2"/>
<path d="M90.4553 128.653C87.5481 130.864 83.4574 132.595 78.7423 133.832C65.0878 135.951 50.6234 137.845 37.8897 132.498C37.3648 132.276 36.813 132.019 36.5019 131.54L36.4995 131.532C36.1471 130.986 36.1884 130.286 36.2662 129.644C36.8519 124.788 38.9981 120.153 42.2331 116.49L42.2453 116.476C43.4241 115.143 44.7463 113.94 46.1901 112.905C47.0359 113.484 47.1137 114.791 46.9606 115.851C46.6786 117.79 46.0394 119.679 45.0842 121.39C44.4133 122.593 43.5821 123.728 43.1689 125.043C42.7557 126.358 42.8626 127.96 43.8738 128.898C44.564 129.535 45.5314 129.753 46.455 129.921C55.0859 131.489 63.9984 130.838 72.6149 129.182C75.6456 128.599 78.7864 127.826 81.1219 125.806C83.4552 123.787 84.678 120.153 83.0687 117.52C83.1346 117.564 83.1999 117.608 83.2658 117.649L90.4553 128.653Z" fill="#9D9FE6"/>
<path d="M36.418 131.694C37.7074 130.935 38.8713 129.963 39.8479 128.829C40.1395 128.491 40.4161 128.136 40.6234 127.74C41.6609 128.393 42.6059 129.243 43.1802 130.326C43.7545 131.41 43.9188 132.75 43.4282 133.873C43.3663 134.015 43.2905 134.158 43.167 134.251C42.8915 134.459 42.501 134.352 42.1757 134.236C41.5516 134.014 40.9274 133.792 40.3033 133.57C39.0864 133.136 37.7956 132.65 37.0323 131.608" fill="#EDEDED"/>
<path d="M151.777 130.185C150.754 130.542 149.65 130.868 148.491 131.15C148.014 131.267 147.528 131.376 147.037 131.478C144.779 131.945 142.368 132.253 139.998 132.351C137.704 132.443 135.446 132.339 133.392 131.991C129.8 131.383 126.73 129.033 125.23 125.713C121.11 116.596 118.952 108.024 119.988 100.335L138.761 93.1824L140.404 92.558C140.693 94.2979 141.058 96.0749 141.493 97.8878C143.331 105.559 146.408 113.869 150.318 122.604V122.607C151.094 124.342 151.906 126.092 152.744 127.862C153.174 128.768 152.724 129.852 151.777 130.185Z" fill="url(#paint6_linear_11097_16344)"/>
<path d="M151.777 130.185C150.754 130.542 149.65 130.868 148.491 131.15C148.014 131.267 147.528 131.376 147.037 131.478C144.779 131.945 142.368 132.253 139.998 132.351C137.704 132.443 135.446 132.339 133.392 131.991C129.8 131.383 126.73 129.033 125.23 125.713C121.11 116.596 118.952 108.024 119.988 100.335L138.761 93.1824L140.404 92.558C140.693 94.2979 141.058 96.0749 141.493 97.8878C143.331 105.559 146.408 113.869 150.318 122.604V122.607C151.094 124.342 151.906 126.092 152.744 127.862C153.174 128.768 152.724 129.852 151.777 130.185Z" fill="url(#paint7_linear_11097_16344)" fill-opacity="0.2"/>
<path d="M141.494 97.8887C141.25 97.218 140.978 96.557 140.677 95.9081C140.21 94.902 139.656 93.8981 138.791 93.2051C138.781 93.198 138.771 93.1909 138.762 93.1833L140.405 92.5589C140.694 94.2988 141.059 96.0758 141.494 97.8887Z" fill="#9D9FE6"/>
<path d="M147.036 131.477C144.778 131.943 142.367 132.252 139.997 132.35C139.949 130.631 140.099 128.906 140.449 127.223C140.544 126.762 140.658 126.295 140.894 125.884C141.13 125.476 141.507 125.126 141.966 125.021C142.812 124.83 143.602 125.486 144.168 126.142C145.497 127.686 146.479 129.52 147.036 131.477Z" fill="white"/>
<path d="M121.129 100.553C121.327 105.529 122.084 110.484 123.382 115.292C124.557 119.647 126.196 123.923 128.744 127.646C129.31 128.475 129.929 129.283 130.716 129.905C132.699 131.476 135.411 131.65 137.938 131.76C135.939 130.337 134.388 128.38 132.966 126.381C127.471 118.658 123.462 109.882 121.224 100.672" fill="#9D9FE6"/>
<path d="M151.773 130.184C150.75 130.541 149.646 130.867 148.487 131.148C148.246 129.88 148.022 128.599 148.059 127.311C148.098 125.942 148.453 124.547 149.298 123.473C149.573 123.125 149.923 122.807 150.314 122.606C151.09 124.341 151.902 126.091 152.74 127.86C153.17 128.767 152.72 129.851 151.773 130.184Z" fill="white"/>
<path d="M111.479 15.0272C106.21 8.83125 101.042 4.06654 96.0263 1.42995C93.7256 0.220263 90.8941 1.6292 90.4526 4.19121C89.2908 10.9251 90.182 21.0054 91.0629 31.0684L111.479 15.0272Z" fill="url(#paint8_linear_11097_16344)"/>
<path d="M111.479 15.0272C106.21 8.83125 101.042 4.06654 96.0263 1.42995C93.7256 0.220263 90.8941 1.6292 90.4526 4.19121C89.2908 10.9251 90.182 21.0054 91.0629 31.0684L111.479 15.0272Z" fill="url(#paint9_linear_11097_16344)" fill-opacity="0.2"/>
<path d="M111.479 15.0272C106.21 8.83125 101.042 4.06654 96.0263 1.42995C93.7256 0.220263 90.8941 1.6292 90.4526 4.19121C89.2908 10.9251 90.182 21.0054 91.0629 31.0684L111.479 15.0272Z" fill="#9D9FE6"/>
<path d="M94.257 1.97365C93.8264 1.97365 93.3941 2.07381 92.988 2.27416C92.1517 2.68628 91.5817 3.44519 91.4244 4.35654C90.3546 10.559 91.0825 19.9137 91.8872 29.1666L110.062 14.886C104.751 8.75323 100.003 4.63147 95.569 2.30084C95.1547 2.08307 94.7072 1.97365 94.257 1.97365ZM91.064 32.0525C90.9312 32.0525 90.7978 32.0258 90.672 31.9714C90.3399 31.8271 90.1135 31.513 90.0819 31.1526L90.0688 31.0012C89.2016 21.0934 88.3049 10.8481 89.4825 4.02173C89.7482 2.48158 90.708 1.20004 92.1164 0.505911C93.5188 -0.185493 95.1112 -0.166988 96.4864 0.555992C101.332 3.10385 106.483 7.62792 112.231 14.3868C112.404 14.591 112.488 14.8572 112.461 15.1234C112.434 15.3902 112.3 15.6346 112.089 15.8001L91.6727 31.8418C91.4963 31.9806 91.2807 32.0525 91.064 32.0525Z" fill="#371B45"/>
<path d="M183.666 17.702C174.916 23.0492 185.853 40.5488 169.083 52.4584C169.027 53.1438 168.949 53.8341 168.847 54.5294C166.766 68.8453 155.19 84.5755 134.326 85.2708C126.959 85.176 119.944 84.4471 113.423 82.8405C74.7238 70.5585 82.9732 19.6123 115.528 8.99573C117.118 8.47527 118.768 8.0528 120.472 7.7365C141.968 4.53535 148.187 17.9012 157.756 26.5781C159.29 27.9685 161.553 28.2674 163.344 27.2292C170.538 23.0634 167.452 6.18818 181.721 5.54904C184.825 -0.269646 189.985 3.6044 187.068 9.43779C191.2 14.5422 188.454 21.0436 183.666 17.702Z" fill="url(#paint10_linear_11097_16344)"/>
<path d="M183.666 17.702C174.916 23.0492 185.853 40.5488 169.083 52.4584C169.027 53.1438 168.949 53.8341 168.847 54.5294C166.766 68.8453 155.19 84.5755 134.326 85.2708C126.959 85.176 119.944 84.4471 113.423 82.8405C74.7238 70.5585 82.9732 19.6123 115.528 8.99573C117.118 8.47527 118.768 8.0528 120.472 7.7365C141.968 4.53535 148.187 17.9012 157.756 26.5781C159.29 27.9685 161.553 28.2674 163.344 27.2292C170.538 23.0634 167.452 6.18818 181.721 5.54904C184.825 -0.269646 189.985 3.6044 187.068 9.43779C191.2 14.5422 188.454 21.0436 183.666 17.702Z" fill="url(#paint11_linear_11097_16344)" fill-opacity="0.2"/>
<path d="M168.847 54.5293C166.766 68.8452 155.19 84.5755 134.326 85.2708C126.959 85.176 119.944 84.4471 113.423 82.8405C74.7238 70.5585 82.9732 19.6123 115.528 8.9957C106.868 15.4753 101.494 26.2133 101.637 37.0466C101.671 39.5498 101.978 42.0487 102.488 44.5007C105.052 56.8507 112.986 67.9873 123.821 74.4451C126.944 76.307 130.325 77.8041 133.905 78.4313C141.447 79.7509 149.351 77.0071 155.263 72.1411C161.173 67.2752 165.249 60.4722 167.947 53.3066C168.268 53.7029 168.567 54.1091 168.847 54.5293Z" fill="#9D9FE6"/>
<path d="M161.099 30.2773C159.892 30.2773 158.689 29.8364 157.752 29.0067C148.971 21.227 142.947 9.67946 125.939 9.67946C123.977 9.67946 121.866 9.83353 119.59 10.1645C117.846 10.4808 116.157 10.9038 114.53 11.4238C113.511 11.7488 112.515 12.1108 111.543 12.5093C112.045 11.9905 112.563 11.4891 113.097 11.0035C113.895 10.6746 114.708 10.3741 115.534 10.1035C119.042 8.93361 122.798 8.2863 126.533 8.2863C132.052 8.2863 137.526 9.6996 142.086 12.9258C146.709 16.0943 150.377 20.6243 154.304 24.6797C155.141 25.5393 156.026 26.4076 156.918 27.2226C157.117 27.4066 157.337 27.5977 157.559 27.754C158.706 28.5477 159.865 28.8972 160.977 28.8967C163.572 28.8967 165.917 26.9989 167.279 24.4184C170.383 18.8648 170.615 11.1668 176.662 7.79469C178.216 6.99931 179.982 6.60188 181.796 6.51587C182.115 6.48647 182.415 6.30518 182.582 6.00412C183.023 5.20437 183.584 4.39865 184.345 3.93862C184.68 3.73011 184.993 3.63864 185.277 3.63864C186.088 3.63864 186.67 4.38503 186.879 5.29638C186.584 5.16681 186.265 5.09876 185.931 5.09876C184.751 5.09876 183.388 5.94913 182.281 7.97707C167.675 8.61676 170.835 25.4919 163.471 29.6578C162.732 30.0765 161.914 30.2773 161.099 30.2773Z" fill="#E7E8ED"/>
<path d="M102.73 17.5234C102.723 17.5191 102.716 17.5147 102.709 17.5104C105.782 14.8035 109.272 12.5791 113.094 11.0046C112.56 11.4902 112.043 11.9916 111.54 12.5105C108.335 13.8225 105.39 15.5211 102.73 17.5234Z" fill="#DCDFE6"/>
<path d="M134.312 84.887C142.802 84.0802 151.254 80.995 157.358 74.9003C163.435 68.9673 167.302 60.8289 168.112 52.3768C168.141 52.0801 168.296 51.827 168.52 51.6631C168.853 51.4274 169.624 50.8117 169.942 50.5835C174.656 46.7531 177.209 41.9813 178.051 35.9818C178.535 32.7567 178.512 29.5055 178.767 26.221C179.049 22.6176 179.797 18.9466 183.158 16.8702C183.488 16.6383 183.92 16.6671 184.221 16.9023C185.928 18.1251 187.56 17.8659 188.014 15.6948C188.408 13.7409 187.564 11.585 186.312 10.0476C186.07 9.73893 186.038 9.3317 186.198 9.0007C186.618 8.14379 186.922 7.21285 186.952 6.27156C187.061 4.65247 185.96 2.9305 184.34 3.93875C183.58 4.39878 183.019 5.2045 182.578 6.00424C182.41 6.30531 182.111 6.4866 181.791 6.51599C179.978 6.60201 178.211 6.99944 176.658 7.79482C170.611 11.1669 170.378 18.8649 167.275 24.4185C165.329 28.1058 161.375 30.3994 157.555 27.7541C157.333 27.5979 157.113 27.4068 156.913 27.2228C156.022 26.4078 155.137 25.5394 154.3 24.6798C150.373 20.6245 146.705 16.0944 142.081 12.9259C134.435 7.51608 124.222 7.20467 115.529 10.1037C99.3819 15.3937 88.4642 32.0702 88.5759 48.854C88.6265 65.2266 98.5364 76.9152 113.55 82.4372C114.05 82.6245 113.8 83.3709 113.295 83.2396C97.1504 79.1413 86.7134 65.4793 86.6622 48.8638C86.4412 26.9315 103.842 6.19425 126.451 6.20459C140.672 6.15941 146.976 13.6881 155.813 23.2132C156.47 23.8904 157.133 24.5579 157.813 25.1992C158.39 25.7561 158.998 26.3381 159.778 26.5891C163.365 27.7803 165.554 23.763 166.65 20.9435C168.723 15.5979 170.18 8.94027 175.743 6.0527C177.61 5.10216 179.669 4.66228 181.677 4.57571L180.863 5.08909C184.753 -1.97086 191.395 3.10198 187.937 9.87067L187.823 8.82431C188.215 9.32136 188.578 9.84563 188.889 10.4042C190.135 12.6886 190.668 15.7427 189.08 18.0521C187.585 20.1585 184.953 19.8492 183.108 18.4969L184.172 18.529C183.99 18.6559 183.685 18.8753 183.517 18.9885L183.323 19.1676C181.283 20.9794 180.952 23.7282 180.705 26.38C180.315 33.042 180.383 39.9179 176.673 45.8858C174.9 48.8115 172.405 51.2586 169.646 53.2485L170.051 52.5358C169.042 65.9801 160.075 78.6127 147.408 83.4476C143.234 85.0662 138.746 85.7739 134.338 85.6503C134.126 85.6449 133.96 85.4685 133.966 85.2572C133.971 85.0618 134.123 84.905 134.312 84.887Z" fill="#371B45"/>
<path d="M188.145 9.1205C187.091 10.3171 186.284 11.7108 186.246 13.3549C186.243 13.4698 186.148 13.5607 186.033 13.5586C185.94 13.5564 185.862 13.4921 185.838 13.4072C185.599 12.5612 185.552 11.6297 185.691 10.7194C185.828 9.80047 186.132 8.91199 186.502 8.07577C187.184 6.73651 189.068 7.93205 188.145 9.1205Z" fill="#371B45"/>
<path d="M162.62 27.0308C165.57 29.4535 166.207 33.7843 165.123 37.2446C164.966 37.7519 164.204 37.5728 164.293 37.0475C164.594 35.4208 164.544 33.7391 164.066 32.2251C163.597 30.7132 162.676 29.3979 161.438 28.5753C160.329 27.7734 161.549 26.169 162.62 27.0308Z" fill="#371B45"/>
<path d="M162.039 55.4297C161.22 55.4297 160.438 55.3371 159.716 55.145C157.654 54.5973 156.13 53.2945 155.309 51.3782C155.098 50.8844 155.326 50.3133 155.82 50.1015C156.314 49.8903 156.886 50.1189 157.097 50.6122C157.682 51.9786 158.732 52.8715 160.215 53.2656C162.906 53.981 166.865 52.9118 169.842 50.6661C170.271 50.3421 170.88 50.4276 171.203 50.8566C171.526 51.2851 171.441 51.8948 171.013 52.2182C168.301 54.2636 164.943 55.4297 162.039 55.4297Z" fill="#371B45"/>
<path d="M154.576 54.6724C153.561 52.0195 155.149 49.0813 157.684 48.0333C158.035 47.8699 158.374 48.3185 158.126 48.6103C157.732 49.09 157.336 49.526 157.009 49.979C155.936 51.3155 155.784 53.0016 155.397 54.6125C155.313 55.0273 154.714 55.0698 154.576 54.6724Z" fill="#371B45"/>
<path d="M114.975 73.3022C112.855 70.2034 110.089 67.5978 106.915 65.5905C94.5605 57.7809 74.9098 49.0115 73.478 28.3494C73.269 25.3382 73.9642 22.4871 75.3203 20.0542C78.0473 15.1441 83.4506 11.9359 89.5077 12.5434C95.1903 13.1145 101.743 16.0919 108.441 21.7092C113.521 29.1464 118.443 38.1156 122.731 47.5312C124.58 51.5904 126.311 55.7318 127.886 59.8688C137 74.9087 124.753 87.5963 114.975 73.3022Z" fill="url(#paint12_linear_11097_16344)"/>
<path d="M114.975 73.3022C112.855 70.2034 110.089 67.5978 106.915 65.5905C94.5605 57.7809 74.9098 49.0115 73.478 28.3494C73.269 25.3382 73.9642 22.4871 75.3203 20.0542C78.0473 15.1441 83.4506 11.9359 89.5077 12.5434C95.1903 13.1145 101.743 16.0919 108.441 21.7092C113.521 29.1464 118.443 38.1156 122.731 47.5312C124.58 51.5904 126.311 55.7318 127.886 59.8688C137 74.9087 124.753 87.5963 114.975 73.3022Z" fill="url(#paint13_linear_11097_16344)" fill-opacity="0.2"/>
<path d="M73.5232 28.9436C73.5226 28.9431 73.5226 28.942 73.5226 28.9409C73.5226 28.9425 73.5226 28.9425 73.5232 28.9436ZM73.5204 28.9131C73.5199 28.912 73.5199 28.9104 73.5199 28.9099C73.5199 28.9109 73.5199 28.9115 73.5204 28.9131ZM73.5177 28.8826C73.5177 28.881 73.5172 28.8788 73.5172 28.8766C73.5172 28.8794 73.5172 28.8805 73.5177 28.8826ZM73.515 28.8521C73.515 28.85 73.5144 28.8478 73.5144 28.8456C73.5144 28.8483 73.515 28.8494 73.515 28.8521ZM73.5123 28.8222C73.5123 28.8189 73.5123 28.8168 73.5117 28.8135C73.5123 28.8173 73.5123 28.8184 73.5123 28.8222ZM73.5074 28.7607C73.5074 28.758 73.5068 28.7542 73.5068 28.7514C73.5068 28.7536 73.5074 28.758 73.5074 28.7607ZM73.5052 28.7297C73.5046 28.7264 73.5046 28.7231 73.5041 28.7199C73.5041 28.7226 73.5046 28.7275 73.5052 28.7297ZM73.4976 28.6387C73.4976 28.6344 73.497 28.6306 73.497 28.6268C73.497 28.6306 73.4976 28.6349 73.4976 28.6387ZM73.4954 28.6072C73.4948 28.6034 73.4949 28.6001 73.4943 28.5957C73.4949 28.5995 73.4948 28.6039 73.4954 28.6072ZM73.4932 28.5778C73.4927 28.5734 73.4921 28.569 73.4921 28.5647C73.4921 28.5696 73.4927 28.5729 73.4932 28.5778ZM73.4905 28.5467C73.4905 28.5424 73.4899 28.5386 73.4899 28.5337C73.4899 28.5391 73.4905 28.5418 73.4905 28.5467ZM73.4883 28.5162C73.4883 28.5124 73.4878 28.507 73.4872 28.5026C73.4878 28.5064 73.4883 28.5124 73.4883 28.5162ZM73.484 28.4542C73.4834 28.4498 73.4834 28.4455 73.4829 28.4411C73.4834 28.446 73.4834 28.4493 73.484 28.4542ZM73.4812 28.4204C73.4812 28.4177 73.4807 28.4133 73.4807 28.4106C73.4812 28.4144 73.4812 28.4166 73.4812 28.4204ZM73.4791 28.3888C73.4791 28.3861 73.4785 28.3823 73.4785 28.3796C73.4785 28.3834 73.4791 28.385 73.4791 28.3888ZM75.3872 19.9308C77.91 15.4884 82.6339 12.4697 88.0372 12.4691C82.6345 12.4702 77.91 15.4884 75.3872 19.9308Z" fill="#F5F7F8"/>
<path d="M86.8944 52.4609C80.019 46.7206 74.4328 39.3656 73.5247 28.9417C73.5242 28.9406 73.5242 28.9406 73.5242 28.939C73.5236 28.9292 73.5225 28.9205 73.522 28.9112C73.5214 28.9096 73.5214 28.9091 73.5214 28.908C73.5209 28.8987 73.5198 28.89 73.5193 28.8808C73.5187 28.8786 73.5187 28.8775 73.5187 28.8748C73.5182 28.8666 73.5171 28.8584 73.5165 28.8503C73.5165 28.8476 73.516 28.8465 73.516 28.8437C73.5154 28.8361 73.5149 28.828 73.5138 28.8203C73.5138 28.8165 73.5138 28.8154 73.5133 28.8116C73.5127 28.8045 73.5122 28.7964 73.5116 28.7893C73.5111 28.7866 73.5111 28.7833 73.5105 28.7811C73.51 28.773 73.5095 28.7664 73.5089 28.7588C73.5089 28.7561 73.5084 28.7517 73.5084 28.7496C73.5078 28.7425 73.5073 28.7354 73.5067 28.7278C73.5062 28.7256 73.5056 28.7207 73.5056 28.718C73.5051 28.7109 73.5046 28.7055 73.504 28.6984C73.504 28.6946 73.5035 28.6902 73.5029 28.6864C73.5029 28.681 73.5018 28.6733 73.5018 28.6673C73.5013 28.6635 73.5013 28.6597 73.5007 28.6559C73.5002 28.6494 73.4997 28.6434 73.4991 28.6369C73.4991 28.6331 73.4986 28.6287 73.4986 28.6249C73.498 28.6184 73.4975 28.6118 73.4969 28.6053C73.4964 28.602 73.4964 28.5977 73.4958 28.5939C73.4953 28.5884 73.4948 28.5819 73.4948 28.5759C73.4942 28.571 73.4937 28.5677 73.4937 28.5628C73.4931 28.5568 73.4926 28.5508 73.492 28.5449C73.492 28.54 73.4915 28.5372 73.4915 28.5318C73.4909 28.5264 73.4904 28.5204 73.4899 28.5144C73.4899 28.5106 73.4893 28.5046 73.4888 28.5008C73.4882 28.4942 73.4882 28.4893 73.4877 28.4828C73.4871 28.479 73.4871 28.4741 73.4866 28.4703C73.486 28.4643 73.486 28.4583 73.4855 28.4523C73.485 28.4474 73.485 28.4441 73.4844 28.4392C73.4839 28.4322 73.4833 28.4256 73.4828 28.4186C73.4828 28.4147 73.4828 28.4126 73.4822 28.4088C73.4817 28.4011 73.4811 28.3946 73.4806 28.387C73.4806 28.3832 73.4801 28.3815 73.4801 28.3777C73.4795 28.3668 73.4784 28.357 73.4779 28.3467C73.4534 27.9939 73.4414 27.6433 73.4414 27.2949C73.4409 24.673 74.123 22.1992 75.3202 20.0515C75.3316 20.0308 75.343 20.0101 75.3545 19.9899C75.3561 19.9872 75.3583 19.9834 75.3594 19.9807C75.3659 19.9693 75.3719 19.9589 75.3784 19.9475C75.379 19.9464 75.3801 19.9448 75.3806 19.9437C75.3833 19.9382 75.386 19.9339 75.3888 19.929C77.9116 15.4866 82.636 12.4683 88.0388 12.4672C88.0393 12.4672 88.0404 12.4672 88.0415 12.4672C88.5021 12.4672 88.9675 12.489 89.4374 12.5342C89.4602 12.5364 89.4842 12.5386 89.5076 12.5407C95.1902 13.1118 101.743 16.0892 108.441 21.7065C108.508 21.8039 108.574 21.9041 108.64 22.0021C102.553 17.2918 96.6399 14.7636 91.4517 14.242C90.9585 14.193 90.4696 14.1685 89.9856 14.1685C84.5327 14.1685 79.7697 17.2428 77.2648 21.7528C75.9087 24.1857 75.2135 27.0368 75.4225 30.048C76.0965 39.7745 80.8079 46.8649 86.8944 52.4609Z" fill="#E7E8ED"/>
<path d="M115.378 73.8747C115.376 73.8736 115.376 73.8725 115.375 73.8714C115.375 73.872 115.377 73.8742 115.378 73.8747ZM115.361 73.8524C115.36 73.8513 115.36 73.8497 115.359 73.8486C115.359 73.8497 115.361 73.8513 115.361 73.8524ZM115.345 73.8295C115.344 73.8284 115.343 73.8273 115.342 73.8257C115.343 73.8268 115.344 73.8284 115.345 73.8295ZM115.314 73.7876C115.313 73.7854 115.312 73.7832 115.31 73.7816C115.311 73.7832 115.313 73.786 115.314 73.7876ZM115.282 73.7419C115.28 73.7391 115.278 73.7364 115.276 73.7342C115.278 73.737 115.28 73.7391 115.282 73.7419ZM115.219 73.6531C115.216 73.6504 115.214 73.6471 115.212 73.6444C115.215 73.6477 115.216 73.6499 115.219 73.6531ZM115.202 73.6297C115.2 73.6265 115.197 73.6232 115.195 73.6205C115.198 73.6237 115.2 73.6259 115.202 73.6297ZM115.185 73.6063C115.183 73.603 115.181 73.5998 115.178 73.5965C115.18 73.5992 115.183 73.6036 115.185 73.6063ZM115.17 73.5851C115.167 73.5813 115.165 73.5775 115.162 73.5736C115.165 73.5769 115.168 73.5813 115.17 73.5851ZM115.154 73.5622C115.152 73.5584 115.149 73.5546 115.146 73.5502C115.148 73.5541 115.152 73.5589 115.154 73.5622ZM115.138 73.5388C115.136 73.5355 115.133 73.5323 115.131 73.529C115.134 73.5328 115.135 73.535 115.138 73.5388ZM115.121 73.5149C115.119 73.5121 115.117 73.5094 115.115 73.5061C115.117 73.5099 115.119 73.5116 115.121 73.5149ZM115.105 73.4909C115.103 73.4882 115.1 73.4855 115.099 73.4827C115.1 73.4855 115.103 73.4887 115.105 73.4909ZM115.057 73.4228C115.055 73.4196 115.053 73.4169 115.051 73.4141C115.053 73.4169 115.055 73.4201 115.057 73.4228ZM115.04 73.3983C115.038 73.3962 115.037 73.394 115.036 73.3918C115.037 73.3945 115.038 73.3956 115.04 73.3983ZM115.024 73.3744C115.022 73.3722 115.02 73.37 115.019 73.3679C115.02 73.3695 115.022 73.3728 115.024 73.3744ZM115.007 73.3499C115.005 73.3477 115.004 73.3461 115.003 73.3444C115.004 73.3461 115.006 73.3483 115.007 73.3499ZM114.99 73.3254C114.989 73.3243 114.988 73.3227 114.987 73.3216C114.988 73.3227 114.989 73.3243 114.99 73.3254ZM114.924 73.2285C114.921 73.2258 114.92 73.2225 114.918 73.2198C114.92 73.223 114.921 73.2258 114.924 73.2285ZM114.887 73.1762C113.87 71.7068 112.706 70.3502 111.422 69.1165C111.425 69.1193 111.429 69.122 111.432 69.1247C112.712 70.3562 113.872 71.7101 114.887 73.1762Z" fill="#DCDFE6"/>
<path d="M119.171 77.793C117.91 76.8849 116.635 75.6028 115.395 73.8971C115.394 73.8966 115.394 73.8961 115.393 73.895C115.389 73.8884 115.384 73.8819 115.379 73.8754C115.378 73.8748 115.377 73.8727 115.376 73.8721C115.372 73.8656 115.367 73.8596 115.363 73.8531C115.362 73.852 115.36 73.8503 115.36 73.8492C115.356 73.8427 115.351 73.8367 115.346 73.8302C115.346 73.8291 115.344 73.8275 115.344 73.8264C115.339 73.8209 115.335 73.8155 115.331 73.8095C115.33 73.8079 115.329 73.8062 115.328 73.8046C115.323 73.7992 115.32 73.7937 115.316 73.7883C115.315 73.7866 115.313 73.7839 115.311 73.7823C115.308 73.7763 115.304 73.7714 115.299 73.7659C115.298 73.7632 115.296 73.761 115.295 73.7583C115.291 73.7529 115.287 73.748 115.283 73.7425C115.281 73.7398 115.279 73.7376 115.278 73.7349C115.274 73.7295 115.27 73.7246 115.266 73.7191C115.265 73.7164 115.262 73.7137 115.261 73.711C115.258 73.7077 115.255 73.7039 115.253 73.7001C115.25 73.6957 115.247 73.6919 115.244 73.6875C115.241 73.6843 115.239 73.681 115.236 73.6772C115.234 73.6734 115.23 73.669 115.228 73.6647C115.225 73.6609 115.223 73.6576 115.22 73.6538C115.218 73.6505 115.216 73.6483 115.213 73.6451C115.21 73.6402 115.206 73.6353 115.203 73.6304C115.201 73.6266 115.199 73.6244 115.197 73.6211C115.193 73.6162 115.19 73.6113 115.187 73.607C115.185 73.6042 115.181 73.5999 115.18 73.5972C115.177 73.5934 115.174 73.5895 115.172 73.5857C115.169 73.5819 115.166 73.5776 115.163 73.5743C115.161 73.5705 115.158 73.5667 115.156 73.5629C115.154 73.5596 115.15 73.5547 115.148 73.5509C115.145 73.5471 115.142 73.5433 115.139 73.5395C115.137 73.5357 115.135 73.5335 115.132 73.5297C115.129 73.5248 115.126 73.5204 115.123 73.5155C115.12 73.5123 115.119 73.5106 115.117 73.5068C115.113 73.5019 115.109 73.497 115.106 73.4916C115.104 73.4894 115.102 73.4861 115.1 73.4834C115.096 73.478 115.093 73.4725 115.089 73.4671C115.087 73.4649 115.086 73.4622 115.083 73.4594C115.081 73.4551 115.077 73.4507 115.075 73.4464C115.072 73.4431 115.07 73.4393 115.067 73.436C115.064 73.4317 115.062 73.4273 115.058 73.4235C115.057 73.4208 115.054 73.4175 115.052 73.4148C115.049 73.4094 115.045 73.4045 115.041 73.399C115.04 73.3963 115.039 73.3952 115.037 73.3925C115.033 73.3865 115.029 73.3805 115.025 73.3751C115.023 73.3734 115.022 73.3702 115.021 73.3685C115.016 73.3625 115.012 73.3565 115.008 73.3506C115.007 73.3489 115.005 73.3467 115.004 73.3451C115 73.3386 114.996 73.332 114.991 73.3261C114.991 73.325 114.99 73.3233 114.989 73.3222C114.984 73.3152 114.979 73.3081 114.974 73.301C114.97 73.295 114.966 73.289 114.962 73.283C114.961 73.2825 114.961 73.282 114.961 73.2814C114.957 73.276 114.953 73.2705 114.949 73.2651C114.949 73.2645 114.948 73.2635 114.948 73.2629C114.945 73.2575 114.941 73.2526 114.937 73.2471C114.936 73.2455 114.935 73.2438 114.934 73.2422C114.931 73.2379 114.928 73.2335 114.925 73.2291C114.923 73.2264 114.921 73.2237 114.919 73.2204C114.917 73.2177 114.915 73.215 114.913 73.2117C114.91 73.2079 114.907 73.2036 114.904 73.1998C114.903 73.1976 114.902 73.1959 114.901 73.1943C114.897 73.1889 114.894 73.184 114.89 73.1791C114.89 73.178 114.889 73.1774 114.888 73.1769C113.874 71.7108 112.714 70.3568 111.434 69.1254C113.537 70.8043 115.395 72.7751 116.919 75.0029C117.659 76.0846 118.414 77.0096 119.171 77.793Z" fill="#E7E8ED"/>
<path d="M114.975 73.3022C112.855 70.2034 110.089 67.5978 106.915 65.5905C94.5605 57.7809 74.9098 49.0115 73.478 28.3494C73.269 25.3383 73.9642 22.4872 75.3203 20.0542C75.911 19.6627 76.3825 19.1837 76.499 18.4982L77.4566 17.6381C74.3164 21.357 74.4476 26.7793 75.1042 31.6017C75.4031 33.806 75.7798 36.0082 76.4772 38.12C78.3707 43.8369 82.5659 48.5863 87.4804 52.0717C92.3926 55.557 98.0191 57.8925 103.673 59.9684C105.568 60.6658 107.498 61.3419 109.508 61.5189C114.938 61.9952 120.453 58.3085 122.087 53.1093C122.655 51.2986 122.155 50.4216 122.101 48.5254C123.951 52.5845 126.311 55.7318 127.886 59.8688C137 74.9087 124.753 87.5963 114.975 73.3022Z" fill="#9D9FE6"/>
<path d="M128.381 60.7225C131.043 69.1021 123.023 77.8519 117.919 68.616C113.767 61.9725 110.501 57.8115 102.821 54.1645C97.9323 51.8431 93.6613 48.3752 90.5484 43.9491C83.2739 33.6058 83.0654 22.4105 90.967 21.6168C92.3569 21.4774 93.7572 21.718 95.0578 22.2276C103.995 25.7265 112.137 34.0539 119.85 44.9759C120.658 46.1197 121.409 47.3044 122.099 48.5228C124.574 52.8911 126.7 57.0243 128.381 60.7225Z" fill="#EFEEFE"/>
<path d="M93.4648 46.1353C86.1909 36.5825 85.9824 26.243 93.884 25.5096C95.2739 25.3811 96.6736 25.6038 97.9742 26.0736C102.926 27.8642 107.633 31.0251 112.158 35.2024C106.744 29.1403 101.082 24.5858 95.0578 22.2274C93.7572 21.7178 92.3569 21.4772 90.967 21.6165C83.0654 22.4103 83.2739 33.6056 90.5484 43.9489C93.6613 48.375 97.9323 51.8429 102.821 54.1643C103.149 54.3205 103.467 54.4779 103.78 54.6357C99.7103 52.5376 96.1547 49.668 93.4648 46.1353Z" fill="#ADAEC4"/>
<path d="M120.839 68.9181C116.686 62.782 113.421 58.9395 105.741 55.5707C105.188 55.3284 104.645 55.0709 104.109 54.802C110.883 58.3004 114.01 62.3563 117.922 68.6159C119.918 72.2281 122.361 73.0894 124.436 72.2973C123.192 71.8378 121.947 70.7696 120.839 68.9181Z" fill="#ADAEC4"/>
<path d="M128.184 59.6854C131.943 63.9422 133.315 72.2129 129.991 77.0533C129.17 78.2847 127.989 79.324 126.606 79.8804L125.996 80.1091C125.609 80.1875 125.11 80.3437 124.72 80.3519C120.69 80.7471 117.247 77.8057 114.968 74.8103L114.265 73.8576C112.383 71.1344 109.985 68.7853 107.236 66.9337C106.182 66.2347 104.507 65.2221 103.403 64.5639C98.2078 61.4776 92.7452 58.3494 87.9549 54.6485C81.8025 49.9132 76.3741 43.801 73.9569 36.3028C73.511 35.0289 73.2002 33.627 72.9171 32.3085C72.8104 31.7129 72.7314 31.1075 72.6389 30.562C71.9203 26.1708 72.7636 21.4834 75.4753 17.8897C79.5606 12.3448 86.2002 10.3387 92.7789 12.0988C98.8709 13.5719 104.311 17.0497 108.619 21.4937C108.726 21.6059 108.722 21.7828 108.61 21.8895C108.514 21.982 108.368 21.9918 108.262 21.92C105.737 20.2606 103.216 18.6279 100.547 17.2429C96.6383 15.2466 92.43 13.5425 88.0371 13.4761C80.2993 13.4146 73.9684 20.4261 74.5247 28.0931C74.6287 29.5151 74.8165 31.0525 75.1176 32.4527C76.0578 37.145 78.2556 41.5346 81.2281 45.2699C88.3213 54.1487 98.8862 59.2869 108.302 65.374C111.213 67.3709 113.765 69.91 115.75 72.8368C117.158 74.856 118.931 76.884 121.148 77.9619C125.344 80.0083 128.798 77.491 129.906 73.2745C130.657 70.2889 130.197 67.1139 129.162 64.2296C128.958 63.7255 128.789 63.1838 128.581 62.6791C128.257 61.7972 127.884 60.9582 127.585 60.048C127.443 59.6789 127.933 59.3963 128.184 59.6854Z" fill="#371B45"/>
<path d="M128.674 60.632C130.072 63.8016 129.734 67.7573 127.708 70.6024C125.857 73.3016 122.501 74.3942 119.78 72.2089C118.622 71.3351 117.834 70.1494 117.112 68.9343C116.078 67.3098 115.002 65.6624 113.836 64.1369C111.182 60.5258 107.678 57.6453 103.669 55.6479C96.6393 52.4897 91.1717 47.823 87.4937 40.9863C85.1113 36.5281 83.1901 31.1999 84.4324 26.0862C85.0917 23.6162 86.7947 21.6302 89.2979 20.9083C91.2507 20.3492 93.3674 20.506 95.2521 21.229C95.7993 21.4527 96.5854 21.7941 97.1331 22.0325C100.476 23.6113 103.57 25.7438 106.361 28.1321C112.397 33.3416 117.252 39.7624 121.374 46.5415C121.594 46.9237 121.067 47.2993 120.783 46.9492C117.165 42.3201 113.498 37.7307 109.362 33.5665C105.095 29.2716 100.23 25.3197 94.5493 23.1148C91.5011 21.9634 87.8056 22.6434 86.6248 26.0176C85.1331 30.5983 87.1121 35.9009 89.2941 40.0004C92.297 45.6176 97.0443 50.2527 102.766 53.0723C105.16 54.2259 107.568 55.5782 109.653 57.2338C111.782 58.8986 113.644 60.9156 115.241 63.0797C116.842 65.1751 118.129 67.4524 119.578 69.6404C122.301 73.2918 125.691 71.7761 127.329 68.1237C128.363 65.8578 128.545 63.2865 128.086 60.8187C128.011 60.4518 128.532 60.3053 128.674 60.632Z" fill="#371B45"/>
<path d="M133.706 43.1741C135.347 43.7185 137.022 44.1006 138.686 43.8203C141.938 43.3183 144.225 40.4531 145.007 37.3303C145.442 35.6579 145.478 33.913 145.206 32.1813C145.146 31.8154 145.667 31.6456 145.832 31.9809C148.65 37.3124 145.389 45.533 138.853 45.7796C137.807 45.8085 136.777 45.5967 135.86 45.2047C134.941 44.8127 134.126 44.2569 133.449 43.5824C133.263 43.4043 133.469 43.0815 133.706 43.1741Z" fill="#371B45"/>
<path d="M137.278 45.2297C136.691 47.3578 134.318 48.6073 132.241 48.2953C131.903 48.2512 131.924 47.7411 132.265 47.7259C133.867 47.6687 135.569 46.4966 135.696 44.8906C135.856 43.6847 137.623 44.0598 137.278 45.2297Z" fill="#371B45"/>
<path d="M140.283 44.442C140.99 46.0078 140.53 47.7129 139.647 49.0554C139.425 49.3554 138.492 50.5672 138.13 50.0272C138.047 49.896 138.075 49.7261 138.188 49.627C139.214 48.6079 139.659 46.5228 138.839 45.3022C138.069 44.2597 139.725 43.2683 140.283 44.442Z" fill="#371B45"/>
<path d="M127.201 32.4668C123.974 25.2147 127.756 16.3647 132.77 23.4192C129.936 24.2668 128.137 27.4103 127.201 32.4668Z" fill="#371B45"/>
<path d="M167.295 21.1478C167.3 21.1571 167.304 21.1663 167.308 21.1756C167.378 21.3329 167.617 21.4745 167.79 21.4516C168.544 21.352 169.181 21.4527 169.865 21.8033C170.448 22.1027 170.979 22.4833 171.448 22.9406C171.921 23.4011 172.293 23.9292 172.672 24.4655C173.032 24.9761 173.26 25.6953 173.798 26.0399C173.865 26.0829 173.968 26.0557 174.005 25.986C174.365 25.318 173.932 24.4154 173.641 23.7904C173.313 23.0865 172.755 22.4571 172.185 21.9378C171.602 21.4059 170.939 20.9469 170.217 20.6235C169.385 20.2506 168.372 19.9822 167.508 20.4129C167.308 20.5125 167.167 20.8266 167.252 21.0422C167.265 21.0781 167.28 21.113 167.295 21.1478Z" fill="#371B45"/>
<path d="M171.884 11.3156C172.116 11.5492 172.464 11.5987 172.774 11.657C173.065 11.7114 173.359 11.7479 173.646 11.8214C174.236 11.9727 174.801 12.227 175.287 12.5983C175.686 12.9031 176.055 13.3218 176.322 13.76C176.486 14.029 176.639 14.3001 176.841 14.5451C177.012 14.7525 177.238 14.9126 177.445 15.0813C177.502 15.1276 177.599 15.133 177.637 15.0563C177.969 14.4003 177.887 13.7355 177.515 13.1105C177.143 12.485 176.653 11.9417 176.077 11.4996C175.479 11.0412 174.784 10.7015 174.048 10.5284C173.676 10.4413 173.282 10.3711 172.9 10.4015C172.5 10.4331 172.065 10.5186 171.827 10.8741C171.738 11.008 171.776 11.2056 171.884 11.3156Z" fill="#371B45"/>
<path d="M140.7 92.5101C143.286 102.728 146.638 112.696 151.086 122.262C151.137 122.375 151.161 122.491 151.16 122.609L151.086 122.265C151.528 123.22 152.991 126.332 153.416 127.249C154.04 128.327 153.842 129.778 152.852 130.573C152.601 130.799 152.218 130.975 151.915 131.074C151.509 131.212 151.1 131.351 150.691 131.474C146.099 132.853 141.307 133.489 136.504 133.254C135.114 133.17 133.715 133.039 132.356 132.713C128.826 131.861 125.765 129.287 124.341 125.949C121.406 119.149 118.765 111.863 119.044 104.342C119.111 102.978 119.315 101.615 119.653 100.292C119.759 99.9179 120.311 99.9648 120.321 100.37C120.319 103.368 120.495 106.292 120.944 109.221C121.688 114.117 123.255 118.834 125.197 123.385C125.717 124.544 126.171 125.776 126.896 126.818C129.277 130.25 132.601 131.262 136.603 131.415C141.155 131.631 145.79 131.032 150.177 129.772C150.618 129.642 151.101 129.49 151.526 129.336C151.956 129.175 152.161 128.63 151.952 128.22L151.847 127.991C151.728 127.72 151.348 126.903 151.221 126.617C151.204 126.522 149.308 122.588 149.477 122.606L149.55 122.95C147.41 118.095 145.421 113.166 143.715 108.129C142.027 103.092 140.497 97.9357 140.109 92.6086C140.097 92.4431 140.221 92.2989 140.387 92.2869C140.533 92.2766 140.663 92.374 140.7 92.5101Z" fill="#371B45"/>
<path d="M90.6956 128.97C87.1895 132.05 82.6649 133.613 78.2252 134.754C66.5329 137.54 54.1647 137.81 42.4215 135.178C40.7249 134.762 39.0094 134.279 37.379 133.644C36.1548 133.08 35.3944 131.728 35.5071 130.395C35.628 129.066 35.8878 127.762 36.2227 126.479C37.462 121.965 39.797 117.783 42.9761 114.342C43.8123 113.432 44.765 112.558 45.9374 112.089C47.0734 111.571 48.3728 111.485 49.6032 111.521L56.4079 111.519L59.7941 111.516C60.9292 111.497 62.0692 111.046 62.8706 110.227C63.5337 109.56 64.2148 108.908 64.9606 108.333C65.8866 107.622 66.8633 106.975 67.8727 106.392C69.8913 105.225 72.0652 104.335 74.3065 103.795C74.4829 103.753 74.6604 103.861 74.7029 104.038C74.7404 104.193 74.6599 104.349 74.52 104.413C71.4565 105.819 68.6691 107.608 66.1403 109.79C65.5976 110.245 64.5942 111.095 64.0792 111.545C62.9043 112.558 61.3882 113.191 59.8262 113.216L56.4079 113.217L49.6032 113.215C48.6016 113.195 47.5216 113.216 46.5995 113.646C45.624 114.04 44.9448 114.717 44.208 115.498C41.2318 118.712 39.0073 122.685 37.8457 126.915C37.5754 127.975 37.3349 129.047 37.2267 130.13L37.2011 130.333C37.0676 131.048 37.4318 131.824 38.0947 132.128C39.0942 132.506 40.1696 132.839 41.195 133.134C48.7762 135.19 56.7221 135.596 64.5458 135.184C73.4257 134.629 82.5021 132.959 90.2138 128.336C90.4005 128.215 90.6542 128.271 90.7707 128.462C90.8736 128.63 90.8382 128.843 90.6956 128.97Z" fill="#371B45"/>
<path d="M46.2866 112.689C46.2461 113.243 46.4547 113.742 46.4973 114.288C46.5382 114.812 46.506 115.341 46.4016 115.855C46.1669 117.01 45.6617 118.076 45.2101 119.158C44.3706 121.166 43.4366 123.121 42.3853 125.027C42.0922 125.559 41.7154 126.043 41.3279 126.509C41.1356 126.741 40.9261 126.958 40.7352 127.19C40.5289 127.442 40.3786 127.736 40.1623 127.978C40.0315 128.125 40.2094 128.403 40.3867 128.269C40.6069 128.103 40.8494 127.971 41.0704 127.805C41.3047 127.63 41.4958 127.407 41.6889 127.188C42.0712 126.755 42.4214 126.299 42.7661 125.837C43.1063 125.381 43.4804 124.948 43.8055 124.48C44.1401 123.998 44.4191 123.472 44.6976 122.956C45.2596 121.916 45.7827 120.866 46.288 119.797C46.8246 118.662 47.3598 117.49 47.6173 116.254C47.7556 115.591 47.8229 114.906 47.7513 114.23C47.6742 113.502 47.5374 112.772 46.8867 112.345C46.6159 112.167 46.3073 112.407 46.2866 112.689Z" fill="#371B45"/>
<path d="M46.2065 112.894C46.2017 112.896 46.1944 112.899 46.1895 112.906L46.1846 112.904C46.1239 112.858 46.0583 112.821 45.9902 112.788L46.9601 112.374C46.7048 112.542 46.4545 112.715 46.2065 112.894Z" fill="#9D9FE6"/>
<path d="M8.224 157.36L6.144 174H1.184L4.608 150.128H10.784L15.808 166.096H15.872L20.8 150.128H26.816L30.24 174H25.248L23.232 157.296H23.104L17.92 174H13.472L8.32 157.36H8.224ZM36.2048 153.84C34.6048 153.84 33.3888 152.624 33.3888 151.056C33.3888 149.52 34.6048 148.304 36.2048 148.304C37.7408 148.304 38.9888 149.52 38.9888 151.056C38.9888 152.624 37.7408 153.84 36.2048 153.84ZM33.6448 174V156.272H38.7648V174H33.6448ZM52.9703 155.824C56.8103 155.824 59.1783 158.192 59.1783 162.16V174H54.0583V163.632C54.0583 161.456 53.0983 160.464 51.2423 160.464C49.4183 160.464 48.1703 161.744 48.1703 163.504V174H43.0503V156.272H47.0183L47.5303 158.768H47.6263C48.6823 157.104 50.5383 155.824 52.9703 155.824ZM70.3083 174.448C66.1803 174.448 62.3403 170.8 62.3403 165.136C62.3403 159.472 66.1163 155.824 70.2443 155.824C72.6443 155.824 74.6603 157.04 75.7483 158.864V148.304H80.8683V174H76.5483L76.0363 171.28C74.8843 173.136 72.8363 174.448 70.3083 174.448ZM71.6843 169.84C74.0523 169.84 75.8123 167.888 75.8123 165.136C75.8123 162.384 74.0523 160.432 71.6843 160.432C69.2843 160.432 67.4923 162.448 67.4923 165.136C67.4923 167.856 69.2843 169.84 71.6843 169.84ZM86.4568 174V160.496H84.0247V156.272H86.4568V154.48C86.4568 151.152 88.8888 148.016 93.4328 148.016C94.6488 148.016 95.6728 148.208 96.8248 148.56V152.848C96.1848 152.656 95.2888 152.464 94.3288 152.464C92.4728 152.464 91.5128 153.2 91.5128 154.896V156.272H96.1848V160.496H91.5768V174H86.4568ZM106.577 174.448C101.553 174.448 98.545 171.28 98.545 166.8V156.272H103.665V166.8C103.665 168.784 104.721 169.84 106.577 169.84C108.465 169.84 109.585 168.784 109.585 166.768V156.272H114.705V166.8C114.705 171.28 111.633 174.448 106.577 174.448ZM118.77 174V148.304H123.89V174H118.77ZM142.224 157.36L140.144 174H135.184L138.608 150.128H144.784L149.808 166.096H149.872L154.8 150.128H160.816L164.24 174H159.248L157.232 157.296H157.104L151.92 174H147.472L142.32 157.36H142.224ZM170.205 153.84C168.605 153.84 167.389 152.624 167.389 151.056C167.389 149.52 168.605 148.304 170.205 148.304C171.741 148.304 172.989 149.52 172.989 151.056C172.989 152.624 171.741 153.84 170.205 153.84ZM167.645 174V156.272H172.765V174H167.645ZM186.97 155.824C190.81 155.824 193.178 158.192 193.178 162.16V174H188.058V163.632C188.058 161.456 187.098 160.464 185.242 160.464C183.418 160.464 182.17 161.744 182.17 163.504V174H177.05V156.272H181.018L181.53 158.768H181.626C182.682 157.104 184.538 155.824 186.97 155.824ZM199.892 153.84C198.292 153.84 197.076 152.624 197.076 151.056C197.076 149.52 198.292 148.304 199.892 148.304C201.428 148.304 202.676 149.52 202.676 151.056C202.676 152.624 201.428 153.84 199.892 153.84ZM197.332 174V156.272H202.452V174H197.332ZM213.33 155.824C215.41 155.824 217.554 156.336 218.93 157.2V161.552C217.682 160.688 215.538 159.984 213.522 159.984C211.922 159.984 211.026 160.528 211.026 161.392C211.026 162.352 212.05 162.736 214.066 163.28C216.978 163.984 220.082 164.976 220.082 168.72C220.082 172.208 217.33 174.448 212.53 174.448C209.97 174.448 207.762 173.808 206.194 172.784V168.08C207.698 169.296 209.714 170.288 212.306 170.288C214.098 170.288 215.122 169.712 215.122 168.752C215.122 167.664 213.842 167.312 211.538 166.672C208.722 165.872 206.098 164.72 206.098 161.488C206.098 158.224 208.754 155.824 213.33 155.824Z" fill="white"/>
<defs>
<filter id="filter0_f_11097_16344" x="22" y="113.882" width="153.438" height="37.5312" filterUnits="userSpaceOnUse" color-interpolation-filters="sRGB">
<feFlood flood-opacity="0" result="BackgroundImageFix"/>
<feBlend mode="normal" in="SourceGraphic" in2="BackgroundImageFix" result="shape"/>
<feGaussianBlur stdDeviation="5" result="effect1_foregroundBlur_11097_16344"/>
</filter>
<linearGradient id="paint0_linear_11097_16344" x1="61.2188" y1="95.6582" x2="135.631" y2="-1.12284" gradientUnits="userSpaceOnUse">
<stop stop-color="#9D9FE6"/>
<stop offset="0.163505" stop-color="#CFC0FF"/>
<stop offset="1" stop-color="#8E00FF"/>
</linearGradient>
<linearGradient id="paint1_linear_11097_16344" x1="60.658" y1="27.1274" x2="80.1195" y2="29.8098" gradientUnits="userSpaceOnUse">
<stop stop-color="white" stop-opacity="0"/>
<stop offset="1" stop-color="#8E00FF"/>
</linearGradient>
<linearGradient id="paint2_linear_11097_16344" x1="97.5704" y1="135.049" x2="171.579" y2="-196.671" gradientUnits="userSpaceOnUse">
<stop stop-color="#9D9FE6"/>
<stop offset="0.163505" stop-color="#CFC0FF"/>
<stop offset="1" stop-color="#8E00FF"/>
</linearGradient>
<linearGradient id="paint3_linear_11097_16344" x1="93.1995" y1="-19.9223" x2="219.296" y2="39.9728" gradientUnits="userSpaceOnUse">
<stop stop-color="white" stop-opacity="0"/>
<stop offset="1" stop-color="#8E00FF"/>
</linearGradient>
<linearGradient id="paint4_linear_11097_16344" x1="60.8624" y1="136.16" x2="95.7864" y2="-47.2936" gradientUnits="userSpaceOnUse">
<stop stop-color="#9D9FE6"/>
<stop offset="0.163505" stop-color="#CFC0FF"/>
<stop offset="1" stop-color="#8E00FF"/>
</linearGradient>
<linearGradient id="paint5_linear_11097_16344" x1="58.066" y1="51.5603" x2="133.55" y2="93.5803" gradientUnits="userSpaceOnUse">
<stop stop-color="white" stop-opacity="0"/>
<stop offset="1" stop-color="#8E00FF"/>
</linearGradient>
<linearGradient id="paint6_linear_11097_16344" x1="134.768" y1="132.383" x2="214.08" y2="-73.1947" gradientUnits="userSpaceOnUse">
<stop stop-color="#9D9FE6"/>
<stop offset="0.163505" stop-color="#CFC0FF"/>
<stop offset="1" stop-color="#8E00FF"/>
</linearGradient>
<linearGradient id="paint7_linear_11097_16344" x1="133.054" y1="27.279" x2="189.415" y2="42.7606" gradientUnits="userSpaceOnUse">
<stop stop-color="white" stop-opacity="0"/>
<stop offset="1" stop-color="#8E00FF"/>
</linearGradient>
<linearGradient id="paint8_linear_11097_16344" x1="99.6802" y1="31.0684" x2="166.227" y2="-117.494" gradientUnits="userSpaceOnUse">
<stop stop-color="#9D9FE6"/>
<stop offset="0.163505" stop-color="#CFC0FF"/>
<stop offset="1" stop-color="#8E00FF"/>
</linearGradient>
<linearGradient id="paint9_linear_11097_16344" x1="98.5651" y1="-48.311" x2="135.903" y2="-39.4776" gradientUnits="userSpaceOnUse">
<stop stop-color="white" stop-opacity="0"/>
<stop offset="1" stop-color="#8E00FF"/>
</linearGradient>
<linearGradient id="paint10_linear_11097_16344" x1="133.608" y1="85.2708" x2="253.558" y2="-373.201" gradientUnits="userSpaceOnUse">
<stop stop-color="#9D9FE6"/>
<stop offset="0.163505" stop-color="#CFC0FF"/>
<stop offset="1" stop-color="#8E00FF"/>
</linearGradient>
<linearGradient id="paint11_linear_11097_16344" x1="128.365" y1="-132.725" x2="287.623" y2="-68.2178" gradientUnits="userSpaceOnUse">
<stop stop-color="white" stop-opacity="0"/>
<stop offset="1" stop-color="#8E00FF"/>
</linearGradient>
<linearGradient id="paint12_linear_11097_16344" x1="99.5706" y1="79.5508" x2="230.096" y2="-269.448" gradientUnits="userSpaceOnUse">
<stop stop-color="#9D9FE6"/>
<stop offset="0.163505" stop-color="#CFC0FF"/>
<stop offset="1" stop-color="#8E00FF"/>
</linearGradient>
<linearGradient id="paint13_linear_11097_16344" x1="96.5919" y1="-97.4862" x2="194.084" y2="-69.8614" gradientUnits="userSpaceOnUse">
<stop stop-color="white" stop-opacity="0"/>
<stop offset="1" stop-color="#8E00FF"/>
</linearGradient>
</defs>
</svg>
