<svg width="214" height="175" viewBox="0 0 214 175" fill="none" xmlns="http://www.w3.org/2000/svg">
<g filter="url(#filter0_f_11097_16344)">
<path d="M97.8922 141.413C61.0447 141.413 31.1738 137.223 31.1738 132.055C31.1738 130.875 32.7311 129.747 35.5718 128.707C35.521 129.018 35.4767 129.33 35.4388 129.643C35.3606 130.29 35.3212 130.994 35.675 131.539C35.9858 132.019 36.5372 132.276 37.0643 132.498C43.1957 135.073 49.7277 135.969 56.379 135.968C62.5974 135.968 68.9191 135.186 75.1113 134.261C79.0757 135.181 83.5072 135.468 88.2904 135.777L89.3161 135.844C91.0942 135.96 92.8401 136.018 94.5577 136.018C109.212 136.018 121.59 131.81 130.402 123.882C150.813 125.482 164.611 128.543 164.611 132.055C164.611 137.223 134.74 141.413 97.8922 141.413ZM55.9876 130.815C52.5147 130.815 49.0486 130.542 45.6276 129.92C44.7045 129.752 43.7362 129.535 43.0481 128.897C42.4939 128.384 42.2112 127.67 42.1368 126.914C47.1155 125.854 53.5887 124.945 61.1367 124.244C62.5571 126.724 64.2034 128.634 66.0517 130.118C62.7106 130.56 59.3461 130.815 55.9876 130.815Z" fill="black" fill-opacity="0.5"/>
</g>
<path d="M65.2141 65.1878C66.5561 68.6687 65.6889 71.1001 64.691 72.2913C63.901 73.2347 62.8955 73.9762 61.265 73.9637C59.5468 73.9506 56.8186 72.8389 55.0011 70.2546C54.2597 69.2001 53.4036 67.7884 51.585 66.9947C51.6289 66.5488 52.0775 66.2548 52.7148 66.0626C52.2437 65.1154 51.5785 64.0733 50.2403 62.7172C50.2266 62.7031 53.9917 59.1197 61.5753 61.7062C62.0538 60.6686 62.9537 60.4525 63.8428 60.858C63.2439 62.7956 64.3137 62.8533 65.2141 65.1878Z" fill="#C4612B"/>
<path d="M61.2648 73.9637C59.5472 73.9512 56.818 72.84 55.0016 70.2552C54.2611 69.205 53.41 67.7971 51.6026 67.0023C51.5969 66.9985 51.5893 66.9952 51.5843 66.993C51.5917 66.9255 51.6066 66.8613 51.6314 66.8014C51.6989 66.6386 51.8264 66.5003 51.9991 66.3811C52.1887 66.2526 52.4342 66.1486 52.7145 66.0637C52.2427 65.1159 51.5781 64.0733 50.2402 62.7178C50.2423 62.7129 50.32 62.635 50.4738 62.5152C50.4985 62.4945 50.5274 62.4744 50.5592 62.451C50.6636 62.3721 50.7947 62.2828 50.9504 62.1831C50.9819 62.1635 51.0144 62.1418 51.0494 62.1211C51.1229 62.0781 51.1993 62.0318 51.2834 61.985C51.3202 61.9632 51.3595 61.9431 51.3987 61.9224C51.6633 61.7797 51.9721 61.6327 52.3268 61.4923C54.1762 60.7611 57.2567 60.2358 61.5757 61.7068C62.0548 60.6697 62.9531 60.453 63.8432 60.858C63.2432 62.7962 64.313 62.8533 65.2145 65.1883C66.3235 68.0704 65.9223 70.2317 65.1835 71.565V71.5694C65.0305 71.8465 64.8629 72.0882 64.6903 72.2929C63.8998 73.2347 62.8953 73.9768 61.2648 73.9637Z" fill="#C4612B"/>
<path d="M61.2648 73.9637C59.5472 73.9512 56.818 72.8401 55.0016 70.2552C54.2611 69.205 53.41 67.7972 51.6026 67.0023C51.5969 66.9985 51.5893 66.9952 51.5843 66.9931C51.5917 66.9256 51.6066 66.8613 51.6314 66.8014C51.6989 66.6386 51.8264 66.5004 51.9991 66.3811C52.1887 66.2527 52.4342 66.1487 52.7145 66.0637C52.2427 65.1159 51.5781 64.0734 50.2402 62.7178C50.2423 62.7129 50.32 62.635 50.4738 62.5153C50.4985 62.4946 50.5274 62.4744 50.5592 62.451C50.6636 62.3721 50.7947 62.2828 50.9504 62.1832C50.9819 62.1636 51.0144 62.1418 51.0494 62.1211C51.1229 62.0781 51.1993 62.0318 51.2834 61.985C51.3202 61.9632 51.3595 61.9431 51.3987 61.9224C51.6633 61.7798 51.9721 61.6328 52.3268 61.4923C54.1762 60.7612 57.2567 60.2358 61.5757 61.7068C61.5898 61.6758 61.6029 61.6475 61.6176 61.6186C61.806 61.2457 62.0526 60.9903 62.3341 60.8379C62.3547 60.8276 62.3738 60.8178 62.3939 60.8069C62.8028 60.6109 63.2759 60.6261 63.7522 60.8194C63.7827 60.8314 63.8127 60.8439 63.8432 60.8581C63.2432 62.7962 64.313 62.8533 65.2145 65.1883C66.3235 68.0705 65.9223 70.2318 65.1835 71.565V71.5694C65.0305 71.8465 64.8629 72.0882 64.6903 72.2929C64.5014 72.5183 64.2999 72.7328 64.0794 72.9277C63.3831 73.5462 62.5034 73.973 61.2648 73.9637Z" fill="#666566"/>
<path d="M61.2648 73.9637C59.5472 73.9512 56.818 72.84 55.0016 70.2552C54.2611 69.205 53.41 67.7971 51.6026 67.0023C51.5969 66.9985 51.5893 66.9952 51.5843 66.993C51.5917 66.9255 51.6065 66.8613 51.6315 66.8014C51.6989 66.6386 51.8257 66.4987 51.9991 66.3811C52.1887 66.2526 52.4342 66.1486 52.7145 66.0637C52.2427 65.1159 51.5781 64.0733 50.2402 62.7178C50.2423 62.7129 50.32 62.635 50.4738 62.5152C50.4985 62.4945 50.5274 62.4744 50.5592 62.451C50.6636 62.372 50.7947 62.2828 50.9505 62.1831C50.9819 62.1635 51.0144 62.1418 51.0494 62.1211C51.1229 62.0781 51.1993 62.0318 51.2834 61.9844C51.3202 61.9632 51.3595 61.9431 51.3987 61.9224C51.6634 61.7797 51.9721 61.6327 52.3268 61.4923C51.6711 62.1439 51.7046 62.7254 52.4283 63.285C53.8752 64.4033 55.4146 64.9858 56.4528 66.4693C55.172 66.8373 56.56 68.9927 57.2037 69.3585C59.7269 70.7903 61.3367 69.0852 63.1545 69.2257C65.0529 69.3732 65.1824 71.5677 65.1835 71.5694C65.0305 71.8465 64.8629 72.0882 64.6903 72.2929C63.8998 73.2347 62.8953 73.9768 61.2648 73.9637Z" fill="#595959"/>
<path d="M52.7831 66.8109C54.0633 67.6231 54.8223 68.7196 55.4041 69.5602L55.5982 69.8389C57.2285 72.1576 59.6817 73.2268 61.2714 73.2388C61.2834 73.2388 61.2954 73.2388 61.3074 73.2388C62.4583 73.2388 63.3048 72.8152 64.1323 71.8277C64.5918 71.2789 65.9779 69.1987 64.5341 65.4542C64.2352 64.679 63.9216 64.1852 63.6445 63.7497C63.2112 63.068 62.8268 62.4627 62.9738 61.3989C62.6619 61.419 62.4185 61.6243 62.2378 62.0157C62.081 62.3549 61.695 62.522 61.34 62.4006C55.8456 60.5262 52.5572 62.0135 51.3256 62.8062C52.4556 64.0534 53.008 65.0181 53.3682 65.7417C53.4639 65.9338 53.4697 66.1587 53.3847 66.3563C53.2993 66.5528 53.1316 66.7025 52.9258 66.7646C52.874 66.7804 52.8267 66.7956 52.7831 66.8109ZM61.3057 74.6973C61.2905 74.6973 61.2752 74.6967 61.26 74.6967C59.244 74.6815 56.3425 73.4331 54.4052 70.6779L54.2053 70.3904C53.5298 69.4148 52.764 68.3086 51.2939 67.6667C51.0042 67.5404 50.829 67.2415 50.8599 66.9268C50.8963 66.5566 51.0845 66.089 51.6974 65.7161C51.3051 65.0513 50.724 64.2489 49.7216 63.2335C49.4839 62.9924 49.4435 62.6184 49.624 62.3315C49.6516 62.2879 53.4197 58.403 61.254 60.8387C61.9378 59.9535 63.0337 59.6916 64.1459 60.199C64.4797 60.3509 64.6479 60.7271 64.5401 61.0777C64.2565 61.9939 64.4002 62.2193 64.8755 62.9673C65.1732 63.4361 65.544 64.0191 65.8946 64.9294C67.6253 69.4186 65.8391 72.0612 65.2506 72.764C64.5537 73.5954 63.3887 74.6967 61.3057 74.6973Z" fill="#371B45"/>
<path d="M62.2916 61.8326C62.0025 62.4538 61.7341 63.1098 61.5365 63.7691C61.4728 63.9929 61.4129 64.2183 61.3933 64.4551C61.2926 64.2373 61.2295 63.9994 61.1723 63.7626C61.0074 63.0407 60.9159 62.321 60.8555 61.58C60.8125 61.1559 61.1304 60.777 61.5567 60.7482C62.1239 60.6926 62.5491 61.3318 62.2916 61.8326Z" fill="#371B45"/>
<path d="M52.6164 65.3407C53.8977 65.455 55.2536 65.6412 56.3085 66.4148C55.1498 66.1225 53.9128 66.4377 52.8087 66.7861C51.6426 67.1231 51.4019 65.3227 52.6164 65.3407Z" fill="#371B45"/>
<path d="M63.5814 67.9697C63.2009 67.9697 62.8111 67.611 62.7882 67.1792C62.7343 66.1394 63.1274 64.4403 63.3332 64.4403C63.3381 64.4403 63.343 64.4414 63.3473 64.4436C63.7611 64.614 64.636 66.723 64.1269 67.6191C63.9859 67.8674 63.785 67.9697 63.5814 67.9697Z" fill="#A3A3A3"/>
<path d="M59.2008 63.7607C59.1817 63.7607 59.1627 63.7607 59.1431 63.7602C58.3847 63.7417 54.4278 62.4242 54.5825 62.2712C54.8035 62.0524 55.746 61.9157 56.7847 61.9157C58.0082 61.9157 59.3652 62.1046 59.8345 62.5712C60.4061 63.1385 60.1677 63.7607 59.2008 63.7607Z" fill="#A3A3A3"/>
<path d="M61.811 70.7148C61.9482 73.2888 60.2305 74.8779 58.5189 77.0991C57.7098 78.1488 56.902 79.3383 56.2926 80.8371C52.6184 89.8646 62.4828 95.6582 62.4828 95.6582L66.3274 90.4302C63.1617 89.7551 61.3929 88.3723 60.6514 86.6052C59.4765 83.8172 60.855 80.0662 63.3136 76.5945C65.3742 73.6879 64.7034 71.5026 63.5836 70.0784C62.9896 69.3189 61.7582 69.7539 61.811 70.7148Z" fill="url(#paint0_linear_11097_16344)"/>
<path d="M61.811 70.7148C61.9482 73.2888 60.2305 74.8779 58.5189 77.0991C57.7098 78.1488 56.902 79.3383 56.2926 80.8371C52.6184 89.8646 62.4828 95.6582 62.4828 95.6582L66.3274 90.4302C63.1617 89.7551 61.3929 88.3723 60.6514 86.6052C59.4765 83.8172 60.855 80.0662 63.3136 76.5945C65.3742 73.6879 64.7034 71.5026 63.5836 70.0784C62.9896 69.3189 61.7582 69.7539 61.811 70.7148Z" fill="url(#paint1_linear_11097_16344)" fill-opacity="0.2"/>
<path d="M58.5189 77.0992C57.7098 78.1488 56.902 79.3383 56.2926 80.8371C52.6184 89.8646 62.4828 95.6582 62.4828 95.6582L66.3274 90.4302C63.1617 89.7551 61.3929 88.3723 60.6514 86.6052C59.6322 86.193 58.5352 85.3007 57.9373 83.4116C57.2115 81.1158 57.8278 78.868 58.5189 77.0992Z" fill="#9D9FE6"/>
<path d="M62.4831 96.3848C62.3573 96.3848 62.2305 96.3526 62.1145 96.2846C62.0105 96.2236 51.7507 90.0614 55.6196 80.5608C56.4811 78.4442 57.7036 76.9329 58.7822 75.5991C60.1247 73.9391 61.1847 72.6282 61.0839 70.7521C61.0437 69.9987 61.4754 69.3394 62.1837 69.0732C62.8963 68.8053 63.6895 69.0274 64.1588 69.6252C65.3549 71.1485 66.282 73.6675 63.9094 77.0151C61.3605 80.6115 60.4023 83.9651 61.2805 86.2162C61.955 87.9447 63.7048 89.1223 66.4818 89.7152C66.876 89.799 67.1269 90.1866 67.0431 90.5802C66.9587 90.9744 66.5722 91.2248 66.1775 91.1415C62.8903 90.4398 60.7861 88.9606 59.9216 86.7459C58.8469 83.9901 59.8405 80.2347 62.7199 76.1718C64.2067 74.0731 64.3052 72.1736 63.0117 70.5251C62.8996 70.3825 62.7537 70.4162 62.697 70.4386C62.5865 70.4794 62.5343 70.5589 62.5402 70.6743C62.6709 73.1095 61.3327 74.7639 59.9162 76.5159C58.9008 77.7713 57.7504 79.1938 56.9699 81.1107C53.5793 89.4375 62.4733 94.8032 62.8533 95.0275C63.2001 95.2317 63.316 95.6787 63.1119 96.0255C62.9758 96.2563 62.7324 96.3848 62.4831 96.3848Z" fill="#371B45"/>
<path d="M89.3807 134.874C75.4203 133.961 64.7405 133.65 59.5397 118.216C59.2044 117.175 58.9469 116.086 58.7618 114.96C57.0637 104.672 61.4876 91.416 69.8068 85.8662C76.5385 81.3743 83.1319 81.6056 88.7704 81.8376C92.3363 81.984 95.5206 82.131 98.1158 81.0825C98.8306 80.7917 99.5013 80.4123 100.124 79.9163C100.124 79.9163 98.7772 73.8554 105.839 77.4893L140.447 77.7109C149.972 105.416 132.748 137.711 89.3807 134.874Z" fill="url(#paint2_linear_11097_16344)"/>
<path d="M89.3807 134.874C75.4203 133.961 64.7405 133.65 59.5397 118.216C59.2044 117.175 58.9469 116.086 58.7618 114.96C57.0637 104.672 61.4876 91.416 69.8068 85.8662C76.5385 81.3743 83.1319 81.6056 88.7704 81.8376C92.3363 81.984 95.5206 82.131 98.1158 81.0825C98.8306 80.7917 99.5013 80.4123 100.124 79.9163C100.124 79.9163 98.7772 73.8554 105.839 77.4893L140.447 77.7109C149.972 105.416 132.748 137.711 89.3807 134.874Z" fill="url(#paint3_linear_11097_16344)" fill-opacity="0.2"/>
<path d="M58.9881 104.594C59.3305 106.065 60.8843 106.996 62.3906 107.112C63.8965 107.228 65.3713 106.71 66.7928 106.199C68.3656 105.634 69.9379 105.069 71.5101 104.504C70.3434 105.006 69.1648 105.515 68.1435 106.27C66.5478 107.45 65.4132 109.174 63.7969 110.326C62.7951 111.039 61.6432 111.507 60.5032 111.969C60.2114 112.087 59.9076 112.208 59.5935 112.19C59.018 112.157 58.5563 111.653 58.3859 111.103C58.2155 110.552 58.2738 109.96 58.3337 109.387C58.5014 107.784 58.6696 106.18 58.8373 104.577C58.7251 104.655 58.613 104.734 58.5008 104.813L58.9881 104.594Z" fill="#9D9FE6"/>
<path d="M59.4285 112.213C59.4274 112.198 59.4263 112.183 59.4258 112.168C59.428 112.168 59.4301 112.169 59.4323 112.169C59.4307 112.183 59.4296 112.198 59.4285 112.213ZM60.2413 106.354C60.0448 106.217 59.8629 106.062 59.7013 105.891C59.95 104.157 60.3398 102.407 60.869 100.678C62.7483 94.544 66.2026 89.4395 70.3473 86.6745C75.3722 83.3209 80.3084 82.7062 84.882 82.7062C86.2463 82.7062 87.5796 82.7612 88.872 82.814C89.7071 82.8489 90.5216 82.8821 91.3143 82.9C85.734 83.3655 78.8352 83.4984 73.0884 86.8465C65.2118 91.4348 61.7444 98.7828 60.2413 106.354Z" fill="#E7E8ED"/>
<path d="M59.4291 112.17C59.4269 112.169 59.4247 112.169 59.4225 112.168C59.2984 110.149 59.3909 108.033 59.698 105.891C59.8597 106.062 60.0415 106.217 60.2381 106.355C59.8532 108.293 59.5973 110.245 59.4291 112.17Z" fill="#DCDFE6"/>
<path d="M45.1643 112.786C46.197 113.291 46.3 114.714 46.1347 115.851C45.8529 117.791 45.214 119.679 44.2593 121.39C43.588 122.595 42.7551 123.729 42.3428 125.044C41.9304 126.359 42.0379 127.96 43.0489 128.897C43.7371 129.535 44.7054 129.752 45.6285 129.92C54.2608 131.489 63.172 130.839 71.7879 129.181C74.8198 128.598 77.9599 127.827 80.2949 125.808C82.6305 123.788 83.8521 120.154 82.2418 117.52C83.9969 118.677 85.7521 119.835 87.5073 120.992C88.4579 121.619 89.4269 122.255 90.5196 122.575C92.1604 123.055 93.9162 122.782 95.6 122.485C99.4425 121.807 103.313 121.006 106.826 119.308C110.339 117.61 113.505 114.912 115.045 111.327C116.552 107.819 116.507 103.554 119.037 100.695C118.306 109.157 121.828 117.321 124.727 125.305C124.865 125.685 125.003 126.103 124.867 126.484C124.746 126.82 124.44 127.047 124.147 127.251C112.433 135.376 97.0427 136.498 83.0268 133.892C82.2238 133.743 81.4175 133.582 80.6009 133.563C79.775 133.545 78.9535 133.672 78.1369 133.799C64.4177 135.929 49.8655 137.875 37.0651 132.498C36.5381 132.276 35.9867 132.019 35.6758 131.539C35.3221 130.994 35.3614 130.29 35.4396 129.644C36.2794 122.706 40.2981 116.216 46.1354 112.372L45.1643 112.786Z" fill="#9D9FE6"/>
<path d="M100.887 77.938C104.546 82.3984 109.26 86.1009 114.716 87.9742C121.521 90.3114 129.074 89.7169 135.851 92.1346C136.598 92.4014 137.343 92.7101 137.962 93.2061C138.829 93.8991 139.382 94.9035 139.848 95.9102C140.702 97.7563 141.339 99.7031 141.74 101.697C142.906 98.0002 142.483 94.0134 142.048 90.1611C141.764 87.6509 141.481 85.1411 141.197 82.6308C133.137 82.1942 125.098 81.3678 117.117 80.1554C114.733 79.7928 112.344 79.3943 110.043 78.6724C107.087 77.7447 104.036 76.2704 101.034 77.0381" fill="#9D9FE6"/>
<path d="M84.8783 82.7049C80.3047 82.7049 75.3685 83.3195 70.3436 86.6731C66.199 89.4382 62.7447 94.5426 60.8653 100.677C59.0214 106.698 58.8744 112.981 60.4625 117.916C65.3235 132.341 75.0087 132.968 88.4143 133.836L89.4416 133.902C108.932 135.18 124.741 129.234 133.962 117.168C142.047 106.588 144.189 92.2468 139.743 78.6773L105.83 78.4607C105.677 78.4596 105.527 78.4225 105.391 78.3529C102.566 76.8982 101.641 77.3283 101.425 77.4954C100.885 77.9119 100.955 79.1864 101.07 79.7041C101.15 80.0667 101.017 80.4434 100.727 80.6748C97.5964 83.172 93.5525 83.006 88.8683 82.8127C87.5759 82.7599 86.2426 82.7049 84.8783 82.7049ZM94.5558 136.017C92.8382 136.017 91.0923 135.959 89.3142 135.843L88.2885 135.776C74.6608 134.893 63.8972 134.197 58.6158 118.525C56.9045 113.208 57.0482 106.5 59.0062 100.107C61.0439 93.4554 64.6871 88.1098 69.2646 85.0557C76.3158 80.3503 83.3191 80.6394 88.9484 80.8697C93.0021 81.0363 96.5337 81.1822 99.0728 79.4782C98.9825 78.5516 99.0206 76.8938 100.238 75.9558C101.483 74.9944 103.393 75.1778 106.072 76.5176L140.45 76.737C140.863 76.7398 141.229 77.0027 141.363 77.3931C146.307 91.7699 144.117 107.081 135.507 118.349C126.728 129.838 112.312 136.017 94.5558 136.017Z" fill="#371B45"/>
<path d="M101.02 79.6912C101.523 81.8492 103.397 83.458 105.287 84.4912C105.894 84.8293 106.815 85.1984 107.474 85.4451C105.88 85.1968 104.241 84.7493 102.832 83.9501C101.325 83.0905 99.879 81.8068 99.2301 80.1419C98.9688 78.9513 100.685 78.5169 101.02 79.6912Z" fill="#371B45"/>
<path d="M94.1753 131.353C94.0335 131.212 93.8939 131.073 93.7559 130.931L94.2405 131.319C94.2183 131.33 94.1976 131.341 94.1753 131.353Z" fill="#C2C7D4"/>
<path d="M89.6259 128.653C86.7188 130.865 82.6281 132.595 77.9129 133.833C65.1889 137.177 47.9201 136.941 37.1065 132.97C36.426 132.722 35.918 132.19 35.6726 131.541L35.6701 131.533C35.534 131.181 35.4805 130.792 35.517 130.398C36.0128 125.289 38.4264 120.229 41.4038 116.49L41.416 116.476C42.1038 115.613 42.8232 114.821 43.5548 114.113C44.0847 113.603 44.6947 113.195 45.3558 112.903C45.3631 112.898 45.3704 112.896 45.3777 112.893C46.1579 112.55 47.011 112.369 47.8787 112.369H58.8769C60.3109 112.369 61.6845 111.805 62.7243 110.815C65.9499 107.745 69.5616 105.493 73.5843 104.104L82.4364 117.65L89.6259 128.653Z" fill="url(#paint4_linear_11097_16344)"/>
<path d="M89.6259 128.653C86.7188 130.865 82.6281 132.595 77.9129 133.833C65.1889 137.177 47.9201 136.941 37.1065 132.97C36.426 132.722 35.918 132.19 35.6726 131.541L35.6701 131.533C35.534 131.181 35.4805 130.792 35.517 130.398C36.0128 125.289 38.4264 120.229 41.4038 116.49L41.416 116.476C42.1038 115.613 42.8232 114.821 43.5548 114.113C44.0847 113.603 44.6947 113.195 45.3558 112.903C45.3631 112.898 45.3704 112.896 45.3777 112.893C46.1579 112.55 47.011 112.369 47.8787 112.369H58.8769C60.3109 112.369 61.6845 111.805 62.7243 110.815C65.9499 107.745 69.5616 105.493 73.5843 104.104L82.4364 117.65L89.6259 128.653Z" fill="url(#paint5_linear_11097_16344)" fill-opacity="0.2"/>
<path d="M89.6291 128.653C86.722 130.864 82.6312 132.595 77.9161 133.832C64.2616 135.951 49.7972 137.845 37.0636 132.498C36.5386 132.276 35.9869 132.019 35.6757 131.54L35.6733 131.532C35.3209 130.986 35.3622 130.286 35.44 129.644C36.0257 124.788 38.1719 120.153 41.4069 116.49L41.4191 116.476C42.598 115.143 43.9201 113.94 45.3639 112.905C46.2097 113.484 46.2875 114.791 46.1344 115.851C45.8524 117.79 45.2132 119.679 44.258 121.39C43.5872 122.593 42.756 123.728 42.3427 125.043C41.9295 126.358 42.0365 127.96 43.0476 128.898C43.7379 129.535 44.7052 129.753 45.6288 129.921C54.2597 131.489 63.1723 130.838 71.7887 129.182C74.8195 128.599 77.9602 127.826 80.2957 125.806C82.6291 123.787 83.8518 120.153 82.2425 117.52C82.3084 117.564 82.3737 117.608 82.4396 117.649L89.6291 128.653Z" fill="#9D9FE6"/>
<path d="M35.5938 131.694C36.8832 130.935 38.047 129.963 39.0237 128.829C39.3153 128.491 39.5919 128.136 39.7992 127.74C40.8367 128.393 41.7817 129.243 42.356 130.326C42.9303 131.41 43.0946 132.75 42.604 133.873C42.542 134.015 42.4663 134.158 42.3427 134.251C42.0673 134.459 41.6768 134.352 41.3515 134.236C40.7274 134.014 40.1032 133.792 39.4791 133.57C38.2621 133.136 36.9714 132.65 36.2081 131.608" fill="#EDEDED"/>
<path d="M150.949 130.185C149.926 130.542 148.822 130.868 147.662 131.15C147.186 131.267 146.7 131.376 146.209 131.478C143.951 131.945 141.54 132.253 139.17 132.351C136.876 132.443 134.618 132.339 132.564 131.991C128.972 131.383 125.902 129.033 124.402 125.713C120.282 116.596 118.124 108.024 119.16 100.335L137.933 93.1824L139.576 92.558C139.865 94.2979 140.23 96.0749 140.665 97.8878C142.502 105.559 145.58 113.869 149.49 122.604V122.607C150.266 124.342 151.078 126.092 151.916 127.862C152.346 128.768 151.896 129.852 150.949 130.185Z" fill="url(#paint6_linear_11097_16344)"/>
<path d="M150.949 130.185C149.926 130.542 148.822 130.868 147.662 131.15C147.186 131.267 146.7 131.376 146.209 131.478C143.951 131.945 141.54 132.253 139.17 132.351C136.876 132.443 134.618 132.339 132.564 131.991C128.972 131.383 125.902 129.033 124.402 125.713C120.282 116.596 118.124 108.024 119.16 100.335L137.933 93.1824L139.576 92.558C139.865 94.2979 140.23 96.0749 140.665 97.8878C142.502 105.559 145.58 113.869 149.49 122.604V122.607C150.266 124.342 151.078 126.092 151.916 127.862C152.346 128.768 151.896 129.852 150.949 130.185Z" fill="url(#paint7_linear_11097_16344)" fill-opacity="0.2"/>
<path d="M140.669 97.8887C140.426 97.218 140.154 96.557 139.853 95.9081C139.386 94.902 138.832 93.8981 137.966 93.2051C137.957 93.198 137.947 93.1909 137.938 93.1833L139.581 92.5589C139.87 94.2988 140.234 96.0758 140.669 97.8887Z" fill="#9D9FE6"/>
<path d="M146.208 131.477C143.95 131.943 141.539 132.252 139.169 132.35C139.121 130.631 139.271 128.906 139.621 127.223C139.716 126.762 139.83 126.295 140.066 125.884C140.302 125.476 140.679 125.126 141.138 125.021C141.984 124.83 142.774 125.486 143.34 126.142C144.669 127.686 145.651 129.52 146.208 131.477Z" fill="white"/>
<path d="M120.303 100.553C120.501 105.529 121.258 110.484 122.556 115.292C123.73 119.647 125.37 123.923 127.917 127.646C128.484 128.475 129.103 129.283 129.89 129.905C131.873 131.476 134.585 131.65 137.112 131.76C135.112 130.337 133.562 128.38 132.14 126.381C126.645 118.658 122.636 109.882 120.398 100.672" fill="#9D9FE6"/>
<path d="M150.948 130.184C149.925 130.541 148.822 130.867 147.662 131.148C147.422 129.88 147.198 128.599 147.234 127.311C147.274 125.942 147.629 124.547 148.474 123.473C148.749 123.125 149.099 122.807 149.49 122.606C150.266 124.341 151.077 126.091 151.916 127.86C152.346 128.767 151.896 129.851 150.948 130.184Z" fill="white"/>
<path d="M110.653 15.0272C105.383 8.83125 100.216 4.06654 95.2001 1.42995C92.8994 0.220263 90.0679 1.6292 89.6264 4.19121C88.4646 10.9251 89.3558 21.0054 90.2367 31.0684L110.653 15.0272Z" fill="url(#paint8_linear_11097_16344)"/>
<path d="M110.653 15.0272C105.383 8.83125 100.216 4.06654 95.2001 1.42995C92.8994 0.220263 90.0679 1.6292 89.6264 4.19121C88.4646 10.9251 89.3558 21.0054 90.2367 31.0684L110.653 15.0272Z" fill="url(#paint9_linear_11097_16344)" fill-opacity="0.2"/>
<path d="M110.653 15.0272C105.383 8.83125 100.216 4.06654 95.2001 1.42995C92.8994 0.220263 90.0679 1.6292 89.6264 4.19121C88.4646 10.9251 89.3558 21.0054 90.2367 31.0684L110.653 15.0272Z" fill="#9D9FE6"/>
<path d="M93.4308 1.97365C93.0002 1.97365 92.5679 2.07381 92.1618 2.27416C91.3256 2.68628 90.7556 3.44519 90.5982 4.35654C89.5285 10.559 90.2563 19.9137 91.061 29.1666L109.236 14.886C103.924 8.75323 99.1771 4.63147 94.7429 2.30084C94.3286 2.08307 93.881 1.97365 93.4308 1.97365ZM90.2378 32.0525C90.105 32.0525 89.9716 32.0258 89.8459 31.9714C89.5138 31.8271 89.2873 31.513 89.2557 31.1526L89.2426 31.0012C88.3754 21.0934 87.4787 10.8481 88.6563 4.02173C88.922 2.48158 89.8818 1.20004 91.2902 0.505911C92.6926 -0.185493 94.285 -0.166988 95.6602 0.555992C100.506 3.10385 105.657 7.62792 111.405 14.3868C111.578 14.591 111.662 14.8572 111.635 15.1234C111.608 15.3902 111.474 15.6346 111.263 15.8001L90.8465 31.8418C90.6701 31.9806 90.4545 32.0525 90.2378 32.0525Z" fill="#371B45"/>
<path d="M182.84 17.702C174.09 23.0492 185.027 40.5488 168.256 52.4584C168.2 53.1438 168.122 53.8341 168.021 54.5294C165.94 68.8453 154.364 84.5755 133.499 85.2708C126.132 85.176 119.118 84.4471 112.597 82.8405C73.8976 70.5585 82.1471 19.6123 114.702 8.99573C116.292 8.47527 117.942 8.0528 119.646 7.7365C141.141 4.53535 147.361 17.9012 156.93 26.5781C158.463 27.9685 160.727 28.2674 162.518 27.2292C169.712 23.0634 166.625 6.18818 180.895 5.54904C183.999 -0.269646 189.159 3.6044 186.242 9.43779C190.374 14.5422 187.628 21.0436 182.84 17.702Z" fill="url(#paint10_linear_11097_16344)"/>
<path d="M182.84 17.702C174.09 23.0492 185.027 40.5488 168.256 52.4584C168.2 53.1438 168.122 53.8341 168.021 54.5294C165.94 68.8453 154.364 84.5755 133.499 85.2708C126.132 85.176 119.118 84.4471 112.597 82.8405C73.8976 70.5585 82.1471 19.6123 114.702 8.99573C116.292 8.47527 117.942 8.0528 119.646 7.7365C141.141 4.53535 147.361 17.9012 156.93 26.5781C158.463 27.9685 160.727 28.2674 162.518 27.2292C169.712 23.0634 166.625 6.18818 180.895 5.54904C183.999 -0.269646 189.159 3.6044 186.242 9.43779C190.374 14.5422 187.628 21.0436 182.84 17.702Z" fill="url(#paint11_linear_11097_16344)" fill-opacity="0.2"/>
<path d="M168.021 54.5293C165.94 68.8452 154.364 84.5755 133.499 85.2708C126.132 85.176 119.118 84.4471 112.597 82.8405C73.8976 70.5585 82.1471 19.6123 114.702 8.9957C106.042 15.4753 100.668 26.2133 100.811 37.0466C100.845 39.5498 101.151 42.0487 101.662 44.5007C104.226 56.8507 112.16 67.9873 122.995 74.4451C126.118 76.307 129.499 77.8041 133.079 78.4313C140.621 79.7509 148.525 77.0071 154.436 72.1411C160.347 67.2752 164.423 60.4722 167.121 53.3066C167.442 53.7029 167.741 54.1091 168.021 54.5293Z" fill="#9D9FE6"/>
<path d="M160.271 30.2773C159.064 30.2773 157.861 29.8364 156.924 29.0067C148.143 21.227 142.119 9.67946 125.111 9.67946C123.149 9.67946 121.038 9.83353 118.762 10.1645C117.018 10.4808 115.329 10.9038 113.702 11.4238C112.683 11.7488 111.687 12.1108 110.715 12.5093C111.217 11.9905 111.735 11.4891 112.269 11.0035C113.067 10.6746 113.88 10.3741 114.705 10.1035C118.214 8.93361 121.97 8.2863 125.705 8.2863C131.224 8.2863 136.698 9.6996 141.258 12.9258C145.881 16.0943 149.549 20.6243 153.476 24.6797C154.313 25.5393 155.198 26.4076 156.09 27.2226C156.289 27.4066 156.509 27.5977 156.731 27.754C157.878 28.5477 159.036 28.8972 160.149 28.8967C162.744 28.8967 165.089 26.9989 166.451 24.4184C169.555 18.8648 169.787 11.1668 175.834 7.79469C177.388 6.99931 179.154 6.60188 180.968 6.51587C181.287 6.48647 181.587 6.30518 181.754 6.00412C182.195 5.20437 182.756 4.39865 183.517 3.93862C183.852 3.73011 184.164 3.63864 184.449 3.63864C185.26 3.63864 185.842 4.38503 186.051 5.29638C185.756 5.16681 185.437 5.09876 185.102 5.09876C183.923 5.09876 182.56 5.94913 181.453 7.97707C166.847 8.61676 170.006 25.4919 162.643 29.6578C161.904 30.0765 161.086 30.2773 160.271 30.2773Z" fill="#E7E8ED"/>
<path d="M101.903 17.5234C101.897 17.5191 101.889 17.5147 101.883 17.5104C104.955 14.8035 108.446 12.5791 112.268 11.0046C111.734 11.4902 111.217 11.9916 110.714 12.5105C107.509 13.8225 104.564 15.5211 101.903 17.5234Z" fill="#DCDFE6"/>
<path d="M133.486 84.887C141.975 84.0802 150.428 80.995 156.532 74.9003C162.609 68.9673 166.476 60.8289 167.286 52.3768C167.315 52.0801 167.47 51.827 167.694 51.6631C168.027 51.4274 168.798 50.8117 169.116 50.5835C173.83 46.7531 176.382 41.9813 177.225 35.9818C177.709 32.7567 177.686 29.5055 177.941 26.221C178.223 22.6176 178.971 18.9466 182.332 16.8702C182.662 16.6383 183.093 16.6671 183.395 16.9023C185.102 18.1251 186.734 17.8659 187.188 15.6948C187.582 13.7409 186.738 11.585 185.485 10.0476C185.244 9.73893 185.212 9.3317 185.372 9.0007C185.792 8.14379 186.096 7.21285 186.126 6.27156C186.235 4.65247 185.134 2.9305 183.514 3.93875C182.754 4.39878 182.192 5.2045 181.752 6.00424C181.584 6.30531 181.285 6.4866 180.965 6.51599C179.152 6.60201 177.385 6.99944 175.832 7.79482C169.785 11.1669 169.552 18.8649 166.448 24.4185C164.503 28.1058 160.549 30.3994 156.728 27.7541C156.506 27.5979 156.286 27.4068 156.087 27.2228C155.196 26.4078 154.311 25.5394 153.474 24.6798C149.547 20.6245 145.879 16.0944 141.255 12.9259C133.609 7.51608 123.396 7.20467 114.703 10.1037C98.5557 15.3937 87.6381 32.0702 87.7497 48.854C87.8003 65.2266 97.7103 76.9152 112.724 82.4372C113.224 82.6245 112.974 83.3709 112.469 83.2396C96.3242 79.1413 85.8872 65.4793 85.8361 48.8638C85.615 26.9315 103.016 6.19425 125.625 6.20459C139.846 6.15941 146.15 13.6881 154.987 23.2132C155.644 23.8904 156.307 24.5579 156.987 25.1992C157.564 25.7561 158.172 26.3381 158.951 26.5891C162.538 27.7803 164.728 23.763 165.823 20.9435C167.897 15.5979 169.354 8.94027 174.917 6.0527C176.784 5.10216 178.843 4.66228 180.851 4.57571L180.036 5.08909C183.927 -1.97086 190.569 3.10198 187.111 9.87067L186.997 8.82431C187.389 9.32136 187.752 9.84563 188.063 10.4042C189.308 12.6886 189.841 15.7427 188.254 18.0521C186.759 20.1585 184.127 19.8492 182.282 18.4969L183.345 18.529C183.164 18.6559 182.859 18.8753 182.691 18.9885L182.497 19.1676C180.457 20.9794 180.126 23.7282 179.879 26.38C179.489 33.042 179.557 39.9179 175.847 45.8858C174.074 48.8115 171.579 51.2586 168.819 53.2485L169.224 52.5358C168.216 65.9801 159.249 78.6127 146.582 83.4476C142.408 85.0662 137.92 85.7739 133.511 85.6503C133.3 85.6449 133.134 85.4685 133.14 85.2572C133.145 85.0618 133.296 84.905 133.486 84.887Z" fill="#371B45"/>
<path d="M187.317 9.1205C186.262 10.3171 185.456 11.7108 185.418 13.3549C185.415 13.4698 185.32 13.5607 185.205 13.5586C185.112 13.5564 185.034 13.4921 185.01 13.4072C184.771 12.5612 184.723 11.6297 184.863 10.7194C185 9.80047 185.304 8.91199 185.673 8.07577C186.356 6.73651 188.24 7.93205 187.317 9.1205Z" fill="#371B45"/>
<path d="M161.792 27.0308C164.742 29.4535 165.379 33.7843 164.295 37.2446C164.138 37.7519 163.376 37.5728 163.465 37.0475C163.766 35.4208 163.716 33.7391 163.238 32.2251C162.769 30.7132 161.848 29.3979 160.61 28.5753C159.501 27.7734 160.721 26.169 161.792 27.0308Z" fill="#371B45"/>
<path d="M161.213 55.4297C160.394 55.4297 159.612 55.3371 158.89 55.145C156.828 54.5973 155.304 53.2945 154.483 51.3782C154.272 50.8844 154.5 50.3133 154.994 50.1015C155.488 49.8903 156.059 50.1189 156.271 50.6122C156.856 51.9786 157.905 52.8715 159.389 53.2656C162.08 53.981 166.039 52.9118 169.015 50.6661C169.444 50.3421 170.054 50.4276 170.377 50.8566C170.7 51.2851 170.615 51.8948 170.186 52.2182C167.475 54.2636 164.117 55.4297 161.213 55.4297Z" fill="#371B45"/>
<path d="M153.75 54.6724C152.734 52.0195 154.322 49.0813 156.858 48.0333C157.209 47.8699 157.548 48.3185 157.299 48.6103C156.906 49.09 156.509 49.526 156.183 49.979C155.11 51.3155 154.958 53.0016 154.571 54.6125C154.487 55.0273 153.888 55.0698 153.75 54.6724Z" fill="#371B45"/>
<path d="M114.147 73.3022C112.027 70.2034 109.261 67.5978 106.087 65.5905C93.7323 57.7809 74.0817 49.0115 72.6499 28.3494C72.4409 25.3382 73.1361 22.4871 74.4922 20.0542C77.2192 15.1441 82.6225 11.9359 88.6796 12.5434C94.3622 13.1145 100.915 16.0919 107.613 21.7092C112.693 29.1464 117.615 38.1156 121.902 47.5312C123.752 51.5904 125.483 55.7318 127.057 59.8688C136.172 74.9087 123.925 87.5963 114.147 73.3022Z" fill="url(#paint12_linear_11097_16344)"/>
<path d="M114.147 73.3022C112.027 70.2034 109.261 67.5978 106.087 65.5905C93.7323 57.7809 74.0817 49.0115 72.6499 28.3494C72.4409 25.3382 73.1361 22.4871 74.4922 20.0542C77.2192 15.1441 82.6225 11.9359 88.6796 12.5434C94.3622 13.1145 100.915 16.0919 107.613 21.7092C112.693 29.1464 117.615 38.1156 121.902 47.5312C123.752 51.5904 125.483 55.7318 127.057 59.8688C136.172 74.9087 123.925 87.5963 114.147 73.3022Z" fill="url(#paint13_linear_11097_16344)" fill-opacity="0.2"/>
<path d="M72.697 28.9436C72.6964 28.9431 72.6964 28.942 72.6964 28.9409C72.6964 28.9425 72.6964 28.9425 72.697 28.9436ZM72.6943 28.9131C72.6937 28.912 72.6937 28.9104 72.6937 28.9099C72.6937 28.9109 72.6937 28.9115 72.6943 28.9131ZM72.6915 28.8826C72.6915 28.881 72.691 28.8788 72.691 28.8766C72.691 28.8794 72.691 28.8805 72.6915 28.8826ZM72.6888 28.8521C72.6888 28.85 72.6883 28.8478 72.6883 28.8456C72.6883 28.8483 72.6888 28.8494 72.6888 28.8521ZM72.6861 28.8222C72.6861 28.8189 72.6861 28.8168 72.6856 28.8135C72.6861 28.8173 72.6861 28.8184 72.6861 28.8222ZM72.6812 28.7607C72.6812 28.758 72.6807 28.7542 72.6807 28.7514C72.6807 28.7536 72.6812 28.758 72.6812 28.7607ZM72.679 28.7297C72.6785 28.7264 72.6785 28.7231 72.6779 28.7199C72.6779 28.7226 72.6785 28.7275 72.679 28.7297ZM72.6714 28.6387C72.6714 28.6344 72.6709 28.6306 72.6709 28.6268C72.6709 28.6306 72.6714 28.6349 72.6714 28.6387ZM72.6692 28.6072C72.6687 28.6034 72.6687 28.6001 72.6681 28.5957C72.6687 28.5995 72.6687 28.6039 72.6692 28.6072ZM72.667 28.5778C72.6665 28.5734 72.666 28.569 72.666 28.5647C72.666 28.5696 72.6665 28.5729 72.667 28.5778ZM72.6643 28.5467C72.6643 28.5424 72.6638 28.5386 72.6638 28.5337C72.6638 28.5391 72.6643 28.5418 72.6643 28.5467ZM72.6621 28.5162C72.6621 28.5124 72.6616 28.507 72.6611 28.5026C72.6616 28.5064 72.6621 28.5124 72.6621 28.5162ZM72.6578 28.4542C72.6572 28.4498 72.6572 28.4455 72.6567 28.4411C72.6572 28.446 72.6572 28.4493 72.6578 28.4542ZM72.6551 28.4204C72.6551 28.4177 72.6545 28.4133 72.6545 28.4106C72.6551 28.4144 72.6551 28.4166 72.6551 28.4204ZM72.6529 28.3888C72.6529 28.3861 72.6523 28.3823 72.6523 28.3796C72.6523 28.3834 72.6529 28.385 72.6529 28.3888ZM74.5611 19.9308C77.0839 15.4884 81.8077 12.4697 87.211 12.4691C81.8083 12.4702 77.0839 15.4884 74.5611 19.9308Z" fill="#F5F7F8"/>
<path d="M86.0663 52.4609C79.1909 46.7206 73.6047 39.3656 72.6966 28.9417C72.696 28.9406 72.696 28.9406 72.696 28.939C72.6955 28.9292 72.6944 28.9205 72.6939 28.9112C72.6933 28.9096 72.6933 28.9091 72.6933 28.908C72.6928 28.8987 72.6917 28.89 72.6911 28.8808C72.6906 28.8786 72.6906 28.8775 72.6906 28.8748C72.69 28.8666 72.689 28.8584 72.6884 28.8503C72.6884 28.8476 72.6879 28.8465 72.6879 28.8437C72.6873 28.8361 72.6868 28.828 72.6857 28.8203C72.6857 28.8165 72.6857 28.8154 72.6851 28.8116C72.6846 28.8045 72.6841 28.7964 72.6835 28.7893C72.683 28.7866 72.683 28.7833 72.6824 28.7811C72.6819 28.773 72.6813 28.7664 72.6808 28.7588C72.6808 28.7561 72.6802 28.7517 72.6802 28.7496C72.6797 28.7425 72.6792 28.7354 72.6786 28.7278C72.6781 28.7256 72.6775 28.7207 72.6775 28.718C72.677 28.7109 72.6764 28.7055 72.6759 28.6984C72.6759 28.6946 72.6753 28.6902 72.6748 28.6864C72.6748 28.681 72.6737 28.6733 72.6737 28.6673C72.6732 28.6635 72.6732 28.6597 72.6726 28.6559C72.6721 28.6494 72.6715 28.6434 72.671 28.6369C72.671 28.6331 72.6704 28.6287 72.6704 28.6249C72.6699 28.6184 72.6694 28.6118 72.6688 28.6053C72.6683 28.602 72.6683 28.5977 72.6677 28.5939C72.6672 28.5884 72.6666 28.5819 72.6666 28.5759C72.6661 28.571 72.6655 28.5677 72.6655 28.5628C72.665 28.5568 72.6645 28.5508 72.6639 28.5449C72.6639 28.54 72.6634 28.5372 72.6634 28.5318C72.6628 28.5264 72.6623 28.5204 72.6617 28.5144C72.6617 28.5106 72.6612 28.5046 72.6606 28.5008C72.6601 28.4942 72.6601 28.4893 72.6596 28.4828C72.659 28.479 72.659 28.4741 72.6585 28.4703C72.6579 28.4643 72.6579 28.4583 72.6574 28.4523C72.6568 28.4474 72.6568 28.4441 72.6563 28.4392C72.6557 28.4322 72.6552 28.4256 72.6547 28.4186C72.6547 28.4147 72.6547 28.4126 72.6541 28.4088C72.6536 28.4011 72.653 28.3946 72.6525 28.387C72.6525 28.3832 72.6519 28.3815 72.6519 28.3777C72.6514 28.3668 72.6503 28.357 72.6498 28.3467C72.6253 27.9939 72.6133 27.6433 72.6133 27.2949C72.6127 24.673 73.2949 22.1992 74.4921 20.0515C74.5035 20.0308 74.5149 20.0101 74.5263 19.9899C74.528 19.9872 74.5302 19.9834 74.5312 19.9807C74.5378 19.9693 74.5438 19.9589 74.5503 19.9475C74.5508 19.9464 74.5519 19.9448 74.5525 19.9437C74.5552 19.9382 74.5579 19.9339 74.5606 19.929C77.0835 15.4866 81.8079 12.4683 87.2106 12.4672C87.2112 12.4672 87.2123 12.4672 87.2134 12.4672C87.6739 12.4672 88.1394 12.489 88.6092 12.5342C88.6321 12.5364 88.6561 12.5386 88.6795 12.5407C94.3621 13.1118 100.915 16.0892 107.613 21.7065C107.679 21.8039 107.746 21.9041 107.812 22.0021C101.725 17.2918 95.8118 14.7636 90.6236 14.242C90.1303 14.193 89.6414 14.1685 89.1575 14.1685C83.7046 14.1685 78.9415 17.2428 76.4367 21.7528C75.0806 24.1857 74.3853 27.0368 74.5944 30.048C75.2684 39.7745 79.9797 46.8649 86.0663 52.4609Z" fill="#E7E8ED"/>
<path d="M114.551 73.8747C114.55 73.8736 114.55 73.8725 114.549 73.8714C114.549 73.872 114.551 73.8742 114.551 73.8747ZM114.535 73.8524C114.534 73.8513 114.533 73.8497 114.532 73.8486C114.533 73.8497 114.535 73.8513 114.535 73.8524ZM114.519 73.8295C114.518 73.8284 114.517 73.8273 114.516 73.8257C114.517 73.8268 114.518 73.8284 114.519 73.8295ZM114.488 73.7876C114.487 73.7854 114.486 73.7832 114.484 73.7816C114.485 73.7832 114.487 73.786 114.488 73.7876ZM114.456 73.7419C114.454 73.7391 114.452 73.7364 114.45 73.7342C114.452 73.737 114.453 73.7391 114.456 73.7419ZM114.392 73.6531C114.39 73.6504 114.388 73.6471 114.386 73.6444C114.389 73.6477 114.39 73.6499 114.392 73.6531ZM114.376 73.6297C114.373 73.6265 114.371 73.6232 114.369 73.6205C114.372 73.6237 114.373 73.6259 114.376 73.6297ZM114.359 73.6063C114.357 73.603 114.354 73.5998 114.352 73.5965C114.354 73.5992 114.357 73.6036 114.359 73.6063ZM114.344 73.5851C114.341 73.5813 114.339 73.5775 114.336 73.5736C114.339 73.5769 114.342 73.5813 114.344 73.5851ZM114.328 73.5622C114.325 73.5584 114.323 73.5546 114.32 73.5502C114.322 73.5541 114.326 73.5589 114.328 73.5622ZM114.312 73.5388C114.31 73.5355 114.307 73.5323 114.305 73.529C114.308 73.5328 114.309 73.535 114.312 73.5388ZM114.295 73.5149C114.293 73.5121 114.291 73.5094 114.289 73.5061C114.291 73.5099 114.293 73.5116 114.295 73.5149ZM114.279 73.4909C114.276 73.4882 114.274 73.4855 114.273 73.4827C114.274 73.4855 114.276 73.4887 114.279 73.4909ZM114.231 73.4228C114.229 73.4196 114.227 73.4169 114.225 73.4141C114.226 73.4169 114.229 73.4201 114.231 73.4228ZM114.214 73.3983C114.212 73.3962 114.211 73.394 114.21 73.3918C114.211 73.3945 114.212 73.3956 114.214 73.3983ZM114.198 73.3744C114.196 73.3722 114.194 73.37 114.193 73.3679C114.194 73.3695 114.196 73.3728 114.198 73.3744ZM114.181 73.3499C114.179 73.3477 114.178 73.3461 114.177 73.3444C114.178 73.3461 114.18 73.3483 114.181 73.3499ZM114.164 73.3254C114.163 73.3243 114.162 73.3227 114.161 73.3216C114.162 73.3227 114.163 73.3243 114.164 73.3254ZM114.097 73.2285C114.095 73.2258 114.094 73.2225 114.091 73.2198C114.094 73.223 114.095 73.2258 114.097 73.2285ZM114.061 73.1762C113.043 71.7068 111.879 70.3502 110.596 69.1165C110.599 69.1193 110.603 69.122 110.606 69.1247C111.886 70.3562 113.046 71.7101 114.061 73.1762Z" fill="#DCDFE6"/>
<path d="M118.345 77.793C117.084 76.8849 115.809 75.6028 114.569 73.8971C114.568 73.8966 114.567 73.8961 114.567 73.895C114.563 73.8884 114.558 73.8819 114.553 73.8754C114.552 73.8748 114.551 73.8727 114.55 73.8721C114.546 73.8656 114.541 73.8596 114.536 73.8531C114.536 73.852 114.534 73.8503 114.534 73.8492C114.529 73.8427 114.524 73.8367 114.52 73.8302C114.52 73.8291 114.518 73.8275 114.517 73.8264C114.513 73.8209 114.509 73.8155 114.505 73.8095C114.504 73.8079 114.503 73.8062 114.502 73.8046C114.497 73.7992 114.493 73.7937 114.49 73.7883C114.489 73.7866 114.486 73.7839 114.485 73.7823C114.481 73.7763 114.478 73.7714 114.473 73.7659C114.472 73.7632 114.47 73.761 114.468 73.7583C114.465 73.7529 114.461 73.748 114.457 73.7425C114.455 73.7398 114.453 73.7376 114.452 73.7349C114.448 73.7295 114.444 73.7246 114.44 73.7191C114.438 73.7164 114.436 73.7137 114.435 73.711C114.432 73.7077 114.429 73.7039 114.426 73.7001C114.424 73.6957 114.42 73.6919 114.418 73.6875C114.415 73.6843 114.413 73.681 114.41 73.6772C114.407 73.6734 114.404 73.669 114.401 73.6647C114.399 73.6609 114.397 73.6576 114.394 73.6538C114.392 73.6505 114.39 73.6483 114.387 73.6451C114.384 73.6402 114.38 73.6353 114.377 73.6304C114.375 73.6266 114.373 73.6244 114.37 73.6211C114.367 73.6162 114.364 73.6113 114.361 73.607C114.358 73.6042 114.355 73.5999 114.354 73.5972C114.351 73.5934 114.348 73.5895 114.345 73.5857C114.343 73.5819 114.34 73.5776 114.337 73.5743C114.335 73.5705 114.332 73.5667 114.33 73.5629C114.327 73.5596 114.324 73.5547 114.321 73.5509C114.319 73.5471 114.316 73.5433 114.313 73.5395C114.311 73.5357 114.309 73.5335 114.306 73.5297C114.303 73.5248 114.3 73.5204 114.296 73.5155C114.294 73.5123 114.293 73.5106 114.29 73.5068C114.287 73.5019 114.283 73.497 114.28 73.4916C114.278 73.4894 114.276 73.4861 114.274 73.4834C114.27 73.478 114.266 73.4725 114.263 73.4671C114.261 73.4649 114.259 73.4622 114.257 73.4594C114.254 73.4551 114.251 73.4507 114.248 73.4464C114.246 73.4431 114.244 73.4393 114.241 73.436C114.238 73.4317 114.235 73.4273 114.232 73.4235C114.23 73.4208 114.228 73.4175 114.226 73.4148C114.223 73.4094 114.219 73.4045 114.215 73.399C114.214 73.3963 114.213 73.3952 114.211 73.3925C114.207 73.3865 114.203 73.3805 114.199 73.3751C114.197 73.3734 114.196 73.3702 114.195 73.3685C114.19 73.3625 114.186 73.3565 114.182 73.3506C114.181 73.3489 114.179 73.3467 114.178 73.3451C114.174 73.3386 114.17 73.332 114.165 73.3261C114.165 73.325 114.164 73.3233 114.162 73.3222C114.158 73.3152 114.153 73.3081 114.148 73.301C114.144 73.295 114.14 73.289 114.136 73.283C114.135 73.2825 114.135 73.282 114.135 73.2814C114.131 73.276 114.127 73.2705 114.123 73.2651C114.123 73.2645 114.122 73.2635 114.122 73.2629C114.118 73.2575 114.115 73.2526 114.111 73.2471C114.11 73.2455 114.109 73.2438 114.108 73.2422C114.105 73.2379 114.102 73.2335 114.099 73.2291C114.097 73.2264 114.095 73.2237 114.093 73.2204C114.091 73.2177 114.089 73.215 114.087 73.2117C114.084 73.2079 114.081 73.2036 114.078 73.1998C114.077 73.1976 114.076 73.1959 114.075 73.1943C114.071 73.1889 114.068 73.184 114.064 73.1791C114.063 73.178 114.063 73.1774 114.062 73.1769C113.047 71.7108 111.887 70.3568 110.607 69.1254C112.71 70.8043 114.569 72.7751 116.092 75.0029C116.833 76.0846 117.587 77.0096 118.345 77.793Z" fill="#E7E8ED"/>
<path d="M114.147 73.3022C112.027 70.2034 109.261 67.5978 106.087 65.5905C93.7323 57.7809 74.0817 49.0115 72.6499 28.3494C72.4409 25.3383 73.1361 22.4872 74.4922 20.0542C75.0829 19.6627 75.5544 19.1837 75.6709 18.4982L76.6285 17.6381C73.4883 21.357 73.6195 26.7793 74.2761 31.6017C74.575 33.806 74.9517 36.0082 75.6491 38.12C77.5426 43.8369 81.7378 48.5863 86.6522 52.0717C91.5645 55.557 97.191 57.8925 102.845 59.9684C104.74 60.6658 106.67 61.3419 108.68 61.5189C114.11 61.9952 119.625 58.3085 121.258 53.1093C121.827 51.2986 121.326 50.4216 121.273 48.5254C123.122 52.5845 125.483 55.7318 127.057 59.8688C136.172 74.9087 123.925 87.5963 114.147 73.3022Z" fill="#9D9FE6"/>
<path d="M127.557 60.7225C130.219 69.1021 122.198 77.8519 117.095 68.616C112.942 61.9725 109.677 57.8115 101.996 54.1645C97.108 51.8431 92.8371 48.3752 89.7242 43.9491C82.4497 33.6058 82.2412 22.4105 90.1428 21.6168C91.5327 21.4774 92.9329 21.718 94.2335 22.2276C103.171 25.7265 111.312 34.0539 119.026 44.9759C119.834 46.1197 120.585 47.3044 121.275 48.5228C123.749 52.8911 125.875 57.0243 127.557 60.7225Z" fill="#EFEEFE"/>
<path d="M92.6406 46.1353C85.3667 36.5825 85.1582 26.243 93.0598 25.5096C94.4497 25.3811 95.8494 25.6038 97.15 26.0736C102.101 27.8642 106.808 31.0251 111.334 35.2024C105.92 29.1403 100.257 24.5858 94.2335 22.2274C92.9329 21.7178 91.5327 21.4772 90.1428 21.6165C82.2412 22.4103 82.4497 33.6056 89.7242 43.9489C92.8371 48.375 97.108 51.8429 101.996 54.1643C102.325 54.3205 102.643 54.4779 102.956 54.6357C98.8861 52.5376 95.3305 49.668 92.6406 46.1353Z" fill="#ADAEC4"/>
<path d="M120.011 68.9181C115.858 62.782 112.593 58.9395 104.913 55.5707C104.36 55.3284 103.817 55.0709 103.281 54.802C110.055 58.3004 113.181 62.3563 117.094 68.6159C119.09 72.2281 121.533 73.0894 123.607 72.2973C122.364 71.8378 121.118 70.7696 120.011 68.9181Z" fill="#ADAEC4"/>
<path d="M127.358 59.6854C131.117 63.9422 132.489 72.2129 129.165 77.0533C128.344 78.2847 127.163 79.324 125.78 79.8804L125.17 80.1091C124.783 80.1875 124.284 80.3437 123.894 80.3519C119.864 80.7471 116.421 77.8057 114.141 74.8103L113.439 73.8576C111.557 71.1344 109.158 68.7853 106.41 66.9337C105.356 66.2347 103.681 65.2221 102.576 64.5639C97.3816 61.4776 91.919 58.3494 87.1287 54.6485C80.9763 49.9132 75.5479 43.801 73.1307 36.3028C72.6849 35.0289 72.374 33.627 72.0909 32.3085C71.9842 31.7129 71.9053 31.1075 71.8127 30.562C71.0941 26.1708 71.9374 21.4834 74.6491 17.8897C78.7344 12.3448 85.3741 10.3387 91.9528 12.0988C98.0447 13.5719 103.485 17.0497 107.793 21.4937C107.9 21.6059 107.896 21.7828 107.784 21.8895C107.687 21.982 107.541 21.9918 107.435 21.92C104.91 20.2606 102.39 18.6279 99.7204 17.2429C95.8121 15.2466 91.6038 13.5425 87.2109 13.4761C79.4732 13.4146 73.1422 20.4261 73.6986 28.0931C73.8026 29.5151 73.9904 31.0525 74.2914 32.4527C75.2316 37.145 77.4294 41.5346 80.4019 45.2699C87.4951 54.1487 98.06 59.2869 107.476 65.374C110.387 67.3709 112.939 69.91 114.924 72.8368C116.332 74.856 118.105 76.884 120.322 77.9619C124.518 80.0083 127.972 77.491 129.08 73.2745C129.831 70.2889 129.371 67.1139 128.336 64.2296C128.132 63.7255 127.963 63.1838 127.755 62.6791C127.431 61.7972 127.058 60.9582 126.759 60.048C126.617 59.6789 127.107 59.3963 127.358 59.6854Z" fill="#371B45"/>
<path d="M127.849 60.632C129.248 63.8016 128.909 67.7573 126.884 70.6024C125.033 73.3016 121.677 74.3942 118.955 72.2089C117.798 71.3351 117.01 70.1494 116.288 68.9343C115.254 67.3098 114.178 65.6624 113.011 64.1369C110.358 60.5258 106.854 57.6453 102.845 55.6479C95.8151 52.4897 90.3475 47.823 86.6695 40.9863C84.2871 36.5281 82.3659 31.1999 83.6082 26.0862C84.2675 23.6162 85.9704 21.6302 88.4737 20.9083C90.4265 20.3492 92.5431 20.506 94.4279 21.229C94.975 21.4527 95.7612 21.7941 96.3088 22.0325C99.6515 23.6113 102.746 25.7438 105.537 28.1321C111.573 33.3416 116.428 39.7624 120.55 46.5415C120.769 46.9237 120.243 47.2993 119.959 46.9492C116.341 42.3201 112.673 37.7307 108.537 33.5665C104.271 29.2716 99.406 25.3197 93.7251 23.1148C90.6769 21.9634 86.9814 22.6434 85.8006 26.0176C84.3089 30.5983 86.2878 35.9009 88.4698 40.0004C91.4728 45.6176 96.2201 50.2527 101.941 53.0723C104.336 54.2259 106.744 55.5782 108.829 57.2338C110.958 58.8986 112.82 60.9156 114.417 63.0797C116.018 65.1751 117.305 67.4524 118.754 69.6404C121.477 73.2918 124.867 71.7761 126.505 68.1237C127.539 65.8578 127.721 63.2865 127.262 60.8187C127.186 60.4518 127.708 60.3053 127.849 60.632Z" fill="#371B45"/>
<path d="M132.88 43.1741C134.521 43.7185 136.196 44.1006 137.86 43.8203C141.111 43.3183 143.399 40.4531 144.181 37.3303C144.616 35.6579 144.652 33.913 144.38 32.1813C144.32 31.8154 144.841 31.6456 145.006 31.9809C147.824 37.3124 144.563 45.533 138.027 45.7796C136.98 45.8085 135.951 45.5967 135.034 45.2047C134.115 44.8127 133.3 44.2569 132.623 43.5824C132.437 43.4043 132.643 43.0815 132.88 43.1741Z" fill="#371B45"/>
<path d="M136.452 45.2297C135.865 47.3578 133.491 48.6073 131.415 48.2953C131.076 48.2512 131.098 47.7411 131.438 47.7259C133.041 47.6687 134.743 46.4966 134.87 44.8906C135.03 43.6847 136.797 44.0598 136.452 45.2297Z" fill="#371B45"/>
<path d="M139.455 44.442C140.162 46.0078 139.702 47.7129 138.819 49.0554C138.597 49.3554 137.664 50.5672 137.302 50.0272C137.219 49.896 137.247 49.7261 137.36 49.627C138.386 48.6079 138.831 46.5228 138.011 45.3022C137.241 44.2597 138.896 43.2683 139.455 44.442Z" fill="#371B45"/>
<path d="M126.373 32.4668C123.146 25.2147 126.927 16.3647 131.942 23.4192C129.108 24.2668 127.309 27.4103 126.373 32.4668Z" fill="#371B45"/>
<path d="M166.467 21.1478C166.472 21.1571 166.476 21.1663 166.48 21.1756C166.549 21.3329 166.789 21.4745 166.962 21.4516C167.716 21.352 168.352 21.4527 169.037 21.8033C169.62 22.1027 170.151 22.4833 170.62 22.9406C171.093 23.4011 171.465 23.9292 171.844 24.4655C172.204 24.9761 172.432 25.6953 172.97 26.0399C173.037 26.0829 173.14 26.0557 173.177 25.986C173.536 25.318 173.104 24.4154 172.813 23.7904C172.485 23.0865 171.927 22.4571 171.357 21.9378C170.773 21.4059 170.11 20.9469 169.389 20.6235C168.557 20.2506 167.543 19.9822 166.68 20.4129C166.48 20.5125 166.339 20.8266 166.424 21.0422C166.437 21.0781 166.452 21.113 166.467 21.1478Z" fill="#371B45"/>
<path d="M171.06 11.3156C171.292 11.5492 171.64 11.5987 171.95 11.657C172.24 11.7114 172.534 11.7479 172.822 11.8214C173.412 11.9727 173.977 12.227 174.463 12.5983C174.862 12.9031 175.23 13.3218 175.498 13.76C175.662 14.029 175.815 14.3001 176.017 14.5451C176.187 14.7525 176.413 14.9126 176.621 15.0813C176.677 15.1276 176.774 15.133 176.813 15.0563C177.145 14.4003 177.063 13.7355 176.691 13.1105C176.319 12.485 175.829 11.9417 175.253 11.4996C174.654 11.0412 173.96 10.7015 173.224 10.5284C172.852 10.4413 172.458 10.3711 172.076 10.4015C171.676 10.4331 171.24 10.5186 171.003 10.8741C170.914 11.008 170.951 11.2056 171.06 11.3156Z" fill="#371B45"/>
<path d="M139.874 92.5101C142.46 102.728 145.812 112.696 150.26 122.262C150.311 122.375 150.335 122.491 150.334 122.609L150.26 122.265C150.702 123.22 152.165 126.332 152.59 127.249C153.214 128.327 153.016 129.778 152.026 130.573C151.775 130.799 151.391 130.975 151.089 131.074C150.683 131.212 150.274 131.351 149.865 131.474C145.273 132.853 140.481 133.489 135.677 133.254C134.288 133.17 132.889 133.039 131.53 132.713C128 131.861 124.939 129.287 123.515 125.949C120.58 119.149 117.939 111.863 118.218 104.342C118.284 102.978 118.489 101.615 118.827 100.292C118.932 99.9179 119.484 99.9648 119.495 100.37C119.493 103.368 119.669 106.292 120.118 109.221C120.862 114.117 122.429 118.834 124.37 123.385C124.89 124.544 125.344 125.776 126.07 126.818C128.451 130.25 131.775 131.262 135.777 131.415C140.328 131.631 144.964 131.032 149.35 129.772C149.792 129.642 150.275 129.49 150.7 129.336C151.13 129.175 151.335 128.63 151.126 128.22L151.021 127.991C150.902 127.72 150.522 126.903 150.395 126.617C150.378 126.522 148.481 122.588 148.651 122.606L148.724 122.95C146.584 118.095 144.595 113.166 142.889 108.129C141.201 103.092 139.671 97.9357 139.283 92.6086C139.271 92.4431 139.395 92.2989 139.561 92.2869C139.707 92.2766 139.837 92.374 139.874 92.5101Z" fill="#371B45"/>
<path d="M89.8694 128.97C86.3634 132.05 81.8387 133.613 77.3991 134.754C65.7067 137.54 53.3385 137.81 41.5953 135.178C39.8987 134.762 38.1833 134.279 36.5529 133.644C35.3286 133.08 34.5682 131.728 34.681 130.395C34.8018 129.066 35.0617 127.762 35.3965 126.479C36.6358 121.965 38.9709 117.783 42.15 114.342C42.9861 113.432 43.9388 112.558 45.1112 112.089C46.2472 111.571 47.5466 111.485 48.7771 111.521L55.5817 111.519L58.9679 111.516C60.103 111.497 61.243 111.046 62.0444 110.227C62.7075 109.56 63.3886 108.908 64.1344 108.333C65.0605 107.622 66.0371 106.975 67.0465 106.392C69.0652 105.225 71.239 104.335 73.4804 103.795C73.6568 103.753 73.8342 103.861 73.8767 104.038C73.9143 104.193 73.8337 104.349 73.6938 104.413C70.6304 105.819 67.843 107.608 65.3142 109.79C64.7714 110.245 63.768 111.095 63.253 111.545C62.0782 112.558 60.562 113.191 59.0001 113.216L55.5817 113.217L48.7771 113.215C47.7754 113.195 46.6954 113.216 45.7734 113.646C44.7978 114.04 44.1186 114.717 43.3819 115.498C40.4056 118.712 38.1811 122.685 37.0195 126.915C36.7492 127.975 36.5088 129.047 36.4005 130.13L36.3749 130.333C36.2414 131.048 36.6057 131.824 37.2685 132.128C38.268 132.506 39.3434 132.839 40.3688 133.134C47.95 135.19 55.8959 135.596 63.7196 135.184C72.5995 134.629 81.676 132.959 89.3876 128.336C89.5743 128.215 89.828 128.271 89.9445 128.462C90.0474 128.63 90.012 128.843 89.8694 128.97Z" fill="#371B45"/>
<path d="M45.4624 112.689C45.4219 113.243 45.6305 113.742 45.6731 114.288C45.714 114.812 45.6818 115.341 45.5773 115.855C45.3426 117.01 44.8375 118.076 44.3858 119.158C43.5464 121.166 42.6123 123.121 41.5611 125.027C41.268 125.559 40.8911 126.043 40.5037 126.509C40.3114 126.741 40.1018 126.958 39.911 127.19C39.7047 127.442 39.5544 127.736 39.3381 127.978C39.2073 128.125 39.3852 128.403 39.5624 128.269C39.7827 128.103 40.0251 127.971 40.2462 127.805C40.4805 127.63 40.6716 127.407 40.8647 127.188C41.247 126.755 41.5972 126.299 41.9419 125.837C42.2821 125.381 42.6562 124.948 42.9813 124.48C43.3158 123.998 43.5949 123.472 43.8734 122.956C44.4354 121.916 44.9585 120.866 45.4638 119.797C46.0003 118.662 46.5356 117.49 46.7931 116.254C46.9313 115.591 46.9986 114.906 46.9271 114.23C46.85 113.502 46.7131 112.772 46.0625 112.345C45.7917 112.167 45.4831 112.407 45.4624 112.689Z" fill="#371B45"/>
<path d="M45.3804 112.894C45.3755 112.896 45.3682 112.899 45.3634 112.906L45.3585 112.904C45.2977 112.858 45.2321 112.821 45.1641 112.788L46.1339 112.374C45.8787 112.542 45.6283 112.715 45.3804 112.894Z" fill="#9D9FE6"/>
<path d="M8.224 157.36L6.144 174H1.184L4.608 150.128H10.784L15.808 166.096H15.872L20.8 150.128H26.816L30.24 174H25.248L23.232 157.296H23.104L17.92 174H13.472L8.32 157.36H8.224ZM36.2048 153.84C34.6048 153.84 33.3888 152.624 33.3888 151.056C33.3888 149.52 34.6048 148.304 36.2048 148.304C37.7408 148.304 38.9888 149.52 38.9888 151.056C38.9888 152.624 37.7408 153.84 36.2048 153.84ZM33.6448 174V156.272H38.7648V174H33.6448ZM52.9703 155.824C56.8103 155.824 59.1783 158.192 59.1783 162.16V174H54.0583V163.632C54.0583 161.456 53.0983 160.464 51.2423 160.464C49.4183 160.464 48.1703 161.744 48.1703 163.504V174H43.0503V156.272H47.0183L47.5303 158.768H47.6263C48.6823 157.104 50.5383 155.824 52.9703 155.824ZM70.3083 174.448C66.1803 174.448 62.3403 170.8 62.3403 165.136C62.3403 159.472 66.1163 155.824 70.2443 155.824C72.6443 155.824 74.6603 157.04 75.7483 158.864V148.304H80.8683V174H76.5483L76.0363 171.28C74.8843 173.136 72.8363 174.448 70.3083 174.448ZM71.6843 169.84C74.0523 169.84 75.8123 167.888 75.8123 165.136C75.8123 162.384 74.0523 160.432 71.6843 160.432C69.2843 160.432 67.4923 162.448 67.4923 165.136C67.4923 167.856 69.2843 169.84 71.6843 169.84ZM86.4568 174V160.496H84.0247V156.272H86.4568V154.48C86.4568 151.152 88.8888 148.016 93.4328 148.016C94.6488 148.016 95.6728 148.208 96.8248 148.56V152.848C96.1848 152.656 95.2888 152.464 94.3288 152.464C92.4728 152.464 91.5128 153.2 91.5128 154.896V156.272H96.1848V160.496H91.5768V174H86.4568ZM106.577 174.448C101.553 174.448 98.545 171.28 98.545 166.8V156.272H103.665V166.8C103.665 168.784 104.721 169.84 106.577 169.84C108.465 169.84 109.585 168.784 109.585 166.768V156.272H114.705V166.8C114.705 171.28 111.633 174.448 106.577 174.448ZM118.77 174V148.304H123.89V174H118.77ZM142.224 157.36L140.144 174H135.184L138.608 150.128H144.784L149.808 166.096H149.872L154.8 150.128H160.816L164.24 174H159.248L157.232 157.296H157.104L151.92 174H147.472L142.32 157.36H142.224ZM170.205 153.84C168.605 153.84 167.389 152.624 167.389 151.056C167.389 149.52 168.605 148.304 170.205 148.304C171.741 148.304 172.989 149.52 172.989 151.056C172.989 152.624 171.741 153.84 170.205 153.84ZM167.645 174V156.272H172.765V174H167.645ZM186.97 155.824C190.81 155.824 193.178 158.192 193.178 162.16V174H188.058V163.632C188.058 161.456 187.098 160.464 185.242 160.464C183.418 160.464 182.17 161.744 182.17 163.504V174H177.05V156.272H181.018L181.53 158.768H181.626C182.682 157.104 184.538 155.824 186.97 155.824ZM199.892 153.84C198.292 153.84 197.076 152.624 197.076 151.056C197.076 149.52 198.292 148.304 199.892 148.304C201.428 148.304 202.676 149.52 202.676 151.056C202.676 152.624 201.428 153.84 199.892 153.84ZM197.332 174V156.272H202.452V174H197.332Z" fill="white"/>
<defs>
<filter id="filter0_f_11097_16344" x="21.1738" y="113.882" width="153.438" height="37.5312" filterUnits="userSpaceOnUse" color-interpolation-filters="sRGB">
<feFlood flood-opacity="0" result="BackgroundImageFix"/>
<feBlend mode="normal" in="SourceGraphic" in2="BackgroundImageFix" result="shape"/>
<feGaussianBlur stdDeviation="5" result="effect1_foregroundBlur_11097_16344"/>
</filter>
<linearGradient id="paint0_linear_11097_16344" x1="60.3927" y1="95.6582" x2="134.804" y2="-1.12284" gradientUnits="userSpaceOnUse">
<stop stop-color="#9D9FE6"/>
<stop offset="0.163505" stop-color="#CFC0FF"/>
<stop offset="1" stop-color="#8E00FF"/>
</linearGradient>
<linearGradient id="paint1_linear_11097_16344" x1="59.8318" y1="27.1274" x2="79.2934" y2="29.8098" gradientUnits="userSpaceOnUse">
<stop stop-color="white" stop-opacity="0"/>
<stop offset="1" stop-color="#8E00FF"/>
</linearGradient>
<linearGradient id="paint2_linear_11097_16344" x1="96.7442" y1="135.049" x2="170.753" y2="-196.671" gradientUnits="userSpaceOnUse">
<stop stop-color="#9D9FE6"/>
<stop offset="0.163505" stop-color="#CFC0FF"/>
<stop offset="1" stop-color="#8E00FF"/>
</linearGradient>
<linearGradient id="paint3_linear_11097_16344" x1="92.3734" y1="-19.9223" x2="218.47" y2="39.9728" gradientUnits="userSpaceOnUse">
<stop stop-color="white" stop-opacity="0"/>
<stop offset="1" stop-color="#8E00FF"/>
</linearGradient>
<linearGradient id="paint4_linear_11097_16344" x1="60.0362" y1="136.16" x2="94.9602" y2="-47.2936" gradientUnits="userSpaceOnUse">
<stop stop-color="#9D9FE6"/>
<stop offset="0.163505" stop-color="#CFC0FF"/>
<stop offset="1" stop-color="#8E00FF"/>
</linearGradient>
<linearGradient id="paint5_linear_11097_16344" x1="57.2398" y1="51.5603" x2="132.724" y2="93.5803" gradientUnits="userSpaceOnUse">
<stop stop-color="white" stop-opacity="0"/>
<stop offset="1" stop-color="#8E00FF"/>
</linearGradient>
<linearGradient id="paint6_linear_11097_16344" x1="133.94" y1="132.383" x2="213.252" y2="-73.1947" gradientUnits="userSpaceOnUse">
<stop stop-color="#9D9FE6"/>
<stop offset="0.163505" stop-color="#CFC0FF"/>
<stop offset="1" stop-color="#8E00FF"/>
</linearGradient>
<linearGradient id="paint7_linear_11097_16344" x1="132.226" y1="27.279" x2="188.587" y2="42.7606" gradientUnits="userSpaceOnUse">
<stop stop-color="white" stop-opacity="0"/>
<stop offset="1" stop-color="#8E00FF"/>
</linearGradient>
<linearGradient id="paint8_linear_11097_16344" x1="98.854" y1="31.0684" x2="165.401" y2="-117.494" gradientUnits="userSpaceOnUse">
<stop stop-color="#9D9FE6"/>
<stop offset="0.163505" stop-color="#CFC0FF"/>
<stop offset="1" stop-color="#8E00FF"/>
</linearGradient>
<linearGradient id="paint9_linear_11097_16344" x1="97.7389" y1="-48.311" x2="135.077" y2="-39.4776" gradientUnits="userSpaceOnUse">
<stop stop-color="white" stop-opacity="0"/>
<stop offset="1" stop-color="#8E00FF"/>
</linearGradient>
<linearGradient id="paint10_linear_11097_16344" x1="132.782" y1="85.2708" x2="252.732" y2="-373.201" gradientUnits="userSpaceOnUse">
<stop stop-color="#9D9FE6"/>
<stop offset="0.163505" stop-color="#CFC0FF"/>
<stop offset="1" stop-color="#8E00FF"/>
</linearGradient>
<linearGradient id="paint11_linear_11097_16344" x1="127.539" y1="-132.725" x2="286.797" y2="-68.2178" gradientUnits="userSpaceOnUse">
<stop stop-color="white" stop-opacity="0"/>
<stop offset="1" stop-color="#8E00FF"/>
</linearGradient>
<linearGradient id="paint12_linear_11097_16344" x1="98.7424" y1="79.5508" x2="229.268" y2="-269.448" gradientUnits="userSpaceOnUse">
<stop stop-color="#9D9FE6"/>
<stop offset="0.163505" stop-color="#CFC0FF"/>
<stop offset="1" stop-color="#8E00FF"/>
</linearGradient>
<linearGradient id="paint13_linear_11097_16344" x1="95.7638" y1="-97.4862" x2="193.256" y2="-69.8614" gradientUnits="userSpaceOnUse">
<stop stop-color="white" stop-opacity="0"/>
<stop offset="1" stop-color="#8E00FF"/>
</linearGradient>
</defs>
</svg>
