<svg width="402" height="477" viewBox="0 0 402 477" fill="none" xmlns="http://www.w3.org/2000/svg">
<g opacity="0.5" filter="url(#filter0_f_11097_16333)">
<path d="M430.588 437.015C429.112 397.287 398.664 365.56 361.301 365.56C333.26 365.56 309.123 383.437 298.193 409.145C290.99 404.345 282.497 401.566 273.396 401.566C264.61 401.566 256.39 404.157 249.351 408.654C245.729 357.962 206.302 318.031 158.161 318.031C124.112 318.031 94.4287 338.018 78.675 367.645C78.6863 366.949 78.7245 366.259 78.7245 365.56C78.7245 318.401 52.0019 277.943 13.9284 260.69C7.85046 164.001 -67.108 87.5928 -158.699 87.5928C-196.346 87.5928 -231.181 100.508 -259.582 122.429V499.504H430.66C430.66 499.504 437.84 462.054 430.588 437.015Z" fill="#EBECFF"/>
<path d="M422.203 418.929C420.374 371.585 382.614 333.776 336.277 333.776C301.503 333.776 271.57 355.08 258.014 385.717C249.081 379.997 238.549 376.685 227.262 376.685C216.366 376.685 206.173 379.772 197.444 385.133C192.952 324.722 144.055 277.137 84.3536 277.137C42.1277 277.137 5.31622 300.955 -14.2206 336.262C-14.2065 335.431 -14.1598 334.609 -14.1598 333.776C-14.1598 277.576 -47.2999 229.364 -94.5172 208.803C-100.969 110.176 -170.01 29.2657 -261 8V479.696H424.395C426.319 464.137 428.067 438.39 422.203 418.929Z" fill="#B4B6FF"/>
<path d="M-13.4105 499.508C-13.4105 499.508 -21.0532 462.382 -13.3355 437.561C-11.7651 398.176 20.6435 366.725 60.4134 366.725C90.2598 366.725 115.951 384.447 127.586 409.933C135.253 405.175 144.294 402.419 153.981 402.419C163.332 402.419 172.082 404.987 179.574 409.446C183.43 359.193 225.397 319.61 276.637 319.61C312.879 319.61 344.474 339.423 361.242 368.794C361.229 368.103 361.19 367.42 361.19 366.727C361.19 319.976 389.634 279.87 430.159 262.766C436.629 166.917 516.414 91.1689 613.904 91.1689C715.625 91.1689 798.086 173.63 798.086 275.351V499.508H-13.4105Z" fill="#D5D6FF"/>
<path d="M225.41 499.507C225.41 499.507 229.991 477.253 225.365 462.375C224.424 438.768 204.997 419.916 181.159 419.916C163.269 419.916 147.871 430.538 140.896 445.815C136.301 442.963 130.882 441.312 125.076 441.312C119.47 441.312 114.225 442.851 109.735 445.524C107.425 415.403 82.2696 391.675 51.5559 391.675C29.8318 391.675 10.8948 403.551 0.844086 421.155C0.851166 420.741 0.875214 420.332 0.875214 419.916C0.875214 391.893 -16.1744 367.854 -40.465 357.602C-44.343 300.15 -92.1658 254.746 -150.602 254.746C-211.573 254.748 -261 304.175 -261 365.145V499.507H225.41Z" fill="#FEFEFE"/>
<path d="M311.677 499.507C311.677 499.507 307.096 477.253 311.722 462.375C312.663 438.768 332.09 419.916 355.927 419.916C373.817 419.916 389.216 430.538 396.191 445.815C400.786 442.963 406.205 441.312 412.011 441.312C417.617 441.312 422.86 442.851 427.352 445.524C429.662 415.403 454.817 391.675 485.531 391.675C507.254 391.675 526.192 403.551 536.243 421.155C536.236 420.741 536.212 420.332 536.212 419.916C536.212 391.893 553.261 367.855 577.552 357.602C581.43 300.15 629.253 254.746 687.688 254.746C748.66 254.746 798.085 304.173 798.085 365.144V499.507H311.677Z" fill="#FEFEFE"/>
</g>
<defs>
<filter id="filter0_f_11097_16333" x="-269" y="0" width="1075.09" height="507.508" filterUnits="userSpaceOnUse" color-interpolation-filters="sRGB">
<feFlood flood-opacity="0" result="BackgroundImageFix"/>
<feBlend mode="normal" in="SourceGraphic" in2="BackgroundImageFix" result="shape"/>
<feGaussianBlur stdDeviation="4" result="effect1_foregroundBlur_11097_16333"/>
</filter>
</defs>
</svg>
