<svg width="98" height="98" viewBox="0 0 98 98" fill="none" xmlns="http://www.w3.org/2000/svg">
<g clip-path="url(#clip0_11354_44766)">
<rect x="0.892334" y="0.892334" width="96.2154" height="96.2154" rx="48.1077" fill="white"/>
<g opacity="0.8" filter="url(#filter0_f_11354_44766)">
<path d="M82.9523 -27.0415C115.851 -61.1218 95.2061 69.6436 65.4158 89.6283C35.6255 109.613 -4.7726 101.593 -24.816 71.7154C-44.8593 41.8376 -36.9579 1.41615 -7.16761 -18.5685C22.6227 -38.5532 51.8357 20.2939 82.9523 -27.0415Z" fill="#FCEBE9"/>
<path d="M82.9523 -27.0415C115.851 -61.1218 95.2061 69.6436 65.4158 89.6283C35.6255 109.613 -4.7726 101.593 -24.816 71.7154C-44.8593 41.8376 -36.9579 1.41615 -7.16761 -18.5685C22.6227 -38.5532 51.8357 20.2939 82.9523 -27.0415Z" fill="url(#paint0_linear_11354_44766)" fill-opacity="0.2"/>
</g>
<g filter="url(#filter1_f_11354_44766)">
<ellipse cx="59.8923" cy="62.3923" rx="55.5" ry="33" transform="rotate(90 59.8923 62.3923)" fill="#FFF4D9"/>
</g>
<path d="M32.6112 92.4021C32.6112 92.4021 45.6422 81.5916 58.2641 79.488C73.3013 69.6418 83.6546 68.2158 83.6546 68.2158L42.8373 62.4252L-2.15747 76.917L32.6112 92.4021Z" fill="#453C2E" stroke="#453C2E" stroke-width="1.181" stroke-miterlimit="10" stroke-linecap="round" stroke-linejoin="round"/>
<path d="M57.215 78.4366C57.215 78.4366 65.3569 70.9179 81.0953 68.3859C81.2121 67.4899 81.0953 66.6329 81.0953 66.6329C81.0953 66.6329 53.4992 60.4706 47.1253 60.8478C40.7514 61.2251 31.5814 63.8153 27.7805 67.2172C44.5028 74.5419 57.215 78.4366 57.215 78.4366Z" fill="#EAE7E4"/>
<path d="M71.5584 66.309C64.7919 67.2687 58.3956 70.1247 53.1694 74.5291C53.1079 74.581 53.197 74.6698 53.2579 74.6176C58.4518 70.1774 64.797 67.2946 71.5592 66.3122C71.5614 66.312 71.5606 66.3086 71.5584 66.309Z" fill="#B7AFA8"/>
<path d="M66.279 65.0102C60.2487 65.8543 54.2299 68.5868 49.325 72.1423C49.2375 72.2058 49.3202 72.3527 49.4111 72.2896C51.9053 70.5518 54.5181 69.031 57.3122 67.8248C60.2163 66.5712 63.2146 65.7565 66.2818 65.0203C66.2885 65.0187 66.2856 65.0094 66.279 65.0102Z" fill="#B7AFA8"/>
<path d="M59.2778 64.1345C54.2476 65.1359 49.1905 67.6598 45.3308 71.0307C45.2588 71.0936 45.3621 71.1908 45.4341 71.134C47.4943 69.5136 49.6129 68.0395 51.9592 66.8583C54.3088 65.6755 56.7579 64.8618 59.2852 64.1612C59.3028 64.1566 59.2953 64.1311 59.2778 64.1345Z" fill="#B7AFA8"/>
<path d="M55.7954 62.7808C50.5691 63.3805 45.0755 66.0022 41.2386 69.5868C41.1523 69.6675 41.2784 69.7881 41.3665 69.7146C43.4625 67.9703 45.6179 66.4137 48.0887 65.2361C50.5643 64.0562 53.1282 63.3671 55.798 62.801C55.8095 62.799 55.8071 62.7794 55.7954 62.7808Z" fill="#B7AFA8"/>
<path d="M50.8396 61.8578C48.3377 61.9722 45.7686 62.8165 43.503 63.8428C41.1695 64.8999 38.683 66.3453 36.9254 68.2434C36.8942 68.2772 36.9401 68.3196 36.9747 68.2926C39.0486 66.6717 41.0052 65.1257 43.4155 64.012C45.8175 62.9022 48.2664 62.3785 50.8412 61.8679C50.8467 61.8669 50.8453 61.8576 50.8396 61.8578Z" fill="#B7AFA8"/>
<path d="M46.4352 61.4155C41.7341 62.0219 37.0245 63.96 33.5324 67.2209C33.4592 67.2894 33.5658 67.3905 33.6406 67.3292C37.3838 64.2545 41.608 62.1343 46.4411 61.46C46.466 61.4564 46.4605 61.4121 46.4352 61.4155Z" fill="#B7AFA8"/>
<path d="M57.2115 78.4372C57.2115 78.4372 47.0048 78.2563 32.2793 90.0462C18.0212 85.0597 0.121481 76.479 0.121481 76.479C0.121481 76.479 0.0625 74.931 0.0625 73.6455C4.43837 70.0354 16.6454 64.0018 29.0071 67.4514C45.7581 72.1263 57.2115 78.4372 57.2115 78.4372Z" fill="white"/>
<path d="M49.3974 76.0731C42.7316 76.9305 36.2878 79.5225 31.1616 83.9085C31.085 83.974 31.1973 84.0872 31.2727 84.0195C36.2633 79.537 42.8494 77.1136 49.4055 76.1331C49.4392 76.1279 49.4315 76.0686 49.3974 76.0731Z" fill="#B7AFA8"/>
<path d="M46.7 74.807C40.738 75.1205 34.4397 77.5771 29.9647 81.5405C29.8928 81.6043 29.9985 81.7092 30.07 81.6458C34.7536 77.4895 40.6394 75.7487 46.7044 74.8383C46.722 74.8355 46.7178 74.806 46.7 74.807Z" fill="#B7AFA8"/>
<path d="M41.9256 73.4591C36.4933 74.3052 31.146 76.9427 27.217 80.7883C27.1584 80.8457 27.2485 80.9358 27.3069 80.8782C31.3479 76.9065 36.5012 74.7814 41.9468 73.5359C41.9979 73.5244 41.9753 73.4513 41.9256 73.4591Z" fill="#B7AFA8"/>
<path d="M38.8443 72.0508C32.9955 72.9648 27.3998 75.6926 23.5239 80.2384C23.459 80.3146 23.5694 80.4259 23.6345 80.3491C27.462 75.825 33.0798 73.103 38.8589 72.104C38.8942 72.0979 38.8789 72.0455 38.8443 72.0508Z" fill="#B7AFA8"/>
<path d="M34.3103 70.2606C28.8417 71.4257 23.3167 73.9675 19.2393 77.8463C19.1791 77.9035 19.2694 77.993 19.3304 77.9372C23.5914 74.0237 28.7649 71.728 34.3224 70.3039C34.3503 70.2968 34.3384 70.2546 34.3103 70.2606Z" fill="#B7AFA8"/>
<path d="M30.74 69.3472C25.0303 70.1108 19.2211 72.4949 14.9721 76.4561C14.902 76.5215 15.0053 76.6218 15.0762 76.5603C19.5577 72.6723 24.9074 70.3641 30.7479 69.4067C30.7815 69.4014 30.774 69.3426 30.74 69.3472Z" fill="#B7AFA8"/>
<path d="M28.5649 68.0726C22.6491 68.563 16.262 70.5838 11.724 74.5551C11.6741 74.5988 11.7414 74.6887 11.7959 74.6483C16.776 70.9533 22.3867 68.7981 28.5649 68.1527C28.6153 68.1474 28.6167 68.0682 28.5649 68.0726Z" fill="#B7AFA8"/>
<path d="M23.8685 67.2489C18.1644 67.4003 12.2916 69.1614 7.60878 72.4576C7.51596 72.5229 7.60383 72.6771 7.69864 72.6116C12.502 69.294 18.0918 67.7229 23.8683 67.295C23.8978 67.2927 23.8986 67.2481 23.8685 67.2489Z" fill="#B7AFA8"/>
<path d="M32.2812 90.0459V86.0918C32.2812 86.0918 45.1173 75.3983 57.2134 78.437C47.397 78.5266 32.2812 90.0459 32.2812 90.0459Z" fill="#C0B8AE"/>
<path d="M32.2795 86.0902L0.0625 73.6437L0.15018 76.8415C0.15018 76.8415 25.5011 88.564 32.2795 90.0443C32.3185 87.2783 32.2795 86.0902 32.2795 86.0902Z" fill="#DCD6CF"/>
<path d="M57.2131 78.4375C57.2131 78.4375 61.4594 67.2959 81.0935 66.6337C81.1325 67.6464 81.0935 68.3867 81.0935 68.3867C81.0935 68.3867 67.3028 70.3346 57.2131 78.4375Z" fill="#C0B8AE"/>
<path d="M53.1794 78.4739C50.8825 78.41 48.4702 78.754 46.3244 79.5961C46.2474 79.6262 46.2757 79.7457 46.3592 79.723C48.6236 79.1017 50.8273 78.6611 53.1794 78.5234C53.2109 78.5214 53.2115 78.4749 53.1794 78.4739Z" fill="#A2988D"/>
<path d="M50.6726 79.3276C47.5636 79.6067 44.2826 80.5852 41.7924 82.5266C41.7435 82.5648 41.8058 82.6392 41.8571 82.6105C44.6668 81.0277 47.4453 79.7864 50.6726 79.3563C50.6904 79.3539 50.6914 79.3258 50.6726 79.3276Z" fill="#A2988D"/>
<path d="M38.1382 83.4541C36.2619 84.2323 34.3783 85.214 32.8567 86.5781C32.8016 86.6274 32.8743 86.7236 32.9362 86.6814C34.6401 85.5222 36.2934 84.4085 38.1871 83.5707C38.2526 83.5416 38.2051 83.4264 38.1382 83.4541Z" fill="#A2988D"/>
<path d="M38.5045 84.5391C36.9179 85.1989 35.3603 85.9661 33.9348 86.931C33.8849 86.9646 33.9295 87.044 33.9825 87.0125C35.4659 86.1349 36.9514 85.2969 38.5282 84.5953C38.5597 84.5814 38.5367 84.5256 38.5045 84.5391Z" fill="#A2988D"/>
<path d="M77.3701 67.5076C73.4747 67.7297 69.333 69.032 65.8985 70.861C65.8674 70.8776 65.8947 70.9204 65.9254 70.9071C67.8233 70.0881 69.7057 69.3271 71.697 68.7627C73.5735 68.2306 75.4664 67.9328 77.3804 67.5842C77.4235 67.5765 77.4138 67.5053 77.3701 67.5076Z" fill="#A2988D"/>
<path d="M71.4153 69.974C68.3073 70.5432 65.0351 71.8339 62.602 73.8907C62.5557 73.9299 62.6161 74.0071 62.6667 73.9746C65.4479 72.1901 68.1814 70.7694 71.4185 69.9859C71.4264 69.9841 71.423 69.9726 71.4153 69.974Z" fill="#A2988D"/>
<path d="M30.2408 86.0583C27.3915 85.1809 24.6502 84.0721 21.8655 83.0202C21.8132 83.0004 21.778 83.0849 21.8275 83.1102C24.4672 84.4615 27.3529 85.4063 30.2059 86.1852C30.2877 86.2073 30.3215 86.083 30.2408 86.0583Z" fill="#A2988D"/>
<path d="M27.6804 86.7983C25.7921 85.9702 23.9045 85.1152 21.9947 84.3387C21.9021 84.3011 21.838 84.4551 21.9266 84.5003C23.7564 85.4297 25.7079 86.2067 27.6424 86.8884C27.6945 86.9068 27.7319 86.8209 27.6804 86.7983Z" fill="#A2988D"/>
<path d="M10.8096 80.4743C9.19294 79.6782 7.58383 78.8559 5.92623 78.1473C5.84825 78.1141 5.77838 78.2235 5.85775 78.2645C7.46151 79.0908 9.12287 79.8067 10.768 80.5453C10.8155 80.5665 10.8577 80.498 10.8096 80.4743Z" fill="#A2988D"/>
<path d="M15.0172 80.8669C11.783 79.7136 8.54812 78.5326 5.43698 77.0749C5.42272 77.0682 5.41026 77.0894 5.42451 77.0961C8.53921 78.5805 11.6907 79.9369 15.0042 80.9144C15.0348 80.9235 15.0467 80.8774 15.0172 80.8669Z" fill="#A2988D"/>
<path d="M6.14384 76.8061C4.60875 76.2594 3.12255 75.4909 1.52155 75.1509C1.48039 75.1422 1.46317 75.2023 1.50414 75.2142C3.08396 75.6726 4.57491 76.3335 6.12425 76.8774C6.16917 76.8932 6.18837 76.8219 6.14384 76.8061Z" fill="#A2988D"/>
<path d="M58.3962 37.9792C58.6177 36.9207 58.7382 35.8224 58.7382 34.6939C58.7382 26.2802 52.2463 19.46 44.2384 19.46C36.2301 19.46 29.7383 26.2805 29.7383 34.6939C29.7383 37.1237 30.4321 39.3434 31.5612 41.2982C31.3844 42.6747 32.0624 44.3669 33.1715 45.0644C33.9075 45.5275 34.7766 45.891 35.6476 46.0136C36.1904 46.4563 36.7508 46.8704 37.3257 47.2475C39.55 48.7062 41.4228 49.9278 44.2381 49.9278C44.2381 49.9278 58.696 50.8871 60.0755 42.4821C60.3966 40.3822 59.0151 38.6108 58.3962 37.9792Z" fill="#F4D9AC"/>
<path d="M58.3962 37.9792C58.6177 36.9207 58.7382 35.8224 58.7382 34.6939C58.7382 26.2802 52.2463 19.46 44.2384 19.46C36.2301 19.46 29.7383 26.2805 29.7383 34.6939C29.7383 37.1237 30.4321 39.3434 31.5612 41.2982C31.3844 42.6747 32.0624 44.3669 33.1715 45.0644C33.9075 45.5275 34.7766 45.891 35.6476 46.0136C36.1904 46.4563 36.7508 46.8704 37.3257 47.2475C39.55 48.7062 41.4228 49.9278 44.2381 49.9278C44.2381 49.9278 58.696 50.8871 60.0755 42.4821C60.3966 40.3822 59.0151 38.6108 58.3962 37.9792Z" fill="url(#paint1_linear_11354_44766)"/>
<path d="M54.3481 41.5858C55.0163 41.3245 55.6876 40.2567 55.4455 39.5303C55.1516 38.6482 53.5686 38.5287 52.8135 38.4874C52.5511 38.473 52.5498 38.8879 52.8135 38.8969C53.3869 38.916 55.0256 38.9551 55.13 39.7589C55.2138 40.4034 54.56 40.9829 54.2757 41.4918C54.251 41.5365 54.2935 41.6073 54.3481 41.5858Z" fill="#745E42"/>
<path d="M54.3481 41.5858C55.0163 41.3245 55.6876 40.2567 55.4455 39.5303C55.1516 38.6482 53.5686 38.5287 52.8135 38.4874C52.5511 38.473 52.5498 38.8879 52.8135 38.8969C53.3869 38.916 55.0256 38.9551 55.13 39.7589C55.2138 40.4034 54.56 40.9829 54.2757 41.4918C54.251 41.5365 54.2935 41.6073 54.3481 41.5858Z" fill="url(#paint2_linear_11354_44766)"/>
<path d="M54.895 43.7128C53.732 44.1537 52.6121 44.5213 51.3475 44.4489C49.995 44.3712 47.9121 43.8962 47.6098 42.3481C47.5747 42.1684 47.2959 42.2137 47.2959 42.3906C47.2953 43.7356 48.7836 44.3703 49.9137 44.6482C51.5838 45.0589 53.529 44.8392 54.9443 43.8296C54.9985 43.7911 54.968 43.6851 54.895 43.7128Z" fill="#745E42"/>
<path d="M54.895 43.7128C53.732 44.1537 52.6121 44.5213 51.3475 44.4489C49.995 44.3712 47.9121 43.8962 47.6098 42.3481C47.5747 42.1684 47.2959 42.2137 47.2959 42.3906C47.2953 43.7356 48.7836 44.3703 49.9137 44.6482C51.5838 45.0589 53.529 44.8392 54.9443 43.8296C54.9985 43.7911 54.968 43.6851 54.895 43.7128Z" fill="url(#paint3_linear_11354_44766)"/>
<path d="M48.6345 36.5755C48.8443 37.5093 49.0544 38.6936 47.8584 39.0802C46.8344 39.4114 46.1033 38.408 45.6147 37.6803C45.5032 37.5139 45.233 37.6686 45.3442 37.8384C45.9628 38.7829 46.9145 39.9028 48.1718 39.3313C49.2029 38.8624 49.6724 37.3171 48.827 36.4634C48.7433 36.379 48.6102 36.4662 48.6345 36.5755Z" fill="#745E42"/>
<path d="M48.6345 36.5755C48.8443 37.5093 49.0544 38.6936 47.8584 39.0802C46.8344 39.4114 46.1033 38.408 45.6147 37.6803C45.5032 37.5139 45.233 37.6686 45.3442 37.8384C45.9628 38.7829 46.9145 39.9028 48.1718 39.3313C49.2029 38.8624 49.6724 37.3171 48.827 36.4634C48.7433 36.379 48.6102 36.4662 48.6345 36.5755Z" fill="url(#paint4_linear_11354_44766)"/>
<path d="M48.3095 32.4495C46.6711 31.5588 44.6674 32.7307 43.8115 34.1614C43.6723 34.394 44.0201 34.5884 44.1705 34.3713C44.636 33.6999 45.2013 33.2104 45.9598 32.8986C46.7401 32.5779 47.4685 32.5881 48.2901 32.5212C48.3258 32.5182 48.3456 32.4689 48.3095 32.4495Z" fill="#745E42"/>
<path d="M48.3095 32.4495C46.6711 31.5588 44.6674 32.7307 43.8115 34.1614C43.6723 34.394 44.0201 34.5884 44.1705 34.3713C44.636 33.6999 45.2013 33.2104 45.9598 32.8986C46.7401 32.5779 47.4685 32.5881 48.2901 32.5212C48.3258 32.5182 48.3456 32.4689 48.3095 32.4495Z" fill="url(#paint5_linear_11354_44766)"/>
<path d="M57.3251 35.9146C57.306 36.2658 57.4489 36.5967 57.4231 36.9535C57.3876 37.4387 57.1319 37.9051 56.6664 38.0931C55.5841 38.5308 55.004 37.1707 54.7717 36.3731C54.7304 36.231 54.508 36.2914 54.5496 36.4344C54.8349 37.4134 55.4594 38.9403 56.7838 38.431C57.6772 38.0875 58.1954 36.5801 57.4178 35.8764C57.3821 35.8441 57.3275 35.8669 57.3251 35.9146Z" fill="#745E42"/>
<path d="M57.3251 35.9146C57.306 36.2658 57.4489 36.5967 57.4231 36.9535C57.3876 37.4387 57.1319 37.9051 56.6664 38.0931C55.5841 38.5308 55.004 37.1707 54.7717 36.3731C54.7304 36.231 54.508 36.2914 54.5496 36.4344C54.8349 37.4134 55.4594 38.9403 56.7838 38.431C57.6772 38.0875 58.1954 36.5801 57.4178 35.8764C57.3821 35.8441 57.3275 35.8669 57.3251 35.9146Z" fill="url(#paint6_linear_11354_44766)"/>
<path d="M54.0594 31.3074C54.8502 31.3647 55.5123 31.3505 56.2489 31.7137C56.914 32.0415 57.3838 32.5326 57.7745 33.1543C57.9097 33.3696 58.2369 33.1792 58.1158 32.955C57.3928 31.6139 55.5702 30.3403 54.0409 31.2396C54.0082 31.2584 54.0245 31.3046 54.0594 31.3074Z" fill="#745E42"/>
<path d="M54.0594 31.3074C54.8502 31.3647 55.5123 31.3505 56.2489 31.7137C56.914 32.0415 57.3838 32.5326 57.7745 33.1543C57.9097 33.3696 58.2369 33.1792 58.1158 32.955C57.3928 31.6139 55.5702 30.3403 54.0409 31.2396C54.0082 31.2584 54.0245 31.3046 54.0594 31.3074Z" fill="url(#paint7_linear_11354_44766)"/>
<path d="M33.0785 41.4838C34.2461 39.9237 35.8867 40.5743 37.0589 41.7743C37.2296 41.949 37.5056 41.6699 37.3257 41.5075C36.5472 40.8051 35.6189 40.0491 34.4963 40.1541C33.7794 40.221 33.0246 40.6905 32.9417 41.4465C32.9325 41.5282 33.0406 41.5346 33.0785 41.4838Z" fill="#745E42"/>
<path d="M33.0785 41.4838C34.2461 39.9237 35.8867 40.5743 37.0589 41.7743C37.2296 41.949 37.5056 41.6699 37.3257 41.5075C36.5472 40.8051 35.6189 40.0491 34.4963 40.1541C33.7794 40.221 33.0246 40.6905 32.9417 41.4465C32.9325 41.5282 33.0406 41.5346 33.0785 41.4838Z" fill="url(#paint8_linear_11354_44766)"/>
<path d="M36.7777 41.3491C36.3196 41.4822 36.0706 42.0177 36.1714 42.4681C36.2496 42.8177 36.758 43.4715 37.1693 43.2102C37.2453 43.1619 37.2552 43.0654 37.1964 42.9992C37.0984 42.8892 36.993 42.8969 36.8636 42.8335C36.6988 42.7527 36.5552 42.599 36.497 42.4234C36.3732 42.0491 36.603 41.7395 36.871 41.5093C36.9453 41.4456 36.8658 41.3232 36.7777 41.3491Z" fill="#745E42"/>
<path d="M36.7777 41.3491C36.3196 41.4822 36.0706 42.0177 36.1714 42.4681C36.2496 42.8177 36.758 43.4715 37.1693 43.2102C37.2453 43.1619 37.2552 43.0654 37.1964 42.9992C37.0984 42.8892 36.993 42.8969 36.8636 42.8335C36.6988 42.7527 36.5552 42.599 36.497 42.4234C36.3732 42.0491 36.603 41.7395 36.871 41.5093C36.9453 41.4456 36.8658 41.3232 36.7777 41.3491Z" fill="url(#paint9_linear_11354_44766)"/>
<path d="M46.5785 42.8888C46.9741 41.22 45.9421 39.5464 44.2733 39.1508C42.6045 38.7551 40.9309 39.7872 40.5353 41.4559C40.1396 43.1247 41.1717 44.7983 42.8404 45.194C44.5092 45.5896 46.1828 44.5576 46.5785 42.8888Z" fill="#EDBB98"/>
<path d="M59.633 39.7524C59.4737 39.3319 58.8696 38.5164 58.8696 38.5164C58.8696 38.5164 58.6441 38.2311 58.5566 38.1569C56.8415 38.1569 55.7996 39.4563 55.7996 41.1717C55.7996 42.8868 57.1899 44.2772 58.905 44.2772C59.36 44.2772 59.2035 44.3114 59.5929 44.1355C59.7501 43.7248 60.6734 41.884 59.633 39.7524Z" fill="#EDBB98"/>
<path d="M37.179 32.464C37.5927 29.0076 39.3208 27.2793 39.7151 26.8018C39.7154 26.6715 36.354 26.5184 36.231 26.4598C34.9944 25.8705 33.7578 25.2814 32.5211 24.6921C32.3347 24.6033 32.0975 24.6354 31.9888 24.8316C30.6452 27.2534 29.2758 29.5036 29.1671 31.8022C29.0583 34.1008 28.9212 36.0605 30.4792 40.0018C30.6089 40.1678 31.1505 41.6223 31.3168 41.5471C32.108 38.8425 33.9146 38.6333 34.6111 38.4851C36.2132 38.3042 37.6698 39.068 37.6698 39.068C37.6698 39.068 36.7652 35.9203 37.179 32.464Z" fill="#1F1F1F"/>
<path d="M37.179 32.464C37.5927 29.0076 39.3208 27.2793 39.7151 26.8018C39.7154 26.6715 36.354 26.5184 36.231 26.4598C34.9944 25.8705 33.7578 25.2814 32.5211 24.6921C32.3347 24.6033 32.0975 24.6354 31.9888 24.8316C30.6452 27.2534 29.2758 29.5036 29.1671 31.8022C29.0583 34.1008 28.9212 36.0605 30.4792 40.0018C30.6089 40.1678 31.1505 41.6223 31.3168 41.5471C32.108 38.8425 33.9146 38.6333 34.6111 38.4851C36.2132 38.3042 37.6698 39.068 37.6698 39.068C37.6698 39.068 36.7652 35.9203 37.179 32.464Z" fill="url(#paint10_linear_11354_44766)"/>
<path d="M46.8895 18.0907C42.1562 16.8892 37.0941 17.5436 32.7332 19.8366C32.2939 20.0769 33.9172 20.3428 34.3146 20.515C31.0514 20.3699 28.7621 20.8884 27.69 24.3996C27.6213 24.6245 27.5236 24.8827 27.7516 24.7178C28.7381 24.4002 30.1971 24.6374 31.3099 24.6088C30.7988 24.8611 29.9223 25.1569 29.4981 25.6427C29.3807 25.777 29.0166 26.3537 29.077 26.4536C29.1373 26.5537 29.8863 26.4955 30.0696 26.4613C33.3599 25.8454 35.9783 27.7959 38.8274 29.099C40.8376 30.0187 44.0302 30.2439 46.2176 30.2358C55.4816 29.0078 56.9249 26.7173 56.9388 26.4305C57.1692 21.7276 50.3169 18.9608 46.8895 18.0907Z" fill="#262626"/>
<path d="M46.8895 18.0907C42.1562 16.8892 37.0941 17.5436 32.7332 19.8366C32.2939 20.0769 33.9172 20.3428 34.3146 20.515C31.0514 20.3699 28.7621 20.8884 27.69 24.3996C27.6213 24.6245 27.5236 24.8827 27.7516 24.7178C28.7381 24.4002 30.1971 24.6374 31.3099 24.6088C30.7988 24.8611 29.9223 25.1569 29.4981 25.6427C29.3807 25.777 29.0166 26.3537 29.077 26.4536C29.1373 26.5537 29.8863 26.4955 30.0696 26.4613C33.3599 25.8454 35.9783 27.7959 38.8274 29.099C40.8376 30.0187 44.0302 30.2439 46.2176 30.2358C55.4816 29.0078 56.9249 26.7173 56.9388 26.4305C57.1692 21.7276 50.3169 18.9608 46.8895 18.0907Z" fill="url(#paint11_linear_11354_44766)"/>
<path d="M51.2113 22.4725C48.3976 19.811 43.6525 18.5719 39.9574 19.9795C39.869 20.0131 39.9029 20.1382 39.9965 20.1212C44.1633 19.3735 47.7312 19.941 51.1761 22.5175C51.2026 22.5372 51.2347 22.4943 51.2113 22.4725Z" fill="#444444"/>
<path d="M47.2638 23.944C42.7963 21.3996 37.5183 20.7973 32.5289 21.9098C32.4124 21.9356 32.4617 22.1149 32.5782 22.0887C37.5956 20.9562 42.6355 21.7496 47.2154 24.0272C47.2702 24.054 47.318 23.9748 47.2638 23.944Z" fill="#444444"/>
<path d="M46.4485 24.6486C45.2035 23.9915 43.7666 23.5663 42.3522 23.558C42.2441 23.5574 42.2127 23.7345 42.3257 23.7527C43.7426 23.9797 45.0467 24.2715 46.3869 24.7946C46.4716 24.8276 46.528 24.6902 46.4485 24.6486Z" fill="#444444"/>
<path d="M45.4409 27.1609C41.7076 27.0617 38.5446 25.9215 35.4129 23.9449C35.3498 23.9051 35.2709 24.0025 35.3316 24.0502C38.1437 26.2675 41.8897 27.3319 45.4409 27.2315C45.4862 27.2299 45.4862 27.1621 45.4409 27.1609Z" fill="#444444"/>
<path d="M54.8444 71.7916C54.8444 71.7916 64.1958 76.7767 64.58 77.6079C64.9642 78.4391 60.5445 92.4973 60.5445 92.4973C60.5445 92.4973 64.5732 95.1875 63.3877 98.4799C60.3963 98.1845 56.6386 95.6752 56.4094 94.5137C56.1805 93.3519 58.3084 82.4447 57.8756 81.4598C57.4427 80.4748 48.6221 75.8509 48.6221 75.8509L54.8444 71.7916Z" fill="#252D38"/>
<path d="M54.8444 71.7916C54.8444 71.7916 64.1958 76.7767 64.58 77.6079C64.9642 78.4391 60.5445 92.4973 60.5445 92.4973C60.5445 92.4973 64.5732 95.1875 63.3877 98.4799C60.3963 98.1845 56.6386 95.6752 56.4094 94.5137C56.1805 93.3519 58.3084 82.4447 57.8756 81.4598C57.4427 80.4748 48.6221 75.8509 48.6221 75.8509L54.8444 71.7916Z" fill="url(#paint12_linear_11354_44766)"/>
<path d="M48.2899 74.1543C48.2899 74.1543 57.8234 78.7813 58.2387 79.5974C58.654 80.4135 54.7704 94.6292 54.7704 94.6292C54.7704 94.6292 58.898 97.1647 57.8382 100.5C54.8378 100.318 50.9874 97.9531 50.7148 96.8009C50.4418 95.6487 52.1551 84.6684 51.6849 83.7008C51.2151 82.7331 42.2253 78.4468 42.2253 78.4468L48.2899 74.1543Z" fill="#2C3443"/>
<path d="M48.2899 74.1543C48.2899 74.1543 57.8234 78.7813 58.2387 79.5974C58.654 80.4135 54.7704 94.6292 54.7704 94.6292C54.7704 94.6292 58.898 97.1647 57.8382 100.5C54.8378 100.318 50.9874 97.9531 50.7148 96.8009C50.4418 95.6487 52.1551 84.6684 51.6849 83.7008C51.2151 82.7331 42.2253 78.4468 42.2253 78.4468L48.2899 74.1543Z" fill="url(#paint13_linear_11354_44766)"/>
<path d="M52.4752 54.9322C52.4752 54.9322 52.4659 59.6406 59.2015 73.7487C55.3178 74.2127 44.9229 79.1796 44.9229 79.1796C44.9229 79.1796 43.3794 80.7415 39.4379 78.8758C35.4963 77.0101 40.8612 53.6632 40.8612 53.6632L52.4752 54.9322Z" fill="white"/>
<path d="M41.221 79.2385C41.271 79.078 41.0642 78.8752 41.0042 78.7354C40.961 78.6349 40.9475 78.5317 40.9302 78.4251C40.9133 78.3201 40.8726 78.2387 40.8279 78.1435C40.7981 78.0798 40.7078 78.0792 40.6622 78.1223C40.4142 78.357 40.5032 78.7061 40.6597 78.9726C40.7149 79.0656 41.1351 79.5145 41.221 79.2385Z" fill="white"/>
<path d="M43.0255 79.2351C42.9827 79.0447 42.841 78.8793 42.7498 78.7098C42.6602 78.5429 42.5936 78.35 42.4273 78.2434C42.3428 78.1892 42.243 78.2462 42.2131 78.3306C42.1361 78.5472 42.2661 78.7819 42.3807 78.9597C42.4963 79.139 42.6457 79.338 42.8576 79.4033C42.9615 79.4351 43.0474 79.3328 43.0255 79.2351Z" fill="white"/>
<path d="M44.878 78.7858C44.9165 78.6046 44.7862 78.4374 44.6876 78.2969C44.5896 78.1573 44.4571 77.9395 44.2643 77.9481C44.207 77.9506 44.1583 77.986 44.1416 78.0415C44.0862 78.2276 44.2621 78.4072 44.3752 78.5378C44.4867 78.6666 44.6189 78.8363 44.8031 78.8428C44.8354 78.8437 44.8712 78.8181 44.878 78.7858Z" fill="white"/>
<path d="M46.2537 78.0427C46.3695 77.9457 46.3288 77.7331 46.2731 77.613C46.2071 77.4709 46.0744 77.3132 45.908 77.311C45.8464 77.3101 45.7817 77.3671 45.7869 77.4321C45.7971 77.5609 45.8843 77.6653 45.9462 77.7756C45.998 77.8681 46.0516 78.0089 46.152 78.0557C46.189 78.0729 46.2225 78.0686 46.2537 78.0427Z" fill="white"/>
<path d="M48.004 77.263C48.1094 77.0337 48.0801 76.5895 47.7594 76.5433C47.6956 76.534 47.6097 76.5707 47.618 76.6511C47.638 76.8452 47.7766 77.0088 47.8016 77.2081C47.813 77.3008 47.9532 77.3732 48.004 77.263Z" fill="white"/>
<path d="M49.4649 76.8635C49.6217 76.7502 49.5576 76.5126 49.5031 76.3574C49.4369 76.1694 49.3429 76.0114 49.1528 75.935C49.1038 75.9153 49.0496 75.9649 49.0505 76.0129C49.0546 76.1802 49.1245 76.3182 49.1766 76.4741C49.2178 76.598 49.2351 76.8028 49.3679 76.8635C49.3974 76.8771 49.4356 76.8845 49.4649 76.8635Z" fill="white"/>
<path d="M50.9791 76.1199C51.0346 75.9453 50.9779 75.7533 50.9008 75.594C50.8124 75.4114 50.6578 75.326 50.4868 75.2336C50.4332 75.2046 50.3583 75.2662 50.3978 75.3226C50.5697 75.5706 50.6387 75.8889 50.8032 76.1427C50.8488 76.213 50.9535 76.2003 50.9791 76.1199Z" fill="white"/>
<path d="M52.5449 75.7829C52.657 75.5968 52.5455 75.3253 52.4506 75.1528C52.3462 74.9634 52.1524 74.6972 51.9337 74.643C51.8416 74.6202 51.7337 74.707 51.7695 74.8072C51.8391 75.0016 52.0202 75.1633 52.1308 75.3398C52.2251 75.4902 52.3068 75.7105 52.4642 75.8041C52.4919 75.8204 52.5286 75.81 52.5449 75.7829Z" fill="white"/>
<path d="M53.8505 74.9716C54.0779 74.8885 54.0258 74.5585 53.9596 74.3829C53.8801 74.1719 53.6675 73.9174 53.4186 73.963C53.3557 73.9744 53.3107 74.0567 53.332 74.1158C53.3875 74.2711 53.5415 74.378 53.6179 74.5271C53.6844 74.6571 53.6663 74.8478 53.775 74.9516C53.7941 74.9698 53.8246 74.9812 53.8505 74.9716Z" fill="white"/>
<path d="M55.3579 74.3784C55.6148 74.1517 55.3705 73.5466 55.0409 73.5374C54.9817 73.5358 54.9222 73.5913 54.9259 73.6523C54.9349 73.7915 55.0316 73.9132 55.096 74.0337C55.1561 74.1458 55.1872 74.2842 55.2741 74.3787C55.2969 74.4028 55.3348 74.3988 55.3579 74.3784Z" fill="white"/>
<path d="M56.6563 74.0606C56.7756 73.6783 56.5125 73.1632 56.0842 73.1317C55.9986 73.1256 55.9536 73.2275 55.9906 73.295C56.066 73.4333 56.1853 73.5473 56.2749 73.6773C56.3624 73.8043 56.4425 73.9429 56.5149 74.0791C56.5473 74.1404 56.6375 74.1219 56.6563 74.0606Z" fill="white"/>
<path d="M58.345 73.6916C58.3225 73.4473 58.2335 73.2899 58.0711 73.1056C57.9245 72.9393 57.7233 72.727 57.4953 72.686C57.4008 72.6691 57.3031 72.7652 57.3622 72.8592C57.4747 73.0373 57.6765 73.162 57.8222 73.313C57.8965 73.3897 57.9624 73.4738 58.036 73.5511C58.1066 73.6254 58.1882 73.6744 58.2702 73.7347C58.2994 73.756 58.3481 73.7273 58.345 73.6916Z" fill="white"/>
<path d="M39.3241 76.9782C39.3241 76.9782 39.688 79.811 37.687 79.7109C35.686 79.6107 30.5136 79.7109 30.5136 79.7109C30.5136 79.7109 29.448 76.0333 34.9318 74.8811" fill="#F4D9AC"/>
<path d="M39.3241 76.9782C39.3241 76.9782 39.688 79.811 37.687 79.7109C35.686 79.6107 30.5136 79.7109 30.5136 79.7109C30.5136 79.7109 29.448 76.0333 34.9318 74.8811" fill="url(#paint14_linear_11354_44766)"/>
<path d="M35.951 77.4129C35.3426 77.2231 34.6112 77.5851 34.1355 77.9487C33.5727 78.379 33.2929 78.9203 33.0446 79.5676C32.9543 79.8027 33.3761 79.9201 33.4208 79.6714C33.5277 79.0765 33.9645 78.5263 34.4454 78.1763C34.9147 77.835 35.4316 77.7727 35.9507 77.5673C36.0222 77.5389 36.0314 77.4382 35.951 77.4129Z" fill="#745E42"/>
<path d="M40.4102 53.4197C40.4102 53.4197 38.5377 54.0469 37.3226 59.6949C36.1075 65.343 35.0533 71.6386 33.9821 73.7951C32.9112 75.9514 36.7745 77.9755 39.3211 77.3005C41.868 76.6255 42.535 54.6474 42.535 54.6474L40.4102 53.4197Z" fill="#626496"/>
<path d="M40.4102 53.4197C40.4102 53.4197 38.5377 54.0469 37.3226 59.6949C36.1075 65.343 35.0533 71.6386 33.9821 73.7951C32.9112 75.9514 36.7745 77.9755 39.3211 77.3005C41.868 76.6255 42.535 54.6474 42.535 54.6474L40.4102 53.4197Z" fill="url(#paint15_linear_11354_44766)"/>
<path d="M39.4203 76.0952C39.3529 76.2558 39.278 76.4227 39.1877 76.5715C39.1049 76.708 38.9656 76.8386 38.9428 77.0007C38.9265 77.1168 39.005 77.2016 39.1237 77.1815C39.3285 77.1473 39.4638 76.9203 39.5433 76.7459C39.6366 76.541 39.681 76.3522 39.6588 76.1273C39.6449 75.9862 39.4736 75.9683 39.4203 76.0952Z" fill="#9D9FE6"/>
<path d="M38.2172 76.2916C38.1193 76.3766 38.0946 76.5519 38.0265 76.6649C37.9421 76.8048 37.8362 76.8975 37.7296 77.0171C37.5996 77.1631 37.7637 77.3985 37.9434 77.2944C38.1079 77.1992 38.2419 77.0088 38.3155 76.8365C38.3731 76.7016 38.4545 76.4385 38.3577 76.3097C38.3217 76.2617 38.2644 76.2506 38.2172 76.2916Z" fill="#9D9FE6"/>
<path d="M36.7605 75.9424C36.669 76.1153 36.5944 76.2995 36.5566 76.4917C36.527 76.6418 36.4786 76.8439 36.5988 76.96C36.6308 76.9911 36.6893 76.9955 36.7208 76.96C36.8206 76.8488 36.7867 76.6978 36.8006 76.5561C36.819 76.3679 36.8619 76.1901 36.9299 76.0139C36.9678 75.9156 36.8089 75.8506 36.7605 75.9424Z" fill="#9D9FE6"/>
<path d="M35.43 75.5505C35.3659 75.6854 35.3391 75.8543 35.3191 76.0018C35.2984 76.1562 35.2877 76.3003 35.3567 76.4433C35.3875 76.5068 35.478 76.4963 35.5113 76.4433C35.5923 76.3148 35.5985 76.1688 35.5936 76.0203C35.5886 75.874 35.5831 75.703 35.535 75.5643C35.5203 75.5218 35.4528 75.5024 35.43 75.5505Z" fill="#9D9FE6"/>
<path d="M34.4316 74.3202C34.2921 74.5146 34.2311 74.701 34.2209 74.9406C34.2132 75.1209 34.2049 75.3596 34.3666 75.4699C34.4141 75.5023 34.4658 75.4659 34.484 75.4222C34.5459 75.2743 34.4615 75.099 34.463 74.9406C34.4646 74.7539 34.5022 74.5503 34.5487 74.3695C34.5675 74.2961 34.4729 74.2632 34.4316 74.3202Z" fill="#9D9FE6"/>
<path d="M7.73065 49.236C7.47402 49.1623 7.21892 49.3321 6.99187 49.4375C6.69734 49.5739 6.36709 49.6956 6.10861 49.8931C5.8871 50.0623 5.99924 50.5019 6.3181 50.39C6.63265 50.2794 6.91824 50.0786 7.20013 49.903C7.42503 49.7631 7.72294 49.6396 7.80674 49.3697C7.8243 49.3133 7.78579 49.252 7.73065 49.236Z" fill="#F284D2"/>
<path d="M7.73065 49.236C7.47402 49.1623 7.21892 49.3321 6.99187 49.4375C6.69734 49.5739 6.36709 49.6956 6.10861 49.8931C5.8871 50.0623 5.99924 50.5019 6.3181 50.39C6.63265 50.2794 6.91824 50.0786 7.20013 49.903C7.42503 49.7631 7.72294 49.6396 7.80674 49.3697C7.8243 49.3133 7.78579 49.252 7.73065 49.236Z" fill="url(#paint16_linear_11354_44766)"/>
<path d="M6.99247 48.5457C6.69856 48.5219 6.40434 48.5666 6.11413 48.6107C5.84887 48.651 5.53279 48.6541 5.34147 48.8565C5.23918 48.9646 5.29341 49.1171 5.42342 49.1664C5.68097 49.2644 5.98073 49.1224 6.23428 49.045C6.51125 48.9606 6.79037 48.871 7.04145 48.7243C7.12772 48.6738 7.08366 48.553 6.99247 48.5457Z" fill="#F284D2"/>
<path d="M6.99247 48.5457C6.69856 48.5219 6.40434 48.5666 6.11413 48.6107C5.84887 48.651 5.53279 48.6541 5.34147 48.8565C5.23918 48.9646 5.29341 49.1171 5.42342 49.1664C5.68097 49.2644 5.98073 49.1224 6.23428 49.045C6.51125 48.9606 6.79037 48.871 7.04145 48.7243C7.12772 48.6738 7.08366 48.553 6.99247 48.5457Z" fill="url(#paint17_linear_11354_44766)"/>
<path d="M6.62094 47.512C6.33812 47.4892 6.05253 47.5354 5.77279 47.5764C5.49614 47.6171 5.22041 47.6254 5.00383 47.8136C4.87567 47.9252 4.94437 48.1553 5.10396 48.1932C5.38184 48.2588 5.63878 48.1322 5.90034 48.0398C6.16344 47.947 6.43579 47.8528 6.67239 47.7027C6.76174 47.646 6.72076 47.52 6.62094 47.512Z" fill="#F284D2"/>
<path d="M6.62094 47.512C6.33812 47.4892 6.05253 47.5354 5.77279 47.5764C5.49614 47.6171 5.22041 47.6254 5.00383 47.8136C4.87567 47.9252 4.94437 48.1553 5.10396 48.1932C5.38184 48.2588 5.63878 48.1322 5.90034 48.0398C6.16344 47.947 6.43579 47.8528 6.67239 47.7027C6.76174 47.646 6.72076 47.52 6.62094 47.512Z" fill="url(#paint18_linear_11354_44766)"/>
<path d="M6.58123 46.392C6.28918 46.2765 5.94874 46.2925 5.63943 46.2805C5.34491 46.2688 5.06363 46.2306 4.82764 46.4253C4.71766 46.5161 4.77157 46.6779 4.86893 46.7466C5.12094 46.9244 5.47307 46.8285 5.76051 46.7931C6.05041 46.7574 6.34463 46.7438 6.61019 46.6141C6.71402 46.5633 6.66873 46.4265 6.58123 46.392Z" fill="#F284D2"/>
<path d="M6.58123 46.392C6.28918 46.2765 5.94874 46.2925 5.63943 46.2805C5.34491 46.2688 5.06363 46.2306 4.82764 46.4253C4.71766 46.5161 4.77157 46.6779 4.86893 46.7466C5.12094 46.9244 5.47307 46.8285 5.76051 46.7931C6.05041 46.7574 6.34463 46.7438 6.61019 46.6141C6.71402 46.5633 6.66873 46.4265 6.58123 46.392Z" fill="url(#paint19_linear_11354_44766)"/>
<path d="M6.59897 45.4642C6.34974 45.3071 6.0204 45.316 5.73512 45.2809C5.41933 45.2421 5.10201 45.1546 4.80502 45.2902C4.65252 45.3598 4.66978 45.5964 4.80502 45.6713C5.08507 45.8262 5.42519 45.7566 5.73512 45.7412C6.02255 45.727 6.33895 45.7566 6.59897 45.6186C6.66059 45.5862 6.6535 45.4987 6.59897 45.4642Z" fill="#F284D2"/>
<path d="M6.59897 45.4642C6.34974 45.3071 6.0204 45.316 5.73512 45.2809C5.41933 45.2421 5.10201 45.1546 4.80502 45.2902C4.65252 45.3598 4.66978 45.5964 4.80502 45.6713C5.08507 45.8262 5.42519 45.7566 5.73512 45.7412C6.02255 45.727 6.33895 45.7566 6.59897 45.6186C6.66059 45.5862 6.6535 45.4987 6.59897 45.4642Z" fill="url(#paint20_linear_11354_44766)"/>
<path d="M6.43083 44.2531C6.05189 44.1909 5.68404 44.0858 5.32975 43.9374C4.96499 43.7845 4.7786 44.4053 5.16308 44.5415C5.5793 44.6888 5.99767 44.7174 6.43083 44.6416C6.62215 44.6084 6.62431 44.2849 6.43083 44.2531Z" fill="#F284D2"/>
<path d="M6.43083 44.2531C6.05189 44.1909 5.68404 44.0858 5.32975 43.9374C4.96499 43.7845 4.7786 44.4053 5.16308 44.5415C5.5793 44.6888 5.99767 44.7174 6.43083 44.6416C6.62215 44.6084 6.62431 44.2849 6.43083 44.2531Z" fill="url(#paint21_linear_11354_44766)"/>
<path d="M6.4682 43.4352C6.10128 43.0212 5.25437 42.5714 4.70906 42.8058C4.50203 42.8948 4.54609 43.1961 4.70906 43.2972C4.94505 43.4435 5.2479 43.4041 5.51593 43.4534C5.79505 43.5048 6.06184 43.5954 6.33727 43.6595C6.47128 43.6906 6.55724 43.5356 6.4682 43.4352Z" fill="#F284D2"/>
<path d="M6.4682 43.4352C6.10128 43.0212 5.25437 42.5714 4.70906 42.8058C4.50203 42.8948 4.54609 43.1961 4.70906 43.2972C4.94505 43.4435 5.2479 43.4041 5.51593 43.4534C5.79505 43.5048 6.06184 43.5954 6.33727 43.6595C6.47128 43.6906 6.55724 43.5356 6.4682 43.4352Z" fill="url(#paint22_linear_11354_44766)"/>
<path d="M38.4249 54.5027C38.4208 54.503 38.4168 54.5033 38.4128 54.5036L37.6734 49.2259C37.9211 49.1954 37.9116 48.8075 37.6439 48.7967C31.4398 48.5463 26.3121 45.1907 20.6514 43.0711C18.2247 42.1623 15.6747 41.5168 13.0671 41.5535C11.8563 41.5704 10.6271 41.7239 9.46472 42.0698C9.04788 42.194 6.83125 43.04 6.92644 43.2245C6.818 43.0141 6.5395 43.1382 6.51947 43.3348C6.34202 45.0847 6.39562 49.9573 8.93574 50.0241C8.99551 50.0728 9.08177 50.0922 9.17481 50.0509C19.387 45.5277 28.2397 57.1032 38.448 54.6721C38.5404 54.6502 38.5231 54.4922 38.4249 54.5027Z" fill="#F285D3"/>
<path d="M38.4249 54.5027C38.4208 54.503 38.4168 54.5033 38.4128 54.5036L37.6734 49.2259C37.9211 49.1954 37.9116 48.8075 37.6439 48.7967C31.4398 48.5463 26.3121 45.1907 20.6514 43.0711C18.2247 42.1623 15.6747 41.5168 13.0671 41.5535C11.8563 41.5704 10.6271 41.7239 9.46472 42.0698C9.04788 42.194 6.83125 43.04 6.92644 43.2245C6.818 43.0141 6.5395 43.1382 6.51947 43.3348C6.34202 45.0847 6.39562 49.9573 8.93574 50.0241C8.99551 50.0728 9.08177 50.0922 9.17481 50.0509C19.387 45.5277 28.2397 57.1032 38.448 54.6721C38.5404 54.6502 38.5231 54.4922 38.4249 54.5027Z" fill="url(#paint23_linear_11354_44766)"/>
<path d="M31.7446 49.9566C27.9993 50.2225 24.3868 49.3688 21.1608 47.4473C21.0613 47.3882 20.9732 47.5407 21.0706 47.602C24.286 49.6211 27.9694 50.4761 31.7446 50.0719C31.817 50.0642 31.8195 49.9514 31.7446 49.9566Z" fill="white"/>
<path d="M31.0561 48.7772C29.9954 48.9005 29.0061 48.735 27.9839 48.4565C27.9161 48.438 27.8671 48.5422 27.9346 48.5733C28.9189 49.0305 30.0151 49.0773 31.0703 48.8838C31.13 48.873 31.1171 48.7702 31.0561 48.7772Z" fill="white"/>
<path d="M13.7274 43.0772C11.3767 42.9459 9.03529 43.4099 6.99673 44.617C6.91478 44.6656 6.98687 44.7864 7.07097 44.7439C9.18933 43.6758 11.3422 43.0975 13.7274 43.1795C13.7933 43.1819 13.7927 43.0809 13.7274 43.0772Z" fill="white"/>
<path d="M54.8726 48.7641C54.8403 48.6668 54.746 48.5759 54.6354 48.5836C53.3353 48.6742 52.0934 49.274 50.7342 49.3369C49.1232 49.4111 47.5145 49.2281 45.9288 48.9579C43.2885 48.5078 40.6991 47.843 38.0277 47.5913C37.9427 47.5287 37.8216 47.5183 37.7295 47.6098C37.7187 47.6206 37.7077 47.6313 37.6969 47.6424C37.63 47.7087 37.6177 47.7885 37.6383 47.8596C37.1895 49.9355 36.9159 53.5545 38.8103 54.9575C38.8334 55.0487 38.9021 55.1291 39.021 55.1374C44.2553 54.5788 52.2259 57.4501 54.2349 55.406C54.4299 55.3996 54.5048 55.2147 54.4604 55.073C55.4346 53.0967 55.5729 50.8616 54.8726 48.7641Z" fill="#F284D2"/>
<path d="M54.8726 48.7641C54.8403 48.6668 54.746 48.5759 54.6354 48.5836C53.3353 48.6742 52.0934 49.274 50.7342 49.3369C49.1232 49.4111 47.5145 49.2281 45.9288 48.9579C43.2885 48.5078 40.6991 47.843 38.0277 47.5913C37.9427 47.5287 37.8216 47.5183 37.7295 47.6098C37.7187 47.6206 37.7077 47.6313 37.6969 47.6424C37.63 47.7087 37.6177 47.7885 37.6383 47.8596C37.1895 49.9355 36.9159 53.5545 38.8103 54.9575C38.8334 55.0487 38.9021 55.1291 39.021 55.1374C44.2553 54.5788 52.2259 57.4501 54.2349 55.406C54.4299 55.3996 54.5048 55.2147 54.4604 55.073C55.4346 53.0967 55.5729 50.8616 54.8726 48.7641Z" fill="url(#paint24_linear_11354_44766)"/>
<path d="M53.3978 50.0896C49.5915 51.2557 45.8622 50.95 42.3269 49.1237C42.2102 49.0634 42.1113 49.2306 42.2237 49.3006C45.5522 51.365 49.8333 51.7048 53.4249 50.154C53.4619 50.1379 53.4354 50.0779 53.3978 50.0896Z" fill="white"/>
<path d="M53.756 51.0775C51.4679 51.8588 49.3307 51.9035 46.961 51.5822C46.8461 51.5665 46.7943 51.7239 46.9117 51.7612C49.1659 52.475 51.6749 52.154 53.8077 51.2005C53.8767 51.1693 53.8275 51.0532 53.756 51.0775Z" fill="white"/>
</g>
<defs>
<filter id="filter0_f_11354_44766" x="-55.895" y="-52.6783" width="175.632" height="173.3" filterUnits="userSpaceOnUse" color-interpolation-filters="sRGB">
<feFlood flood-opacity="0" result="BackgroundImageFix"/>
<feBlend mode="normal" in="SourceGraphic" in2="BackgroundImageFix" result="shape"/>
<feGaussianBlur stdDeviation="10" result="effect1_foregroundBlur_11354_44766"/>
</filter>
<filter id="filter1_f_11354_44766" x="16.8923" y="-3.10767" width="86" height="131" filterUnits="userSpaceOnUse" color-interpolation-filters="sRGB">
<feFlood flood-opacity="0" result="BackgroundImageFix"/>
<feBlend mode="normal" in="SourceGraphic" in2="BackgroundImageFix" result="shape"/>
<feGaussianBlur stdDeviation="5" result="effect1_foregroundBlur_11354_44766"/>
</filter>
<linearGradient id="paint0_linear_11354_44766" x1="4.27617" y1="-26.2455" x2="76.8596" y2="81.9513" gradientUnits="userSpaceOnUse">
<stop stop-color="#DCDCF8"/>
<stop offset="0.480274" stop-color="#E2C7FF"/>
<stop offset="1" stop-color="#E2C7FF"/>
</linearGradient>
<linearGradient id="paint1_linear_11354_44766" x1="27.8999" y1="42.4963" x2="73.4315" y2="52.1633" gradientUnits="userSpaceOnUse">
<stop stop-color="#F97267"/>
<stop offset="0.25" stop-color="#FCD5B8"/>
<stop offset="0.5" stop-color="#FACBAB"/>
<stop offset="1" stop-color="#F97267"/>
</linearGradient>
<linearGradient id="paint2_linear_11354_44766" x1="53.7481" y1="41.5459" x2="52.7171" y2="42.1827" gradientUnits="userSpaceOnUse">
<stop stop-color="#70483F"/>
<stop offset="0.699361" stop-color="#D68A78"/>
</linearGradient>
<linearGradient id="paint3_linear_11354_44766" x1="50.3129" y1="44.8067" x2="49.5269" y2="46.345" gradientUnits="userSpaceOnUse">
<stop stop-color="#70483F"/>
<stop offset="0.699361" stop-color="#D68A78"/>
</linearGradient>
<linearGradient id="paint4_linear_11354_44766" x1="46.8689" y1="39.4435" x2="45.7458" y2="40.4081" gradientUnits="userSpaceOnUse">
<stop stop-color="#70483F"/>
<stop offset="0.699361" stop-color="#D68A78"/>
</linearGradient>
<linearGradient id="paint5_linear_11354_44766" x1="45.5674" y1="34.4328" x2="44.7322" y2="35.5199" gradientUnits="userSpaceOnUse">
<stop stop-color="#70483F"/>
<stop offset="0.699361" stop-color="#D68A78"/>
</linearGradient>
<linearGradient id="paint6_linear_11354_44766" x1="55.8231" y1="38.4946" x2="54.8521" y2="39.2817" gradientUnits="userSpaceOnUse">
<stop stop-color="#70483F"/>
<stop offset="0.699361" stop-color="#D68A78"/>
</linearGradient>
<linearGradient id="paint7_linear_11354_44766" x1="55.6422" y1="33.216" x2="54.796" y2="34.2199" gradientUnits="userSpaceOnUse">
<stop stop-color="#70483F"/>
<stop offset="0.699361" stop-color="#D68A78"/>
</linearGradient>
<linearGradient id="paint8_linear_11354_44766" x1="34.6875" y1="41.806" x2="34.1485" y2="42.7514" gradientUnits="userSpaceOnUse">
<stop stop-color="#70483F"/>
<stop offset="0.699361" stop-color="#D68A78"/>
</linearGradient>
<linearGradient id="paint9_linear_11354_44766" x1="36.5757" y1="43.2431" x2="36.1052" y2="43.4197" gradientUnits="userSpaceOnUse">
<stop stop-color="#70483F"/>
<stop offset="0.699361" stop-color="#D68A78"/>
</linearGradient>
<linearGradient id="paint10_linear_11354_44766" x1="33.2763" y1="41.3108" x2="26.9762" y2="43.9198" gradientUnits="userSpaceOnUse">
<stop stop-color="#70483F"/>
<stop offset="0.699361" stop-color="#D68A78"/>
</linearGradient>
<linearGradient id="paint11_linear_11354_44766" x1="39.1392" y1="30.0559" x2="34.8073" y2="36.6956" gradientUnits="userSpaceOnUse">
<stop stop-color="#70483F"/>
<stop offset="0.699361" stop-color="#D68A78"/>
</linearGradient>
<linearGradient id="paint12_linear_11354_44766" x1="56.6064" y1="63.0831" x2="56.7353" y2="98.4795" gradientUnits="userSpaceOnUse">
<stop stop-color="#EACFFF"/>
<stop offset="1" stop-color="#7678B8"/>
</linearGradient>
<linearGradient id="paint13_linear_11354_44766" x1="50.2411" y1="65.5576" x2="50.3662" y2="100.5" gradientUnits="userSpaceOnUse">
<stop stop-color="#EACFFF"/>
<stop offset="1" stop-color="#888ADA"/>
</linearGradient>
<linearGradient id="paint14_linear_11354_44766" x1="29.8905" y1="78.5308" x2="41.9872" y2="83.2896" gradientUnits="userSpaceOnUse">
<stop stop-color="#F97267"/>
<stop offset="0.25" stop-color="#FCD5B8"/>
<stop offset="0.5" stop-color="#FACBAB"/>
<stop offset="1" stop-color="#F97267"/>
</linearGradient>
<linearGradient id="paint15_linear_11354_44766" x1="38.1669" y1="53.4197" x2="38.2736" y2="91.2404" gradientUnits="userSpaceOnUse">
<stop stop-color="#FF98A3"/>
<stop offset="1" stop-color="white"/>
</linearGradient>
<linearGradient id="paint16_linear_11354_44766" x1="6.90136" y1="48.8297" x2="6.90362" y2="50.408" gradientUnits="userSpaceOnUse">
<stop stop-color="#EACFFF"/>
<stop offset="1" stop-color="#9D9FE6"/>
</linearGradient>
<linearGradient id="paint17_linear_11354_44766" x1="6.18727" y1="48.3235" x2="6.18797" y2="49.1997" gradientUnits="userSpaceOnUse">
<stop stop-color="#EACFFF"/>
<stop offset="1" stop-color="#9D9FE6"/>
</linearGradient>
<linearGradient id="paint18_linear_11354_44766" x1="5.82864" y1="47.2758" x2="5.82945" y2="48.2113" gradientUnits="userSpaceOnUse">
<stop stop-color="#EACFFF"/>
<stop offset="1" stop-color="#9D9FE6"/>
</linearGradient>
<linearGradient id="paint19_linear_11354_44766" x1="5.71756" y1="46.0799" x2="5.71808" y2="46.8508" gradientUnits="userSpaceOnUse">
<stop stop-color="#EACFFF"/>
<stop offset="1" stop-color="#9D9FE6"/>
</linearGradient>
<linearGradient id="paint20_linear_11354_44766" x1="5.66901" y1="45.0367" x2="5.66946" y2="45.7701" gradientUnits="userSpaceOnUse">
<stop stop-color="#EACFFF"/>
<stop offset="1" stop-color="#9D9FE6"/>
</linearGradient>
<linearGradient id="paint21_linear_11354_44766" x1="5.76213" y1="43.6624" x2="5.76318" y2="44.6822" gradientUnits="userSpaceOnUse">
<stop stop-color="#EACFFF"/>
<stop offset="1" stop-color="#9D9FE6"/>
</linearGradient>
<linearGradient id="paint22_linear_11354_44766" x1="5.53644" y1="42.4404" x2="5.53771" y2="43.6635" gradientUnits="userSpaceOnUse">
<stop stop-color="#EACFFF"/>
<stop offset="1" stop-color="#9D9FE6"/>
</linearGradient>
<linearGradient id="paint23_linear_11354_44766" x1="22.4708" y1="37.1601" x2="22.4871" y2="55.0117" gradientUnits="userSpaceOnUse">
<stop stop-color="#EACFFF"/>
<stop offset="1" stop-color="#9D9FE6"/>
</linearGradient>
<linearGradient id="paint24_linear_11354_44766" x1="46.3041" y1="44.7338" x2="46.316" y2="56.151" gradientUnits="userSpaceOnUse">
<stop stop-color="#EACFFF"/>
<stop offset="1" stop-color="#9D9FE6"/>
</linearGradient>
<clipPath id="clip0_11354_44766">
<rect x="0.892334" y="0.892334" width="96.2154" height="96.2154" rx="48.1077" fill="white"/>
</clipPath>
</defs>
</svg>
