<svg width="115" height="128" viewBox="0 0 115 128" fill="none" xmlns="http://www.w3.org/2000/svg">
<path d="M48.8517 122.514C48.4343 123.324 47.7599 123.998 46.9035 124.418C44.8887 125.408 41.7024 126.515 37.3961 126.641C36.663 126.664 35.8962 126.656 35.0994 126.615C33.6071 126.538 32.2667 125.694 31.5435 124.403C31.4769 124.287 31.4155 124.167 31.3615 124.044C29.5751 120.019 26.2453 111.122 25.9709 100.24C25.8326 94.7029 26.4835 88.651 28.534 82.4655C29.0907 80.7813 29.7519 79.0892 30.5286 77.3924C30.5286 77.3924 30.5338 77.3895 30.5441 77.3872C30.9465 77.2385 39.6313 74.0855 41.3079 77.2695C41.5462 77.723 41.6437 78.3022 41.5537 79.0381C41.2948 81.1809 41.4669 83.4804 41.7947 85.5542C42.3922 89.3123 43.5047 92.3293 43.5047 92.3293C43.5047 92.3293 48.1468 107.907 49.2311 119.189C49.2466 119.361 49.2644 119.53 49.2799 119.699C49.293 119.868 49.308 120.037 49.3212 120.206C49.3849 121.024 49.2133 121.819 48.8517 122.514Z" fill="url(#paint0_linear_11101_32654)"/>
<path d="M48.8517 122.514C48.4343 123.324 47.7599 123.998 46.9035 124.418C44.8887 125.408 41.7024 126.515 37.3961 126.641C36.663 126.664 35.8962 126.656 35.0994 126.615C33.6071 126.538 32.2667 125.694 31.5435 124.403C31.4769 124.287 31.4155 124.167 31.3615 124.044C29.5751 120.019 26.2453 111.122 25.9709 100.24C25.8326 94.7029 26.4835 88.651 28.534 82.4655C29.0907 80.7813 29.7519 79.0892 30.5286 77.3924C30.5286 77.3924 30.5338 77.3895 30.5441 77.3872C30.9465 77.2385 39.6313 74.0855 41.3079 77.2695C41.5462 77.723 41.6437 78.3022 41.5537 79.0381C41.2948 81.1809 41.4669 83.4804 41.7947 85.5542C42.3922 89.3123 43.5047 92.3293 43.5047 92.3293C43.5047 92.3293 48.1468 107.907 49.2311 119.189C49.2466 119.361 49.2644 119.53 49.2799 119.699C49.293 119.868 49.308 120.037 49.3212 120.206C49.3849 121.024 49.2133 121.819 48.8517 122.514Z" fill="url(#paint1_linear_11101_32654)" fill-opacity="0.2"/>
<path d="M46.9017 124.418C44.8869 125.408 41.7006 126.515 37.3943 126.641C37.3943 126.641 36.1458 122.347 38.3398 121.752C40.5318 121.157 41.2189 123.031 41.2189 123.031C41.2189 123.031 41.3085 120.883 42.9542 120.519C44.5975 120.153 45.5585 121.617 45.5585 121.617C45.5585 121.617 45.6406 118.725 49.2293 119.189C49.2626 119.532 49.2936 119.87 49.3193 120.206C49.4572 121.972 48.4911 123.639 46.9017 124.418Z" fill="#EDEEF2"/>
<path d="M36.9567 125.666L36.2138 125.664C35.9662 125.661 35.7186 125.647 35.4705 125.64C35.3509 125.634 35.2139 125.632 35.108 125.624C35.0104 125.614 34.9119 125.611 34.8158 125.591C34.0391 125.478 33.3136 125.063 32.8066 124.468C32.6814 124.318 32.5651 124.16 32.4694 123.989C32.4183 123.906 32.3737 123.819 32.3329 123.73L32.301 123.664L32.2635 123.579L32.1875 123.406C31.9854 122.945 31.7894 122.479 31.5999 122.012C31.22 121.076 30.8645 120.13 30.5301 119.175C29.8632 117.266 29.284 115.325 28.7967 113.361C27.8226 109.435 27.2101 105.418 27.0258 101.384C26.849 97.3521 27.0567 93.3005 27.7781 89.3319C28.1739 87.1318 28.7175 84.9585 29.4036 82.8302C30.123 83.091 30.8748 83.3391 31.6618 83.5741C30.3327 88.573 27.477 102.755 33.0223 117.088C33.9134 119.391 35.6023 121.156 37.6396 122.188C36.8709 122.981 36.9839 124.602 37.1636 125.662C37.0946 125.664 37.0257 125.665 36.9567 125.666Z" fill="#9D9FE6"/>
<path d="M43.7765 92.248C44.5846 94.16 45.2482 96.1143 45.8546 98.0869C46.4676 100.058 46.9933 102.054 47.4712 104.062C47.6991 105.069 47.9407 106.072 48.1522 107.084L48.4777 108.598L48.782 110.119C48.9936 111.131 49.1601 112.154 49.3505 113.171L49.5976 114.706C49.6806 115.218 49.7636 115.73 49.8274 116.246L50.0338 117.792C50.0943 118.309 50.1417 118.829 50.1956 119.348L50.2744 120.127C50.2946 120.438 50.2992 120.755 50.2655 121.068C50.2026 121.694 50.0338 122.311 49.7538 122.875C49.4752 123.439 49.0977 123.953 48.6437 124.389C48.4115 124.602 48.1681 124.804 47.9036 124.974C47.7723 125.062 47.6382 125.144 47.4984 125.216C47.353 125.297 47.2344 125.352 47.1129 125.41C46.1383 125.879 45.1295 126.26 44.1034 126.575C42.0496 127.205 39.9204 127.54 37.7917 127.637C37.5253 127.646 37.2589 127.661 36.993 127.664L36.1943 127.666C35.9284 127.665 35.6629 127.652 35.3975 127.645C35.2605 127.64 35.1404 127.64 34.9894 127.63C34.8314 127.616 34.6729 127.607 34.5167 127.579C33.2565 127.399 32.0774 126.741 31.2483 125.777C31.0419 125.535 30.8529 125.277 30.6939 125.002C30.6109 124.865 30.5373 124.724 30.4697 124.58L30.4177 124.473L30.3774 124.381L30.2981 124.202C30.0884 123.722 29.8863 123.239 29.6903 122.755C29.2977 121.786 28.9314 120.808 28.5877 119.822C27.9015 117.851 27.3069 115.849 26.806 113.823C25.8056 109.772 25.1762 105.622 24.9896 101.444C24.8934 99.3546 24.9126 97.2582 25.0646 95.1703C25.2109 93.0823 25.4745 91.0014 25.8675 88.9439C26.2544 86.886 26.7759 84.8534 27.4119 82.8583C27.7327 81.8612 28.0905 80.8772 28.4714 79.9022C28.8592 78.93 29.2743 77.9695 29.7147 77.0207C29.9224 76.5733 30.4533 76.3791 30.9007 76.5869C31.3435 76.7928 31.5386 77.3152 31.3402 77.7603L31.3383 77.7645C29.6931 81.4508 28.4995 85.3312 27.7852 89.2985C27.0639 93.2671 26.8561 97.3187 27.033 101.351C27.2173 105.385 27.8298 109.401 28.8039 113.328C29.2912 115.291 29.8704 117.233 30.5373 119.142C30.8717 120.096 31.2272 121.043 31.607 121.978C31.7965 122.446 31.9926 122.911 32.1947 123.373L32.2707 123.545L32.3082 123.63L32.3401 123.696C32.3809 123.785 32.4254 123.872 32.4766 123.956C32.5722 124.126 32.6885 124.284 32.8138 124.434C33.3208 125.03 34.0463 125.444 34.8229 125.558C34.9191 125.577 35.0176 125.58 35.1151 125.591C35.2211 125.599 35.3581 125.601 35.4777 125.607C35.7257 125.614 35.9734 125.628 36.221 125.63L36.9639 125.632C37.2115 125.631 37.4582 125.618 37.7054 125.612C39.6808 125.533 41.6454 125.234 43.5256 124.669C44.465 124.386 45.3861 124.044 46.2654 123.626C46.377 123.574 46.491 123.522 46.5698 123.477C46.6594 123.433 46.7443 123.382 46.8278 123.327C46.9971 123.222 47.1504 123.095 47.2996 122.963C47.5894 122.69 47.8319 122.367 48.0129 122.013C48.1949 121.658 48.3037 121.268 48.3487 120.874C48.3736 120.676 48.3703 120.478 48.3618 120.276L48.2915 119.521C48.2432 119.017 48.2024 118.513 48.1484 118.01L47.9599 116.498C47.9027 115.994 47.8253 115.491 47.7484 114.988L47.5191 113.478C47.3399 112.474 47.1856 111.466 46.9853 110.465L46.6983 108.96L46.3897 107.458C46.189 106.457 45.9582 105.459 45.742 104.46C45.2866 102.465 44.8411 100.468 44.4181 98.4607C43.9861 96.4572 43.5739 94.4438 43.2254 92.4121L43.225 92.4093C43.1977 92.2522 43.3033 92.1026 43.4608 92.0758C43.5959 92.0524 43.7254 92.127 43.7765 92.248Z" fill="#371B45"/>
<path d="M87.1882 100.24C86.9138 111.121 83.5839 120.019 81.7971 124.044C81.7408 124.169 81.6822 124.29 81.6151 124.405C80.8924 125.694 79.5515 126.538 78.0597 126.615C77.2624 126.656 76.4961 126.664 75.763 126.64C71.4563 126.515 68.2699 125.407 66.2551 124.418C65.3992 123.998 64.7248 123.323 64.3069 122.513C63.9458 121.819 63.7737 121.024 63.8379 120.206C63.8506 120.037 63.8661 119.868 63.8792 119.699C63.8942 119.53 63.912 119.36 63.928 119.189C65.0123 107.907 69.6544 92.3294 69.6544 92.3294C69.6544 92.3294 70.8513 89.0839 71.4281 85.1289C71.7156 83.1704 71.846 81.0351 71.6049 79.0381C71.4591 77.823 71.8179 77.0308 72.4843 76.5412C75.0656 74.6446 82.2511 77.2541 82.615 77.3873C82.6253 77.3896 82.63 77.3924 82.63 77.3924C83.3251 78.9073 83.9249 80.417 84.4427 81.922C86.6366 88.297 87.3317 94.5416 87.1882 100.24Z" fill="url(#paint2_linear_11101_32654)"/>
<path d="M87.1882 100.24C86.9138 111.121 83.5839 120.019 81.7971 124.044C81.7408 124.169 81.6822 124.29 81.6151 124.405C80.8924 125.694 79.5515 126.538 78.0597 126.615C77.2624 126.656 76.4961 126.664 75.763 126.64C71.4563 126.515 68.2699 125.407 66.2551 124.418C65.3992 123.998 64.7248 123.323 64.3069 122.513C63.9458 121.819 63.7737 121.024 63.8379 120.206C63.8506 120.037 63.8661 119.868 63.8792 119.699C63.8942 119.53 63.912 119.36 63.928 119.189C65.0123 107.907 69.6544 92.3294 69.6544 92.3294C69.6544 92.3294 70.8513 89.0839 71.4281 85.1289C71.7156 83.1704 71.846 81.0351 71.6049 79.0381C71.4591 77.823 71.8179 77.0308 72.4843 76.5412C75.0656 74.6446 82.2511 77.2541 82.615 77.3873C82.6253 77.3896 82.63 77.3924 82.63 77.3924C83.3251 78.9073 83.9249 80.417 84.4427 81.922C86.6366 88.297 87.3317 94.5416 87.1882 100.24Z" fill="url(#paint3_linear_11101_32654)" fill-opacity="0.2"/>
<path d="M66.2521 124.418C68.2669 125.408 71.4532 126.515 75.76 126.641C75.76 126.641 77.008 122.347 74.814 121.752C72.622 121.157 71.9353 123.031 71.9353 123.031C71.9353 123.031 71.8458 120.883 70.1996 120.519C68.5567 120.153 67.5953 121.616 67.5953 121.616C67.5953 121.616 67.5132 118.725 63.9245 119.188C63.8912 119.532 63.8607 119.87 63.8349 120.206C63.6965 121.972 64.6627 123.639 66.2521 124.418Z" fill="#EDEEF2"/>
<path d="M76.1799 125.666C76.111 125.665 76.042 125.664 75.9731 125.662C76.1532 124.602 76.2658 122.981 75.4971 122.188C77.5344 121.156 79.2232 119.391 80.1143 117.088C85.8787 102.19 82.5653 87.454 81.3252 83.0257C82.1 82.788 82.842 82.5408 83.5534 82.2838C84.3249 84.5861 84.9285 86.9432 85.3586 89.3323C86.0799 93.3004 86.2881 97.3525 86.1113 101.384C85.927 105.418 85.314 109.435 84.3399 113.361C83.8527 115.325 83.2734 117.266 82.6065 119.175C82.2726 120.13 81.9167 121.077 81.5368 122.012C81.3473 122.479 81.1513 122.945 80.9491 123.406L80.8736 123.579L80.8361 123.664L80.8037 123.73C80.7634 123.819 80.7188 123.906 80.6677 123.989C80.5716 124.16 80.4557 124.318 80.33 124.468C79.8231 125.063 79.098 125.478 78.3209 125.591C78.2247 125.611 78.1262 125.614 78.0287 125.624C77.9232 125.632 77.7862 125.635 77.6662 125.64C77.4185 125.647 77.1709 125.661 76.9228 125.664L76.1799 125.666Z" fill="#9D9FE6"/>
<path d="M75.9737 125.66C75.7954 125.656 75.6172 125.648 75.439 125.644C73.4636 125.564 71.499 125.266 69.6188 124.7C68.6794 124.417 67.7588 124.076 66.8789 123.658C66.7678 123.606 66.6534 123.554 66.5746 123.509C66.485 123.465 66.4001 123.414 66.3171 123.359C66.1473 123.254 65.9944 123.126 65.8443 122.995C65.555 122.722 65.3125 122.399 65.1315 122.044C64.9495 121.689 64.8407 121.3 64.7957 120.905C64.7863 120.828 64.7807 120.75 64.7783 120.673C65.5006 121.325 66.2927 121.842 67.1153 122.251C68.4393 122.909 69.8378 123.217 71.2162 123.217C72.7085 123.217 74.1765 122.855 75.4976 122.186C76.2663 122.979 76.1537 124.6 75.9737 125.66Z" fill="#9D9FE6"/>
<path d="M69.9286 92.412C69.5801 94.4437 69.1679 96.4566 68.7359 98.4606C68.3129 100.467 67.8674 102.465 67.4125 104.46C67.1958 105.459 66.9646 106.456 66.7648 107.458L66.4557 108.96L66.1687 110.464C65.9684 111.466 65.8141 112.473 65.635 113.477L65.4056 114.987C65.3287 115.491 65.2518 115.994 65.1941 116.498L65.0061 118.009C64.9512 118.513 64.9108 119.017 64.8625 119.521L64.7927 120.276C64.7837 120.478 64.7809 120.675 64.8053 120.873C64.8503 121.268 64.9591 121.657 65.1411 122.012C65.3221 122.367 65.5646 122.69 65.854 122.963C66.0041 123.094 66.157 123.222 66.3267 123.327C66.4097 123.382 66.4946 123.433 66.5842 123.477C66.663 123.522 66.7774 123.574 66.8886 123.626C67.7684 124.044 68.6891 124.385 69.6284 124.668C71.5086 125.234 73.4733 125.532 75.4487 125.612C75.6958 125.618 75.943 125.631 76.1901 125.632L76.933 125.63C77.1811 125.628 77.4287 125.613 77.6764 125.606C77.7964 125.601 77.9334 125.598 78.0389 125.59C78.1365 125.58 78.2349 125.577 78.3311 125.557C79.1082 125.444 79.8333 125.029 80.3403 124.434C80.4659 124.284 80.5818 124.126 80.6779 123.956C80.729 123.872 80.7736 123.785 80.8139 123.696L80.8463 123.63L80.8838 123.545L80.9593 123.372C81.1615 122.911 81.3575 122.445 81.547 121.978C81.9269 121.043 82.2828 120.096 82.6167 119.141C83.2837 117.232 83.8629 115.291 84.3501 113.327C85.3242 109.401 85.9372 105.384 86.1215 101.351C86.2983 97.3186 86.0901 93.2665 85.3688 89.2984C84.6545 85.3307 83.4614 81.4507 81.8157 77.764L81.8143 77.7607C81.6131 77.31 81.8152 76.7823 82.2659 76.5812C82.712 76.3823 83.2339 76.5793 83.4394 77.0206C83.8802 77.9689 84.2953 78.9299 84.6827 79.9016C85.0635 80.8767 85.4213 81.8611 85.7426 82.8577C86.3781 84.8528 86.9001 86.8854 87.2865 88.9438C87.68 91.0008 87.9431 93.0817 88.0894 95.1702C88.2419 97.2581 88.2606 99.3541 88.1645 101.443C87.9778 105.622 87.3484 109.771 86.3485 113.822C85.8476 115.849 85.2525 117.851 84.5663 119.822C84.2226 120.808 83.8563 121.786 83.4642 122.755C83.2682 123.239 83.0656 123.722 82.8559 124.201L82.7771 124.381L82.7363 124.472L82.6843 124.58C82.6167 124.724 82.5431 124.865 82.4606 125.001C82.3011 125.277 82.1121 125.534 81.9062 125.776C81.0766 126.74 79.8975 127.399 78.6378 127.579C78.4812 127.607 78.3222 127.616 78.1641 127.629C78.014 127.639 77.894 127.639 77.757 127.645C77.4911 127.652 77.2257 127.665 76.9593 127.666L76.1611 127.663C75.8951 127.661 75.6287 127.646 75.3624 127.637C73.2341 127.54 71.1048 127.205 69.0511 126.575C68.0245 126.259 67.0157 125.879 66.0411 125.409C65.9196 125.352 65.801 125.297 65.6561 125.215C65.5158 125.144 65.3817 125.061 65.2509 124.973C64.9854 124.803 64.7425 124.601 64.5108 124.389C64.0563 123.953 63.6793 123.438 63.4002 122.875C63.1202 122.311 62.9514 121.694 62.8885 121.067C62.8548 120.755 62.8595 120.438 62.8792 120.126L62.9584 119.348C63.0128 118.829 63.0597 118.309 63.1202 117.792L63.3266 116.246C63.3904 115.729 63.4734 115.218 63.5564 114.706L63.8036 113.171C63.9944 112.153 64.1605 111.13 64.3724 110.119L64.6763 108.598L65.0023 107.083C65.2138 106.071 65.4553 105.068 65.6828 104.061C66.1607 102.054 66.6869 100.058 67.2994 98.0868C67.9063 96.1142 68.5695 94.16 69.3775 92.2479C69.4399 92.1006 69.6097 92.0317 69.757 92.094C69.8831 92.147 69.9516 92.2798 69.9291 92.4092L69.9286 92.412Z" fill="#371B45"/>
<path d="M16.8274 64.5171C10.3315 61.766 10.1978 55.8159 10.2243 54.7794C10.2271 54.6772 10.2313 54.6237 10.2313 54.6237C-0.482571 48.3692 1.00648 37.3479 1.00648 37.3479C7.5215 19.6598 28.7628 19.1261 28.7628 19.1261C30.5904 54.5984 16.8274 64.5171 16.8274 64.5171Z" fill="#EFEFEF" fill-opacity="0.933333"/>
<path d="M16.8253 64.5171C10.3294 61.766 10.1957 55.8159 10.2222 54.7794C12.2601 53.5938 13.7651 51.7342 14.856 49.8428C16.4304 47.1123 17.2793 44.0216 17.4209 40.8728C17.5775 37.3797 18.4353 33.9036 19.3367 31.1257C20.135 28.6649 17.6258 26.4447 15.2663 27.5042C6.84617 31.2852 1.00439 37.3479 1.00439 37.3479C7.51941 19.6598 28.7607 19.1261 28.7607 19.1261C30.5883 54.5984 16.8253 64.5171 16.8253 64.5171Z" fill="#ADAEC4"/>
<path d="M1.88099 37.5556C1.83207 38.0462 1.65038 40.4859 2.48097 43.4757C3.71081 47.9035 6.4691 51.3942 10.6793 53.8512C10.9747 54.0238 11.1454 54.3502 11.1192 54.6917C11.1018 54.9374 10.767 60.6619 16.6828 63.475C17.6457 62.6181 20.2767 59.9547 22.7427 54.588C25.5468 48.4859 28.6923 37.5739 27.9143 20.0734C26.1837 20.2188 22.0899 20.7276 17.5946 22.4568C9.7831 25.4607 4.49694 30.5404 1.88099 37.5556ZM16.8249 65.41C16.7068 65.41 16.5886 65.3866 16.4765 65.3392C10.0865 62.6322 9.3891 56.9489 9.33469 55.1278C3.86501 51.7661 1.64077 47.1756 0.738988 43.8757C-0.264189 40.2059 0.104721 37.3483 0.120901 37.2282C0.129671 37.1635 0.145382 37.1002 0.16794 37.0392C2.92342 29.5574 8.74663 23.9313 17.0083 20.7689C23.2051 18.3968 28.5174 18.2378 28.7402 18.2321C29.2307 18.2223 29.6294 18.5956 29.6542 19.0791C30.6077 37.5861 27.2624 49.0999 24.2885 55.4997C21.0149 62.544 17.4951 65.1347 17.3469 65.2417C17.1926 65.3528 17.0093 65.41 16.8249 65.41Z" fill="#371B45"/>
<path d="M28.7613 19.1265C28.7613 19.1265 7.05037 23.3334 1.00439 37.3492C1.00439 37.3492 2.1433 17.7627 33.9188 13.4564C33.9188 13.4564 32.2192 18.2584 28.7613 19.1265Z" fill="url(#paint4_linear_11101_32654)"/>
<path d="M28.7613 19.1265C28.7613 19.1265 7.05037 23.3334 1.00439 37.3492C1.00439 37.3492 2.1433 17.7627 33.9188 13.4564C33.9188 13.4564 32.2192 18.2584 28.7613 19.1265Z" fill="url(#paint5_linear_11101_32654)" fill-opacity="0.2"/>
<path d="M3.90088 31.2109C4.50869 30.0361 5.29899 28.7665 6.32543 27.4693C9.88959 22.9651 17.0741 17.2443 31.2527 14.7704C30.8203 15.2178 30.4001 15.6751 29.9907 16.1431C15.345 18.9393 8.10024 25.2041 4.52201 30.5267C4.30946 30.7527 4.10236 30.9807 3.90088 31.2109Z" fill="#ECEDF1"/>
<path d="M32.4226 14.5772C17.4664 16.9339 9.98604 22.8436 6.32513 27.4703C5.29869 28.7675 4.50839 30.0371 3.90058 31.2119C6.96864 27.7109 11.3212 24.6436 16.7812 22.1683C22.8354 19.4228 28.0994 18.3465 28.5651 18.2546C30.4031 17.7813 31.7041 15.9143 32.4226 14.5772ZM1.00454 38.2416C0.936348 38.2416 0.867172 38.2337 0.79837 38.2177C0.376745 38.1178 0.0877521 37.7295 0.112843 37.2971C0.125178 37.0856 0.46412 32.057 4.84269 26.4666C8.82847 21.3776 17.0874 14.8356 33.7986 12.5708C34.1067 12.5282 34.4149 12.651 34.6114 12.8926C34.8079 13.1341 34.8642 13.46 34.7605 13.7536C34.6845 13.968 32.8564 19.0185 28.9783 19.9917C28.9628 19.9959 28.9469 19.9992 28.9314 20.0025C28.7185 20.0438 7.61068 24.2882 1.82401 37.7023C1.68045 38.0353 1.35427 38.2416 1.00454 38.2416Z" fill="#371B45"/>
<path d="M99.0098 62.7798C105.383 59.7562 105.265 53.8057 105.195 52.7715C105.188 52.6698 105.181 52.6158 105.181 52.6158C115.621 45.9139 113.667 34.9653 113.667 34.9653C106.41 17.5684 85.1647 17.9338 85.1647 17.9338C84.8392 53.452 99.0098 62.7798 99.0098 62.7798Z" fill="#EFEFEF" fill-opacity="0.933333"/>
<path d="M99.0098 62.7798C105.383 59.7562 105.265 53.8057 105.195 52.7715C103.108 51.6732 101.526 49.8793 100.357 48.0352C98.668 45.3736 97.6892 42.3219 97.4143 39.1815C97.11 35.6988 96.1058 32.2615 95.0881 29.5245C94.1863 27.0998 96.5997 24.7755 99.0019 25.7341C107.574 29.1554 113.667 34.9653 113.667 34.9653C106.41 17.5684 85.1647 17.9338 85.1647 17.9338C84.8392 53.452 99.0098 62.7798 99.0098 62.7798Z" fill="#ADAEC4"/>
<path d="M86.0523 18.8432C85.9843 49.4286 96.8809 59.9096 99.1086 61.7307C104.901 58.6705 104.324 52.9648 104.296 52.7167C104.257 52.3785 104.414 52.0455 104.7 51.8617C114.039 45.867 112.948 36.2334 112.802 35.2092C109.891 28.3107 104.395 23.459 96.4635 20.7876C91.8993 19.2507 87.7876 18.9149 86.0523 18.8432ZM99.0116 63.6705C98.8394 63.6705 98.6687 63.6212 98.5205 63.5237C98.3681 63.4233 94.7414 60.9841 91.1728 54.0843C87.9311 47.8157 84.1018 36.4539 84.2716 17.923C84.2763 17.439 84.665 17.0469 85.149 17.0385C85.3718 17.0357 90.686 16.9686 96.978 19.0767C105.366 21.8869 111.422 27.2616 114.491 34.6201C114.516 34.6801 114.535 34.743 114.546 34.8072C114.568 34.9264 115.057 37.7656 114.21 41.4749C113.448 44.8094 111.42 49.49 106.098 53.0797C106.12 54.9017 105.664 60.6094 99.3942 63.5847C99.2728 63.6423 99.1419 63.6705 99.0116 63.6705Z" fill="#371B45"/>
<path d="M85.1635 17.9343C85.1635 17.9343 107.033 21.2191 113.666 34.9667C113.666 34.9667 111.7 15.4454 79.7705 12.487C79.7705 12.487 81.6718 17.213 85.1635 17.9343Z" fill="url(#paint6_linear_11101_32654)"/>
<path d="M85.1635 17.9343C85.1635 17.9343 107.033 21.2191 113.666 34.9667C113.666 34.9667 111.7 15.4454 79.7705 12.487C79.7705 12.487 81.6718 17.213 85.1635 17.9343Z" fill="url(#paint7_linear_11101_32654)" fill-opacity="0.2"/>
<path d="M110.51 28.9546C110.299 28.7337 110.082 28.5147 109.861 28.2975C106.06 23.1311 98.5569 17.1782 83.8061 15.0039C83.3774 14.5537 82.938 14.1147 82.4873 13.6856C96.7578 15.5578 104.178 20.97 107.929 25.3194C109.01 26.5716 109.853 27.807 110.51 28.9546Z" fill="#ECEDF1"/>
<path d="M85.3227 17.0531C85.7922 17.1253 91.0965 17.9779 97.2614 20.4645C102.821 22.7073 107.3 25.5874 110.513 28.9552C109.856 27.8076 109.013 26.5722 107.932 25.32C104.079 20.8524 96.3553 15.2639 81.3128 13.5417C82.0871 14.8474 83.466 16.6577 85.3227 17.0531ZM113.666 35.8574C113.331 35.8574 113.014 35.6674 112.862 35.3527C106.514 22.1947 85.2449 18.847 85.031 18.8146C85.0151 18.8123 84.9987 18.8095 84.9832 18.8062C81.0676 17.9976 79.0274 13.0291 78.9425 12.8181C78.8262 12.5292 78.8689 12.2009 79.0546 11.9514C79.2408 11.7019 79.5419 11.5668 79.8529 11.5959C96.6452 13.1515 105.174 19.3385 109.371 24.2545C113.982 29.6545 114.534 34.6642 114.555 34.8748C114.598 35.3063 114.326 35.7059 113.909 35.8241C113.828 35.8466 113.747 35.8574 113.666 35.8574Z" fill="#371B45"/>
<path d="M58.3212 79.9314L58.2626 79.9324C-2.63552 81.2212 19.9674 44.5886 20.3379 43.9991C20.3403 43.9939 20.3403 43.9911 20.3403 43.9911C21.6323 27.0286 28.7418 17.1844 36.3348 11.4763C48.3359 2.4505 64.9035 2.0997 77.2756 10.6105C85.1031 15.9922 92.6229 25.5264 94.6311 42.4195C94.6311 42.4195 119.64 78.6112 58.3212 79.9314Z" fill="url(#paint8_linear_11101_32654)"/>
<path d="M58.3212 79.9314L58.2626 79.9324C-2.63552 81.2212 19.9674 44.5886 20.3379 43.9991C20.3403 43.9939 20.3403 43.9911 20.3403 43.9911C21.6323 27.0286 28.7418 17.1844 36.3348 11.4763C48.3359 2.4505 64.9035 2.0997 77.2756 10.6105C85.1031 15.9922 92.6229 25.5264 94.6311 42.4195C94.6311 42.4195 119.64 78.6112 58.3212 79.9314Z" fill="url(#paint9_linear_11101_32654)" fill-opacity="0.2"/>
<path d="M88.3214 24.3035C85.1515 19.1029 81.2467 15.3542 77.3174 12.6528C74.5063 10.7187 71.214 9.16583 68.0698 8.14296C68.2973 7.86297 68.5093 7.56516 68.7016 7.24672C71.5132 8.23301 74.2272 9.59918 76.7696 11.3471C81.6186 14.6817 85.476 19.0128 88.3214 24.3035Z" fill="#ECEDF1"/>
<path d="M25.3394 26.7723C27.984 20.8512 31.8349 15.9742 36.8677 12.1899C41.6678 8.5805 47.1822 6.38937 52.8528 5.62725C52.7956 5.66102 52.7412 5.69338 52.6892 5.72387C52.7023 5.72715 52.7154 5.73043 52.7281 5.73418C53.2126 5.86784 53.6351 6.1469 53.9456 6.5235C53.984 6.57087 54.0211 6.61917 54.0563 6.66935C47.7769 7.27717 41.6373 9.5607 36.3752 13.5171C32.3231 16.5628 28.355 20.8545 25.3394 26.7723Z" fill="#ECEDF1"/>
<path d="M47.0451 78.8013C40.5153 78.3407 34.9892 77.2953 30.5408 75.6745C24.9354 73.632 20.9958 70.6591 18.8319 66.8387C14.9411 59.9693 17.6073 51.7516 19.5565 47.4416C18.6715 53.7345 19.4903 66.8213 40.0862 71.1534C40.188 71.175 40.2888 71.1853 40.3873 71.1853C41.2197 71.1848 41.9092 70.4588 41.8247 69.5865C40.4975 55.8759 47.1333 49.3283 47.1872 49.2749C47.1872 49.2758 47.1863 49.2772 47.1853 49.28C45.5743 52.9086 44.8052 56.8707 44.4802 60.4524C44.1097 63.582 44.0182 67.1168 44.5632 70.7078C44.6462 71.4817 44.7151 71.9211 44.7166 71.9296C44.7363 71.9324 44.7555 71.9347 44.7747 71.9371C45.2207 74.2483 45.9458 76.5665 47.0451 78.8013ZM68.3215 78.4462C68.1667 76.8535 68.1376 74.7829 68.5095 72.4169C68.5405 72.2218 68.5724 72.0182 68.6057 71.8086C68.6136 71.7823 70.5412 65.116 69.4016 58.1628C69.0615 55.2034 68.2112 52.4406 66.4783 50.4281C66.3981 50.3095 66.3165 50.1913 66.233 50.0745C66.233 50.0745 70.0896 50.4689 71.4539 59.5664C72.026 63.3798 71.9397 66.6084 71.6865 68.9632C71.5688 70.055 72.4284 70.9672 73.4715 70.9672C73.5948 70.9672 73.7205 70.9545 73.8476 70.9278C96.1173 66.2468 96.848 52.8214 95.7402 46.2006C97.8526 50.5139 100.598 58.3532 97.1022 65.1831C95.1019 69.0912 91.2918 72.2279 85.7774 74.5058C81.1573 76.4146 75.3104 77.7324 68.3215 78.4462Z" fill="#9D9FE6"/>
<path d="M58.242 79.0421C69.822 78.7968 79.086 77.2712 85.7766 74.5069C91.2911 72.229 95.1011 69.0924 97.1014 65.1843C102.213 55.1966 93.9793 43.0501 93.8954 42.9287C93.8133 42.8091 93.7608 42.6707 93.7439 42.5267C92.0682 28.4302 86.3572 17.9393 76.7691 11.3462C64.6546 3.01594 48.6197 3.35503 36.8686 12.1904C27.568 19.1835 22.3059 29.9061 21.2282 44.0608C21.2169 44.2057 21.1705 44.346 21.0931 44.4693C21.0148 44.5936 13.3017 57.0777 18.8311 66.8398C20.9951 70.6602 24.9346 73.6332 30.54 75.6756C37.3423 78.1543 46.6621 79.2864 58.242 79.0421ZM55.1795 80.8608C34.9556 80.8608 22.2116 76.4429 17.2727 67.7117C11.5463 57.5885 18.4194 45.4448 19.4643 43.7095C20.6199 29.1262 26.1137 18.0425 35.7956 10.7632C41.8353 6.22198 49.0451 3.73679 56.6456 3.57593C64.2475 3.41084 71.5544 5.59353 77.7808 9.87497C87.7619 16.7382 93.7195 27.5795 95.4909 42.1014C96.6085 43.7907 103.989 55.6328 98.6955 65.9891C93.9015 75.3689 80.3039 80.3614 58.28 80.8271C57.2285 80.8496 56.193 80.8608 55.1795 80.8608Z" fill="#371B45"/>
<path d="M52.6909 5.7247C55.4805 4.08041 65.5924 -1.99258 68.2479 3.19214C69.6164 5.86587 66.7968 9.252 62.3902 10.9408C62.3902 10.9408 67.7484 15.779 64.5804 18.5249C61.4123 21.2714 56.902 15.6805 56.902 15.6805L54.3943 7.36149C54.1514 6.55576 53.5056 5.93481 52.6909 5.7247Z" fill="#9D9FE6"/>
<path d="M54.058 6.67041C54.0271 6.62586 53.9943 6.58271 53.9605 6.5405C53.9947 6.58271 54.0271 6.62586 54.0585 6.67041H54.058ZM52.7205 5.73289C52.7106 5.73008 52.7008 5.72727 52.6909 5.72492C52.743 5.69444 52.7979 5.66208 52.8546 5.62831H52.8551C52.7978 5.66208 52.7435 5.69397 52.6914 5.72492C52.7012 5.72727 52.7106 5.73008 52.7205 5.73289Z" fill="#ECEDF1"/>
<path d="M52.8545 5.62872C52.9112 5.59542 52.9699 5.56071 53.0313 5.5246C52.9703 5.56071 52.9112 5.59542 52.855 5.62872H52.8545ZM53.8933 5.02231C54.14 4.88068 54.4055 4.72967 54.6873 4.57302H54.6878C54.4059 4.72967 54.1405 4.88068 53.8933 5.02231Z" fill="#C3BAC7"/>
<path d="M55.8506 3.94531C56.0565 3.83744 56.267 3.72911 56.4823 3.62077C56.4828 3.62077 56.4837 3.6203 56.4842 3.61983C56.2685 3.72864 56.0569 3.83744 55.8506 3.94531Z" fill="#C3BAC7"/>
<path d="M54.058 6.67041C54.0266 6.62586 53.9942 6.58271 53.96 6.5405C53.6467 6.15218 53.2152 5.86609 52.72 5.73289C52.7101 5.73008 52.7008 5.72727 52.6909 5.72492C52.743 5.69397 52.7974 5.66208 52.8546 5.62831C52.9109 5.59501 52.97 5.5603 53.0309 5.52419C53.2814 5.37646 53.5712 5.20715 53.8929 5.0219C54.1401 4.88026 54.4056 4.72925 54.6874 4.57261H54.6893C54.7653 4.52993 54.8436 4.48772 54.9214 4.44504C54.9266 4.44269 54.9318 4.43988 54.9369 4.43707C55.0199 4.39205 55.1029 4.34421 55.1888 4.29918C55.4022 4.18287 55.6231 4.06468 55.8501 3.94556C56.0564 3.83769 56.2679 3.72888 56.4837 3.62008C57.3208 3.25848 58.1678 2.9255 59.0247 2.63848C60.1113 2.27642 61.2163 1.98283 62.3161 1.82712C62.7921 1.76146 63.2709 1.7216 63.7381 1.7216C64.3431 1.7216 64.9288 1.7882 65.4625 1.95094C65.932 2.09492 66.3532 2.31206 66.6951 2.61269C66.8658 2.76323 67.0248 2.92691 67.1575 3.11685C67.2283 3.20784 67.2874 3.31008 67.3493 3.40997C67.406 3.51456 67.4661 3.61961 67.505 3.71482C67.5993 3.92305 67.6584 4.13926 67.6837 4.3625C66.8887 3.51643 65.7702 3.18063 64.4922 3.18063C61.395 3.18063 57.3621 5.15228 54.7329 6.6132C54.5087 6.63055 54.2822 6.65071 54.058 6.67041Z" fill="#EBEAF2"/>
<path d="M51.9281 4.16922C52.9866 3.53608 54.0395 2.98408 55.1323 2.46021C56.2213 1.93869 57.3394 1.47252 58.4903 1.06918C59.6421 0.669598 60.8291 0.335663 62.071 0.143375C63.3092 -0.0367184 64.6261 -0.101908 65.9632 0.279385C66.625 0.47167 67.2876 0.79388 67.842 1.2685C68.1187 1.50347 68.3748 1.76751 68.5868 2.05876C68.6974 2.20086 68.7917 2.35328 68.886 2.50382C68.9732 2.65718 69.0614 2.80867 69.1378 2.98642C69.2907 3.33066 69.4033 3.70023 69.4534 4.0787C69.5036 4.45671 69.4999 4.83754 69.452 5.20429C69.3517 5.94014 69.0797 6.60892 68.734 7.19516C68.0352 8.37187 67.0719 9.26952 66.0434 10.0143C65.0093 10.7576 63.8799 11.3293 62.7112 11.7749L62.9903 10.2783L62.9912 10.2793C63.3218 10.5574 63.5957 10.8191 63.8776 11.108C64.1534 11.3945 64.423 11.6891 64.6758 12.0014C65.1795 12.6275 65.6513 13.3 66.0148 14.0776C66.1982 14.4646 66.3543 14.8796 66.4641 15.327C66.5677 15.7754 66.6179 16.2627 66.5696 16.7678C66.5241 17.2715 66.3609 17.7874 66.1016 18.2334C65.8436 18.6827 65.4942 19.0471 65.1246 19.3402C64.7537 19.6385 64.3105 19.8856 63.833 20.0367C63.3551 20.1853 62.85 20.244 62.3754 20.2003C61.4187 20.1197 60.6035 19.7562 59.8897 19.3369C59.1736 18.9134 58.5475 18.3994 58.025 17.8014C57.5068 17.2002 57.0617 16.5459 56.7883 15.774C56.7592 15.6919 56.8019 15.6019 56.884 15.5728C56.928 15.5573 56.9749 15.5625 57.0129 15.5836L57.0195 15.5873C58.3815 16.3494 59.5202 17.2255 60.7091 17.8587C61.3033 18.1583 61.9233 18.3572 62.4715 18.3572C63.0198 18.3628 63.4771 18.1949 63.8898 17.8338C64.3109 17.46 64.5332 17.0642 64.5726 16.583C64.6106 16.0985 64.4591 15.5081 64.1928 14.9246C63.6506 13.7597 62.7272 12.5961 61.7934 11.6037C61.4271 11.2768 61.3947 10.714 61.7221 10.3473C61.8182 10.2394 61.935 10.1606 62.0612 10.1114L62.0724 10.1071C63.1122 9.70522 64.1004 9.17854 64.9914 8.54586C65.8774 7.91366 66.6737 7.1492 67.1854 6.28485C67.4419 5.85525 67.6159 5.40221 67.6769 4.96417C67.7365 4.52566 67.6839 4.10544 67.5067 3.71477C67.4677 3.61956 67.4077 3.51451 67.351 3.40992C67.289 3.31003 67.23 3.20779 67.1591 3.1168C67.0264 2.92686 66.8674 2.76318 66.6967 2.61263C66.3548 2.31201 65.9337 2.09487 65.4642 1.95089C64.5192 1.66246 63.4109 1.67606 62.3177 1.82707C61.2179 1.98278 60.113 2.27637 59.0263 2.63843C57.9387 3.00237 56.8671 3.44135 55.8114 3.91831C54.7608 4.39622 53.7065 4.92665 52.7235 5.48991L52.7066 5.49929C52.3375 5.71033 51.8667 5.5823 51.6552 5.21367C51.446 4.84832 51.5693 4.38402 51.9281 4.16922Z" fill="#371B45"/>
<path d="M62.6712 21.2711C61.9499 21.2711 61.1746 21.1501 60.3661 20.8917C56.0762 19.5218 55.4801 16.2369 55.4581 14.6335C55.4538 14.3417 55.6907 14.1377 55.9477 14.1377C56.0405 14.1377 56.1358 14.164 56.223 14.2226C56.3234 14.2902 56.4228 14.3558 56.5222 14.4196L56.8711 15.5766C56.7961 15.6094 56.7586 15.6948 56.7867 15.7731C57.0601 16.5451 57.5052 17.1993 58.0235 17.8006C58.5459 18.3985 59.172 18.9126 59.8882 19.3361C60.602 19.7553 61.4171 20.1188 62.3738 20.1995C62.4765 20.2088 62.5802 20.2135 62.6852 20.2135C63.0651 20.2135 63.4567 20.1521 63.8315 20.0358C64.3089 19.8848 64.7521 19.6376 65.1231 19.3393C65.4926 19.0462 65.842 18.6818 66.1 18.2325C66.3593 17.7865 66.5225 17.2706 66.568 16.7669C66.6163 16.2618 66.5662 15.7745 66.4625 15.3262C66.3528 14.8787 66.1966 14.4637 66.0132 14.0768C65.6498 13.2992 65.1779 12.6266 64.6742 12.0005C64.4557 11.7309 64.2249 11.4743 63.9886 11.2248C64.2953 11.0771 64.5978 10.919 64.8951 10.7493L65.359 11.3815C69.5161 16.7022 67.105 21.2711 62.6712 21.2711Z" fill="#9D9FE6"/>
<path d="M62.4951 18.3574C62.4861 18.3574 62.4777 18.3574 62.4693 18.3574C61.921 18.3574 61.301 18.1585 60.7068 17.8588C59.5179 17.2257 58.3792 16.3496 57.0172 15.5875L57.0106 15.5837C56.9872 15.5711 56.9609 15.564 56.9342 15.564C56.9164 15.564 56.899 15.5669 56.8817 15.573C56.8775 15.5744 56.8737 15.5758 56.8704 15.5776L56.5215 14.4206C58.1653 15.4806 59.6844 16.0963 60.9868 16.4453C61.2283 16.51 61.4633 16.54 61.6907 16.54C62.8416 16.54 63.7735 15.7643 64.1168 14.7714C64.1422 14.8226 64.1665 14.8737 64.1905 14.9248C64.4569 15.5082 64.6083 16.0987 64.5704 16.5832C64.531 17.0643 64.3087 17.4602 63.8875 17.834C63.4814 18.1895 63.0316 18.3574 62.4951 18.3574Z" fill="#9D9FE6"/>
<path d="M62.6857 20.2144C62.5807 20.2144 62.477 20.2097 62.3743 20.2003C61.4175 20.1197 60.6024 19.7562 59.8886 19.3369C59.1725 18.9134 58.5464 18.3994 58.0239 17.8014C57.5057 17.2002 57.0606 16.5459 56.7872 15.774C56.759 15.6957 56.7966 15.6103 56.8716 15.5775C56.8749 15.5756 56.8786 15.5742 56.8829 15.5728C56.9002 15.5667 56.9176 15.5639 56.9354 15.5639C56.9621 15.5639 56.9884 15.5709 57.0118 15.5836L57.0184 15.5873C58.3803 16.3494 59.5191 17.2255 60.708 17.8587C61.3022 18.1583 61.9222 18.3572 62.4704 18.3572C62.4789 18.3572 62.4873 18.3572 62.4962 18.3572C63.0328 18.3572 63.4825 18.1893 63.8887 17.8338C64.3098 17.46 64.5321 17.0642 64.5715 16.583C64.6095 16.0985 64.458 15.5081 64.1916 14.9246C64.1677 14.8735 64.1433 14.8224 64.118 14.7713C64.382 14.0087 64.2981 13.1171 63.6987 12.3508C63.1186 11.6103 62.621 11.1535 62.621 11.1535L64.2334 9.84779L64.8956 10.7501C64.5983 10.9199 64.2958 11.078 63.989 11.2257C64.2254 11.4752 64.4562 11.7317 64.6747 12.0014C65.1784 12.6275 65.6502 13.3 66.0137 14.0776C66.1971 14.4646 66.3532 14.8796 66.463 15.327C66.5666 15.7754 66.6168 16.2627 66.5685 16.7678C66.523 17.2715 66.3598 17.7874 66.1004 18.2334C65.8425 18.6827 65.4931 19.0471 65.1235 19.3402C64.7526 19.6385 64.3094 19.8857 63.8319 20.0367C63.4572 20.153 63.0656 20.2144 62.6857 20.2144Z" fill="#371B45"/>
<path d="M44.4766 60.4573C44.4766 60.4564 44.4766 60.454 44.477 60.4526C45.2241 54.1367 47.1067 49.466 47.1822 49.2803C47.1831 49.2784 47.1836 49.2765 47.1845 49.2747C47.1845 49.2747 47.1845 49.2751 47.1841 49.2751C47.1845 49.2746 47.1845 49.2747 47.1845 49.2747C47.1911 49.2751 47.1977 49.2751 47.2042 49.2756L47.1845 49.2747C47.1845 49.2747 45.2387 54.0096 44.4766 60.4573Z" fill="#9E9AAD"/>
<path d="M44.563 70.7086C44.0181 67.1176 44.1095 63.5828 44.48 60.4532C44.4796 60.4546 44.4796 60.4569 44.4796 60.4579C44.1095 63.5861 44.0185 67.1194 44.563 70.7086ZM47.1852 49.2808C47.1861 49.278 47.1871 49.2766 47.1871 49.2757C47.1875 49.2757 47.1875 49.2752 47.1875 49.2752C47.1866 49.2771 47.1861 49.2789 47.1852 49.2808Z" fill="#847A93"/>
<path d="M44.3522 44.8128C44.355 49.4507 41.5907 53.212 38.1788 53.2139C34.7664 53.2157 31.998 49.4577 31.9956 44.8198C31.9928 40.182 34.7566 36.4206 38.169 36.4188C41.5809 36.4164 44.3494 40.1749 44.3522 44.8128Z" fill="#371B45"/>
<path d="M41.867 42.3879C41.868 44.0453 40.9665 45.3894 39.8541 45.3904C38.7416 45.3908 37.8388 44.0476 37.8379 42.3902C37.837 40.7323 38.7384 39.3882 39.8508 39.3873C40.9633 39.3868 41.8661 40.73 41.867 42.3879Z" fill="white"/>
<path d="M36.9839 47.644C36.9849 48.7658 36.4859 49.6757 35.8696 49.6757C35.2533 49.6761 34.7534 48.7672 34.7529 47.6454C34.752 46.5236 35.251 45.6137 35.8673 45.6132C36.4835 45.6128 36.9835 46.5222 36.9839 47.644Z" fill="white"/>
<path d="M69.1875 44.8128C69.1847 49.4507 71.9489 53.212 75.3609 53.2139C78.7733 53.2157 81.5413 49.4577 81.5441 44.8198C81.5469 40.182 78.7826 36.4206 75.3707 36.4188C71.9583 36.4164 69.1903 40.1749 69.1875 44.8128Z" fill="#371B45"/>
<path d="M71.6753 42.3879C71.6744 44.0453 72.5758 45.3894 73.6882 45.3904C74.8007 45.3908 75.703 44.0476 75.7039 42.3902C75.7049 40.7323 74.8039 39.3882 73.6915 39.3873C72.579 39.3868 71.6762 40.73 71.6753 42.3879Z" fill="white"/>
<path d="M76.5566 47.644C76.5557 48.7658 77.0547 49.6757 77.671 49.6757C78.2872 49.6761 78.7872 48.7672 78.7876 47.6454C78.7886 46.5236 78.2896 45.6137 77.6733 45.6132C77.0571 45.6128 76.5571 46.5222 76.5566 47.644Z" fill="white"/>
<path d="M70.5754 83.09C69.916 82.6688 69.4488 82.009 69.2959 81.2412C68.977 79.6452 68.6211 76.7417 69.1839 73.1619C70.052 67.6484 71.9439 56.2903 66.9088 50.9011L47.862 50.0194C47.862 50.0194 36.4139 77.8771 58.1742 90.463C58.7056 90.7707 59.1418 91.2303 59.3805 91.7959C59.7927 92.7742 60.9263 94.2408 63.9574 93.6128C66.8515 93.0134 67.4641 91.4381 67.5433 90.4255C67.5776 89.9837 67.9542 89.6446 68.395 89.6897C69.5778 89.8107 71.5874 89.6535 72.4391 87.446C73.2833 85.2577 71.6878 83.8005 70.5754 83.09Z" fill="url(#paint10_linear_11101_32654)"/>
<path d="M70.5754 83.09C69.916 82.6688 69.4488 82.009 69.2959 81.2412C68.977 79.6452 68.6211 76.7417 69.1839 73.1619C70.052 67.6484 71.9439 56.2903 66.9088 50.9011L47.862 50.0194C47.862 50.0194 36.4139 77.8771 58.1742 90.463C58.7056 90.7707 59.1418 91.2303 59.3805 91.7959C59.7927 92.7742 60.9263 94.2408 63.9574 93.6128C66.8515 93.0134 67.4641 91.4381 67.5433 90.4255C67.5776 89.9837 67.9542 89.6446 68.395 89.6897C69.5778 89.8107 71.5874 89.6535 72.4391 87.446C73.2833 85.2577 71.6878 83.8005 70.5754 83.09Z" fill="url(#paint11_linear_11101_32654)" fill-opacity="0.2"/>
<path d="M62.5909 93.7642C60.5672 93.7642 59.7235 92.6105 59.3802 91.7958C59.1415 91.2302 58.7053 90.7706 58.1739 90.4629C58.1524 90.4508 58.1322 90.439 58.1111 90.4268C58.1097 90.4259 58.1106 90.4268 58.1097 90.4259C58.1041 90.4226 58.1013 90.4212 58.0961 90.4179C58.0947 90.4175 58.0947 90.417 58.0933 90.4165C58.0891 90.4142 58.0853 90.4118 58.0811 90.4095C58.0802 90.4085 58.0778 90.4071 58.0764 90.4067C58.0736 90.4048 58.0694 90.4024 58.067 90.401C58.0642 90.3996 58.0623 90.3982 58.0595 90.3968C58.0572 90.3954 58.0548 90.394 58.052 90.3926C58.0492 90.3907 58.0454 90.3884 58.0431 90.387C58.0417 90.3865 58.0389 90.3846 58.0375 90.3842C58.0337 90.3818 58.0304 90.3795 58.0262 90.3771C58.0248 90.3767 58.0239 90.3762 58.0229 90.3752C58.0187 90.3729 58.014 90.3701 58.0103 90.3677C58.0089 90.3668 58.0089 90.3673 58.0075 90.3663C58.0023 90.3631 57.9985 90.3612 57.9934 90.3579C57.992 90.3574 57.9943 90.3584 57.9929 90.3579C49.7133 85.4954 46.3061 78.4023 45.2466 71.5147C45.2466 71.5138 45.2461 71.5123 45.2461 71.5114C45.2457 71.5081 45.2452 71.5053 45.2447 71.502C45.2447 71.5006 45.2443 71.4978 45.2438 71.4969C45.2438 71.4945 45.2433 71.4917 45.2429 71.4898C45.2424 71.4865 45.2419 71.4837 45.2415 71.4804C45.2415 71.4795 45.241 71.4781 45.241 71.4772C45.2396 71.4683 45.2386 71.4617 45.2372 71.4528C44.6927 67.8636 44.7837 64.3302 45.1538 61.202C45.9159 54.7543 47.8617 50.0193 47.8617 50.0193L47.8814 50.0203C48.5877 50.0658 49.0661 50.7613 48.8518 51.4394C46.6902 58.282 41.8966 79.2193 59.9392 89.6582C60.4729 89.9672 60.9105 90.4292 61.1506 90.9971C61.4954 91.8113 62.3391 92.9613 64.36 92.9613C64.7661 92.9613 65.2201 92.9148 65.7266 92.8098C65.9015 92.7737 66.0676 92.7333 66.2266 92.6902C65.7351 93.0457 65.0719 93.3557 64.1686 93.5663C64.0997 93.5827 64.0293 93.5982 63.9571 93.6127C63.4506 93.7178 62.9971 93.7642 62.5909 93.7642Z" fill="#9D9FE6"/>
<path d="M50.9322 59.0806C52.0104 58.4695 53.1697 58.0967 54.3633 57.8359C55.5578 57.585 56.7899 57.4771 58.0261 57.5329C59.2601 57.5883 60.5048 57.8092 61.6726 58.2603C62.8394 58.7017 63.9331 59.3747 64.7759 60.2798C64.8636 60.3736 64.8584 60.5209 64.7642 60.6081C64.7009 60.6677 64.6122 60.6841 64.5348 60.6592L64.5245 60.656C63.9552 60.4721 63.421 60.2756 62.8727 60.1265C62.3263 59.9768 61.7879 59.8352 61.2406 59.7325C60.1507 59.5168 59.0509 59.3864 57.9361 59.3231C55.7051 59.196 53.431 59.3615 51.0897 59.5458L51.0752 59.5473C50.9373 59.558 50.8173 59.4553 50.8065 59.3179C50.7985 59.218 50.8506 59.127 50.9322 59.0806Z" fill="#371B45"/>
<path d="M52.7013 72.5018C53.545 71.8077 54.4952 71.3078 55.4922 70.8998C56.4912 70.5002 57.545 70.2197 58.6275 70.0804C59.7071 69.9407 60.8219 69.944 61.9048 70.1583C62.9849 70.3642 64.0373 70.7825 64.9068 71.441C64.9973 71.509 65.0152 71.6375 64.9467 71.728C64.8993 71.7904 64.8229 71.8181 64.7506 71.8068L64.7455 71.8059C63.7109 71.638 62.7358 71.5202 61.7528 71.5024C60.7736 71.4809 59.799 71.5343 58.8212 71.6487C56.8645 71.8781 54.9135 72.3644 52.9086 72.8817L52.8964 72.885C52.7787 72.9155 52.6581 72.8447 52.6281 72.727C52.6061 72.6416 52.6375 72.5544 52.7013 72.5018Z" fill="#371B45"/>
<path d="M56.738 82.8746C57.2459 82.2185 57.8697 81.6946 58.538 81.2228C59.2114 80.7604 59.9464 80.3796 60.7221 80.0916C61.4973 79.8008 62.3288 79.6367 63.1627 79.6024C63.3728 79.601 63.5825 79.6062 63.7898 79.6114C63.998 79.6203 64.2067 79.6629 64.4121 79.6925L64.7179 79.7483C64.8192 79.7713 64.9196 79.8036 65.0185 79.836C65.2164 79.9012 65.412 79.9678 65.601 80.0466C65.6798 80.0794 65.7168 80.1699 65.684 80.2487C65.6615 80.3031 65.6109 80.3383 65.5555 80.343L65.5424 80.3439C64.7451 80.4143 64.0074 80.4659 63.2748 80.623C62.5479 80.7838 61.8327 80.9658 61.1282 81.2209C60.4247 81.4737 59.7297 81.7654 59.0379 82.089C58.3447 82.408 57.6549 82.7653 56.9551 83.1218L56.9462 83.126C56.8637 83.1682 56.7628 83.1354 56.7211 83.0528C56.6911 82.9933 56.7 82.9243 56.738 82.8746Z" fill="#371B45"/>
<path d="M48.1152 50.1213C47.6752 52.2154 47.232 54.293 46.8494 56.3688C46.4606 58.4426 46.1018 60.5217 45.9498 62.6186C45.6281 66.801 45.8696 71.0379 47.0294 75.0211C47.6101 77.0082 48.4233 78.9203 49.4701 80.694L49.864 81.3586L49.9625 81.5246L50.0737 81.6827L50.2955 81.9988L50.7378 82.6324C50.8841 82.8444 51.0281 83.0582 51.1988 83.2514L52.1809 84.446L53.2558 85.5603L53.5245 85.8389C53.6179 85.928 53.7178 86.011 53.8139 86.0968L54.3964 86.6099L54.9784 87.123C55.174 87.2928 55.3902 87.4377 55.5947 87.5962C56.0125 87.9039 56.4201 88.2246 56.8445 88.5234L58.1615 89.3601L58.8828 89.8164C59.1703 90.0134 59.4352 90.2488 59.666 90.5213C59.8949 90.7933 60.0895 91.109 60.2293 91.4401C60.3052 91.6244 60.4037 91.7951 60.5172 91.9466C60.6316 92.0985 60.7569 92.2369 60.9055 92.3471C60.9735 92.4099 61.0584 92.4512 61.1339 92.5056C61.2188 92.5464 61.2981 92.5966 61.3886 92.6308C61.7432 92.779 62.1606 92.848 62.6061 92.8475C62.827 92.8536 63.0592 92.825 63.289 92.8048C63.5225 92.7612 63.7575 92.7345 63.9901 92.6712C64.4568 92.5633 64.9037 92.4165 65.2897 92.212C66.071 91.8059 66.5635 91.1929 66.6432 90.4233L66.6521 90.3487C66.6601 90.2798 66.6667 90.2108 66.6821 90.1428C66.7103 90.0059 66.7553 89.8722 66.8158 89.7451C66.9368 89.4914 67.1244 89.2686 67.357 89.0988C67.5915 88.9328 67.8767 88.8207 68.1702 88.7968C68.2434 88.7912 68.317 88.7874 68.3893 88.7917L68.5328 88.8015L68.7026 88.8142C69.1542 88.839 69.5946 88.7954 69.9867 88.6805C70.3759 88.5581 70.7113 88.3658 70.9833 88.0971C71.2511 87.8255 71.4626 87.4682 71.6094 87.0681C71.8978 86.2821 71.7829 85.565 71.2633 84.8995C71.0114 84.5679 70.669 84.2668 70.2896 84.0023L69.958 83.7819C69.8141 83.682 69.6748 83.5741 69.5453 83.4545C69.2832 83.2186 69.0557 82.9428 68.8676 82.6408C68.6805 82.3383 68.5356 82.0077 68.4418 81.6625C68.4174 81.5781 68.3982 81.4843 68.3804 81.4055L68.34 81.1982L68.2645 80.7836C68.1698 80.2297 68.098 79.6744 68.046 79.1182C67.9409 78.0053 67.9132 76.8877 67.9658 75.7738C67.993 75.2167 68.0338 74.6604 68.0985 74.1065C68.1562 73.5541 68.2481 72.9932 68.3283 72.4716C68.4938 71.4141 68.6547 70.3616 68.7926 69.3097C69.0763 67.2072 69.2808 65.1033 69.3362 63.0059C69.3882 60.9105 69.2696 58.8211 68.8958 56.8007C68.5145 54.7845 67.8415 52.8415 66.6291 51.1606L66.6249 51.1545C66.5006 50.9824 66.5396 50.7418 66.7121 50.6175C66.8594 50.511 67.0564 50.5246 67.1882 50.6381C68.0422 51.374 68.7405 52.297 69.278 53.2926C69.8197 54.2892 70.2146 55.3567 70.4936 56.4414C71.0513 58.6166 71.1859 60.8434 71.1751 63.035C71.161 65.2308 70.9617 67.4079 70.685 69.5601C70.5429 70.636 70.3778 71.7058 70.2099 72.768C70.1259 73.3069 70.0429 73.8054 69.989 74.3204C69.928 74.8325 69.8896 75.347 69.8638 75.862C69.8174 76.8914 69.83 77.9241 69.9182 78.9494C69.9613 79.462 70.0232 79.9722 70.1048 80.4773L70.1705 80.8549L70.2052 81.0425C70.2169 81.0945 70.223 81.133 70.2362 81.1776C70.2812 81.3511 70.3525 81.5171 70.4458 81.6719C70.5401 81.8257 70.6545 81.9697 70.791 82.0944C70.8576 82.1577 70.9307 82.2145 71.0062 82.2684L71.343 82.4968C71.8396 82.8495 72.3124 83.2655 72.712 83.7889C73.1139 84.3029 73.4277 84.952 73.5346 85.656C73.6486 86.3585 73.5421 87.0775 73.3104 87.6895C73.0867 88.2945 72.7462 88.885 72.2556 89.376C71.7641 89.8633 71.1376 90.2113 70.5016 90.4022C69.8619 90.587 69.2184 90.6371 68.5998 90.601L68.3682 90.5827L68.3105 90.5776C68.2983 90.5771 68.3109 90.5785 68.3109 90.5785C68.3161 90.5771 68.3227 90.5795 68.3288 90.5776C68.3546 90.5743 68.3818 90.5659 68.3963 90.5518C68.4137 90.5415 68.4212 90.5279 68.4277 90.5171C68.431 90.5115 68.4329 90.5058 68.4338 90.5002L68.4348 90.4932L68.4216 90.6184C68.3513 91.3026 68.0849 91.9897 67.6605 92.5413C67.237 93.0937 66.6939 93.5149 66.1315 93.808C65.5683 94.1077 64.9858 94.2962 64.4094 94.4341C64.1238 94.5115 63.8246 94.5514 63.5305 94.6044C63.2266 94.6353 62.9246 94.6714 62.6085 94.6672C61.9833 94.67 61.3192 94.579 60.6809 94.3155C60.0431 94.0575 59.4568 93.5988 59.046 93.0431C58.8382 92.7659 58.667 92.4676 58.5357 92.1572C58.4658 91.9939 58.3749 91.849 58.2585 91.7102C58.1413 91.5737 58.0015 91.4499 57.8458 91.3444L57.2047 90.9439L55.7968 90.0664C55.3409 89.7522 54.9006 89.414 54.4522 89.0881C54.2313 88.9202 54.0001 88.7663 53.7881 88.5867L53.1573 88.0417L52.527 87.4958C52.4229 87.4039 52.315 87.3157 52.2137 87.2205L51.9206 86.9232C48.6948 83.8391 46.3846 79.832 45.1403 75.5712C44.9987 75.0347 44.8486 74.4996 44.7154 73.9612L44.3824 72.3323C44.2966 71.786 44.223 71.2377 44.1442 70.6904C44.0818 70.1417 44.0406 69.5911 43.988 69.0419C43.8304 66.8414 43.8745 64.6362 44.0865 62.4549C44.1404 61.9094 44.2103 61.3663 44.2718 60.8223C44.3529 60.2811 44.4275 59.7394 44.517 59.2001C44.7023 58.1228 44.9129 57.0493 45.198 55.995C45.4738 54.9388 45.8068 53.8976 46.2045 52.8808C46.6031 51.8631 47.0421 50.867 47.6091 49.9131C47.6874 49.7822 47.8567 49.7391 47.9881 49.8169C48.0917 49.8788 48.1405 49.9989 48.117 50.111L48.1152 50.1213Z" fill="#371B45"/>
<defs>
<linearGradient id="paint0_linear_11101_32654" x1="36.5508" y1="126.654" x2="177.973" y2="-75.8596" gradientUnits="userSpaceOnUse">
<stop stop-color="#9D9FE6"/>
<stop offset="0.163505" stop-color="#CFC0FF"/>
<stop offset="1" stop-color="#8E00FF"/>
</linearGradient>
<linearGradient id="paint1_linear_11101_32654" x1="35.3427" y1="-7.41983" x2="77.0976" y2="-1.08345" gradientUnits="userSpaceOnUse">
<stop stop-color="white" stop-opacity="0"/>
<stop offset="1" stop-color="#8E00FF"/>
</linearGradient>
<linearGradient id="paint2_linear_11101_32654" x1="74.4225" y1="126.654" x2="215.84" y2="-75.8604" gradientUnits="userSpaceOnUse">
<stop stop-color="#9D9FE6"/>
<stop offset="0.163505" stop-color="#CFC0FF"/>
<stop offset="1" stop-color="#8E00FF"/>
</linearGradient>
<linearGradient id="paint3_linear_11101_32654" x1="73.2144" y1="-7.41732" x2="114.97" y2="-1.08063" gradientUnits="userSpaceOnUse">
<stop stop-color="white" stop-opacity="0"/>
<stop offset="1" stop-color="#8E00FF"/>
</linearGradient>
<linearGradient id="paint4_linear_11101_32654" x1="15.9231" y1="37.3492" x2="47.275" y2="-97.0296" gradientUnits="userSpaceOnUse">
<stop stop-color="#9D9FE6"/>
<stop offset="0.163505" stop-color="#CFC0FF"/>
<stop offset="1" stop-color="#8E00FF"/>
</linearGradient>
<linearGradient id="paint5_linear_11101_32654" x1="14.2224" y1="-25.7076" x2="64.0713" y2="-3.0653" gradientUnits="userSpaceOnUse">
<stop stop-color="white" stop-opacity="0"/>
<stop offset="1" stop-color="#8E00FF"/>
</linearGradient>
<linearGradient id="paint6_linear_11101_32654" x1="95.1339" y1="34.9667" x2="122.316" y2="-92.5528" gradientUnits="userSpaceOnUse">
<stop stop-color="#9D9FE6"/>
<stop offset="0.163505" stop-color="#CFC0FF"/>
<stop offset="1" stop-color="#8E00FF"/>
</linearGradient>
<linearGradient id="paint7_linear_11101_32654" x1="93.3825" y1="-24.3608" x2="143.036" y2="0.324853" gradientUnits="userSpaceOnUse">
<stop stop-color="white" stop-opacity="0"/>
<stop offset="1" stop-color="#8E00FF"/>
</linearGradient>
<linearGradient id="paint8_linear_11101_32654" x1="53.8919" y1="79.9656" x2="173.6" y2="-333.125" gradientUnits="userSpaceOnUse">
<stop stop-color="#9D9FE6"/>
<stop offset="0.163505" stop-color="#CFC0FF"/>
<stop offset="1" stop-color="#8E00FF"/>
</linearGradient>
<linearGradient id="paint9_linear_11101_32654" x1="49.5648" y1="-119.307" x2="184.516" y2="-69.9561" gradientUnits="userSpaceOnUse">
<stop stop-color="white" stop-opacity="0"/>
<stop offset="1" stop-color="#8E00FF"/>
</linearGradient>
<linearGradient id="paint10_linear_11101_32654" x1="57.4639" y1="93.7642" x2="161.889" y2="-112.891" gradientUnits="userSpaceOnUse">
<stop stop-color="#9D9FE6"/>
<stop offset="0.163505" stop-color="#CFC0FF"/>
<stop offset="1" stop-color="#8E00FF"/>
</linearGradient>
<linearGradient id="paint11_linear_11101_32654" x1="56.0262" y1="-21.6849" x2="104.718" y2="-11.4734" gradientUnits="userSpaceOnUse">
<stop stop-color="white" stop-opacity="0"/>
<stop offset="1" stop-color="#8E00FF"/>
</linearGradient>
</defs>
</svg>
