<svg width="90" height="90" viewBox="0 0 90 90" fill="none" xmlns="http://www.w3.org/2000/svg">
<g clip-path="url(#clip0_11354_44674)">
<rect x="0.5" y="0.5" width="89" height="89" rx="44.5" fill="white"/>
<g opacity="0.8" filter="url(#filter0_f_11354_44674)">
<path d="M82.5599 -27.4338C115.458 -61.5142 94.8137 69.2513 65.0235 89.236C35.2332 109.221 -5.16493 101.201 -25.2083 71.323C-45.2516 41.4453 -37.3502 1.02382 -7.55995 -18.9609C22.2303 -38.9455 51.4434 19.9016 82.5599 -27.4338Z" fill="#FCEBE9"/>
<path d="M82.5599 -27.4338C115.458 -61.5142 94.8137 69.2513 65.0235 89.236C35.2332 109.221 -5.16493 101.201 -25.2083 71.323C-45.2516 41.4453 -37.3502 1.02382 -7.55995 -18.9609C22.2303 -38.9455 51.4434 19.9016 82.5599 -27.4338Z" fill="url(#paint0_linear_11354_44674)" fill-opacity="0.2"/>
</g>
<g filter="url(#filter1_f_11354_44674)">
<ellipse cx="60.5" cy="58" rx="52.5" ry="31" transform="rotate(90 60.5 58)" fill="#FFF4D9"/>
</g>
<g filter="url(#filter2_f_11354_44674)">
<ellipse cx="39.5" cy="48.5" rx="17" ry="10" fill="#FFF4D9"/>
</g>
<g opacity="0.5" filter="url(#filter3_d_11354_44674)">
</g>
<g clip-path="url(#clip1_11354_44674)">
<path d="M45.3062 75.3715L45.5722 75.3865L48.5878 75.5577L48.9288 75.5772L49.8711 75.6304L50.1301 75.6451L50.5767 75.6703C50.6774 74.1479 50.3944 73.2677 50.3944 73.2677H50.3896C50.1199 71.5759 49.5146 69.7293 48.2991 68.6113C44.5948 69.3124 36.2094 72.7772 36.0369 72.7772C36.0369 72.7772 35.083 71.0251 33.6311 71.6007C32.1793 72.1763 32.605 72.802 31.2537 73.6783C29.9025 74.5546 28.3003 74.7045 28.3003 75.5803C28.3003 75.7577 30.7278 75.6553 32.605 75.43C34.4821 75.2047 35.7584 74.83 35.7584 74.83L36.4955 74.8717L37.5948 74.9342L45.3062 75.3715Z" fill="#F2986B"/>
<path d="M45.3062 75.3715L45.5722 75.3865L48.5878 75.5577L48.9288 75.5772L49.8711 75.6304L50.1301 75.6451L50.5767 75.6703C50.6774 74.1479 50.3944 73.2677 50.3944 73.2677H50.3896C50.1199 71.5759 49.5146 69.7293 48.2991 68.6113C44.5948 69.3124 36.2094 72.7772 36.0369 72.7772C36.0369 72.7772 35.083 71.0251 33.6311 71.6007C32.1793 72.1763 32.605 72.802 31.2537 73.6783C29.9025 74.5546 28.3003 74.7045 28.3003 75.5803C28.3003 75.7577 30.7278 75.6553 32.605 75.43C34.4821 75.2047 35.7584 74.83 35.7584 74.83L36.4955 74.8717L37.5948 74.9342L45.3062 75.3715Z" fill="url(#paint1_linear_11354_44674)"/>
<path d="M48.8207 70.3065C48.8207 70.3065 48.3773 68.9428 47.5107 68.6142C49.1218 68.1069 51.1808 67.8639 51.1808 67.8639C51.1808 67.8639 51.5387 65.8989 51.3582 63.3033C51.1777 60.7077 51.0899 58.768 51.2252 58.7232C51.3604 58.6785 53.5973 61.1849 53.5973 61.1849C53.5973 61.1849 53.9551 64.9441 53.7746 66.9433C53.5941 68.9424 53.6256 70.3136 53.148 71.0311C52.6704 71.7486 51.9356 71.9859 51.4079 71.5681C50.8802 71.1504 48.8207 70.3065 48.8207 70.3065Z" fill="#026B53"/>
<path d="M48.8207 70.3065C48.8207 70.3065 48.3773 68.9428 47.5107 68.6142C49.1218 68.1069 51.1808 67.8639 51.1808 67.8639C51.1808 67.8639 51.5387 65.8989 51.3582 63.3033C51.1777 60.7077 51.0899 58.768 51.2252 58.7232C51.3604 58.6785 53.5973 61.1849 53.5973 61.1849C53.5973 61.1849 53.9551 64.9441 53.7746 66.9433C53.5941 68.9424 53.6256 70.3136 53.148 71.0311C52.6704 71.7486 51.9356 71.9859 51.4079 71.5681C50.8802 71.1504 48.8207 70.3065 48.8207 70.3065Z" fill="url(#paint2_linear_11354_44674)"/>
<path d="M48.21 48.1993L43.8375 46.256L43.8202 46.2485L43.2171 45.9802L42.3084 45.5766L41.7652 45.335C40.3018 50.5793 38.9763 56.8769 38.2366 60.6025L37.4676 63.9284C37.0445 64.2335 35.7505 65.1342 34.9736 65.3032C34.037 65.508 33.1722 65.7714 33.817 65.9515C34.3647 66.1045 35.4135 65.8025 35.4135 65.8025C35.4135 65.8025 34.1643 66.4801 33.9997 66.7994C33.8352 67.1187 35.9856 66.3142 35.9856 66.3142C35.9856 66.3142 34.8237 67.6624 35.1523 67.7169C35.4809 67.7715 36.6312 66.7493 36.6312 66.7493C36.6312 66.7493 36.0991 67.579 36.3208 67.822C36.5425 68.065 36.9918 67.1652 37.2596 66.8774C37.5275 66.5896 38.7483 65.4584 38.9891 64.8876C39.0079 64.8346 39.0106 64.7772 38.9967 64.7227L48.21 48.1993Z" fill="#F2986B"/>
<path d="M48.21 48.1993L43.8375 46.256L43.8202 46.2485L43.2171 45.9802L42.3084 45.5766L41.7652 45.335C40.3018 50.5793 38.9763 56.8769 38.2366 60.6025L37.4676 63.9284C37.0445 64.2335 35.7505 65.1342 34.9736 65.3032C34.037 65.508 33.1722 65.7714 33.817 65.9515C34.3647 66.1045 35.4135 65.8025 35.4135 65.8025C35.4135 65.8025 34.1643 66.4801 33.9997 66.7994C33.8352 67.1187 35.9856 66.3142 35.9856 66.3142C35.9856 66.3142 34.8237 67.6624 35.1523 67.7169C35.4809 67.7715 36.6312 66.7493 36.6312 66.7493C36.6312 66.7493 36.0991 67.579 36.3208 67.822C36.5425 68.065 36.9918 67.1652 37.2596 66.8774C37.5275 66.5896 38.7483 65.4584 38.9891 64.8876C39.0079 64.8346 39.0106 64.7772 38.9967 64.7227L48.21 48.1993Z" fill="url(#paint3_linear_11354_44674)"/>
<path d="M29.37 20.4264C29.37 20.4264 27.8782 17.9789 24.4768 19.3537C21.0755 20.7284 20.8364 24.963 20.8364 24.963C20.8364 24.963 18.6289 21.5018 17.0174 22.5759C15.4058 23.6499 17.9127 28.7001 17.9127 28.7001C17.9127 28.7001 11.8856 28.0411 10.8116 30.8872C9.73749 33.7334 17.2564 33.1968 17.2564 33.1968C17.2564 33.1968 12.1841 34.6886 13.6776 35.6433C15.1712 36.5981 18.0338 36.5383 18.0338 36.5383C18.0338 36.5383 13.4967 41.9702 17.314 45.4895C21.1314 49.0088 26.0281 44.4749 26.0281 44.4749C26.0281 44.4749 25.193 49.7259 27.1026 49.486C29.0121 49.2461 29.37 45.3685 29.37 45.3685C29.37 45.3685 30.1638 51.5148 34.0037 50.9778C37.8436 50.4408 35.994 45.4292 35.994 45.4292C35.994 45.4292 37.4392 49.7853 42.025 47.6372C46.6109 45.4891 47.6912 36.5981 47.6912 36.5981V29.0211L29.37 20.4264Z" fill="#9F647F"/>
<path d="M29.37 20.4264C29.37 20.4264 27.8782 17.9789 24.4768 19.3537C21.0755 20.7284 20.8364 24.963 20.8364 24.963C20.8364 24.963 18.6289 21.5018 17.0174 22.5759C15.4058 23.6499 17.9127 28.7001 17.9127 28.7001C17.9127 28.7001 11.8856 28.0411 10.8116 30.8872C9.73749 33.7334 17.2564 33.1968 17.2564 33.1968C17.2564 33.1968 12.1841 34.6886 13.6776 35.6433C15.1712 36.5981 18.0338 36.5383 18.0338 36.5383C18.0338 36.5383 13.4967 41.9702 17.314 45.4895C21.1314 49.0088 26.0281 44.4749 26.0281 44.4749C26.0281 44.4749 25.193 49.7259 27.1026 49.486C29.0121 49.2461 29.37 45.3685 29.37 45.3685C29.37 45.3685 30.1638 51.5148 34.0037 50.9778C37.8436 50.4408 35.994 45.4292 35.994 45.4292C35.994 45.4292 37.4392 49.7853 42.025 47.6372C46.6109 45.4891 47.6912 36.5981 47.6912 36.5981V29.0211L29.37 20.4264Z" fill="url(#paint4_linear_11354_44674)"/>
<path d="M52.3266 77.2821L37.5083 76.4421C37.5083 76.4421 37.6147 74.3898 37.7868 74.3898C37.9589 74.3898 46.3456 70.925 50.049 70.2244C51.9008 71.9259 52.3514 75.3299 52.3266 77.2821Z" fill="#FDB082"/>
<path d="M52.3266 77.2821L37.5083 76.4421C37.5083 76.4421 37.6147 74.3898 37.7868 74.3898C37.9589 74.3898 46.3456 70.925 50.049 70.2244C51.9008 71.9259 52.3514 75.3299 52.3266 77.2821Z" fill="url(#paint5_linear_11354_44674)"/>
<path d="M37.9575 75.2904L37.7855 74.3893C37.7855 74.3893 36.8316 72.6372 35.3797 73.2128C33.9278 73.7884 34.3535 74.4141 33.0018 75.2904C31.6502 76.1667 30.0488 76.3166 30.0488 77.1924C30.0488 77.3698 32.4763 77.2678 34.3535 77.0425C36.2307 76.8172 37.507 76.4416 37.507 76.4416L37.9575 75.2904Z" fill="#FDB082"/>
<path d="M37.9575 75.2904L37.7855 74.3893C37.7855 74.3893 36.8316 72.6372 35.3797 73.2128C33.9278 73.7884 34.3535 74.4141 33.0018 75.2904C31.6502 76.1667 30.0488 76.3166 30.0488 77.1924C30.0488 77.3698 32.4763 77.2678 34.3535 77.0425C36.2307 76.8172 37.507 76.4416 37.507 76.4416L37.9575 75.2904Z" fill="url(#paint6_linear_11354_44674)"/>
<path d="M37.5083 76.4417L52.1425 74.8789C52.1425 74.8789 52.4255 75.7592 52.3248 77.2816L37.5083 76.4417Z" fill="#F2986B"/>
<path d="M37.5083 76.4417L52.1425 74.8789C52.1425 74.8789 52.4255 75.7592 52.3248 77.2816L37.5083 76.4417Z" fill="url(#paint7_linear_11354_44674)"/>
<path d="M67.0512 55.3047C67.0512 55.3047 63.0264 74.0982 61.057 75.9652C59.0876 77.8321 50.2933 77.3842 50.2933 77.3842C50.2933 77.3842 49.8383 73.1771 48.5256 70.4321C50.5545 69.8951 51.927 69.8352 51.927 69.8352C51.927 69.8352 52.1044 65.5984 51.8077 63.5101C51.511 61.4219 50.4946 56.707 52.6432 53.9619C54.7917 51.2169 67.0512 55.3047 67.0512 55.3047Z" fill="#008E62"/>
<path d="M67.0512 55.3047C67.0512 55.3047 63.0264 74.0982 61.057 75.9652C59.0876 77.8321 50.2933 77.3842 50.2933 77.3842C50.2933 77.3842 49.8383 73.1771 48.5256 70.4321C50.5545 69.8951 51.927 69.8352 51.927 69.8352C51.927 69.8352 52.1044 65.5984 51.8077 63.5101C51.511 61.4219 50.4946 56.707 52.6432 53.9619C54.7917 51.2169 67.0512 55.3047 67.0512 55.3047Z" fill="url(#paint8_linear_11354_44674)"/>
<path d="M66.6903 55.7039C66.6903 55.7039 64.0646 56.538 60.6034 56.9855C57.1422 57.4329 55.0237 58.5376 54.6659 60.6555C54.308 62.7735 55.4415 65.1593 55.0237 65.3243C54.606 65.4893 54.2481 64.9802 54.2481 65.3243C54.2481 65.6684 53.4428 68.8011 54.0707 70.4716C54.6987 72.1421 55.8606 73.9306 55.2339 73.3958C54.6073 72.8609 53.1457 69.5767 53.2947 70.6809C53.4437 71.7851 54.1302 73.6343 53.414 72.6796C52.6978 71.7248 52.316 70.8614 52.194 71.2476C52.0721 71.6339 52.2503 72.0232 52.0118 72.1128C51.7732 72.2024 49.2774 72.9239 49.2774 72.9239C49.2774 72.9239 48.6401 70.9195 48.3718 70.4121C49.5652 69.8152 51.7732 69.8152 51.7732 69.8152C51.7732 69.8152 51.8432 65.2401 51.7408 64.3119C51.6384 63.3837 51.1466 61.2077 51.0721 58.7012C50.9976 56.1948 52.0863 53.9562 52.0863 53.9562L66.8979 55.2839L66.8092 55.703L66.6903 55.7039Z" fill="#017A5F"/>
<path d="M66.6903 55.7039C66.6903 55.7039 64.0646 56.538 60.6034 56.9855C57.1422 57.4329 55.0237 58.5376 54.6659 60.6555C54.308 62.7735 55.4415 65.1593 55.0237 65.3243C54.606 65.4893 54.2481 64.9802 54.2481 65.3243C54.2481 65.6684 53.4428 68.8011 54.0707 70.4716C54.6987 72.1421 55.8606 73.9306 55.2339 73.3958C54.6073 72.8609 53.1457 69.5767 53.2947 70.6809C53.4437 71.7851 54.1302 73.6343 53.414 72.6796C52.6978 71.7248 52.316 70.8614 52.194 71.2476C52.0721 71.6339 52.2503 72.0232 52.0118 72.1128C51.7732 72.2024 49.2774 72.9239 49.2774 72.9239C49.2774 72.9239 48.6401 70.9195 48.3718 70.4121C49.5652 69.8152 51.7732 69.8152 51.7732 69.8152C51.7732 69.8152 51.8432 65.2401 51.7408 64.3119C51.6384 63.3837 51.1466 61.2077 51.0721 58.7012C50.9976 56.1948 52.0863 53.9562 52.0863 53.9562L66.8979 55.2839L66.8092 55.703L66.6903 55.7039Z" fill="url(#paint9_linear_11354_44674)"/>
<path d="M38.9182 65.3447C38.9182 65.3447 37.2105 66.6241 36.2739 66.8294C35.3373 67.0348 34.4725 67.2977 35.1173 67.4778C35.665 67.6308 36.7138 67.3288 36.7138 67.3288C36.7138 67.3288 35.4641 68.0064 35.2996 68.3261C35.1351 68.6459 37.2854 67.8405 37.2854 67.8405C37.2854 67.8405 36.124 69.1891 36.4521 69.2432C36.7803 69.2973 37.9311 68.276 37.9311 68.276C37.9311 68.276 37.3989 69.1053 37.6207 69.3483C37.8424 69.5913 38.2916 68.6915 38.5599 68.4037C38.8282 68.1159 40.0482 66.9846 40.2872 66.4139C40.5262 65.8432 38.9182 65.3447 38.9182 65.3447Z" fill="#FDB082"/>
<path d="M38.9182 65.3447C38.9182 65.3447 37.2105 66.6241 36.2739 66.8294C35.3373 67.0348 34.4725 67.2977 35.1173 67.4778C35.665 67.6308 36.7138 67.3288 36.7138 67.3288C36.7138 67.3288 35.4641 68.0064 35.2996 68.3261C35.1351 68.6459 37.2854 67.8405 37.2854 67.8405C37.2854 67.8405 36.124 69.1891 36.4521 69.2432C36.7803 69.2973 37.9311 68.276 37.9311 68.276C37.9311 68.276 37.3989 69.1053 37.6207 69.3483C37.8424 69.5913 38.2916 68.6915 38.5599 68.4037C38.8282 68.1159 40.0482 66.9846 40.2872 66.4139C40.5262 65.8432 38.9182 65.3447 38.9182 65.3447Z" fill="url(#paint10_linear_11354_44674)"/>
<path d="M43.0663 46.8623L38.6685 65.8881L40.2485 66.3356L49.5111 49.7262L43.0663 46.8623Z" fill="#FDB082"/>
<path d="M43.0663 46.8623L38.6685 65.8881L40.2485 66.3356L49.5111 49.7262L43.0663 46.8623Z" fill="url(#paint11_linear_11354_44674)"/>
<path d="M44.1944 21.7038C43.7 18.0004 42.5842 16.0403 41.5208 14.9995C41.4419 14.9818 41.366 14.9596 41.2853 14.9436C34.5722 13.6008 23.652 24.6111 23.652 24.6111C17.0368 34.9633 24.6356 39.3407 32.3274 40.5633C36.6955 36.4138 44.9896 27.6634 44.1944 21.7038Z" fill="#FDB082"/>
<path d="M44.1944 21.7038C43.7 18.0004 42.5842 16.0403 41.5208 14.9995C41.4419 14.9818 41.366 14.9596 41.2853 14.9436C34.5722 13.6008 23.652 24.6111 23.652 24.6111C17.0368 34.9633 24.6356 39.3407 32.3274 40.5633C36.6955 36.4138 44.9896 27.6634 44.1944 21.7038Z" fill="url(#paint12_linear_11354_44674)"/>
<path d="M47.6408 30.5627C48.3122 30.831 49.0133 31.2936 49.0133 31.2936C49.0133 31.2936 54.9641 30.5326 56.7114 28.698C55.7712 27.8922 52.1761 25.953 52.1761 25.953L48.9832 24.6102C48.9832 24.6102 48.0186 16.4891 41.521 14.999C42.5845 16.0398 43.7002 17.9999 44.1947 21.7033C44.9898 27.6652 36.6957 36.4156 32.3276 40.565C33.1702 40.6981 34.0128 40.7965 34.8412 40.8586C43.2124 41.4817 47.2829 34.4563 47.6408 30.5627ZM45.1375 47.7819L38.9179 65.343C38.9179 65.343 40.8275 54.8742 43.0652 46.8613L45.1375 47.7819Z" fill="#F2986B"/>
<path d="M47.6408 30.5627C48.3122 30.831 49.0133 31.2936 49.0133 31.2936C49.0133 31.2936 54.9641 30.5326 56.7114 28.698C55.7712 27.8922 52.1761 25.953 52.1761 25.953L48.9832 24.6102C48.9832 24.6102 48.0186 16.4891 41.521 14.999C42.5845 16.0398 43.7002 17.9999 44.1947 21.7033C44.9898 27.6652 36.6957 36.4156 32.3276 40.565C33.1702 40.6981 34.0128 40.7965 34.8412 40.8586C43.2124 41.4817 47.2829 34.4563 47.6408 30.5627ZM45.1375 47.7819L38.9179 65.343C38.9179 65.343 40.8275 54.8742 43.0652 46.8613L45.1375 47.7819Z" fill="url(#paint13_linear_11354_44674)"/>
<path d="M56.7116 28.6992C56.7116 28.6992 60.2815 30.5737 64.0997 38.1498C67.9179 45.7259 67.9782 55.0377 67.9782 55.0377C67.9782 55.0377 65.5317 56.1118 58.9675 55.5748C52.4034 55.0377 51.3901 54.2022 51.3901 54.2022C51.3901 54.2022 52.285 49.0701 51.3901 47.1605C50.2562 49.667 49.1222 51.2186 49.1222 51.2186C49.1222 51.2186 44.6601 50.3233 42.0269 48.4736C43.9297 41.611 43.5568 35.4048 47.7639 31.8247C49.6633 30.2088 53.2016 31.0638 56.7116 28.6992Z" fill="white"/>
<path d="M49.8575 30.8877C49.8575 30.8877 47.3613 34.152 46.6899 37.0163C46.0185 39.8807 45.9737 47.2204 45.7054 47.2652C45.4371 47.31 44.5408 46.9964 44.5187 47.2652C44.4965 47.5339 45.3471 48.2049 44.8996 48.4288C44.4521 48.6528 44.5187 49.7991 44.5187 49.7991C44.5187 49.7991 42.571 49.145 42.0269 48.4736C42.4703 46.725 43.8406 38.7467 44.7204 36.1511C45.6003 33.5556 47.3413 31.2043 49.8575 30.8877ZM50.5613 48.8443C50.5613 48.8443 51.971 44.0434 52.2841 42.7459C52.5972 41.4483 53.1795 38.0452 53.1795 39.1206C53.1795 40.196 53.3569 41.725 53.5821 42.2128C53.8074 42.7006 55.1702 43.1933 55.0012 43.596C54.8323 43.9986 53.8926 43.9095 54.1626 44.4465C54.4327 44.9836 56.7582 48.2505 59.2624 49.3246C61.7667 50.3987 61.6793 50.3987 59.889 50.1304C58.0988 49.8621 57.1143 49.7273 58.0092 50.757C58.9041 51.7867 60.2021 51.6519 59.1729 52.1889C58.1436 52.726 58.1884 51.5623 58.1436 52.726C58.0988 53.8896 59.2172 55.5952 59.2172 55.5952C59.2172 55.5952 54.3835 55.9056 51.3857 54.2031C51.7546 50.8692 51.9675 48.467 51.3857 47.1614C51.0309 47.9814 50.5613 48.8443 50.5613 48.8443Z" fill="#FC939F"/>
<path d="M49.8575 30.8877C49.8575 30.8877 47.3613 34.152 46.6899 37.0163C46.0185 39.8807 45.9737 47.2204 45.7054 47.2652C45.4371 47.31 44.5408 46.9964 44.5187 47.2652C44.4965 47.5339 45.3471 48.2049 44.8996 48.4288C44.4521 48.6528 44.5187 49.7991 44.5187 49.7991C44.5187 49.7991 42.571 49.145 42.0269 48.4736C42.4703 46.725 43.8406 38.7467 44.7204 36.1511C45.6003 33.5556 47.3413 31.2043 49.8575 30.8877ZM50.5613 48.8443C50.5613 48.8443 51.971 44.0434 52.2841 42.7459C52.5972 41.4483 53.1795 38.0452 53.1795 39.1206C53.1795 40.196 53.3569 41.725 53.5821 42.2128C53.8074 42.7006 55.1702 43.1933 55.0012 43.596C54.8323 43.9986 53.8926 43.9095 54.1626 44.4465C54.4327 44.9836 56.7582 48.2505 59.2624 49.3246C61.7667 50.3987 61.6793 50.3987 59.889 50.1304C58.0988 49.8621 57.1143 49.7273 58.0092 50.757C58.9041 51.7867 60.2021 51.6519 59.1729 52.1889C58.1436 52.726 58.1884 51.5623 58.1436 52.726C58.0988 53.8896 59.2172 55.5952 59.2172 55.5952C59.2172 55.5952 54.3835 55.9056 51.3857 54.2031C51.7546 50.8692 51.9675 48.467 51.3857 47.1614C51.0309 47.9814 50.5613 48.8443 50.5613 48.8443Z" fill="url(#paint14_linear_11354_44674)"/>
<path d="M23.2649 25.2373C23.2649 25.2373 26.7438 22.9477 26.9824 25.2373C27.221 27.5269 23.2649 28.303 23.2649 28.303C23.2649 28.303 28.0565 29.079 27.5793 30.5708C27.1021 32.0626 24.2977 32.0626 24.2977 32.0626C24.2977 32.0626 29.3088 32.719 30.8024 33.9123C32.296 35.1057 32.6011 36.8959 32.6862 37.135C32.7714 37.374 35.2778 33.9101 36.4712 34.4494C37.6645 34.9886 37.7838 37.5536 37.9031 37.3735C38.0224 37.1935 39.0969 34.3899 41.6628 32.9575C44.2286 31.5252 44.8849 32.8383 44.8849 32.8383C44.8849 32.8383 45.4233 30.2391 47.6406 30.5633C49.0131 31.2941 44.6597 39.1665 42.0273 40.896C39.3949 42.6255 26.5438 44.0569 21.1243 36.8959C15.7047 29.7349 23.2649 25.2373 23.2649 25.2373Z" fill="#9F647F"/>
<path d="M23.2649 25.2373C23.2649 25.2373 26.7438 22.9477 26.9824 25.2373C27.221 27.5269 23.2649 28.303 23.2649 28.303C23.2649 28.303 28.0565 29.079 27.5793 30.5708C27.1021 32.0626 24.2977 32.0626 24.2977 32.0626C24.2977 32.0626 29.3088 32.719 30.8024 33.9123C32.296 35.1057 32.6011 36.8959 32.6862 37.135C32.7714 37.374 35.2778 33.9101 36.4712 34.4494C37.6645 34.9886 37.7838 37.5536 37.9031 37.3735C38.0224 37.1935 39.0969 34.3899 41.6628 32.9575C44.2286 31.5252 44.8849 32.8383 44.8849 32.8383C44.8849 32.8383 45.4233 30.2391 47.6406 30.5633C49.0131 31.2941 44.6597 39.1665 42.0273 40.896C39.3949 42.6255 26.5438 44.0569 21.1243 36.8959C15.7047 29.7349 23.2649 25.2373 23.2649 25.2373Z" fill="url(#paint15_linear_11354_44674)"/>
<path d="M36.1081 25.1292C36.1081 25.1292 36.6899 27.0534 37.4061 28.7319C38.1223 30.4104 35.7502 31.1931 34.4522 29.4924C33.1542 27.7917 33.5209 25.4423 34.2992 24.7474C35.0774 24.0525 35.8845 24.4259 36.1081 25.1292ZM30.4136 18.9434C30.4136 18.9434 32.8903 19.8746 32.3275 20.7469C31.7648 21.6192 28.1439 21.1052 28.0184 20.7469C27.8929 20.3886 29.779 18.9988 30.4136 18.9434Z" fill="white"/>
<path d="M34.4717 30.8874C34.4717 30.8874 32.7116 29.5867 31.7568 28.1822C30.802 26.7778 29.638 27.9437 30.5927 28.9583C31.5475 29.9729 34.4717 30.8874 34.4717 30.8874ZM27.0721 21.0234C27.0721 21.0234 28.4149 22.3361 27.7284 23.1419C27.0419 23.9476 26.2965 22.5152 26.4455 21.5897C26.5945 20.6642 27.0721 21.0234 27.0721 21.0234Z" fill="#763150"/>
<path d="M33.0806 22.1661C33.0806 22.1661 34.2039 20.9484 34.1591 20.2322C34.1143 19.516 33.8234 18.5107 34.6735 18.5763C35.5236 18.642 35.5662 19.8295 35.5662 19.8295C35.5662 19.8295 35.6509 17.8601 34.1289 18.2925C32.6069 18.7249 33.756 19.9333 33.771 20.4557C33.7861 20.9781 33.0806 22.1661 33.0806 22.1661Z" fill="#F2986B"/>
<path d="M33.0806 22.1661C33.0806 22.1661 34.2039 20.9484 34.1591 20.2322C34.1143 19.516 33.8234 18.5107 34.6735 18.5763C35.5236 18.642 35.5662 19.8295 35.5662 19.8295C35.5662 19.8295 35.6509 17.8601 34.1289 18.2925C32.6069 18.7249 33.756 19.9333 33.771 20.4557C33.7861 20.9781 33.0806 22.1661 33.0806 22.1661Z" fill="url(#paint16_linear_11354_44674)"/>
<path d="M34.036 28.819C34.036 28.819 33.9193 27.6168 34.9043 27.0647C35.1867 26.905 35.5056 26.8211 35.83 26.8211C36.1544 26.8211 36.4733 26.905 36.7557 27.0647C36.7557 27.0647 37.5894 28.7055 37.6941 29.3773C37.7987 30.0492 36.8883 30.8691 35.7841 30.5108C34.6799 30.1525 34.2847 29.4501 34.036 28.819ZM29.1982 21.121C29.1982 21.121 29.326 19.56 31.2949 19.3516C32.145 19.7844 32.6076 20.0828 32.4732 20.6349C32.3388 21.187 31.3082 21.5321 29.1982 21.121Z" fill="#763150"/>
<path d="M35.2468 17.0248C35.2468 17.0248 38.2624 18.4882 39.0065 21.5601C40.1701 18.0093 40.3493 16.4266 39.4837 16.3982C38.618 16.3698 37.9621 17.0545 35.2468 17.0248Z" fill="#7F1B13"/>
<path d="M35.8679 17.3902C35.8679 17.3902 36.7713 16.9654 37.703 18.0399C38.6347 19.1144 38.7336 20.7206 38.7336 20.7206C38.7336 20.7206 37.6835 18.5769 35.8679 17.3902Z" fill="white"/>
<path d="M38.8601 16.4827C38.8601 16.4827 38.7058 17.3252 38.8601 17.7598C39.0144 18.1944 39.2495 18.1066 39.2495 18.1066C39.2495 18.1066 39.2375 18.755 39.775 18.9341C40.1222 17.8605 40.2339 16.951 39.9319 16.4827C39.6299 16.0144 38.8601 16.4827 38.8601 16.4827Z" fill="#B52B24"/>
<path d="M18.0322 36.5379C18.0322 36.5379 15.0486 42.835 18.4947 43.1898C21.9408 43.5446 21.1244 40.341 21.1244 40.341C21.1244 40.341 22.657 43.3774 23.4176 42.2093C24.1781 41.0412 23.7759 39.8767 23.7759 39.8767C23.7759 39.8767 27.7143 45.8603 30.489 44.2342C33.2637 42.608 30.489 38.4457 30.489 38.4457C30.489 38.4457 33.3054 42.2949 35.5671 40.1463C37.8287 37.9978 36.6536 34.553 36.6536 34.553C36.6536 34.553 37.8886 35.1339 37.9032 37.3716C39.3955 33.5898 43.9303 30.7853 44.8851 32.8363C45.3028 30.3676 46.6891 30.2642 47.6408 30.5614C48.5255 31.4638 47.2168 34.7485 43.9884 38.9357C43.7144 41.9832 42.2367 47.5317 42.2367 47.5317C42.2367 47.5317 41.7001 48.1708 39.5316 48.3158C37.3631 48.4608 36.1861 45.9654 36.1861 45.9654C36.1861 45.9654 37.1037 48.1473 36.0531 49.9153C35.0026 51.6834 32.2837 51.3712 31.1245 49.793C29.9653 48.2147 29.4393 46.4173 29.3506 45.4621C29.0154 47.8453 28.5675 49.1207 27.0797 49.6129C25.5919 50.1052 25.7147 46.8608 25.7936 45.8435C25.8726 44.8262 26.0322 44.4745 26.0322 44.4745C26.0322 44.4745 24.3617 46.6599 20.9714 46.9508C17.5812 47.2417 16.1 45.2515 15.7421 42.9344C15.3843 40.6173 16.8087 37.8842 18.0322 36.5379ZM16.6197 23.0784C16.6197 23.0784 17.1816 21.9879 18.3754 23.0784C19.5692 24.1689 19.7776 27.1228 19.8388 27.1077C19.9 27.0926 19.6446 25.6886 20.6739 25.4367C21.7031 25.1848 21.6588 26.2128 21.6588 26.2128L23.2668 25.2372L23.6535 24.6105L26.4282 22.0664C26.4282 22.0664 24.1351 23.4097 22.9714 23.7516C21.8078 24.0935 21.3089 22.8646 21.3089 22.8646C21.3089 22.8646 20.8082 23.6629 20.8379 24.9595C19.6597 22.7963 18.6601 22.1697 17.6158 22.2296C16.5714 22.2895 16.6197 23.0784 16.6197 23.0784Z" fill="#763150"/>
<path d="M18.0322 36.5379C18.0322 36.5379 15.0486 42.835 18.4947 43.1898C21.9408 43.5446 21.1244 40.341 21.1244 40.341C21.1244 40.341 22.657 43.3774 23.4176 42.2093C24.1781 41.0412 23.7759 39.8767 23.7759 39.8767C23.7759 39.8767 27.7143 45.8603 30.489 44.2342C33.2637 42.608 30.489 38.4457 30.489 38.4457C30.489 38.4457 33.3054 42.2949 35.5671 40.1463C37.8287 37.9978 36.6536 34.553 36.6536 34.553C36.6536 34.553 37.8886 35.1339 37.9032 37.3716C39.3955 33.5898 43.9303 30.7853 44.8851 32.8363C45.3028 30.3676 46.6891 30.2642 47.6408 30.5614C48.5255 31.4638 47.2168 34.7485 43.9884 38.9357C43.7144 41.9832 42.2367 47.5317 42.2367 47.5317C42.2367 47.5317 41.7001 48.1708 39.5316 48.3158C37.3631 48.4608 36.1861 45.9654 36.1861 45.9654C36.1861 45.9654 37.1037 48.1473 36.0531 49.9153C35.0026 51.6834 32.2837 51.3712 31.1245 49.793C29.9653 48.2147 29.4393 46.4173 29.3506 45.4621C29.0154 47.8453 28.5675 49.1207 27.0797 49.6129C25.5919 50.1052 25.7147 46.8608 25.7936 45.8435C25.8726 44.8262 26.0322 44.4745 26.0322 44.4745C26.0322 44.4745 24.3617 46.6599 20.9714 46.9508C17.5812 47.2417 16.1 45.2515 15.7421 42.9344C15.3843 40.6173 16.8087 37.8842 18.0322 36.5379ZM16.6197 23.0784C16.6197 23.0784 17.1816 21.9879 18.3754 23.0784C19.5692 24.1689 19.7776 27.1228 19.8388 27.1077C19.9 27.0926 19.6446 25.6886 20.6739 25.4367C21.7031 25.1848 21.6588 26.2128 21.6588 26.2128L23.2668 25.2372L23.6535 24.6105L26.4282 22.0664C26.4282 22.0664 24.1351 23.4097 22.9714 23.7516C21.8078 24.0935 21.3089 22.8646 21.3089 22.8646C21.3089 22.8646 20.8082 23.6629 20.8379 24.9595C19.6597 22.7963 18.6601 22.1697 17.6158 22.2296C16.5714 22.2895 16.6197 23.0784 16.6197 23.0784Z" fill="url(#paint17_linear_11354_44674)"/>
</g>
</g>
<defs>
<filter id="filter0_f_11354_44674" x="-56.2874" y="-53.0707" width="175.632" height="173.3" filterUnits="userSpaceOnUse" color-interpolation-filters="sRGB">
<feFlood flood-opacity="0" result="BackgroundImageFix"/>
<feBlend mode="normal" in="SourceGraphic" in2="BackgroundImageFix" result="shape"/>
<feGaussianBlur stdDeviation="10" result="effect1_foregroundBlur_11354_44674"/>
</filter>
<filter id="filter1_f_11354_44674" x="19.5" y="-4.5" width="82" height="125" filterUnits="userSpaceOnUse" color-interpolation-filters="sRGB">
<feFlood flood-opacity="0" result="BackgroundImageFix"/>
<feBlend mode="normal" in="SourceGraphic" in2="BackgroundImageFix" result="shape"/>
<feGaussianBlur stdDeviation="5" result="effect1_foregroundBlur_11354_44674"/>
</filter>
<filter id="filter2_f_11354_44674" x="12.5" y="28.5" width="54" height="40" filterUnits="userSpaceOnUse" color-interpolation-filters="sRGB">
<feFlood flood-opacity="0" result="BackgroundImageFix"/>
<feBlend mode="normal" in="SourceGraphic" in2="BackgroundImageFix" result="shape"/>
<feGaussianBlur stdDeviation="5" result="effect1_foregroundBlur_11354_44674"/>
</filter>
<filter id="filter3_d_11354_44674" x="-21.1313" y="86.5002" width="202.703" height="39.0308" filterUnits="userSpaceOnUse" color-interpolation-filters="sRGB">
<feFlood flood-opacity="0" result="BackgroundImageFix"/>
<feColorMatrix in="SourceAlpha" type="matrix" values="0 0 0 0 0 0 0 0 0 0 0 0 0 0 0 0 0 0 127 0" result="hardAlpha"/>
<feOffset dx="3" dy="5"/>
<feGaussianBlur stdDeviation="6"/>
<feColorMatrix type="matrix" values="0 0 0 0 0.615686 0 0 0 0 0.623529 0 0 0 0 0.901961 0 0 0 0.84 0"/>
<feBlend mode="normal" in2="BackgroundImageFix" result="effect1_dropShadow_11354_44674"/>
<feBlend mode="normal" in="SourceGraphic" in2="effect1_dropShadow_11354_44674" result="shape"/>
</filter>
<linearGradient id="paint0_linear_11354_44674" x1="3.88384" y1="-26.6379" x2="76.4673" y2="81.5589" gradientUnits="userSpaceOnUse">
<stop stop-color="#DCDCF8"/>
<stop offset="0.480274" stop-color="#E2C7FF"/>
<stop offset="1" stop-color="#E2C7FF"/>
</linearGradient>
<linearGradient id="paint1_linear_11354_44674" x1="26.9512" y1="73.9429" x2="47.4222" y2="86.6648" gradientUnits="userSpaceOnUse">
<stop stop-color="#F97267"/>
<stop offset="0.25" stop-color="#FCD5B8"/>
<stop offset="0.5" stop-color="#FACBAB"/>
<stop offset="1" stop-color="#F97267"/>
</linearGradient>
<linearGradient id="paint2_linear_11354_44674" x1="50.6656" y1="54.464" x2="50.7436" y2="71.7737" gradientUnits="userSpaceOnUse">
<stop stop-color="#EACFFF"/>
<stop offset="1" stop-color="#6D6FA7"/>
</linearGradient>
<linearGradient id="paint3_linear_11354_44674" x1="32.7094" y1="62.3498" x2="51.0123" y2="64.6861" gradientUnits="userSpaceOnUse">
<stop stop-color="#F97267"/>
<stop offset="0.25" stop-color="#FCD5B8"/>
<stop offset="0.5" stop-color="#FACBAB"/>
<stop offset="1" stop-color="#F97267"/>
</linearGradient>
<linearGradient id="paint4_linear_11354_44674" x1="25.2431" y1="50.5574" x2="13.7294" y2="59.3917" gradientUnits="userSpaceOnUse">
<stop stop-color="#70483F"/>
<stop offset="0.699361" stop-color="#D68A78"/>
</linearGradient>
<linearGradient id="paint5_linear_11354_44674" x1="36.6117" y1="75.5548" x2="52.7218" y2="82.21" gradientUnits="userSpaceOnUse">
<stop stop-color="#F97267"/>
<stop offset="0.25" stop-color="#FCD5B8"/>
<stop offset="0.5" stop-color="#FACBAB"/>
<stop offset="1" stop-color="#F97267"/>
</linearGradient>
<linearGradient id="paint6_linear_11354_44674" x1="29.5703" y1="76.2582" x2="38.4134" y2="79.5453" gradientUnits="userSpaceOnUse">
<stop stop-color="#F97267"/>
<stop offset="0.25" stop-color="#FCD5B8"/>
<stop offset="0.5" stop-color="#FACBAB"/>
<stop offset="1" stop-color="#F97267"/>
</linearGradient>
<linearGradient id="paint7_linear_11354_44674" x1="36.6106" y1="76.6936" x2="44.2363" y2="85.959" gradientUnits="userSpaceOnUse">
<stop stop-color="#F97267"/>
<stop offset="0.25" stop-color="#FCD5B8"/>
<stop offset="0.5" stop-color="#FACBAB"/>
<stop offset="1" stop-color="#F97267"/>
</linearGradient>
<linearGradient id="paint8_linear_11354_44674" x1="57.7809" y1="45.0461" x2="57.874" y2="77.4311" gradientUnits="userSpaceOnUse">
<stop stop-color="#EACFFF"/>
<stop offset="1" stop-color="#9D9FE6"/>
</linearGradient>
<linearGradient id="paint9_linear_11354_44674" x1="57.6274" y1="47.5815" x2="57.6869" y2="73.4921" gradientUnits="userSpaceOnUse">
<stop stop-color="#EACFFF"/>
<stop offset="1" stop-color="#6D6FA7"/>
</linearGradient>
<linearGradient id="paint10_linear_11354_44674" x1="34.5663" y1="68.3996" x2="41.013" y2="70.0984" gradientUnits="userSpaceOnUse">
<stop stop-color="#F97267"/>
<stop offset="0.25" stop-color="#FCD5B8"/>
<stop offset="0.5" stop-color="#FACBAB"/>
<stop offset="1" stop-color="#F97267"/>
</linearGradient>
<linearGradient id="paint11_linear_11354_44674" x1="38.0125" y1="61.5698" x2="51.6475" y2="63.0635" gradientUnits="userSpaceOnUse">
<stop stop-color="#F97267"/>
<stop offset="0.25" stop-color="#FCD5B8"/>
<stop offset="0.5" stop-color="#FACBAB"/>
<stop offset="1" stop-color="#F97267"/>
</linearGradient>
<linearGradient id="paint12_linear_11354_44674" x1="19.7253" y1="34.2655" x2="70.0144" y2="38.4413" gradientUnits="userSpaceOnUse">
<stop stop-color="#F97267"/>
<stop offset="0.25" stop-color="#FCD5B8"/>
<stop offset="0.5" stop-color="#FACBAB"/>
<stop offset="1" stop-color="#F97267"/>
</linearGradient>
<linearGradient id="paint13_linear_11354_44674" x1="30.8524" y1="53.0221" x2="61.6046" y2="55.9526" gradientUnits="userSpaceOnUse">
<stop stop-color="#F97267"/>
<stop offset="0.25" stop-color="#FCD5B8"/>
<stop offset="0.5" stop-color="#FACBAB"/>
<stop offset="1" stop-color="#F97267"/>
</linearGradient>
<linearGradient id="paint14_linear_11354_44674" x1="26.5493" y1="13.7275" x2="67.7984" y2="52.7295" gradientUnits="userSpaceOnUse">
<stop stop-color="#FF98A3"/>
<stop offset="1" stop-color="white"/>
</linearGradient>
<linearGradient id="paint15_linear_11354_44674" x1="30.4617" y1="42.0472" x2="23.7522" y2="49.1419" gradientUnits="userSpaceOnUse">
<stop stop-color="#70483F"/>
<stop offset="0.699361" stop-color="#D68A78"/>
</linearGradient>
<linearGradient id="paint16_linear_11354_44674" x1="32.9301" y1="21.203" x2="36.0463" y2="21.5903" gradientUnits="userSpaceOnUse">
<stop stop-color="#F97267"/>
<stop offset="0.25" stop-color="#FCD5B8"/>
<stop offset="0.5" stop-color="#FACBAB"/>
<stop offset="1" stop-color="#F97267"/>
</linearGradient>
<linearGradient id="paint17_linear_11354_44674" x1="28.3517" y1="50.7035" x2="18.0359" y2="58.319" gradientUnits="userSpaceOnUse">
<stop stop-color="#70483F"/>
<stop offset="0.699361" stop-color="#D68A78"/>
</linearGradient>
<clipPath id="clip0_11354_44674">
<rect x="0.5" y="0.5" width="89" height="89" rx="44.5" fill="white"/>
</clipPath>
<clipPath id="clip1_11354_44674">
<rect width="62.6017" height="62.6017" fill="white" transform="translate(8.04248 14.8301)"/>
</clipPath>
</defs>
</svg>
