<svg width="35" height="34" viewBox="0 0 35 34" fill="none" xmlns="http://www.w3.org/2000/svg">
<g opacity="0.1">
<path d="M23.6954 17.8961L22.8661 18.5421C22.7277 18.6498 22.6154 18.879 22.6154 19.0528V20.1927C22.6154 20.5496 22.9061 20.8418 23.263 20.8418H25.0446C25.4015 20.8418 25.6923 20.5496 25.6923 20.1942V19.0744C25.6923 18.8882 25.5677 18.6498 25.4154 18.5437L24.4646 17.8776C24.2492 17.7269 23.903 17.7345 23.6954 17.8961Z" fill="url(#paint0_linear_12093_38570)" fill-opacity="0.5"/>
<path d="M23.6954 17.8961L22.8661 18.5421C22.7277 18.6498 22.6154 18.879 22.6154 19.0528V20.1927C22.6154 20.5496 22.9061 20.8418 23.263 20.8418H25.0446C25.4015 20.8418 25.6923 20.5496 25.6923 20.1942V19.0744C25.6923 18.8882 25.5677 18.6498 25.4154 18.5437L24.4646 17.8776C24.2492 17.7269 23.903 17.7345 23.6954 17.8961Z" fill="url(#paint1_linear_12093_38570)" fill-opacity="0.2"/>
<circle cx="25.4616" cy="17.3845" r="0.0769231" fill="#FF887F"/>
<circle cx="25.8461" cy="20.5386" r="0.153846" fill="#A6A5EB"/>
<circle cx="22.0769" cy="20.9226" r="0.0769231" fill="#CEBDFF"/>
<path d="M22.5595 17.172C22.5771 17.1179 22.6537 17.1179 22.6713 17.172C22.6792 17.1962 22.7017 17.2126 22.7272 17.2126C22.7841 17.2126 22.8078 17.2855 22.7617 17.3189C22.7412 17.3339 22.7325 17.3604 22.7404 17.3846C22.758 17.4388 22.696 17.4838 22.65 17.4503C22.6294 17.4354 22.6015 17.4354 22.5809 17.4503C22.5348 17.4838 22.4729 17.4388 22.4905 17.3846C22.4983 17.3604 22.4897 17.3339 22.4691 17.3189C22.4231 17.2855 22.4467 17.2126 22.5037 17.2126C22.5291 17.2126 22.5517 17.1962 22.5595 17.172Z" fill="#FF887F"/>
</g>
<path d="M13.126 11.6178L6.119 14.7721C4.949 15.2978 4 16.4169 4 17.2655V22.8307C4 24.573 6.457 26 9.473 26H24.527C27.543 26 30 24.573 30 22.8382V17.3707C30 16.4619 28.947 15.2978 27.66 14.7796L19.626 11.5277C17.806 10.7917 14.881 10.8292 13.126 11.6178Z" stroke="#47454D" stroke-width="2" stroke-linecap="round" stroke-linejoin="round"/>
<path d="M17 20L17 18" stroke="#47454D" stroke-width="1.5" stroke-linecap="round" stroke-linejoin="round"/>
<defs>
<linearGradient id="paint0_linear_12093_38570" x1="23.8523" y1="20.8418" x2="24.3766" y2="17.8727" gradientUnits="userSpaceOnUse">
<stop stop-color="#6E40F9"/>
<stop offset="0.457887" stop-color="#A569FB"/>
<stop offset="1" stop-color="#CE89FF"/>
</linearGradient>
<linearGradient id="paint1_linear_12093_38570" x1="23.851" y1="25.8778" x2="22.4592" y2="25.6049" gradientUnits="userSpaceOnUse">
<stop stop-color="white" stop-opacity="0"/>
<stop offset="1" stop-color="#8E00FF"/>
</linearGradient>
</defs>
</svg>
