<svg width="35" height="34" viewBox="0 0 35 34" fill="none" xmlns="http://www.w3.org/2000/svg">
<path d="M13.126 3.07083L6.119 8.53832C4.949 9.44957 4 11.3892 4 12.8602V22.5065C4 25.5266 6.457 28 9.473 28H24.527C27.543 28 30 25.5266 30 22.5195V13.0425C30 11.4673 28.947 9.44957 27.66 8.55134L19.626 2.91461C17.806 1.63886 14.881 1.70395 13.126 3.07083Z" stroke="#47454D" stroke-width="2" stroke-linecap="round" stroke-linejoin="round"/>
<path d="M17 14L17 10" stroke="#47454D" stroke-width="1.5" stroke-linecap="round" stroke-linejoin="round"/>
<g opacity="0.1">
<path d="M23.6954 20.8961L22.8661 21.5421C22.7277 21.6498 22.6154 21.879 22.6154 22.0528V23.1927C22.6154 23.5496 22.9061 23.8418 23.263 23.8418H25.0446C25.4015 23.8418 25.6923 23.5496 25.6923 23.1942V22.0744C25.6923 21.8882 25.5677 21.6498 25.4154 21.5437L24.4646 20.8776C24.2492 20.7269 23.903 20.7345 23.6954 20.8961Z" fill="url(#paint0_linear_12093_38560)" fill-opacity="0.5"/>
<path d="M23.6954 20.8961L22.8661 21.5421C22.7277 21.6498 22.6154 21.879 22.6154 22.0528V23.1927C22.6154 23.5496 22.9061 23.8418 23.263 23.8418H25.0446C25.4015 23.8418 25.6923 23.5496 25.6923 23.1942V22.0744C25.6923 21.8882 25.5677 21.6498 25.4154 21.5437L24.4646 20.8776C24.2492 20.7269 23.903 20.7345 23.6954 20.8961Z" fill="url(#paint1_linear_12093_38560)" fill-opacity="0.2"/>
<circle cx="25.4616" cy="20.3845" r="0.0769231" fill="#FF887F"/>
<circle cx="25.8461" cy="23.5386" r="0.153846" fill="#A6A5EB"/>
<circle cx="22.0769" cy="23.9226" r="0.0769231" fill="#CEBDFF"/>
<path d="M22.5595 20.172C22.5771 20.1179 22.6537 20.1179 22.6713 20.172C22.6792 20.1962 22.7017 20.2126 22.7272 20.2126C22.7841 20.2126 22.8078 20.2855 22.7617 20.3189C22.7412 20.3339 22.7325 20.3604 22.7404 20.3846C22.758 20.4388 22.696 20.4838 22.65 20.4503C22.6294 20.4354 22.6015 20.4354 22.5809 20.4503C22.5348 20.4838 22.4729 20.4388 22.4905 20.3846C22.4983 20.3604 22.4897 20.3339 22.4691 20.3189C22.4231 20.2855 22.4467 20.2126 22.5037 20.2126C22.5291 20.2126 22.5517 20.1962 22.5595 20.172Z" fill="#FF887F"/>
</g>
<defs>
<linearGradient id="paint0_linear_12093_38560" x1="23.8523" y1="23.8418" x2="24.3766" y2="20.8727" gradientUnits="userSpaceOnUse">
<stop stop-color="#6E40F9"/>
<stop offset="0.457887" stop-color="#A569FB"/>
<stop offset="1" stop-color="#CE89FF"/>
</linearGradient>
<linearGradient id="paint1_linear_12093_38560" x1="23.851" y1="28.8778" x2="22.4592" y2="28.6049" gradientUnits="userSpaceOnUse">
<stop stop-color="white" stop-opacity="0"/>
<stop offset="1" stop-color="#8E00FF"/>
</linearGradient>
</defs>
</svg>
