<svg width="35" height="34" viewBox="0 0 35 34" fill="none" xmlns="http://www.w3.org/2000/svg">
<path d="M14.8677 8.27051L9.06312 12.793C8.09389 13.5468 7.30774 15.1512 7.30774 16.3679V24.3469C7.30774 26.845 9.34312 28.8909 11.8416 28.8909H24.3124C26.8108 28.8909 28.8462 26.845 28.8462 24.3577V16.5187C28.8462 15.2158 27.9739 13.5468 26.9077 12.8038L20.2524 8.1413C18.7447 7.08605 16.3216 7.13989 14.8677 8.27051Z" fill="url(#paint0_linear_12093_38580)" fill-opacity="0.5"/>
<path d="M14.8677 8.27051L9.06312 12.793C8.09389 13.5468 7.30774 15.1512 7.30774 16.3679V24.3469C7.30774 26.845 9.34312 28.8909 11.8416 28.8909H24.3124C26.8108 28.8909 28.8462 26.845 28.8462 24.3577V16.5187C28.8462 15.2158 27.9739 13.5468 26.9077 12.8038L20.2524 8.1413C18.7447 7.08605 16.3216 7.13989 14.8677 8.27051Z" fill="url(#paint1_linear_12093_38580)" fill-opacity="0.2"/>
<circle cx="27.2307" cy="4.69276" r="0.538462" fill="#FF887F"/>
<circle cx="29.9231" cy="26.7693" r="1.07692" fill="#A6A5EB"/>
<circle cx="3.53846" cy="29.4613" r="0.538462" fill="#CEBDFF"/>
<path d="M6.91644 3.20404C7.03958 2.82506 7.57573 2.82506 7.69887 3.20404C7.75394 3.37352 7.91188 3.48827 8.09009 3.48827C8.48857 3.48827 8.65425 3.99818 8.33187 4.23241C8.1877 4.33715 8.12737 4.52282 8.18244 4.69231C8.30558 5.07129 7.87182 5.38643 7.54944 5.15221C7.40527 5.04746 7.21004 5.04746 7.06587 5.15221C6.74349 5.38643 6.30973 5.07129 6.43287 4.69231C6.48794 4.52282 6.42761 4.33715 6.28344 4.23241C5.96106 3.99818 6.12674 3.48827 6.52522 3.48827C6.70343 3.48827 6.86137 3.37352 6.91644 3.20404Z" fill="#FF887F"/>
<path d="M12.775 5.02964L6.0375 10.2868C4.9125 11.163 4 13.0281 4 14.4425V23.7178C4 26.6217 6.3625 29 9.2625 29H23.7375C26.6375 29 29 26.6217 29 23.7303V14.6178C29 13.1032 27.9875 11.1631 26.75 10.2994L19.025 4.87944C17.275 3.65275 14.4625 3.71534 12.775 5.02964Z" stroke="#47454D" stroke-width="2" stroke-linecap="round" stroke-linejoin="round"/>
<path d="M17 21L17 19" stroke="#47454D" stroke-width="1.5" stroke-linecap="round" stroke-linejoin="round"/>
<defs>
<linearGradient id="paint0_linear_12093_38580" x1="15.9663" y1="28.8909" x2="19.6361" y2="8.10719" gradientUnits="userSpaceOnUse">
<stop stop-color="#6E40F9"/>
<stop offset="0.457887" stop-color="#A569FB"/>
<stop offset="1" stop-color="#CE89FF"/>
</linearGradient>
<linearGradient id="paint1_linear_12093_38580" x1="15.9573" y1="64.1428" x2="6.21485" y2="62.2322" gradientUnits="userSpaceOnUse">
<stop stop-color="white" stop-opacity="0"/>
<stop offset="1" stop-color="#8E00FF"/>
</linearGradient>
</defs>
</svg>
