<svg width="26" height="24" viewBox="0 0 26 24" fill="none" xmlns="http://www.w3.org/2000/svg">
<path d="M12.9544 16.75C13.1839 16.75 13.3762 16.6781 13.5311 16.5343C13.6862 16.3906 13.7637 16.2125 13.7637 16V11.75C13.7637 11.5375 13.6861 11.3593 13.5308 11.2155C13.3755 11.0718 13.1832 11 12.9538 11C12.7242 11 12.532 11.0718 12.3771 11.2155C12.222 11.3593 12.1444 11.5375 12.1444 11.75V16C12.1444 16.2125 12.2221 16.3906 12.3774 16.5343C12.5326 16.6781 12.725 16.75 12.9544 16.75ZM12.9541 9.2885C13.2011 9.2885 13.4082 9.21108 13.5753 9.05625C13.7425 8.90142 13.8261 8.70958 13.8261 8.48075C13.8261 8.25192 13.7425 8.06008 13.5753 7.90525C13.4082 7.75058 13.2011 7.67325 12.9541 7.67325C12.7071 7.67325 12.5 7.75058 12.3328 7.90525C12.1657 8.06008 12.0821 8.25192 12.0821 8.48075C12.0821 8.70958 12.1657 8.90142 12.3328 9.05625C12.5 9.21108 12.7071 9.2885 12.9541 9.2885ZM12.956 21.5C11.5375 21.5 10.2042 21.2507 8.95611 20.752C7.70802 20.2533 6.62239 19.5766 5.69923 18.7218C4.77607 17.8669 4.04515 16.8617 3.50647 15.706C2.96798 14.5503 2.69873 13.3156 2.69873 12.0017C2.69873 10.6877 2.96789 9.45267 3.5062 8.2965C4.04452 7.14033 4.77508 6.13467 5.69788 5.2795C6.62068 4.42433 7.70586 3.74725 8.95342 3.24825C10.201 2.74942 11.5339 2.5 12.9522 2.5C14.3707 2.5 15.704 2.74933 16.9521 3.248C18.2001 3.74667 19.2858 4.42342 20.2089 5.27825C21.1321 6.13308 21.863 7.13833 22.4017 8.294C22.9402 9.44967 23.2094 10.6844 23.2094 11.9983C23.2094 13.3123 22.9403 14.5473 22.402 15.7035C21.8636 16.8597 21.1331 17.8653 20.2103 18.7205C19.2875 19.5757 18.2023 20.2528 16.9547 20.7518C15.7072 21.2506 14.3743 21.5 12.956 21.5ZM12.9541 20C15.365 20 17.4071 19.225 19.0803 17.675C20.7535 16.125 21.5902 14.2333 21.5902 12C21.5902 9.76667 20.7535 7.875 19.0803 6.325C17.4071 4.775 15.365 4 12.9541 4C10.5432 4 8.5011 4.775 6.82786 6.325C5.15462 7.875 4.318 9.76667 4.318 12C4.318 14.2333 5.15462 16.125 6.82786 17.675C8.5011 19.225 10.5432 20 12.9541 20Z" fill="#30303D" fill-opacity="0.86"/>
</svg>
