<svg width="159" height="155" viewBox="0 0 159 155" fill="none" xmlns="http://www.w3.org/2000/svg">
<path d="M76.7695 136.238C42.4785 136.238 14.6797 132.848 14.6797 128.666C14.6797 127.323 17.5435 126.062 22.5689 124.969C23.4913 125.739 24.5472 126.483 25.762 127.228C30.587 130.188 48.5375 131.211 67.5419 132.294C71.7776 132.536 76.1571 132.785 80.235 133.053C81.5318 133.138 82.7712 133.18 83.9523 133.18C84.181 133.18 84.4075 133.179 84.6317 133.175C84.7117 133.235 84.793 133.29 84.8757 133.34C85.179 133.525 85.5641 133.626 85.9474 133.626C86.2101 133.626 86.4713 133.579 86.7045 133.478C87.1656 133.303 87.6316 133.138 88.1012 132.982C91.3859 132.646 94.0726 131.882 96.1419 130.695C96.8551 130.451 97.5562 130.172 98.2378 129.837C99.0415 129.438 99.8022 128.881 100.428 128.207C100.822 128.211 101.217 128.213 101.613 128.213C103.144 128.213 104.689 128.187 106.234 128.152C107.474 130.177 109.145 131.622 110.963 132.036C111.505 132.388 112.144 132.555 112.823 132.555C113.585 132.555 114.398 132.345 115.182 131.949C116.987 131.069 118.411 129.443 119.775 128.159C119.804 128.133 119.832 128.106 119.86 128.08C123.647 128.041 126.894 126.867 129.434 124.653C135.407 125.816 138.86 127.192 138.86 128.666C138.86 132.848 111.061 136.238 76.7695 136.238Z" fill="#B99AE3"/>
<path d="M121.605 94.9955C136.612 106.51 134.397 119.392 136.725 119.361C139.37 119.326 135.521 98.0951 129.331 88.8402L121.605 94.9955Z" fill="#FBD7E0"/>
<path d="M136.712 120.1C135.436 120.1 135.096 118.696 134.534 116.38C133.436 111.856 131.393 103.434 121.158 95.5816C120.835 95.3336 120.774 94.8699 121.02 94.5458C121.268 94.2222 121.73 94.1605 122.053 94.408C132.701 102.578 134.824 111.329 135.965 116.031C136.191 116.96 136.441 117.992 136.664 118.443C137.001 117.375 136.95 113.43 135.39 106.684C133.74 99.5461 131.246 93.0291 128.719 89.2509C128.493 88.9123 128.582 88.4531 128.921 88.226C129.259 87.9985 129.716 88.0891 129.943 88.4282C132.528 92.2943 134.994 98.6427 136.707 105.845C137.893 110.832 138.912 117.353 137.882 119.321C137.532 119.99 137.014 120.096 136.736 120.1C136.728 120.1 136.72 120.1 136.712 120.1Z" fill="#371B45"/>
<path d="M139.469 124.211C136.328 124.175 132.796 121.719 133.225 117.867C133.445 115.893 135.316 114.302 137.484 114.534C138.058 114.595 138.652 114.786 139.241 115.13C141.963 116.719 139.6 119.471 140.305 121.542C140.882 123.234 143.123 123.022 143.123 123.022C143.123 123.022 141.766 123.93 140.204 124.161C139.963 124.194 139.716 124.214 139.469 124.211Z" fill="#71757F"/>
<path d="M140.701 123.301C140.043 123.107 139.347 122.693 139.051 121.824C138.42 119.973 140.016 117.627 139.039 115.871C140.05 116.547 139.943 117.385 139.656 118.869C139.471 119.825 139.28 120.813 139.609 121.779C139.857 122.507 140.315 122.971 140.824 123.266C140.783 123.278 140.742 123.29 140.701 123.301Z" fill="#AAACB2"/>
<path d="M137.069 115.248C136.454 115.248 135.961 115.429 135.646 115.588C134.714 116.058 134.067 116.963 133.957 117.948C133.772 119.618 134.462 120.795 135.074 121.489C136.135 122.693 137.823 123.453 139.477 123.472C139.932 123.479 140.398 123.391 140.823 123.267C140.315 122.972 139.857 122.508 139.608 121.78C139.279 120.814 139.471 119.825 139.656 118.869C139.958 117.309 140.06 116.462 138.871 115.768C138.205 115.38 137.593 115.248 137.069 115.248ZM139.516 124.949C139.497 124.949 139.479 124.949 139.46 124.949C137.402 124.925 135.299 123.975 133.97 122.468C132.81 121.152 132.299 119.533 132.493 117.785C132.658 116.308 133.612 114.961 134.984 114.268C136.43 113.537 138.117 113.619 139.612 114.491C141.761 115.745 141.38 117.714 141.102 119.151C140.947 119.952 140.801 120.709 141.003 121.303C141.382 122.416 143.042 122.287 143.059 122.286C143.393 122.256 143.707 122.46 143.818 122.778C143.929 123.096 143.813 123.449 143.533 123.636C143.452 123.69 141.546 124.949 139.516 124.949Z" fill="#371B45"/>
<path d="M134.575 111.77C133.533 120.895 128.467 128.184 117.969 127.268C114.908 127.194 111.716 127.276 108.51 127.358C103.174 127.494 97.7994 127.631 92.9304 127.046C87.7234 126.42 83.0931 124.971 79.7067 121.818C79.5566 121.678 79.4084 121.536 79.2646 121.39C70.9392 112.989 83.8072 82.5472 83.8072 82.5472C83.8072 82.5472 85.3793 81.3945 88.0493 80.0264C95.4223 76.2455 111.171 70.8128 125.287 83.4438C132.001 89.4508 135.725 101.726 134.575 111.77Z" fill="url(#paint0_linear_9421_41830)"/>
<path d="M134.575 111.77C133.533 120.895 128.467 128.184 117.969 127.268C114.908 127.194 111.716 127.276 108.51 127.358C103.174 127.494 97.7994 127.631 92.9304 127.046C87.7234 126.42 83.0931 124.971 79.7067 121.818C79.5566 121.678 79.4084 121.536 79.2646 121.39C70.9392 112.989 83.8072 82.5472 83.8072 82.5472C83.8072 82.5472 85.3793 81.3945 88.0493 80.0264C95.4223 76.2455 111.171 70.8128 125.287 83.4438C132.001 89.4508 135.725 101.726 134.575 111.77Z" fill="url(#paint1_linear_9421_41830)" fill-opacity="0.2"/>
<path d="M100.199 99.7756C100.199 111.459 91.1568 121.025 79.7067 121.816C79.5566 121.677 79.4084 121.535 79.2646 121.389C70.9392 112.988 83.8072 82.5459 83.8072 82.5459C83.8072 82.5459 85.3793 81.3932 88.0493 80.0252C95.2551 83.6556 100.199 91.1381 100.199 99.7756Z" fill="#A7ACB7"/>
<path d="M101.635 126.734C101.576 126.734 101.518 126.734 101.459 126.734C101.556 126.541 101.642 126.343 101.715 126.14C101.776 125.982 101.723 125.798 101.579 125.699C101.567 125.691 101.557 125.685 101.545 125.678C101.991 124.816 103.223 122.162 103.221 119.182C103.22 118.353 103.125 117.499 102.89 116.651C102.746 116.132 102.57 115.657 102.371 115.22C102.935 115.846 103.634 116.475 104.439 117.086C104.389 117.295 104.343 117.508 104.303 117.726C104.13 118.655 104.053 119.664 104.086 120.73C104.153 122.865 104.656 124.923 105.46 126.69C104.18 126.716 102.903 126.734 101.635 126.734ZM123.007 126.269C123.034 126.228 123.053 126.181 123.061 126.128C123.079 125.961 123.021 125.849 122.918 125.776L125.151 121.856L125.153 121.852C128.415 120.92 131.282 118.891 133.176 115.317C132.901 116.373 132.562 117.374 132.159 118.31C130.767 121.543 128.096 125.167 123.007 126.269Z" fill="#9AA1C6"/>
<path d="M133.79 112.135C134.339 102.46 130.669 91.2517 124.348 85.596C117.709 79.6542 110.709 77.7091 104.389 77.7091C104.222 77.7091 104.053 77.7105 103.887 77.7132C103.735 77.2477 103.578 76.7917 103.416 76.3425C104.083 76.2994 104.745 76.2776 105.402 76.2776C112.559 76.2776 119.059 78.8582 124.797 83.9931C128.67 87.459 131.723 93.3069 133.173 100.038C134.078 104.241 134.276 108.411 133.79 112.135Z" fill="#ECEFF4"/>
<path d="M84.4054 83.0276C83.8951 84.2651 81.0715 91.2604 79.1247 99.0135C76.3481 110.071 76.5777 117.628 79.7882 120.868C86.0548 127.191 97.4737 126.899 108.517 126.617C111.663 126.537 114.917 126.454 117.988 126.528L118.034 126.531C126.467 127.266 130.37 122.466 132.16 118.31C134.256 113.442 134.625 106.782 133.172 100.038C131.722 93.307 128.669 87.459 124.797 83.9932C117.027 77.0401 107.863 74.7709 97.5578 77.2486C90.5567 78.9317 85.3754 82.3568 84.4054 83.0276ZM101.613 128.213C92.6237 128.213 84.0899 127.304 78.7432 121.91C70.1669 113.255 82.5956 83.5195 83.129 82.2575L83.2085 82.0698L83.3726 81.9497C83.6045 81.7797 89.1469 77.7627 97.1645 75.8235C104.604 74.0243 115.608 73.7895 125.778 82.8908C134.4 90.6072 138.159 108.105 133.513 118.896C130.714 125.395 125.179 128.63 117.93 128.005C114.902 127.932 111.675 128.015 108.554 128.094C106.241 128.153 103.912 128.213 101.613 128.213Z" fill="#371B45"/>
<path d="M55.1522 54.7494C55.1522 54.7494 52.1843 60.3697 49.4447 63.1226C47.5111 65.0654 41.395 68.0163 42.8762 79.0078C44.9084 94.0861 49.5505 96.9092 38.1293 102.5C28.5713 107.178 18.1982 100.565 18.7264 93.2185C19.0138 89.2205 22.4181 87.5401 26.3445 80.7729C30.2392 74.0606 31.6428 58.9355 42.8297 54.0858C48.2799 51.7227 55.1522 54.7494 55.1522 54.7494Z" fill="#E26F8A"/>
<path d="M47.5573 53.9256C46.0779 53.9256 44.5407 54.1482 43.12 54.7637C35.4577 58.0859 32.477 66.6627 30.0821 73.5545C29.0827 76.4302 28.1389 79.1463 26.9796 81.1444C25.3197 84.0052 23.744 85.9815 22.4778 87.5694C20.7515 89.7343 19.611 91.1645 19.4596 93.2714C19.2542 96.1271 20.8876 99.0223 23.8288 101.016C27.0016 103.166 32.339 104.511 37.8045 101.835C45.9496 97.8487 45.498 95.7944 43.8197 88.151C43.2936 85.7558 42.6391 82.7749 42.1446 79.1069C40.8239 69.3044 45.4293 65.5181 47.9036 63.4837C48.3131 63.1474 48.6665 62.8568 48.9215 62.6002C50.9754 60.5369 53.2065 56.7287 54.0982 55.135C52.8742 54.6984 50.3159 53.9256 47.5573 53.9256ZM31.4468 104.795C28.4528 104.795 25.5051 103.936 23.0039 102.24C19.6206 99.947 17.7463 96.5541 17.9899 93.1653C18.1743 90.6006 19.4968 88.942 21.3271 86.6465C22.5629 85.0967 24.101 83.1679 25.7062 80.401C26.7941 78.5262 27.7153 75.8749 28.6907 73.0686C31.1806 65.9038 34.2793 56.9867 42.5356 53.4075C48.215 50.9452 55.1541 53.9442 55.4466 54.0729L56.1725 54.3925L55.8014 55.0951C55.678 55.3285 52.7499 60.8455 49.9642 63.6442C49.6573 63.9529 49.2777 64.2652 48.8379 64.6265C46.4278 66.6078 42.3941 69.9241 43.605 78.9088C44.0909 82.5166 44.7387 85.4643 45.2585 87.8332C46.9413 95.4952 47.6378 98.6669 38.4509 103.164C36.2207 104.255 33.8192 104.795 31.4468 104.795Z" fill="#371B45"/>
<path d="M47.5575 53.9266C46.0781 53.9266 44.5417 54.1483 43.122 54.7638C35.4583 58.086 32.4779 66.6637 30.083 73.556C29.0838 76.4317 28.14 79.1478 26.9808 81.1459C25.321 84.0062 23.7455 85.9817 22.4796 87.5691C21.2523 89.1085 20.3211 90.2762 19.8309 91.5798C20.4623 90.4339 21.4508 89.2726 22.9649 88.2123C28.4494 84.372 30.7856 80.9778 35.4637 70.0539C37.481 65.3455 42.4765 62.3869 49.9206 61.4857C51.6617 59.3666 53.3512 56.4723 54.0989 55.1355C52.8748 54.6995 50.3165 53.9266 47.5575 53.9266ZM19.2967 98.3887C18.3164 96.7397 17.8651 94.9337 17.9915 93.1659C18.1759 90.6007 19.4985 88.9421 21.3289 86.6466C22.5645 85.0968 24.1023 83.1685 25.7073 80.4025C26.7953 78.5277 27.7164 75.8764 28.6917 73.0696C31.1813 65.9044 34.2799 56.9868 42.5376 53.4071C48.2165 50.9467 55.1547 53.9447 55.4472 54.0735L56.1726 54.3935L55.802 55.0957C55.703 55.2833 53.3508 59.7174 50.8594 62.6629L50.6704 62.8869L50.3798 62.9195C43.2291 63.7263 38.6662 66.3228 36.8175 70.6368C32.0047 81.8757 29.5731 85.3874 23.8084 89.424C18.8344 92.9062 20.542 97.5497 20.6171 97.7455L19.2967 98.3887Z" fill="#363D56"/>
<path d="M55.1506 54.7494C55.1506 54.7494 53.1243 58.5861 50.8742 61.4726C50.6835 61.7179 50.4905 61.9563 50.2975 62.1843C44.6357 62.823 38.4935 64.8537 36.1408 70.3445C31.3347 81.5671 28.937 84.931 23.3866 88.8175C17.9092 92.6519 19.8759 97.8698 19.9295 98.0098C19.0523 96.5344 18.6062 94.8953 18.7263 93.2176C19.0008 89.4068 22.1063 87.701 25.7993 81.6854C25.9795 81.393 26.1617 81.0875 26.3441 80.7734C30.2387 74.061 31.6413 58.9346 42.83 54.0849C48.2793 51.7232 55.1506 54.7494 55.1506 54.7494Z" fill="url(#paint2_linear_9421_41830)"/>
<path d="M55.1506 54.7494C55.1506 54.7494 53.1243 58.5861 50.8742 61.4726C50.6835 61.7179 50.4905 61.9563 50.2975 62.1843C44.6357 62.823 38.4935 64.8537 36.1408 70.3445C31.3347 81.5671 28.937 84.931 23.3866 88.8175C17.9092 92.6519 19.8759 97.8698 19.9295 98.0098C19.0523 96.5344 18.6062 94.8953 18.7263 93.2176C19.0008 89.4068 22.1063 87.701 25.7993 81.6854C25.9795 81.393 26.1617 81.0875 26.3441 80.7734C30.2387 74.061 31.6413 58.9346 42.83 54.0849C48.2793 51.7232 55.1506 54.7494 55.1506 54.7494Z" fill="url(#paint3_linear_9421_41830)" fill-opacity="0.2"/>
<path d="M19.8301 91.5801C20.3204 90.2765 21.2515 89.1088 22.4789 87.5694C23.5189 86.2653 24.7679 84.6987 26.101 82.5954C26.2339 82.4277 26.3633 82.2586 26.4906 82.0859C26.5919 82.11 26.704 82.1249 26.8263 82.1249C27.5751 82.1249 28.7126 81.576 30.1715 79.2497C31.3168 77.4252 33.0886 70.2491 36.4569 65.0276C35.0186 67.5003 33.8009 70.3824 32.7685 73.6968C32.2638 75.3174 31.8613 76.9302 31.5251 78.4641C28.9754 83.1874 26.7003 85.5967 22.9642 88.2126C21.4501 89.2729 20.4615 90.4342 19.8301 91.5801Z" fill="#9AA1C6"/>
<path d="M26.4917 82.086C26.4705 82.081 26.4499 82.076 26.4297 82.0701C26.6123 81.7728 26.7961 81.465 26.9811 81.1463C28.1402 79.1482 29.0841 76.4321 30.0833 73.5564C32.4781 66.6641 35.4586 58.0864 43.1223 54.7642C44.542 54.1487 46.0784 53.927 47.5578 53.927C48.5237 53.927 49.4648 54.0213 50.3331 54.1632C49.7961 54.31 49.2713 54.471 48.7592 54.6468C48.4089 54.6156 48.0514 54.5992 47.6893 54.5992C46.1954 54.5992 44.627 54.8739 43.1734 55.4922C32.4184 60.0669 32.5852 73.8306 26.4917 82.086Z" fill="#ECEFF4"/>
<path d="M26.1016 82.5938C26.2102 82.422 26.3195 82.247 26.4292 82.0685C26.4494 82.0743 26.47 82.0793 26.4911 82.0843C26.3639 82.257 26.2345 82.4261 26.1016 82.5938Z" fill="#E1E3EE"/>
<path d="M47.5575 53.9266C46.0781 53.9266 44.5417 54.1483 43.122 54.7638C35.4583 58.086 32.4779 66.6637 30.083 73.556C29.0838 76.4317 28.14 79.1478 26.9808 81.1459C25.321 84.0062 23.7455 85.9817 22.4796 87.5691C21.2523 89.1085 20.3211 90.2762 19.8309 91.5798C20.4623 90.4339 21.4508 89.2726 22.9649 88.2123C28.4494 84.372 30.7856 80.9778 35.4637 70.0539C37.481 65.3455 42.4765 62.3869 49.9206 61.4857C51.6617 59.3666 53.3512 56.4723 54.0989 55.1355C52.8748 54.6995 50.3165 53.9266 47.5575 53.9266ZM19.2967 98.3887C18.3164 96.7397 17.8651 94.9337 17.9915 93.1659C18.1759 90.6007 19.4985 88.9421 21.3289 86.6466C22.5645 85.0968 24.1023 83.1685 25.7073 80.4025C26.7953 78.5277 27.7164 75.8764 28.6917 73.0696C31.1813 65.9044 34.2799 56.9868 42.5376 53.4071C48.2165 50.9467 55.1547 53.9447 55.4472 54.0735L56.1726 54.3935L55.802 55.0957C55.703 55.2833 53.3508 59.7174 50.8594 62.6629L50.6704 62.8869L50.3798 62.9195C43.2291 63.7263 38.6662 66.3228 36.8175 70.6368C32.0047 81.8757 29.5731 85.3874 23.8084 89.424C18.8344 92.9062 20.542 97.5497 20.6171 97.7455L19.2967 98.3887Z" fill="#371B45"/>
<path d="M98.7689 95.6929C98.7711 95.9726 98.7711 96.25 98.7666 96.5297C98.6789 103.679 96.9781 111 91.3335 115.033C83.437 120.674 73.9319 120.728 53.9805 118.257C34.031 115.783 27.3719 106.664 26.5848 99.6076C26.1001 95.2695 27.9788 91.2067 30.0977 88.3718C31.1315 86.1955 31.5389 80.1237 33.4732 73.9167C38.2323 58.6421 46.899 52.6392 64.3087 53.9188C72.0981 54.4909 79.1412 56.2247 84.7324 60.051C90.1474 63.7544 94.201 69.4174 96.2535 77.8935C96.8515 80.3648 98.7323 87.8428 98.7689 95.6929Z" fill="url(#paint4_linear_9421_41830)"/>
<path d="M98.7689 95.6929C98.7711 95.9726 98.7711 96.25 98.7666 96.5297C98.6789 103.679 96.9781 111 91.3335 115.033C83.437 120.674 73.9319 120.728 53.9805 118.257C34.031 115.783 27.3719 106.664 26.5848 99.6076C26.1001 95.2695 27.9788 91.2067 30.0977 88.3718C31.1315 86.1955 31.5389 80.1237 33.4732 73.9167C38.2323 58.6421 46.899 52.6392 64.3087 53.9188C72.0981 54.4909 79.1412 56.2247 84.7324 60.051C90.1474 63.7544 94.201 69.4174 96.2535 77.8935C96.8515 80.3648 98.7323 87.8428 98.7689 95.6929Z" fill="url(#paint5_linear_9421_41830)" fill-opacity="0.2"/>
<path d="M33.1523 77.9551C33.4412 76.7086 33.7761 75.4226 34.1766 74.1371C37.8523 62.3379 43.7278 56.397 54.014 54.883C54.0773 54.8957 54.1424 54.9061 54.2093 54.9143C54.2961 54.9247 54.3851 54.9329 54.4755 54.9338C54.5334 54.9342 54.593 54.9342 54.6527 54.9347C54.763 54.9324 54.8746 54.9311 54.9881 54.9311C56.5642 54.9311 58.4436 55.1636 59.7748 55.8739C45.4816 56.3947 37.8482 63.0713 33.4073 77.3264C33.3413 77.539 33.2559 77.7484 33.1523 77.9551ZM82.51 59.5642C77.943 57.6286 72.773 56.5729 67.2296 56.096C67.3562 55.7325 67.4556 55.358 67.5284 54.9777C73.4713 55.7148 78.4429 57.2274 82.51 59.5642Z" fill="#ECEFF4"/>
<path d="M70.0129 115.944C68.2966 115.489 66.5144 115.25 64.738 115.25C63.632 115.25 62.5286 115.343 61.4461 115.534C62.4161 113.713 63.1551 111.859 63.8065 110.134L63.1682 108.627L67.0771 110.919C67.0771 110.919 69.0668 113.16 73.8445 113.16C75.4853 113.16 77.4551 112.896 79.7861 112.186C79.4394 112.348 79.0972 112.519 78.76 112.7C78.487 112.828 78.3162 113.124 78.3614 113.439C78.3627 113.448 78.3641 113.457 78.3654 113.466C75.7253 114.385 72.9319 115.294 70.0129 115.944ZM83.1141 111.001C90.574 107.887 82.0429 106.643 83.9684 97.6877C85.6897 89.6812 90.1138 77.3725 84.2116 60.6256C84.2898 60.6786 84.3675 60.7317 84.4448 60.7856C85.5039 62.5036 87.3178 65.959 88.3004 70.986V70.9883C88.3004 70.9901 88.3027 70.9965 88.3045 71.0055C88.3067 71.0182 88.3113 71.0377 88.3176 71.0654C88.3198 71.0785 88.3239 71.0912 88.3262 71.1084C88.7253 73.1945 88.9811 75.5475 88.982 78.1562C88.9829 80.0904 88.8428 82.1647 88.5169 84.3745C87.5392 91.0084 85.62 96.0636 85.6182 99.6709C85.6169 103.587 87.8755 105.798 96.0513 106.471C96.1607 106.59 96.2778 106.712 96.4034 106.835C95.9379 108.111 95.3928 109.227 94.7948 110.202C93.921 109.942 92.9963 109.827 92.0263 109.827C90.5789 109.827 89.0295 110.083 87.396 110.494C87.386 110.494 87.3765 110.494 87.367 110.494C86.0418 110.494 84.7206 110.61 83.4337 110.927C83.327 110.95 83.2204 110.975 83.1141 111.001ZM44.0458 109.516C42.933 108.948 41.7208 108.621 40.4674 108.621C40.0746 108.621 39.6777 108.653 39.2781 108.72C34.5276 106.815 30.5352 105.151 28.8957 104.464C28.2 103.145 27.7991 101.94 27.5684 100.963C29.5196 103.413 34.2989 108.327 41.2371 108.327C41.9581 108.327 42.7021 108.274 43.4691 108.16C43.837 108.105 44.1805 108.031 44.5019 107.942C44.3586 108.474 44.2086 108.999 44.0458 109.516Z" fill="url(#paint6_linear_9421_41830)"/>
<path d="M70.0129 115.944C68.2966 115.489 66.5144 115.25 64.738 115.25C63.632 115.25 62.5286 115.343 61.4461 115.534C62.4161 113.713 63.1551 111.859 63.8065 110.134L63.1682 108.627L67.0771 110.919C67.0771 110.919 69.0668 113.16 73.8445 113.16C75.4853 113.16 77.4551 112.896 79.7861 112.186C79.4394 112.348 79.0972 112.519 78.76 112.7C78.487 112.828 78.3162 113.124 78.3614 113.439C78.3627 113.448 78.3641 113.457 78.3654 113.466C75.7253 114.385 72.9319 115.294 70.0129 115.944ZM83.1141 111.001C90.574 107.887 82.0429 106.643 83.9684 97.6877C85.6897 89.6812 90.1138 77.3725 84.2116 60.6256C84.2898 60.6786 84.3675 60.7317 84.4448 60.7856C85.5039 62.5036 87.3178 65.959 88.3004 70.986V70.9883C88.3004 70.9901 88.3027 70.9965 88.3045 71.0055C88.3067 71.0182 88.3113 71.0377 88.3176 71.0654C88.3198 71.0785 88.3239 71.0912 88.3262 71.1084C88.7253 73.1945 88.9811 75.5475 88.982 78.1562C88.9829 80.0904 88.8428 82.1647 88.5169 84.3745C87.5392 91.0084 85.62 96.0636 85.6182 99.6709C85.6169 103.587 87.8755 105.798 96.0513 106.471C96.1607 106.59 96.2778 106.712 96.4034 106.835C95.9379 108.111 95.3928 109.227 94.7948 110.202C93.921 109.942 92.9963 109.827 92.0263 109.827C90.5789 109.827 89.0295 110.083 87.396 110.494C87.386 110.494 87.3765 110.494 87.367 110.494C86.0418 110.494 84.7206 110.61 83.4337 110.927C83.327 110.95 83.2204 110.975 83.1141 111.001ZM44.0458 109.516C42.933 108.948 41.7208 108.621 40.4674 108.621C40.0746 108.621 39.6777 108.653 39.2781 108.72C34.5276 106.815 30.5352 105.151 28.8957 104.464C28.2 103.145 27.7991 101.94 27.5684 100.963C29.5196 103.413 34.2989 108.327 41.2371 108.327C41.9581 108.327 42.7021 108.274 43.4691 108.16C43.837 108.105 44.1805 108.031 44.5019 107.942C44.3586 108.474 44.2086 108.999 44.0458 109.516Z" fill="url(#paint7_linear_9421_41830)" fill-opacity="0.2"/>
<path d="M54.072 117.523C73.2278 119.897 83.0923 120.014 90.9061 114.431C96.1429 110.689 101.209 101.387 95.5996 78.3208L95.5386 78.0687C91.9845 63.4025 82.0441 55.963 64.2565 54.6562C47.3638 53.4155 38.9299 58.8768 34.1763 74.136C33.1687 77.3707 32.5733 80.6104 32.0946 83.2136C31.6468 85.6501 31.2932 87.5743 30.7628 88.6898L30.7312 88.7565L30.6873 88.8154C29.2032 90.7995 26.7917 94.8297 27.3162 99.524C27.7065 103.017 30.7893 114.637 54.072 117.523ZM73.1786 120.545C67.9222 120.545 61.6503 119.951 53.8912 118.989C44.7083 117.851 37.5559 115.239 32.6324 111.224C28.7362 108.047 26.3282 103.95 25.8521 99.6885C25.2765 94.5373 27.8436 90.1726 29.4619 87.9913C29.8949 87.0303 30.2435 85.1338 30.6458 82.9457C31.1314 80.3035 31.7359 77.0148 32.77 73.6954C37.7095 57.8397 46.863 51.8974 64.3641 53.1825C82.8821 54.5429 93.2429 62.3395 96.9701 77.7197L97.0311 77.9708C102.835 101.841 97.3688 111.627 91.7608 115.634C86.8073 119.173 81.165 120.545 73.1786 120.545Z" fill="#371B45"/>
<path d="M80.1499 83.6165C80.846 84.165 81.8006 83.3903 81.396 82.6002C80.5097 80.8682 79.0935 79.0845 76.937 78.6906C73.0358 77.9785 73.9385 80.4711 75.9996 81.2123C77.2024 81.6447 78.7595 82.5205 80.1499 83.6165Z" fill="#371B45"/>
<path d="M39.426 79.162C38.6287 79.5478 37.8626 78.585 38.4267 77.901C39.6638 76.4006 41.4293 74.9636 43.6197 75.0439C47.5824 75.1894 46.1663 77.4296 43.9949 77.7088C42.7275 77.8715 41.0189 78.3914 39.426 79.162Z" fill="#371B45"/>
<path d="M66.9465 53.4758C66.9352 54.817 66.693 56.0731 66.358 57.1524L63.3174 56.0165C63.2374 53.813 61.202 51.4613 59.1983 49.7773C58.9271 49.5489 58.6564 49.334 58.3929 49.1323C58.3314 49.0856 58.2699 49.0367 58.2107 48.9877C55.2162 46.4896 58.8842 41.9277 62.0184 44.2454C65.8477 47.0766 66.9723 50.4872 66.9465 53.4758Z" fill="url(#paint8_linear_9421_41830)"/>
<path d="M66.9465 53.4758C66.9352 54.817 66.693 56.0731 66.358 57.1524L63.3174 56.0165C63.2374 53.813 61.202 51.4613 59.1983 49.7773C58.9271 49.5489 58.6564 49.334 58.3929 49.1323C58.3314 49.0856 58.2699 49.0367 58.2107 48.9877C55.2162 46.4896 58.8842 41.9277 62.0184 44.2454C65.8477 47.0766 66.9723 50.4872 66.9465 53.4758Z" fill="url(#paint9_linear_9421_41830)" fill-opacity="0.2"/>
<path d="M65.9733 51.2872C64.4284 48.3322 62.2244 45.9877 60.6094 45.9877C60.3052 45.9877 60.0222 46.0707 59.7678 46.2488C58.9967 46.7896 58.8204 47.6382 58.9054 48.4926C58.5826 48.2297 58.2707 47.9292 58.1112 47.5693C57.4436 46.2089 58.7268 44.4402 60.1827 44.4402C60.2112 44.4402 60.2401 44.4411 60.2686 44.4425C60.7934 44.4592 61.2621 44.6827 61.6779 45.0227L62.4414 45.6287L63.1483 46.291C64.5418 47.6699 65.5475 49.3974 65.9733 51.2872Z" fill="#ECEFF4"/>
<path d="M66.0063 57.0434C66.0954 55.6758 66.2427 54.3957 66.1962 53.1079C66.1397 50.5146 64.9785 48.1022 63.1479 46.2913L62.4409 45.629L61.6775 45.023C61.2617 44.683 60.7929 44.4596 60.2682 44.4428C58.7775 44.3712 57.43 46.183 58.1108 47.5696C58.3304 48.0641 58.8367 48.4467 59.2647 48.774C61.4049 50.5627 63.8887 53.0046 64.0532 55.9918C64.0596 56.9482 62.6633 57.0171 62.5815 56.0593C62.4997 54.8699 61.8086 53.7398 61.061 52.7915C60.2532 51.7848 59.2787 50.8809 58.2468 50.0609C57.5995 49.5854 56.9758 49.0414 56.6223 48.2872C55.3816 45.7895 57.6036 42.6586 60.3265 42.7855C61.1817 42.8073 62.0237 43.1867 62.6642 43.7157L63.5063 44.3984C66.024 46.5887 67.6697 49.6865 67.6778 53.0698C67.7221 54.5335 67.4093 56.0008 66.7096 57.2628C66.5175 57.6155 65.9625 57.441 66.0063 57.0434Z" fill="#371B45"/>
<path d="M63.234 55.9592L60.8695 56.7266C59.6329 55.2643 56.7866 54.8899 54.6523 54.9352C54.5926 54.9348 54.5329 54.9348 54.4751 54.9343C54.3847 54.9334 54.2956 54.9252 54.2088 54.9148C51.4996 54.5889 51.6266 50.3692 54.5162 50.2713C58.8233 50.1271 61.2411 52.2699 62.5279 54.4828C62.8172 54.9787 63.0491 55.4792 63.234 55.9592Z" fill="url(#paint10_linear_9421_41830)"/>
<path d="M63.234 55.9592L60.8695 56.7266C59.6329 55.2643 56.7866 54.8899 54.6523 54.9352C54.5926 54.9348 54.5329 54.9348 54.4751 54.9343C54.3847 54.9334 54.2956 54.9252 54.2088 54.9148C51.4996 54.5889 51.6266 50.3692 54.5162 50.2713C58.8233 50.1271 61.2411 52.2699 62.5279 54.4828C62.8172 54.9787 63.0491 55.4792 63.234 55.9592Z" fill="url(#paint11_linear_9421_41830)" fill-opacity="0.2"/>
<path d="M54.2088 54.914C54.1419 54.9058 54.0768 54.8954 54.0135 54.8827C53.2537 54.7313 52.7421 54.2567 52.4763 53.6661C52.3321 53.3461 52.2598 52.992 52.2598 52.6367C52.2593 51.4848 53.0151 50.3212 54.5162 50.2705C54.6545 50.2659 54.791 50.2637 54.9252 50.2637C58.9774 50.2637 61.2822 52.3398 62.5279 54.482C60.4781 52.9377 57.5102 51.8352 55.6755 51.8352C55.1001 51.8352 54.6364 51.9436 54.3476 52.1811C53.3206 53.0247 53.6831 54.113 54.2088 54.914Z" fill="#ECEFF4"/>
<path d="M62.5476 56.2237C61.4393 53.4559 59.1327 51.4813 56.1391 51.1636L55.4164 51.0988L54.6841 51.0938C53.9514 51.0543 53.3014 51.4564 53.1197 52.1998C52.8476 53.2229 53.5134 54.2228 54.6041 54.1671L55.0064 54.1694C56.103 54.1925 57.2085 54.2813 58.2924 54.5955C59.3831 54.9177 60.5199 55.4708 61.1514 56.4848C61.2585 56.6611 61.2029 56.8909 61.0271 56.9984C60.8851 57.0849 60.7107 57.0645 60.59 56.9635C59.8446 56.4027 58.9225 56.1367 57.9656 55.9499C57.0047 55.779 56.0053 55.6775 55.0037 55.6915C54.7334 55.6942 54.4048 55.7096 54.1291 55.6793C50.2559 55.1802 50.7689 49.3731 54.6498 49.4483C58.9709 49.3087 62.4436 51.6073 63.9226 55.6924C64.2317 56.6026 62.9268 57.1071 62.5476 56.2237Z" fill="#371B45"/>
<path d="M81.6527 94.527C80.8111 98.2105 76.1464 99.7798 72.7555 98.9031C69.0229 98.0405 66.6743 93.9989 67.7071 90.3771C67.7917 90.0748 68.1049 89.8984 68.4068 89.9832C68.6215 90.0435 68.7716 90.2194 68.8114 90.4256C69.4171 93.2623 70.51 95.7772 73.3911 96.6153C75.8368 97.3469 79.2734 96.5582 80.6009 94.1884C80.883 93.6009 81.7666 93.8897 81.6527 94.527Z" fill="#371B45"/>
<path d="M35.849 89.1561C36.5329 91.6311 39.3339 93.4202 41.7793 93.4121C44.6364 93.4134 46.0602 91.1633 47.2236 88.7114C47.469 88.1911 48.2677 88.3465 48.3066 88.915C48.5755 92.5943 45.5042 96.0135 41.7444 95.7819C38.312 95.6346 34.6797 92.8278 34.747 89.24C34.7881 88.5922 35.7148 88.5292 35.849 89.1561Z" fill="#371B45"/>
<path d="M104.246 106.522C103.528 107.783 102.616 108.583 101.495 108.742C98.9597 109.101 97.1242 107.634 96.052 106.47C80.3445 105.176 86.4782 98.2095 88.5176 84.3737C89.2833 79.1839 89.0216 74.7403 88.3269 71.1076C88.3246 71.0904 88.3205 71.0777 88.3183 71.0645C88.3119 71.0369 88.3074 71.0174 88.3052 71.0047C88.3033 70.9956 88.3011 70.9893 88.3011 70.9875V70.9852C87.1792 65.247 84.9748 61.5563 84.046 60.1601C83.2482 58.9603 77.3184 56.362 77.3184 56.362C77.3184 56.362 83.1216 54.0543 87.0292 56.0116C91.3444 58.1752 105.201 68.2537 106.325 91.4128C106.618 97.4802 106.02 103.41 104.246 106.522Z" fill="url(#paint12_linear_9421_41830)"/>
<path d="M104.246 106.522C103.528 107.783 102.616 108.583 101.495 108.742C98.9597 109.101 97.1242 107.634 96.052 106.47C80.3445 105.176 86.4782 98.2095 88.5176 84.3737C89.2833 79.1839 89.0216 74.7403 88.3269 71.1076C88.3246 71.0904 88.3205 71.0777 88.3183 71.0645C88.3119 71.0369 88.3074 71.0174 88.3052 71.0047C88.3033 70.9956 88.3011 70.9893 88.3011 70.9875V70.9852C87.1792 65.247 84.9748 61.5563 84.046 60.1601C83.2482 58.9603 77.3184 56.362 77.3184 56.362C77.3184 56.362 83.1216 54.0543 87.0292 56.0116C91.3444 58.1752 105.201 68.2537 106.325 91.4128C106.618 97.4802 106.02 103.41 104.246 106.522Z" fill="url(#paint13_linear_9421_41830)" fill-opacity="0.2"/>
<path d="M106.17 99.1036C106.409 96.7179 106.452 94.0793 106.323 91.413C106.452 94.0788 106.409 96.7179 106.17 99.1036Z" fill="#ECEFF4"/>
<path d="M104.793 105.383C105.733 102.105 106.026 97.5584 105.803 92.9321C104.68 69.7729 90.8233 59.6944 86.508 57.5308C85.345 56.9479 84.0139 56.7435 82.7175 56.7435C81.4112 56.7435 80.1407 56.9511 79.1137 57.1886C78.73 57.0059 78.3824 56.8446 78.0972 56.714C77.6298 56.4996 77.3306 56.3681 77.3188 56.3632C77.3184 56.3627 77.3184 56.3627 77.3184 56.3627C77.3184 56.3627 80.1804 55.2249 83.2378 55.2249C84.5341 55.2249 85.8657 55.4294 87.0292 56.0123C91.3444 58.1759 105.201 68.2544 106.325 91.4135C106.454 94.0798 106.411 96.7184 106.171 99.1041C105.926 101.544 105.475 103.718 104.793 105.383Z" fill="#ECEFF4"/>
<path d="M88.3178 71.0645C88.3115 71.0369 88.3069 71.0174 88.3047 71.0042C88.3092 71.0237 88.3133 71.0455 88.3178 71.0645Z" fill="#A7ACB7"/>
<path d="M100.721 108.797C99.4902 108.797 98.4469 108.371 97.5999 107.81C97.1438 107.509 96.7452 107.168 96.4043 106.834C96.2787 106.711 96.1616 106.589 96.0522 106.47C87.8764 105.797 85.6178 103.586 85.6191 99.6699C85.6209 96.0626 87.5401 91.0075 88.5178 84.3735C88.8437 82.1637 88.9838 80.0895 88.9829 78.1553C88.982 75.5466 88.7262 73.1935 88.3271 71.1075C88.5694 72.2434 90.3751 81.0935 89.6673 89.9332C89.2772 94.8156 85.2453 101.023 89.5922 103.149C93.9396 105.274 100.669 105.66 100.669 105.66C100.669 105.66 97.7183 106.408 100.382 107.251C100.681 107.346 101.046 107.404 101.453 107.404C102.283 107.404 103.284 107.166 104.247 106.522C103.528 107.782 102.617 108.583 101.495 108.742C101.229 108.779 100.972 108.797 100.721 108.797Z" fill="#9AA1C6"/>
<path d="M79.3858 56.4941C81.3575 57.4274 84.041 58.8204 84.6602 59.7519C86.6866 62.7989 91.1894 71.309 89.2471 84.4831C88.7965 87.5374 88.1515 90.2499 87.5824 92.6428C86.4795 97.2791 85.6827 100.629 87.1725 102.69C88.3829 104.365 91.2237 105.333 96.1117 105.736L96.3974 105.759L96.5922 105.971C98.0662 107.567 99.6807 108.254 101.392 108.01C104.316 107.595 106.041 100.785 105.588 91.4507C105.113 81.6586 102.318 73.1884 97.2792 66.2757C92.5784 59.8262 87.6416 57.1459 86.6997 56.674C84.408 55.5254 81.3141 56.0027 79.3858 56.4941ZM100.732 109.535C98.9376 109.536 97.2205 108.734 95.7103 107.184C90.4626 106.722 87.4554 105.599 85.9796 103.558C84.0925 100.947 84.9549 97.3199 86.1491 92.3001C86.7114 89.9362 87.3483 87.2577 87.7894 84.2669C89.6571 71.601 85.3658 63.4766 83.4344 60.5714C83.0159 59.9418 79.7809 58.2483 77.0237 57.0403L75.4023 56.33L77.0472 55.6763C77.2967 55.5771 83.2057 53.2716 87.3582 55.3522C88.3535 55.8509 93.5669 58.679 98.4684 65.404C103.68 72.5542 106.571 81.2933 107.06 91.3786C107.463 99.6933 106.24 108.814 101.599 109.474C101.308 109.515 101.019 109.535 100.732 109.535Z" fill="#371B45"/>
<path d="M100.681 120.911C100.428 122.52 100.92 127.933 94.4193 130.731C91.4339 132.018 86.9731 132.753 80.2839 132.314C59.0371 130.923 31.9225 130.142 26.1469 126.598C22.9815 124.658 20.4851 122.481 18.9153 119.126C17.7765 118.786 17.0901 117.601 17.2574 116.472C17.3861 115.592 18.0338 114.747 19.3871 114.357C20.1141 113.291 20.7317 111.749 21.448 110.213C22.7756 107.378 24.4484 104.567 27.8133 104.808C27.8133 104.808 49.3521 113.929 59.4683 116.938C60.4397 117.227 61.3084 117.459 62.0393 117.622C62.3697 117.622 62.6979 117.618 63.0238 117.607C78.3774 117.132 90.9963 105.793 97.7651 112.882C99.0668 114.246 100.073 116.364 100.504 118.27C100.727 119.251 100.798 120.173 100.681 120.911Z" fill="#3EA4F7"/>
<path d="M94.4193 130.731C91.4339 132.018 86.9731 132.753 80.2839 132.314C59.0371 130.923 31.9225 130.142 26.1469 126.598C22.9815 124.658 20.4851 122.481 18.9153 119.126C17.7765 118.786 17.0901 117.601 17.2574 116.472C17.3861 115.592 18.0338 114.747 19.3871 114.357C20.1141 113.291 20.7317 111.749 21.448 110.213C22.707 111.691 24.3733 113.121 26.237 113.372C31.5664 114.084 35.0386 111.518 35.444 111.205C35.0431 111.538 31.9267 114.312 35.5471 117.039C37.6873 118.653 55.6227 120.373 55.6227 120.373C55.6227 120.373 57.4651 118.685 59.4683 116.938C60.4397 117.227 61.3084 117.459 62.0393 117.622C62.3697 117.622 62.6979 117.618 63.0238 117.607C62.6314 122.797 68.3556 124.539 72.2586 122.943C76.709 121.124 74.6886 118.382 74.6886 118.382C74.6886 118.382 88.457 115.134 88.6843 115.392C88.8132 115.538 91.8502 123.745 94.4193 130.731Z" fill="#227BDD"/>
<path d="M63.1341 119.326C60.267 119.461 58.2145 119.347 56.9082 119.21C57.6441 118.545 58.6217 117.674 59.6279 116.797C60.6829 116.478 61.9096 116.214 63.295 116.084C62.9582 117.322 62.9284 118.401 63.1341 119.326Z" fill="#227BDD"/>
<path d="M73.3111 117.121C73.0847 117.018 72.856 116.918 72.625 116.823C74.3444 116.361 76.0118 115.83 77.6259 115.283C77.5387 115.475 77.4578 115.677 77.3837 115.887C76.0769 116.322 74.7205 116.745 73.3111 117.121Z" fill="#C5E4FD"/>
<path d="M36.6598 109.656C31.7966 107.765 28.0763 106.35 26.9412 106.35C26.9266 106.35 26.9129 106.35 26.8991 106.351C26.1069 106.377 25.1176 106.632 24.2207 107.05C25.0599 106.129 26.0822 105.534 27.4235 105.534C27.4955 105.534 27.5689 105.535 27.6427 105.539C28.431 105.872 32.2194 107.468 37.0888 109.437C36.9432 109.507 36.8004 109.58 36.6598 109.656Z" fill="#C5E4FD"/>
<path d="M100.681 120.911C100.313 123.259 101.529 133.708 80.2839 132.314C59.0371 130.923 31.9225 130.142 26.1469 126.598C22.9815 124.657 20.4851 122.481 18.9153 119.126C17.7765 118.786 17.0901 117.601 17.2574 116.472C33.2952 119.549 63.3262 133.525 89.8189 122.253C94.1789 120.397 97.6982 119.102 100.504 118.27C100.727 119.251 100.798 120.173 100.681 120.911Z" fill="#227BDD"/>
<path d="M27.4227 105.533C24.3606 105.533 22.9616 108.635 21.6067 111.639C21.0786 112.81 20.5797 113.916 19.994 114.775L19.844 114.995L19.5881 115.068C18.5629 115.363 17.9722 115.995 17.9675 116.802C17.9634 117.537 18.4501 118.217 19.1248 118.419L19.4412 118.513L19.5813 118.813C20.9113 121.656 22.9894 123.796 26.5298 125.967C31.0393 128.733 49.6382 129.793 67.6247 130.819C71.8636 131.06 76.2462 131.31 80.33 131.577C88.4331 132.109 94.0863 130.96 97.1341 128.164C99.541 125.956 99.7471 123.247 99.8701 121.629C99.8949 121.307 99.9162 121.028 99.9523 120.797C100.242 118.95 99.1405 115.392 97.2326 113.394C93.6347 109.625 88.0267 111.613 80.9271 114.129C75.3304 116.113 68.9871 118.361 62.0389 118.361H61.958L61.8793 118.344C53.7628 116.541 29.7705 106.438 27.6419 105.538C27.568 105.535 27.4946 105.533 27.4227 105.533ZM83.9515 133.18C82.7704 133.18 81.531 133.137 80.2342 133.052C76.1563 132.784 71.7768 132.535 67.5411 132.294C48.5367 131.211 30.5862 130.187 25.7611 127.228C22.0693 124.963 19.8441 122.703 18.3799 119.717C17.2474 119.23 16.4869 118.074 16.4942 116.794C16.5023 115.386 17.4007 114.258 18.9139 113.733C19.3751 113.001 19.8082 112.041 20.2642 111.03C21.7247 107.792 23.5393 103.765 27.8641 104.071L27.9859 104.08L28.0984 104.128C28.3557 104.237 53.8504 115.015 62.1194 116.883C68.7846 116.866 74.9734 114.672 80.4363 112.736C87.7361 110.148 94.0406 107.914 98.2971 112.372C100.341 114.514 101.795 118.557 101.408 121.027C101.381 121.2 101.362 121.451 101.34 121.741C101.209 123.458 100.966 126.651 98.1285 129.254C95.2841 131.864 90.5245 133.18 83.9515 133.18Z" fill="#371B45"/>
<path d="M84.3442 122.944V125.108C84.3442 125.108 69.7093 131.679 42.0563 125.709C31.5862 123.448 31.2516 122.147 27.5071 121.119C22.7546 119.815 20.9381 119.533 18.9158 119.127C16.889 118.523 16.2971 115.245 19.3876 114.359C21.5603 113.77 27.6711 116.769 36.4759 119.767C48.477 123.855 65.4831 127.941 84.3442 122.944Z" fill="#83D3FF"/>
<path d="M66.0525 126.465C60.7831 126.465 55.783 125.9 51.1392 125.026C51.4416 124.907 51.7354 124.784 52.0224 124.655C56.8986 125.537 61.7006 125.977 66.4046 125.977C70.2218 125.977 73.9738 125.687 77.6486 125.107C77.6893 125.238 77.7313 125.368 77.7743 125.497C73.7515 126.174 69.8321 126.465 66.0525 126.465ZM29.8303 118.718C25.0249 116.909 21.5161 115.499 19.6545 115.499C19.4111 115.499 19.1958 115.523 19.0095 115.573C18.7503 115.648 18.5171 115.739 18.3086 115.843C18.5829 115.5 19.0156 115.233 19.5792 115.071C19.7121 115.036 19.8697 115.018 20.0511 115.018C21.5515 115.018 24.6589 116.193 28.4828 117.641C28.9613 117.821 29.4537 118.008 29.9605 118.199C29.9011 118.36 29.857 118.533 29.8303 118.718Z" fill="#DAF2FF"/>
<path d="M84.3446 124.25V125.108C84.3446 125.108 69.7096 131.679 42.0566 125.709C31.5865 123.448 31.2519 122.147 27.5074 121.119C22.7549 119.815 20.9384 119.533 18.9161 119.127C17.5949 118.733 16.8829 117.202 17.404 115.94C17.6678 116.606 18.2297 117.164 18.9825 117.378C21.0864 117.785 22.9758 118.067 27.917 119.37C31.8117 120.398 32.2009 121.506 43.0452 123.96C66.2577 129.213 78.8197 125.814 84.3446 124.25Z" fill="#37AEE2"/>
<path d="M19.0971 118.409C19.4036 118.471 19.7058 118.53 20.0147 118.59C21.7305 118.924 23.6755 119.302 27.7017 120.406C29.0172 120.767 29.9129 121.154 30.9502 121.602C32.9108 122.45 35.3507 123.505 42.2116 124.986C66.6771 130.269 80.9897 125.596 83.6077 124.607V123.897C73.6411 126.388 63.0195 126.644 52.0219 124.655C42.4385 122.922 34.373 119.87 28.4837 117.641C24.1975 116.019 20.8119 114.739 19.5801 115.072C18.5645 115.363 17.9738 115.996 17.9694 116.804C17.9657 117.528 18.4381 118.198 19.0971 118.409ZM64.1608 128.945C58.1854 128.945 50.712 128.333 41.9016 126.431C34.8996 124.919 32.3863 123.832 30.3669 122.959C29.3806 122.533 28.5287 122.165 27.3129 121.831C23.3405 120.742 21.4245 120.369 19.7343 120.04C19.4101 119.977 19.0932 119.916 18.7713 119.851L18.7061 119.835C17.3975 119.445 16.4887 118.196 16.4961 116.797C16.5039 115.306 17.5093 114.129 19.1853 113.648C20.8868 113.187 23.9425 114.343 29.0039 116.259C40.9695 120.787 60.9959 128.366 84.1565 122.23L85.0813 121.985V125.587L84.6455 125.782C84.4919 125.851 80.8044 127.48 73.6623 128.38C71.1239 128.7 67.9423 128.945 64.1608 128.945Z" fill="#371B45"/>
<path d="M47.7629 114.131C47.7629 114.131 42.6616 105.25 34.5039 111.715L47.7629 114.131Z" fill="#3EA4F7"/>
<path d="M35.2687 111.783C35.2104 111.783 35.1521 111.782 35.0938 111.78C36.6577 110.829 38.4065 110.094 40.1928 110.094C40.6507 110.094 41.1117 110.143 41.5723 110.248C42.2557 110.409 42.9066 110.678 43.5177 111.028C43.4775 111.131 43.4368 111.233 43.3948 111.335C42.4989 110.909 41.4778 110.628 40.3424 110.628C39.3281 110.628 38.223 110.852 37.0346 111.398C36.4782 111.654 35.8753 111.783 35.2687 111.783Z" fill="#C5E4FD"/>
<path d="M47.1242 114.5C45.8039 112.566 43.8761 110.789 41.5709 110.248C39.1762 109.7 36.7783 110.696 34.7321 112.004C34.5599 112.115 34.3298 112.065 34.22 111.891C34.1237 111.74 34.1513 111.545 34.2751 111.425C35.2361 110.495 36.3701 109.699 37.6715 109.18C41.9533 107.427 46.2491 110.024 48.4011 113.762C48.8449 114.613 47.6354 115.311 47.1242 114.5Z" fill="#371B45"/>
<path d="M55.1523 118.939C55.1523 118.939 62.3202 113.221 73.7477 117.738C73.7477 117.738 72.2335 118.633 65.2699 119.192C58.306 119.751 55.1523 118.939 55.1523 118.939Z" fill="#3EA4F7"/>
<path d="M63.1341 119.326C60.267 119.461 58.2145 119.347 56.9082 119.21C57.6441 118.545 58.6217 117.674 59.6279 116.797C60.6829 116.478 61.9096 116.214 63.295 116.084C62.9582 117.322 62.9284 118.401 63.1341 119.326Z" fill="#227BDD"/>
<path d="M54.694 118.36C60.1894 114.329 67.9363 114.445 73.8828 117.394C74.0663 117.484 74.1423 117.705 74.0528 117.889C73.9719 118.055 73.7834 118.134 73.613 118.081C72.0798 117.618 70.5335 117.253 68.9782 117.02C65.1357 116.427 61.1206 116.79 57.5769 118.423C56.8912 118.736 56.1906 119.113 55.579 119.54C54.8002 120.069 53.9704 118.969 54.694 118.36Z" fill="#371B45"/>
<path d="M63.8069 110.133C60.7916 118.121 55.9081 128.845 34.8286 126.466C33.0617 128.077 28.7358 127.172 30.7002 122.222C30.7238 122.158 30.7517 122.091 30.7796 122.024C30.1297 120.96 29.836 120.044 29.8038 119.285C29.673 116.194 33.8441 115.652 35.8366 117.977C46.219 115.418 43.4071 104.064 48.3398 97.4954C50.405 94.7421 57.6881 96.4691 60.7464 102.905L60.7893 103.007L62.7691 107.681L63.8069 110.133Z" fill="url(#paint14_linear_9421_41830)"/>
<path d="M63.8069 110.133C60.7916 118.121 55.9081 128.845 34.8286 126.466C33.0617 128.077 28.7358 127.172 30.7002 122.222C30.7238 122.158 30.7517 122.091 30.7796 122.024C30.1297 120.96 29.836 120.044 29.8038 119.285C29.673 116.194 33.8441 115.652 35.8366 117.977C46.219 115.418 43.4071 104.064 48.3398 97.4954C50.405 94.7421 57.6881 96.4691 60.7464 102.905L60.7893 103.007L62.7691 107.681L63.8069 110.133Z" fill="url(#paint15_linear_9421_41830)" fill-opacity="0.2"/>
<path d="M36.3297 119.389C34.9706 118.378 33.7841 118.036 32.8006 118.036C31.2784 118.036 30.2429 118.855 29.8038 119.286C29.8019 119.24 29.8009 119.194 29.8008 119.15C29.7982 117.431 31.1628 116.542 32.6933 116.542C33.8076 116.542 35.0094 117.013 35.8366 117.978C46.2191 115.419 43.4072 104.065 48.3399 97.4963C48.9695 96.6568 50.0841 96.2339 51.4162 96.2339C54.4536 96.2339 58.6206 98.4319 60.7464 102.905L60.7893 103.008C57.9426 99.542 54.2498 97.9052 51.7719 97.9052C51.2598 97.9052 50.7996 97.975 50.4096 98.1132C47.9475 98.9867 47.4304 104.794 44.8441 111.715C42.0475 119.193 36.3297 119.389 36.3297 119.389Z" fill="#ECEFF4"/>
<path d="M32.8324 127.197C31.5099 127.197 30.1992 126.372 30.1992 124.498C30.1992 123.863 30.3496 123.108 30.7003 122.224C31.7491 122.557 32.8836 123.059 33.5911 123.786C33.922 124.125 34.2316 124.265 34.5159 124.265C35.7937 124.265 36.5703 121.456 36.5703 121.456C36.5703 121.456 38.235 123.866 43.339 123.866C44.4563 123.866 45.7382 123.75 47.2041 123.469C58.157 121.365 59.6097 107.553 62.3099 107.553C62.4587 107.553 62.611 107.595 62.7692 107.683L63.807 110.135C62.9283 112.463 61.89 115.024 60.3392 117.425C59.9139 118.083 59.4501 118.728 58.9403 119.355C58.9398 119.355 58.9403 119.355 58.9398 119.355C57.6674 120.918 56.1076 122.357 54.1495 123.543C53.4878 123.944 52.7799 124.317 52.0228 124.656C51.7358 124.784 51.442 124.908 51.1396 125.027C50.1104 125.431 48.9931 125.777 47.7817 126.052C46.3945 126.368 44.883 126.592 43.2301 126.71C42.3554 126.772 41.4406 126.804 40.4855 126.804C38.7412 126.804 36.8618 126.697 34.8287 126.468C34.3094 126.941 33.569 127.197 32.8324 127.197Z" fill="url(#paint16_linear_9421_41830)"/>
<path d="M32.8324 127.197C31.5099 127.197 30.1992 126.372 30.1992 124.498C30.1992 123.863 30.3496 123.108 30.7003 122.224C31.7491 122.557 32.8836 123.059 33.5911 123.786C33.922 124.125 34.2316 124.265 34.5159 124.265C35.7937 124.265 36.5703 121.456 36.5703 121.456C36.5703 121.456 38.235 123.866 43.339 123.866C44.4563 123.866 45.7382 123.75 47.2041 123.469C58.157 121.365 59.6097 107.553 62.3099 107.553C62.4587 107.553 62.611 107.595 62.7692 107.683L63.807 110.135C62.9283 112.463 61.89 115.024 60.3392 117.425C59.9139 118.083 59.4501 118.728 58.9403 119.355C58.9398 119.355 58.9403 119.355 58.9398 119.355C57.6674 120.918 56.1076 122.357 54.1495 123.543C53.4878 123.944 52.7799 124.317 52.0228 124.656C51.7358 124.784 51.442 124.908 51.1396 125.027C50.1104 125.431 48.9931 125.777 47.7817 126.052C46.3945 126.368 44.883 126.592 43.2301 126.71C42.3554 126.772 41.4406 126.804 40.4855 126.804C38.7412 126.804 36.8618 126.697 34.8287 126.468C34.3094 126.941 33.569 127.197 32.8324 127.197Z" fill="url(#paint17_linear_9421_41830)" fill-opacity="0.2"/>
<path d="M64.1508 110.264C61.4203 120.535 54.7198 126.552 44.067 127.441C40.96 127.7 37.8276 127.654 34.7463 127.2L35.324 127.013C33.4907 128.675 30.139 128.033 29.576 125.48C29.2685 124.207 29.6308 122.867 30.1004 121.738L30.1509 122.411C29.373 121.141 28.677 119.39 29.3129 117.83C29.9891 116.151 32.0067 115.541 33.6439 115.898C34.6966 116.107 35.6887 116.66 36.4024 117.49L35.6603 117.252C43.3854 115.455 43.3303 107.836 45.4262 101.591C45.8484 100.342 46.3786 99.0895 47.0841 97.9576C47.5791 97.1222 48.2679 96.2505 49.2004 95.8942C50.5474 95.3199 52.0837 95.4142 53.4348 95.7578C56.9256 96.7024 59.7836 99.4281 61.0799 102.746C61.154 102.936 61.0605 103.151 60.8702 103.226C60.6971 103.294 60.5036 103.221 60.4146 103.064C59.5942 101.627 58.5433 100.35 57.2908 99.3343C56.0568 98.3357 54.614 97.5551 53.0772 97.1902C51.7592 96.8647 49.9815 96.8208 49.054 97.8434C44.9285 103.321 46.3062 111.595 40.8524 116.322C39.4706 117.513 37.763 118.275 36.0155 118.702C35.7344 118.773 35.4496 118.671 35.2733 118.464C34.7915 117.895 34.1013 117.492 33.3555 117.347C31.9166 117.028 30.3344 117.777 30.5503 119.397C30.6195 120.135 30.9678 120.916 31.4072 121.639C31.5348 121.849 31.5443 122.101 31.4578 122.313C31.1901 122.952 30.9909 123.612 30.945 124.241C30.8173 125.487 31.5221 126.442 32.7788 126.456C33.351 126.47 33.9494 126.271 34.3327 125.919C34.4887 125.753 34.7016 125.71 34.9108 125.732C37.9063 125.951 40.9274 126.159 43.9188 125.846C54.7853 124.734 59.2073 119.54 63.462 110.002C63.6464 109.609 64.2711 109.823 64.1508 110.264Z" fill="#371B45"/>
<path d="M67.0775 110.918C67.0775 110.918 64.8473 111.732 62.972 110.434C61.2792 109.261 61.7303 106.665 61.7303 106.665" fill="#C2C6D2"/>
<path d="M67.204 111.265C65.0597 112.46 61.6891 111.591 61.2032 108.944C61.0486 108.142 61.0943 107.368 61.3677 106.601C61.441 106.408 61.657 106.31 61.85 106.384C61.9996 106.44 62.086 106.578 62.0937 106.728C62.1687 107.372 62.2835 108.034 62.491 108.582C63.1468 110.421 65.3002 110.717 67.0001 110.567C67.3925 110.538 67.5475 111.08 67.204 111.265Z" fill="#371B45"/>
<path d="M47.6854 97.1541C49.8229 93.2417 54.3023 92.3437 58.1895 94.107C60.2872 95.0784 61.966 96.8186 63.2058 98.7052C63.3188 98.8752 63.2731 99.1046 63.1036 99.2179C62.9427 99.3253 62.7267 99.2877 62.6087 99.1377C61.721 98.0013 60.6958 96.985 59.5423 96.1926C56.174 93.86 51.4547 94.0051 49.1074 97.6568C49.0527 97.7397 49.0062 97.8127 48.9673 97.878C48.4633 98.6721 47.2714 97.999 47.6854 97.1541Z" fill="#371B45"/>
<path d="M36.5014 124.041C36.3513 125.096 35.9608 126.055 35.3863 126.951C34.833 127.763 33.6253 126.981 34.1374 126.141C34.4647 125.77 34.8443 125.45 35.13 125.024C35.389 124.669 35.6322 124.247 35.7958 123.849C35.9617 123.456 36.5565 123.621 36.5014 124.041Z" fill="#371B45"/>
<path d="M101.387 125.972C99.0926 130.527 93.5013 130.091 86.3619 132.753C84.1914 133.564 82.2654 127.97 80.9424 122.587C79.7885 117.894 79.0938 113.358 79.0938 113.358C84.0165 110.848 88.0185 111.185 91.2652 111.522C93.9194 111.797 96.0691 112.072 97.8057 110.792C97.8057 110.792 100.81 111.807 102.371 115.22C102.571 115.657 102.747 116.133 102.89 116.651C104.156 121.221 101.387 125.972 101.387 125.972Z" fill="url(#paint18_linear_9421_41830)"/>
<path d="M101.387 125.972C99.0926 130.527 93.5013 130.091 86.3619 132.753C84.1914 133.564 82.2654 127.97 80.9424 122.587C79.7885 117.894 79.0938 113.358 79.0938 113.358C84.0165 110.848 88.0185 111.185 91.2652 111.522C93.9194 111.797 96.0691 112.072 97.8057 110.792C97.8057 110.792 100.81 111.807 102.371 115.22C102.571 115.657 102.747 116.133 102.89 116.651C104.156 121.221 101.387 125.972 101.387 125.972Z" fill="url(#paint19_linear_9421_41830)" fill-opacity="0.2"/>
<path d="M87.7227 131.436C88.821 129.767 89.2576 127.047 88.8626 124.005C88.8323 123.77 88.7971 123.534 88.7564 123.296C90.2457 124.244 92.55 125.236 95.6851 125.252C95.6991 125.252 95.7136 125.252 95.7276 125.252C103.063 125.252 102.37 115.221 102.37 115.221H102.372C102.571 115.657 102.748 116.133 102.891 116.651C103.126 117.499 103.222 118.353 103.222 119.182C103.224 122.162 101.992 124.816 101.546 125.678C101.492 125.649 101.431 125.635 101.372 125.635C101.25 125.635 101.129 125.695 101.059 125.806C100.223 127.096 99.0381 128.007 97.6482 128.601C94.5153 129.861 91.0146 130.399 87.7227 131.436Z" fill="#9AA1C6"/>
<path d="M98.0239 111.089C96.2244 112.77 93.5653 112.524 91.0734 112.278C90.1283 112.185 89.2076 112.091 88.3668 112.103C86.0539 112.036 83.7528 112.367 81.5701 113.136C80.8618 113.382 80.1092 113.704 79.429 114.018L79.8236 113.247C80.3714 116.386 81.0209 119.539 81.7911 122.633C82.1789 124.18 82.6047 125.715 83.1141 127.207C83.6082 128.618 84.1813 130.142 85.0383 131.323C85.3145 131.666 85.5595 131.958 85.9089 132.028C85.9405 132.031 85.9712 132.03 86.0029 132.026C86.0133 132.027 86.0282 132.022 86.0436 132.017C86.0576 132.012 86.072 132.007 86.0838 132.007C89.8273 130.56 93.9893 130.073 97.6487 128.602C99.0386 128.008 100.223 127.096 101.06 125.807C101.171 125.631 101.408 125.582 101.581 125.699C101.725 125.799 101.778 125.983 101.717 126.14C101.131 127.761 99.7623 129.08 98.239 129.838C95.3028 131.279 92 131.692 88.9418 132.711C88.1874 132.948 87.4407 133.2 86.7057 133.478C86.1317 133.727 85.3877 133.652 84.8769 133.34C82.3602 131.818 80.968 125.814 80.2173 123.027C79.4407 119.856 78.8382 116.671 78.3627 113.439C78.3175 113.124 78.4883 112.828 78.7614 112.7C80.2313 111.914 81.8015 111.288 83.4351 110.927C86.6452 110.137 90.0677 110.6 93.2399 110.981C94.7975 111.138 96.271 111.197 97.5999 110.488C97.9732 110.293 98.343 110.793 98.0239 111.089Z" fill="#371B45"/>
<path d="M86.351 120.148L84.6383 116.129L80.5215 112.93C80.5215 112.93 86.2904 110.347 87.6075 112.499C88.1079 113.317 87.7535 114.133 87.1627 114.808C88.3488 114.751 89.5348 114.959 89.9136 115.915C90.9261 118.478 86.5128 120.086 86.351 120.148Z" fill="#EFF0F4"/>
<path d="M81.6184 113.083L84.9763 115.692C85.0505 115.75 85.1088 115.825 85.1458 115.913L86.6451 119.431C87.7503 118.944 88.986 118.154 89.3806 117.262C89.5479 116.884 89.5538 116.511 89.3992 116.119C89.1216 115.418 88.0436 115.32 87.1889 115.362C86.9669 115.374 86.7613 115.249 86.6646 115.049C86.5683 114.849 86.6008 114.61 86.7473 114.442C87.4858 113.599 87.3231 113.095 87.1364 112.79C86.4499 111.669 83.5353 112.37 81.6184 113.083ZM86.3576 120.699C86.1402 120.699 85.9314 120.575 85.8424 120.367L84.1858 116.48L80.1829 113.369C80.0292 113.249 79.9496 113.058 79.9727 112.865C79.9957 112.671 80.1187 112.505 80.2959 112.425C80.9318 112.14 86.5516 109.716 88.078 112.21C88.3252 112.614 88.5969 113.348 88.1715 114.281C89.6035 114.44 90.1906 115.115 90.4266 115.711C90.6923 116.384 90.6806 117.057 90.3909 117.712C89.6473 119.392 87.2675 120.396 86.5561 120.663C86.4914 120.687 86.4241 120.699 86.3576 120.699Z" fill="#371B45"/>
<path d="M88.3477 121.453C89.8678 127.032 88.6619 132.223 85.6538 133.047C82.6457 133.872 78.9746 130.017 77.4545 124.438C75.9339 118.86 77.1399 113.668 80.148 112.844C83.156 112.019 86.8272 115.874 88.3477 121.453Z" fill="url(#paint20_linear_9421_41830)"/>
<path d="M88.3477 121.453C89.8678 127.032 88.6619 132.223 85.6538 133.047C82.6457 133.872 78.9746 130.017 77.4545 124.438C75.9339 118.86 77.1399 113.668 80.148 112.844C83.156 112.019 86.8272 115.874 88.3477 121.453Z" fill="url(#paint21_linear_9421_41830)" fill-opacity="0.2"/>
<path d="M88.7556 123.295C88.6525 122.688 88.5169 122.072 88.3474 121.451C88.2154 120.967 88.0681 120.497 87.9062 120.043C88.0681 120.498 88.2159 120.967 88.3474 121.451C88.5174 122.072 88.653 122.688 88.7556 123.295Z" fill="#ECEFF4"/>
<path d="M88.8621 124.004C88.8313 123.769 88.7961 123.533 88.7559 123.295C88.7965 123.533 88.8318 123.769 88.8621 124.004Z" fill="#E1E3EE"/>
<path d="M87.5003 119.002C86.3192 116.227 84.6043 114.13 82.8438 113.223C84.6047 114.129 86.3196 116.226 87.5007 119.002L87.5003 119.002Z" fill="#FAFAFC"/>
<path d="M87.9068 120.043C87.7848 119.7 87.6541 119.365 87.5158 119.04C87.5163 119.04 87.5163 119.04 87.5163 119.04C87.5108 119.028 87.5054 119.015 87.5 119.002L87.5005 119.001C87.6442 119.339 87.7798 119.686 87.9068 120.043Z" fill="#B2B2D4"/>
<path d="M76.918 117.861C77.0161 117.147 77.172 116.484 77.3826 115.888V115.887C77.1724 116.484 77.0165 117.147 76.9184 117.861C76.918 117.861 76.918 117.861 76.918 117.861Z" fill="#C5E4FD"/>
<path d="M76.8175 120.563C76.7668 119.608 76.8021 118.699 76.9173 117.861C76.9173 117.861 76.9173 117.861 76.9178 117.861C76.8025 118.699 76.7673 119.606 76.8175 120.56C76.8175 120.561 76.8175 120.562 76.8175 120.563Z" fill="#BCD7F5"/>
<path d="M77.3828 115.889C77.4569 115.678 77.5378 115.477 77.6251 115.284C77.5378 115.477 77.4569 115.678 77.3828 115.888V115.889Z" fill="#EDF7FE"/>
<path d="M77.625 115.283C77.6377 115.256 77.6499 115.229 77.6625 115.202C77.6499 115.229 77.6372 115.256 77.625 115.283Z" fill="#B2B2D4"/>
<path d="M87.904 121.68C86.3627 117.358 83.5336 114.376 80.9798 114.376C80.6982 114.376 80.4202 114.413 80.1472 114.487C78.1878 115.025 76.9931 117.416 76.8191 120.561C76.7689 119.607 76.8042 118.699 76.9195 117.862C77.0175 117.147 77.1735 116.484 77.3837 115.888C77.4578 115.678 77.5387 115.476 77.6259 115.283C77.6381 115.256 77.6508 115.229 77.6635 115.203C78.2357 113.983 79.0782 113.138 80.1472 112.844C80.4207 112.769 80.6995 112.733 80.9816 112.733C81.5936 112.733 82.2214 112.904 82.8438 113.224C84.6044 114.13 86.3193 116.227 87.5004 119.003C87.5058 119.015 87.5112 119.028 87.5166 119.041C87.7155 119.942 87.8434 120.828 87.904 121.68Z" fill="#ECEFF4"/>
<path d="M87.7227 131.436C88.5656 130.155 89.0185 128.255 89.005 126.065C89.0009 125.402 88.9544 124.712 88.8626 124.005C89.2576 127.047 88.821 129.767 87.7227 131.436Z" fill="#7B81B5"/>
<path d="M85.9805 132.938C86.6716 132.663 87.256 132.144 87.722 131.437C87.2565 132.144 86.6716 132.663 85.9805 132.938Z" fill="#371B45"/>
<path d="M77.2638 123.682C77.2498 123.621 77.2358 123.561 77.2227 123.5C77.2236 123.503 77.2245 123.505 77.2258 123.508C77.2385 123.566 77.2516 123.624 77.2651 123.682H77.2638Z" fill="#1B62C8"/>
<path d="M78.8994 128.151C78.7977 127.957 78.6983 127.758 78.6016 127.555H78.602C78.6983 127.758 78.7977 127.957 78.8994 128.151Z" fill="#1B62C8"/>
<path d="M77.8711 125.781C77.8381 125.687 77.8055 125.592 77.7734 125.497H77.7739C77.8055 125.592 77.8385 125.687 77.8715 125.781H77.8711Z" fill="#69A9E3"/>
<path d="M77.7741 125.496C77.7312 125.367 77.6891 125.237 77.6484 125.106H77.6489C77.6896 125.237 77.7312 125.367 77.7745 125.496H77.7741Z" fill="#AEC2E3"/>
<path d="M78.0049 126.15C77.9597 126.029 77.9149 125.906 77.8711 125.782H77.8715C77.9149 125.906 77.9597 126.029 78.0053 126.15H78.0049Z" fill="#2C8BCC"/>
<path d="M78.6025 127.555C78.3892 127.106 78.1898 126.637 78.0068 126.15H78.0072C78.1903 126.637 78.3892 127.106 78.6029 127.555H78.6025ZM77.6497 125.107C77.581 124.886 77.5159 124.663 77.454 124.436C77.3848 124.184 77.3215 123.932 77.2637 123.682H77.265C77.3224 123.933 77.3857 124.185 77.4549 124.437C77.5163 124.663 77.5814 124.887 77.6501 125.107H77.6497Z" fill="#371B45"/>
<path d="M84.8214 133.156C82.7508 133.156 80.4985 131.196 78.8993 128.15C78.7976 127.956 78.6981 127.757 78.6019 127.555C78.3881 127.105 78.1892 126.637 78.0061 126.149C77.9605 126.028 77.9157 125.905 77.8723 125.781C77.8393 125.687 77.8063 125.592 77.7747 125.497C77.7313 125.368 77.6897 125.238 77.649 125.107C77.5803 124.886 77.5152 124.663 77.4538 124.437C77.3846 124.184 77.3213 123.933 77.2639 123.682C77.2504 123.624 77.2373 123.566 77.2246 123.508C78.8224 127.286 81.4092 129.818 83.7606 129.818C84.0421 129.818 84.3197 129.782 84.5922 129.708C86.9426 129.064 88.1929 125.755 87.9031 121.679C88.0663 122.137 88.215 122.61 88.3475 123.096C88.71 124.425 88.9179 125.733 88.9825 126.965C88.9988 126.671 89.006 126.371 89.0042 126.065C89.0178 128.254 88.5649 130.154 87.7219 131.435C87.2559 132.143 86.6714 132.661 85.9803 132.936C85.8741 132.979 85.7652 133.015 85.654 133.046C85.3814 133.12 85.103 133.156 84.8214 133.156Z" fill="#9AA1C6"/>
<path d="M88.7565 123.295C88.756 123.295 88.7556 123.295 88.7551 123.294C88.6525 122.688 88.5169 122.072 88.3479 121.451C88.2163 120.968 88.0685 120.498 87.9062 120.043C87.9067 120.043 87.9067 120.043 87.9072 120.043C88.069 120.497 88.2163 120.967 88.3483 121.451C88.5178 122.072 88.6534 122.688 88.7565 123.295Z" fill="#BDBFDA"/>
<path d="M89.0039 126.065C88.998 125.181 88.9166 124.25 88.7539 123.294C88.7544 123.295 88.7548 123.295 88.7553 123.295C88.7955 123.533 88.8308 123.769 88.8615 124.004C88.9532 124.711 88.9998 125.401 89.0039 126.065Z" fill="#B4B6D5"/>
<path d="M87.9057 120.043C87.7837 119.7 87.6535 119.365 87.5161 119.04C87.5161 119.039 87.5161 119.039 87.5156 119.039C87.6539 119.365 87.7846 119.699 87.9066 120.043C87.9062 120.043 87.9062 120.043 87.9057 120.043Z" fill="#8E8EC0"/>
<path d="M88.9824 126.965C88.9177 125.732 88.7098 124.425 88.3473 123.096C88.2149 122.61 88.0662 122.136 87.903 121.679C87.8424 120.827 87.7145 119.941 87.5156 119.04C87.653 119.365 87.7832 119.7 87.9053 120.043C88.0675 120.498 88.2153 120.968 88.3469 121.451C88.5159 122.072 88.6515 122.688 88.7541 123.294C88.9168 124.25 88.9982 125.181 89.0041 126.064C89.0059 126.371 88.9986 126.671 88.9824 126.965Z" fill="#BDBFDA"/>
<path d="M86.3732 128.487C85.9058 129.687 84.8934 130.487 83.1265 130.074C82.7423 129.984 82.1529 129.678 81.5391 129.128C82.5624 129.749 83.611 129.977 84.591 129.708C85.2862 129.517 85.8842 129.095 86.3732 128.487Z" fill="#D7DAE2"/>
<path d="M33.592 123.785C33.592 123.785 33.1192 123.202 32.4536 122.754C31.5634 122.154 30.6937 121.894 30.0039 120.375" fill="#F4DE3D"/>
<path d="M33.3058 124.017C32.4101 123.082 31.0856 122.84 30.1687 121.868C29.8249 121.507 29.551 121.096 29.333 120.68C29.1349 120.317 29.2719 119.86 29.6373 119.668C29.9984 119.477 30.445 119.617 30.6348 119.979C30.7817 120.346 30.9387 120.71 31.1618 121.008C31.6181 121.658 32.3551 121.968 32.9781 122.53C33.3198 122.845 33.606 123.17 33.8772 123.551C34.1389 123.927 33.6182 124.349 33.3058 124.017Z" fill="#371B45"/>
<path d="M71.4789 119.607C70.5108 119.607 69.0589 119.315 67.7734 118.954C69.5155 118.758 70.777 118.546 71.6787 118.354C72.2623 118.63 72.58 118.918 72.5796 119.123C72.5787 119.47 72.142 119.607 71.4789 119.607Z" fill="#C5E4FD"/>
<path d="M67.774 118.953C66.1983 118.511 64.8721 117.967 64.9919 117.736C65.08 117.565 65.7413 117.451 66.7018 117.451C67.5222 117.451 68.5605 117.534 69.6471 117.736C70.495 117.893 71.1834 118.119 71.6793 118.353C70.7775 118.545 69.516 118.757 67.774 118.953Z" fill="#C5E4FD"/>
<path d="M96.0508 106.473C96.0508 106.473 96.7487 106.468 97.9465 106.304C99.0787 106.149 99.5773 105.839 100.668 105.662" fill="#C2C6D2"/>
<path d="M96.0468 105.734C96.7641 105.775 97.5736 105.756 98.2828 105.69C99.0381 105.606 99.8282 105.353 100.611 105.297C101.059 105.262 101.166 105.916 100.73 106.026C99.9584 106.207 99.2822 106.56 98.4944 106.77C97.6586 106.979 96.9002 107.124 96.0486 107.212C94.9913 107.257 94.9873 105.692 96.0468 105.734Z" fill="#371B45"/>
<path d="M82.7793 57.1614C82.7793 57.1614 84.0377 59.6377 84.9177 61.586L82.7793 57.1614Z" fill="#C2C6D2"/>
<path d="M83.1072 56.9943C83.9569 58.4077 84.7904 59.8224 85.5887 61.2815C85.7848 61.6401 85.6542 62.0907 85.2962 62.2874C84.9052 62.5072 84.3963 62.3141 84.2467 61.8912C83.6884 60.3663 83.0746 58.8401 82.45 57.327C82.2805 56.9077 82.873 56.609 83.1072 56.9943Z" fill="#371B45"/>
<path d="M36.4872 117.626C36.6015 117.968 36.6838 118.324 36.7254 118.673C36.7683 119.023 36.7728 119.367 36.7557 119.698C36.7448 119.906 36.5685 120.065 36.362 120.054C36.2029 120.046 36.0722 119.94 36.0252 119.796C35.8268 119.223 35.5511 118.732 35.1899 118.326C34.431 117.334 36.0722 116.444 36.4872 117.626Z" fill="#371B45"/>
<path d="M83.1295 130.074C82.0949 129.834 79.5506 128.006 79.1347 124.084C78.8482 121.383 80.6132 122.229 81.2325 123.24C81.7166 124.03 82.211 124.285 82.8108 124.355C83.4834 124.433 83.9038 123.798 84.3052 123.196C84.5194 122.875 84.9547 122.877 85.1798 122.945C87.1632 123.548 87.8742 131.18 83.1295 130.074Z" fill="#EFF0F4"/>
<path d="M86.3732 128.487C85.9058 129.687 84.8934 130.487 83.1265 130.074C82.7423 129.984 82.1529 129.678 81.5391 129.128C82.5624 129.749 83.611 129.977 84.591 129.708C85.2862 129.517 85.8842 129.095 86.3732 128.487Z" fill="#D7DAE2"/>
<path d="M80.2456 119.763C80.2899 120.486 79.9369 120.983 79.4573 120.874C78.9773 120.764 78.5524 120.088 78.5077 119.365C78.4634 118.642 78.8164 118.144 79.296 118.254C79.776 118.364 80.2009 119.039 80.2456 119.763Z" fill="#EFF0F4"/>
<path d="M85.6851 120.376C85.7294 121.099 85.3763 121.597 84.8968 121.487C84.4167 121.377 83.9919 120.702 83.9471 119.979C83.9028 119.255 84.2558 118.758 84.7354 118.867C85.2154 118.977 85.6403 119.652 85.6851 120.376Z" fill="#EFF0F4"/>
<path d="M83.1437 118.431C83.2015 119.37 82.7432 120.015 82.1204 119.873C81.4975 119.731 80.9456 118.854 80.8877 117.915C80.8299 116.976 81.2882 116.33 81.9111 116.472C82.5344 116.615 83.0858 117.491 83.1437 118.431Z" fill="#EFF0F4"/>
<path d="M80.9882 113.469C80.7685 113.469 80.5524 113.497 80.3418 113.555C77.7744 114.259 76.7773 119.153 78.1645 124.242C79.4373 128.913 82.3568 132.419 84.8125 132.419C85.0327 132.419 85.2483 132.391 85.4589 132.333C86.6409 132.009 87.5363 130.777 87.9811 128.864C88.4625 126.792 88.34 124.228 87.6362 121.646C86.3634 116.975 83.4443 113.469 80.9882 113.469ZM84.8162 133.897C81.6314 133.897 78.2332 130.1 76.743 124.632C75.0904 118.568 76.5007 113.076 79.9535 112.13C83.4068 111.184 87.4052 115.193 89.0577 121.256C89.8248 124.071 89.9518 126.892 89.4157 129.199C88.843 131.666 87.5756 133.285 85.8476 133.759C85.5082 133.852 85.1633 133.897 84.8162 133.897Z" fill="#371B45"/>
<path d="M123.727 106.689C126.395 105.606 129.556 105.806 131.692 107.87C132.033 108.177 131.614 108.71 131.237 108.447C130.363 107.774 129.388 107.337 128.294 107.23C126.962 107.107 125.567 107.402 124.38 108.014C123.471 108.48 122.802 107.134 123.727 106.689Z" fill="#371B45"/>
<path d="M130.748 112.035L125.153 121.855L122.753 126.069C119.386 126.028 117.533 130.398 114.202 131.557C110.822 132.734 110.222 129.669 110.222 129.669C110.222 129.669 107.451 128.746 108.032 121.418C108.075 120.862 108.139 120.27 108.225 119.638C108.536 117.337 104.569 116.541 105.459 114.495C110.072 103.883 125.822 100.978 130.748 112.035Z" fill="url(#paint22_linear_9421_41830)"/>
<path d="M130.748 112.035L125.153 121.855L122.753 126.069C119.386 126.028 117.533 130.398 114.202 131.557C110.822 132.734 110.222 129.669 110.222 129.669C110.222 129.669 107.451 128.746 108.032 121.418C108.075 120.862 108.139 120.27 108.225 119.638C108.536 117.337 104.569 116.541 105.459 114.495C110.072 103.883 125.822 100.978 130.748 112.035Z" fill="url(#paint23_linear_9421_41830)" fill-opacity="0.2"/>
<path d="M116.355 129.297C116.47 129.098 116.578 128.89 116.68 128.675C117.389 127.164 117.773 125.248 117.705 123.098C117.68 122.309 117.596 121.529 117.459 120.771C118.099 121.925 118.943 123.15 119.718 123.356C120.16 123.473 120.549 123.523 120.903 123.523C122.442 123.523 123.327 122.558 125.153 121.857L122.919 125.777C122.777 125.676 122.549 125.649 122.317 125.649C122.077 125.649 121.834 125.678 121.676 125.685C120.619 125.823 119.631 126.413 118.834 127.046C117.906 127.767 117.16 128.574 116.355 129.297Z" fill="#9AA1C6"/>
<path d="M114.816 118.553L112.08 113.783L106.85 112.322C106.85 112.322 109.936 108.149 112.735 109.627C113.441 110 114.053 111.006 113.927 112.309C115.251 111.825 116.368 112.224 116.873 112.937C119.006 115.949 114.978 118.491 114.816 118.553Z" fill="#EFF0F4"/>
<path d="M107.827 112.02L112.228 113.25C112.367 113.289 112.486 113.381 112.559 113.508L115.002 117.766C115.609 117.305 116.62 116.368 116.878 115.274C117.042 114.582 116.893 113.923 116.422 113.258C116.067 112.756 115.216 112.429 114.116 112.831C113.937 112.896 113.738 112.864 113.588 112.748C113.438 112.631 113.359 112.446 113.377 112.256C113.482 111.169 112.984 110.386 112.477 110.118C110.744 109.203 108.758 111.003 107.827 112.02ZM114.816 119.107C114.623 119.107 114.438 119.006 114.337 118.83L111.713 114.257L106.701 112.856C106.526 112.807 106.386 112.675 106.327 112.503C106.268 112.33 106.297 112.139 106.406 111.993C106.543 111.806 109.811 107.457 112.992 109.137C113.7 109.511 114.365 110.385 114.479 111.591C115.781 111.375 116.817 111.902 117.323 112.617C118.03 113.614 118.222 114.67 117.893 115.754C117.308 117.685 115.219 118.993 115.012 119.071C114.948 119.096 114.881 119.107 114.816 119.107Z" fill="#371B45"/>
<path d="M130.412 112.185C128.912 109.622 126.831 107.539 124.076 106.516C117.391 104.084 109.477 108.012 106.459 114.28C106.344 114.564 106.099 114.898 106.157 115.185C106.341 115.712 106.843 116.048 107.331 116.506C107.718 116.853 108.145 117.225 108.517 117.756C108.911 118.289 109.145 119.109 109.027 119.775L108.931 120.516C108.789 121.733 108.706 123 108.76 124.208C108.852 125.857 109.127 128.017 110.454 128.969L110.944 129.527C110.948 129.544 110.968 129.623 110.986 129.675C111.514 131.372 113.141 131.327 114.526 130.614C116.218 129.727 117.265 128.262 118.833 127.045C119.63 126.412 120.618 125.822 121.675 125.684C122.095 125.665 123.129 125.489 123.062 126.128C123.035 126.293 122.904 126.415 122.747 126.437C121.579 126.638 120.672 127.324 119.775 128.158C118.411 129.443 116.987 131.068 115.182 131.949C112.822 133.139 110.205 132.651 109.498 129.812L109.989 130.371C106.829 128.877 107.017 123.277 107.323 120.335C107.343 120.055 107.484 119.384 107.392 119.123C106.841 117.726 104.96 117.197 104.565 115.559C104.326 114.547 104.941 113.689 105.359 112.845C107.418 109.063 111.021 106.228 115.112 104.97C121.353 102.93 128.961 105.177 131.084 111.884C131.21 112.311 130.635 112.557 130.412 112.185Z" fill="#371B45"/>
<path d="M117.703 123.098C117.88 128.716 114.975 132.74 111.215 132.087C107.455 131.433 104.263 126.348 104.086 120.73C103.909 115.112 106.814 111.087 110.574 111.741C114.335 112.395 117.527 117.48 117.703 123.098Z" fill="url(#paint24_linear_9421_41830)"/>
<path d="M117.703 123.098C117.88 128.716 114.975 132.74 111.215 132.087C107.455 131.433 104.263 126.348 104.086 120.73C103.909 115.112 106.814 111.087 110.574 111.741C114.335 112.395 117.527 117.48 117.703 123.098Z" fill="url(#paint25_linear_9421_41830)" fill-opacity="0.2"/>
<path d="M117.044 119.043C116.917 118.62 116.774 118.208 116.615 117.807V117.807C116.774 118.207 116.917 118.62 117.044 119.043Z" fill="#ECEFF4"/>
<path d="M104.441 117.086C104.528 116.73 104.63 116.386 104.745 116.057L104.745 116.057C104.63 116.386 104.528 116.73 104.441 117.086Z" fill="#ECEFF4"/>
<path d="M116.122 116.697C114.801 114.041 112.787 112.125 110.576 111.741C110.307 111.694 110.042 111.672 109.783 111.672C109.149 111.672 108.545 111.808 107.985 112.064H107.984C108.545 111.808 109.148 111.671 109.782 111.671C110.042 111.671 110.306 111.694 110.576 111.741C112.787 112.125 114.802 114.041 116.122 116.697C116.122 116.697 116.122 116.697 116.122 116.697Z" fill="#FAFAFC"/>
<path d="M116.616 117.807C116.464 117.425 116.299 117.053 116.122 116.696C116.122 116.696 116.122 116.696 116.122 116.696C116.299 117.053 116.465 117.424 116.616 117.806V117.807ZM107.689 112.211C107.689 112.211 107.689 112.211 107.69 112.21C107.786 112.158 107.885 112.108 107.984 112.063H107.984C107.885 112.109 107.786 112.158 107.689 112.211Z" fill="#B2B2D4"/>
<path d="M104.745 116.059L104.744 116.058C105.371 114.27 106.405 112.916 107.69 112.212C107.69 112.212 107.69 112.212 107.69 112.213C106.405 112.916 105.371 114.27 104.745 116.059Z" fill="#B2B2D4"/>
<path d="M117.694 124.336C117.694 124.335 117.693 124.333 117.693 124.331C117.696 124.269 117.699 124.207 117.702 124.144C117.699 124.208 117.697 124.272 117.694 124.336ZM117.704 123.097C117.661 121.738 117.443 120.411 117.08 119.172C117.093 119.353 117.101 119.533 117.108 119.714C117.119 120.061 117.118 120.401 117.106 120.735C115.988 116.803 113.449 113.721 110.575 113.221C110.307 113.174 110.042 113.151 109.783 113.151C106.689 113.151 104.332 116.398 104.099 120.973C104.094 120.893 104.09 120.811 104.088 120.729C104.054 119.664 104.131 118.656 104.304 117.727C104.345 117.509 104.39 117.296 104.441 117.087C104.528 116.731 104.629 116.387 104.745 116.058C105.371 114.27 106.405 112.916 107.69 112.213C107.787 112.159 107.885 112.11 107.985 112.064C108.545 111.808 109.148 111.672 109.783 111.672C110.042 111.672 110.307 111.695 110.576 111.741C112.787 112.126 114.801 114.042 116.122 116.698C116.3 117.055 116.465 117.426 116.616 117.808C116.775 118.208 116.918 118.62 117.045 119.044C117.428 120.321 117.66 121.692 117.704 123.097Z" fill="#ECEFF4"/>
<path d="M110.964 132.037C109.145 131.623 107.475 130.178 106.234 128.152H106.235C107.475 130.177 109.145 131.622 110.963 132.036C110.964 132.036 110.964 132.037 110.964 132.037Z" fill="#947BCC"/>
<path d="M106.234 128.152C106.071 127.885 105.915 127.608 105.768 127.322C105.915 127.608 106.071 127.885 106.235 128.152H106.234Z" fill="#371B45"/>
<path d="M116.355 129.297C116.47 129.098 116.578 128.89 116.68 128.675C116.578 128.89 116.47 129.098 116.356 129.297C116.355 129.297 116.355 129.297 116.355 129.297Z" fill="#7B81B5"/>
<path d="M112.01 132.156C111.75 132.156 111.485 132.134 111.216 132.087C111.132 132.072 111.048 132.055 110.964 132.036C110.964 132.036 110.963 132.035 110.963 132.035C111.047 132.054 111.131 132.072 111.216 132.086C111.485 132.133 111.75 132.156 112.01 132.156C113.791 132.156 115.327 131.081 116.354 129.296C116.354 129.296 116.354 129.296 116.355 129.296C115.327 131.081 113.791 132.156 112.01 132.156Z" fill="#371B45"/>
<path d="M112.009 132.156C111.75 132.156 111.485 132.133 111.216 132.087C111.131 132.072 111.047 132.055 110.963 132.036C109.144 131.621 107.474 130.176 106.234 128.152C106.071 127.884 105.915 127.608 105.767 127.321C104.861 125.568 104.261 123.475 104.115 121.28C105.247 125.168 107.77 128.207 110.618 128.702C110.887 128.748 111.152 128.772 111.411 128.772C114.556 128.772 116.935 125.424 117.105 120.735C117.429 121.876 117.634 123.089 117.692 124.331C117.609 125.982 117.249 127.459 116.679 128.674C116.577 128.89 116.468 129.098 116.354 129.296C115.326 131.081 113.79 132.156 112.009 132.156ZM117.701 124.143C117.713 123.802 117.714 123.452 117.704 123.097C117.715 123.452 117.714 123.802 117.701 124.143Z" fill="#9AA1C6"/>
<path d="M117.693 124.33C117.635 123.088 117.43 121.875 117.106 120.734C117.118 120.4 117.118 120.06 117.108 119.713C117.101 119.532 117.093 119.352 117.08 119.171C117.443 120.41 117.661 121.737 117.704 123.096C117.715 123.451 117.714 123.801 117.702 124.142C117.699 124.205 117.696 124.268 117.693 124.33Z" fill="#BDBFDA"/>
<path d="M115.366 126.523C115.113 128.596 113.933 130.478 111.278 130.209C110.427 130.123 108.692 129.23 107.568 127.127C108.499 127.957 109.535 128.514 110.618 128.701C112.511 129.03 114.189 128.174 115.366 126.523Z" fill="#A7ACB7"/>
<path d="M109.789 112.412C108.884 112.412 108.029 112.745 107.285 113.392C105.644 114.822 104.723 117.557 104.822 120.707C104.988 125.985 107.913 130.763 111.341 131.359C112.488 131.558 113.582 131.239 114.504 130.437C116.146 129.006 117.067 126.272 116.967 123.121C116.801 117.844 113.877 113.065 110.449 112.469C110.226 112.431 110.006 112.412 109.789 112.412ZM112.017 132.897C111.712 132.897 111.402 132.869 111.089 132.815C106.939 132.093 103.54 126.796 103.35 120.754C103.237 117.165 104.347 113.996 106.319 112.277C107.586 111.172 109.102 110.736 110.7 111.014C114.85 111.735 118.25 117.033 118.44 123.075C118.553 126.664 117.443 129.833 115.471 131.552C114.451 132.44 113.272 132.897 112.017 132.897Z" fill="#371B45"/>
<path d="M111.28 130.211C110.073 130.089 107.099 128.352 106.591 123.849C106.24 120.75 108.301 121.463 109.029 122.545C109.597 123.39 110.175 123.612 110.874 123.601C111.657 123.589 112.143 122.785 112.607 122.022C112.854 121.616 113.362 121.551 113.624 121.597C115.938 121.994 116.813 130.771 111.28 130.211Z" fill="#EFF0F4"/>
<path d="M115.366 126.523C115.113 128.596 113.933 130.478 111.278 130.209C110.427 130.123 108.692 129.23 107.568 127.127C108.499 127.957 109.535 128.514 110.618 128.701C112.511 129.03 114.189 128.174 115.366 126.523Z" fill="#D7DAE2"/>
<path d="M107.858 118.647C107.914 119.482 107.506 120.115 106.946 120.061C106.387 120.007 105.887 119.286 105.831 118.451C105.775 117.616 106.183 116.982 106.743 117.036C107.302 117.091 107.801 117.811 107.858 118.647Z" fill="#EFF0F4"/>
<path d="M114.195 118.528C114.252 119.363 113.843 119.996 113.284 119.942C112.724 119.888 112.225 119.167 112.169 118.332C112.113 117.496 112.521 116.863 113.081 116.918C113.64 116.972 114.139 117.692 114.195 118.528Z" fill="#EFF0F4"/>
<path d="M111.225 116.652C111.298 117.736 110.769 118.559 110.042 118.488C109.316 118.418 108.667 117.482 108.595 116.398C108.521 115.313 109.051 114.491 109.778 114.561C110.504 114.632 111.152 115.568 111.225 116.652Z" fill="#EFF0F4"/>
<path d="M27.0377 53.1973C26.7853 53.1973 26.5462 53.0668 26.4105 52.8456C26.2496 52.5836 26.2676 52.249 26.4557 52.0056L31.7597 45.1491L25.2079 46.4292C24.8085 46.5076 24.4216 46.2461 24.3438 45.8454C24.266 45.4451 24.5266 45.0571 24.926 44.9791L33.4029 43.3228C33.7053 43.2643 34.0104 43.3985 34.1713 43.6605C34.3322 43.923 34.3141 44.2575 34.1261 44.5009L28.8221 51.357L34.7395 50.2011C35.1391 50.1226 35.5255 50.3842 35.6033 50.7849C35.681 51.1856 35.4206 51.5736 35.0211 51.6516L27.1788 53.1837C27.1316 53.1928 27.0844 53.1973 27.0377 53.1973Z" fill="#371B45"/>
<path d="M42.4613 39.8733C42.4066 39.8733 42.3505 39.8669 42.2949 39.8543L35.9773 38.3919C35.6781 38.3226 35.453 38.0746 35.4128 37.7696C35.3721 37.4645 35.5244 37.1662 35.7952 37.0207L41.659 33.8708L36.7412 32.7326C36.3448 32.641 36.0975 32.2444 36.1889 31.8468C36.2806 31.4493 36.6761 31.2023 37.0725 31.2929L43.9014 32.8731C44.2001 32.9424 44.4252 33.1904 44.4659 33.4955C44.5066 33.8005 44.3543 34.0988 44.0835 34.2443L38.2197 37.3947L42.6263 38.4141C43.0227 38.5062 43.2699 38.9028 43.1786 39.3003C43.1 39.6421 42.7967 39.8733 42.4613 39.8733Z" fill="#371B45"/>
<path d="M36.2526 24.926H31.0701C30.7631 24.926 30.4883 24.7351 30.3804 24.4468C30.2725 24.1585 30.354 23.8335 30.5851 23.6309L34.2909 20.3803H30.6507C30.2439 20.3803 29.9141 20.0499 29.9141 19.6415C29.9141 19.2335 30.2439 18.9031 30.6507 18.9031H36.2526C36.5595 18.9031 36.8343 19.0939 36.9423 19.3817C37.0499 19.67 36.9685 19.995 36.7376 20.1977L33.0316 23.4482H36.2526C36.6594 23.4482 36.9893 23.7791 36.9893 24.1871C36.9893 24.5951 36.6594 24.926 36.2526 24.926Z" fill="#371B45"/>
<defs>
<linearGradient id="paint0_linear_9421_41830" x1="102.895" y1="127.477" x2="184.325" y2="-157.121" gradientUnits="userSpaceOnUse">
<stop stop-color="#9D9FE6"/>
<stop offset="0.163505" stop-color="#CFC0FF"/>
<stop offset="1" stop-color="#8E00FF"/>
</linearGradient>
<linearGradient id="paint1_linear_9421_41830" x1="99.8817" y1="-9.54448" x2="193.578" y2="25.1585" gradientUnits="userSpaceOnUse">
<stop stop-color="white" stop-opacity="0"/>
<stop offset="1" stop-color="#8E00FF"/>
</linearGradient>
<linearGradient id="paint2_linear_9421_41830" x1="35.2254" y1="98.0098" x2="126.114" y2="-131.895" gradientUnits="userSpaceOnUse">
<stop stop-color="#9D9FE6"/>
<stop offset="0.163505" stop-color="#CFC0FF"/>
<stop offset="1" stop-color="#8E00FF"/>
</linearGradient>
<linearGradient id="paint3_linear_9421_41830" x1="33.3423" y1="-20.2934" x2="95.4599" y2="-3.64205" gradientUnits="userSpaceOnUse">
<stop stop-color="white" stop-opacity="0"/>
<stop offset="1" stop-color="#8E00FF"/>
</linearGradient>
<linearGradient id="paint4_linear_9421_41830" x1="59.2614" y1="119.815" x2="165.229" y2="-240.827" gradientUnits="userSpaceOnUse">
<stop stop-color="#9D9FE6"/>
<stop offset="0.163505" stop-color="#CFC0FF"/>
<stop offset="1" stop-color="#8E00FF"/>
</linearGradient>
<linearGradient id="paint5_linear_9421_41830" x1="55.5276" y1="-54.5357" x2="172.352" y2="-12.4013" gradientUnits="userSpaceOnUse">
<stop stop-color="white" stop-opacity="0"/>
<stop offset="1" stop-color="#8E00FF"/>
</linearGradient>
<linearGradient id="paint6_linear_9421_41830" x1="58.7684" y1="115.944" x2="138.203" y2="-191.596" gradientUnits="userSpaceOnUse">
<stop stop-color="#9D9FE6"/>
<stop offset="0.163505" stop-color="#CFC0FF"/>
<stop offset="1" stop-color="#8E00FF"/>
</linearGradient>
<linearGradient id="paint7_linear_9421_41830" x1="55.2117" y1="-30.049" x2="162.851" y2="14.1143" gradientUnits="userSpaceOnUse">
<stop stop-color="white" stop-opacity="0"/>
<stop offset="1" stop-color="#8E00FF"/>
</linearGradient>
<linearGradient id="paint8_linear_9421_41830" x1="61.563" y1="57.1524" x2="91.2671" y2="-10.0402" gradientUnits="userSpaceOnUse">
<stop stop-color="#9D9FE6"/>
<stop offset="0.163505" stop-color="#CFC0FF"/>
<stop offset="1" stop-color="#8E00FF"/>
</linearGradient>
<linearGradient id="paint9_linear_9421_41830" x1="61.0542" y1="21.4064" x2="78.0673" y2="25.4848" gradientUnits="userSpaceOnUse">
<stop stop-color="white" stop-opacity="0"/>
<stop offset="1" stop-color="#8E00FF"/>
</linearGradient>
<linearGradient id="paint10_linear_9421_41830" x1="57.2339" y1="56.7266" x2="64.2362" y2="19.7284" gradientUnits="userSpaceOnUse">
<stop stop-color="#9D9FE6"/>
<stop offset="0.163505" stop-color="#CFC0FF"/>
<stop offset="1" stop-color="#8E00FF"/>
</linearGradient>
<linearGradient id="paint11_linear_9421_41830" x1="56.6669" y1="39.6718" x2="71.9307" y2="48.2186" gradientUnits="userSpaceOnUse">
<stop stop-color="white" stop-opacity="0"/>
<stop offset="1" stop-color="#8E00FF"/>
</linearGradient>
<linearGradient id="paint12_linear_9421_41830" x1="90.498" y1="108.797" x2="229.788" y2="-126.429" gradientUnits="userSpaceOnUse">
<stop stop-color="#9D9FE6"/>
<stop offset="0.163505" stop-color="#CFC0FF"/>
<stop offset="1" stop-color="#8E00FF"/>
</linearGradient>
<linearGradient id="paint13_linear_9421_41830" x1="88.9956" y1="-32.59" x2="140.471" y2="-23.3778" gradientUnits="userSpaceOnUse">
<stop stop-color="white" stop-opacity="0"/>
<stop offset="1" stop-color="#8E00FF"/>
</linearGradient>
<linearGradient id="paint14_linear_9421_41830" x1="45.2143" y1="127.195" x2="94.7094" y2="-41.9394" gradientUnits="userSpaceOnUse">
<stop stop-color="#9D9FE6"/>
<stop offset="0.163505" stop-color="#CFC0FF"/>
<stop offset="1" stop-color="#8E00FF"/>
</linearGradient>
<linearGradient id="paint15_linear_9421_41830" x1="43.4572" y1="45.4808" x2="98.3823" y2="65.371" gradientUnits="userSpaceOnUse">
<stop stop-color="white" stop-opacity="0"/>
<stop offset="1" stop-color="#8E00FF"/>
</linearGradient>
<linearGradient id="paint16_linear_9421_41830" x1="45.4322" y1="127.197" x2="66.5722" y2="14.6705" gradientUnits="userSpaceOnUse">
<stop stop-color="#9D9FE6"/>
<stop offset="0.163505" stop-color="#CFC0FF"/>
<stop offset="1" stop-color="#8E00FF"/>
</linearGradient>
<linearGradient id="paint17_linear_9421_41830" x1="43.6957" y1="75.3529" x2="90.2746" y2="101.628" gradientUnits="userSpaceOnUse">
<stop stop-color="white" stop-opacity="0"/>
<stop offset="1" stop-color="#8E00FF"/>
</linearGradient>
<linearGradient id="paint18_linear_9421_41830" x1="90.0298" y1="132.832" x2="125.358" y2="12.4995" gradientUnits="userSpaceOnUse">
<stop stop-color="#9D9FE6"/>
<stop offset="0.163505" stop-color="#CFC0FF"/>
<stop offset="1" stop-color="#8E00FF"/>
</linearGradient>
<linearGradient id="paint19_linear_9421_41830" x1="88.7832" y1="74.6655" x2="127.783" y2="88.7426" gradientUnits="userSpaceOnUse">
<stop stop-color="white" stop-opacity="0"/>
<stop offset="1" stop-color="#8E00FF"/>
</linearGradient>
<linearGradient id="paint20_linear_9421_41830" x1="82.3303" y1="133.158" x2="132.857" y2="39.1978" gradientUnits="userSpaceOnUse">
<stop stop-color="#9D9FE6"/>
<stop offset="0.163505" stop-color="#CFC0FF"/>
<stop offset="1" stop-color="#8E00FF"/>
</linearGradient>
<linearGradient id="paint21_linear_9421_41830" x1="81.6995" y1="79.2525" x2="103.17" y2="83.4836" gradientUnits="userSpaceOnUse">
<stop stop-color="white" stop-opacity="0"/>
<stop offset="1" stop-color="#8E00FF"/>
</linearGradient>
<linearGradient id="paint22_linear_9421_41830" x1="116.85" y1="131.826" x2="165.191" y2="-10.7816" gradientUnits="userSpaceOnUse">
<stop stop-color="#9D9FE6"/>
<stop offset="0.163505" stop-color="#CFC0FF"/>
<stop offset="1" stop-color="#8E00FF"/>
</linearGradient>
<linearGradient id="paint23_linear_9421_41830" x1="115.536" y1="61.0699" x2="157.843" y2="74.2959" gradientUnits="userSpaceOnUse">
<stop stop-color="white" stop-opacity="0"/>
<stop offset="1" stop-color="#8E00FF"/>
</linearGradient>
<linearGradient id="paint24_linear_9421_41830" x1="110.257" y1="132.156" x2="157.831" y2="33.6492" gradientUnits="userSpaceOnUse">
<stop stop-color="#9D9FE6"/>
<stop offset="0.163505" stop-color="#CFC0FF"/>
<stop offset="1" stop-color="#8E00FF"/>
</linearGradient>
<linearGradient id="paint25_linear_9421_41830" x1="109.553" y1="78.0939" x2="133.315" y2="83.3082" gradientUnits="userSpaceOnUse">
<stop stop-color="white" stop-opacity="0"/>
<stop offset="1" stop-color="#8E00FF"/>
</linearGradient>
</defs>
</svg>
