<svg width="402" height="71" viewBox="0 0 402 71" fill="none" xmlns="http://www.w3.org/2000/svg">
<path d="M0.118011 69.5485C0.40509 69.9414 1.13147 70.0364 1.75674 70.0838C19.3948 71.4287 37.0828 67.9777 54.822 68.0375C53.2506 69.2391 54.6697 72.3807 56.613 73.2615C58.5563 74.1537 61.0388 74.1898 63.354 74.1774C69.4185 74.1774 75.5853 74.1537 81.4314 73.0233C80.8735 73.8918 81.837 75.4503 83.0701 75.8546C84.287 76.259 85.7223 76.128 87.0229 75.8669C89.9459 75.2604 92.5644 73.9392 94.288 72.1785C95.0319 72.3218 95.8419 72.4642 96.6869 72.6189C99.3902 73.0831 102.498 73.5586 104.847 74.035C109.138 74.8675 113.496 75.7122 117.957 75.6296C126.962 75.4388 134.835 71.5008 142.048 67.6938C141.642 69.5617 143.366 73.0356 142.942 74.9044C148.264 75.4634 153.923 73.6553 156.813 70.4662C159.651 72.2629 162.742 74.1309 166.526 74.4877C170.294 74.856 174.738 72.9055 174.433 70.228C191.598 70.4302 211.414 71.4419 228.579 71.6441C229.44 71.6564 230.319 71.6678 231.097 71.9175C231.942 72.1908 232.567 72.7147 233.226 73.1912C237.618 76.3442 244.359 77.4984 250.593 76.9982C256.844 76.4866 261.71 72.5126 267.978 72.1434C289.654 70.918 307.003 70.2992 319.607 69.9423C335.03 69.4896 343.343 69.4184 343.766 69.0264C344.696 68.1579 344.12 66.8605 343.141 66.0157C340.049 63.3866 334.373 63.4578 329.541 63.7663C331.568 62.6596 332.582 58.4957 330.487 57.4602C328.443 56.437 325.773 56.4247 323.273 56.568C325.74 56.2111 324.152 49.8452 322.716 49.2862C317.817 47.3945 316.532 49.4883 315.89 49.4048C315.112 49.3099 314.471 48.9293 313.829 48.5953C309.673 46.4777 303.405 46.7396 299.621 49.1904C300.955 47.5132 298.894 43.7053 296.444 42.8605C293.994 42.0158 291.123 42.1582 288.403 42.3375C285.733 42.4922 283.065 42.6583 280.378 42.8253C282.287 41.7424 282.743 39.6011 281.375 38.1613C280.007 36.7214 277.017 36.2098 274.871 37.0308C275.649 35.5787 277.727 32.8071 275.969 31.2601C274.212 29.0352 272.929 31.1651 271.408 31.1168C271.712 29.582 269.363 27.8565 267.37 28.2134C265.225 28.5826 266.509 30.5102 267.251 33.0559C264.633 32.5083 261.643 34.1626 261.625 36.0666C261.457 33.2466 254.935 31.1168 251.421 32.5443C253.871 31.3787 254.158 28.5228 251.961 27.1304C249.764 25.7266 245.761 26.2145 244.341 28.0464C246.048 25.5956 243.193 20.5624 239.459 19.86C233.648 18.7533 231.873 22.6922 227.936 24.2147C229.457 21.8589 228.595 18.9432 227.481 16.4802C226.366 14.0172 222.699 12.0183 219.119 12.5773C220.825 11.7203 222.598 10.7929 223.342 9.42426C224.086 8.0565 223.19 6.15254 221.129 5.91433C219.829 5.75962 218.562 6.30726 217.464 6.83028C219.221 5.24804 218.241 2.67777 215.807 1.63085C213.375 0.583937 210.08 0.940827 207.817 2.15476C205.553 3.36781 204.219 5.28408 203.627 7.24693C202.006 5.40274 197.292 4.80764 194.454 5.62865C191.818 6.38988 189.91 8.00817 188.608 9.80489C189.486 8.23408 187.729 6.1754 185.297 5.74731C182.611 5.27176 179.773 6.29494 177.964 7.74621C179.688 5.53283 174.991 1.40407 171.393 1.29683C167.811 1.2019 164.636 2.98631 162.473 5.00894C160.462 6.90059 158.975 9.14914 158.926 11.5172C157 9.37593 153.384 7.90004 149.819 8.26923C146.271 8.64985 143.264 11.2078 143.991 13.6831C141.693 11.744 136.912 8.36417 133.365 8.67359C123.16 9.56579 121.994 19.5014 122.992 23.1775C119.495 22.476 114.815 24.1892 112.213 25.9622C109.595 27.7466 108.445 30.519 109.324 33.0058C106.3 25.7354 90.7235 18.1565 81.3977 23.7365C75.8899 27.032 81.8033 37.9195 83.2386 39.3594C80.8897 38.098 77.5111 37.2532 75.2134 37.2655C72.9156 37.2893 72.1219 39.9545 73.7431 41.1086C67.4927 40.0969 60.8016 40.561 54.9568 42.3937C53.4703 42.8579 51.8141 43.7149 52.0849 44.833C52.3221 45.8685 54.0107 46.3441 55.4635 46.5937C62.036 47.7602 68.7932 48.3667 75.5853 48.4027C73.2364 48.546 71.7 51.4134 71.0747 53.0194C70.9399 53.4 70.855 53.8166 70.5006 54.1261C69.6057 54.911 67.8484 54.4592 66.5641 54.0188C63.8944 53.1266 60.9214 52.5676 57.9822 52.8172C55.0429 53.0783 52.1873 54.257 50.8868 56.125C49.5189 54.3168 46.8317 52.8049 44.383 51.7105C41.9167 50.6038 38.2673 50.5564 36.4089 52.1509C35.5477 52.8884 35.192 53.8641 34.8712 54.7924C34.3308 56.3746 33.7729 57.9568 33.2325 59.54C29.5331 59.2305 25.6465 58.9334 22.1668 59.8731C18.6872 60.8251 15.8315 63.4666 16.8288 66.0008C12.081 66.4297 7.19846 67.6067 2.45193 68.0234C1.19885 68.1438 -0.457367 68.7627 0.118011 69.5485Z" fill="#B1B2EB"/>
<path d="M82.5636 70.2387C83.2226 70.774 84.3035 70.905 85.2832 70.9999C89.0849 71.3929 92.8854 71.7858 96.7033 72.1778C96.6858 72.3325 96.6696 72.4749 96.6858 72.6182C99.3892 73.0824 102.497 73.5579 104.846 74.0343C109.137 74.8668 113.495 75.7115 117.956 75.6289C126.961 75.4381 134.834 71.5001 142.047 67.6931C141.641 69.561 143.365 73.0349 142.941 74.9037C148.263 75.4627 153.922 73.6546 156.812 70.4655C159.65 72.2622 162.741 74.1302 166.525 74.487C170.293 74.8553 174.737 72.9048 174.432 70.2273C191.597 70.4295 211.413 71.4412 228.578 71.6434C229.439 71.6557 230.318 71.6671 231.096 71.9168C231.941 72.1901 232.566 72.714 233.225 73.1905C237.617 76.3435 244.358 77.4977 250.592 76.9975C256.843 76.4859 261.709 72.5119 267.977 72.1427C289.652 70.9173 307.002 70.2985 319.605 69.9416C318.845 68.0614 317.139 66.3605 314.943 65.7654C310.888 64.671 306.377 65.3012 302.137 65.9438C302.086 63.3859 298.319 61.4933 294.703 61.3632C291.072 61.2323 287.624 62.3741 284.364 63.4817C281.746 59.4118 277.978 55.5212 272.505 53.2604C267.015 51.0119 265.612 49.3936 260.628 52.1537C258.5 48.453 251.793 46.4541 246.538 47.9537C247.18 43.3248 242.247 37.7325 235.979 36.3049C229.711 34.8651 222.194 36.864 218.848 40.8618C216.871 40.0294 214.912 38.4709 212.614 38.3988C210.299 38.3153 207.749 39.3033 207.393 40.9093C205.889 37.0776 200.298 33.6274 195.077 32.0927C189.874 30.5579 183.673 30.7961 178.739 32.7352C178.604 30.6651 178.976 27.476 176.813 26.0837C174.634 24.6799 170.056 25.4174 170.191 27.4883C170.005 24.9181 166.745 22.6572 163.096 22.5386C159.446 22.4313 155.933 24.4786 155.409 27.0242C154.918 29.4037 157.436 32.4504 159.294 34.4731C156.473 33.4859 151.591 35.1868 150.154 37.162C148.719 39.1486 148.937 41.5052 149.461 43.694C148.06 42.3851 145.474 41.7777 143.261 42.2427C141.031 42.7069 139.324 44.2056 139.172 45.8362C135.354 43.7775 127.701 43.4804 122.937 43.9445C118.189 44.4087 113.746 47.3481 114.102 50.7262C111.838 49.1439 108.206 48.6086 105.249 49.441C102.276 50.2621 100.147 52.4034 100.046 54.6405C97.5795 53.3791 92.3761 53.2481 91.0406 55.1758C90.6013 55.806 90.6013 56.6868 89.7401 57.02C89.0649 57.2819 88.2362 57.0798 87.5098 56.9127C81.5801 55.5441 74.4847 57.3171 71.1061 61.0178C75.5156 63.3973 80.4656 66.1935 86.0071 66.182C83.6445 66.9547 80.84 68.8463 82.5636 70.2387Z" fill="url(#paint0_linear_9421_41822)"/>
<path d="M137.416 70.0784C137.708 70.4781 138.447 70.5747 139.083 70.623C157.027 71.9912 175.022 68.4804 193.069 68.5412C191.47 69.7636 192.914 72.9597 194.891 73.8558C196.868 74.7635 199.393 74.8001 201.749 74.7876C207.918 74.7876 214.192 74.7635 220.14 73.6134C219.572 74.497 220.552 76.0825 221.807 76.4939C223.045 76.9052 224.505 76.772 225.828 76.5064C228.802 75.8893 231.466 74.5453 233.219 72.754C233.976 72.8998 234.8 73.0447 235.66 73.2021C238.41 73.6742 241.572 74.158 243.961 74.6427C248.327 75.4896 252.761 76.349 257.299 76.2649C266.46 76.0709 274.469 72.0646 281.807 68.1915C281.394 70.0918 283.148 73.626 282.717 75.5272C288.132 76.0959 293.889 74.2564 296.828 71.012C299.715 72.8399 302.861 74.7402 306.71 75.1033C310.544 75.478 315.064 73.4936 314.754 70.7697C332.217 70.9754 352.377 72.0046 369.839 72.2103C370.715 72.2228 371.609 72.2345 372.4 72.4884C373.26 72.7666 373.896 73.2995 374.566 73.7842C379.035 76.992 385.893 78.1661 392.235 77.6573C398.594 77.1368 403.544 73.0939 409.921 72.7183C431.973 71.4717 449.623 70.8421 462.445 70.479C478.136 70.0185 486.593 69.9461 487.023 69.5472C487.969 68.6637 487.384 67.3437 486.387 66.4844C483.242 63.8096 477.467 63.882 472.552 64.1959C474.614 63.07 475.645 58.8339 473.515 57.7805C471.435 56.7395 468.719 56.727 466.176 56.8728C468.685 56.5097 467.069 50.0334 465.608 49.4647C460.624 47.5402 459.318 49.6704 458.664 49.5854C457.873 49.4888 457.22 49.1016 456.567 48.7618C452.339 46.6075 445.963 46.874 442.113 49.3672C443.47 47.661 441.374 43.787 438.881 42.9276C436.389 42.0682 433.467 42.2131 430.7 42.3955C427.984 42.5529 425.27 42.7219 422.536 42.8918C424.479 41.7901 424.942 39.6117 423.55 38.1469C422.159 36.6821 419.117 36.1616 416.934 36.9968C417.725 35.5195 419.839 32.6999 418.051 31.126C416.263 28.8626 414.958 31.0294 413.41 30.9802C413.72 29.4188 411.33 27.6634 409.303 28.0265C407.12 28.4021 408.427 30.3632 409.182 32.953C406.518 32.3958 403.476 34.0789 403.458 36.0158C403.287 33.147 396.652 30.9802 393.077 32.4325C395.569 31.2467 395.861 28.3413 393.627 26.9247C391.392 25.4966 387.318 25.9929 385.875 27.8566C387.611 25.3634 384.707 20.2428 380.908 19.5283C374.996 18.4024 373.19 22.4096 369.185 23.9585C370.732 21.5618 369.856 18.5956 368.722 16.0898C367.588 13.5841 363.858 11.5505 360.215 12.1193C361.95 11.2474 363.755 10.3039 364.511 8.91154C365.268 7.52007 364.357 5.58309 362.26 5.34075C360.937 5.18336 359.648 5.74049 358.531 6.27258C360.319 4.6629 359.322 2.04806 356.846 0.982992C354.371 -0.0820783 351.019 0.281001 348.717 1.51598C346.414 2.75007 345.057 4.69956 344.455 6.69646C342.805 4.82029 338.009 4.21487 335.122 5.05011C332.44 5.82455 330.499 7.4709 329.175 9.29877C330.069 7.70072 328.281 5.60634 325.806 5.17084C323.074 4.68704 320.186 5.72796 318.346 7.2044C320.1 4.95264 315.322 0.75228 311.661 0.64318C308.017 0.546599 304.787 2.36195 302.586 4.41966C300.541 6.34411 299.029 8.63165 298.978 11.0408C297.019 8.86237 293.34 7.36089 289.714 7.73648C286.104 8.1237 283.045 10.726 283.784 13.2443C281.446 11.2715 276.582 7.83307 272.974 8.14785C262.592 9.05553 261.406 19.1634 262.421 22.9032C258.863 22.1896 254.103 23.9325 251.455 25.7363C248.791 27.5516 247.622 30.3721 248.516 32.902C245.439 25.5055 229.593 17.7952 220.105 23.472C214.502 26.8246 220.518 37.901 221.978 39.3658C219.589 38.0825 216.151 37.2231 213.814 37.2356C211.476 37.2598 210.669 39.9712 212.318 41.1453C205.959 40.1161 199.152 40.5882 193.206 42.4528C191.694 42.9249 190.009 43.7968 190.284 44.9344C190.526 45.9878 192.244 46.4716 193.722 46.7256C200.408 47.9122 207.282 48.5293 214.192 48.566C211.803 48.7117 210.24 51.6288 209.603 53.2626C209.466 53.6498 209.38 54.0737 209.019 54.3885C208.109 55.1871 206.321 54.7274 205.015 54.2794C202.299 53.3717 199.274 52.803 196.284 53.057C193.294 53.3226 190.389 54.5218 189.065 56.4221C187.674 54.5826 184.94 53.0444 182.449 51.9311C179.94 50.8052 176.227 50.7569 174.336 52.3791C173.46 53.1294 173.098 54.122 172.772 55.0664C172.222 56.676 171.655 58.2857 171.105 59.8963C167.341 59.5815 163.387 59.2793 159.847 60.2352C156.307 61.2037 153.402 63.891 154.417 66.4691C149.587 66.9055 144.62 68.103 139.791 68.5268C138.516 68.6494 136.831 69.2789 137.416 70.0784Z" fill="#B1B2EB"/>
<path d="M221.291 70.7793C221.961 71.3239 223.061 71.4572 224.058 71.5538C227.925 71.9535 231.792 72.3532 235.676 72.7521C235.658 72.9095 235.642 73.0543 235.658 73.2001C238.408 73.6723 241.57 74.1561 243.96 74.6408C248.325 75.4876 252.759 76.347 257.297 76.263C266.458 76.0689 274.468 72.0626 281.805 68.1895C281.393 70.0899 283.146 73.624 282.716 75.5252C288.13 76.094 293.887 74.2544 296.826 71.01C299.714 72.8379 302.859 74.7383 306.709 75.1013C310.542 75.476 315.062 73.4916 314.753 70.7677C332.215 70.9734 352.375 72.0027 369.838 72.2084C370.714 72.2209 371.608 72.2325 372.399 72.4865C373.258 72.7646 373.894 73.2976 374.565 73.7823C379.033 76.99 385.891 78.1642 392.233 77.6553C398.592 77.1349 403.543 73.0919 409.919 72.7163C431.971 71.4697 449.622 70.8401 462.443 70.4771C461.67 68.5642 459.934 66.8338 457.7 66.2284C453.574 65.1151 448.985 65.7562 444.672 66.41C444.62 63.8076 440.788 61.8823 437.11 61.7499C433.415 61.6167 429.908 62.7783 426.591 63.9051C423.927 59.7647 420.094 55.8066 414.526 53.5066C408.94 51.2191 407.513 49.5727 402.443 52.3807C400.278 48.6159 393.455 46.5823 388.109 48.1079C388.762 43.3987 383.744 37.7094 377.367 36.2571C370.991 34.7923 363.343 36.8259 359.939 40.893C357.927 40.0461 355.934 38.4606 353.596 38.3873C351.241 38.3023 348.647 39.3075 348.285 40.9413C346.755 37.0432 341.067 33.5332 335.755 31.9718C330.462 30.4104 324.154 30.6528 319.134 32.6255C318.997 30.5195 319.376 27.2751 317.175 25.8586C314.958 24.4305 310.301 25.1807 310.438 27.2876C310.249 24.6728 306.932 22.3727 303.22 22.252C299.507 22.1429 295.932 24.2257 295.399 26.8155C294.9 29.2362 297.461 32.3358 299.352 34.3935C296.482 33.3892 291.515 35.1196 290.054 37.129C288.593 39.1501 288.816 41.5476 289.349 43.7743C287.923 42.4427 285.292 41.8248 283.041 42.2979C280.772 42.77 279.036 44.2948 278.881 45.9536C274.997 43.8593 267.211 43.557 262.364 44.0292C257.534 44.5013 253.014 47.4918 253.376 50.9284C251.073 49.3188 247.378 48.7741 244.37 49.621C241.345 50.4563 239.179 52.6347 239.076 54.9106C236.567 53.6273 231.274 53.4941 229.915 55.4552C229.468 56.0964 229.468 56.9924 228.592 57.3314C227.905 57.5979 227.062 57.3922 226.323 57.2223C220.29 55.8299 213.072 57.6336 209.635 61.3985C214.121 63.8193 219.157 66.6639 224.794 66.6523C222.391 67.4384 219.537 69.3628 221.291 70.7793Z" fill="url(#paint1_linear_9421_41822)"/>
<defs>
<linearGradient id="paint0_linear_9421_41822" x1="319.607" y1="49.821" x2="71.1087" y2="49.821" gradientUnits="userSpaceOnUse">
<stop stop-color="#EDD9FC"/>
<stop offset="1" stop-color="#EDD9FC" stop-opacity="0"/>
</linearGradient>
<linearGradient id="paint1_linear_9421_41822" x1="462.445" y1="50.0076" x2="209.637" y2="50.0076" gradientUnits="userSpaceOnUse">
<stop stop-color="#EDD9FC"/>
<stop offset="1" stop-color="#EDD9FC" stop-opacity="0"/>
</linearGradient>
</defs>
</svg>
