<svg width="27" height="25" viewBox="0 0 27 25" fill="none" xmlns="http://www.w3.org/2000/svg">
<path d="M9.15288 11.5354C9.15288 12.3789 9.60824 13.1856 10.519 13.9554C11.4297 14.7253 12.187 15.3679 12.7908 15.8834C12.8932 15.9603 13.0039 15.9987 13.123 15.9987C13.2422 15.9987 13.3518 15.9608 13.452 15.8852C14.0536 15.3852 14.8081 14.741 15.7153 13.9527C16.6226 13.1642 17.0763 12.3584 17.0763 11.5354C17.0763 10.9931 16.8612 10.5261 16.4312 10.1344C16.0009 9.74275 15.4881 9.54692 14.8927 9.54692C14.538 9.54692 14.2019 9.61092 13.8842 9.73892C13.5666 9.86692 13.31 10.0439 13.1146 10.2699C12.9169 10.0439 12.6617 9.86692 12.349 9.73892C12.0363 9.61092 11.6987 9.54692 11.3364 9.54692C10.7439 9.54692 10.2318 9.74275 9.80013 10.1344C9.36863 10.5261 9.15288 10.9931 9.15288 11.5354ZM13.1146 21.8717C13.0011 21.8717 12.8897 21.8633 12.7804 21.8467C12.6711 21.83 12.5653 21.805 12.4629 21.7717C10.1582 21.0217 8.32456 19.6919 6.96193 17.7824C5.59929 15.8728 4.91797 13.8122 4.91797 11.6007V7.09692C4.91797 6.71709 5.03737 6.37517 5.27616 6.07117C5.51477 5.76734 5.82342 5.54709 6.2021 5.41042L12.423 3.28542C12.6571 3.20842 12.8876 3.16992 13.1146 3.16992C13.3415 3.16992 13.572 3.20842 13.8061 3.28542L20.027 5.41042C20.4057 5.54709 20.7144 5.76734 20.953 6.07117C21.1918 6.37517 21.3112 6.71709 21.3112 7.09692V11.6007C21.3112 13.8122 20.6298 15.8728 19.2672 17.7824C17.9046 19.6919 16.0709 21.0217 13.7662 21.7717C13.6638 21.805 13.558 21.83 13.4487 21.8467C13.3394 21.8633 13.228 21.8717 13.1146 21.8717ZM13.1146 20.4007C15.0089 19.8507 16.5753 18.7507 17.8139 17.1007C19.0525 15.4507 19.6718 13.6173 19.6718 11.6007V7.08717C19.6718 7.02317 19.6525 6.9655 19.6139 6.91417C19.5755 6.86284 19.5212 6.82434 19.4511 6.79867L13.2301 4.67367C13.1952 4.66084 13.1566 4.65442 13.1146 4.65442C13.0725 4.65442 13.034 4.66084 12.999 4.67367L6.77805 6.79867C6.70792 6.82434 6.65364 6.86284 6.61521 6.91417C6.5766 6.9655 6.55729 7.02317 6.55729 7.08717V11.6007C6.55729 13.6173 7.17659 15.4507 8.41518 17.1007C9.65378 18.7507 11.2202 19.8507 13.1146 20.4007Z" fill="#30303D" fill-opacity="0.86"/>
</svg>
