<svg width="87" height="89" viewBox="0 0 87 89" fill="none" xmlns="http://www.w3.org/2000/svg">
<g filter="url(#filter0_dddd_9415_49155)">
<path opacity="0.1" d="M61.0558 68.2498C74.2251 55.6851 74.2248 35.314 61.055 22.7498C47.8852 10.1855 26.5331 10.1859 13.3638 22.7506C0.194418 35.3153 0.19479 55.6863 13.3646 68.2506C26.5344 80.8148 47.8865 80.8145 61.0558 68.2498Z" fill="#009CE2"/>
<path opacity="0.34" d="M46.4498 17.8525C43.2484 16.3388 39.6686 14.836 36.0067 15.4187C34.3146 15.6878 32.5428 16.474 31.4697 17.787C29.894 19.7141 30.542 21.8797 31.3289 23.9807C32.3472 26.7 33.46 29.274 34.1094 32.0283C34.1495 32.3133 34.1853 32.5923 34.2115 32.8587C34.4372 35.1718 34.5584 37.4891 34.5708 39.8068C34.0712 45.9764 32.1535 52.065 33.3788 58.2974C33.8451 60.667 34.7751 62.9866 36.2019 64.9765C36.7831 65.9712 37.4769 66.9263 38.3406 67.8186C40.8792 70.4432 44.6241 72.2364 48.4196 72.0143C52.4627 71.7775 55.8373 69.4922 58.3864 66.6213C63.9642 60.3402 65.2173 51.6571 64.8933 43.686C64.5817 36.019 61.8293 29.2922 55.8469 24.0253C53.0377 21.5515 49.874 19.4719 46.4498 17.8525Z" fill="#94F4FF"/>
<path opacity="0.1" d="M35.9425 49.0617C34.3592 49.4896 32.7878 49.9708 31.1382 50.1078C29.3798 50.254 27.6577 49.9781 25.9074 49.8966C22.0813 49.719 18.721 51.2879 17.0819 54.6882C15.5545 57.8567 15.9816 61.5111 17.9905 64.4001C21.9091 70.0353 29.7682 72.9102 36.6759 71.9733C38.368 71.7438 40.0328 71.1889 41.5445 70.435C41.7769 70.3189 41.9726 70.1837 42.1477 70.0394C42.2274 70.0116 42.3104 69.9911 42.3896 69.9624C46.1851 68.5785 48.4875 65.5574 49.042 61.7619C49.5702 58.1449 48.9905 54.0777 46.3707 51.2655C43.6041 48.2955 39.7174 48.0414 35.9425 49.0617Z" fill="#0050D1"/>
<path d="M19.1951 25.2755C13.3912 30.5415 10.3854 38.2694 11.7411 45.854C12.0036 47.3217 13.7257 48.2532 15.1921 47.939C16.7825 47.5985 17.6405 46.118 17.3776 44.6466C17.3136 44.2874 17.2554 43.9278 17.2129 43.5654C17.2072 43.503 17.1981 43.4061 17.1957 43.3605C17.1857 43.1702 17.1738 42.9804 17.1676 42.7901C17.1428 42.0298 17.1686 41.2677 17.242 40.5106C17.2769 40.1514 17.3222 39.7922 17.3804 39.4358C17.39 39.4189 17.514 38.8093 17.545 38.6787C17.7345 37.8875 17.9745 37.1072 18.2613 36.3428C18.3968 35.9822 18.5423 35.6257 18.6979 35.2725C18.7108 35.2433 18.8034 35.0435 18.8444 34.9533C18.8902 34.8659 18.9914 34.6679 19.0062 34.6397C19.3683 33.9545 19.7692 33.2885 20.2067 32.6443C20.5704 32.1098 21.2341 31.2398 21.4751 30.9585C21.3248 31.1337 21.6808 30.7318 21.7151 30.6949C21.8482 30.5515 21.9838 30.4103 22.1212 30.2706C22.4304 29.9565 22.7516 29.6537 23.0789 29.3569C24.2089 28.3321 24.3415 26.5816 23.2755 25.4631C22.2424 24.3782 20.3303 24.2457 19.1951 25.2755Z" fill="white"/>
</g>
<defs>
<filter id="filter0_dddd_9415_49155" x="-12.5132" y="13.3269" width="99.4458" height="136.347" filterUnits="userSpaceOnUse" color-interpolation-filters="sRGB">
<feFlood flood-opacity="0" result="BackgroundImageFix"/>
<feColorMatrix in="SourceAlpha" type="matrix" values="0 0 0 0 0 0 0 0 0 0 0 0 0 0 0 0 0 0 127 0" result="hardAlpha"/>
<feOffset dy="9"/>
<feGaussianBlur stdDeviation="4.5"/>
<feColorMatrix type="matrix" values="0 0 0 0 0.647059 0 0 0 0 0.411765 0 0 0 0 0.984314 0 0 0 0.29 0"/>
<feBlend mode="normal" in2="BackgroundImageFix" result="effect1_dropShadow_9415_49155"/>
<feColorMatrix in="SourceAlpha" type="matrix" values="0 0 0 0 0 0 0 0 0 0 0 0 0 0 0 0 0 0 127 0" result="hardAlpha"/>
<feOffset dy="20"/>
<feGaussianBlur stdDeviation="6"/>
<feColorMatrix type="matrix" values="0 0 0 0 0.647059 0 0 0 0 0.411765 0 0 0 0 0.984314 0 0 0 0.17 0"/>
<feBlend mode="normal" in2="effect1_dropShadow_9415_49155" result="effect2_dropShadow_9415_49155"/>
<feColorMatrix in="SourceAlpha" type="matrix" values="0 0 0 0 0 0 0 0 0 0 0 0 0 0 0 0 0 0 127 0" result="hardAlpha"/>
<feOffset dy="36"/>
<feGaussianBlur stdDeviation="7"/>
<feColorMatrix type="matrix" values="0 0 0 0 0.647059 0 0 0 0 0.411765 0 0 0 0 0.984314 0 0 0 0.05 0"/>
<feBlend mode="normal" in2="effect2_dropShadow_9415_49155" result="effect3_dropShadow_9415_49155"/>
<feColorMatrix in="SourceAlpha" type="matrix" values="0 0 0 0 0 0 0 0 0 0 0 0 0 0 0 0 0 0 127 0" result="hardAlpha"/>
<feOffset dy="56"/>
<feGaussianBlur stdDeviation="8"/>
<feColorMatrix type="matrix" values="0 0 0 0 0.647059 0 0 0 0 0.411765 0 0 0 0 0.984314 0 0 0 0.01 0"/>
<feBlend mode="normal" in2="effect3_dropShadow_9415_49155" result="effect4_dropShadow_9415_49155"/>
<feBlend mode="normal" in="SourceGraphic" in2="effect4_dropShadow_9415_49155" result="shape"/>
</filter>
</defs>
</svg>
