<svg width="220" height="48" viewBox="0 0 220 48" fill="none" xmlns="http://www.w3.org/2000/svg">
<path d="M128.703 26.6945C121.866 39.2497 147.27 52.754 135.323 78.8234C135.733 79.6901 136.121 80.5778 136.482 81.4881C143.949 100.223 140.937 127.285 116.232 142.668C107.271 147.689 98.2941 151.698 89.3004 154.304C34.0154 166.451 8.46247 99.1906 40.3673 63.6796C41.9238 61.9431 43.6216 60.2827 45.4585 58.713C69.18 39.8642 86.0066 51.6659 103.608 55.472C106.429 56.0817 109.369 54.865 110.808 52.363C116.591 42.3183 101.1 24.0957 117.883 13.3771C117.575 4.18796 126.506 5.26849 127.05 14.3448C135.597 17.6273 136.813 27.3914 128.703 26.6945Z" fill="url(#paint0_linear_9415_49165)"/>
<path d="M128.703 26.6945C121.866 39.2497 147.27 52.754 135.323 78.8234C135.733 79.6901 136.121 80.5778 136.482 81.4881C143.949 100.223 140.937 127.285 116.232 142.668C107.271 147.689 98.2941 151.698 89.3004 154.304C34.0154 166.451 8.46247 99.1906 40.3673 63.6796C41.9238 61.9431 43.6216 60.2827 45.4585 58.713C69.18 39.8642 86.0066 51.6659 103.608 55.472C106.429 56.0817 109.369 54.865 110.808 52.363C116.591 42.3183 101.1 24.0957 117.883 13.3771C117.575 4.18796 126.506 5.26849 127.05 14.3448C135.597 17.6273 136.813 27.3914 128.703 26.6945Z" fill="url(#paint1_linear_9415_49165)" fill-opacity="0.2"/>
<path d="M136.482 81.4881C143.949 100.223 140.937 127.285 116.232 142.668C107.271 147.689 98.2941 151.698 89.3004 154.304C34.0154 166.451 8.46247 99.1906 40.3673 63.6796C34.4283 77.5394 35.4252 94.25 43.1497 107.23C44.9353 110.229 47.0473 113.032 49.373 115.636C61.0777 128.76 78.4189 136.676 96.0027 136.92C101.072 136.99 106.197 136.441 110.957 134.703C120.982 131.039 128.613 122.216 132.358 112.221C136.102 102.226 136.281 91.1709 134.544 80.6388C135.207 80.8938 135.851 81.1758 136.482 81.4881Z" fill="url(#paint2_linear_9415_49165)"/>
<path d="M136.482 81.4881C143.949 100.223 140.937 127.285 116.232 142.668C107.271 147.689 98.2941 151.698 89.3004 154.304C34.0154 166.451 8.46247 99.1906 40.3673 63.6796C34.4283 77.5394 35.4252 94.25 43.1497 107.23C44.9353 110.229 47.0473 113.032 49.373 115.636C61.0777 128.76 78.4189 136.676 96.0027 136.92C101.072 136.99 106.197 136.441 110.957 134.703C120.982 131.039 128.613 122.216 132.358 112.221C136.102 102.226 136.281 91.1709 134.544 80.6388C135.207 80.8938 135.851 81.1758 136.482 81.4881Z" fill="url(#paint3_linear_9415_49165)" fill-opacity="0.2"/>
<path d="M110.22 57.6117C108.763 58.4531 107.002 58.7593 105.293 58.4107C89.2683 55.1387 73.9459 45.3958 53.4117 57.2512C51.0422 58.6192 48.6012 60.2765 46.0844 62.2625C44.1989 63.8603 42.4548 65.5482 40.8526 67.3102C39.8486 68.413 38.8988 69.5442 38.0026 70.7031C38.2477 69.7265 38.5226 68.7606 38.8289 67.802C39.5633 66.8486 40.3352 65.9192 41.1437 65.0168C44.5645 61.1585 48.648 57.7588 53.1577 55.1551C59.8208 51.3082 67.4145 49.1991 75.1689 49.9156C82.96 50.5181 90.546 53.4309 98.1147 55.5894C99.7242 56.044 101.398 56.4754 103.042 56.8381C103.411 56.9214 103.81 56.9988 104.187 57.0326C106.125 57.1914 107.768 56.8058 109.111 56.0294C112.243 54.2208 113.752 50.2946 113.597 46.2298C113.473 37.3612 108.388 27.9049 113.339 19.6182C114.66 17.5752 116.516 15.8639 118.645 14.4959C119.01 14.2377 119.246 13.8101 119.238 13.3297C119.212 12.0571 119.328 10.693 119.926 9.60747C120.186 9.12195 120.499 8.7937 120.843 8.59522C121.822 8.02978 123.045 8.52563 123.932 9.48022C123.486 9.52909 123.053 9.66971 122.649 9.90272C121.225 10.7251 120.173 12.7017 120.249 15.922C103.061 26.8754 118.639 45.0476 112.652 55.2103C112.052 56.2307 111.204 57.0433 110.22 57.6117Z" fill="#E7E8ED"/>
<path opacity="0.2" d="M115.949 142.216C125.636 135.324 133.691 125.707 136.812 114.094C140.014 102.694 139.01 90.1724 134.096 79.4031C133.924 79.0248 133.934 78.6114 134.09 78.2576C134.329 77.7403 134.83 76.4599 135.055 75.9625C138.076 68.0521 137.832 60.5114 134.667 52.6808C133.004 48.4492 130.71 44.5398 128.728 40.3967C126.556 35.8494 124.901 30.8958 127.511 26.0462C127.748 25.5359 128.289 25.2701 128.817 25.3439C131.731 25.6301 133.52 24.1799 132.555 21.242C131.668 18.6082 129.146 16.5939 126.563 15.6105C126.056 15.4063 125.733 14.937 125.696 14.4258C125.606 13.0983 125.324 11.7625 124.704 10.6048C123.706 8.57447 121.177 7.26275 119.924 9.60907C119.327 10.6946 119.211 12.0587 119.236 13.3313C119.244 13.8117 119.009 14.2393 118.643 14.4975C116.514 15.8655 114.658 17.5768 113.337 19.6198C108.386 27.9065 113.472 37.3628 113.596 46.2314C113.817 52.0397 110.642 57.5648 104.185 57.0342C103.808 57.0004 103.41 56.923 103.041 56.8397C101.397 56.477 99.7225 56.0456 98.113 55.591C90.5444 53.4325 82.9584 50.5197 75.1673 49.9172C62.1644 48.7156 49.617 55.4585 41.142 65.0184C25.334 82.6612 23.7771 110.406 35.6113 130.592C47.0853 150.325 67.1979 157.529 89.1735 153.731C89.9081 153.608 90.1267 154.683 89.4253 154.877C67.0761 161.183 44.9516 151.963 33.3077 131.938C17.7525 105.612 24.3066 68.4449 51.6102 52.6978C68.7488 42.7301 81.6084 47.4254 98.9173 52.7657C100.183 53.1253 101.449 53.4689 102.717 53.7692C103.802 54.0394 104.941 54.3182 106.057 54.0781C111.218 53.0158 111.061 46.6396 110.419 42.4715C109.196 34.572 106.314 25.5183 111.018 18.1543C112.61 15.705 114.788 13.7391 117.153 12.2346L116.527 13.4221C116.303 2.1864 127.858 3.68132 128.402 14.2637L127.535 13.0801C128.355 13.4066 129.158 13.7868 129.923 14.2445C133.019 16.1343 135.792 19.4502 135.485 23.3451C135.148 26.9303 131.755 28.3918 128.585 28.0448L129.891 27.3424C129.76 27.6223 129.545 28.0993 129.421 28.3533L129.312 28.7047C128.112 32.3141 129.629 35.8636 131.179 39.2376C135.352 47.5527 140.226 55.8074 139.908 65.5986C139.806 70.367 138.5 75.0607 136.555 79.3868L136.547 78.2441C144.701 95.1794 142.68 116.682 130.757 131.349C126.845 136.213 121.921 140.196 116.512 143.12C116.252 143.261 115.929 143.163 115.789 142.904C115.659 142.664 115.733 142.37 115.949 142.216Z" fill="#371B45"/>
<path d="M128.128 13.2161C127.689 15.3959 127.687 17.6407 128.787 19.6523C128.864 19.7929 128.812 19.9691 128.672 20.0465C128.558 20.1088 128.419 20.0855 128.331 20C127.452 19.1452 126.746 18.0535 126.28 16.857C125.805 15.6522 125.552 14.3677 125.416 13.1005C125.306 11.0076 128.415 11.1376 128.128 13.2161Z" fill="#371B45"/>
<path d="M111.339 42.2748C111.35 42.283 111.362 42.2911 111.373 42.2996C111.567 42.441 111.955 42.4449 112.147 42.297C112.988 41.6511 113.827 41.3287 114.898 41.275C115.811 41.2301 116.717 41.3195 117.602 41.5445C118.494 41.7712 119.312 42.1492 120.143 42.5325C120.934 42.8978 121.71 43.6075 122.6 43.6483C122.711 43.6535 122.816 43.5493 122.812 43.439C122.781 42.382 121.63 41.5935 120.842 41.042C119.956 40.4205 118.843 40.0497 117.793 39.8199C116.718 39.5846 115.597 39.4927 114.5 39.6055C113.236 39.7351 111.826 40.1173 111.083 41.2391C110.911 41.499 110.96 41.9766 111.212 42.1777C111.254 42.2115 111.296 42.2434 111.339 42.2748Z" fill="#371B45"/>
<path d="M110.027 27.1968C110.469 27.3175 110.924 27.1344 111.339 26.9888C111.727 26.8519 112.108 26.691 112.506 26.5794C113.324 26.3507 114.183 26.2641 115.029 26.3735C115.723 26.4635 116.46 26.712 117.088 27.0548C117.474 27.2649 117.848 27.4856 118.262 27.641C118.613 27.7722 118.997 27.808 119.365 27.8672C119.466 27.8836 119.587 27.8226 119.58 27.703C119.523 26.6798 118.961 25.9342 118.076 25.4388C117.191 24.9431 116.221 24.6283 115.217 24.4964C114.175 24.3601 113.099 24.4341 112.091 24.7378C111.58 24.8922 111.056 25.0818 110.615 25.3854C110.155 25.7021 109.689 26.1089 109.65 26.7035C109.635 26.9275 109.818 27.1399 110.027 27.1968Z" fill="#371B45"/>
<defs>
<linearGradient id="paint0_linear_9415_49165" x1="115.366" y1="143.168" x2="-59.3982" y2="-493.985" gradientUnits="userSpaceOnUse">
<stop stop-color="#C2C4FD"/>
<stop offset="0.163505" stop-color="#CFC0FF"/>
<stop offset="1" stop-color="#8E00FF"/>
</linearGradient>
<linearGradient id="paint1_linear_9415_49165" x1="-42.9229" y1="-116.377" x2="194.325" y2="-149.507" gradientUnits="userSpaceOnUse">
<stop stop-color="white" stop-opacity="0"/>
<stop offset="1" stop-color="#8E00FF"/>
</linearGradient>
<linearGradient id="paint2_linear_9415_49165" x1="104.289" y1="149.563" x2="-33.6407" y2="-438.199" gradientUnits="userSpaceOnUse">
<stop stop-color="#C2C4FD"/>
<stop offset="0.163505" stop-color="#CFC0FF"/>
<stop offset="1" stop-color="#8E00FF"/>
</linearGradient>
<linearGradient id="paint3_linear_9415_49165" x1="-41.0995" y1="-90.5544" x2="150.751" y2="-126.637" gradientUnits="userSpaceOnUse">
<stop stop-color="white" stop-opacity="0"/>
<stop offset="1" stop-color="#8E00FF"/>
</linearGradient>
</defs>
</svg>
