<svg width="127" height="221" viewBox="0 0 127 221" fill="none" xmlns="http://www.w3.org/2000/svg">
<path opacity="0.1" d="M301.258 270.973C356.685 218.091 356.684 132.354 301.255 79.4735C245.826 26.5932 155.959 26.5947 100.532 79.4768C45.1053 132.359 45.1069 218.097 100.536 270.977C155.965 323.857 245.831 323.856 301.258 270.973Z" fill="#8E00FF"/>
<path opacity="0.1" d="M195.565 190.215C188.901 192.016 182.288 194.042 175.345 194.618C167.944 195.233 160.696 194.072 153.33 193.729C137.227 192.982 123.084 199.585 116.185 213.896C109.756 227.232 111.554 242.612 120.009 254.772C136.502 278.489 169.579 290.589 198.652 286.646C205.774 285.68 212.781 283.344 219.143 280.171C220.121 279.683 220.945 279.113 221.682 278.506C222.017 278.389 222.367 278.303 222.7 278.182C238.674 272.357 248.365 259.642 250.698 243.668C252.922 228.445 250.481 211.327 239.456 199.491C227.811 186.991 211.453 185.921 195.565 190.215Z" fill="#0050D1"/>
<path d="M125.065 90.1045C100.638 112.268 87.9871 144.793 93.6928 176.715C94.7974 182.892 102.046 186.813 108.217 185.491C114.911 184.057 118.522 177.826 117.416 171.633C117.146 170.122 116.901 168.608 116.723 167.083C116.698 166.82 116.66 166.412 116.65 166.221C116.608 165.42 116.558 164.621 116.532 163.82C116.427 160.62 116.536 157.412 116.845 154.226C116.992 152.714 117.183 151.202 117.428 149.702C117.468 149.631 117.99 147.066 118.12 146.516C118.918 143.185 119.928 139.901 121.135 136.684C121.705 135.167 122.318 133.666 122.973 132.18C123.027 132.057 123.416 131.216 123.589 130.836C123.782 130.469 124.208 129.635 124.27 129.516C125.794 126.633 127.481 123.829 129.323 121.118C130.853 118.869 133.647 115.207 134.661 114.023C134.029 114.761 135.527 113.069 135.671 112.913C136.232 112.31 136.802 111.716 137.38 111.128C138.682 109.806 140.034 108.531 141.411 107.282C146.167 102.969 146.725 95.6017 142.239 90.8939C137.891 86.3279 129.843 85.7703 125.065 90.1045Z" fill="white"/>
</svg>
