<svg width="26" height="24" viewBox="0 0 26 24" fill="none" xmlns="http://www.w3.org/2000/svg">
<path d="M12.9422 17.6152C13.2504 17.6152 13.5107 17.5168 13.7232 17.3198C13.9357 17.1226 14.042 16.8812 14.042 16.5955C14.042 16.31 13.9355 16.0688 13.7227 15.872C13.5099 15.6753 13.2493 15.577 12.9411 15.577C12.6329 15.577 12.3726 15.6756 12.1601 15.8728C11.9476 16.0699 11.8414 16.3112 11.8414 16.5968C11.8414 16.8822 11.9478 17.1234 12.1606 17.3203C12.3735 17.5169 12.634 17.6152 12.9422 17.6152ZM12.956 21.5C11.5375 21.5 10.2042 21.2507 8.95611 20.752C7.70802 20.2533 6.62239 19.5766 5.69923 18.7218C4.77607 17.8669 4.04515 16.8617 3.50647 15.706C2.96798 14.5503 2.69873 13.3156 2.69873 12.0017C2.69873 10.6877 2.96789 9.45267 3.5062 8.2965C4.04452 7.14033 4.77508 6.13467 5.69788 5.2795C6.62068 4.42433 7.70586 3.74725 8.95342 3.24825C10.201 2.74942 11.5339 2.5 12.9522 2.5C14.3707 2.5 15.704 2.74933 16.9521 3.248C18.2001 3.74667 19.2858 4.42342 20.2089 5.27825C21.1321 6.13308 21.863 7.13833 22.4017 8.294C22.9402 9.44967 23.2094 10.6844 23.2094 11.9983C23.2094 13.3123 22.9403 14.5473 22.402 15.7035C21.8636 16.8597 21.1331 17.8653 20.2103 18.7205C19.2875 19.5757 18.2023 20.2528 16.9547 20.7518C15.7072 21.2506 14.3743 21.5 12.956 21.5ZM12.9541 20C15.365 20 17.4071 19.225 19.0803 17.675C20.7535 16.125 21.5902 14.2333 21.5902 12C21.5902 9.76667 20.7535 7.875 19.0803 6.325C17.4071 4.775 15.365 4 12.9541 4C10.5432 4 8.5011 4.775 6.82786 6.325C5.15462 7.875 4.318 9.76667 4.318 12C4.318 14.2333 5.15462 16.125 6.82786 17.675C8.5011 19.225 10.5432 20 12.9541 20ZM13.0415 7.71925C13.5395 7.71925 13.9705 7.8645 14.3345 8.155C14.6987 8.4455 14.8807 8.80858 14.8807 9.24425C14.8807 9.61092 14.7644 9.93908 14.5318 10.2288C14.2993 10.5186 14.0336 10.7885 13.7346 11.0385C13.3427 11.3605 12.9977 11.7148 12.6996 12.1012C12.4015 12.4876 12.2421 12.9179 12.2214 13.3923C12.2143 13.5744 12.2835 13.727 12.4289 13.85C12.5743 13.973 12.7438 14.0345 12.9374 14.0345C13.145 14.0345 13.3208 13.9704 13.4647 13.8422C13.6086 13.7141 13.7007 13.5571 13.7408 13.3713C13.8127 13.0276 13.966 12.7215 14.2006 12.453C14.4353 12.1843 14.6894 11.9289 14.9631 11.6868C15.3565 11.3314 15.6999 10.9441 15.9932 10.5247C16.2866 10.1052 16.4333 9.63742 16.4333 9.12125C16.4333 8.32892 16.0964 7.67792 15.4224 7.16825C14.7484 6.65875 13.9616 6.404 13.062 6.404C12.4199 6.404 11.8144 6.53567 11.2455 6.799C10.6768 7.0625 10.2339 7.44683 9.91688 7.952C9.81864 8.10717 9.78716 8.27042 9.82242 8.44175C9.85751 8.61325 9.95241 8.74342 10.1071 8.83225C10.3042 8.93375 10.5065 8.96275 10.7141 8.91925C10.9217 8.87558 11.0981 8.766 11.2433 8.5905C11.4621 8.32767 11.7269 8.11675 12.0376 7.95775C12.3483 7.79875 12.6829 7.71925 13.0415 7.71925Z" fill="#30303D" fill-opacity="0.86"/>
</svg>
