<svg width="26" height="24" viewBox="0 0 26 24" fill="none" xmlns="http://www.w3.org/2000/svg">
<path d="M12.9541 21.5C11.548 21.5 10.2211 21.2503 8.97339 20.751C7.72565 20.2517 6.6375 19.5718 5.70895 18.7115C4.78021 17.8513 4.04632 16.8433 3.50728 15.6875C2.96825 14.5317 2.69873 13.3025 2.69873 12C2.69873 10.6872 2.96825 9.45542 3.50728 8.30475C4.04632 7.15408 4.78021 6.14867 5.70895 5.2885C6.6375 4.42817 7.72565 3.74833 8.97339 3.249C10.2211 2.74967 11.548 2.5 12.9541 2.5C14.3713 2.5 15.701 2.74967 16.9431 3.249C18.1853 3.74833 19.2707 4.42817 20.1992 5.2885C21.128 6.14867 21.8618 7.15408 22.4009 8.30475C22.9399 9.45542 23.2094 10.6872 23.2094 12C23.2094 13.3025 22.9399 14.5317 22.4009 15.6875C21.8618 16.8433 21.128 17.8513 20.1992 18.7115C19.2707 19.5718 18.1853 20.2517 16.9431 20.751C15.701 21.2503 14.3713 21.5 12.9541 21.5ZM12.9541 19.9788C13.505 19.3019 13.9686 18.6192 14.345 17.9307C14.7214 17.2422 15.028 16.4897 15.2648 15.673H10.6434C10.894 16.5153 11.2041 17.2808 11.5737 17.9693C11.943 18.6578 12.4032 19.3276 12.9541 19.9788ZM10.8636 19.7038C10.4498 19.1538 10.0782 18.5285 9.74874 17.828C9.41931 17.1273 9.16329 16.409 8.98067 15.673H5.3187C5.88886 16.7115 6.65352 17.584 7.61266 18.2905C8.57181 18.9968 9.65546 19.4679 10.8636 19.7038ZM15.0446 19.7038C16.2527 19.4679 17.3364 18.9968 18.2955 18.2905C19.2546 17.584 20.0193 16.7115 20.5895 15.673H16.9275C16.7101 16.4153 16.4368 17.1368 16.1073 17.8375C15.7781 18.5382 15.4238 19.1603 15.0446 19.7038ZM4.63969 14.173H8.65277C8.58494 13.8013 8.53573 13.4369 8.50515 13.0798C8.47474 12.7228 8.45954 12.3628 8.45954 12C8.45954 11.6372 8.47474 11.2773 8.50515 10.9202C8.53573 10.5631 8.58494 10.1987 8.65277 9.827H4.63969C4.53588 10.1667 4.45635 10.5198 4.40112 10.8865C4.3457 11.2532 4.318 11.6243 4.318 12C4.318 12.3757 4.3457 12.7468 4.40112 13.1135C4.45635 13.4802 4.53588 13.8333 4.63969 14.173ZM10.2718 14.173H15.6364C15.704 13.8013 15.7532 13.4402 15.7837 13.0895C15.8142 12.7388 15.8294 12.3757 15.8294 12C15.8294 11.6243 15.8142 11.2612 15.7837 10.9105C15.7532 10.5598 15.704 10.1987 15.6364 9.827H10.2718C10.2041 10.1987 10.155 10.5598 10.1244 10.9105C10.094 11.2612 10.0788 11.6243 10.0788 12C10.0788 12.3757 10.094 12.7388 10.1244 13.0895C10.155 13.4402 10.2041 13.8013 10.2718 14.173ZM17.2554 14.173H21.2685C21.3723 13.8333 21.4518 13.4802 21.507 13.1135C21.5625 12.7468 21.5902 12.3757 21.5902 12C21.5902 11.6243 21.5625 11.2532 21.507 10.8865C21.4518 10.5198 21.3723 10.1667 21.2685 9.827H17.2554C17.3232 10.1987 17.3724 10.5631 17.403 10.9202C17.4334 11.2773 17.4486 11.6372 17.4486 12C17.4486 12.3628 17.4334 12.7228 17.403 13.0798C17.3724 13.4369 17.3232 13.8013 17.2554 14.173ZM16.9275 8.327H20.5895C20.0125 7.27567 19.253 6.40317 18.3112 5.7095C17.3693 5.016 16.2804 4.54167 15.0446 4.2865C15.4584 4.8685 15.8265 5.50508 16.1489 6.19625C16.4715 6.88725 16.731 7.5975 16.9275 8.327ZM10.6434 8.327H15.2648C15.0141 7.491 14.6989 6.72075 14.3191 6.01625C13.9391 5.31175 13.4841 4.64675 12.9541 4.02125C12.424 4.64675 11.969 5.31175 11.589 6.01625C11.2092 6.72075 10.894 7.491 10.6434 8.327ZM5.3187 8.327H8.98067C9.17714 7.5975 9.43668 6.88725 9.75927 6.19625C10.0817 5.50508 10.4498 4.8685 10.8636 4.2865C9.62073 4.54167 8.53016 5.01767 7.59188 5.7145C6.65343 6.41117 5.8957 7.282 5.3187 8.327Z" fill="#30303D" fill-opacity="0.86"/>
</svg>
