<svg width="26" height="24" viewBox="0 0 26 24" fill="none" xmlns="http://www.w3.org/2000/svg">
<path d="M6.8094 21.5C6.27108 21.5 5.81121 21.3234 5.42978 20.9703C5.04853 20.6169 4.85791 20.1909 4.85791 19.6923V10.3077C4.85791 9.80908 5.04853 9.38308 5.42978 9.02975C5.81121 8.67658 6.27108 8.5 6.8094 8.5H8.09644V6.5C8.09644 5.25133 8.56909 4.18917 9.51438 3.3135C10.4597 2.43783 11.6063 2 12.9542 2C14.3022 2 15.4488 2.43783 16.3941 3.3135C17.3394 4.18917 17.812 5.25133 17.812 6.5V8.5H19.0991C19.6374 8.5 20.0973 8.67658 20.4787 9.02975C20.8599 9.38308 21.0506 9.80908 21.0506 10.3077V19.6923C21.0506 20.1909 20.8599 20.6169 20.4787 20.9703C20.0973 21.3234 19.6374 21.5 19.0991 21.5H6.8094ZM6.8094 20H19.0991C19.1961 20 19.2757 19.9712 19.3379 19.9135C19.4002 19.8558 19.4313 19.7821 19.4313 19.6923V10.3077C19.4313 10.2179 19.4002 10.1442 19.3379 10.0865C19.2757 10.0288 19.1961 10 19.0991 10H6.8094C6.71242 10 6.63281 10.0288 6.57055 10.0865C6.5083 10.1442 6.47718 10.2179 6.47718 10.3077V19.6923C6.47718 19.7821 6.5083 19.8558 6.57055 19.9135C6.63281 19.9712 6.71242 20 6.8094 20ZM12.9542 16.75C13.4787 16.75 13.9247 16.5798 14.2923 16.2395C14.6597 15.899 14.8434 15.4858 14.8434 15C14.8434 14.5142 14.6597 14.101 14.2923 13.7605C13.9247 13.4202 13.4787 13.25 12.9542 13.25C12.4298 13.25 11.9838 13.4202 11.6162 13.7605C11.2488 14.101 11.0651 14.5142 11.0651 15C11.0651 15.4858 11.2488 15.899 11.6162 16.2395C11.9838 16.5798 12.4298 16.75 12.9542 16.75ZM9.71571 8.5H16.1928V6.5C16.1928 5.66667 15.8779 4.95833 15.2482 4.375C14.6185 3.79167 13.8538 3.5 12.9542 3.5C12.0546 3.5 11.29 3.79167 10.6603 4.375C10.0306 4.95833 9.71571 5.66667 9.71571 6.5V8.5Z" fill="#30303D" fill-opacity="0.86"/>
</svg>
