<svg width="26" height="24" viewBox="0 0 26 24" fill="none" xmlns="http://www.w3.org/2000/svg">
<path d="M9.71571 17.75H16.1928C16.4225 17.75 16.6149 17.6782 16.7698 17.5345C16.9249 17.391 17.0024 17.2128 17.0024 17C17.0024 16.7872 16.9249 16.609 16.7698 16.4655C16.6149 16.3218 16.4225 16.25 16.1928 16.25H9.71571C9.48595 16.25 9.29362 16.3218 9.13871 16.4655C8.98362 16.609 8.90608 16.7872 8.90608 17C8.90608 17.2128 8.98362 17.391 9.13871 17.5345C9.29362 17.6782 9.48595 17.75 9.71571 17.75ZM9.71571 13.75H16.1928C16.4225 13.75 16.6149 13.6782 16.7698 13.5345C16.9249 13.391 17.0024 13.2128 17.0024 13C17.0024 12.7872 16.9249 12.609 16.7698 12.4655C16.6149 12.3218 16.4225 12.25 16.1928 12.25H9.71571C9.48595 12.25 9.29362 12.3218 9.13871 12.4655C8.98362 12.609 8.90608 12.7872 8.90608 13C8.90608 13.2128 8.98362 13.391 9.13871 13.5345C9.29362 13.6782 9.48595 13.75 9.71571 13.75ZM6.8094 21.5C6.26406 21.5 5.80248 21.325 5.42465 20.975C5.04682 20.625 4.85791 20.1974 4.85791 19.6923V4.30775C4.85791 3.80258 5.04682 3.375 5.42465 3.025C5.80248 2.675 6.26406 2.5 6.8094 2.5H14.5757C14.8358 2.5 15.086 2.54683 15.3262 2.6405C15.5662 2.734 15.7748 2.86283 15.952 3.027L20.4817 7.223C20.6589 7.38717 20.798 7.58042 20.8989 7.80275C21 8.02525 21.0506 8.257 21.0506 8.498V19.6923C21.0506 20.1974 20.8617 20.625 20.4838 20.975C20.106 21.325 19.6444 21.5 19.0991 21.5H6.8094ZM14.5735 7.596V4H6.8094C6.72627 4 6.65017 4.03208 6.58108 4.09625C6.51181 4.16025 6.47718 4.23075 6.47718 4.30775V19.6923C6.47718 19.7693 6.51181 19.8398 6.58108 19.9038C6.65017 19.9679 6.72627 20 6.8094 20H19.0991C19.1822 20 19.2583 19.9679 19.3274 19.9038C19.3967 19.8398 19.4313 19.7693 19.4313 19.6923V8.5H15.5494C15.2711 8.5 15.0389 8.41375 14.8528 8.24125C14.6666 8.06892 14.5735 7.85383 14.5735 7.596Z" fill="#30303D" fill-opacity="0.86"/>
</svg>
