<svg width="63" height="132" viewBox="0 0 63 132" fill="none" xmlns="http://www.w3.org/2000/svg">
<g filter="url(#filter0_dddd_9415_49160)">
<path opacity="0.1" d="M74.0558 50.2498C87.2251 37.6851 87.2248 17.314 74.055 4.74978C60.8852 -7.81448 39.5331 -7.81412 26.3638 4.75057C13.1944 17.3153 13.1948 37.6863 26.3646 50.2506C39.5344 62.8148 60.8865 62.8145 74.0558 50.2498Z" fill="#009CE2"/>
<path opacity="0.34" d="M59.4498 -0.147469C56.2484 -1.66119 52.6686 -3.16398 49.0067 -2.58125C47.3146 -2.3122 45.5428 -1.52597 44.4697 -0.213017C42.894 1.71408 43.542 3.87972 44.3289 5.98072C45.3472 8.69996 46.46 11.274 47.1094 14.0283C47.1495 14.3133 47.1853 14.5923 47.2115 14.8587C47.4372 17.1718 47.5584 19.4891 47.5708 21.8068C47.0712 27.9764 45.1535 34.065 46.3788 40.2974C46.8451 42.667 47.7751 44.9866 49.2019 46.9765C49.7831 47.9712 50.4769 48.9263 51.3406 49.8186C53.8792 52.4432 57.6241 54.2364 61.4196 54.0143C65.4627 53.7775 68.8373 51.4922 71.3864 48.6213C76.9642 42.3402 78.2173 33.6571 77.8933 25.686C77.5817 18.019 74.8293 11.2922 68.8469 6.02535C66.0377 3.55149 62.874 1.47187 59.4498 -0.147469Z" fill="#94F4FF"/>
<path opacity="0.1" d="M48.9425 31.0617C47.3592 31.4896 45.7878 31.9708 44.1382 32.1078C42.3798 32.254 40.6577 31.9781 38.9074 31.8966C35.0813 31.719 31.721 33.2879 30.0819 36.6882C28.5545 39.8567 28.9816 43.5111 30.9905 46.4001C34.9091 52.0353 42.7682 54.9102 49.6759 53.9733C51.368 53.7438 53.0328 53.1889 54.5445 52.435C54.7769 52.3189 54.9726 52.1837 55.1477 52.0394C55.2274 52.0116 55.3104 51.9911 55.3896 51.9624C59.1851 50.5785 61.4875 47.5574 62.042 43.7619C62.5702 40.1449 61.9905 36.0777 59.3707 33.2655C56.6041 30.2955 52.7174 30.0414 48.9425 31.0617Z" fill="#0050D1"/>
<path d="M32.1951 7.27552C26.3912 12.5415 23.3854 20.2694 24.7411 27.854C25.0036 29.3217 26.7257 30.2532 28.1921 29.939C29.7825 29.5985 30.6405 28.118 30.3776 26.6466C30.3136 26.2874 30.2554 25.9278 30.2129 25.5654C30.2072 25.503 30.1981 25.4061 30.1957 25.3605C30.1857 25.1702 30.1738 24.9804 30.1676 24.7901C30.1428 24.0298 30.1686 23.2677 30.242 22.5106C30.2769 22.1514 30.3222 21.7922 30.3804 21.4358C30.39 21.4189 30.514 20.8093 30.545 20.6787C30.7345 19.8875 30.9745 19.1072 31.2613 18.3428C31.3968 17.9822 31.5423 17.6257 31.6979 17.2725C31.7108 17.2433 31.8034 17.0435 31.8444 16.9533C31.8902 16.8659 31.9914 16.6679 32.0062 16.6397C32.3683 15.9545 32.7692 15.2885 33.2067 14.6443C33.5704 14.1098 34.2341 13.2398 34.4751 12.9585C34.3248 13.1337 34.6808 12.7318 34.7151 12.6949C34.8482 12.5515 34.9838 12.4103 35.1212 12.2706C35.4304 11.9565 35.7516 11.6537 36.0789 11.3569C37.2089 10.3321 37.3415 8.58165 36.2755 7.46308C35.2424 6.37821 33.3303 6.24574 32.1951 7.27552Z" fill="white"/>
</g>
<defs>
<filter id="filter0_dddd_9415_49160" x="0.486816" y="-4.6731" width="99.4458" height="136.347" filterUnits="userSpaceOnUse" color-interpolation-filters="sRGB">
<feFlood flood-opacity="0" result="BackgroundImageFix"/>
<feColorMatrix in="SourceAlpha" type="matrix" values="0 0 0 0 0 0 0 0 0 0 0 0 0 0 0 0 0 0 127 0" result="hardAlpha"/>
<feOffset dy="9"/>
<feGaussianBlur stdDeviation="4.5"/>
<feColorMatrix type="matrix" values="0 0 0 0 0.647059 0 0 0 0 0.411765 0 0 0 0 0.984314 0 0 0 0.29 0"/>
<feBlend mode="normal" in2="BackgroundImageFix" result="effect1_dropShadow_9415_49160"/>
<feColorMatrix in="SourceAlpha" type="matrix" values="0 0 0 0 0 0 0 0 0 0 0 0 0 0 0 0 0 0 127 0" result="hardAlpha"/>
<feOffset dy="20"/>
<feGaussianBlur stdDeviation="6"/>
<feColorMatrix type="matrix" values="0 0 0 0 0.647059 0 0 0 0 0.411765 0 0 0 0 0.984314 0 0 0 0.17 0"/>
<feBlend mode="normal" in2="effect1_dropShadow_9415_49160" result="effect2_dropShadow_9415_49160"/>
<feColorMatrix in="SourceAlpha" type="matrix" values="0 0 0 0 0 0 0 0 0 0 0 0 0 0 0 0 0 0 127 0" result="hardAlpha"/>
<feOffset dy="36"/>
<feGaussianBlur stdDeviation="7"/>
<feColorMatrix type="matrix" values="0 0 0 0 0.647059 0 0 0 0 0.411765 0 0 0 0 0.984314 0 0 0 0.05 0"/>
<feBlend mode="normal" in2="effect2_dropShadow_9415_49160" result="effect3_dropShadow_9415_49160"/>
<feColorMatrix in="SourceAlpha" type="matrix" values="0 0 0 0 0 0 0 0 0 0 0 0 0 0 0 0 0 0 127 0" result="hardAlpha"/>
<feOffset dy="56"/>
<feGaussianBlur stdDeviation="8"/>
<feColorMatrix type="matrix" values="0 0 0 0 0.647059 0 0 0 0 0.411765 0 0 0 0 0.984314 0 0 0 0.01 0"/>
<feBlend mode="normal" in2="effect3_dropShadow_9415_49160" result="effect4_dropShadow_9415_49160"/>
<feBlend mode="normal" in="SourceGraphic" in2="effect4_dropShadow_9415_49160" result="shape"/>
</filter>
</defs>
</svg>
