<svg width="201" height="233" viewBox="0 0 201 233" fill="none" xmlns="http://www.w3.org/2000/svg">
<g opacity="0.8">
<path d="M183.158 17.194L200.352 18.4873L183.158 19.779L181.865 36.973L180.573 19.779L163.379 18.4873L180.573 17.194L181.865 0L183.158 17.194Z" fill="#FFEBC2"/>
<path d="M67.1302 182.59L80.3401 183.582L67.1302 184.576L66.1378 197.784L65.1438 184.576L51.9355 183.582L65.1438 182.59L66.1378 169.38L67.1302 182.59Z" fill="#FFEBC2"/>
<path d="M107.001 39.0135C106.894 39.6414 106.298 40.0628 105.67 39.9554C105.042 39.848 104.621 39.2526 104.73 38.6247C104.837 37.9967 105.433 37.5754 106.061 37.6827C106.687 37.7917 107.108 38.3872 107.001 39.0135Z" fill="#FFEBC2"/>
<path d="M16.5394 156.695C16.432 157.323 15.8366 157.744 15.2086 157.637C14.5807 157.53 14.1593 156.934 14.2667 156.306C14.3741 155.678 14.9695 155.257 15.5974 155.364C16.2254 155.472 16.6468 156.067 16.5394 156.695Z" fill="#FFEBC2"/>
<path d="M87.5752 231.302C87.3832 232.42 86.3225 233.171 85.2033 232.98C84.0856 232.788 83.3341 231.727 83.526 230.608C83.718 229.49 84.7787 228.738 85.8979 228.93C87.0155 229.122 87.7672 230.183 87.5752 231.302Z" fill="#FFEBC2"/>
<path d="M37.9432 170.031C38.4868 170.031 38.9274 169.59 38.9274 169.047C38.9274 168.503 38.4868 168.062 37.9432 168.062C37.3996 168.062 36.959 168.503 36.959 169.047C36.959 169.59 37.3996 170.031 37.9432 170.031Z" fill="#FFEBC2"/>
<path opacity="0.17" d="M2.88451 126.563C4.49833 120.551 8.37182 115.692 13.851 112.749C15.5136 111.856 14.0348 109.323 12.3706 110.218C6.24717 113.506 1.85797 119.074 0.0570631 125.783C-0.434241 127.607 2.39483 128.386 2.88451 126.563Z" fill="white"/>
<path opacity="0.17" d="M20.2069 111.034C22.0224 110.203 24.2137 110.548 25.7169 111.848C27.1372 113.078 29.2212 111.012 27.7912 109.774C25.2143 107.543 21.8174 107.088 18.7281 108.501C17.0118 109.287 18.5003 111.815 20.2069 111.034Z" fill="white"/>
<path opacity="0.17" d="M48.618 104.071C50.048 93.97 58.327 89.5337 67.5186 87.7637C69.3699 87.4074 68.5858 84.58 66.7393 84.9362C56.5879 86.8901 47.3556 92.2294 45.7906 103.292C45.5286 105.137 48.3528 105.935 48.618 104.071Z" fill="white"/>
<path opacity="0.17" d="M73.7216 87.3312C75.8593 87.554 77.8245 88.317 79.6156 89.49C81.2002 90.5263 82.6708 87.9884 81.0961 86.957C78.8527 85.4896 76.3783 84.6746 73.7216 84.398C71.8459 84.2028 71.8605 87.1359 73.7216 87.3312Z" fill="white"/>
<path opacity="0.17" d="M115.655 151.27C119.011 150.771 122.384 150.473 125.774 150.345C127.654 150.273 127.664 147.341 125.774 147.411C122.118 147.55 118.494 147.903 114.876 148.441C113.016 148.719 113.807 151.545 115.655 151.27Z" fill="white"/>
</g>
</svg>
