<svg width="353" height="191" viewBox="0 0 353 191" fill="none" xmlns="http://www.w3.org/2000/svg">
<g opacity="0.3">
<path d="M253.993 61.2471C253.993 58.801 252.36 56.818 250.347 56.818C248.333 56.818 246.701 58.801 246.701 61.2471C246.701 63.6931 248.333 65.6761 250.347 65.6761C252.36 65.6761 253.993 63.6931 253.993 61.2471ZM213.346 55.0635C213.346 53.7722 212.484 52.7253 211.421 52.7253C210.358 52.7253 209.496 53.7722 209.496 55.0635C209.496 56.355 210.358 57.4019 211.421 57.4019C212.484 57.4019 213.346 56.355 213.346 55.0635ZM352.859 74.6542C352.859 73.3627 351.998 72.3158 350.934 72.3158C349.871 72.3158 349.01 73.3627 349.01 74.6542C349.01 75.9456 349.871 76.9925 350.934 76.9925C351.998 76.9923 352.859 75.9454 352.859 74.6542ZM53.297 36.9518L53.3257 36.4247V36.9512C53.5651 36.9512 53.7381 36.7157 53.7381 36.4247C53.7381 36.1342 53.5232 35.8988 53.2838 35.8988C52.5994 35.8988 51.9115 35.835 51.2392 35.7096C51.1257 35.6888 51.01 35.7234 50.9174 35.8059C50.8248 35.8883 50.7628 36.0119 50.745 36.1497C50.7275 36.2877 50.7559 36.4285 50.8239 36.5412C50.8919 36.6538 50.9939 36.729 51.1075 36.7502C51.8307 36.8849 52.5614 36.9523 53.2931 36.9518H53.297ZM55.5457 36.7337C56.28 36.5914 57.0038 36.3786 57.7104 36.0972C57.8173 36.0515 57.9053 35.9567 57.9554 35.8332C58.0055 35.7097 58.0138 35.5672 57.9785 35.4363C57.9431 35.3054 57.867 35.1966 57.7664 35.1331C57.6658 35.0695 57.5488 35.0564 57.4403 35.0965C56.7773 35.3602 56.0982 35.5599 55.4094 35.6939C55.3531 35.7048 55.2993 35.729 55.2508 35.7651C55.2023 35.8013 55.1601 35.8487 55.1267 35.9047C55.0933 35.9607 55.0693 36.0241 55.0561 36.0914C55.0428 36.1586 55.0407 36.2284 55.0497 36.2966C55.0586 36.3649 55.0785 36.4304 55.1083 36.4893C55.138 36.5482 55.1771 36.5994 55.2231 36.64C55.2692 36.6806 55.3214 36.7098 55.3767 36.7259C55.4321 36.742 55.4895 36.7446 55.5457 36.7337ZM49.4853 35.7892C49.5027 35.7234 49.5093 35.654 49.5047 35.5851C49.5 35.5162 49.4842 35.449 49.4582 35.3875C49.4322 35.326 49.3964 35.2713 49.353 35.2266C49.3095 35.1819 49.2593 35.1481 49.2051 35.1269C48.5405 34.8676 47.8938 34.545 47.271 34.162C47.2203 34.1306 47.1649 34.1117 47.1082 34.1063C47.0514 34.1009 46.9943 34.1092 46.9401 34.1307C46.886 34.1522 46.8359 34.1865 46.7927 34.2316C46.7495 34.2767 46.714 34.3316 46.6884 34.3934C46.6364 34.5179 46.6273 34.6625 46.663 34.7952C46.6988 34.9279 46.7765 35.0379 46.879 35.101C47.5426 35.5096 48.2318 35.8537 48.9402 36.1298C49.0497 36.1723 49.1685 36.1603 49.2707 36.0964C49.3729 36.0326 49.4501 35.9221 49.4853 35.7892ZM59.765 35.0539C60.4258 34.6408 61.059 34.1656 61.6588 33.6327C61.7047 33.5919 61.7436 33.5405 61.7732 33.4814C61.8028 33.4224 61.8225 33.3568 61.8312 33.2885C61.8399 33.2202 61.8375 33.1505 61.824 33.0833C61.8106 33.0161 61.7864 32.9528 61.7528 32.897C61.7192 32.8412 61.6768 32.794 61.6282 32.7581C61.5796 32.7221 61.5256 32.6982 61.4694 32.6876C61.4131 32.677 61.3557 32.6799 61.3004 32.6963C61.2451 32.7126 61.193 32.7421 61.1471 32.7829C60.5839 33.2832 59.9894 33.7293 59.369 34.1172C59.3184 34.1488 59.2733 34.1922 59.2365 34.2449C59.1996 34.2976 59.1718 34.3586 59.1544 34.4245C59.1369 34.4903 59.1304 34.5596 59.135 34.6285C59.1396 34.6975 59.1554 34.7646 59.1815 34.8261C59.2075 34.8876 59.2432 34.9423 59.2866 34.987C59.33 35.0317 59.3802 35.0656 59.4344 35.0868C59.4886 35.1079 59.5457 35.1159 59.6024 35.1103C59.6591 35.1046 59.7144 35.0855 59.765 35.0539ZM45.5823 33.5746C45.6496 33.4613 45.6772 33.3203 45.6589 33.1824C45.6406 33.0445 45.578 32.9211 45.4848 32.8393C44.9191 32.3425 44.386 31.7929 43.8905 31.1955C43.8506 31.1445 43.8027 31.1037 43.7495 31.0755C43.6964 31.0474 43.6392 31.0324 43.5812 31.0316C43.5233 31.0308 43.4657 31.0442 43.4121 31.0709C43.3585 31.0975 43.3098 31.137 43.2689 31.1869C43.228 31.2369 43.1958 31.2963 43.1742 31.3616C43.1525 31.427 43.1419 31.4969 43.1429 31.5673C43.144 31.6377 43.1566 31.7071 43.1801 31.7715C43.2036 31.8359 43.2375 31.8939 43.2798 31.9421C43.8072 32.5785 44.3748 33.1639 44.9773 33.6928C45.0234 33.7334 45.0757 33.7625 45.131 33.7785C45.1864 33.7945 45.2438 33.7971 45.3 33.7861C45.3562 33.7751 45.4101 33.7508 45.4585 33.7145C45.507 33.6782 45.549 33.6306 45.5823 33.5746ZM63.3472 31.8708C63.8716 31.2308 64.3541 30.5421 64.7902 29.811C64.857 29.6978 64.8841 29.5571 64.8658 29.4197C64.8474 29.2823 64.785 29.1593 64.6922 29.0776C64.5994 28.9959 64.4837 28.9622 64.3705 28.9838C64.2573 29.0054 64.1557 29.0806 64.088 29.1929C63.6784 29.8798 63.2254 30.5269 62.7331 31.1284C62.6728 31.2021 62.6317 31.2959 62.6151 31.3979C62.5986 31.5 62.6073 31.6057 62.6401 31.7017C62.673 31.7977 62.7285 31.8798 62.7997 31.9375C62.8709 31.9953 62.9546 32.0261 63.0402 32.0261C63.0973 32.0261 63.1538 32.0124 63.2065 31.9857C63.2592 31.9591 63.307 31.92 63.3472 31.8708ZM42.4331 30.0062C42.5258 29.9237 42.5877 29.7998 42.6052 29.6618C42.6227 29.5239 42.5944 29.3831 42.5265 29.2705C42.1141 28.5867 41.7462 27.8648 41.4263 27.1115C41.4003 27.05 41.3645 26.9953 41.3211 26.9505C41.2777 26.9058 41.2274 26.872 41.1732 26.8509C41.119 26.8298 41.0618 26.822 41.0051 26.8278C40.9484 26.8336 40.8931 26.853 40.8426 26.8848C40.792 26.9164 40.747 26.9599 40.7102 27.0126C40.6734 27.0654 40.6456 27.1264 40.6282 27.1923C40.6109 27.2581 40.6044 27.3275 40.6091 27.3964C40.6139 27.4652 40.6297 27.5323 40.6558 27.5938C40.9963 28.3961 41.388 29.1647 41.8273 29.8927C41.8676 29.9595 41.9202 30.0139 41.981 30.0513C42.0419 30.0887 42.1091 30.1082 42.1773 30.108C42.2693 30.1082 42.359 30.0725 42.4331 30.0062ZM65.9512 27.5022C66.2879 26.6963 66.5717 25.8594 66.8 24.9992C66.8352 24.8663 66.8255 24.7218 66.7731 24.5975C66.7206 24.4732 66.6297 24.3793 66.5203 24.3364C66.4109 24.2941 66.2921 24.3061 66.1899 24.3697C66.0878 24.4334 66.0105 24.5436 65.975 24.6763C65.7607 25.4834 65.4943 26.2688 65.1783 27.0251C65.1263 27.1496 65.117 27.2941 65.1526 27.4269C65.1883 27.5596 65.2659 27.6698 65.3684 27.7331C65.4709 27.7963 65.5898 27.8076 65.6992 27.7643C65.8085 27.721 65.8991 27.6267 65.9512 27.5022ZM40.3422 25.4342C40.3963 25.4126 40.4464 25.3782 40.4895 25.3331C40.5327 25.288 40.568 25.233 40.5937 25.1713C40.6193 25.1096 40.6347 25.0423 40.639 24.9733C40.6432 24.9044 40.6363 24.8351 40.6184 24.7694C40.4006 23.9641 40.2354 23.1392 40.1242 22.3023C40.1059 22.1645 40.0433 22.0411 39.9501 21.9593C39.8569 21.8775 39.7408 21.8441 39.6273 21.8663C39.5139 21.8885 39.4123 21.9646 39.345 22.0778C39.2776 22.191 39.2501 22.332 39.2684 22.4699C39.3868 23.3616 39.5629 24.2405 39.7951 25.0984C39.8129 25.1641 39.8412 25.2249 39.8783 25.2773C39.9154 25.3298 39.9606 25.3728 40.0114 25.404C40.0622 25.4351 40.1176 25.4538 40.1743 25.459C40.2311 25.4642 40.2881 25.4558 40.3422 25.4342ZM67.3131 22.3662C67.425 21.4858 67.4812 20.5963 67.4811 19.7054V19.6714C67.4811 19.3805 67.287 19.1619 67.0477 19.1619C66.8083 19.1619 66.6143 19.4143 66.6143 19.7052C66.6143 20.5433 66.5612 21.3839 66.4565 22.2047C66.4469 22.2798 66.4508 22.3566 66.468 22.4297C66.4852 22.5028 66.5152 22.5705 66.556 22.6282C66.5967 22.6859 66.6473 22.7322 66.7042 22.7639C66.761 22.7956 66.8229 22.812 66.8855 22.8119C66.9888 22.8118 67.0887 22.7668 67.1671 22.685C67.2455 22.6033 67.2972 22.4902 67.3131 22.3662ZM39.9536 19.7732V19.7052C39.9535 18.8573 40.0076 18.0107 40.1155 17.173C40.1333 17.035 40.1054 16.8941 40.0377 16.7811C39.9701 16.6682 39.8683 16.5926 39.7547 16.5708C39.6984 16.5601 39.641 16.5629 39.5857 16.5791C39.5303 16.5953 39.4781 16.6247 39.4321 16.6654C39.3861 16.7062 39.3472 16.7575 39.3175 16.8166C39.2879 16.8756 39.2681 16.9412 39.2593 17.0095C39.1445 17.9013 39.0869 18.8026 39.0869 19.7052V19.7732C39.0858 19.8432 39.0962 19.9127 39.1175 19.9778C39.1388 20.0428 39.1705 20.1021 39.2108 20.1521C39.2512 20.202 39.2993 20.2417 39.3524 20.2688C39.4056 20.2959 39.4626 20.3099 39.5203 20.3099C39.5779 20.3099 39.6349 20.2959 39.6881 20.2688C39.7412 20.2417 39.7893 20.202 39.8297 20.1521C39.87 20.1021 39.9018 20.0428 39.9231 19.9778C39.9443 19.9127 39.9547 19.8432 39.9536 19.7732ZM66.944 17.5773C67.0575 17.5553 67.1592 17.4796 67.2267 17.3666C67.2942 17.2536 67.3221 17.1126 67.304 16.9747C67.1871 16.083 67.0125 15.2037 66.782 14.3452C66.7644 14.2794 66.7363 14.2185 66.6993 14.1659C66.6623 14.1133 66.6171 14.0702 66.5663 14.0389C66.5155 14.0076 66.4601 13.9888 66.4033 13.9836C66.3465 13.9784 66.2895 13.9868 66.2354 14.0085C66.1261 14.0518 66.0355 14.1461 65.9834 14.2706C65.9314 14.3951 65.9222 14.5396 65.9579 14.6723C66.1742 15.4781 66.338 16.3034 66.4479 17.1404C66.466 17.2782 66.5285 17.4016 66.6215 17.4835C66.7146 17.5655 66.8305 17.5992 66.944 17.5773ZM40.6015 14.704C40.8173 13.8973 41.0849 13.1125 41.4018 12.3567C41.4277 12.2952 41.4433 12.228 41.4478 12.1591C41.4523 12.0902 41.4456 12.0209 41.428 11.9551C41.4104 11.8893 41.3824 11.8284 41.3454 11.7759C41.3084 11.7233 41.2633 11.6801 41.2126 11.6487C41.1619 11.6173 41.1067 11.5983 41.0499 11.5928C40.9932 11.5873 40.9361 11.5955 40.882 11.6168C40.8278 11.6382 40.7777 11.6723 40.7344 11.7172C40.6911 11.7621 40.6556 11.817 40.6298 11.8786C40.292 12.6836 40.0068 13.5197 39.7768 14.379C39.7414 14.5119 39.7508 14.6564 39.803 14.7808C39.8553 14.9052 39.9461 14.9993 40.0554 15.0423C40.1648 15.0854 40.2837 15.074 40.3861 15.0105C40.4885 14.9471 40.566 14.8368 40.6015 14.704ZM65.7374 12.5563C65.8397 12.4926 65.9169 12.3821 65.9521 12.2493C65.9873 12.1164 65.9776 11.9719 65.9252 11.8477C65.586 11.0445 65.1956 10.2749 64.7575 9.54571C64.724 9.48987 64.6817 9.4426 64.6331 9.40662C64.5844 9.37064 64.5305 9.34664 64.4742 9.336C64.418 9.32535 64.3605 9.32827 64.3052 9.34458C64.2499 9.36089 64.1978 9.39029 64.1518 9.43108C64.1059 9.47187 64.067 9.52325 64.0373 9.5823C64.0077 9.64136 63.9879 9.70692 63.9792 9.77524C63.9704 9.84357 63.9728 9.91332 63.9862 9.98052C63.9997 10.0477 64.0239 10.111 64.0575 10.1669C64.4687 10.8514 64.8353 11.5739 65.1539 12.3279C65.1799 12.3895 65.2155 12.4442 65.2589 12.4891C65.3022 12.5339 65.3525 12.5679 65.4067 12.5891C65.4609 12.6103 65.5179 12.6183 65.5747 12.6127C65.6315 12.6071 65.6868 12.5879 65.7374 12.5563ZM42.4961 10.1913C42.9067 9.50551 43.3608 8.85965 43.854 8.25954C43.9353 8.16072 43.9809 8.02674 43.9808 7.88708C43.9808 7.74741 43.935 7.61349 43.8537 7.51478C43.7723 7.41607 43.662 7.36067 43.5471 7.36074C43.4321 7.36081 43.3219 7.41637 43.2406 7.51518C42.7155 8.1545 42.232 8.84231 41.7945 9.57242C41.7269 9.68543 41.6991 9.82641 41.7171 9.96435C41.7351 10.1023 41.7975 10.2259 41.8905 10.3079C41.9836 10.39 42.0996 10.4238 42.2132 10.4019C42.3268 10.38 42.4285 10.3043 42.4961 10.1913ZM63.3093 8.23733C63.3905 8.13846 63.436 8.00449 63.4359 7.86486C63.4357 7.72523 63.3899 7.59139 63.3085 7.49278C62.7822 6.85509 62.2157 6.26834 61.6141 5.73787C61.5211 5.65584 61.405 5.62207 61.2914 5.64401C61.1779 5.66595 61.0761 5.74179 61.0086 5.85485C60.9411 5.96792 60.9133 6.10894 60.9313 6.24689C60.9494 6.38485 61.0118 6.50844 61.1049 6.59047C61.6698 7.08874 62.2019 7.63969 62.6964 8.23831C62.7366 8.28712 62.7843 8.32583 62.8368 8.35222C62.8893 8.37862 62.9455 8.39219 63.0023 8.39214C63.0594 8.39227 63.1159 8.37865 63.1686 8.35208C63.2213 8.32551 63.2691 8.2865 63.3093 8.23733ZM45.4428 6.60795C46.0067 6.10897 46.602 5.66455 47.2232 5.27876C47.3238 5.21398 47.3994 5.10371 47.4336 4.97179C47.4679 4.83986 47.458 4.69687 47.4062 4.57369C47.3544 4.45052 47.2647 4.35706 47.1566 4.3135C47.0486 4.26994 46.9307 4.27978 46.8286 4.3409C46.1668 4.75197 45.5328 5.22564 44.9322 5.75751C44.8863 5.79824 44.8473 5.84957 44.8177 5.90856C44.7881 5.96755 44.7682 6.03305 44.7595 6.10133C44.7506 6.16961 44.753 6.23934 44.7664 6.30651C44.7798 6.37369 44.8039 6.43699 44.8374 6.49283C44.8709 6.54867 44.9132 6.59595 44.9618 6.63196C45.0103 6.66796 45.0643 6.692 45.1205 6.70269C45.1767 6.71338 45.2341 6.71051 45.2894 6.69426C45.3447 6.67801 45.3968 6.64868 45.4428 6.60795ZM59.9041 5.03457C59.9562 4.91012 59.9655 4.76562 59.93 4.63284C59.8944 4.50006 59.8169 4.38989 59.7144 4.32656C59.0516 3.91635 58.363 3.57062 57.6552 3.29263C57.6007 3.26982 57.5431 3.26043 57.4856 3.26501C57.4281 3.2696 57.3719 3.28806 57.3204 3.31932C57.2688 3.35058 57.2229 3.39401 57.1853 3.44708C57.1478 3.50014 57.1193 3.56177 57.1016 3.62836C57.0838 3.69496 57.0772 3.76518 57.0821 3.83492C57.087 3.90466 57.1032 3.97252 57.1299 4.03453C57.1567 4.09654 57.1933 4.15145 57.2377 4.19606C57.2821 4.24067 57.3334 4.27408 57.3885 4.29434C58.0527 4.55588 58.6989 4.88031 59.3213 5.26462C59.382 5.30246 59.4492 5.32219 59.5175 5.32218C59.5974 5.32219 59.6759 5.29533 59.7441 5.24457C59.8124 5.19382 59.8677 5.12115 59.9041 5.03457ZM49.1535 4.30436C49.8169 4.04166 50.4964 3.84341 51.1857 3.71147C51.2992 3.68958 51.4009 3.61388 51.4685 3.501C51.5361 3.38811 51.5641 3.24726 51.5463 3.10934C51.5282 2.9715 51.4659 2.84799 51.373 2.76579C51.2801 2.68359 51.1642 2.64939 51.0507 2.67066C50.3163 2.81165 49.5922 3.02298 48.8852 3.30265C48.7758 3.34587 48.6851 3.44008 48.6329 3.56457C48.5807 3.68906 48.5714 3.83362 48.607 3.96646C48.6426 4.09929 48.7202 4.20952 48.8226 4.27289C48.9251 4.33625 49.0442 4.34758 49.1535 4.30436ZM55.8501 3.26728C55.8589 3.19896 55.8565 3.12922 55.8431 3.06201C55.8297 2.99481 55.8055 2.93147 55.772 2.87561C55.7384 2.81975 55.6962 2.77247 55.6476 2.73646C55.599 2.70045 55.545 2.67643 55.4888 2.66575C54.7651 2.52843 54.0163 2.45241 53.3232 2.46105C53.3055 2.45941 53.2877 2.45856 53.27 2.4585C53.0306 2.4585 52.8435 2.69443 52.8435 2.98557C52.8435 3.27613 53.0445 3.51207 53.2838 3.51207C53.9786 3.51207 54.6753 3.57729 55.3549 3.70636C55.4111 3.71704 55.4685 3.71416 55.5239 3.69787C55.5792 3.68158 55.6313 3.65222 55.6773 3.61144C55.7233 3.57067 55.7622 3.51928 55.7919 3.46023C55.8215 3.40118 55.8413 3.33561 55.8501 3.26728Z" fill="url(#paint0_linear_11099_150337)"/>
<path d="M47.0709 34.4926L47.0997 33.9655V34.492C47.339 34.492 47.5122 34.2565 47.5122 33.9655C47.5122 33.675 47.2971 33.4396 47.0578 33.4396C46.3732 33.4396 45.6852 33.3758 45.013 33.2504C44.8994 33.2297 44.7838 33.2643 44.6912 33.3468C44.5986 33.4292 44.5366 33.5527 44.5187 33.6905C44.5013 33.8285 44.5297 33.9693 44.5977 34.082C44.6657 34.1946 44.7677 34.2698 44.8813 34.291C45.6045 34.4257 46.3352 34.4931 47.0668 34.4926H47.0709ZM49.3193 34.2745C50.0536 34.1322 50.7774 33.9194 51.4839 33.638C51.5932 33.5945 51.6837 33.5 51.7356 33.3755C51.7876 33.2509 51.7966 33.1063 51.7608 32.9736C51.7432 32.9078 51.7151 32.8468 51.6781 32.7943C51.641 32.7417 51.5958 32.6985 51.5449 32.6673C51.4941 32.636 51.4387 32.6172 51.3819 32.6121C51.325 32.607 51.268 32.6155 51.2139 32.6373C50.5509 32.901 49.8718 33.1008 49.183 33.2347C49.0695 33.2567 48.9678 33.3325 48.9003 33.4455C48.8328 33.5586 48.8051 33.6995 48.8231 33.8374C48.8412 33.9753 48.9037 34.0988 48.9967 34.1808C49.0898 34.2628 49.2058 34.2965 49.3193 34.2745ZM43.2588 33.33C43.2762 33.2642 43.2827 33.1948 43.2781 33.1259C43.2734 33.057 43.2576 32.9898 43.2316 32.9283C43.2056 32.8668 43.1698 32.8121 43.1264 32.7674C43.083 32.7227 43.0327 32.6889 42.9785 32.6678C42.3139 32.4084 41.6671 32.0857 41.0443 31.7026C40.9936 31.6711 40.9382 31.6522 40.8814 31.6468C40.8246 31.6414 40.7675 31.6497 40.7134 31.6712C40.6592 31.6927 40.6091 31.727 40.5659 31.7721C40.5227 31.8172 40.4873 31.8722 40.4616 31.934C40.4359 31.9957 40.4204 32.0629 40.4161 32.1318C40.4117 32.2007 40.4186 32.27 40.4363 32.3357C40.454 32.4014 40.4822 32.4622 40.5193 32.5146C40.5563 32.5671 40.6015 32.6102 40.6523 32.6414C41.3158 33.0501 42.005 33.3941 42.7134 33.6702C42.8229 33.7127 42.9418 33.7008 43.044 33.637C43.1462 33.5732 43.2234 33.4628 43.2588 33.33ZM53.5386 32.5947C54.1994 32.1816 54.8325 31.7064 55.4324 31.1735C55.4783 31.1327 55.5172 31.0813 55.5468 31.0223C55.5764 30.9632 55.5961 30.8976 55.6048 30.8293C55.6136 30.761 55.6111 30.6913 55.5977 30.6241C55.5842 30.5569 55.56 30.4936 55.5263 30.4378C55.4583 30.3253 55.3564 30.2501 55.2429 30.2287C55.1293 30.2073 55.0134 30.2415 54.9205 30.3237C54.3573 30.824 53.7628 31.2701 53.1424 31.658C53.0402 31.7218 52.963 31.8324 52.9278 31.9653C52.8927 32.0983 52.9024 32.2428 52.955 32.367C53.0075 32.4912 53.0985 32.585 53.208 32.6277C53.3174 32.6704 53.4364 32.6585 53.5386 32.5947ZM39.3558 31.116C39.4231 31.0027 39.4506 30.8616 39.4323 30.7237C39.414 30.5858 39.3513 30.4624 39.2581 30.3806C38.6924 29.8837 38.1594 29.3342 37.6638 28.7369C37.6238 28.6863 37.5759 28.6459 37.5228 28.6181C37.4698 28.5902 37.4127 28.5756 37.3549 28.575C37.2971 28.5744 37.2398 28.5878 37.1864 28.6145C37.1329 28.6412 37.0844 28.6806 37.0436 28.7303C37.0029 28.7801 36.9708 28.8393 36.9492 28.9044C36.9276 28.9695 36.9169 29.0392 36.9177 29.1094C36.9186 29.1796 36.931 29.2489 36.9543 29.3131C36.9775 29.3774 37.0111 29.4354 37.053 29.4837C37.5805 30.1201 38.1481 30.7055 38.7506 31.2344C38.8438 31.3161 38.9599 31.3494 39.0733 31.3272C39.1868 31.305 39.2884 31.229 39.3558 31.116ZM57.1209 29.4114C57.6453 28.7714 58.1277 28.0827 58.5638 27.3515C58.6306 27.2384 58.6577 27.0977 58.6394 26.9603C58.621 26.8229 58.5586 26.6999 58.4658 26.6182C58.373 26.5365 58.2573 26.5028 58.1441 26.5244C58.0309 26.546 57.9293 26.6212 57.8616 26.7335C57.4521 27.4204 56.9991 28.0674 56.5067 28.6688C56.4464 28.7425 56.4054 28.8363 56.3889 28.9383C56.3724 29.0403 56.3812 29.146 56.414 29.242C56.4468 29.338 56.5023 29.42 56.5735 29.4778C56.6446 29.5355 56.7282 29.5664 56.8138 29.5666C56.8709 29.5667 56.9275 29.5531 56.9802 29.5265C57.033 29.4998 57.0808 29.4607 57.1209 29.4114ZM36.2067 27.547C36.2994 27.4645 36.3613 27.3406 36.3788 27.2026C36.3963 27.0647 36.3679 26.9239 36.3 26.8113C35.8878 26.1274 35.5199 25.4055 35.1998 24.6523C35.1739 24.5907 35.1382 24.536 35.0947 24.4913C35.0513 24.4466 35.001 24.4127 34.9468 24.3916C34.8926 24.3706 34.8354 24.3627 34.7787 24.3685C34.722 24.3744 34.6668 24.3938 34.6162 24.4256C34.5656 24.4572 34.5206 24.5006 34.4838 24.5534C34.447 24.6062 34.4192 24.6672 34.4018 24.7331C34.3845 24.7989 34.378 24.8683 34.3828 24.9372C34.3875 25.0061 34.4034 25.0732 34.4296 25.1346C34.7701 25.9368 35.1617 26.7055 35.6009 27.4335C35.6345 27.4893 35.6768 27.5366 35.7255 27.5726C35.7741 27.6085 35.8282 27.6324 35.8844 27.643C35.9407 27.6535 35.9981 27.6505 36.0535 27.634C36.1088 27.6176 36.1608 27.588 36.2067 27.547ZM59.725 25.0425C60.0616 24.2366 60.3454 23.3996 60.5737 22.5394C60.6089 22.4065 60.5993 22.262 60.5468 22.1377C60.4944 22.0134 60.4035 21.9195 60.2941 21.8766C60.0656 21.7902 59.822 21.9399 59.7486 22.2165C59.5342 23.0237 59.2679 23.8092 58.952 24.5657C58.9184 24.6459 58.9024 24.7352 58.9053 24.8251C58.9083 24.915 58.9302 25.0024 58.9689 25.0791C59.0076 25.1558 59.0619 25.2191 59.1265 25.2631C59.1911 25.3071 59.2639 25.3302 59.338 25.3302C59.4181 25.3304 59.4967 25.3036 59.565 25.2528C59.6333 25.202 59.6887 25.1292 59.725 25.0425ZM34.1155 22.9756C34.1696 22.954 34.2196 22.9196 34.2628 22.8745C34.3059 22.8294 34.3413 22.7744 34.367 22.7127C34.3926 22.651 34.408 22.5837 34.4122 22.5147C34.4165 22.4458 34.4095 22.3765 34.3917 22.3108C34.1738 21.5055 34.0086 20.6806 33.8977 19.8437C33.8598 19.5567 33.6365 19.3593 33.4007 19.4078C33.3445 19.4188 33.2906 19.4432 33.2422 19.4795C33.1937 19.5158 33.1516 19.5633 33.1183 19.6194C33.085 19.6754 33.0611 19.7389 33.0479 19.8062C33.0348 19.8735 33.0327 19.9432 33.0418 20.0115C33.1602 20.9031 33.3363 21.7819 33.5686 22.6398C33.6045 22.7724 33.6822 22.8823 33.7848 22.9453C33.8874 23.0082 34.0063 23.0191 34.1155 22.9756ZM61.0868 19.9076C61.1991 19.0234 61.2553 18.1301 61.2549 17.2354L60.8213 17.2122H61.2547C61.2547 16.9213 61.0608 16.7032 60.8213 16.7032C60.5819 16.7032 60.388 16.9557 60.388 17.2466C60.388 18.0847 60.3348 18.9255 60.2302 19.7461C60.2206 19.8212 60.2246 19.898 60.2418 19.9711C60.259 20.0442 60.289 20.1119 60.3297 20.1696C60.3705 20.2273 60.4211 20.2736 60.4779 20.3053C60.5348 20.337 60.5967 20.3534 60.6592 20.3533C60.7626 20.3531 60.8624 20.3081 60.9408 20.2264C61.0192 20.1446 61.071 20.0316 61.0868 19.9076ZM33.7274 17.3146L33.7272 17.2466C33.7271 16.3987 33.7812 15.5521 33.8891 14.7144C33.898 14.646 33.8957 14.5763 33.8823 14.509C33.869 14.4418 33.8449 14.3784 33.8114 14.3225C33.7779 14.2666 33.7356 14.2192 33.687 14.1831C33.6385 14.1471 33.5845 14.123 33.5283 14.1122C33.2933 14.0696 33.07 14.2633 33.0329 14.5509C32.9178 15.4448 32.8601 16.3482 32.8604 17.2529L32.8605 17.3146C32.8605 17.4542 32.9062 17.5882 32.9875 17.6869C33.0688 17.7856 33.179 17.8411 33.294 17.8411C33.4089 17.8411 33.5191 17.7856 33.6004 17.6869C33.6817 17.5882 33.7274 17.4542 33.7274 17.3146ZM60.7178 15.1185C60.774 15.1076 60.8279 15.0834 60.8764 15.0472C60.925 15.0111 60.9671 14.9637 61.0006 14.9077C61.034 14.8517 61.058 14.7883 61.0712 14.721C61.0845 14.6538 61.0867 14.584 61.0778 14.5157C60.9608 13.624 60.7863 12.7447 60.5558 11.8862C60.5382 11.8204 60.5101 11.7594 60.4731 11.7069C60.4361 11.6543 60.3909 11.6111 60.3401 11.5798C60.2893 11.5485 60.2339 11.5297 60.1771 11.5245C60.1203 11.5193 60.0632 11.5278 60.0091 11.5495C59.955 11.5709 59.9049 11.6051 59.8616 11.6501C59.8184 11.695 59.7829 11.7499 59.7571 11.8116C59.7314 11.8732 59.7158 11.9404 59.7115 12.0094C59.7071 12.0783 59.7139 12.1476 59.7316 12.2133C59.948 13.0191 60.1119 13.8443 60.2216 14.6814C60.2397 14.8192 60.3021 14.9428 60.3952 15.0247C60.4882 15.1067 60.6043 15.1404 60.7178 15.1185ZM34.3749 12.2454C34.5907 11.4387 34.8583 10.6539 35.1752 9.89813C35.2026 9.83638 35.2195 9.76861 35.225 9.69881C35.2305 9.629 35.2245 9.55857 35.2073 9.49164C35.1901 9.4247 35.162 9.36262 35.1248 9.30903C35.0875 9.25545 35.0419 9.21144 34.9905 9.17958C34.939 9.14773 34.8829 9.12868 34.8253 9.12355C34.7677 9.11842 34.7099 9.12731 34.6552 9.1497C34.6005 9.1721 34.55 9.20754 34.5068 9.25395C34.4635 9.30036 34.4283 9.35681 34.4032 9.41997C34.0653 10.225 33.7802 11.061 33.5503 11.9204C33.5148 12.0532 33.5242 12.1978 33.5765 12.3222C33.6287 12.4466 33.7195 12.5406 33.8288 12.5837C33.9382 12.6268 34.0571 12.6154 34.1595 12.5519C34.2619 12.4885 34.3394 12.3782 34.3749 12.2454ZM59.511 10.0977C59.6132 10.034 59.6905 9.92352 59.7257 9.79064C59.7609 9.65777 59.7512 9.51335 59.6988 9.38913C59.3597 8.58593 58.9693 7.81622 58.5312 7.0871C58.4976 7.03126 58.4553 6.984 58.4067 6.94801C58.3581 6.91202 58.3041 6.88801 58.2479 6.87736C58.1916 6.86671 58.1342 6.86961 58.0789 6.88591C58.0236 6.90221 57.9715 6.9316 57.9255 6.97237C57.8795 7.01315 57.8406 7.06452 57.811 7.12356C57.7814 7.1826 57.7616 7.24815 57.7528 7.31646C57.7441 7.38478 57.7465 7.45452 57.7599 7.52172C57.7733 7.58891 57.7975 7.65225 57.831 7.70809C58.2422 8.39267 58.6089 9.11519 58.9275 9.86906C58.9639 9.95541 59.0191 10.0279 59.0873 10.0784C59.1554 10.129 59.2337 10.1556 59.3135 10.1555C59.3822 10.1557 59.4499 10.1359 59.511 10.0977ZM36.2695 7.73244C36.6802 7.04658 37.1343 6.40071 37.6278 5.80072C37.709 5.70194 37.7547 5.56798 37.7547 5.42831C37.7546 5.28864 37.7089 5.15471 37.6276 5.05598C37.5463 4.95725 37.436 4.90179 37.321 4.90183C37.206 4.90187 37.0958 4.95739 37.0145 5.05617C36.4892 5.69526 36.0057 6.38302 35.5683 7.11323C35.5213 7.19175 35.493 7.28453 35.4867 7.38131C35.4804 7.47809 35.4963 7.57511 35.5325 7.66164C35.5688 7.74816 35.624 7.82082 35.6922 7.87159C35.7603 7.92236 35.8386 7.94926 35.9185 7.94932C35.987 7.94952 36.0545 7.92997 36.1155 7.89226C36.1765 7.85455 36.2293 7.79977 36.2695 7.73244ZM57.0832 5.77872C57.1644 5.67985 57.2099 5.54588 57.2098 5.40625C57.2096 5.26662 57.1638 5.13277 57.0824 5.03417C56.5559 4.39666 55.9893 3.80992 55.3878 3.27926C55.2947 3.19723 55.1786 3.16346 55.065 3.1854C54.9515 3.20734 54.8497 3.28318 54.7822 3.39624C54.7146 3.5093 54.6868 3.65033 54.7049 3.78828C54.723 3.92624 54.7854 4.04982 54.8785 4.13186C55.4435 4.6301 55.9756 5.18105 56.4701 5.7797C56.5104 5.82851 56.5581 5.86722 56.6106 5.89361C56.6632 5.92001 56.7195 5.93357 56.7763 5.93353C56.8333 5.93363 56.8898 5.92 56.9425 5.89343C56.9952 5.86686 57.043 5.82787 57.0832 5.77872ZM39.2165 4.14915C39.7804 3.65022 40.3756 3.20579 40.9968 2.81996C41.0968 2.75481 41.1718 2.6446 41.2057 2.51301C41.2396 2.38142 41.2297 2.23892 41.178 2.11614C41.1264 1.99335 41.0372 1.90006 40.9295 1.8563C40.8219 1.81254 40.7044 1.8218 40.6023 1.88209C39.9406 2.29317 39.3065 2.76684 38.706 3.29871C38.6319 3.36407 38.5767 3.45628 38.5485 3.5621C38.5202 3.66791 38.5203 3.78187 38.5487 3.88763C38.5771 3.99338 38.6324 4.08547 38.7066 4.15067C38.7808 4.21588 38.8701 4.25083 38.9617 4.25052C39.0503 4.25052 39.1395 4.21752 39.2165 4.14915ZM53.6777 2.57596C53.7299 2.45151 53.7392 2.30701 53.7036 2.17423C53.668 2.04145 53.5904 1.93128 53.488 1.86795C52.8251 1.45785 52.1366 1.11213 51.4288 0.834017C51.3743 0.810992 51.3165 0.801431 51.2589 0.805887C51.2013 0.810343 51.145 0.828724 51.0934 0.859964C51.0417 0.891204 50.9957 0.934671 50.958 0.987807C50.9204 1.04094 50.8918 1.10267 50.8741 1.16939C50.8563 1.23611 50.8497 1.30647 50.8547 1.37632C50.8596 1.44618 50.8759 1.51414 50.9028 1.5762C50.9296 1.63827 50.9664 1.6932 51.011 1.73776C51.0556 1.78233 51.107 1.81564 51.1623 1.83573C51.8264 2.09727 52.4726 2.4217 53.0949 2.80601C53.1556 2.84382 53.2228 2.86354 53.291 2.86356C53.371 2.86353 53.4495 2.83666 53.5177 2.78591C53.5859 2.73516 53.6413 2.66251 53.6777 2.57596ZM42.9269 1.84575C43.5903 1.58308 44.2697 1.38482 44.9589 1.25286C45.0724 1.23097 45.1741 1.15527 45.2418 1.04239C45.3094 0.929503 45.3374 0.788649 45.3196 0.65073C45.3015 0.512878 45.2392 0.389353 45.1463 0.307178C45.0534 0.225002 44.9375 0.190868 44.8239 0.212249C44.0895 0.353245 43.3655 0.564562 42.6585 0.844232C42.5524 0.890618 42.4654 0.985338 42.4158 1.10832C42.3663 1.23131 42.3581 1.3729 42.393 1.5031C42.4279 1.6333 42.5031 1.74188 42.6028 1.80583C42.7025 1.86979 42.8187 1.88412 42.9269 1.84575ZM49.6235 0.808681C49.6323 0.740366 49.6299 0.670606 49.6165 0.603403C49.6031 0.5362 49.579 0.47287 49.5454 0.417011C49.5119 0.361152 49.4696 0.313858 49.421 0.277849C49.3724 0.24184 49.3185 0.217818 49.2622 0.207141C48.5387 0.0698209 47.7854 -0.0144556 47.0951 0.00243929C46.8443 -0.0274215 46.6173 0.220891 46.6173 0.526964C46.6173 0.817517 46.8183 1.05345 47.0576 1.05345C47.7524 1.05345 48.4491 1.11868 49.1285 1.24775C49.1847 1.25846 49.2422 1.25558 49.2975 1.23931C49.3528 1.22303 49.4049 1.19366 49.4509 1.15288C49.4969 1.1121 49.5358 1.06072 49.5654 1.00166C49.595 0.942593 49.6148 0.877017 49.6235 0.808681ZM-7.31492 115.079C-7.25847 115.07 -7.20403 115.048 -7.15469 115.013C-7.10536 114.979 -7.06213 114.933 -7.02744 114.878C-6.99274 114.823 -6.96728 114.76 -6.95251 114.694C-6.93774 114.627 -6.93392 114.557 -6.94133 114.489C-6.9727 114.2 -7.19315 113.995 -7.42748 114.035C-8.12009 114.144 -8.81857 114.188 -9.51676 114.168C-9.75239 114.179 -9.95488 114.39 -9.96086 114.681C-9.96233 114.75 -9.95256 114.819 -9.93212 114.883C-9.91168 114.948 -9.88097 115.007 -9.84174 115.057C-9.80251 115.107 -9.75552 115.147 -9.70348 115.175C-9.65144 115.203 -9.59536 115.219 -9.53844 115.221C-8.79536 115.244 -8.05191 115.197 -7.31492 115.079ZM-11.2488 114.518C-11.228 114.381 -11.253 114.239 -11.3182 114.124C-11.3834 114.009 -11.4835 113.93 -11.5965 113.905C-12.2821 113.752 -12.9618 113.532 -13.6169 113.25C-13.7246 113.207 -13.842 113.217 -13.9438 113.278C-14.0456 113.339 -14.1238 113.445 -14.1616 113.575C-14.1993 113.705 -14.1937 113.848 -14.1458 113.973C-14.098 114.098 -14.0117 114.195 -13.9056 114.244C-13.2044 114.544 -12.4848 114.777 -11.7535 114.94C-11.6976 114.953 -11.6401 114.952 -11.5844 114.938C-11.5287 114.923 -11.4759 114.896 -11.429 114.856C-11.3822 114.817 -11.3421 114.767 -11.3112 114.709C-11.2803 114.651 -11.259 114.586 -11.2488 114.518ZM-5.13653 114.517C-4.42316 114.261 -3.72758 113.937 -3.05629 113.548C-3.00446 113.518 -2.95796 113.477 -2.91944 113.425C-2.88092 113.374 -2.85116 113.314 -2.83187 113.248C-2.81258 113.183 -2.80416 113.113 -2.80708 113.044C-2.80999 112.974 -2.82418 112.906 -2.84885 112.844C-2.87352 112.781 -2.9082 112.725 -2.95084 112.678C-2.99346 112.632 -3.04321 112.596 -3.09724 112.574C-3.15127 112.551 -3.20851 112.541 -3.26563 112.545C-3.32275 112.549 -3.37862 112.567 -3.43004 112.598C-4.06002 112.963 -4.71272 113.267 -5.38203 113.507C-5.4908 113.548 -5.58187 113.64 -5.63559 113.762C-5.68932 113.884 -5.70137 114.026 -5.66911 114.159C-5.63686 114.292 -5.56287 114.404 -5.46321 114.471C-5.36355 114.538 -5.2462 114.554 -5.13653 114.517ZM-15.3535 112.935C-15.3263 112.874 -15.3093 112.807 -15.3034 112.738C-15.2974 112.67 -15.3027 112.6 -15.3189 112.534C-15.3351 112.468 -15.3619 112.406 -15.3977 112.352C-15.4336 112.298 -15.4778 112.254 -15.5278 112.221C-16.1411 111.817 -16.7272 111.354 -17.2806 110.838C-17.3717 110.753 -17.4868 110.716 -17.6004 110.734C-17.7141 110.753 -17.8173 110.825 -17.8871 110.935C-17.957 111.046 -17.988 111.186 -17.9733 111.324C-17.9586 111.462 -17.8994 111.587 -17.8087 111.673C-17.219 112.223 -16.5945 112.716 -15.9409 113.146C-15.8909 113.179 -15.836 113.2 -15.7794 113.207C-15.7228 113.215 -15.6656 113.208 -15.611 113.189C-15.5564 113.169 -15.5056 113.136 -15.4614 113.093C-15.4172 113.049 -15.3805 112.995 -15.3535 112.935ZM-1.12811 112.193C-0.522804 111.685 0.0495224 111.122 0.583755 110.508L0.302517 110.106L-0.0157547 109.747C-0.516575 110.322 -1.05287 110.85 -1.6199 111.326C-1.71454 111.405 -1.77938 111.527 -1.80018 111.664C-1.82099 111.801 -1.79603 111.943 -1.73081 112.058C-1.6656 112.173 -1.56545 112.252 -1.45242 112.277C-1.33938 112.302 -1.22274 112.272 -1.12811 112.193ZM-19.1496 109.5L-18.8604 109.105C-19.3404 108.489 -19.7801 107.828 -20.1755 107.129C-20.2077 107.072 -20.2489 107.023 -20.2966 106.986C-20.3443 106.948 -20.3977 106.922 -20.4537 106.909C-20.5097 106.897 -20.5671 106.898 -20.6228 106.912C-20.6785 106.926 -20.7313 106.954 -20.7783 106.993C-20.8252 107.032 -20.8653 107.082 -20.8963 107.14C-20.9273 107.198 -20.9487 107.263 -20.9591 107.331C-20.9695 107.399 -20.9688 107.468 -20.957 107.536C-20.9452 107.604 -20.9226 107.668 -20.8904 107.725C-20.467 108.473 -19.996 109.18 -19.4818 109.84L-19.1496 109.5ZM2.09228 108.479C2.54535 107.763 2.95134 107.005 3.3065 106.211C3.3614 106.089 3.3739 105.945 3.34128 105.811C3.30866 105.677 3.2336 105.564 3.13258 105.497C3.03154 105.431 2.91284 105.415 2.80257 105.455C2.69231 105.495 2.59954 105.586 2.54464 105.709C2.21146 106.454 1.83037 107.166 1.40496 107.838C1.3349 107.948 1.3039 108.088 1.31881 108.227C1.33371 108.365 1.3933 108.491 1.48444 108.576C1.57558 108.661 1.69085 108.699 1.80484 108.681C1.91883 108.663 2.02222 108.59 2.09228 108.479ZM-21.4248 105.629C-21.3211 105.569 -21.2411 105.461 -21.2026 105.33C-21.1641 105.198 -21.1701 105.054 -21.2193 104.928C-21.5186 104.162 -21.7677 103.368 -21.9645 102.555C-21.9969 102.421 -22.0717 102.308 -22.1725 102.241C-22.2733 102.174 -22.3919 102.158 -22.5022 102.197C-22.6126 102.237 -22.7055 102.328 -22.7606 102.45C-22.8157 102.573 -22.8285 102.717 -22.7962 102.851C-22.5868 103.718 -22.3213 104.563 -22.0024 105.379C-21.978 105.442 -21.9436 105.498 -21.9014 105.544C-21.8592 105.59 -21.8098 105.626 -21.7562 105.649C-21.7026 105.673 -21.6457 105.683 -21.5889 105.679C-21.532 105.676 -21.4763 105.659 -21.4248 105.629ZM4.21164 103.739C4.45887 102.887 4.65098 102.014 4.78624 101.126C4.79657 101.058 4.79578 100.988 4.78391 100.92C4.77203 100.853 4.74929 100.789 4.71702 100.732C4.68475 100.675 4.64357 100.626 4.59581 100.588C4.54805 100.551 4.49468 100.525 4.43871 100.512C4.38271 100.499 4.32512 100.5 4.26933 100.514C4.21353 100.529 4.16061 100.556 4.11364 100.595C4.06668 100.635 4.02662 100.685 3.99575 100.743C3.96487 100.801 3.94381 100.866 3.9338 100.935C3.80703 101.768 3.62665 102.589 3.39431 103.388C3.37128 103.468 3.36425 103.553 3.37381 103.636C3.38338 103.719 3.40924 103.799 3.44927 103.868C3.48929 103.936 3.5423 103.992 3.60384 104.031C3.66538 104.07 3.73365 104.09 3.80296 104.09C3.89264 104.09 3.98012 104.056 4.05331 103.993C4.12651 103.93 4.18183 103.841 4.21164 103.739ZM-22.7681 100.659C-22.6541 100.641 -22.5507 100.569 -22.4805 100.458C-22.4103 100.348 -22.379 100.208 -22.3937 100.069C-22.4827 99.228 -22.518 98.3796 -22.4992 97.5318C-22.4975 97.4627 -22.5071 97.3938 -22.5274 97.3292C-22.5477 97.2646 -22.5782 97.2054 -22.6173 97.1552C-22.6564 97.1049 -22.7033 97.0645 -22.7552 97.0362C-22.8072 97.0079 -22.8632 96.9923 -22.9201 96.9904C-23.176 96.9863 -23.359 97.2114 -23.3657 97.5019C-23.386 98.4048 -23.3485 99.3082 -23.2534 100.204C-23.2462 100.273 -23.2279 100.339 -23.1996 100.399C-23.1713 100.459 -23.1335 100.511 -23.0884 100.554C-23.0434 100.596 -22.9919 100.627 -22.9369 100.645C-22.882 100.663 -22.8246 100.668 -22.7681 100.659ZM5.01847 98.4357C5.03793 97.5328 4.9995 96.6294 4.9035 95.7337C4.88832 95.5954 4.82867 95.47 4.73759 95.3851C4.64651 95.3001 4.5314 95.2624 4.41751 95.2803C4.36105 95.2892 4.30662 95.3116 4.25728 95.3461C4.20795 95.3806 4.16466 95.4266 4.12995 95.4814C4.09525 95.5362 4.0698 95.5988 4.05501 95.6656C4.04023 95.7324 4.03638 95.802 4.04376 95.8706C4.1341 96.7117 4.17031 97.5601 4.15198 98.408C4.15046 98.4771 4.16016 98.5459 4.18053 98.6105C4.2009 98.6751 4.23154 98.7342 4.27071 98.7843C4.30988 98.8345 4.35678 98.8748 4.40878 98.903C4.46078 98.9312 4.51683 98.9466 4.57374 98.9484H4.58539C4.69833 98.9483 4.80678 98.8947 4.88767 98.7989C4.96855 98.7031 5.01548 98.5728 5.01847 98.4357ZM-22.2784 95.005C-22.1506 94.1715 -21.9692 93.3515 -21.736 92.5523C-21.7169 92.4872 -21.7086 92.4181 -21.7116 92.349C-21.7145 92.2799 -21.7286 92.2122 -21.753 92.1498C-21.7775 92.0873 -21.8119 92.0314 -21.8541 91.9851C-21.8964 91.9387 -21.9458 91.903 -21.9994 91.8799C-22.1077 91.8337 -22.2267 91.8414 -22.3304 91.9013C-22.434 91.9612 -22.514 92.0685 -22.5529 92.1997C-22.8013 93.051 -22.9944 93.9247 -23.1303 94.8127C-23.1424 94.8815 -23.143 94.9524 -23.1321 95.0215C-23.1212 95.0905 -23.099 95.1562 -23.0669 95.2146C-23.0348 95.2731 -22.9933 95.3232 -22.945 95.3618C-22.8967 95.4005 -22.8425 95.4271 -22.7856 95.4399C-22.7287 95.4528 -22.6703 95.4516 -22.6138 95.4366C-22.5573 95.4216 -22.5038 95.393 -22.4565 95.3524C-22.4092 95.3119 -22.3691 95.2603 -22.3386 95.2006C-22.308 95.141 -22.2875 95.0745 -22.2784 95.005ZM4.14985 93.7413C4.20444 93.7217 4.25534 93.6893 4.29961 93.6458C4.34388 93.6023 4.38063 93.5487 4.40783 93.488C4.43503 93.4272 4.45214 93.3606 4.45813 93.2918C4.46412 93.2231 4.45887 93.1536 4.44273 93.0872C4.23222 92.2207 3.96579 91.3758 3.64593 90.5601C3.62141 90.4977 3.58702 90.4417 3.5447 90.3954C3.50238 90.3492 3.45296 90.3135 3.39928 90.2904C3.3456 90.2673 3.2887 90.2572 3.23183 90.2609C3.17497 90.2645 3.11926 90.2817 3.06786 90.3115C3.01647 90.3413 2.97042 90.3831 2.93232 90.4345C2.89422 90.4859 2.86481 90.5459 2.84581 90.6111C2.82681 90.6763 2.81858 90.7454 2.82157 90.8145C2.82455 90.8836 2.8387 90.9513 2.86322 91.0137C3.16347 91.7792 3.41361 92.5723 3.61134 93.3855C3.62747 93.4518 3.65416 93.5136 3.68995 93.5674C3.72575 93.6211 3.76992 93.6658 3.81993 93.6989C3.86994 93.7319 3.9248 93.7527 3.98142 93.7599C4.03803 93.7672 4.09526 93.7609 4.14985 93.7413ZM-20.8837 90.2326C-20.5494 89.4883 -20.1675 88.7771 -19.7415 88.1054C-19.7067 88.0507 -19.6811 87.9882 -19.6663 87.9214C-19.6514 87.8547 -19.6475 87.785 -19.6548 87.7164C-19.6621 87.6479 -19.6805 87.5817 -19.7089 87.5218C-19.7373 87.4619 -19.7751 87.4093 -19.8203 87.3672C-19.8653 87.3248 -19.9168 87.2937 -19.9718 87.2757C-20.0267 87.2576 -20.0841 87.2528 -20.1405 87.2617C-20.197 87.2706 -20.2515 87.2929 -20.3008 87.3274C-20.3502 87.362 -20.3934 87.408 -20.4281 87.4628C-20.8821 88.1781 -21.2889 88.9358 -21.6448 89.7287C-21.6728 89.7895 -21.6906 89.8564 -21.6972 89.9256C-21.7038 89.9948 -21.699 90.0649 -21.6831 90.1318C-21.6673 90.1988 -21.6406 90.2612 -21.6047 90.3156C-21.5688 90.3699 -21.5245 90.415 -21.4741 90.4484C-21.4238 90.4817 -21.3684 90.5026 -21.3114 90.5098C-21.2544 90.5169 -21.1967 90.5103 -21.1418 90.4902C-21.0869 90.4702 -21.0358 90.4371 -20.9915 90.3928C-20.9472 90.3486 -20.9106 90.2942 -20.8837 90.2326ZM2.42042 88.9486C2.51508 88.8694 2.57994 88.7478 2.60078 88.6105C2.62161 88.4731 2.59671 88.3314 2.53152 88.2164C2.1129 87.4789 1.64814 86.7817 1.14137 86.1309L1.12795 86.114C0.963314 85.9038 0.696125 85.9042 0.522598 86.1042C0.349232 86.3042 0.348576 86.6452 0.512882 86.856C0.988377 87.4671 1.4245 88.1217 1.81736 88.814C1.84967 88.871 1.89089 88.9197 1.93869 88.9572C1.98649 88.9948 2.03991 89.0206 2.09591 89.0331C2.15192 89.0456 2.20942 89.0446 2.26509 89.0301C2.32077 89.0156 2.37356 88.9879 2.42042 88.9486ZM-16.7124 84.6229C-16.6177 84.5438 -16.5527 84.4223 -16.5317 84.285C-16.5108 84.1476 -16.5356 84.0058 -16.6007 83.8907C-16.6658 83.7756 -16.7659 83.6967 -16.8789 83.6712C-16.9919 83.6458 -17.1087 83.6759 -17.2034 83.755C-17.8133 84.2649 -18.3899 84.8313 -18.9279 85.4492L-18.3319 86.2138C-17.8266 85.6337 -17.2851 85.1018 -16.7124 84.6229ZM-0.444496 85.0414C-0.374386 84.9307 -0.343292 84.7908 -0.358028 84.6524C-0.372768 84.5139 -0.43214 84.3882 -0.523109 84.3029C-1.11226 83.7514 -1.73631 83.2573 -2.3895 82.8252C-2.49026 82.7622 -2.60734 82.7496 -2.71563 82.7901C-2.82393 82.8307 -2.91486 82.9211 -2.96899 83.042C-3.02313 83.1629 -3.03614 83.3048 -3.00528 83.4372C-2.97442 83.5696 -2.90211 83.6821 -2.80384 83.7507C-2.19079 84.1557 -1.60521 84.6192 -1.05257 85.1368C-0.976841 85.208 -0.883751 85.2465 -0.787998 85.2463C-0.721626 85.2465 -0.656086 85.2281 -0.596508 85.1926C-0.53693 85.1571 -0.484913 85.1053 -0.444496 85.0414ZM-14.9011 83.354C-14.2709 82.9896 -13.6178 82.6863 -12.9482 82.447C-12.8935 82.4276 -12.8426 82.3952 -12.7983 82.3518C-12.7539 82.3085 -12.717 82.2549 -12.6897 82.1942C-12.6624 82.1335 -12.6453 82.0668 -12.6392 81.9981C-12.6331 81.9293 -12.6383 81.8598 -12.6544 81.7934C-12.6704 81.7271 -12.697 81.6652 -12.7327 81.6114C-12.7684 81.5575 -12.8126 81.5128 -12.8625 81.4797C-12.9125 81.4466 -12.9673 81.4258 -13.0239 81.4185C-13.0806 81.4111 -13.1378 81.4175 -13.1924 81.437C-13.9059 81.6919 -14.6019 82.0148 -15.2736 82.4026C-15.3775 82.4626 -15.4575 82.5703 -15.496 82.7019C-15.5345 82.8335 -15.5283 82.9784 -15.479 83.1045C-15.4296 83.2307 -15.3409 83.3279 -15.2326 83.3747C-15.1242 83.4214 -15.005 83.414 -14.9011 83.354ZM-4.16003 82.3971C-4.12165 82.2655 -4.12791 82.1208 -4.17737 81.9947C-4.22684 81.8687 -4.31548 81.7717 -4.42382 81.7251C-5.12486 81.4237 -5.84423 81.1896 -6.57536 81.0247C-6.63135 81.0117 -6.68893 81.0124 -6.74471 81.0266C-6.80048 81.0408 -6.85337 81.0683 -6.90034 81.1075C-6.94733 81.1467 -6.98746 81.1968 -7.0184 81.255C-7.04934 81.3131 -7.07046 81.3781 -7.08059 81.4463C-7.09099 81.5143 -7.09025 81.5841 -7.07841 81.6518C-7.06658 81.7195 -7.04391 81.7837 -7.01165 81.8407C-6.97939 81.8977 -6.93817 81.9464 -6.8904 81.9841C-6.84262 82.0218 -6.78922 82.0476 -6.73322 82.0602C-6.04682 82.2149 -5.37146 82.4346 -4.71331 82.7173C-4.65968 82.7405 -4.6028 82.7506 -4.54594 82.7471C-4.48909 82.7436 -4.43336 82.7264 -4.38197 82.6967C-4.33057 82.6669 -4.28455 82.6251 -4.24647 82.5737C-4.20838 82.5223 -4.17899 82.4623 -4.16003 82.3971ZM-10.9021 81.9235C-10.2096 81.8141 -9.51118 81.7708 -8.81313 81.7938C-8.58382 81.782 -8.37451 81.5722 -8.36804 81.2816C-8.36647 81.2125 -8.37615 81.1437 -8.39647 81.0791C-8.41679 81.0146 -8.44737 80.9555 -8.4865 80.9052C-8.52561 80.855 -8.57248 80.8147 -8.62444 80.7864C-8.67641 80.7582 -8.73243 80.7427 -8.78933 80.7408C-9.53247 80.7177 -10.276 80.7637 -11.0134 80.8785C-11.1274 80.8964 -11.231 80.9687 -11.3012 81.0793C-11.3714 81.19 -11.4026 81.33 -11.3878 81.4686C-11.3731 81.6071 -11.3136 81.7329 -11.2225 81.8182C-11.1314 81.9035 -11.0162 81.9414 -10.9021 81.9235Z" fill="url(#paint1_linear_11099_150337)"/>
<path d="M-13.2382 118.491C-13.1817 118.482 -13.1273 118.46 -13.0779 118.425C-13.0286 118.391 -12.9853 118.345 -12.9507 118.29C-12.916 118.235 -12.8905 118.173 -12.8757 118.106C-12.861 118.039 -12.8572 117.969 -12.8647 117.901C-12.88 117.763 -12.9397 117.637 -13.0308 117.552C-13.1218 117.467 -13.2369 117.43 -13.3508 117.447C-14.0381 117.556 -14.7414 117.601 -15.44 117.58C-15.6765 117.579 -15.8782 117.803 -15.8841 118.093C-15.8856 118.162 -15.8758 118.231 -15.8554 118.296C-15.835 118.36 -15.8043 118.419 -15.765 118.469C-15.7258 118.519 -15.6788 118.56 -15.6268 118.588C-15.5747 118.616 -15.5186 118.631 -15.4617 118.633C-14.7186 118.656 -13.9752 118.608 -13.2382 118.491ZM-17.1721 117.93C-17.1514 117.793 -17.1763 117.651 -17.2415 117.536C-17.3067 117.421 -17.4068 117.342 -17.5198 117.317C-18.2053 117.164 -18.8851 116.944 -19.5402 116.663C-19.6486 116.617 -19.7676 116.625 -19.8712 116.685C-19.9747 116.745 -20.0545 116.853 -20.0931 116.984C-20.1313 117.116 -20.125 117.26 -20.0754 117.386C-20.0258 117.512 -19.9371 117.609 -19.8287 117.656C-19.1275 117.956 -18.4079 118.189 -17.6767 118.353C-17.6207 118.365 -17.5632 118.364 -17.5076 118.35C-17.4519 118.335 -17.3991 118.308 -17.3523 118.268C-17.3054 118.229 -17.2654 118.179 -17.2345 118.121C-17.2036 118.063 -17.1824 117.998 -17.1721 117.93ZM-11.0595 117.93C-10.3462 117.674 -9.65058 117.35 -8.97926 116.961C-8.87556 116.9 -8.79578 116.793 -8.75748 116.661C-8.71918 116.529 -8.72549 116.385 -8.77502 116.259C-8.7995 116.196 -8.83389 116.14 -8.87621 116.094C-8.91853 116.048 -8.96793 116.012 -9.02162 115.989C-9.07531 115.966 -9.13221 115.956 -9.18907 115.959C-9.24593 115.963 -9.30164 115.98 -9.353 116.01C-9.98299 116.375 -10.6357 116.679 -11.305 116.92C-11.3603 116.939 -11.412 116.971 -11.457 117.014C-11.502 117.057 -11.5396 117.111 -11.5674 117.172C-11.5952 117.233 -11.6127 117.3 -11.6189 117.37C-11.6252 117.439 -11.62 117.509 -11.6038 117.576C-11.5875 117.643 -11.5604 117.705 -11.5242 117.759C-11.4879 117.813 -11.4432 117.858 -11.3925 117.891C-11.3419 117.924 -11.2864 117.944 -11.2292 117.951C-11.172 117.958 -11.1143 117.95 -11.0595 117.93ZM-21.2764 116.347C-21.2493 116.286 -21.2324 116.22 -21.2265 116.151C-21.2206 116.082 -21.2259 116.013 -21.2421 115.946C-21.2583 115.88 -21.2851 115.818 -21.321 115.765C-21.3568 115.711 -21.4011 115.666 -21.4511 115.633C-22.0646 115.229 -22.6507 114.767 -23.204 114.25C-23.2954 114.169 -23.4094 114.134 -23.5216 114.153C-23.6339 114.172 -23.7355 114.244 -23.8045 114.354C-23.8736 114.463 -23.9047 114.601 -23.8912 114.737C-23.8777 114.874 -23.8206 114.999 -23.7322 115.085C-23.1424 115.635 -22.5177 116.128 -21.864 116.559C-21.7983 116.602 -21.7275 116.623 -21.6578 116.623C-21.5797 116.623 -21.503 116.597 -21.4359 116.549C-21.3688 116.5 -21.3137 116.43 -21.2764 116.347ZM-7.05138 115.605C-6.44993 115.101 -5.88115 114.542 -5.35007 113.932C-5.34667 113.928 -5.32223 113.901 -5.31899 113.896C-5.14806 113.695 -5.15357 113.376 -5.31821 113.166C-5.48332 112.957 -5.7665 112.961 -5.93955 113.16C-6.44012 113.735 -6.9763 114.263 -7.54334 114.738C-7.59019 114.778 -7.6302 114.828 -7.66113 114.886C-7.69205 114.944 -7.71326 115.009 -7.72354 115.076C-7.73383 115.144 -7.73301 115.214 -7.7211 115.282C-7.70918 115.349 -7.68643 115.414 -7.65414 115.47C-7.62183 115.527 -7.58061 115.576 -7.53284 115.614C-7.48507 115.651 -7.43167 115.677 -7.3757 115.689C-7.31973 115.702 -7.26228 115.701 -7.20663 115.686C-7.15099 115.672 -7.09824 115.644 -7.05138 115.605ZM-25.0729 112.913L-24.7842 112.518C-25.2642 111.902 -25.7039 111.241 -26.0993 110.542C-26.1315 110.485 -26.1726 110.436 -26.2203 110.398C-26.2681 110.36 -26.3215 110.334 -26.3774 110.322C-26.4334 110.309 -26.4909 110.31 -26.5466 110.324C-26.6023 110.339 -26.6552 110.366 -26.7021 110.406C-26.749 110.445 -26.7891 110.495 -26.8202 110.552C-26.8512 110.61 -26.8725 110.675 -26.8829 110.743C-26.8933 110.811 -26.8926 110.881 -26.8808 110.948C-26.869 111.016 -26.8463 111.08 -26.8141 111.137C-26.3907 111.886 -25.9198 112.593 -25.4055 113.252L-25.0729 112.913ZM-3.83085 111.892C-3.37778 111.176 -2.97179 110.417 -2.61663 109.624C-2.56175 109.501 -2.54925 109.357 -2.58189 109.223C-2.61452 109.089 -2.68964 108.976 -2.79067 108.91C-2.8917 108.843 -3.01038 108.828 -3.12063 108.867C-3.23087 108.907 -3.32365 108.998 -3.37853 109.121C-3.7117 109.866 -4.09275 110.578 -4.51817 111.25C-4.58448 111.361 -4.61254 111.499 -4.59634 111.635C-4.58014 111.771 -4.52096 111.893 -4.43142 111.977C-4.34188 112.061 -4.22902 112.098 -4.11686 112.083C-4.0047 112.067 -3.90209 111.998 -3.83085 111.892ZM-27.3484 109.041C-27.2447 108.981 -27.1647 108.874 -27.1262 108.742C-27.0876 108.611 -27.0937 108.466 -27.1429 108.34C-27.4422 107.574 -27.6914 106.78 -27.8881 105.967C-27.9205 105.833 -27.9953 105.72 -28.0961 105.653C-28.1969 105.586 -28.3155 105.57 -28.4259 105.61C-28.5362 105.649 -28.6291 105.74 -28.6842 105.862C-28.7393 105.985 -28.7522 106.129 -28.7198 106.263C-28.5105 107.13 -28.245 107.975 -27.926 108.791C-27.9016 108.854 -27.8673 108.91 -27.825 108.956C-27.7828 109.003 -27.7334 109.038 -27.6798 109.062C-27.6262 109.085 -27.5693 109.095 -27.5125 109.091C-27.4556 109.088 -27.3999 109.071 -27.3484 109.041ZM-1.71164 107.151C-1.46432 106.3 -1.27221 105.426 -1.13705 104.538C-1.11626 104.401 -1.14118 104.259 -1.20634 104.144C-1.2715 104.029 -1.37156 103.95 -1.48457 103.925C-1.54059 103.912 -1.59819 103.912 -1.654 103.926C-1.7098 103.941 -1.7627 103.968 -1.80968 104.008C-1.85665 104.047 -1.89676 104.097 -1.92765 104.155C-1.95854 104.213 -1.97961 104.279 -1.98964 104.347C-2.11643 105.181 -2.29681 106.001 -2.52914 106.8C-2.55212 106.88 -2.55914 106.965 -2.54955 107.048C-2.53996 107.132 -2.51405 107.211 -2.47401 107.28C-2.43398 107.348 -2.38098 107.405 -2.31944 107.443C-2.2579 107.482 -2.18964 107.502 -2.12033 107.502C-2.03066 107.502 -1.94316 107.469 -1.86996 107.406C-1.79677 107.343 -1.74146 107.254 -1.71164 107.151ZM-28.6917 104.071C-28.5777 104.053 -28.4743 103.981 -28.4041 103.87C-28.3339 103.76 -28.3026 103.62 -28.3173 103.481C-28.4065 102.64 -28.4417 101.792 -28.4228 100.944C-28.4211 100.875 -28.4307 100.806 -28.451 100.741C-28.4713 100.677 -28.5018 100.617 -28.5409 100.567C-28.58 100.517 -28.6269 100.476 -28.6788 100.448C-28.7308 100.42 -28.7868 100.404 -28.8437 100.402C-29.0978 100.39 -29.2826 100.624 -29.2893 100.914C-29.3096 101.817 -29.2721 102.72 -29.177 103.616C-29.1637 103.743 -29.1127 103.859 -29.0337 103.944C-28.9547 104.028 -28.8531 104.075 -28.7478 104.075C-28.7291 104.075 -28.7103 104.074 -28.6917 104.071ZM-0.904968 101.848C-0.885239 100.945 -0.923576 100.042 -1.01962 99.1464C-1.03455 99.0079 -1.09416 98.8823 -1.18533 98.7972C-1.2765 98.7121 -1.39177 98.6745 -1.50578 98.6926C-1.61978 98.7108 -1.72319 98.7832 -1.79325 98.8939C-1.86331 99.0047 -1.89429 99.1447 -1.87936 99.2832C-1.78895 100.124 -1.75288 100.972 -1.7715 101.82C-1.77303 101.889 -1.76331 101.958 -1.74291 102.023C-1.72252 102.087 -1.69186 102.146 -1.65266 102.196C-1.61345 102.247 -1.5665 102.287 -1.51447 102.315C-1.46243 102.343 -1.40632 102.359 -1.34939 102.36H-1.3379C-1.22499 102.36 -1.11658 102.307 -1.03574 102.211C-0.95488 102.115 -0.907959 101.985 -0.904968 101.848ZM-28.202 98.4172C-28.0742 97.5837 -27.8928 96.7638 -27.6596 95.9647C-27.6211 95.8331 -27.6272 95.6883 -27.6766 95.5622C-27.726 95.4361 -27.8146 95.339 -27.9229 95.2922C-28.0312 95.2455 -28.1504 95.2529 -28.2542 95.3129C-28.358 95.3729 -28.438 95.4805 -28.4765 95.6121C-28.7249 96.4634 -28.918 97.3371 -29.054 98.2251C-29.0661 98.2939 -29.0667 98.3649 -29.0559 98.434C-29.045 98.5031 -29.0229 98.5688 -28.9907 98.6274C-28.9586 98.6859 -28.9171 98.736 -28.8688 98.7747C-28.8204 98.8135 -28.7662 98.84 -28.7093 98.8529C-28.6523 98.8657 -28.5938 98.8646 -28.5373 98.8495C-28.4807 98.8344 -28.4272 98.8057 -28.3799 98.7651C-28.3326 98.7245 -28.2926 98.6728 -28.262 98.6131C-28.2314 98.5533 -28.211 98.4867 -28.202 98.4172ZM-1.77359 97.1534C-1.719 97.1339 -1.6681 97.1014 -1.62383 97.058C-1.57957 97.0145 -1.54281 96.9609 -1.51561 96.9001C-1.48841 96.8394 -1.47134 96.7728 -1.46535 96.704C-1.45936 96.6353 -1.46457 96.5657 -1.48071 96.4994C-1.69122 95.6329 -1.95765 94.7879 -2.27751 93.9723C-2.32703 93.8462 -2.41575 93.7492 -2.52416 93.7025C-2.63257 93.6559 -2.75179 93.6635 -2.85558 93.7237C-2.95937 93.7838 -3.03925 93.8916 -3.07763 94.0233C-3.11601 94.155 -3.10978 94.2998 -3.06026 94.4259C-2.75999 95.1915 -2.5098 95.9846 -2.3121 96.7979C-2.29596 96.8642 -2.26925 96.926 -2.23344 96.9797C-2.19765 97.0335 -2.15347 97.0781 -2.10347 97.1111C-2.05346 97.1441 -1.99859 97.1649 -1.94199 97.1721C-1.88538 97.1794 -1.82817 97.173 -1.77359 97.1534ZM-26.8073 93.6454C-26.473 92.9011 -26.0911 92.1898 -25.6651 91.5182C-25.6303 91.4635 -25.6048 91.4009 -25.5899 91.3342C-25.5751 91.2675 -25.5712 91.1978 -25.5785 91.1292C-25.5858 91.0607 -25.6042 90.9945 -25.6326 90.9346C-25.6609 90.8747 -25.6987 90.8221 -25.7439 90.7799C-25.7889 90.7375 -25.8403 90.7064 -25.8953 90.6883C-25.9502 90.6701 -26.0076 90.6654 -26.0641 90.6743C-26.1206 90.6832 -26.1751 90.7055 -26.2244 90.7401C-26.2737 90.7746 -26.317 90.8207 -26.3516 90.8756C-26.8055 91.5909 -27.2123 92.3485 -27.5682 93.1415C-27.6043 93.2216 -27.6226 93.3118 -27.6213 93.4031C-27.62 93.4944 -27.5991 93.5837 -27.5607 93.6623C-27.5224 93.7408 -27.4678 93.8059 -27.4025 93.851C-27.3371 93.8962 -27.2632 93.9199 -27.188 93.9198C-27.1101 93.9199 -27.0336 93.8945 -26.9666 93.8462C-26.8996 93.7979 -26.8446 93.7285 -26.8073 93.6454ZM-3.50302 92.361C-3.40836 92.2818 -3.3435 92.1601 -3.32266 92.0228C-3.30183 91.8855 -3.32673 91.7438 -3.39191 91.6288C-3.81055 90.8913 -4.27534 90.1941 -4.7821 89.5433L-4.79553 89.5264C-4.96033 89.316 -5.22699 89.3166 -5.40084 89.5166C-5.57421 89.7165 -5.57471 90.0574 -5.41055 90.2682C-4.93507 90.8793 -4.49894 91.5339 -4.10608 92.2262C-4.07378 92.2832 -4.03259 92.3319 -3.98479 92.3695C-3.937 92.4071 -3.88358 92.4329 -3.82757 92.4454C-3.77156 92.4579 -3.71407 92.4569 -3.65839 92.4424C-3.6027 92.4279 -3.5499 92.4002 -3.50302 92.361ZM-22.636 88.0351C-22.5442 87.9546 -22.4819 87.8336 -22.4625 87.698C-22.4431 87.5625 -22.4682 87.4231 -22.5323 87.3097C-22.5965 87.1963 -22.6946 87.1178 -22.8058 87.0912C-22.9169 87.0646 -23.0322 87.0918 -23.127 87.1672C-23.7368 87.677 -24.3132 88.2434 -24.851 88.8614L-24.2552 89.626C-23.7502 89.0456 -23.2088 88.5137 -22.636 88.0351ZM-6.36826 88.4537C-6.29811 88.3432 -6.26701 88.2033 -6.28175 88.0648C-6.29649 87.9264 -6.35587 87.8007 -6.44686 87.7155C-7.03597 87.1639 -7.66006 86.6698 -8.3133 86.2378C-8.41398 86.176 -8.53049 86.1644 -8.63812 86.2052C-8.74577 86.2461 -8.83608 86.3362 -8.88995 86.4566C-8.94382 86.5769 -8.95701 86.718 -8.9267 86.8499C-8.89641 86.9819 -8.825 87.0943 -8.72763 87.1634C-8.11459 87.5685 -7.52898 88.032 -6.97633 88.5496C-6.93123 88.5918 -6.87973 88.6229 -6.82475 88.6409C-6.76978 88.6589 -6.71244 88.6636 -6.65597 88.6547C-6.59949 88.6458 -6.54499 88.6235 -6.49563 88.589C-6.44627 88.5545 -6.40298 88.5086 -6.36826 88.4537ZM-20.8249 86.7662C-20.1946 86.4019 -19.5416 86.0986 -18.872 85.8592C-18.8173 85.8397 -18.7664 85.8074 -18.722 85.764C-18.6777 85.7207 -18.6408 85.6671 -18.6136 85.6064C-18.5863 85.5457 -18.5691 85.479 -18.5631 85.4102C-18.557 85.3415 -18.5622 85.2719 -18.5783 85.2056C-18.5942 85.1392 -18.6208 85.0773 -18.6565 85.0235C-18.6922 84.9696 -18.7363 84.9249 -18.7863 84.8917C-18.8363 84.8586 -18.8911 84.8378 -18.9477 84.8305C-19.0043 84.8232 -19.0616 84.8296 -19.1162 84.8492C-19.8297 85.1041 -20.5256 85.427 -21.1974 85.8148C-21.3012 85.8748 -21.3812 85.9824 -21.4197 86.1141C-21.4583 86.2457 -21.4521 86.3906 -21.4028 86.5167C-21.3534 86.6429 -21.2647 86.7401 -21.1564 86.7868C-21.048 86.8336 -20.9288 86.8262 -20.8249 86.7662ZM-10.0835 85.8093C-10.0451 85.6777 -10.0513 85.5329 -10.1008 85.4069C-10.1503 85.2809 -10.2389 85.1839 -10.3473 85.1372C-11.0483 84.836 -11.7677 84.6018 -12.4988 84.4369C-12.7365 84.3809 -12.9602 84.5726 -13.004 84.8585C-13.0144 84.9265 -13.0137 84.9963 -13.0019 85.064C-12.9901 85.1317 -12.9673 85.1959 -12.9351 85.2529C-12.9028 85.3099 -12.8616 85.3586 -12.8139 85.3963C-12.7661 85.4339 -12.7127 85.4598 -12.6567 85.4724C-11.9702 85.6269 -11.2949 85.8467 -10.6367 86.1295C-10.5831 86.1527 -10.5263 86.1628 -10.4694 86.1592C-10.4126 86.1557 -10.3568 86.1385 -10.3055 86.1088C-10.2541 86.079 -10.208 86.0373 -10.1699 85.9859C-10.1319 85.9345 -10.1025 85.8745 -10.0835 85.8093ZM-16.8255 85.3359C-16.1331 85.2262 -15.4347 85.1828 -14.7367 85.2062C-14.4982 85.1887 -14.298 84.9846 -14.2917 84.694C-14.2885 84.5544 -14.3311 84.419 -14.4101 84.3175C-14.4891 84.2161 -14.598 84.1569 -14.713 84.153C-15.4561 84.1299 -16.1995 84.176 -16.9368 84.2909C-17.0508 84.309 -17.1543 84.3813 -17.2245 84.492C-17.2947 84.6027 -17.3258 84.7427 -17.311 84.8812C-17.3037 84.9498 -17.2854 85.016 -17.257 85.0759C-17.2287 85.1359 -17.1909 85.1885 -17.1458 85.2307C-17.1007 85.2729 -17.0492 85.3039 -16.9942 85.322C-16.9393 85.34 -16.882 85.3447 -16.8255 85.3359ZM103.049 131.216C103.163 131.201 103.268 131.131 103.34 131.023C103.412 130.914 103.445 130.775 103.433 130.636C103.407 130.346 103.189 130.141 102.955 130.169C102.265 130.262 101.561 130.288 100.865 130.247C100.627 130.23 100.422 130.457 100.411 130.748C100.405 130.887 100.445 131.024 100.523 131.127C100.6 131.23 100.708 131.292 100.823 131.299C101.565 131.342 102.31 131.314 103.049 131.216ZM99.126 130.551C99.1376 130.483 99.138 130.413 99.1273 130.345C99.1166 130.278 99.095 130.213 99.0637 130.155C99.0324 130.097 98.9921 130.048 98.945 130.009C98.8979 129.97 98.8449 129.943 98.7892 129.929C98.1056 129.757 97.4341 129.521 96.7809 129.222C96.6734 129.173 96.5541 129.177 96.4494 129.235C96.3447 129.292 96.2631 129.398 96.2225 129.529C96.1819 129.659 96.1858 129.804 96.2331 129.931C96.2804 130.058 96.3674 130.157 96.4749 130.207C97.1706 130.525 97.8858 130.777 98.6139 130.96C98.7264 130.988 98.8436 130.961 98.9397 130.884C99.0357 130.808 99.1028 130.688 99.126 130.551ZM105.237 130.713C105.955 130.475 106.656 130.169 107.334 129.798C107.385 129.77 107.432 129.729 107.471 129.679C107.51 129.628 107.541 129.569 107.561 129.505C107.581 129.44 107.59 129.371 107.589 129.302C107.587 129.233 107.574 129.165 107.55 129.102C107.527 129.039 107.494 128.982 107.452 128.935C107.411 128.887 107.362 128.85 107.309 128.826C107.256 128.801 107.199 128.79 107.142 128.792C107.085 128.794 107.029 128.81 106.977 128.839C106.341 129.187 105.682 129.474 105.009 129.697C104.898 129.734 104.804 129.822 104.747 129.943C104.69 130.065 104.675 130.208 104.705 130.343C104.735 130.478 104.808 130.592 104.908 130.662C105.008 130.731 105.126 130.749 105.237 130.713ZM95.0503 128.859C95.1072 128.738 95.1222 128.594 95.0918 128.46C95.0615 128.325 94.9884 128.211 94.8886 128.141C94.2827 127.721 93.7049 127.243 93.1608 126.712C93.1165 126.668 93.0654 126.635 93.0105 126.614C92.9555 126.594 92.8978 126.587 92.8406 126.594C92.7835 126.601 92.728 126.622 92.6775 126.655C92.6271 126.689 92.5825 126.734 92.5465 126.788C92.5105 126.842 92.4838 126.905 92.4679 126.972C92.452 127.039 92.4472 127.109 92.4538 127.179C92.4604 127.248 92.4783 127.315 92.5064 127.376C92.5346 127.437 92.5724 127.49 92.6177 127.533C93.1975 128.099 93.8132 128.608 94.4589 129.056C94.5241 129.101 94.5981 129.125 94.6733 129.125C94.7499 129.125 94.8252 129.101 94.8914 129.054C94.9577 129.007 95.0125 128.94 95.0503 128.859ZM109.286 128.494C109.901 128.001 110.484 127.452 111.03 126.851L110.753 126.445L110.443 126.077C109.931 126.639 109.385 127.153 108.809 127.614C108.762 127.652 108.721 127.701 108.689 127.758C108.657 127.816 108.634 127.88 108.623 127.948C108.611 128.015 108.611 128.085 108.622 128.153C108.632 128.221 108.654 128.286 108.685 128.343C108.717 128.401 108.757 128.451 108.804 128.49C108.851 128.529 108.904 128.556 108.96 128.57C109.016 128.584 109.073 128.584 109.129 128.571C109.185 128.558 109.238 128.532 109.286 128.494ZM91.3166 125.325L91.6136 124.94C91.1448 124.311 90.7171 123.639 90.3342 122.929C90.2711 122.812 90.1725 122.731 90.06 122.702C89.9475 122.674 89.8303 122.7 89.734 122.777C89.6379 122.853 89.5707 122.973 89.5472 123.11C89.5237 123.246 89.5458 123.389 89.6087 123.506C90.0175 124.263 90.4741 124.98 90.9746 125.651L91.3166 125.325ZM112.572 124.866C113.038 124.162 113.457 123.415 113.826 122.631C113.881 122.51 113.894 122.367 113.863 122.234C113.833 122.102 113.76 121.989 113.661 121.92C113.563 121.852 113.446 121.833 113.336 121.868C113.226 121.903 113.132 121.99 113.074 122.108C112.727 122.844 112.334 123.546 111.896 124.206C111.845 124.284 111.813 124.377 111.804 124.475C111.795 124.574 111.808 124.674 111.844 124.763C111.879 124.853 111.934 124.928 112.003 124.981C112.072 125.034 112.152 125.062 112.234 125.063C112.299 125.063 112.363 125.045 112.421 125.011C112.48 124.977 112.531 124.928 112.572 124.866ZM89.1116 121.397C89.1635 121.369 89.2104 121.329 89.2495 121.278C89.2885 121.228 89.3191 121.169 89.3393 121.104C89.3596 121.04 89.3692 120.971 89.3675 120.902C89.3659 120.833 89.353 120.765 89.3297 120.702C89.0442 119.928 88.8092 119.128 88.6269 118.309C88.6121 118.242 88.5867 118.18 88.5519 118.125C88.5172 118.07 88.4739 118.024 88.4245 117.99C88.3751 117.955 88.3206 117.933 88.2641 117.924C88.2076 117.915 88.1503 117.92 88.0953 117.938C87.9844 117.975 87.8899 118.063 87.8327 118.184C87.7755 118.305 87.7602 118.449 87.7901 118.584C87.9844 119.456 88.2347 120.308 88.5387 121.133C88.5858 121.26 88.6726 121.359 88.78 121.409C88.8875 121.459 89.0067 121.454 89.1116 121.397ZM114.775 120.183C115.038 119.338 115.245 118.47 115.397 117.585C115.42 117.449 115.398 117.306 115.335 117.19C115.272 117.073 115.173 116.991 115.06 116.963C114.948 116.935 114.831 116.962 114.735 117.038C114.639 117.115 114.571 117.235 114.548 117.372C114.406 118.202 114.211 119.017 113.965 119.811C113.94 119.89 113.931 119.976 113.94 120.061C113.949 120.145 113.974 120.226 114.014 120.296C114.054 120.366 114.107 120.423 114.169 120.463C114.231 120.502 114.3 120.523 114.37 120.523C114.458 120.523 114.544 120.491 114.616 120.43C114.689 120.369 114.744 120.283 114.775 120.183ZM87.8571 116.391C87.9137 116.384 87.9685 116.363 88.0185 116.33C88.0684 116.297 88.1125 116.252 88.1482 116.198C88.184 116.144 88.2106 116.083 88.2267 116.016C88.2427 115.95 88.2479 115.88 88.2418 115.812C88.1677 114.968 88.1478 114.119 88.1823 113.272C88.1879 113.133 88.1477 112.996 88.0706 112.893C87.9934 112.79 87.8855 112.728 87.7707 112.721C87.5251 112.699 87.3279 112.93 87.3163 113.221C87.2797 114.123 87.301 115.026 87.38 115.924C87.3923 116.063 87.4495 116.19 87.5389 116.277C87.6284 116.365 87.7428 116.406 87.8571 116.391ZM115.677 114.903C115.712 114 115.69 113.096 115.61 112.198C115.604 112.129 115.587 112.062 115.56 112.002C115.533 111.941 115.496 111.887 115.451 111.844C115.407 111.801 115.356 111.768 115.301 111.749C115.247 111.729 115.189 111.723 115.133 111.731C115.076 111.738 115.021 111.759 114.971 111.793C114.921 111.826 114.877 111.87 114.842 111.924C114.806 111.978 114.779 112.04 114.763 112.106C114.747 112.173 114.742 112.242 114.749 112.311C114.8 112.894 114.827 113.48 114.827 114.067C114.827 114.328 114.822 114.59 114.811 114.851C114.805 114.99 114.846 115.127 114.923 115.23C115 115.334 115.108 115.396 115.223 115.402C115.23 115.403 115.237 115.403 115.244 115.403C115.356 115.403 115.463 115.351 115.543 115.258C115.624 115.165 115.672 115.037 115.677 114.903ZM88.4482 110.752C88.5908 109.922 88.7868 109.106 89.0343 108.313C89.075 108.183 89.0713 108.038 89.0242 107.911C88.977 107.784 88.8902 107.684 88.7828 107.635C88.7296 107.61 88.6729 107.599 88.616 107.601C88.559 107.603 88.503 107.618 88.4511 107.647C88.3991 107.675 88.3523 107.716 88.3133 107.766C88.2743 107.816 88.2439 107.876 88.2237 107.94C87.9602 108.785 87.7515 109.653 87.5996 110.537C87.5864 110.613 87.5875 110.693 87.6027 110.769C87.6179 110.845 87.6469 110.916 87.6876 110.977C87.7283 111.037 87.7796 111.086 87.8379 111.12C87.8961 111.154 87.9598 111.171 88.0243 111.171C88.1238 111.171 88.2202 111.129 88.2974 111.053C88.3746 110.976 88.4278 110.87 88.4482 110.752ZM114.893 110.185C114.948 110.166 115 110.135 115.045 110.093C115.09 110.051 115.127 109.998 115.156 109.938C115.184 109.878 115.202 109.812 115.209 109.743C115.217 109.675 115.213 109.605 115.198 109.538C115.003 108.666 114.751 107.815 114.446 106.991C114.399 106.864 114.312 106.765 114.204 106.715C114.097 106.666 113.978 106.67 113.873 106.727C113.768 106.785 113.686 106.89 113.646 107.021C113.605 107.151 113.608 107.296 113.656 107.424C113.942 108.197 114.178 108.996 114.361 109.815C114.391 109.949 114.464 110.064 114.564 110.133C114.664 110.203 114.782 110.221 114.893 110.185ZM89.9278 106.018C90.2751 105.283 90.6696 104.582 91.1074 103.922C91.1796 103.813 91.2133 103.674 91.201 103.535C91.1888 103.397 91.1317 103.269 91.0422 103.182C90.9527 103.094 90.8383 103.053 90.7239 103.068C90.6096 103.083 90.5049 103.152 90.4327 103.261C89.966 103.964 89.5456 104.711 89.1754 105.495C89.1472 105.555 89.1289 105.621 89.1217 105.689C89.1144 105.758 89.1184 105.828 89.1333 105.894C89.1482 105.961 89.1738 106.024 89.2087 106.078C89.2435 106.133 89.2868 106.179 89.3362 106.213C89.4359 106.282 89.5542 106.301 89.6652 106.264C89.7761 106.228 89.8705 106.139 89.9278 106.018ZM113.249 105.349C113.296 105.311 113.337 105.262 113.369 105.205C113.401 105.148 113.424 105.083 113.435 105.016C113.447 104.948 113.447 104.878 113.437 104.81C113.426 104.742 113.405 104.678 113.373 104.62C112.967 103.87 112.514 103.159 112.018 102.494L111.688 102.835L111.379 103.205C111.844 103.828 112.268 104.495 112.649 105.198C112.688 105.271 112.742 105.331 112.805 105.372C112.869 105.414 112.94 105.435 113.011 105.435C113.096 105.435 113.178 105.405 113.249 105.349ZM92.5501 102.067C93.0658 101.5 93.6168 100.983 94.198 100.519C94.2456 100.481 94.2866 100.432 94.3186 100.375C94.3506 100.317 94.373 100.253 94.3846 100.185C94.3961 100.118 94.3966 100.048 94.3859 99.9799C94.3753 99.9119 94.3537 99.8472 94.3224 99.7894C94.2913 99.7315 94.251 99.6817 94.2039 99.6427C94.1569 99.6037 94.1039 99.5765 94.0482 99.5624C93.9924 99.5484 93.9349 99.5479 93.879 99.5609C93.8231 99.5739 93.7698 99.6003 93.7223 99.6384C93.1034 100.132 92.5168 100.684 91.9676 101.287C91.9626 101.293 91.9511 101.306 91.9462 101.313C91.7798 101.514 91.7798 101.837 91.942 102.044C91.9823 102.095 92.0308 102.136 92.0846 102.164C92.1383 102.192 92.1962 102.206 92.2546 102.206C92.3602 102.206 92.4665 102.159 92.5501 102.067ZM110.455 101.366C110.491 101.312 110.517 101.25 110.534 101.184C110.55 101.118 110.555 101.048 110.549 100.979C110.542 100.91 110.525 100.844 110.498 100.783C110.471 100.722 110.434 100.669 110.389 100.626C109.81 100.059 109.195 99.5492 108.55 99.0999C108.45 99.0305 108.332 99.012 108.221 99.0487C108.11 99.0853 108.015 99.174 107.958 99.2953C107.901 99.4165 107.886 99.5603 107.916 99.6952C107.946 99.83 108.019 99.9447 108.119 100.014C108.725 100.436 109.302 100.914 109.846 101.446C109.923 101.521 110.019 101.562 110.117 101.562C110.182 101.562 110.246 101.545 110.305 101.511C110.363 101.477 110.415 101.427 110.455 101.366ZM96.0315 99.2971C96.6684 98.95 97.3267 98.6639 98.0003 98.4416C98.0552 98.4235 98.1067 98.3924 98.1517 98.3502C98.1967 98.3079 98.2345 98.2553 98.2628 98.1953C98.2911 98.1354 98.3094 98.0692 98.3167 98.0006C98.3239 97.9321 98.32 97.8624 98.3051 97.7957C98.2902 97.729 98.2646 97.6665 98.2298 97.6118C98.195 97.5571 98.1517 97.5113 98.1024 97.4769C98.053 97.4425 97.9985 97.4203 97.9421 97.4115C97.8856 97.4026 97.8283 97.4074 97.7734 97.4255C97.0556 97.662 96.3543 97.9666 95.6759 98.3367C95.624 98.365 95.5771 98.4055 95.5381 98.4559C95.4991 98.5062 95.4686 98.5654 95.4484 98.6301C95.4282 98.6947 95.4187 98.7636 95.4204 98.8327C95.4221 98.9018 95.435 98.9698 95.4583 99.0329C95.4817 99.096 95.5151 99.1528 95.5565 99.2002C95.5979 99.2476 95.6467 99.2847 95.6999 99.3092C95.7531 99.3337 95.8098 99.3453 95.8667 99.3432C95.9236 99.3412 95.9796 99.3255 96.0315 99.2971ZM106.787 98.6241C106.828 98.4934 106.824 98.3485 106.777 98.2211C106.73 98.0937 106.643 97.9943 106.535 97.9448C105.84 97.6252 105.125 97.3723 104.397 97.1884C104.285 97.16 104.167 97.1872 104.071 97.2638C103.975 97.3405 103.908 97.4604 103.885 97.5971C103.861 97.7339 103.884 97.8763 103.947 97.9931C104.01 98.1099 104.109 98.1914 104.221 98.2198C104.904 98.3924 105.576 98.6298 106.229 98.9297C106.336 98.9791 106.455 98.9747 106.56 98.9173C106.665 98.86 106.746 98.7546 106.787 98.6241ZM100.056 97.9724C100.529 97.9103 101.005 97.879 101.481 97.8789C101.707 97.8809 101.924 97.885 102.146 97.8984C102.382 97.9086 102.588 97.6886 102.6 97.398C102.606 97.2585 102.565 97.122 102.488 97.0186C102.411 96.9151 102.303 96.8532 102.188 96.8464C101.952 96.832 101.705 96.8136 101.481 96.8257C100.977 96.8257 100.466 96.8592 99.9625 96.9256C99.9059 96.933 99.8511 96.9539 99.8011 96.9871C99.7512 97.0203 99.7071 97.0651 99.6714 97.1189C99.6358 97.1728 99.6092 97.2347 99.5932 97.3011C99.5772 97.3674 99.5721 97.4369 99.5782 97.5057C99.5844 97.5744 99.6016 97.641 99.6289 97.7017C99.6562 97.7623 99.6931 97.8159 99.7374 97.8592C99.7818 97.9026 99.8327 97.9349 99.8873 97.9543C99.942 97.9737 99.9992 97.9799 100.056 97.9724Z" fill="url(#paint2_linear_11099_150337)"/>
<path d="M97.0742 134.472C97.1308 134.465 97.1856 134.444 97.2355 134.41C97.2854 134.377 97.3294 134.332 97.3651 134.278C97.4007 134.224 97.4272 134.163 97.4432 134.096C97.4591 134.03 97.4641 133.96 97.4579 133.891C97.4517 133.823 97.4345 133.756 97.4071 133.695C97.3797 133.635 97.3428 133.581 97.2984 133.538C97.254 133.495 97.203 133.463 97.1484 133.443C97.0937 133.424 97.0365 133.418 96.9799 133.425C96.286 133.517 95.5872 133.543 94.89 133.502C94.654 133.479 94.4473 133.713 94.436 134.003C94.4306 134.143 94.4709 134.279 94.5482 134.382C94.6254 134.486 94.7333 134.548 94.8481 134.554C95.0778 134.567 95.3077 134.574 95.5376 134.574C96.0485 134.574 96.5656 134.54 97.0742 134.472ZM93.1514 133.807C93.163 133.739 93.1634 133.669 93.1527 133.601C93.142 133.533 93.1204 133.469 93.0891 133.411C93.0578 133.353 93.0175 133.303 92.9704 133.265C92.9233 133.226 92.8703 133.199 92.8146 133.185C92.131 133.013 91.4595 132.777 90.8063 132.478C90.6987 132.428 90.5795 132.433 90.4748 132.49C90.37 132.548 90.2884 132.654 90.2478 132.784C90.2072 132.915 90.211 133.06 90.2584 133.187C90.3057 133.314 90.3928 133.413 90.5003 133.463C91.196 133.781 91.9112 134.033 92.6393 134.216C92.7519 134.244 92.8691 134.217 92.9651 134.14C93.0611 134.063 93.1282 133.944 93.1514 133.807ZM99.2626 133.968C99.9801 133.731 100.681 133.425 101.359 133.054C101.412 133.026 101.461 132.986 101.501 132.936C101.542 132.886 101.573 132.826 101.594 132.761C101.616 132.695 101.626 132.625 101.624 132.555C101.623 132.485 101.61 132.416 101.586 132.352C101.562 132.288 101.528 132.23 101.486 132.182C101.443 132.135 101.393 132.098 101.339 132.074C101.285 132.05 101.227 132.039 101.169 132.043C101.111 132.046 101.055 132.064 101.003 132.094C100.366 132.442 99.708 132.729 99.0346 132.952C98.9258 132.991 98.8341 133.081 98.7789 133.201C98.7237 133.321 98.7095 133.463 98.7393 133.596C98.7691 133.729 98.8406 133.842 98.9384 133.912C99.0362 133.981 99.1526 134.002 99.2626 133.968ZM89.0757 132.115C89.1326 131.993 89.1476 131.85 89.1172 131.715C89.0869 131.58 89.0138 131.466 88.914 131.397C88.3081 130.976 87.7304 130.499 87.1862 129.968C87.1418 129.925 87.0909 129.892 87.0362 129.873C86.9816 129.854 86.9244 129.848 86.8678 129.855C86.8112 129.862 86.7564 129.883 86.7065 129.917C86.6566 129.95 86.6125 129.995 86.5769 130.049C86.5412 130.102 86.5146 130.164 86.4987 130.231C86.4827 130.297 86.4776 130.367 86.4838 130.435C86.4899 130.504 86.5072 130.571 86.5345 130.631C86.5618 130.692 86.5987 130.745 86.6431 130.789C87.2229 131.354 87.8386 131.863 88.4843 132.311C88.5337 132.346 88.5883 132.368 88.6448 132.376C88.7013 132.385 88.7586 132.38 88.8136 132.362C88.8685 132.344 88.9199 132.312 88.9649 132.27C89.0099 132.228 89.0476 132.175 89.0757 132.115ZM103.311 131.75C103.926 131.257 104.509 130.708 105.055 130.107L104.779 129.701L104.468 129.332C103.957 129.895 103.411 130.409 102.835 130.869C102.742 130.948 102.678 131.067 102.656 131.202C102.635 131.337 102.658 131.476 102.72 131.591C102.782 131.706 102.878 131.787 102.989 131.816C103.099 131.846 103.215 131.822 103.311 131.75ZM85.3424 128.581L85.6391 128.195C85.1704 127.566 84.7426 126.894 84.3597 126.184C84.2966 126.068 84.198 125.986 84.0856 125.958C83.9731 125.929 83.8559 125.956 83.7596 126.032C83.6634 126.109 83.5962 126.228 83.5727 126.365C83.5492 126.502 83.5714 126.644 83.6343 126.761C84.044 127.52 84.502 128.239 85.004 128.911L85.3424 128.581ZM106.597 128.121C107.063 127.417 107.483 126.67 107.852 125.885C107.906 125.764 107.92 125.622 107.889 125.489C107.858 125.356 107.785 125.244 107.687 125.175C107.588 125.107 107.471 125.088 107.361 125.123C107.252 125.158 107.157 125.244 107.099 125.363C106.753 126.099 106.359 126.8 105.922 127.461C105.854 127.57 105.823 127.707 105.837 127.844C105.85 127.98 105.907 128.104 105.995 128.19C106.083 128.276 106.195 128.317 106.308 128.304C106.42 128.291 106.524 128.225 106.597 128.121ZM83.137 124.652C83.1889 124.624 83.2358 124.584 83.2749 124.534C83.3139 124.483 83.3445 124.424 83.3647 124.36C83.385 124.295 83.3946 124.226 83.3929 124.157C83.3913 124.088 83.3784 124.02 83.3551 123.957C83.0697 123.183 82.8347 122.383 82.6523 121.564C82.6223 121.43 82.5494 121.315 82.4498 121.245C82.3501 121.176 82.2317 121.157 82.1207 121.193C82.0098 121.23 81.9153 121.318 81.8581 121.439C81.8009 121.561 81.7855 121.704 81.8155 121.839C82.0098 122.711 82.2601 123.563 82.5641 124.388C82.6112 124.515 82.698 124.615 82.8054 124.664C82.9129 124.714 83.0321 124.71 83.137 124.652ZM108.801 123.438C109.064 122.593 109.271 121.725 109.422 120.84C109.435 120.772 109.437 120.701 109.427 120.632C109.417 120.563 109.396 120.497 109.365 120.438C109.334 120.379 109.293 120.328 109.245 120.289C109.198 120.249 109.144 120.221 109.088 120.207C109.031 120.193 108.973 120.192 108.917 120.206C108.86 120.219 108.806 120.246 108.758 120.285C108.71 120.324 108.669 120.375 108.638 120.433C108.606 120.492 108.584 120.558 108.574 120.626C108.432 121.457 108.237 122.272 107.99 123.066C107.95 123.196 107.953 123.341 108.001 123.468C108.048 123.596 108.135 123.695 108.242 123.744C108.35 123.794 108.469 123.789 108.574 123.732C108.679 123.674 108.76 123.569 108.801 123.438ZM81.8825 119.646C81.9968 119.632 82.1015 119.562 82.1737 119.453C82.2458 119.345 82.2795 119.206 82.2672 119.067C82.1931 118.224 82.1732 117.375 82.2077 116.528C82.2133 116.388 82.1731 116.252 82.096 116.148C82.0188 116.045 81.9109 115.983 81.7961 115.976C81.5521 115.948 81.3533 116.186 81.3417 116.476C81.3049 117.378 81.3262 118.282 81.4054 119.179C81.4114 119.248 81.4286 119.314 81.4559 119.375C81.4831 119.436 81.5199 119.489 81.5642 119.533C81.6085 119.576 81.6594 119.609 81.7141 119.628C81.7687 119.648 81.8259 119.654 81.8825 119.646ZM109.702 118.158C109.738 117.256 109.716 116.351 109.636 115.453C109.61 115.164 109.4 114.953 109.158 114.987C109.101 114.994 109.047 115.015 108.997 115.048C108.947 115.081 108.903 115.126 108.867 115.18C108.831 115.234 108.805 115.296 108.789 115.362C108.773 115.428 108.768 115.498 108.774 115.567C108.849 116.41 108.87 117.259 108.836 118.106C108.831 118.246 108.871 118.382 108.948 118.486C109.026 118.589 109.134 118.651 109.248 118.658C109.255 118.659 109.263 118.659 109.27 118.659C109.381 118.659 109.488 118.607 109.568 118.513C109.649 118.42 109.697 118.293 109.702 118.158ZM82.4736 114.007C82.6162 113.177 82.8122 112.362 83.0597 111.569C83.1004 111.438 83.0967 111.294 83.0496 111.166C83.0024 111.039 82.9156 110.94 82.8082 110.89C82.755 110.866 82.6983 110.854 82.6413 110.856C82.5844 110.858 82.5284 110.874 82.4764 110.902C82.4245 110.93 82.3777 110.971 82.3386 111.021C82.2996 111.072 82.2691 111.131 82.2489 111.196C81.9854 112.04 81.7768 112.908 81.6249 113.792C81.6117 113.869 81.6127 113.948 81.628 114.024C81.6432 114.1 81.6723 114.171 81.713 114.232C81.7537 114.293 81.805 114.342 81.8633 114.375C81.9215 114.409 81.9852 114.426 82.0497 114.426C82.1492 114.426 82.2457 114.384 82.3228 114.308C82.4 114.232 82.4532 114.125 82.4736 114.007ZM108.918 113.44C108.973 113.422 109.025 113.391 109.07 113.348C109.115 113.306 109.153 113.253 109.181 113.193C109.209 113.133 109.227 113.067 109.235 112.999C109.242 112.93 109.238 112.86 109.223 112.794C109.028 111.922 108.776 111.07 108.471 110.246C108.424 110.119 108.337 110.02 108.229 109.971C108.122 109.921 108.003 109.926 107.898 109.983C107.793 110.04 107.711 110.146 107.671 110.276C107.63 110.407 107.634 110.552 107.681 110.679C107.967 111.453 108.203 112.252 108.386 113.07C108.401 113.137 108.427 113.199 108.462 113.254C108.497 113.309 108.54 113.355 108.589 113.389C108.639 113.423 108.693 113.445 108.75 113.454C108.806 113.463 108.863 113.458 108.918 113.44ZM83.9532 109.274C84.3005 108.538 84.695 107.837 85.1328 107.177C85.205 107.069 85.2387 106.93 85.2264 106.791C85.2142 106.652 85.1571 106.525 85.0676 106.437C84.9781 106.349 84.8637 106.308 84.7493 106.323C84.635 106.338 84.5303 106.407 84.4581 106.516C83.9914 107.219 83.5711 107.966 83.201 108.75C83.1632 108.83 83.1433 108.921 83.1435 109.013C83.1436 109.105 83.1637 109.196 83.2017 109.276C83.2398 109.356 83.2945 109.422 83.3603 109.468C83.4261 109.514 83.5007 109.538 83.5767 109.538C83.6531 109.538 83.7281 109.514 83.7943 109.467C83.8604 109.421 83.9152 109.354 83.9532 109.274ZM107.275 108.604C107.322 108.566 107.363 108.517 107.395 108.46C107.427 108.402 107.449 108.338 107.461 108.27C107.472 108.203 107.473 108.133 107.462 108.065C107.452 107.997 107.43 107.932 107.399 107.875C106.993 107.125 106.539 106.414 106.043 105.749L105.714 106.091L105.404 106.46C105.869 107.084 106.294 107.75 106.674 108.452C106.714 108.526 106.767 108.586 106.831 108.627C106.894 108.669 106.965 108.69 107.037 108.69C107.121 108.69 107.204 108.66 107.275 108.604ZM86.5755 105.323C87.0912 104.756 87.6422 104.238 88.2234 103.774C88.3189 103.697 88.3854 103.577 88.4084 103.441C88.4313 103.305 88.409 103.163 88.3461 103.047C88.2833 102.93 88.185 102.849 88.0729 102.82C87.9608 102.792 87.8439 102.818 87.7478 102.894C87.1289 103.388 86.5423 103.939 85.9931 104.543C85.9881 104.549 85.9766 104.562 85.9718 104.568C85.8054 104.77 85.8054 105.093 85.9676 105.299C86.0079 105.351 86.0564 105.392 86.1101 105.42C86.1639 105.447 86.2218 105.462 86.2802 105.461C86.3894 105.461 86.4946 105.412 86.5755 105.323ZM104.481 104.621C104.516 104.567 104.543 104.505 104.559 104.439C104.575 104.373 104.58 104.303 104.574 104.234C104.568 104.165 104.551 104.099 104.523 104.038C104.496 103.978 104.459 103.924 104.415 103.881C103.835 103.314 103.22 102.804 102.575 102.355C102.476 102.289 102.359 102.273 102.249 102.31C102.14 102.347 102.047 102.436 101.991 102.555C101.934 102.675 101.919 102.817 101.948 102.95C101.976 103.084 102.047 103.198 102.144 103.269C102.75 103.691 103.327 104.169 103.871 104.701C103.916 104.745 103.966 104.777 104.021 104.796C104.076 104.816 104.133 104.822 104.19 104.814C104.246 104.807 104.301 104.786 104.351 104.753C104.401 104.72 104.445 104.675 104.481 104.621ZM90.0569 102.552C90.6938 102.205 91.352 101.919 92.0257 101.697C92.1366 101.66 92.2311 101.572 92.2883 101.451C92.3455 101.33 92.3607 101.186 92.3307 101.051C92.3159 100.984 92.2904 100.922 92.2556 100.867C92.2208 100.812 92.1775 100.766 92.1281 100.732C92.0786 100.697 92.0241 100.675 91.9676 100.666C91.9111 100.658 91.8537 100.663 91.7988 100.681C91.081 100.917 90.3797 101.222 89.7013 101.592C89.6494 101.62 89.6025 101.661 89.5635 101.711C89.5245 101.761 89.494 101.821 89.4738 101.885C89.4536 101.95 89.4441 102.019 89.4458 102.088C89.4475 102.157 89.4604 102.225 89.4837 102.288C89.5071 102.351 89.5404 102.408 89.5819 102.455C89.6233 102.503 89.6721 102.54 89.7253 102.564C89.7785 102.589 89.8352 102.601 89.8921 102.598C89.949 102.596 90.005 102.581 90.0569 102.552ZM100.813 101.879C100.853 101.748 100.85 101.604 100.802 101.476C100.755 101.349 100.668 101.25 100.561 101.2C99.8654 100.881 99.1505 100.628 98.4226 100.444C98.3668 100.43 98.3093 100.429 98.2534 100.442C98.1975 100.455 98.1442 100.481 98.0966 100.519C98.049 100.557 98.008 100.606 97.976 100.663C97.9439 100.721 97.9215 100.785 97.9099 100.853C97.8984 100.92 97.8979 100.99 97.9086 101.058C97.9192 101.126 97.9408 101.191 97.972 101.249C98.0033 101.307 98.0436 101.356 98.0907 101.395C98.1378 101.434 98.1907 101.461 98.2465 101.475C98.9299 101.648 99.6012 101.885 100.254 102.185C100.362 102.235 100.481 102.23 100.586 102.173C100.69 102.115 100.772 102.01 100.813 101.879ZM94.0812 101.228C94.5545 101.166 95.0302 101.134 95.5063 101.134C95.7353 101.114 95.95 101.141 96.1714 101.154C96.4092 101.174 96.6137 100.944 96.6255 100.653C96.6311 100.514 96.5909 100.377 96.5136 100.274C96.4364 100.171 96.3285 100.109 96.2136 100.102C95.9778 100.087 95.7269 100.069 95.5059 100.081C95.0023 100.081 94.4916 100.115 93.9879 100.181C93.9313 100.188 93.8765 100.209 93.8265 100.243C93.7766 100.276 93.7325 100.321 93.6968 100.374C93.6611 100.428 93.6346 100.49 93.6186 100.557C93.6026 100.623 93.5975 100.692 93.6036 100.761C93.6097 100.83 93.6269 100.896 93.6543 100.957C93.6816 101.018 93.7185 101.071 93.7628 101.115C93.8072 101.158 93.8581 101.19 93.9127 101.21C93.9673 101.229 94.0246 101.235 94.0812 101.228ZM48.4382 196.372C47.4731 194.521 45.5269 193.627 43.7383 193.886C41.95 194.146 40.3361 195.419 39.1488 197.064C37.9614 198.711 37.1578 200.712 36.487 202.744C35.3767 206.107 34.5927 209.75 34.7862 213.335C31.5489 209.748 28.5438 205.863 25.7975 201.715C25.5475 201.337 25.3034 200.955 25.0578 200.573L32.7528 194.082C34.4642 192.638 36.2185 191.142 37.3625 189.026C38.5069 186.91 38.9109 183.997 37.7943 181.856C36.8292 180.005 34.883 179.111 33.0944 179.37C31.3059 179.629 29.6922 180.903 28.5049 182.548C27.3177 184.194 26.5141 186.196 25.8431 188.228C24.6979 191.696 23.8987 195.464 24.1628 199.158C21.2288 194.441 18.6256 189.432 16.3806 184.186L23.9694 177.245C25.6338 175.722 27.3395 174.146 28.4161 171.977C29.4927 169.809 29.8045 166.88 28.6213 164.792C27.5986 162.988 25.6256 162.185 23.8466 162.527C22.0679 162.87 20.4956 164.218 19.3611 165.917C18.2265 167.617 17.4866 169.655 16.8801 171.717C15.9095 175.018 15.2498 178.568 15.4854 182.032C13.9347 178.195 12.5727 174.245 11.4214 170.203C11.0806 169.007 10.7651 167.801 10.4619 166.59L18.0728 159.139C19.6952 157.551 21.3572 155.907 22.3746 153.696C23.3922 151.486 23.6248 148.546 22.3858 146.507C21.3147 144.744 19.3213 144.021 17.5527 144.434C15.784 144.847 14.2491 146.257 13.1612 148.001C12.0733 149.746 11.3889 151.812 10.8387 153.897C10.0524 156.877 9.52177 160.043 9.64985 163.144C8.74203 158.993 8.05583 154.776 7.59552 150.517C8.82137 146.957 10.0471 143.397 11.2731 139.837C12.0776 137.5 12.895 135.092 12.9246 132.558C12.954 130.024 12.0076 127.302 10.1206 126.224C8.48936 125.293 6.45406 125.81 5.06099 127.197C3.66808 128.584 2.87098 130.713 2.59702 132.878C2.32355 135.043 2.53036 137.257 2.8627 139.41C3.47514 143.379 4.5799 147.378 6.73435 150.423C6.73516 150.437 6.73384 150.449 6.73546 150.464C7.2182 154.998 7.95969 159.487 8.94394 163.897C7.4045 161.231 5.24034 159.077 2.96864 157.297C1.45346 156.11 -0.154999 155.042 -1.90759 154.532C-3.66016 154.023 -5.58303 154.117 -7.16548 155.161C-8.74825 156.206 -9.91008 158.301 -9.81644 160.489C-9.7076 163.02 -7.99109 165.113 -6.04961 166.036C-4.10814 166.959 -1.96451 166.948 0.119118 166.925L9.63903 166.816C10.9774 172.171 12.6691 177.386 14.6977 182.41C12.612 180.101 9.94387 178.566 7.24392 177.472C5.53436 176.78 3.7585 176.23 1.95724 176.265C0.156303 176.301 -1.68686 176.972 -3.00635 178.462C-4.32568 179.951 -5.02349 182.333 -4.48609 184.424C-3.86427 186.844 -1.77484 188.353 0.293747 188.662C2.3625 188.971 4.43609 188.313 6.44937 187.661L15.6428 184.684C15.7099 184.84 15.7738 184.998 15.8414 185.154C18.0573 190.261 20.6151 195.143 23.4755 199.748C20.886 197.543 17.6719 196.539 14.5107 196.084C12.7216 195.827 10.8912 195.725 9.13396 196.204C7.37637 196.682 5.68378 197.794 4.63987 199.577C3.59579 201.361 3.30941 203.866 4.18384 205.782C5.19557 207.999 7.49251 208.963 9.5695 208.756C11.6462 208.549 13.5669 207.394 15.4295 206.26L24.2089 200.914C24.2495 200.977 24.2909 201.04 24.3318 201.103L24.3022 201.211L24.3661 201.157C27.2106 205.58 30.341 209.73 33.7311 213.551C30.9514 212.841 27.9914 213.145 25.1844 213.848C23.3865 214.298 21.5901 214.915 20.0167 216.064C18.4433 217.213 17.0998 218.949 16.5609 221.08C16.0219 223.212 16.4051 225.744 17.7562 227.254C19.3187 229 21.7942 229.034 23.7478 228.023C25.7012 227.011 27.2541 225.145 28.7557 223.321L35.1547 215.551L35.3801 215.36C39.2045 219.446 43.3297 223.107 47.7069 226.271C48.1691 226.605 48.6873 225.792 48.2189 225.454C43.9157 222.343 39.8605 218.753 36.0968 214.756L43.397 208.597C45.1082 207.153 46.8624 205.657 48.0067 203.541C49.1508 201.426 49.5548 198.513 48.4382 196.372Z" fill="url(#paint3_linear_11099_150337)"/>
<path d="M24.3189 201.639C24.1365 199.16 26.1326 197.057 28.171 196.857C30.2092 196.656 32.1702 197.881 33.8228 199.359C36.4958 201.749 38.5083 204.616 40.5023 207.724C39.7797 204.089 39.166 200.422 38.6491 196.745C38.3072 194.312 38.0091 191.869 37.7548 189.419C33.162 189.88 28.459 188.638 24.4447 185.885C22.9234 184.842 21.3641 183.317 21.213 181.203C21.0363 178.733 23.0327 176.629 25.0669 176.423C27.101 176.216 29.0546 177.43 30.7001 178.898C33.4627 181.362 35.5141 184.34 37.5714 187.567C36.8577 180.004 36.5815 172.375 36.8527 164.776C32.3282 164.303 27.925 162.186 24.3739 158.746C23.0078 157.423 21.6672 155.617 21.7939 153.5C21.9422 151.027 24.1881 149.335 26.2232 149.523C28.2584 149.711 30.0291 151.286 31.462 153.052C33.7842 155.913 35.3896 159.119 36.9462 162.56C37.3359 154.554 38.3438 146.294 41.1365 139.002C41.1944 138.85 41.2583 138.701 41.3173 138.55C36.8388 137.32 32.6725 134.44 29.5272 130.374C28.3306 128.827 27.216 126.807 27.5902 124.734C28.0277 122.312 30.4492 121.027 32.4416 121.566C34.4338 122.105 36.001 123.971 37.2119 125.967C39.3453 129.484 40.5923 133.259 41.8188 137.297C45.2338 128.98 49.926 121.392 53.1001 112.946C48.5339 111.752 44.2782 108.846 41.0788 104.711C39.8821 103.164 38.7675 101.144 39.1419 99.0706C39.5792 96.6489 42.0008 95.3635 43.9932 95.9026C45.9855 96.4417 47.5527 98.3072 48.7633 100.304C50.9542 103.915 52.2103 107.798 53.4693 111.96C54.2317 109.832 54.8934 107.648 55.407 105.379C56.4469 100.785 56.6669 95.9655 56.2291 91.1915C51.4599 91.5565 46.6044 90.0831 42.5443 87.0192C41.0605 85.899 39.5552 84.2958 39.4773 82.1755C39.3864 79.6986 41.4538 77.6987 43.4932 77.5964C45.5325 77.494 47.4427 78.8065 49.0357 80.3561C51.9574 83.1986 54.0101 86.61 56.1393 90.2939C55.3011 82.6081 52.7723 75.0885 49.1999 68.8778C44.8717 68.5662 40.6182 66.7605 37.0872 63.7011C35.6647 62.4684 34.2464 60.752 34.2799 58.6303C34.3187 56.1511 36.4869 54.3154 38.5275 54.3706C40.5681 54.4262 42.4056 55.8837 43.9141 57.5537C46.3209 60.2178 48.0489 63.261 49.7298 66.5361C49.845 66.6082 49.9444 66.7125 50.0199 66.8404C53.1575 72.0435 55.3986 78.0103 56.7364 84.2441C57.0325 85.624 57.2867 87.0166 57.4984 88.4191C58.3612 83.4037 60.3598 78.6774 63.2387 74.9303C64.4308 73.3787 66.0178 71.8955 67.7448 72.2136C69.7631 72.5855 70.9771 75.4366 70.6645 77.8867C70.3522 80.3371 68.922 82.359 67.3616 83.9573C64.4506 86.9381 61.2384 88.7342 57.784 90.5907C58.1215 93.5617 58.2314 96.5678 57.987 99.5482C57.617 104.062 56.549 108.3 55.1022 112.372C57.7785 108.205 61.4317 104.967 65.5261 103.175C67.1697 102.455 69.1389 102.015 70.5562 103.256C72.2121 104.706 72.221 107.916 71.0226 109.923C69.8241 111.93 67.7919 112.936 65.8028 113.493C61.9914 114.559 58.3662 114.337 54.4786 114.063C51.9323 120.694 48.4736 126.91 45.509 133.19C44.5759 135.167 43.6956 137.16 42.9082 139.202C45.6226 134.504 49.5424 130.847 53.9857 128.895C55.6288 128.172 57.5973 127.729 59.0161 128.968C60.6735 130.415 60.6858 133.625 59.4894 135.634C58.2932 137.642 56.2621 138.652 54.2735 139.212C50.3763 140.309 46.6731 140.058 42.6839 139.782C41.8643 141.969 41.1598 144.216 40.631 146.566C39.6641 150.866 39.1008 155.293 38.7649 159.727C38.6754 160.906 38.6044 162.087 38.5459 163.27C40.6624 158.745 43.8234 154.942 47.5834 152.444C49.1162 151.425 51.0059 150.622 52.5636 151.583C54.3838 152.705 54.7996 155.876 53.8697 158.083C52.9398 160.29 51.0595 161.664 49.1648 162.586C45.664 164.29 42.1829 164.778 38.4634 165.22C38.1992 172.645 38.511 180.113 39.2175 187.495C40.4038 182.258 42.8552 177.449 46.2054 173.849C47.514 172.443 49.2104 171.151 50.9047 171.668C52.884 172.273 53.8684 175.252 53.3645 177.655C52.8609 180.057 51.2783 181.904 49.5991 183.314C46.4124 185.989 43.0115 187.407 39.3557 188.881C39.4552 189.858 39.5612 190.834 39.6736 191.809C40.2946 197.155 41.1173 202.487 42.1809 207.745C43.4005 202.666 45.8121 198.012 49.0758 194.507C50.3846 193.1 52.0808 191.808 53.7751 192.325C55.7546 192.93 56.739 195.909 56.2351 198.312C55.7315 200.715 54.1485 202.561 52.4694 203.971C49.3701 206.572 46.0689 207.985 42.5277 209.416C43.7995 215.393 45.3905 221.267 47.3671 226.945C47.7786 228.128 46.24 228.822 45.8291 227.641C43.8333 221.907 42.2366 215.972 40.9562 209.936C36.3416 210.393 31.6101 209.133 27.5692 206.349C26.0419 205.297 24.4755 203.761 24.3189 201.639Z" fill="#CBC8F4"/>
<path d="M24.3189 201.639C24.1365 199.16 26.1326 197.057 28.171 196.857C30.2092 196.656 32.1702 197.881 33.8228 199.359C36.4958 201.749 38.5083 204.616 40.5023 207.724C39.7797 204.089 39.166 200.422 38.6491 196.745C38.3072 194.312 38.0091 191.869 37.7548 189.419C33.162 189.88 28.459 188.638 24.4447 185.885C22.9234 184.842 21.3641 183.317 21.213 181.203C21.0363 178.733 23.0327 176.629 25.0669 176.423C27.101 176.216 29.0546 177.43 30.7001 178.898C33.4627 181.362 35.5141 184.34 37.5714 187.567C36.8577 180.004 36.5815 172.375 36.8527 164.776C32.3282 164.303 27.925 162.186 24.3739 158.746C23.0078 157.423 21.6672 155.617 21.7939 153.5C21.9422 151.027 24.1881 149.335 26.2232 149.523C28.2584 149.711 30.0291 151.286 31.462 153.052C33.7842 155.913 35.3896 159.119 36.9462 162.56C37.3359 154.554 38.3438 146.294 41.1365 139.002C41.1944 138.85 41.2583 138.701 41.3173 138.55C36.8388 137.32 32.6725 134.44 29.5272 130.374C28.3306 128.827 27.216 126.807 27.5902 124.734C28.0277 122.312 30.4492 121.027 32.4416 121.566C34.4338 122.105 36.001 123.971 37.2119 125.967C39.3453 129.484 40.5923 133.259 41.8188 137.297C45.2338 128.98 49.926 121.392 53.1001 112.946C48.5339 111.752 44.2782 108.846 41.0788 104.711C39.8821 103.164 38.7675 101.144 39.1419 99.0706C39.5792 96.6489 42.0008 95.3635 43.9932 95.9026C45.9855 96.4417 47.5527 98.3072 48.7633 100.304C50.9542 103.915 52.2103 107.798 53.4693 111.96C54.2317 109.832 54.8934 107.648 55.407 105.379C56.4469 100.785 56.6669 95.9655 56.2291 91.1915C51.4599 91.5565 46.6044 90.0831 42.5443 87.0192C41.0605 85.899 39.5552 84.2958 39.4773 82.1755C39.3864 79.6986 41.4538 77.6987 43.4932 77.5964C45.5325 77.494 47.4427 78.8065 49.0357 80.3561C51.9574 83.1986 54.0101 86.61 56.1393 90.2939C55.3011 82.6081 52.7723 75.0885 49.1999 68.8778C44.8717 68.5662 40.6182 66.7605 37.0872 63.7011C35.6647 62.4684 34.2464 60.752 34.2799 58.6303C34.3187 56.1511 36.4869 54.3154 38.5275 54.3706C40.5681 54.4262 42.4056 55.8837 43.9141 57.5537C46.3209 60.2178 48.0489 63.261 49.7298 66.5361C49.845 66.6082 49.9444 66.7125 50.0199 66.8404C53.1575 72.0435 55.3986 78.0103 56.7364 84.2441C57.0325 85.624 57.2867 87.0166 57.4984 88.4191C58.3612 83.4037 60.3598 78.6774 63.2387 74.9303C64.4308 73.3787 66.0178 71.8955 67.7448 72.2136C69.7631 72.5855 70.9771 75.4366 70.6645 77.8867C70.3522 80.3371 68.922 82.359 67.3616 83.9573C64.4506 86.9381 61.2384 88.7342 57.784 90.5907C58.1215 93.5617 58.2314 96.5678 57.987 99.5482C57.617 104.062 56.549 108.3 55.1022 112.372C57.7785 108.205 61.4317 104.967 65.5261 103.175C67.1697 102.455 69.1389 102.015 70.5562 103.256C72.2121 104.706 72.221 107.916 71.0226 109.923C69.8241 111.93 67.7919 112.936 65.8028 113.493C61.9914 114.559 58.3662 114.337 54.4786 114.063C51.9323 120.694 48.4736 126.91 45.509 133.19C44.5759 135.167 43.6956 137.16 42.9082 139.202C45.6226 134.504 49.5424 130.847 53.9857 128.895C55.6288 128.172 57.5973 127.729 59.0161 128.968C60.6735 130.415 60.6858 133.625 59.4894 135.634C58.2932 137.642 56.2621 138.652 54.2735 139.212C50.3763 140.309 46.6731 140.058 42.6839 139.782C41.8643 141.969 41.1598 144.216 40.631 146.566C39.6641 150.866 39.1008 155.293 38.7649 159.727C38.6754 160.906 38.6044 162.087 38.5459 163.27C40.6624 158.745 43.8234 154.942 47.5834 152.444C49.1162 151.425 51.0059 150.622 52.5636 151.583C54.3838 152.705 54.7996 155.876 53.8697 158.083C52.9398 160.29 51.0595 161.664 49.1648 162.586C45.664 164.29 42.1829 164.778 38.4634 165.22C38.1992 172.645 38.511 180.113 39.2175 187.495C40.4038 182.258 42.8552 177.449 46.2054 173.849C47.514 172.443 49.2104 171.151 50.9047 171.668C52.884 172.273 53.8684 175.252 53.3645 177.655C52.8609 180.057 51.2783 181.904 49.5991 183.314C46.4124 185.989 43.0115 187.407 39.3557 188.881C39.4552 189.858 39.5612 190.834 39.6736 191.809C40.2946 197.155 41.1173 202.487 42.1809 207.745C43.4005 202.666 45.8121 198.012 49.0758 194.507C50.3846 193.1 52.0808 191.808 53.7751 192.325C55.7546 192.93 56.739 195.909 56.2351 198.312C55.7315 200.715 54.1485 202.561 52.4694 203.971C49.3701 206.572 46.0689 207.985 42.5277 209.416C43.7995 215.393 45.3905 221.267 47.3671 226.945C47.7786 228.128 46.24 228.822 45.8291 227.641C43.8333 221.907 42.2366 215.972 40.9562 209.936C36.3416 210.393 31.6101 209.133 27.5692 206.349C26.0419 205.297 24.4755 203.761 24.3189 201.639Z" fill="url(#paint4_linear_11099_150337)"/>
<path d="M18.6167 76.7959C15.1696 76.1168 12.8285 72.1717 13.3876 67.9844C13.9467 63.797 17.1943 60.9531 20.6414 61.6323C24.0884 62.3115 26.4296 66.2565 25.8705 70.4439C25.3114 74.6312 22.0638 77.4751 18.6167 76.7959Z" fill="#CBC8F4"/>
<path d="M18.6167 76.7959C15.1696 76.1168 12.8285 72.1717 13.3876 67.9844C13.9467 63.797 17.1943 60.9531 20.6414 61.6323C24.0884 62.3115 26.4296 66.2565 25.8705 70.4439C25.3114 74.6312 22.0638 77.4751 18.6167 76.7959Z" fill="url(#paint5_linear_11099_150337)"/>
<path d="M79.6321 178.61C76.14 178.61 73.3091 175.171 73.3091 170.929C73.3091 166.687 76.14 163.249 79.6321 163.249C83.1242 163.249 85.9551 166.687 85.9551 170.929C85.9551 175.171 83.1242 178.61 79.6321 178.61Z" fill="#CBC8F4"/>
<path d="M79.6321 178.61C76.14 178.61 73.3091 175.171 73.3091 170.929C73.3091 166.687 76.14 163.249 79.6321 163.249C83.1242 163.249 85.9551 166.687 85.9551 170.929C85.9551 175.171 83.1242 178.61 79.6321 178.61Z" fill="url(#paint6_linear_11099_150337)"/>
<path d="M13.9243 48.4384C11.9106 48.4384 10.2783 46.4554 10.2783 44.0093C10.2783 41.5633 11.9106 39.5803 13.9243 39.5803C15.9379 39.5803 17.5703 41.5633 17.5703 44.0093C17.5703 46.4554 15.9379 48.4384 13.9243 48.4384Z" fill="url(#paint7_linear_11099_150337)"/>
<path d="M71.1793 145.139C70.4087 142.879 71.2921 140.288 73.1525 139.352C75.0129 138.416 77.1457 139.489 77.9162 141.749C78.6868 144.009 77.8034 146.599 75.9431 147.535C74.0827 148.472 71.9499 147.398 71.1793 145.139Z" fill="url(#paint8_linear_11099_150337)"/>
<path d="M83.2778 65.9674C81.2642 65.9674 79.6318 63.9845 79.6318 61.5384C79.6318 59.0923 81.2642 57.1094 83.2778 57.1094C85.2915 57.1094 86.9238 59.0923 86.9238 61.5384C86.9238 63.9845 85.2915 65.9674 83.2778 65.9674Z" fill="url(#paint9_linear_11099_150337)"/>
</g>
<defs>
<linearGradient id="paint0_linear_11099_150337" x1="195.973" y1="2.4585" x2="195.973" y2="76.9925" gradientUnits="userSpaceOnUse">
<stop stop-color="#B1ADEF"/>
<stop offset="1" stop-color="#87FFD3"/>
</linearGradient>
<linearGradient id="paint1_linear_11099_150337" x1="18.9419" y1="0" x2="18.9419" y2="115.226" gradientUnits="userSpaceOnUse">
<stop stop-color="#B1ADEF"/>
<stop offset="1" stop-color="#87FFD3"/>
</linearGradient>
<linearGradient id="paint2_linear_11099_150337" x1="43.1994" y1="84.1472" x2="43.1994" y2="131.318" gradientUnits="userSpaceOnUse">
<stop stop-color="#B1ADEF"/>
<stop offset="1" stop-color="#87FFD3"/>
</linearGradient>
<linearGradient id="paint3_linear_11099_150337" x1="49.9485" y1="100.077" x2="49.9485" y2="228.695" gradientUnits="userSpaceOnUse">
<stop stop-color="#B1ADEF"/>
<stop offset="1" stop-color="#87FFD3"/>
</linearGradient>
<linearGradient id="paint4_linear_11099_150337" x1="46.5346" y1="54.3694" x2="46.5346" y2="228.252" gradientUnits="userSpaceOnUse">
<stop stop-color="#B1ADEF"/>
<stop offset="1" stop-color="#87FFD3"/>
</linearGradient>
<linearGradient id="paint5_linear_11099_150337" x1="20.6414" y1="61.6323" x2="17.6897" y2="76.6133" gradientUnits="userSpaceOnUse">
<stop stop-color="#B1ADEF"/>
<stop offset="1" stop-color="#87FFD3"/>
</linearGradient>
<linearGradient id="paint6_linear_11099_150337" x1="79.6321" y1="163.249" x2="79.6321" y2="178.61" gradientUnits="userSpaceOnUse">
<stop stop-color="#B1ADEF"/>
<stop offset="1" stop-color="#87FFD3"/>
</linearGradient>
<linearGradient id="paint7_linear_11099_150337" x1="13.9243" y1="39.5803" x2="13.9243" y2="48.4384" gradientUnits="userSpaceOnUse">
<stop stop-color="#B1ADEF"/>
<stop offset="1" stop-color="#87FFD3"/>
</linearGradient>
<linearGradient id="paint8_linear_11099_150337" x1="77.9163" y1="141.749" x2="70.8455" y2="144.16" gradientUnits="userSpaceOnUse">
<stop stop-color="#B1ADEF"/>
<stop offset="1" stop-color="#87FFD3"/>
</linearGradient>
<linearGradient id="paint9_linear_11099_150337" x1="83.2778" y1="57.1094" x2="83.2778" y2="65.9674" gradientUnits="userSpaceOnUse">
<stop stop-color="#B1ADEF"/>
<stop offset="1" stop-color="#87FFD3"/>
</linearGradient>
</defs>
</svg>
