<svg width="358" height="191" viewBox="0 0 358 191" fill="none" xmlns="http://www.w3.org/2000/svg">
<g opacity="0.3">
<path d="M99.5736 61.2471C99.5736 58.801 101.206 56.818 103.22 56.818C105.233 56.818 106.866 58.801 106.866 61.2471C106.866 63.6931 105.233 65.6761 103.22 65.6761C101.206 65.6761 99.5736 63.6931 99.5736 61.2471ZM140.221 55.0635C140.221 53.7722 141.082 52.7253 142.145 52.7253C143.209 52.7253 144.07 53.7722 144.07 55.0635C144.07 56.355 143.209 57.4019 142.145 57.4019C141.082 57.4019 140.221 56.355 140.221 55.0635ZM0.707031 74.6542C0.707031 73.3627 1.56885 72.3158 2.63201 72.3158C3.695 72.3158 4.55682 73.3627 4.55682 74.6542C4.55682 75.9456 3.695 76.9925 2.63201 76.9925C1.56868 76.9923 0.707031 75.9454 0.707031 74.6542ZM300.269 36.9518L300.241 36.4247V36.9512C300.001 36.9512 299.828 36.7157 299.828 36.4247C299.828 36.1342 300.043 35.8988 300.283 35.8988C300.967 35.8988 301.655 35.835 302.327 35.7096C302.441 35.6888 302.556 35.7234 302.649 35.8059C302.742 35.8883 302.804 36.0119 302.821 36.1497C302.839 36.2877 302.81 36.4285 302.742 36.5412C302.674 36.6538 302.572 36.729 302.459 36.7502C301.736 36.8849 301.005 36.9523 300.273 36.9518H300.269ZM298.021 36.7337C297.286 36.5914 296.563 36.3786 295.856 36.0972C295.749 36.0515 295.661 35.9567 295.611 35.8332C295.561 35.7097 295.553 35.5672 295.588 35.4363C295.623 35.3054 295.699 35.1966 295.8 35.1331C295.901 35.0695 296.018 35.0564 296.126 35.0965C296.789 35.3602 297.468 35.5599 298.157 35.6939C298.213 35.7048 298.267 35.729 298.316 35.7651C298.364 35.8013 298.406 35.8487 298.44 35.9047C298.473 35.9607 298.497 36.0241 298.51 36.0914C298.524 36.1586 298.526 36.2284 298.517 36.2966C298.508 36.3649 298.488 36.4304 298.458 36.4893C298.428 36.5482 298.389 36.5994 298.343 36.64C298.297 36.6806 298.245 36.7098 298.19 36.7259C298.134 36.742 298.077 36.7446 298.021 36.7337ZM304.081 35.7892C304.064 35.7234 304.057 35.654 304.062 35.5851C304.066 35.5162 304.082 35.449 304.108 35.3875C304.134 35.326 304.17 35.2713 304.213 35.2266C304.257 35.1819 304.307 35.1481 304.361 35.1269C305.026 34.8676 305.673 34.545 306.295 34.162C306.346 34.1306 306.401 34.1117 306.458 34.1063C306.515 34.1009 306.572 34.1092 306.626 34.1307C306.68 34.1522 306.73 34.1865 306.774 34.2316C306.817 34.2767 306.852 34.3316 306.878 34.3934C306.93 34.5179 306.939 34.6625 306.903 34.7952C306.868 34.9279 306.79 35.0379 306.687 35.101C306.024 35.5096 305.335 35.8537 304.626 36.1298C304.517 36.1723 304.398 36.1603 304.296 36.0964C304.193 36.0326 304.116 35.9221 304.081 35.7892ZM293.801 35.0539C293.141 34.6408 292.507 34.1656 291.908 33.6327C291.862 33.5919 291.823 33.5405 291.793 33.4814C291.764 33.4224 291.744 33.3568 291.735 33.2885C291.726 33.2202 291.729 33.1505 291.742 33.0833C291.756 33.0161 291.78 32.9528 291.814 32.897C291.847 32.8412 291.89 32.794 291.938 32.7581C291.987 32.7221 292.041 32.6982 292.097 32.6876C292.153 32.677 292.211 32.6799 292.266 32.6963C292.321 32.7126 292.373 32.7421 292.419 32.7829C292.983 33.2832 293.577 33.7293 294.197 34.1172C294.248 34.1488 294.293 34.1922 294.33 34.2449C294.367 34.2976 294.395 34.3586 294.412 34.4245C294.429 34.4903 294.436 34.5596 294.431 34.6285C294.427 34.6975 294.411 34.7646 294.385 34.8261C294.359 34.8876 294.323 34.9423 294.28 34.987C294.236 35.0317 294.186 35.0656 294.132 35.0868C294.078 35.1079 294.021 35.1159 293.964 35.1103C293.907 35.1046 293.852 35.0855 293.801 35.0539ZM307.984 33.5746C307.917 33.4613 307.889 33.3203 307.908 33.1824C307.926 33.0445 307.988 32.9211 308.082 32.8393C308.647 32.3425 309.18 31.7929 309.676 31.1955C309.716 31.1445 309.764 31.1037 309.817 31.0755C309.87 31.0474 309.927 31.0324 309.985 31.0316C310.043 31.0308 310.101 31.0442 310.154 31.0709C310.208 31.0975 310.257 31.137 310.298 31.1869C310.338 31.2369 310.371 31.2963 310.392 31.3616C310.414 31.427 310.424 31.4969 310.423 31.5673C310.422 31.6377 310.41 31.7071 310.386 31.7715C310.363 31.8359 310.329 31.8939 310.287 31.9421C309.759 32.5785 309.192 33.1639 308.589 33.6928C308.543 33.7334 308.491 33.7625 308.435 33.7785C308.38 33.7945 308.323 33.7971 308.266 33.7861C308.21 33.7751 308.156 33.7508 308.108 33.7145C308.059 33.6782 308.017 33.6306 307.984 33.5746ZM290.219 31.8708C289.695 31.2308 289.212 30.5421 288.776 29.811C288.709 29.6978 288.682 29.5571 288.701 29.4197C288.719 29.2823 288.781 29.1593 288.874 29.0776C288.967 28.9959 289.083 28.9622 289.196 28.9838C289.309 29.0054 289.411 29.0806 289.478 29.1929C289.888 29.8798 290.341 30.5269 290.833 31.1284C290.894 31.2021 290.935 31.2959 290.951 31.3979C290.968 31.5 290.959 31.6057 290.926 31.7017C290.893 31.7977 290.838 31.8798 290.767 31.9375C290.695 31.9953 290.612 32.0261 290.526 32.0261C290.469 32.0261 290.413 32.0124 290.36 31.9857C290.307 31.9591 290.259 31.92 290.219 31.8708ZM311.133 30.0062C311.041 29.9237 310.979 29.7998 310.961 29.6618C310.944 29.5239 310.972 29.3831 311.04 29.2705C311.452 28.5867 311.82 27.8648 312.14 27.1115C312.166 27.05 312.202 26.9953 312.245 26.9505C312.289 26.9058 312.339 26.872 312.393 26.8509C312.447 26.8298 312.505 26.822 312.561 26.8278C312.618 26.8336 312.673 26.853 312.724 26.8848C312.774 26.9164 312.819 26.9599 312.856 27.0126C312.893 27.0654 312.921 27.1264 312.938 27.1923C312.956 27.2581 312.962 27.3275 312.957 27.3964C312.953 27.4652 312.937 27.5323 312.911 27.5938C312.57 28.3961 312.178 29.1647 311.739 29.8927C311.699 29.9595 311.646 30.0139 311.585 30.0513C311.525 30.0887 311.457 30.1082 311.389 30.108C311.297 30.1082 311.207 30.0725 311.133 30.0062ZM287.615 27.5022C287.279 26.6963 286.995 25.8594 286.766 24.9992C286.731 24.8663 286.741 24.7218 286.793 24.5975C286.846 24.4732 286.937 24.3793 287.046 24.3364C287.155 24.2941 287.274 24.3061 287.376 24.3697C287.479 24.4334 287.556 24.5436 287.591 24.6763C287.806 25.4834 288.072 26.2688 288.388 27.0251C288.44 27.1496 288.449 27.2941 288.414 27.4269C288.378 27.5596 288.301 27.6698 288.198 27.7331C288.096 27.7963 287.977 27.8076 287.867 27.7643C287.758 27.721 287.667 27.6267 287.615 27.5022ZM313.224 25.4342C313.17 25.4126 313.12 25.3782 313.077 25.3331C313.034 25.288 312.998 25.233 312.973 25.1713C312.947 25.1096 312.932 25.0423 312.927 24.9733C312.923 24.9044 312.93 24.8351 312.948 24.7694C313.166 23.9641 313.331 23.1392 313.442 22.3023C313.46 22.1645 313.523 22.0411 313.616 21.9593C313.709 21.8775 313.826 21.8441 313.939 21.8663C314.053 21.8885 314.154 21.9646 314.221 22.0778C314.289 22.191 314.316 22.332 314.298 22.4699C314.18 23.3616 314.004 24.2405 313.771 25.0984C313.754 25.1641 313.725 25.2249 313.688 25.2773C313.651 25.3298 313.606 25.3728 313.555 25.404C313.504 25.4351 313.449 25.4538 313.392 25.459C313.335 25.4642 313.278 25.4558 313.224 25.4342ZM286.253 22.3662C286.141 21.4858 286.085 20.5963 286.085 19.7054V19.6714C286.085 19.3805 286.279 19.1619 286.519 19.1619C286.758 19.1619 286.952 19.4143 286.952 19.7052C286.952 20.5433 287.005 21.3839 287.11 22.2047C287.12 22.2798 287.116 22.3566 287.098 22.4297C287.081 22.5028 287.051 22.5705 287.01 22.6282C286.97 22.6859 286.919 22.7322 286.862 22.7639C286.805 22.7956 286.744 22.812 286.681 22.8119C286.578 22.8118 286.478 22.7668 286.399 22.685C286.321 22.6033 286.269 22.4902 286.253 22.3662ZM313.613 19.7732V19.7052C313.613 18.8573 313.559 18.0107 313.451 17.173C313.433 17.035 313.461 16.8941 313.529 16.7811C313.596 16.6682 313.698 16.5926 313.812 16.5708C313.868 16.5601 313.925 16.5629 313.981 16.5791C314.036 16.5953 314.088 16.6247 314.134 16.6654C314.18 16.7062 314.219 16.7575 314.249 16.8166C314.279 16.8756 314.298 16.9412 314.307 17.0095C314.422 17.9013 314.48 18.8026 314.479 19.7052V19.7732C314.481 19.8432 314.47 19.9127 314.449 19.9778C314.428 20.0428 314.396 20.1021 314.356 20.1521C314.315 20.202 314.267 20.2417 314.214 20.2688C314.161 20.2959 314.104 20.3099 314.046 20.3099C313.989 20.3099 313.931 20.2959 313.878 20.2688C313.825 20.2417 313.777 20.202 313.737 20.1521C313.696 20.1021 313.665 20.0428 313.643 19.9778C313.622 19.9127 313.612 19.8432 313.613 19.7732ZM286.622 17.5773C286.509 17.5553 286.407 17.4796 286.34 17.3666C286.272 17.2536 286.244 17.1126 286.262 16.9747C286.379 16.083 286.554 15.2037 286.784 14.3452C286.802 14.2794 286.83 14.2185 286.867 14.1659C286.904 14.1133 286.949 14.0702 287 14.0389C287.051 14.0076 287.106 13.9888 287.163 13.9836C287.22 13.9784 287.277 13.9868 287.331 14.0085C287.44 14.0518 287.531 14.1461 287.583 14.2706C287.635 14.3951 287.644 14.5396 287.609 14.6723C287.392 15.4781 287.228 16.3034 287.119 17.1404C287.1 17.2782 287.038 17.4016 286.945 17.4835C286.852 17.5655 286.736 17.5992 286.622 17.5773ZM312.965 14.704C312.749 13.8973 312.482 13.1125 312.165 12.3567C312.139 12.2952 312.123 12.228 312.119 12.1591C312.114 12.0902 312.121 12.0209 312.138 11.9551C312.156 11.8893 312.184 11.8284 312.221 11.7759C312.258 11.7233 312.303 11.6801 312.354 11.6487C312.404 11.6173 312.46 11.5983 312.517 11.5928C312.573 11.5873 312.63 11.5955 312.684 11.6168C312.739 11.6382 312.789 11.6723 312.832 11.7172C312.875 11.7621 312.911 11.817 312.937 11.8786C313.274 12.6836 313.56 13.5197 313.79 14.379C313.825 14.5119 313.816 14.6564 313.763 14.7808C313.711 14.9052 313.62 14.9993 313.511 15.0423C313.402 15.0854 313.283 15.074 313.18 15.0105C313.078 14.9471 313 14.8368 312.965 14.704ZM287.829 12.5563C287.727 12.4926 287.65 12.3821 287.614 12.2493C287.579 12.1164 287.589 11.9719 287.641 11.8477C287.98 11.0445 288.371 10.2749 288.809 9.54571C288.842 9.48987 288.885 9.4426 288.933 9.40662C288.982 9.37064 289.036 9.34664 289.092 9.336C289.148 9.32535 289.206 9.32827 289.261 9.34458C289.316 9.36089 289.369 9.39029 289.415 9.43108C289.461 9.47187 289.499 9.52325 289.529 9.5823C289.559 9.64136 289.578 9.70692 289.587 9.77524C289.596 9.84357 289.594 9.91332 289.58 9.98052C289.567 10.0477 289.543 10.111 289.509 10.1669C289.098 10.8514 288.731 11.5739 288.412 12.3279C288.387 12.3895 288.351 12.4442 288.308 12.4891C288.264 12.5339 288.214 12.5679 288.16 12.5891C288.106 12.6103 288.048 12.6183 287.992 12.6127C287.935 12.6071 287.88 12.5879 287.829 12.5563ZM311.07 10.1913C310.66 9.50551 310.206 8.85965 309.712 8.25954C309.631 8.16072 309.586 8.02674 309.586 7.88708C309.586 7.74741 309.631 7.61349 309.713 7.51478C309.794 7.41607 309.904 7.36067 310.019 7.36074C310.134 7.36081 310.245 7.41637 310.326 7.51518C310.851 8.1545 311.334 8.84231 311.772 9.57242C311.839 9.68543 311.867 9.82641 311.849 9.96435C311.831 10.1023 311.769 10.2259 311.676 10.3079C311.583 10.39 311.467 10.4238 311.353 10.4019C311.24 10.38 311.138 10.3043 311.07 10.1913ZM290.257 8.23733C290.176 8.13846 290.13 8.00449 290.131 7.86486C290.131 7.72523 290.177 7.59139 290.258 7.49278C290.784 6.85509 291.351 6.26834 291.952 5.73787C292.045 5.65584 292.161 5.62207 292.275 5.64401C292.389 5.66595 292.49 5.74179 292.558 5.85485C292.625 5.96792 292.653 6.10894 292.635 6.24689C292.617 6.38485 292.555 6.50844 292.462 6.59047C291.897 7.08874 291.365 7.63969 290.87 8.23831C290.83 8.28712 290.782 8.32583 290.73 8.35222C290.677 8.37862 290.621 8.39219 290.564 8.39214C290.507 8.39227 290.45 8.37865 290.398 8.35208C290.345 8.32551 290.297 8.2865 290.257 8.23733ZM308.124 6.60795C307.56 6.10897 306.964 5.66455 306.343 5.27876C306.243 5.21398 306.167 5.10371 306.133 4.97179C306.099 4.83986 306.108 4.69687 306.16 4.57369C306.212 4.45052 306.302 4.35706 306.41 4.3135C306.518 4.26994 306.636 4.27978 306.738 4.3409C307.4 4.75197 308.034 5.22564 308.634 5.75751C308.68 5.79824 308.719 5.84957 308.749 5.90856C308.778 5.96755 308.798 6.03305 308.807 6.10133C308.816 6.16961 308.813 6.23934 308.8 6.30651C308.787 6.37369 308.763 6.43699 308.729 6.49283C308.695 6.54867 308.653 6.59595 308.605 6.63196C308.556 6.66796 308.502 6.692 308.446 6.70269C308.39 6.71338 308.332 6.71051 308.277 6.69426C308.222 6.67801 308.17 6.64868 308.124 6.60795ZM293.662 5.03457C293.61 4.91012 293.601 4.76562 293.636 4.63284C293.672 4.50006 293.75 4.38989 293.852 4.32656C294.515 3.91635 295.203 3.57062 295.911 3.29263C295.966 3.26982 296.023 3.26043 296.081 3.26501C296.138 3.2696 296.194 3.28806 296.246 3.31932C296.298 3.35058 296.343 3.39401 296.381 3.44708C296.419 3.50014 296.447 3.56177 296.465 3.62836C296.483 3.69496 296.489 3.76518 296.484 3.83492C296.479 3.90466 296.463 3.97252 296.436 4.03453C296.41 4.09654 296.373 4.15145 296.329 4.19606C296.284 4.24067 296.233 4.27408 296.178 4.29434C295.514 4.55588 294.868 4.88031 294.245 5.26462C294.184 5.30246 294.117 5.32219 294.049 5.32218C293.969 5.32219 293.891 5.29533 293.822 5.24457C293.754 5.19382 293.699 5.12115 293.662 5.03457ZM304.413 4.30436C303.75 4.04166 303.07 3.84341 302.381 3.71147C302.267 3.68958 302.166 3.61388 302.098 3.501C302.03 3.38811 302.002 3.24726 302.02 3.10934C302.038 2.9715 302.101 2.84799 302.193 2.76579C302.286 2.68359 302.402 2.64939 302.516 2.67066C303.25 2.81165 303.974 3.02298 304.681 3.30265C304.791 3.34587 304.881 3.44008 304.934 3.56457C304.986 3.68906 304.995 3.83362 304.959 3.96646C304.924 4.09929 304.846 4.20952 304.744 4.27289C304.641 4.33625 304.522 4.34758 304.413 4.30436ZM297.716 3.26728C297.708 3.19896 297.71 3.12922 297.723 3.06201C297.737 2.99481 297.761 2.93147 297.794 2.87561C297.828 2.81975 297.87 2.77247 297.919 2.73646C297.967 2.70045 298.021 2.67643 298.078 2.66575C298.801 2.52843 299.55 2.45241 300.243 2.46105C300.261 2.45941 300.279 2.45856 300.296 2.4585C300.536 2.4585 300.723 2.69443 300.723 2.98557C300.723 3.27613 300.522 3.51207 300.283 3.51207C299.588 3.51207 298.891 3.57729 298.212 3.70636C298.155 3.71704 298.098 3.71416 298.043 3.69787C297.987 3.68158 297.935 3.65222 297.889 3.61144C297.843 3.57067 297.804 3.51928 297.775 3.46023C297.745 3.40118 297.725 3.33561 297.716 3.26728Z" fill="url(#paint0_linear_11099_150453)"/>
<path d="M306.496 34.4926L306.467 33.9655V34.492C306.227 34.492 306.054 34.2565 306.054 33.9655C306.054 33.675 306.269 33.4396 306.509 33.4396C307.193 33.4396 307.881 33.3758 308.553 33.2504C308.667 33.2297 308.783 33.2643 308.875 33.3468C308.968 33.4292 309.03 33.5527 309.048 33.6905C309.065 33.8285 309.037 33.9693 308.969 34.082C308.901 34.1946 308.799 34.2698 308.685 34.291C307.962 34.4257 307.231 34.4931 306.5 34.4926H306.496ZM304.247 34.2745C303.513 34.1322 302.789 33.9194 302.082 33.638C301.973 33.5945 301.883 33.5 301.831 33.3755C301.779 33.2509 301.77 33.1063 301.806 32.9736C301.823 32.9078 301.851 32.8468 301.888 32.7943C301.925 32.7417 301.971 32.6985 302.021 32.6673C302.072 32.636 302.128 32.6172 302.185 32.6121C302.241 32.607 302.298 32.6155 302.353 32.6373C303.016 32.901 303.695 33.1008 304.383 33.2347C304.497 33.2567 304.599 33.3325 304.666 33.4455C304.734 33.5586 304.761 33.6995 304.743 33.8374C304.725 33.9753 304.663 34.0988 304.57 34.1808C304.477 34.2628 304.361 34.2965 304.247 34.2745ZM310.308 33.33C310.29 33.2642 310.284 33.1948 310.288 33.1259C310.293 33.057 310.309 32.9898 310.335 32.9283C310.361 32.8668 310.397 32.8121 310.44 32.7674C310.483 32.7227 310.534 32.6889 310.588 32.6678C311.253 32.4084 311.899 32.0857 312.522 31.7026C312.573 31.6711 312.628 31.6522 312.685 31.6468C312.742 31.6414 312.799 31.6497 312.853 31.6712C312.907 31.6927 312.957 31.727 313 31.7721C313.044 31.8172 313.079 31.8722 313.105 31.934C313.131 31.9957 313.146 32.0629 313.15 32.1318C313.155 32.2007 313.148 32.27 313.13 32.3357C313.112 32.4014 313.084 32.4622 313.047 32.5146C313.01 32.5671 312.965 32.6102 312.914 32.6414C312.251 33.0501 311.561 33.3941 310.853 33.6702C310.744 33.7127 310.625 33.7008 310.522 33.637C310.42 33.5732 310.343 33.4628 310.308 33.33ZM300.028 32.5947C299.367 32.1816 298.734 31.7064 298.134 31.1735C298.088 31.1327 298.049 31.0813 298.02 31.0223C297.99 30.9632 297.97 30.8976 297.962 30.8293C297.953 30.761 297.955 30.6913 297.969 30.6241C297.982 30.5569 298.006 30.4936 298.04 30.4378C298.108 30.3253 298.21 30.2501 298.324 30.2287C298.437 30.2073 298.553 30.2415 298.646 30.3237C299.209 30.824 299.804 31.2701 300.424 31.658C300.526 31.7218 300.603 31.8324 300.639 31.9653C300.674 32.0983 300.664 32.2428 300.611 32.367C300.559 32.4912 300.468 32.585 300.358 32.6277C300.249 32.6704 300.13 32.6585 300.028 32.5947ZM314.211 31.116C314.143 31.0027 314.116 30.8616 314.134 30.7237C314.152 30.5858 314.215 30.4624 314.308 30.3806C314.874 29.8837 315.407 29.3342 315.903 28.7369C315.943 28.6863 315.991 28.6459 316.044 28.6181C316.097 28.5902 316.154 28.5756 316.212 28.575C316.269 28.5744 316.327 28.5878 316.38 28.6145C316.433 28.6412 316.482 28.6806 316.523 28.7303C316.563 28.7801 316.596 28.8393 316.617 28.9044C316.639 28.9695 316.65 29.0392 316.649 29.1094C316.648 29.1796 316.635 29.2489 316.612 29.3131C316.589 29.3774 316.555 29.4354 316.513 29.4837C315.986 30.1201 315.418 30.7055 314.816 31.2344C314.723 31.3161 314.607 31.3494 314.493 31.3272C314.38 31.305 314.278 31.229 314.211 31.116ZM296.445 29.4114C295.921 28.7714 295.439 28.0827 295.003 27.3515C294.936 27.2384 294.909 27.0977 294.927 26.9603C294.945 26.8229 295.008 26.6999 295.101 26.6182C295.193 26.5365 295.309 26.5028 295.422 26.5244C295.536 26.546 295.637 26.6212 295.705 26.7335C296.114 27.4204 296.567 28.0674 297.06 28.6688C297.12 28.7425 297.161 28.8363 297.177 28.9383C297.194 29.0403 297.185 29.146 297.152 29.242C297.12 29.338 297.064 29.42 296.993 29.4778C296.922 29.5355 296.838 29.5664 296.753 29.5666C296.695 29.5667 296.639 29.5531 296.586 29.5265C296.533 29.4998 296.486 29.4607 296.445 29.4114ZM317.36 27.547C317.267 27.4645 317.205 27.3406 317.188 27.2026C317.17 27.0647 317.198 26.9239 317.266 26.8113C317.679 26.1274 318.046 25.4055 318.367 24.6523C318.393 24.5907 318.428 24.536 318.472 24.4913C318.515 24.4466 318.565 24.4127 318.62 24.3916C318.674 24.3706 318.731 24.3627 318.788 24.3685C318.844 24.3744 318.9 24.3938 318.95 24.4256C319.001 24.4572 319.046 24.5006 319.083 24.5534C319.119 24.6062 319.147 24.6672 319.165 24.7331C319.182 24.7989 319.188 24.8683 319.184 24.9372C319.179 25.0061 319.163 25.0732 319.137 25.1346C318.796 25.9368 318.405 26.7055 317.966 27.4335C317.932 27.4893 317.89 27.5366 317.841 27.5726C317.792 27.6085 317.738 27.6324 317.682 27.643C317.626 27.6535 317.568 27.6505 317.513 27.634C317.458 27.6176 317.406 27.588 317.36 27.547ZM293.841 25.0425C293.505 24.2366 293.221 23.3996 292.993 22.5394C292.958 22.4065 292.967 22.262 293.02 22.1377C293.072 22.0134 293.163 21.9195 293.272 21.8766C293.501 21.7902 293.744 21.9399 293.818 22.2165C294.032 23.0237 294.299 23.8092 294.614 24.5657C294.648 24.6459 294.664 24.7352 294.661 24.8251C294.658 24.915 294.636 25.0024 294.598 25.0791C294.559 25.1558 294.505 25.2191 294.44 25.2631C294.375 25.3071 294.302 25.3302 294.228 25.3302C294.148 25.3304 294.07 25.3036 294.001 25.2528C293.933 25.202 293.878 25.1292 293.841 25.0425ZM319.451 22.9756C319.397 22.954 319.347 22.9196 319.304 22.8745C319.261 22.8294 319.225 22.7744 319.199 22.7127C319.174 22.651 319.158 22.5837 319.154 22.5147C319.15 22.4458 319.157 22.3765 319.175 22.3108C319.393 21.5055 319.558 20.6806 319.669 19.8437C319.707 19.5567 319.93 19.3593 320.166 19.4078C320.222 19.4188 320.276 19.4432 320.324 19.4795C320.373 19.5158 320.415 19.5633 320.448 19.6194C320.481 19.6754 320.505 19.7389 320.518 19.8062C320.532 19.8735 320.534 19.9432 320.525 20.0115C320.406 20.9031 320.23 21.7819 319.998 22.6398C319.962 22.7724 319.884 22.8823 319.782 22.9453C319.679 23.0082 319.56 23.0191 319.451 22.9756ZM292.48 19.9076C292.367 19.0234 292.311 18.1301 292.312 17.2354L292.745 17.2122H292.312C292.312 16.9213 292.506 16.7032 292.745 16.7032C292.984 16.7032 293.178 16.9557 293.178 17.2466C293.178 18.0847 293.232 18.9255 293.336 19.7461C293.346 19.8212 293.342 19.898 293.325 19.9711C293.307 20.0442 293.277 20.1119 293.237 20.1696C293.196 20.2273 293.145 20.2736 293.088 20.3053C293.032 20.337 292.97 20.3534 292.907 20.3533C292.804 20.3531 292.704 20.3081 292.626 20.2264C292.547 20.1446 292.495 20.0316 292.48 19.9076ZM319.839 17.3146L319.839 17.2466C319.839 16.3987 319.785 15.5521 319.677 14.7144C319.668 14.646 319.671 14.5763 319.684 14.509C319.697 14.4418 319.722 14.3784 319.755 14.3225C319.789 14.2666 319.831 14.2192 319.879 14.1831C319.928 14.1471 319.982 14.123 320.038 14.1122C320.273 14.0696 320.496 14.2633 320.533 14.5509C320.649 15.4448 320.706 16.3482 320.706 17.2529L320.706 17.3146C320.706 17.4542 320.66 17.5882 320.579 17.6869C320.498 17.7856 320.387 17.8411 320.272 17.8411C320.157 17.8411 320.047 17.7856 319.966 17.6869C319.885 17.5882 319.839 17.4542 319.839 17.3146ZM292.849 15.1185C292.792 15.1076 292.738 15.0834 292.69 15.0472C292.641 15.0111 292.599 14.9637 292.566 14.9077C292.532 14.8517 292.508 14.7883 292.495 14.721C292.482 14.6538 292.48 14.584 292.489 14.5157C292.606 13.624 292.78 12.7447 293.011 11.8862C293.028 11.8204 293.056 11.7594 293.093 11.7069C293.13 11.6543 293.176 11.6111 293.226 11.5798C293.277 11.5485 293.333 11.5297 293.389 11.5245C293.446 11.5193 293.503 11.5278 293.557 11.5495C293.611 11.5709 293.662 11.6051 293.705 11.6501C293.748 11.695 293.783 11.7499 293.809 11.8116C293.835 11.8732 293.851 11.9404 293.855 12.0094C293.859 12.0783 293.852 12.1476 293.835 12.2133C293.618 13.0191 293.455 13.8443 293.345 14.6814C293.327 14.8192 293.264 14.9428 293.171 15.0247C293.078 15.1067 292.962 15.1404 292.849 15.1185ZM319.192 12.2454C318.976 11.4387 318.708 10.6539 318.391 9.89813C318.364 9.83638 318.347 9.76861 318.341 9.69881C318.336 9.629 318.342 9.55857 318.359 9.49164C318.376 9.4247 318.404 9.36262 318.442 9.30903C318.479 9.25545 318.525 9.21144 318.576 9.17958C318.627 9.14773 318.684 9.12868 318.741 9.12355C318.799 9.11842 318.856 9.12731 318.911 9.1497C318.966 9.1721 319.016 9.20754 319.06 9.25395C319.103 9.30036 319.138 9.35681 319.163 9.41997C319.501 10.225 319.786 11.061 320.016 11.9204C320.052 12.0532 320.042 12.1978 319.99 12.3222C319.938 12.4466 319.847 12.5406 319.738 12.5837C319.628 12.6268 319.509 12.6154 319.407 12.5519C319.304 12.4885 319.227 12.3782 319.192 12.2454ZM294.055 10.0977C293.953 10.034 293.876 9.92352 293.841 9.79064C293.806 9.65777 293.815 9.51335 293.868 9.38913C294.207 8.58593 294.597 7.81622 295.035 7.0871C295.069 7.03126 295.111 6.984 295.16 6.94801C295.208 6.91202 295.262 6.88801 295.319 6.87736C295.375 6.86671 295.432 6.86961 295.487 6.88591C295.543 6.90221 295.595 6.9316 295.641 6.97237C295.687 7.01315 295.726 7.06452 295.755 7.12356C295.785 7.1826 295.805 7.24815 295.814 7.31646C295.822 7.38478 295.82 7.45452 295.807 7.52172C295.793 7.58891 295.769 7.65225 295.735 7.70809C295.324 8.39267 294.958 9.11519 294.639 9.86906C294.603 9.95541 294.547 10.0279 294.479 10.0784C294.411 10.129 294.333 10.1556 294.253 10.1555C294.184 10.1557 294.116 10.1359 294.055 10.0977ZM317.297 7.73244C316.886 7.04658 316.432 6.40071 315.939 5.80072C315.857 5.70194 315.812 5.56798 315.812 5.42831C315.812 5.28864 315.857 5.15471 315.939 5.05598C316.02 4.95725 316.13 4.90179 316.245 4.90183C316.36 4.90187 316.471 4.95739 316.552 5.05617C317.077 5.69526 317.561 6.38302 317.998 7.11323C318.045 7.19175 318.073 7.28453 318.08 7.38131C318.086 7.47809 318.07 7.57511 318.034 7.66164C317.998 7.74816 317.942 7.82082 317.874 7.87159C317.806 7.92236 317.728 7.94926 317.648 7.94932C317.579 7.94952 317.512 7.92997 317.451 7.89226C317.39 7.85455 317.337 7.79977 317.297 7.73244ZM296.483 5.77872C296.402 5.67985 296.356 5.54588 296.357 5.40625C296.357 5.26662 296.403 5.13277 296.484 5.03417C297.011 4.39666 297.577 3.80992 298.179 3.27926C298.272 3.19723 298.388 3.16346 298.501 3.1854C298.615 3.20734 298.717 3.28318 298.784 3.39624C298.852 3.5093 298.88 3.65033 298.862 3.78828C298.843 3.92624 298.781 4.04982 298.688 4.13186C298.123 4.6301 297.591 5.18105 297.096 5.7797C297.056 5.82851 297.008 5.86722 296.956 5.89361C296.903 5.92001 296.847 5.93357 296.79 5.93353C296.733 5.93363 296.677 5.92 296.624 5.89343C296.571 5.86686 296.523 5.82787 296.483 5.77872ZM314.35 4.14915C313.786 3.65022 313.191 3.20579 312.57 2.81996C312.47 2.75481 312.395 2.6446 312.361 2.51301C312.327 2.38142 312.337 2.23892 312.388 2.11614C312.44 1.99335 312.529 1.90006 312.637 1.8563C312.745 1.81254 312.862 1.8218 312.964 1.88209C313.626 2.29317 314.26 2.76684 314.86 3.29871C314.935 3.36407 314.99 3.45628 315.018 3.5621C315.046 3.66791 315.046 3.78187 315.018 3.88763C314.989 3.99338 314.934 4.08547 314.86 4.15067C314.786 4.21588 314.696 4.25083 314.605 4.25052C314.516 4.25052 314.427 4.21752 314.35 4.14915ZM299.889 2.57596C299.837 2.45151 299.827 2.30701 299.863 2.17423C299.898 2.04145 299.976 1.93128 300.078 1.86795C300.741 1.45785 301.43 1.11213 302.138 0.834017C302.192 0.810992 302.25 0.801431 302.307 0.805887C302.365 0.810343 302.421 0.828724 302.473 0.859964C302.525 0.891204 302.571 0.934671 302.608 0.987807C302.646 1.04094 302.675 1.10267 302.692 1.16939C302.71 1.23611 302.717 1.30647 302.712 1.37632C302.707 1.44618 302.69 1.51414 302.664 1.5762C302.637 1.63827 302.6 1.6932 302.555 1.73776C302.511 1.78233 302.459 1.81564 302.404 1.83573C301.74 2.09727 301.094 2.4217 300.472 2.80601C300.411 2.84382 300.344 2.86354 300.275 2.86356C300.195 2.86353 300.117 2.83666 300.049 2.78591C299.98 2.73516 299.925 2.66251 299.889 2.57596ZM310.639 1.84575C309.976 1.58308 309.297 1.38482 308.607 1.25286C308.494 1.23097 308.392 1.15527 308.325 1.04239C308.257 0.929503 308.229 0.788649 308.247 0.65073C308.265 0.512878 308.327 0.389353 308.42 0.307178C308.513 0.225002 308.629 0.190868 308.742 0.212249C309.477 0.353245 310.201 0.564562 310.908 0.844232C311.014 0.890618 311.101 0.985338 311.151 1.10832C311.2 1.23131 311.208 1.3729 311.173 1.5031C311.139 1.6333 311.063 1.74188 310.964 1.80583C310.864 1.86979 310.748 1.88412 310.639 1.84575ZM303.943 0.808681C303.934 0.740366 303.936 0.670606 303.95 0.603403C303.963 0.5362 303.987 0.47287 304.021 0.417011C304.055 0.361152 304.097 0.313858 304.145 0.277849C304.194 0.24184 304.248 0.217818 304.304 0.207141C305.028 0.0698209 305.781 -0.0144556 306.471 0.00243929C306.722 -0.0274215 306.949 0.220891 306.949 0.526964C306.949 0.817517 306.748 1.05345 306.509 1.05345C305.814 1.05345 305.117 1.11868 304.438 1.24775C304.382 1.25846 304.324 1.25558 304.269 1.23931C304.214 1.22303 304.161 1.19366 304.115 1.15288C304.07 1.1121 304.031 1.06072 304.001 1.00166C303.971 0.942593 303.952 0.877017 303.943 0.808681ZM360.881 115.079C360.825 115.07 360.77 115.048 360.721 115.013C360.672 114.979 360.629 114.933 360.594 114.878C360.559 114.823 360.534 114.76 360.519 114.694C360.504 114.627 360.5 114.557 360.508 114.489C360.539 114.2 360.76 113.995 360.994 114.035C361.686 114.144 362.385 114.188 363.083 114.168C363.319 114.179 363.521 114.39 363.527 114.681C363.529 114.75 363.519 114.819 363.499 114.883C363.478 114.948 363.447 115.007 363.408 115.057C363.369 115.107 363.322 115.147 363.27 115.175C363.218 115.203 363.162 115.219 363.105 115.221C362.362 115.244 361.618 115.197 360.881 115.079ZM364.815 114.518C364.794 114.381 364.819 114.239 364.885 114.124C364.95 114.009 365.05 113.93 365.163 113.905C365.848 113.752 366.528 113.532 367.183 113.25C367.291 113.207 367.408 113.217 367.51 113.278C367.612 113.339 367.69 113.445 367.728 113.575C367.766 113.705 367.76 113.848 367.712 113.973C367.664 114.098 367.578 114.195 367.472 114.244C366.771 114.544 366.051 114.777 365.32 114.94C365.264 114.953 365.206 114.952 365.151 114.938C365.095 114.923 365.042 114.896 364.995 114.856C364.949 114.817 364.909 114.767 364.878 114.709C364.847 114.651 364.825 114.586 364.815 114.518ZM358.703 114.517C357.99 114.261 357.294 113.937 356.623 113.548C356.571 113.518 356.524 113.477 356.486 113.425C356.447 113.374 356.418 113.314 356.398 113.248C356.379 113.183 356.371 113.113 356.373 113.044C356.376 112.974 356.391 112.906 356.415 112.844C356.44 112.781 356.475 112.725 356.517 112.678C356.56 112.632 356.61 112.596 356.664 112.574C356.718 112.551 356.775 112.541 356.832 112.545C356.889 112.549 356.945 112.567 356.996 112.598C357.626 112.963 358.279 113.267 358.948 113.507C359.057 113.548 359.148 113.64 359.202 113.762C359.256 113.884 359.268 114.026 359.236 114.159C359.203 114.292 359.129 114.404 359.03 114.471C358.93 114.538 358.813 114.554 358.703 114.517ZM368.92 112.935C368.893 112.874 368.876 112.807 368.87 112.738C368.864 112.67 368.869 112.6 368.885 112.534C368.902 112.468 368.928 112.406 368.964 112.352C369 112.298 369.044 112.254 369.094 112.221C369.708 111.817 370.294 111.354 370.847 110.838C370.938 110.753 371.053 110.716 371.167 110.734C371.281 110.753 371.384 110.825 371.454 110.935C371.523 111.046 371.554 111.186 371.54 111.324C371.525 111.462 371.466 111.587 371.375 111.673C370.785 112.223 370.161 112.716 369.507 113.146C369.457 113.179 369.402 113.2 369.346 113.207C369.289 113.215 369.232 113.208 369.177 113.189C369.123 113.169 369.072 113.136 369.028 113.093C368.984 113.049 368.947 112.995 368.92 112.935ZM354.695 112.193C354.089 111.685 353.517 111.122 352.983 110.508L353.264 110.106L353.582 109.747C354.083 110.322 354.619 110.85 355.186 111.326C355.281 111.405 355.346 111.527 355.367 111.664C355.387 111.801 355.362 111.943 355.297 112.058C355.232 112.173 355.132 112.252 355.019 112.277C354.906 112.302 354.789 112.272 354.695 112.193ZM372.716 109.5L372.427 109.105C372.907 108.489 373.347 107.828 373.742 107.129C373.774 107.072 373.815 107.023 373.863 106.986C373.911 106.948 373.964 106.922 374.02 106.909C374.076 106.897 374.134 106.898 374.189 106.912C374.245 106.926 374.298 106.954 374.345 106.993C374.392 107.032 374.432 107.082 374.463 107.14C374.494 107.198 374.515 107.263 374.525 107.331C374.536 107.399 374.535 107.468 374.523 107.536C374.512 107.604 374.489 107.668 374.457 107.725C374.033 108.473 373.562 109.18 373.048 109.84L372.716 109.5ZM351.474 108.479C351.021 107.763 350.615 107.005 350.26 106.211C350.205 106.089 350.193 105.945 350.225 105.811C350.258 105.677 350.333 105.564 350.434 105.497C350.535 105.431 350.654 105.415 350.764 105.455C350.874 105.495 350.967 105.586 351.022 105.709C351.355 106.454 351.736 107.166 352.161 107.838C352.232 107.948 352.263 108.088 352.248 108.227C352.233 108.365 352.173 108.491 352.082 108.576C351.991 108.661 351.876 108.699 351.762 108.681C351.648 108.663 351.544 108.59 351.474 108.479ZM374.991 105.629C374.887 105.569 374.808 105.461 374.769 105.33C374.73 105.198 374.736 105.054 374.786 104.928C375.085 104.162 375.334 103.368 375.531 102.555C375.563 102.421 375.638 102.308 375.739 102.241C375.84 102.174 375.958 102.158 376.069 102.197C376.179 102.237 376.272 102.328 376.327 102.45C376.382 102.573 376.395 102.717 376.363 102.851C376.153 103.718 375.888 104.563 375.569 105.379C375.544 105.442 375.51 105.498 375.468 105.544C375.426 105.59 375.376 105.626 375.323 105.649C375.269 105.673 375.212 105.683 375.155 105.679C375.098 105.676 375.043 105.659 374.991 105.629ZM349.355 103.739C349.108 102.887 348.915 102.014 348.78 101.126C348.77 101.058 348.771 100.988 348.783 100.92C348.794 100.853 348.817 100.789 348.849 100.732C348.882 100.675 348.923 100.626 348.971 100.588C349.018 100.551 349.072 100.525 349.128 100.512C349.184 100.499 349.241 100.5 349.297 100.514C349.353 100.529 349.406 100.556 349.453 100.595C349.5 100.635 349.54 100.685 349.571 100.743C349.602 100.801 349.623 100.866 349.633 100.935C349.759 101.768 349.94 102.589 350.172 103.388C350.195 103.468 350.202 103.553 350.193 103.636C350.183 103.719 350.157 103.799 350.117 103.868C350.077 103.936 350.024 103.992 349.963 104.031C349.901 104.07 349.833 104.09 349.763 104.09C349.674 104.09 349.586 104.056 349.513 103.993C349.44 103.93 349.385 103.841 349.355 103.739ZM376.334 100.659C376.22 100.641 376.117 100.569 376.047 100.458C375.977 100.348 375.945 100.208 375.96 100.069C376.049 99.228 376.084 98.3796 376.066 97.5318C376.064 97.4627 376.074 97.3938 376.094 97.3292C376.114 97.2646 376.145 97.2054 376.184 97.1552C376.223 97.1049 376.27 97.0645 376.322 97.0362C376.374 97.0079 376.43 96.9923 376.487 96.9904C376.742 96.9863 376.925 97.2114 376.932 97.5019C376.952 98.4048 376.915 99.3082 376.82 100.204C376.813 100.273 376.794 100.339 376.766 100.399C376.738 100.459 376.7 100.511 376.655 100.554C376.61 100.596 376.558 100.627 376.503 100.645C376.448 100.663 376.391 100.668 376.334 100.659ZM348.548 98.4357C348.528 97.5328 348.567 96.6294 348.663 95.7337C348.678 95.5954 348.738 95.47 348.829 95.3851C348.92 95.3001 349.035 95.2624 349.149 95.2803C349.205 95.2892 349.26 95.3116 349.309 95.3461C349.358 95.3806 349.402 95.4266 349.436 95.4814C349.471 95.5362 349.497 95.5988 349.511 95.6656C349.526 95.7324 349.53 95.802 349.523 95.8706C349.432 96.7117 349.396 97.5601 349.414 98.408C349.416 98.4771 349.406 98.5459 349.386 98.6105C349.366 98.6751 349.335 98.7342 349.296 98.7843C349.257 98.8345 349.21 98.8748 349.158 98.903C349.106 98.9312 349.05 98.9466 348.993 98.9484H348.981C348.868 98.9483 348.76 98.8947 348.679 98.7989C348.598 98.7031 348.551 98.5728 348.548 98.4357ZM375.845 95.005C375.717 94.1715 375.536 93.3515 375.302 92.5523C375.283 92.4872 375.275 92.4181 375.278 92.349C375.281 92.2799 375.295 92.2122 375.319 92.1498C375.344 92.0873 375.378 92.0314 375.421 91.9851C375.463 91.9387 375.512 91.903 375.566 91.8799C375.674 91.8337 375.793 91.8414 375.897 91.9013C376 91.9612 376.08 92.0685 376.119 92.1997C376.368 93.051 376.561 93.9247 376.697 94.8127C376.709 94.8815 376.709 94.9524 376.698 95.0215C376.688 95.0905 376.665 95.1562 376.633 95.2146C376.601 95.2731 376.56 95.3232 376.511 95.3618C376.463 95.4005 376.409 95.4271 376.352 95.4399C376.295 95.4528 376.237 95.4516 376.18 95.4366C376.124 95.4216 376.07 95.393 376.023 95.3524C375.976 95.3119 375.936 95.2603 375.905 95.2006C375.874 95.141 375.854 95.0745 375.845 95.005ZM349.417 93.7413C349.362 93.7217 349.311 93.6893 349.267 93.6458C349.223 93.6023 349.186 93.5487 349.159 93.488C349.131 93.4272 349.114 93.3606 349.108 93.2918C349.102 93.2231 349.108 93.1536 349.124 93.0872C349.334 92.2207 349.601 91.3758 349.92 90.5601C349.945 90.4977 349.979 90.4417 350.022 90.3954C350.064 90.3492 350.113 90.3135 350.167 90.2904C350.221 90.2673 350.278 90.2572 350.335 90.2609C350.391 90.2645 350.447 90.2817 350.499 90.3115C350.55 90.3413 350.596 90.3831 350.634 90.4345C350.672 90.4859 350.702 90.5459 350.721 90.6111C350.74 90.6763 350.748 90.7454 350.745 90.8145C350.742 90.8836 350.728 90.9513 350.703 91.0137C350.403 91.7792 350.153 92.5723 349.955 93.3855C349.939 93.4518 349.912 93.5136 349.876 93.5674C349.841 93.6211 349.796 93.6658 349.746 93.6989C349.696 93.7319 349.642 93.7527 349.585 93.7599C349.528 93.7672 349.471 93.7609 349.417 93.7413ZM374.45 90.2326C374.116 89.4883 373.734 88.7771 373.308 88.1054C373.273 88.0507 373.248 87.9882 373.233 87.9214C373.218 87.8547 373.214 87.785 373.221 87.7164C373.229 87.6479 373.247 87.5817 373.275 87.5218C373.304 87.4619 373.342 87.4093 373.387 87.3672C373.432 87.3248 373.483 87.2937 373.538 87.2757C373.593 87.2576 373.65 87.2528 373.707 87.2617C373.763 87.2706 373.818 87.2929 373.867 87.3274C373.917 87.362 373.96 87.408 373.995 87.4628C374.448 88.1781 374.855 88.9358 375.211 89.7287C375.239 89.7895 375.257 89.8564 375.264 89.9256C375.27 89.9948 375.265 90.0649 375.25 90.1318C375.234 90.1988 375.207 90.2612 375.171 90.3156C375.135 90.3699 375.091 90.415 375.041 90.4484C374.99 90.4817 374.935 90.5026 374.878 90.5098C374.821 90.5169 374.763 90.5103 374.708 90.4902C374.653 90.4702 374.602 90.4371 374.558 90.3928C374.514 90.3486 374.477 90.2942 374.45 90.2326ZM351.146 88.9486C351.051 88.8694 350.986 88.7478 350.966 88.6105C350.945 88.4731 350.97 88.3314 351.035 88.2164C351.454 87.4789 351.918 86.7817 352.425 86.1309L352.438 86.114C352.603 85.9038 352.87 85.9042 353.044 86.1042C353.217 86.3042 353.218 86.6452 353.054 86.856C352.578 87.4671 352.142 88.1217 351.749 88.814C351.717 88.871 351.676 88.9197 351.628 88.9572C351.58 88.9948 351.527 89.0206 351.47 89.0331C351.414 89.0456 351.357 89.0446 351.301 89.0301C351.246 89.0156 351.193 88.9879 351.146 88.9486ZM370.279 84.6229C370.184 84.5438 370.119 84.4223 370.098 84.285C370.077 84.1476 370.102 84.0058 370.167 83.8907C370.232 83.7756 370.332 83.6967 370.445 83.6712C370.558 83.6458 370.675 83.6759 370.77 83.755C371.38 84.2649 371.956 84.8313 372.494 85.4492L371.898 86.2138C371.393 85.6337 370.852 85.1018 370.279 84.6229ZM354.011 85.0414C353.941 84.9307 353.91 84.7908 353.924 84.6524C353.939 84.5139 353.999 84.3882 354.09 84.3029C354.679 83.7514 355.303 83.2573 355.956 82.8252C356.057 82.7622 356.174 82.7496 356.282 82.7901C356.39 82.8307 356.481 82.9211 356.535 83.042C356.59 83.1629 356.603 83.3048 356.572 83.4372C356.541 83.5696 356.469 83.6821 356.37 83.7507C355.757 84.1557 355.172 84.6192 354.619 85.1368C354.543 85.208 354.45 85.2465 354.354 85.2463C354.288 85.2465 354.222 85.2281 354.163 85.1926C354.103 85.1571 354.051 85.1053 354.011 85.0414ZM368.468 83.354C367.837 82.9896 367.184 82.6863 366.515 82.447C366.46 82.4276 366.409 82.3952 366.365 82.3518C366.32 82.3085 366.283 82.2549 366.256 82.1942C366.229 82.1335 366.212 82.0668 366.206 81.9981C366.2 81.9293 366.205 81.8598 366.221 81.7934C366.237 81.7271 366.263 81.6652 366.299 81.6114C366.335 81.5575 366.379 81.5128 366.429 81.4797C366.479 81.4466 366.534 81.4258 366.59 81.4185C366.647 81.4111 366.704 81.4175 366.759 81.437C367.472 81.6919 368.168 82.0148 368.84 82.4026C368.944 82.4626 369.024 82.5703 369.062 82.7019C369.101 82.8335 369.095 82.9784 369.045 83.1045C368.996 83.2307 368.907 83.3279 368.799 83.3747C368.691 83.4214 368.571 83.414 368.468 83.354ZM357.726 82.3971C357.688 82.2655 357.694 82.1208 357.744 81.9947C357.793 81.8687 357.882 81.7717 357.99 81.7251C358.691 81.4237 359.411 81.1896 360.142 81.0247C360.198 81.0117 360.255 81.0124 360.311 81.0266C360.367 81.0408 360.42 81.0683 360.467 81.1075C360.514 81.1467 360.554 81.1968 360.585 81.255C360.616 81.3131 360.637 81.3781 360.647 81.4463C360.657 81.5143 360.657 81.5841 360.645 81.6518C360.633 81.7195 360.61 81.7837 360.578 81.8407C360.546 81.8977 360.505 81.9464 360.457 81.9841C360.409 82.0218 360.356 82.0476 360.3 82.0602C359.613 82.2149 358.938 82.4346 358.28 82.7173C358.226 82.7405 358.169 82.7506 358.112 82.7471C358.055 82.7436 358 82.7264 357.948 82.6967C357.897 82.6669 357.851 82.6251 357.813 82.5737C357.775 82.5223 357.745 82.4623 357.726 82.3971ZM364.469 81.9235C363.776 81.8141 363.078 81.7708 362.38 81.7938C362.15 81.782 361.941 81.5722 361.934 81.2816C361.933 81.2125 361.943 81.1437 361.963 81.0791C361.983 81.0146 362.014 80.9555 362.053 80.9052C362.092 80.855 362.139 80.8147 362.191 80.7864C362.243 80.7582 362.299 80.7427 362.356 80.7408C363.099 80.7177 363.842 80.7637 364.58 80.8785C364.694 80.8964 364.797 80.9687 364.868 81.0793C364.938 81.19 364.969 81.33 364.954 81.4686C364.939 81.6071 364.88 81.7329 364.789 81.8182C364.698 81.9035 364.583 81.9414 364.469 81.9235Z" fill="url(#paint1_linear_11099_150453)"/>
<path d="M366.805 118.491C366.748 118.482 366.694 118.46 366.644 118.425C366.595 118.391 366.552 118.345 366.517 118.29C366.482 118.235 366.457 118.173 366.442 118.106C366.427 118.039 366.424 117.969 366.431 117.901C366.446 117.763 366.506 117.637 366.597 117.552C366.688 117.467 366.803 117.43 366.917 117.447C367.604 117.556 368.308 117.601 369.006 117.58C369.243 117.579 369.445 117.803 369.451 118.093C369.452 118.162 369.442 118.231 369.422 118.296C369.401 118.36 369.371 118.419 369.331 118.469C369.292 118.519 369.245 118.56 369.193 118.588C369.141 118.616 369.085 118.631 369.028 118.633C368.285 118.656 367.542 118.608 366.805 118.491ZM370.739 117.93C370.718 117.793 370.743 117.651 370.808 117.536C370.873 117.421 370.973 117.342 371.086 117.317C371.772 117.164 372.451 116.944 373.107 116.663C373.215 116.617 373.334 116.625 373.438 116.685C373.541 116.745 373.621 116.853 373.66 116.984C373.698 117.116 373.691 117.26 373.642 117.386C373.592 117.512 373.504 117.609 373.395 117.656C372.694 117.956 371.974 118.189 371.243 118.353C371.187 118.365 371.13 118.364 371.074 118.35C371.018 118.335 370.966 118.308 370.919 118.268C370.872 118.229 370.832 118.179 370.801 118.121C370.77 118.063 370.749 117.998 370.739 117.93ZM364.626 117.93C363.913 117.674 363.217 117.35 362.546 116.961C362.442 116.9 362.362 116.793 362.324 116.661C362.286 116.529 362.292 116.385 362.341 116.259C362.366 116.196 362.4 116.14 362.443 116.094C362.485 116.048 362.534 116.012 362.588 115.989C362.642 115.966 362.699 115.956 362.755 115.959C362.812 115.963 362.868 115.98 362.919 116.01C363.549 116.375 364.202 116.679 364.871 116.92C364.927 116.939 364.978 116.971 365.023 117.014C365.068 117.057 365.106 117.111 365.134 117.172C365.162 117.233 365.179 117.3 365.185 117.37C365.192 117.439 365.186 117.509 365.17 117.576C365.154 117.643 365.127 117.705 365.091 117.759C365.054 117.813 365.01 117.858 364.959 117.891C364.908 117.924 364.853 117.944 364.796 117.951C364.738 117.958 364.681 117.95 364.626 117.93ZM374.843 116.347C374.816 116.286 374.799 116.22 374.793 116.151C374.787 116.082 374.792 116.013 374.809 115.946C374.825 115.88 374.852 115.818 374.887 115.765C374.923 115.711 374.967 115.666 375.018 115.633C375.631 115.229 376.217 114.767 376.77 114.25C376.862 114.169 376.976 114.134 377.088 114.153C377.2 114.172 377.302 114.244 377.371 114.354C377.44 114.463 377.471 114.601 377.458 114.737C377.444 114.874 377.387 114.999 377.299 115.085C376.709 115.635 376.084 116.128 375.43 116.559C375.365 116.602 375.294 116.623 375.224 116.623C375.146 116.623 375.069 116.597 375.002 116.549C374.935 116.5 374.88 116.43 374.843 116.347ZM360.618 115.605C360.016 115.101 359.448 114.542 358.916 113.932C358.913 113.928 358.889 113.901 358.885 113.896C358.714 113.695 358.72 113.376 358.885 113.166C359.05 112.957 359.333 112.961 359.506 113.16C360.007 113.735 360.543 114.263 361.11 114.738C361.157 114.778 361.197 114.828 361.228 114.886C361.258 114.944 361.28 115.009 361.29 115.076C361.3 115.144 361.299 115.214 361.288 115.282C361.276 115.349 361.253 115.414 361.221 115.47C361.188 115.527 361.147 115.576 361.099 115.614C361.051 115.651 360.998 115.677 360.942 115.689C360.886 115.702 360.829 115.701 360.773 115.686C360.717 115.672 360.665 115.644 360.618 115.605ZM378.639 112.913L378.351 112.518C378.831 111.902 379.27 111.241 379.666 110.542C379.698 110.485 379.739 110.436 379.787 110.398C379.834 110.36 379.888 110.334 379.944 110.322C380 110.309 380.057 110.31 380.113 110.324C380.169 110.339 380.222 110.366 380.268 110.406C380.315 110.445 380.356 110.495 380.387 110.552C380.418 110.61 380.439 110.675 380.449 110.743C380.46 110.811 380.459 110.881 380.447 110.948C380.435 111.016 380.413 111.08 380.381 111.137C379.957 111.886 379.486 112.593 378.972 113.252L378.639 112.913ZM357.397 111.892C356.944 111.176 356.538 110.417 356.183 109.624C356.128 109.501 356.116 109.357 356.148 109.223C356.181 109.089 356.256 108.976 356.357 108.91C356.458 108.843 356.577 108.828 356.687 108.867C356.797 108.907 356.89 108.998 356.945 109.121C357.278 109.866 357.659 110.578 358.085 111.25C358.151 111.361 358.179 111.499 358.163 111.635C358.147 111.771 358.087 111.893 357.998 111.977C357.908 112.061 357.795 112.098 357.683 112.083C357.571 112.067 357.468 111.998 357.397 111.892ZM380.915 109.041C380.811 108.981 380.731 108.874 380.693 108.742C380.654 108.611 380.66 108.466 380.709 108.34C381.009 107.574 381.258 106.78 381.455 105.967C381.487 105.833 381.562 105.72 381.663 105.653C381.763 105.586 381.882 105.57 381.992 105.61C382.103 105.649 382.195 105.74 382.251 105.862C382.306 105.985 382.319 106.129 382.286 106.263C382.077 107.13 381.811 107.975 381.492 108.791C381.468 108.854 381.434 108.91 381.391 108.956C381.349 109.003 381.3 109.038 381.246 109.062C381.193 109.085 381.136 109.095 381.079 109.091C381.022 109.088 380.966 109.071 380.915 109.041ZM355.278 107.151C355.031 106.3 354.839 105.426 354.703 104.538C354.683 104.401 354.708 104.259 354.773 104.144C354.838 104.029 354.938 103.95 355.051 103.925C355.107 103.912 355.165 103.912 355.22 103.926C355.276 103.941 355.329 103.968 355.376 104.008C355.423 104.047 355.463 104.097 355.494 104.155C355.525 104.213 355.546 104.279 355.556 104.347C355.683 105.181 355.863 106.001 356.096 106.8C356.119 106.88 356.126 106.965 356.116 107.048C356.106 107.132 356.08 107.211 356.04 107.28C356 107.348 355.947 107.405 355.886 107.443C355.824 107.482 355.756 107.502 355.687 107.502C355.597 107.502 355.51 107.469 355.436 107.406C355.363 107.343 355.308 107.254 355.278 107.151ZM382.258 104.071C382.144 104.053 382.041 103.981 381.97 103.87C381.9 103.76 381.869 103.62 381.884 103.481C381.973 102.64 382.008 101.792 381.989 100.944C381.988 100.875 381.997 100.806 382.017 100.741C382.038 100.677 382.068 100.617 382.107 100.567C382.146 100.517 382.193 100.476 382.245 100.448C382.297 100.42 382.353 100.404 382.41 100.402C382.664 100.39 382.849 100.624 382.856 100.914C382.876 101.817 382.839 102.72 382.743 103.616C382.73 103.743 382.679 103.859 382.6 103.944C382.521 104.028 382.419 104.075 382.314 104.075C382.295 104.075 382.277 104.074 382.258 104.071ZM354.471 101.848C354.452 100.945 354.49 100.042 354.586 99.1464C354.601 99.0079 354.661 98.8823 354.752 98.7972C354.843 98.7121 354.958 98.6745 355.072 98.6926C355.186 98.7108 355.29 98.7832 355.36 98.8939C355.43 99.0047 355.461 99.1447 355.446 99.2832C355.355 100.124 355.319 100.972 355.338 101.82C355.339 101.889 355.33 101.958 355.309 102.023C355.289 102.087 355.258 102.146 355.219 102.196C355.18 102.247 355.133 102.287 355.081 102.315C355.029 102.343 354.973 102.359 354.916 102.36H354.904C354.791 102.36 354.683 102.307 354.602 102.211C354.521 102.115 354.474 101.985 354.471 101.848ZM381.768 98.4172C381.641 97.5837 381.459 96.7638 381.226 95.9647C381.188 95.8331 381.194 95.6883 381.243 95.5622C381.292 95.4361 381.381 95.339 381.489 95.2922C381.598 95.2455 381.717 95.2529 381.821 95.3129C381.924 95.3729 382.004 95.4805 382.043 95.6121C382.291 96.4634 382.484 97.3371 382.62 98.2251C382.633 98.2939 382.633 98.3649 382.622 98.434C382.611 98.5031 382.589 98.5688 382.557 98.6274C382.525 98.6859 382.484 98.736 382.435 98.7747C382.387 98.8135 382.333 98.84 382.276 98.8529C382.219 98.8657 382.16 98.8646 382.104 98.8495C382.047 98.8344 381.994 98.8057 381.946 98.7651C381.899 98.7245 381.859 98.6728 381.828 98.6131C381.798 98.5533 381.777 98.4867 381.768 98.4172ZM355.34 97.1534C355.285 97.1339 355.235 97.1014 355.19 97.058C355.146 97.0145 355.109 96.9609 355.082 96.9001C355.055 96.8394 355.038 96.7728 355.032 96.704C355.026 96.6353 355.031 96.5657 355.047 96.4994C355.258 95.6329 355.524 94.7879 355.844 93.9723C355.893 93.8462 355.982 93.7492 356.091 93.7025C356.199 93.6559 356.318 93.6635 356.422 93.7237C356.526 93.7838 356.606 93.8916 356.644 94.0233C356.682 94.155 356.676 94.2998 356.627 94.4259C356.326 95.1915 356.076 95.9846 355.879 96.7979C355.862 96.8642 355.836 96.926 355.8 96.9797C355.764 97.0335 355.72 97.0781 355.67 97.1111C355.62 97.1441 355.565 97.1649 355.508 97.1721C355.452 97.1794 355.395 97.173 355.34 97.1534ZM380.374 93.6454C380.039 92.9011 379.658 92.1898 379.231 91.5182C379.197 91.4635 379.171 91.4009 379.156 91.3342C379.141 91.2675 379.138 91.1978 379.145 91.1292C379.152 91.0607 379.171 90.9945 379.199 90.9346C379.227 90.8747 379.265 90.8221 379.31 90.7799C379.355 90.7375 379.407 90.7064 379.462 90.6883C379.517 90.6701 379.574 90.6654 379.631 90.6743C379.687 90.6832 379.741 90.7055 379.791 90.7401C379.84 90.7746 379.883 90.8207 379.918 90.8756C380.372 91.5909 380.779 92.3485 381.135 93.1415C381.171 93.2216 381.189 93.3118 381.188 93.4031C381.186 93.4944 381.166 93.5837 381.127 93.6623C381.089 93.7408 381.034 93.8059 380.969 93.851C380.904 93.8962 380.83 93.9199 380.754 93.9198C380.677 93.9199 380.6 93.8945 380.533 93.8462C380.466 93.7979 380.411 93.7285 380.374 93.6454ZM357.069 92.361C356.975 92.2818 356.91 92.1601 356.889 92.0228C356.868 91.8855 356.893 91.7438 356.958 91.6288C357.377 90.8913 357.842 90.1941 358.349 89.5433L358.362 89.5264C358.527 89.316 358.793 89.3166 358.967 89.5166C359.141 89.7165 359.141 90.0574 358.977 90.2682C358.501 90.8793 358.065 91.5339 357.672 92.2262C357.64 92.2832 357.599 92.3319 357.551 92.3695C357.503 92.4071 357.45 92.4329 357.394 92.4454C357.338 92.4579 357.28 92.4569 357.225 92.4424C357.169 92.4279 357.116 92.4002 357.069 92.361ZM376.202 88.0351C376.111 87.9546 376.048 87.8336 376.029 87.698C376.01 87.5625 376.035 87.4231 376.099 87.3097C376.163 87.1963 376.261 87.1178 376.372 87.0912C376.483 87.0646 376.599 87.0918 376.693 87.1672C377.303 87.677 377.88 88.2434 378.417 88.8614L377.822 89.626C377.317 89.0456 376.775 88.5137 376.202 88.0351ZM359.935 88.4537C359.865 88.3432 359.833 88.2033 359.848 88.0648C359.863 87.9264 359.922 87.8007 360.013 87.7155C360.602 87.1639 361.226 86.6698 361.88 86.2378C361.98 86.176 362.097 86.1644 362.205 86.2052C362.312 86.2461 362.402 86.3362 362.456 86.4566C362.51 86.5769 362.523 86.718 362.493 86.8499C362.463 86.9819 362.391 87.0943 362.294 87.1634C361.681 87.5685 361.095 88.032 360.543 88.5496C360.498 88.5918 360.446 88.6229 360.391 88.6409C360.336 88.6589 360.279 88.6636 360.222 88.6547C360.166 88.6458 360.111 88.6235 360.062 88.589C360.013 88.5545 359.969 88.5086 359.935 88.4537ZM374.391 86.7662C373.761 86.4019 373.108 86.0986 372.438 85.8592C372.384 85.8397 372.333 85.8074 372.288 85.764C372.244 85.7207 372.207 85.6671 372.18 85.6064C372.153 85.5457 372.136 85.479 372.129 85.4102C372.123 85.3415 372.129 85.2719 372.145 85.2056C372.161 85.1392 372.187 85.0773 372.223 85.0235C372.259 84.9696 372.303 84.9249 372.353 84.8917C372.403 84.8586 372.458 84.8378 372.514 84.8305C372.571 84.8232 372.628 84.8296 372.683 84.8492C373.396 85.1041 374.092 85.427 374.764 85.8148C374.868 85.8748 374.948 85.9824 374.986 86.1141C375.025 86.2457 375.019 86.3906 374.969 86.5167C374.92 86.6429 374.831 86.7401 374.723 86.7868C374.614 86.8336 374.495 86.8262 374.391 86.7662ZM363.65 85.8093C363.612 85.6777 363.618 85.5329 363.667 85.4069C363.717 85.2809 363.805 85.1839 363.914 85.1372C364.615 84.836 365.334 84.6018 366.065 84.4369C366.303 84.3809 366.527 84.5726 366.57 84.8585C366.581 84.9265 366.58 84.9963 366.568 85.064C366.556 85.1317 366.534 85.1959 366.501 85.2529C366.469 85.3099 366.428 85.3586 366.38 85.3963C366.333 85.4339 366.279 85.4598 366.223 85.4724C365.537 85.6269 364.861 85.8467 364.203 86.1295C364.15 86.1527 364.093 86.1628 364.036 86.1592C363.979 86.1557 363.923 86.1385 363.872 86.1088C363.82 86.079 363.774 86.0373 363.736 85.9859C363.698 85.9345 363.669 85.8745 363.65 85.8093ZM370.392 85.3359C369.7 85.2262 369.001 85.1828 368.303 85.2062C368.065 85.1887 367.864 84.9846 367.858 84.694C367.855 84.5544 367.897 84.419 367.977 84.3175C368.055 84.2161 368.164 84.1569 368.279 84.153C369.022 84.1299 369.766 84.176 370.503 84.2909C370.617 84.309 370.721 84.3813 370.791 84.492C370.861 84.6027 370.892 84.7427 370.877 84.8812C370.87 84.9498 370.852 85.016 370.823 85.0759C370.795 85.1359 370.757 85.1885 370.712 85.2307C370.667 85.2729 370.616 85.3039 370.561 85.322C370.506 85.34 370.448 85.3447 370.392 85.3359ZM250.517 131.216C250.403 131.201 250.299 131.131 250.227 131.023C250.155 130.914 250.121 130.775 250.134 130.636C250.16 130.346 250.377 130.141 250.612 130.169C251.301 130.262 252.006 130.288 252.702 130.247C252.94 130.23 253.144 130.457 253.156 130.748C253.161 130.887 253.121 131.024 253.044 131.127C252.966 131.23 252.859 131.292 252.744 131.299C252.001 131.342 251.257 131.314 250.517 131.216ZM254.44 130.551C254.429 130.483 254.428 130.413 254.439 130.345C254.45 130.278 254.471 130.213 254.503 130.155C254.534 130.097 254.574 130.048 254.621 130.009C254.669 129.97 254.721 129.943 254.777 129.929C255.461 129.757 256.132 129.521 256.785 129.222C256.893 129.173 257.012 129.177 257.117 129.235C257.222 129.292 257.303 129.398 257.344 129.529C257.384 129.659 257.381 129.804 257.333 129.931C257.286 130.058 257.199 130.157 257.091 130.207C256.396 130.525 255.681 130.777 254.953 130.96C254.84 130.988 254.723 130.961 254.627 130.884C254.531 130.808 254.464 130.688 254.44 130.551ZM248.329 130.713C247.612 130.475 246.911 130.169 246.233 129.798C246.181 129.77 246.134 129.729 246.095 129.679C246.056 129.628 246.026 129.569 246.006 129.505C245.985 129.44 245.976 129.371 245.978 129.302C245.98 129.233 245.993 129.165 246.016 129.102C246.039 129.039 246.073 128.982 246.114 128.935C246.156 128.887 246.204 128.85 246.258 128.826C246.311 128.801 246.368 128.79 246.424 128.792C246.481 128.794 246.537 128.81 246.589 128.839C247.226 129.187 247.884 129.474 248.557 129.697C248.668 129.734 248.763 129.822 248.82 129.943C248.877 130.065 248.892 130.208 248.862 130.343C248.831 130.478 248.758 130.592 248.658 130.662C248.559 130.731 248.44 130.749 248.329 130.713ZM258.516 128.859C258.459 128.738 258.444 128.594 258.475 128.46C258.505 128.325 258.578 128.211 258.678 128.141C259.284 127.721 259.861 127.243 260.406 126.712C260.45 126.668 260.501 126.635 260.556 126.614C260.611 126.594 260.669 126.587 260.726 126.594C260.783 126.601 260.838 126.622 260.889 126.655C260.939 126.689 260.984 126.734 261.02 126.788C261.056 126.842 261.083 126.905 261.099 126.972C261.114 127.039 261.119 127.109 261.113 127.179C261.106 127.248 261.088 127.315 261.06 127.376C261.032 127.437 260.994 127.49 260.949 127.533C260.369 128.099 259.753 128.608 259.107 129.056C259.042 129.101 258.968 129.125 258.893 129.125C258.816 129.125 258.741 129.101 258.675 129.054C258.609 129.007 258.554 128.94 258.516 128.859ZM244.281 128.494C243.666 128.001 243.082 127.452 242.536 126.851L242.813 126.445L243.124 126.077C243.635 126.639 244.181 127.153 244.757 127.614C244.805 127.652 244.846 127.701 244.878 127.758C244.91 127.816 244.932 127.88 244.944 127.948C244.955 128.015 244.956 128.085 244.945 128.153C244.934 128.221 244.912 128.286 244.881 128.343C244.85 128.401 244.81 128.451 244.762 128.49C244.715 128.529 244.662 128.556 244.607 128.57C244.551 128.584 244.493 128.584 244.438 128.571C244.382 128.558 244.328 128.532 244.281 128.494ZM262.25 125.325L261.953 124.94C262.422 124.311 262.849 123.639 263.232 122.929C263.295 122.812 263.394 122.731 263.506 122.702C263.619 122.674 263.736 122.7 263.832 122.777C263.929 122.853 263.996 122.973 264.019 123.11C264.043 123.246 264.021 123.389 263.958 123.506C263.549 124.263 263.092 124.98 262.592 125.651L262.25 125.325ZM240.995 124.866C240.529 124.162 240.109 123.415 239.74 122.631C239.685 122.51 239.672 122.367 239.703 122.234C239.734 122.102 239.806 121.989 239.905 121.92C240.004 121.852 240.12 121.833 240.23 121.868C240.34 121.903 240.434 121.99 240.492 122.108C240.839 122.844 241.233 123.546 241.67 124.206C241.721 124.284 241.753 124.377 241.763 124.475C241.772 124.574 241.758 124.674 241.723 124.763C241.688 124.853 241.632 124.928 241.563 124.981C241.494 125.034 241.414 125.062 241.332 125.063C241.268 125.063 241.204 125.045 241.145 125.011C241.087 124.977 241.035 124.928 240.995 124.866ZM264.455 121.397C264.403 121.369 264.356 121.329 264.317 121.278C264.278 121.228 264.247 121.169 264.227 121.104C264.207 121.04 264.197 120.971 264.199 120.902C264.201 120.833 264.213 120.765 264.237 120.702C264.522 119.928 264.757 119.128 264.94 118.309C264.954 118.242 264.98 118.18 265.014 118.125C265.049 118.07 265.092 118.024 265.142 117.99C265.191 117.955 265.246 117.933 265.302 117.924C265.359 117.915 265.416 117.92 265.471 117.938C265.582 117.975 265.676 118.063 265.734 118.184C265.791 118.305 265.806 118.449 265.776 118.584C265.582 119.456 265.332 120.308 265.028 121.133C264.981 121.26 264.894 121.359 264.786 121.409C264.679 121.459 264.56 121.454 264.455 121.397ZM238.791 120.183C238.529 119.338 238.321 118.47 238.17 117.585C238.147 117.449 238.169 117.306 238.232 117.19C238.295 117.073 238.394 116.991 238.506 116.963C238.619 116.935 238.736 116.962 238.832 117.038C238.928 117.115 238.995 117.235 239.018 117.372C239.16 118.202 239.355 119.017 239.602 119.811C239.627 119.89 239.635 119.976 239.626 120.061C239.618 120.145 239.593 120.226 239.553 120.296C239.513 120.366 239.46 120.423 239.398 120.463C239.335 120.502 239.266 120.523 239.196 120.523C239.108 120.523 239.022 120.491 238.95 120.43C238.877 120.369 238.822 120.283 238.791 120.183ZM265.709 116.391C265.653 116.384 265.598 116.363 265.548 116.33C265.498 116.297 265.454 116.252 265.418 116.198C265.382 116.144 265.356 116.083 265.34 116.016C265.324 115.95 265.319 115.88 265.325 115.812C265.399 114.968 265.419 114.119 265.384 113.272C265.378 113.133 265.419 112.996 265.496 112.893C265.573 112.79 265.681 112.728 265.796 112.721C266.041 112.699 266.238 112.93 266.25 113.221C266.287 114.123 266.265 115.026 266.186 115.924C266.174 116.063 266.117 116.19 266.027 116.277C265.938 116.365 265.824 116.406 265.709 116.391ZM237.889 114.903C237.854 114 237.876 113.096 237.956 112.198C237.962 112.129 237.979 112.062 238.007 112.002C238.034 111.941 238.071 111.887 238.115 111.844C238.159 111.801 238.21 111.768 238.265 111.749C238.32 111.729 238.377 111.723 238.434 111.731C238.49 111.738 238.545 111.759 238.595 111.793C238.645 111.826 238.689 111.87 238.725 111.924C238.76 111.978 238.787 112.04 238.803 112.106C238.819 112.173 238.824 112.242 238.818 112.311C238.766 112.894 238.74 113.48 238.74 114.067C238.74 114.328 238.745 114.59 238.755 114.851C238.761 114.99 238.721 115.127 238.643 115.23C238.566 115.334 238.458 115.396 238.343 115.402C238.336 115.403 238.329 115.403 238.322 115.403C238.211 115.403 238.104 115.351 238.023 115.258C237.943 115.165 237.895 115.037 237.889 114.903ZM265.118 110.752C264.976 109.922 264.78 109.106 264.532 108.313C264.491 108.183 264.495 108.038 264.542 107.911C264.589 107.784 264.676 107.684 264.784 107.635C264.837 107.61 264.894 107.599 264.95 107.601C265.007 107.603 265.063 107.618 265.115 107.647C265.167 107.675 265.214 107.716 265.253 107.766C265.292 107.816 265.323 107.876 265.343 107.94C265.606 108.785 265.815 109.653 265.967 110.537C265.98 110.613 265.979 110.693 265.964 110.769C265.948 110.845 265.92 110.916 265.879 110.977C265.838 111.037 265.787 111.086 265.729 111.12C265.67 111.154 265.607 111.171 265.542 111.171C265.443 111.171 265.346 111.129 265.269 111.053C265.192 110.976 265.139 110.87 265.118 110.752ZM238.673 110.185C238.618 110.166 238.567 110.135 238.522 110.093C238.477 110.051 238.439 109.998 238.411 109.938C238.383 109.878 238.364 109.812 238.357 109.743C238.35 109.675 238.354 109.605 238.369 109.538C238.564 108.666 238.815 107.815 239.12 106.991C239.168 106.864 239.255 106.765 239.362 106.715C239.47 106.666 239.589 106.67 239.694 106.727C239.798 106.785 239.88 106.89 239.921 107.021C239.962 107.151 239.958 107.296 239.911 107.424C239.624 108.197 239.388 108.996 239.205 109.815C239.175 109.949 239.102 110.064 239.002 110.133C238.903 110.203 238.784 110.221 238.673 110.185ZM263.639 106.018C263.291 105.283 262.897 104.582 262.459 103.922C262.387 103.813 262.353 103.674 262.365 103.535C262.378 103.397 262.435 103.269 262.524 103.182C262.614 103.094 262.728 103.053 262.842 103.068C262.957 103.083 263.062 103.152 263.134 103.261C263.6 103.964 264.021 104.711 264.391 105.495C264.419 105.555 264.438 105.621 264.445 105.689C264.452 105.758 264.448 105.828 264.433 105.894C264.418 105.961 264.393 106.024 264.358 106.078C264.323 106.133 264.28 106.179 264.23 106.213C264.13 106.282 264.012 106.301 263.901 106.264C263.79 106.228 263.696 106.139 263.639 106.018ZM240.318 105.349C240.27 105.311 240.229 105.262 240.197 105.205C240.165 105.148 240.143 105.083 240.131 105.016C240.119 104.948 240.119 104.878 240.13 104.81C240.14 104.742 240.162 104.678 240.193 104.62C240.599 103.87 241.052 103.159 241.549 102.494L241.878 102.835L242.187 103.205C241.723 103.828 241.298 104.495 240.918 105.198C240.878 105.271 240.824 105.331 240.761 105.372C240.698 105.414 240.627 105.435 240.555 105.435C240.471 105.435 240.388 105.405 240.318 105.349ZM261.016 102.067C260.501 101.5 259.95 100.983 259.368 100.519C259.321 100.481 259.28 100.432 259.248 100.375C259.216 100.317 259.193 100.253 259.182 100.185C259.17 100.118 259.17 100.048 259.18 99.9799C259.191 99.9119 259.213 99.8472 259.244 99.7894C259.275 99.7315 259.315 99.6817 259.362 99.6427C259.41 99.6037 259.462 99.5765 259.518 99.5624C259.574 99.5484 259.631 99.5479 259.687 99.5609C259.743 99.5739 259.797 99.6003 259.844 99.6384C260.463 100.132 261.05 100.684 261.599 101.287C261.604 101.293 261.615 101.306 261.62 101.313C261.787 101.514 261.787 101.837 261.624 102.044C261.584 102.095 261.536 102.136 261.482 102.164C261.428 102.192 261.37 102.206 261.312 102.206C261.206 102.206 261.1 102.159 261.016 102.067ZM243.111 101.366C243.076 101.312 243.049 101.25 243.033 101.184C243.017 101.118 243.012 101.048 243.018 100.979C243.024 100.91 243.041 100.844 243.069 100.783C243.096 100.722 243.133 100.669 243.177 100.626C243.756 100.059 244.371 99.5492 245.016 99.0999C245.116 99.0305 245.235 99.012 245.346 99.0487C245.457 99.0853 245.551 99.174 245.608 99.2953C245.665 99.4165 245.68 99.5603 245.65 99.6952C245.62 99.83 245.547 99.9447 245.447 100.014C244.842 100.436 244.264 100.914 243.721 101.446C243.644 101.521 243.548 101.562 243.449 101.562C243.384 101.562 243.32 101.545 243.262 101.511C243.203 101.477 243.152 101.427 243.111 101.366ZM257.535 99.2971C256.898 98.95 256.24 98.6639 255.566 98.4416C255.511 98.4235 255.46 98.3924 255.415 98.3502C255.37 98.3079 255.332 98.2553 255.304 98.1953C255.275 98.1354 255.257 98.0692 255.25 98.0006C255.243 97.9321 255.246 97.8624 255.261 97.7957C255.276 97.729 255.302 97.6665 255.337 97.6118C255.371 97.5571 255.415 97.5113 255.464 97.4769C255.513 97.4425 255.568 97.4203 255.624 97.4115C255.681 97.4026 255.738 97.4074 255.793 97.4255C256.511 97.662 257.212 97.9666 257.891 98.3367C257.942 98.365 257.989 98.4055 258.028 98.4559C258.067 98.5062 258.098 98.5654 258.118 98.6301C258.138 98.6947 258.148 98.7636 258.146 98.8327C258.144 98.9018 258.131 98.9698 258.108 99.0329C258.085 99.096 258.051 99.1528 258.01 99.2002C257.968 99.2476 257.92 99.2847 257.867 99.3092C257.813 99.3337 257.757 99.3453 257.7 99.3432C257.643 99.3412 257.587 99.3255 257.535 99.2971ZM246.779 98.6241C246.739 98.4934 246.742 98.3485 246.789 98.2211C246.837 98.0937 246.924 97.9943 247.031 97.9448C247.726 97.6252 248.441 97.3723 249.169 97.1884C249.282 97.16 249.399 97.1872 249.495 97.2638C249.591 97.3405 249.658 97.4604 249.682 97.5971C249.705 97.7339 249.683 97.8763 249.62 97.9931C249.557 98.1099 249.458 98.1914 249.345 98.2198C248.662 98.3924 247.991 98.6298 247.338 98.9297C247.23 98.9791 247.111 98.9747 247.006 98.9173C246.902 98.86 246.82 98.7546 246.779 98.6241ZM253.511 97.9724C253.037 97.9103 252.562 97.879 252.086 97.8789C251.859 97.8809 251.642 97.885 251.42 97.8984C251.184 97.9086 250.978 97.6886 250.966 97.398C250.961 97.2585 251.001 97.122 251.078 97.0186C251.155 96.9151 251.263 96.8532 251.378 96.8464C251.614 96.832 251.862 96.8136 252.086 96.8257C252.59 96.8257 253.1 96.8592 253.604 96.9256C253.661 96.933 253.715 96.9539 253.765 96.9871C253.815 97.0203 253.859 97.0651 253.895 97.1189C253.931 97.1728 253.957 97.2347 253.973 97.3011C253.989 97.3674 253.994 97.4369 253.988 97.5057C253.982 97.5744 253.965 97.641 253.938 97.7017C253.91 97.7623 253.873 97.8159 253.829 97.8592C253.785 97.9026 253.734 97.9349 253.679 97.9543C253.624 97.9737 253.567 97.9799 253.511 97.9724Z" fill="url(#paint2_linear_11099_150453)"/>
<path d="M256.492 134.472C256.436 134.465 256.381 134.444 256.331 134.41C256.281 134.377 256.237 134.332 256.201 134.278C256.166 134.224 256.139 134.163 256.123 134.096C256.107 134.03 256.102 133.96 256.108 133.891C256.115 133.823 256.132 133.756 256.159 133.695C256.187 133.635 256.224 133.581 256.268 133.538C256.312 133.495 256.363 133.463 256.418 133.443C256.473 133.424 256.53 133.418 256.587 133.425C257.28 133.517 257.979 133.543 258.676 133.502C258.912 133.479 259.119 133.713 259.13 134.003C259.136 134.143 259.095 134.279 259.018 134.382C258.941 134.486 258.833 134.548 258.718 134.554C258.489 134.567 258.259 134.574 258.029 134.574C257.518 134.574 257.001 134.54 256.492 134.472ZM260.415 133.807C260.403 133.739 260.403 133.669 260.414 133.601C260.424 133.533 260.446 133.469 260.477 133.411C260.509 133.353 260.549 133.303 260.596 133.265C260.643 133.226 260.696 133.199 260.752 133.185C261.435 133.013 262.107 132.777 262.76 132.478C262.868 132.428 262.987 132.433 263.092 132.49C263.196 132.548 263.278 132.654 263.319 132.784C263.359 132.915 263.355 133.06 263.308 133.187C263.261 133.314 263.174 133.413 263.066 133.463C262.37 133.781 261.655 134.033 260.927 134.216C260.815 134.244 260.697 134.217 260.601 134.14C260.505 134.063 260.438 133.944 260.415 133.807ZM254.304 133.968C253.586 133.731 252.885 133.425 252.207 133.054C252.154 133.026 252.106 132.986 252.065 132.936C252.025 132.886 251.993 132.826 251.972 132.761C251.951 132.695 251.941 132.625 251.942 132.555C251.944 132.485 251.957 132.416 251.98 132.352C252.004 132.288 252.038 132.23 252.081 132.182C252.123 132.135 252.173 132.098 252.227 132.074C252.282 132.05 252.339 132.039 252.397 132.043C252.455 132.046 252.512 132.064 252.564 132.094C253.2 132.442 253.858 132.729 254.532 132.952C254.641 132.991 254.732 133.081 254.788 133.201C254.843 133.321 254.857 133.463 254.827 133.596C254.797 133.729 254.726 133.842 254.628 133.912C254.53 133.981 254.414 134.002 254.304 133.968ZM264.491 132.115C264.434 131.993 264.419 131.85 264.449 131.715C264.479 131.58 264.553 131.466 264.652 131.397C265.258 130.976 265.836 130.499 266.38 129.968C266.425 129.925 266.476 129.892 266.53 129.873C266.585 129.854 266.642 129.848 266.699 129.855C266.755 129.862 266.81 129.883 266.86 129.917C266.91 129.95 266.954 129.995 266.99 130.049C267.025 130.102 267.052 130.164 267.068 130.231C267.084 130.297 267.089 130.367 267.083 130.435C267.076 130.504 267.059 130.571 267.032 130.631C267.005 130.692 266.968 130.745 266.923 130.789C266.343 131.354 265.728 131.863 265.082 132.311C265.033 132.346 264.978 132.368 264.922 132.376C264.865 132.385 264.808 132.38 264.753 132.362C264.698 132.344 264.646 132.312 264.601 132.27C264.557 132.228 264.519 132.175 264.491 132.115ZM250.256 131.75C249.64 131.257 249.057 130.708 248.511 130.107L248.788 129.701L249.099 129.332C249.61 129.895 250.156 130.409 250.732 130.869C250.825 130.948 250.889 131.067 250.91 131.202C250.931 131.337 250.909 131.476 250.847 131.591C250.785 131.706 250.688 131.787 250.578 131.816C250.467 131.846 250.352 131.822 250.256 131.75ZM268.224 128.581L267.927 128.195C268.396 127.566 268.824 126.894 269.207 126.184C269.27 126.068 269.368 125.986 269.481 125.958C269.593 125.929 269.711 125.956 269.807 126.032C269.903 126.109 269.97 126.228 269.994 126.365C270.017 126.502 269.995 126.644 269.932 126.761C269.522 127.52 269.064 128.239 268.562 128.911L268.224 128.581ZM246.969 128.121C246.503 127.417 246.084 126.67 245.715 125.885C245.66 125.764 245.647 125.622 245.678 125.489C245.708 125.356 245.781 125.244 245.88 125.175C245.978 125.107 246.095 125.088 246.205 125.123C246.315 125.158 246.409 125.244 246.467 125.363C246.814 126.099 247.207 126.8 247.645 127.461C247.713 127.57 247.743 127.707 247.73 127.844C247.716 127.98 247.659 128.104 247.571 128.19C247.483 128.276 247.371 128.317 247.259 128.304C247.146 128.291 247.042 128.225 246.969 128.121ZM270.429 124.652C270.378 124.624 270.331 124.584 270.292 124.534C270.252 124.483 270.222 124.424 270.202 124.36C270.181 124.295 270.172 124.226 270.173 124.157C270.175 124.088 270.188 124.02 270.211 123.957C270.497 123.183 270.732 122.383 270.914 121.564C270.944 121.43 271.017 121.315 271.117 121.245C271.216 121.176 271.335 121.157 271.446 121.193C271.557 121.23 271.651 121.318 271.708 121.439C271.766 121.561 271.781 121.704 271.751 121.839C271.557 122.711 271.306 123.563 271.002 124.388C270.955 124.515 270.868 124.615 270.761 124.664C270.654 124.714 270.534 124.71 270.429 124.652ZM244.765 123.438C244.503 122.593 244.295 121.725 244.144 120.84C244.131 120.772 244.13 120.701 244.14 120.632C244.149 120.563 244.171 120.497 244.202 120.438C244.233 120.379 244.273 120.328 244.321 120.289C244.368 120.249 244.422 120.221 244.478 120.207C244.535 120.193 244.593 120.192 244.65 120.206C244.706 120.219 244.76 120.246 244.808 120.285C244.856 120.324 244.897 120.375 244.929 120.433C244.96 120.492 244.982 120.558 244.993 120.626C245.135 121.457 245.33 122.272 245.576 123.066C245.617 123.196 245.613 123.341 245.566 123.468C245.519 123.596 245.432 123.695 245.324 123.744C245.217 123.794 245.097 123.789 244.992 123.732C244.888 123.674 244.806 123.569 244.765 123.438ZM271.684 119.646C271.57 119.632 271.465 119.562 271.393 119.453C271.321 119.345 271.287 119.206 271.299 119.067C271.373 118.224 271.393 117.375 271.359 116.528C271.353 116.388 271.393 116.252 271.47 116.148C271.548 116.045 271.655 115.983 271.77 115.976C272.014 115.948 272.213 116.186 272.225 116.476C272.261 117.378 272.24 118.282 272.161 119.179C272.155 119.248 272.138 119.314 272.111 119.375C272.083 119.436 272.046 119.489 272.002 119.533C271.958 119.576 271.907 119.609 271.852 119.628C271.798 119.648 271.741 119.654 271.684 119.646ZM243.864 118.158C243.829 117.256 243.851 116.351 243.931 115.453C243.957 115.164 244.166 114.953 244.408 114.987C244.465 114.994 244.52 115.015 244.57 115.048C244.62 115.081 244.664 115.126 244.699 115.18C244.735 115.234 244.762 115.296 244.778 115.362C244.794 115.428 244.799 115.498 244.792 115.567C244.717 116.41 244.697 117.259 244.73 118.106C244.736 118.246 244.695 118.382 244.618 118.486C244.541 118.589 244.433 118.651 244.318 118.658C244.311 118.659 244.304 118.659 244.297 118.659C244.185 118.659 244.078 118.607 243.998 118.513C243.917 118.42 243.869 118.293 243.864 118.158ZM271.093 114.007C270.95 113.177 270.754 112.362 270.507 111.569C270.466 111.438 270.47 111.294 270.517 111.166C270.564 111.039 270.651 110.94 270.758 110.89C270.811 110.866 270.868 110.854 270.925 110.856C270.982 110.858 271.038 110.874 271.09 110.902C271.142 110.93 271.189 110.971 271.228 111.021C271.267 111.072 271.297 111.131 271.317 111.196C271.581 112.04 271.79 112.908 271.942 113.792C271.955 113.869 271.954 113.948 271.938 114.024C271.923 114.1 271.894 114.171 271.853 114.232C271.813 114.293 271.761 114.342 271.703 114.375C271.645 114.409 271.581 114.426 271.517 114.426C271.417 114.426 271.321 114.384 271.244 114.308C271.166 114.232 271.113 114.125 271.093 114.007ZM244.648 113.44C244.593 113.422 244.542 113.391 244.497 113.348C244.452 113.306 244.414 113.253 244.386 113.193C244.357 113.133 244.339 113.067 244.332 112.999C244.325 112.93 244.329 112.86 244.344 112.794C244.539 111.922 244.79 111.07 245.095 110.246C245.143 110.119 245.23 110.02 245.337 109.971C245.445 109.921 245.564 109.926 245.669 109.983C245.773 110.04 245.855 110.146 245.896 110.276C245.937 110.407 245.933 110.552 245.886 110.679C245.599 111.453 245.363 112.252 245.18 113.07C245.165 113.137 245.14 113.199 245.105 113.254C245.07 113.309 245.027 113.355 244.977 113.389C244.928 113.423 244.873 113.445 244.817 113.454C244.76 113.463 244.703 113.458 244.648 113.44ZM269.613 109.274C269.266 108.538 268.871 107.837 268.434 107.177C268.361 107.069 268.328 106.93 268.34 106.791C268.352 106.652 268.409 106.525 268.499 106.437C268.588 106.349 268.703 106.308 268.817 106.323C268.931 106.338 269.036 106.407 269.108 106.516C269.575 107.219 269.995 107.966 270.365 108.75C270.403 108.83 270.423 108.921 270.423 109.013C270.423 109.105 270.403 109.196 270.365 109.276C270.327 109.356 270.272 109.422 270.206 109.468C270.14 109.514 270.066 109.538 269.99 109.538C269.913 109.538 269.838 109.514 269.772 109.467C269.706 109.421 269.651 109.354 269.613 109.274ZM246.292 108.604C246.244 108.566 246.203 108.517 246.171 108.46C246.139 108.402 246.117 108.338 246.105 108.27C246.094 108.203 246.094 108.133 246.104 108.065C246.115 107.997 246.136 107.932 246.168 107.875C246.574 107.125 247.027 106.414 247.523 105.749L247.853 106.091L248.162 106.46C247.697 107.084 247.273 107.75 246.892 108.452C246.853 108.526 246.799 108.586 246.736 108.627C246.672 108.669 246.601 108.69 246.53 108.69C246.445 108.69 246.362 108.66 246.292 108.604ZM266.991 105.323C266.475 104.756 265.924 104.238 265.343 103.774C265.248 103.697 265.181 103.577 265.158 103.441C265.135 103.305 265.157 103.163 265.22 103.047C265.283 102.93 265.381 102.849 265.493 102.82C265.606 102.792 265.722 102.818 265.819 102.894C266.437 103.388 267.024 103.939 267.573 104.543C267.578 104.549 267.59 104.562 267.595 104.568C267.761 104.77 267.761 105.093 267.599 105.299C267.559 105.351 267.51 105.392 267.456 105.42C267.403 105.447 267.345 105.462 267.286 105.461C267.177 105.461 267.072 105.412 266.991 105.323ZM249.086 104.621C249.05 104.567 249.024 104.505 249.008 104.439C248.991 104.373 248.986 104.303 248.993 104.234C248.999 104.165 249.016 104.099 249.043 104.038C249.07 103.978 249.107 103.924 249.152 103.881C249.731 103.314 250.346 102.804 250.991 102.355C251.091 102.289 251.208 102.273 251.317 102.31C251.426 102.347 251.519 102.436 251.576 102.555C251.632 102.675 251.648 102.817 251.619 102.95C251.59 103.084 251.519 103.198 251.422 103.269C250.816 103.691 250.239 104.169 249.695 104.701C249.651 104.745 249.6 104.777 249.545 104.796C249.491 104.816 249.433 104.822 249.377 104.814C249.32 104.807 249.265 104.786 249.216 104.753C249.166 104.72 249.122 104.675 249.086 104.621ZM263.51 102.552C262.873 102.205 262.214 101.919 261.541 101.697C261.43 101.66 261.335 101.572 261.278 101.451C261.221 101.33 261.206 101.186 261.236 101.051C261.251 100.984 261.276 100.922 261.311 100.867C261.346 100.812 261.389 100.766 261.438 100.732C261.488 100.697 261.542 100.675 261.599 100.666C261.655 100.658 261.713 100.663 261.768 100.681C262.485 100.917 263.187 101.222 263.865 101.592C263.917 101.62 263.964 101.661 264.003 101.711C264.042 101.761 264.072 101.821 264.093 101.885C264.113 101.95 264.122 102.019 264.121 102.088C264.119 102.157 264.106 102.225 264.083 102.288C264.059 102.351 264.026 102.408 263.985 102.455C263.943 102.503 263.894 102.54 263.841 102.564C263.788 102.589 263.731 102.601 263.674 102.598C263.617 102.596 263.561 102.581 263.51 102.552ZM252.754 101.879C252.713 101.748 252.717 101.604 252.764 101.476C252.811 101.349 252.898 101.25 253.006 101.2C253.701 100.881 254.416 100.628 255.144 100.444C255.2 100.43 255.257 100.429 255.313 100.442C255.369 100.455 255.422 100.481 255.47 100.519C255.517 100.557 255.558 100.606 255.59 100.663C255.622 100.721 255.645 100.785 255.656 100.853C255.668 100.92 255.669 100.99 255.658 101.058C255.647 101.126 255.626 101.191 255.594 101.249C255.563 101.307 255.523 101.356 255.476 101.395C255.429 101.434 255.376 101.461 255.32 101.475C254.636 101.648 253.965 101.885 253.312 102.185C253.205 102.235 253.086 102.23 252.981 102.173C252.876 102.115 252.794 102.01 252.754 101.879ZM259.485 101.228C259.012 101.166 258.536 101.134 258.06 101.134C257.831 101.114 257.616 101.141 257.395 101.154C257.157 101.174 256.953 100.944 256.941 100.653C256.935 100.514 256.976 100.377 257.053 100.274C257.13 100.171 257.238 100.109 257.353 100.102C257.589 100.087 257.84 100.069 258.06 100.081C258.564 100.081 259.075 100.115 259.579 100.181C259.635 100.188 259.69 100.209 259.74 100.243C259.79 100.276 259.834 100.321 259.87 100.374C259.905 100.428 259.932 100.49 259.948 100.557C259.964 100.623 259.969 100.692 259.963 100.761C259.957 100.83 259.939 100.896 259.912 100.957C259.885 101.018 259.848 101.071 259.804 101.115C259.759 101.158 259.708 101.19 259.654 101.21C259.599 101.229 259.542 101.235 259.485 101.228ZM305.128 196.372C306.093 194.521 308.039 193.627 309.828 193.886C311.616 194.146 313.23 195.419 314.418 197.064C315.605 198.711 316.409 200.712 317.079 202.744C318.19 206.107 318.974 209.75 318.78 213.335C322.017 209.748 325.023 205.863 327.769 201.715C328.019 201.337 328.263 200.955 328.509 200.573L320.814 194.082C319.102 192.638 317.348 191.142 316.204 189.026C315.06 186.91 314.656 183.997 315.772 181.856C316.737 180.005 318.683 179.111 320.472 179.37C322.261 179.629 323.874 180.903 325.062 182.548C326.249 184.194 327.052 186.196 327.723 188.228C328.868 191.696 329.668 195.464 329.404 199.158C332.338 194.441 334.941 189.432 337.186 184.186L329.597 177.245C327.933 175.722 326.227 174.146 325.15 171.977C324.074 169.809 323.762 166.88 324.945 164.792C325.968 162.988 327.941 162.185 329.72 162.527C331.499 162.87 333.071 164.218 334.205 165.917C335.34 167.617 336.08 169.655 336.686 171.717C337.657 175.018 338.317 178.568 338.081 182.032C339.632 178.195 340.994 174.245 342.145 170.203C342.486 169.007 342.801 167.801 343.105 166.59L335.494 159.139C333.871 157.551 332.209 155.907 331.192 153.696C330.174 151.486 329.942 148.546 331.181 146.507C332.252 144.744 334.245 144.021 336.014 144.434C337.782 144.847 339.317 146.257 340.405 148.001C341.493 149.746 342.178 151.812 342.728 153.897C343.514 156.877 344.045 160.043 343.917 163.144C344.824 158.993 345.511 154.776 345.971 150.517C344.745 146.957 343.519 143.397 342.293 139.837C341.489 137.5 340.671 135.092 340.642 132.558C340.612 130.024 341.559 127.302 343.446 126.224C345.077 125.293 347.112 125.81 348.505 127.197C349.898 128.584 350.695 130.713 350.969 132.878C351.243 135.043 351.036 137.257 350.704 139.41C350.091 143.379 348.987 147.378 346.832 150.423C346.831 150.437 346.833 150.449 346.831 150.464C346.348 154.998 345.607 159.487 344.622 163.897C346.162 161.231 348.326 159.077 350.598 157.297C352.113 156.11 353.721 155.042 355.474 154.532C357.227 154.023 359.149 154.117 360.732 155.161C362.315 156.206 363.476 158.301 363.383 160.489C363.274 163.02 361.557 165.113 359.616 166.036C357.675 166.959 355.531 166.948 353.447 166.925L343.927 166.816C342.589 172.171 340.897 177.386 338.869 182.41C340.954 180.101 343.623 178.566 346.322 177.472C348.032 176.78 349.808 176.23 351.609 176.265C353.41 176.301 355.253 176.972 356.573 178.462C357.892 179.951 358.59 182.333 358.052 184.424C357.431 186.844 355.341 188.353 353.273 188.662C351.204 188.971 349.13 188.313 347.117 187.661L337.924 184.684C337.856 184.84 337.793 184.998 337.725 185.154C335.509 190.261 332.951 195.143 330.091 199.748C332.68 197.543 335.894 196.539 339.056 196.084C340.845 195.827 342.675 195.725 344.432 196.204C346.19 196.682 347.883 197.794 348.927 199.577C349.971 201.361 350.257 203.866 349.383 205.782C348.371 207.999 346.074 208.963 343.997 208.756C341.92 208.549 339.999 207.394 338.137 206.26L329.358 200.914C329.317 200.977 329.276 201.04 329.235 201.103L329.264 201.211L329.2 201.157C326.356 205.58 323.225 209.73 319.835 213.551C322.615 212.841 325.575 213.145 328.382 213.848C330.18 214.298 331.976 214.915 333.55 216.064C335.123 217.213 336.467 218.949 337.006 221.08C337.545 223.212 337.161 225.744 335.81 227.254C334.248 229 331.772 229.034 329.819 228.023C327.865 227.011 326.312 225.145 324.811 223.321L318.412 215.551L318.186 215.36C314.362 219.446 310.237 223.107 305.86 226.271C305.397 226.605 304.879 225.792 305.347 225.454C309.651 222.343 313.706 218.753 317.47 214.756L310.169 208.597C308.458 207.153 306.704 205.657 305.56 203.541C304.416 201.426 304.012 198.513 305.128 196.372Z" fill="url(#paint3_linear_11099_150453)"/>
<path d="M329.247 201.639C329.43 199.16 327.434 197.057 325.395 196.857C323.357 196.656 321.396 197.881 319.744 199.359C317.071 201.749 315.058 204.616 313.064 207.724C313.787 204.089 314.4 200.422 314.917 196.745C315.259 194.312 315.557 191.869 315.812 189.419C320.404 189.88 325.107 188.638 329.122 185.885C330.643 184.842 332.202 183.317 332.353 181.203C332.53 178.733 330.534 176.629 328.5 176.423C326.465 176.216 324.512 177.43 322.866 178.898C320.104 181.362 318.052 184.34 315.995 187.567C316.709 180.004 316.985 172.375 316.714 164.776C321.238 164.303 325.641 162.186 329.192 158.746C330.559 157.423 331.899 155.617 331.772 153.5C331.624 151.027 329.378 149.335 327.343 149.523C325.308 149.711 323.537 151.286 322.104 153.052C319.782 155.913 318.177 159.119 316.62 162.56C316.23 154.554 315.223 146.294 312.43 139.002C312.372 138.85 312.308 138.701 312.249 138.55C316.728 137.32 320.894 134.44 324.039 130.374C325.236 128.827 326.35 126.807 325.976 124.734C325.539 122.312 323.117 121.027 321.125 121.566C319.133 122.105 317.565 123.971 316.355 125.967C314.221 129.484 312.974 133.259 311.748 137.297C308.333 128.98 303.64 121.392 300.466 112.946C305.033 111.752 309.288 108.846 312.488 104.711C313.684 103.164 314.799 101.144 314.425 99.0706C313.987 96.6489 311.566 95.3635 309.573 95.9026C307.581 96.4417 306.014 98.3072 304.803 100.304C302.612 103.915 301.356 107.798 300.097 111.96C299.335 109.832 298.673 107.648 298.159 105.379C297.119 100.785 296.9 95.9655 297.337 91.1915C302.107 91.5565 306.962 90.0831 311.022 87.0192C312.506 85.899 314.011 84.2958 314.089 82.1755C314.18 79.6986 312.113 77.6987 310.073 77.5964C308.034 77.494 306.124 78.8065 304.531 80.3561C301.609 83.1986 299.556 86.61 297.427 90.2939C298.265 82.6081 300.794 75.0885 304.367 68.8778C308.695 68.5662 312.948 66.7605 316.479 63.7011C317.902 62.4684 319.32 60.752 319.287 58.6303C319.248 56.1511 317.08 54.3154 315.039 54.3706C312.998 54.4262 311.161 55.8837 309.652 57.5537C307.246 60.2178 305.518 63.261 303.837 66.5361C303.721 66.6082 303.622 66.7125 303.546 66.8404C300.409 72.0435 298.168 78.0103 296.83 84.2441C296.534 85.624 296.28 87.0166 296.068 88.4191C295.205 83.4037 293.207 78.6774 290.328 74.9303C289.136 73.3787 287.549 71.8955 285.822 72.2136C283.803 72.5855 282.589 75.4366 282.902 77.8867C283.214 80.3371 284.644 82.359 286.205 83.9573C289.116 86.9381 292.328 88.7342 295.782 90.5907C295.445 93.5617 295.335 96.5678 295.579 99.5482C295.949 104.062 297.017 108.3 298.464 112.372C295.788 108.205 292.135 104.967 288.04 103.175C286.397 102.455 284.428 102.015 283.01 103.256C281.354 104.706 281.345 107.916 282.544 109.923C283.742 111.93 285.775 112.936 287.764 113.493C291.575 114.559 295.2 114.337 299.088 114.063C301.634 120.694 305.093 126.91 308.057 133.19C308.991 135.167 309.871 137.16 310.658 139.202C307.944 134.504 304.024 130.847 299.581 128.895C297.938 128.172 295.969 127.729 294.55 128.968C292.893 130.415 292.881 133.625 294.077 135.634C295.273 137.642 297.304 138.652 299.293 139.212C303.19 140.309 306.893 140.058 310.882 139.782C311.702 141.969 312.407 144.216 312.935 146.566C313.902 150.866 314.466 155.293 314.802 159.727C314.891 160.906 314.962 162.087 315.021 163.27C312.904 158.745 309.743 154.942 305.983 152.444C304.45 151.425 302.56 150.622 301.003 151.583C299.183 152.705 298.767 155.876 299.697 158.083C300.627 160.29 302.507 161.664 304.402 162.586C307.902 164.29 311.384 164.778 315.103 165.22C315.367 172.645 315.055 180.113 314.349 187.495C313.163 182.258 310.711 177.449 307.361 173.849C306.052 172.443 304.356 171.151 302.662 171.668C300.682 172.273 299.698 175.252 300.202 177.655C300.705 180.057 302.288 181.904 303.967 183.314C307.154 185.989 310.555 187.407 314.211 188.881C314.111 189.858 314.005 190.834 313.893 191.809C313.272 197.155 312.449 202.487 311.385 207.745C310.166 202.666 307.754 198.012 304.491 194.507C303.182 193.1 301.486 191.808 299.791 192.325C297.812 192.93 296.827 195.909 297.331 198.312C297.835 200.715 299.418 202.561 301.097 203.971C304.196 206.572 307.498 207.985 311.039 209.416C309.767 215.393 308.176 221.267 306.199 226.945C305.788 228.128 307.326 228.822 307.737 227.641C309.733 221.907 311.33 215.972 312.61 209.936C317.225 210.393 321.956 209.133 325.997 206.349C327.525 205.297 329.091 203.761 329.247 201.639Z" fill="#CBC8F4"/>
<path d="M329.247 201.639C329.43 199.16 327.434 197.057 325.395 196.857C323.357 196.656 321.396 197.881 319.744 199.359C317.071 201.749 315.058 204.616 313.064 207.724C313.787 204.089 314.4 200.422 314.917 196.745C315.259 194.312 315.557 191.869 315.812 189.419C320.404 189.88 325.107 188.638 329.122 185.885C330.643 184.842 332.202 183.317 332.353 181.203C332.53 178.733 330.534 176.629 328.5 176.423C326.465 176.216 324.512 177.43 322.866 178.898C320.104 181.362 318.052 184.34 315.995 187.567C316.709 180.004 316.985 172.375 316.714 164.776C321.238 164.303 325.641 162.186 329.192 158.746C330.559 157.423 331.899 155.617 331.772 153.5C331.624 151.027 329.378 149.335 327.343 149.523C325.308 149.711 323.537 151.286 322.104 153.052C319.782 155.913 318.177 159.119 316.62 162.56C316.23 154.554 315.223 146.294 312.43 139.002C312.372 138.85 312.308 138.701 312.249 138.55C316.728 137.32 320.894 134.44 324.039 130.374C325.236 128.827 326.35 126.807 325.976 124.734C325.539 122.312 323.117 121.027 321.125 121.566C319.133 122.105 317.565 123.971 316.355 125.967C314.221 129.484 312.974 133.259 311.748 137.297C308.333 128.98 303.64 121.392 300.466 112.946C305.033 111.752 309.288 108.846 312.488 104.711C313.684 103.164 314.799 101.144 314.425 99.0706C313.987 96.6489 311.566 95.3635 309.573 95.9026C307.581 96.4417 306.014 98.3072 304.803 100.304C302.612 103.915 301.356 107.798 300.097 111.96C299.335 109.832 298.673 107.648 298.159 105.379C297.119 100.785 296.9 95.9655 297.337 91.1915C302.107 91.5565 306.962 90.0831 311.022 87.0192C312.506 85.899 314.011 84.2958 314.089 82.1755C314.18 79.6986 312.113 77.6987 310.073 77.5964C308.034 77.494 306.124 78.8065 304.531 80.3561C301.609 83.1986 299.556 86.61 297.427 90.2939C298.265 82.6081 300.794 75.0885 304.367 68.8778C308.695 68.5662 312.948 66.7605 316.479 63.7011C317.902 62.4684 319.32 60.752 319.287 58.6303C319.248 56.1511 317.08 54.3154 315.039 54.3706C312.998 54.4262 311.161 55.8837 309.652 57.5537C307.246 60.2178 305.518 63.261 303.837 66.5361C303.721 66.6082 303.622 66.7125 303.546 66.8404C300.409 72.0435 298.168 78.0103 296.83 84.2441C296.534 85.624 296.28 87.0166 296.068 88.4191C295.205 83.4037 293.207 78.6774 290.328 74.9303C289.136 73.3787 287.549 71.8955 285.822 72.2136C283.803 72.5855 282.589 75.4366 282.902 77.8867C283.214 80.3371 284.644 82.359 286.205 83.9573C289.116 86.9381 292.328 88.7342 295.782 90.5907C295.445 93.5617 295.335 96.5678 295.579 99.5482C295.949 104.062 297.017 108.3 298.464 112.372C295.788 108.205 292.135 104.967 288.04 103.175C286.397 102.455 284.428 102.015 283.01 103.256C281.354 104.706 281.345 107.916 282.544 109.923C283.742 111.93 285.775 112.936 287.764 113.493C291.575 114.559 295.2 114.337 299.088 114.063C301.634 120.694 305.093 126.91 308.057 133.19C308.991 135.167 309.871 137.16 310.658 139.202C307.944 134.504 304.024 130.847 299.581 128.895C297.938 128.172 295.969 127.729 294.55 128.968C292.893 130.415 292.881 133.625 294.077 135.634C295.273 137.642 297.304 138.652 299.293 139.212C303.19 140.309 306.893 140.058 310.882 139.782C311.702 141.969 312.407 144.216 312.935 146.566C313.902 150.866 314.466 155.293 314.802 159.727C314.891 160.906 314.962 162.087 315.021 163.27C312.904 158.745 309.743 154.942 305.983 152.444C304.45 151.425 302.56 150.622 301.003 151.583C299.183 152.705 298.767 155.876 299.697 158.083C300.627 160.29 302.507 161.664 304.402 162.586C307.902 164.29 311.384 164.778 315.103 165.22C315.367 172.645 315.055 180.113 314.349 187.495C313.163 182.258 310.711 177.449 307.361 173.849C306.052 172.443 304.356 171.151 302.662 171.668C300.682 172.273 299.698 175.252 300.202 177.655C300.705 180.057 302.288 181.904 303.967 183.314C307.154 185.989 310.555 187.407 314.211 188.881C314.111 189.858 314.005 190.834 313.893 191.809C313.272 197.155 312.449 202.487 311.385 207.745C310.166 202.666 307.754 198.012 304.491 194.507C303.182 193.1 301.486 191.808 299.791 192.325C297.812 192.93 296.827 195.909 297.331 198.312C297.835 200.715 299.418 202.561 301.097 203.971C304.196 206.572 307.498 207.985 311.039 209.416C309.767 215.393 308.176 221.267 306.199 226.945C305.788 228.128 307.326 228.822 307.737 227.641C309.733 221.907 311.33 215.972 312.61 209.936C317.225 210.393 321.956 209.133 325.997 206.349C327.525 205.297 329.091 203.761 329.247 201.639Z" fill="url(#paint4_linear_11099_150453)"/>
<path d="M334.95 76.7959C338.397 76.1168 340.738 72.1717 340.179 67.9844C339.62 63.797 336.372 60.9531 332.925 61.6323C329.478 62.3115 327.137 66.2565 327.696 70.4439C328.255 74.6312 331.503 77.4751 334.95 76.7959Z" fill="#CBC8F4"/>
<path d="M334.95 76.7959C338.397 76.1168 340.738 72.1717 340.179 67.9844C339.62 63.797 336.372 60.9531 332.925 61.6323C329.478 62.3115 327.137 66.2565 327.696 70.4439C328.255 74.6312 331.503 77.4751 334.95 76.7959Z" fill="url(#paint5_linear_11099_150453)"/>
<path d="M273.934 178.61C277.426 178.61 280.257 175.171 280.257 170.929C280.257 166.687 277.426 163.249 273.934 163.249C270.442 163.249 267.611 166.687 267.611 170.929C267.611 175.171 270.442 178.61 273.934 178.61Z" fill="#CBC8F4"/>
<path d="M273.934 178.61C277.426 178.61 280.257 175.171 280.257 170.929C280.257 166.687 277.426 163.249 273.934 163.249C270.442 163.249 267.611 166.687 267.611 170.929C267.611 175.171 270.442 178.61 273.934 178.61Z" fill="url(#paint6_linear_11099_150453)"/>
<path d="M339.642 48.4384C341.656 48.4384 343.288 46.4554 343.288 44.0093C343.288 41.5633 341.656 39.5803 339.642 39.5803C337.628 39.5803 335.996 41.5633 335.996 44.0093C335.996 46.4554 337.628 48.4384 339.642 48.4384Z" fill="url(#paint7_linear_11099_150453)"/>
<path d="M282.387 145.139C283.158 142.879 282.274 140.288 280.414 139.352C278.554 138.416 276.421 139.489 275.65 141.749C274.88 144.009 275.763 146.599 277.623 147.535C279.484 148.472 281.617 147.398 282.387 145.139Z" fill="url(#paint8_linear_11099_150453)"/>
<path d="M270.289 65.9674C272.302 65.9674 273.935 63.9845 273.935 61.5384C273.935 59.0923 272.302 57.1094 270.289 57.1094C268.275 57.1094 266.643 59.0923 266.643 61.5384C266.643 63.9845 268.275 65.9674 270.289 65.9674Z" fill="url(#paint9_linear_11099_150453)"/>
</g>
<defs>
<linearGradient id="paint0_linear_11099_150453" x1="157.593" y1="2.4585" x2="157.593" y2="76.9925" gradientUnits="userSpaceOnUse">
<stop stop-color="#B1ADEF"/>
<stop offset="1" stop-color="#87FFD3"/>
</linearGradient>
<linearGradient id="paint1_linear_11099_150453" x1="334.624" y1="0" x2="334.624" y2="115.226" gradientUnits="userSpaceOnUse">
<stop stop-color="#B1ADEF"/>
<stop offset="1" stop-color="#87FFD3"/>
</linearGradient>
<linearGradient id="paint2_linear_11099_150453" x1="310.367" y1="84.1472" x2="310.367" y2="131.318" gradientUnits="userSpaceOnUse">
<stop stop-color="#B1ADEF"/>
<stop offset="1" stop-color="#87FFD3"/>
</linearGradient>
<linearGradient id="paint3_linear_11099_150453" x1="303.618" y1="100.077" x2="303.618" y2="228.695" gradientUnits="userSpaceOnUse">
<stop stop-color="#B1ADEF"/>
<stop offset="1" stop-color="#87FFD3"/>
</linearGradient>
<linearGradient id="paint4_linear_11099_150453" x1="307.032" y1="54.3694" x2="307.032" y2="228.252" gradientUnits="userSpaceOnUse">
<stop stop-color="#B1ADEF"/>
<stop offset="1" stop-color="#87FFD3"/>
</linearGradient>
<linearGradient id="paint5_linear_11099_150453" x1="332.925" y1="61.6323" x2="335.877" y2="76.6133" gradientUnits="userSpaceOnUse">
<stop stop-color="#B1ADEF"/>
<stop offset="1" stop-color="#87FFD3"/>
</linearGradient>
<linearGradient id="paint6_linear_11099_150453" x1="273.934" y1="163.249" x2="273.934" y2="178.61" gradientUnits="userSpaceOnUse">
<stop stop-color="#B1ADEF"/>
<stop offset="1" stop-color="#87FFD3"/>
</linearGradient>
<linearGradient id="paint7_linear_11099_150453" x1="339.642" y1="39.5803" x2="339.642" y2="48.4384" gradientUnits="userSpaceOnUse">
<stop stop-color="#B1ADEF"/>
<stop offset="1" stop-color="#87FFD3"/>
</linearGradient>
<linearGradient id="paint8_linear_11099_150453" x1="275.65" y1="141.749" x2="282.721" y2="144.16" gradientUnits="userSpaceOnUse">
<stop stop-color="#B1ADEF"/>
<stop offset="1" stop-color="#87FFD3"/>
</linearGradient>
<linearGradient id="paint9_linear_11099_150453" x1="270.289" y1="57.1094" x2="270.289" y2="65.9674" gradientUnits="userSpaceOnUse">
<stop stop-color="#B1ADEF"/>
<stop offset="1" stop-color="#87FFD3"/>
</linearGradient>
</defs>
</svg>
