<svg width="402" height="794" viewBox="0 0 402 794" fill="none" xmlns="http://www.w3.org/2000/svg">
<g opacity="0.1">
<path d="M773.478 651.46C764.59 669.505 746.239 681.08 726.031 681.3C711.217 681.476 697.244 675.579 687.206 665.324C678.318 676.371 664.08 682.357 649.443 680.508C636.399 678.88 625.167 671.309 618.711 660.527C596.027 671.397 569.451 672.366 545.617 662.595C543.804 661.847 542.035 661.055 540.31 660.218C523.33 671.442 503.299 677.999 482.162 678.571C444.532 679.584 409.245 661.451 388.197 630.995C377.23 641.293 361.577 645.65 346.498 641.821C327.528 637.024 313.953 620.476 312.98 601.022C312.67 594.553 313.776 588.259 316.075 582.537C318.596 593.1 326.069 602.035 336.549 606.304C348.311 611.101 361.577 609.033 371.216 601.374C381.785 611.409 395.581 617.527 410.262 618.539C424.058 619.507 437.678 615.942 449.086 608.504C467.526 622.324 491.404 627.342 514.133 621.884C534.031 617.087 551.011 604.763 561.624 587.863C568.964 601.506 583.07 610.485 598.901 611.145C610.132 611.629 620.833 607.8 629.102 600.89C631.623 611.057 639.494 619.463 650.151 622.236C658.906 624.525 667.971 622.632 674.869 617.527C679.733 623.953 686.632 628.662 694.547 630.818C704.186 633.459 714.445 632.095 723.068 627.033C731.691 622.016 737.882 613.742 740.225 604.059C742.613 594.421 740.977 584.21 735.671 575.803C748.317 578.224 759.903 585.222 767.995 595.829C780.199 611.849 782.322 633.371 773.478 651.46Z" fill="#DCE8EF"/>
<path d="M740.231 604.017C737.887 613.7 731.697 621.974 723.074 626.991C714.451 632.053 704.192 633.417 694.553 630.776C686.637 628.62 679.739 623.91 674.875 617.485C667.977 622.59 658.912 624.482 650.157 622.194C639.5 619.421 631.629 611.015 629.108 600.848C620.839 607.758 610.138 611.587 598.907 611.103C583.076 610.443 568.97 601.464 561.63 587.821C551.017 604.721 534.037 617.044 514.139 621.842C491.41 627.299 467.532 622.282 449.092 608.462C437.684 615.9 424.064 619.465 410.268 618.497C395.587 617.485 381.791 611.367 371.222 601.332C361.583 608.99 348.317 611.059 336.555 606.262C326.075 601.992 318.602 593.058 316.081 582.495C320.68 570.92 330.054 561.501 342.347 557.1C350.616 554.151 359.283 553.755 367.419 555.604C368.437 551.995 369.984 548.518 372.063 545.349C377.59 536.811 386.301 530.781 396.339 528.712C405.315 526.864 414.646 528.316 422.561 532.674C429.813 513.66 444.317 497.816 463.463 488.97C484.6 479.155 508.7 479.199 529.483 488.397C541.687 470 563.797 459.394 586.923 462.738C611.421 466.259 630.391 484.48 635.697 507.411C658.647 500.501 683.763 504.462 703.573 518.678C722.411 532.145 733.996 553.183 735.676 575.761C740.983 584.168 742.619 594.378 740.231 604.017Z" fill="#F9FBFC"/>
<path d="M548.441 473.122C471.95 258.292 333.702 104.773 138.85 124.522C-94.8921 148.211 -190.081 377.847 -176.02 702.079C-199.218 709.405 -211.036 713.14 -235.084 720.74C-245.885 343.745 -110.76 88.7187 157.603 94.466C352.824 98.6483 483.474 254.485 557.806 470.163C554.077 471.343 552.203 471.935 548.441 473.122Z" fill="#DA0049"/>
<path d="M538.957 476.091C377.461 39.0637 -157.573 39.3468 -120.377 684.454C-142.245 691.369 -153.365 694.886 -176.021 702.047C-190.081 377.815 -94.8929 148.179 138.849 124.49C333.702 104.742 471.949 258.26 548.441 473.092C544.66 474.287 542.769 474.884 538.957 476.091Z" fill="#EBB12A"/>
<path d="M529.301 479.185C373.552 74.8639 -110.308 76.8686 -67.8503 667.902C-88.5089 674.434 -99.0125 677.75 -120.381 684.5C-157.577 39.3931 377.457 39.11 538.953 476.138C535.113 477.348 533.175 477.962 529.301 479.185Z" fill="#FFFF4A"/>
<path d="M519.516 482.268C369.969 112.229 -64.6863 112.858 -18.1658 652.188C-37.7153 658.364 -47.6456 661.515 -67.8468 667.899C-110.306 76.8655 373.554 74.8607 529.303 479.182C525.403 480.416 523.448 481.024 519.516 482.268Z" fill="#8AD251"/>
<path d="M509.573 485.4C366.828 151.139 -20.5667 147.548 28.8817 637.312C10.3663 643.166 0.955782 646.123 -18.1631 652.17C-64.6842 112.842 369.971 112.213 519.519 482.252C515.559 483.5 513.568 484.138 509.573 485.4Z" fill="#5290FB"/>
<path d="M499.471 488.615C364.381 191.589 22.0083 181.18 73.5158 623.233C90.732 617.79 99.2072 615.11 115.915 609.827C62.9895 213.672 362.667 233.632 489.206 491.858C493.337 490.553 495.389 489.906 499.471 488.615Z" fill="#B754FA"/>
<path d="M509.577 485.388C366.832 151.127 -20.5631 147.536 28.8852 637.299C47.0184 631.569 55.9384 628.754 73.5204 623.198C22.0129 181.145 364.385 191.554 499.476 488.58C503.535 487.298 505.558 486.66 509.577 485.388Z" fill="#6F43D1"/>
<path d="M106.031 690.899C105.943 701.462 101.653 711.585 94.0477 718.979C89.2278 723.644 83.3909 726.989 77.0676 728.749C69.3292 753.968 47.3523 772.982 20.2459 776.326C-4.69363 779.407 -28.6604 768.624 -42.9874 749.303C-55.1034 760.306 -72.3047 764.311 -88.2236 759.426C-100.826 775.402 -120.592 784.821 -141.64 784.029C-164.192 783.236 -184.312 770.825 -195.278 751.9C-208.146 759.338 -223.711 760.834 -237.905 755.773C-250.817 751.196 -261.12 741.733 -266.825 729.63C-275.58 732.05 -285.176 730.994 -293.445 726.197C-304.323 719.859 -310.69 708.284 -310.602 696.181C-307.285 707.448 -298.088 716.074 -286.546 718.627C-276.464 720.915 -266.029 718.231 -258.29 711.629C-248.032 727.561 -229.106 736.055 -210.047 732.886C-192.669 729.982 -178.607 717.966 -172.815 701.858C-160.964 724.788 -133.814 736.451 -108.432 728.221C-88.4889 721.751 -74.9136 704.763 -71.9509 685.442C-65.9371 694.86 -57.0049 702.298 -46.3038 706.523C-31.9768 712.157 -16.1021 711.453 -2.52689 704.851C4.76929 716.954 19.2731 723.16 33.379 719.639C44.5223 716.866 53.0124 708.548 56.373 698.249C66.4992 704.411 79.6765 704.103 89.6258 696.753C97.4968 690.943 101.742 681.921 101.698 672.766C104.528 678.356 106.075 684.561 106.031 690.899Z" fill="#DCE8EF"/>
<path d="M101.699 672.735C101.743 681.889 97.4983 690.912 89.6273 696.721C79.678 704.071 66.5007 704.38 56.3745 698.218C53.0139 708.517 44.5237 716.835 33.3805 719.608C19.2746 723.129 4.77078 716.923 -2.52539 704.82C-16.1007 711.421 -31.9753 712.126 -46.3023 706.492C-57.0034 702.267 -65.9357 694.829 -71.9495 685.41C-74.9121 704.732 -88.4874 721.72 -108.43 728.19C-133.812 736.42 -160.963 724.757 -172.813 701.827C-178.606 717.935 -192.668 729.951 -210.046 732.855C-229.104 736.024 -248.03 727.53 -258.289 711.598C-266.027 718.199 -276.463 720.884 -286.545 718.595C-298.086 716.043 -307.284 707.416 -310.6 696.149C-314.182 694.521 -317.41 692.144 -320.151 689.195C-327.625 681.141 -330.145 669.698 -326.784 659.311C-323.424 648.88 -314.713 641.046 -303.967 638.758C-296.583 637.217 -289.065 638.45 -282.698 642.015C-281.194 632.288 -275.844 623.222 -267.442 617.148C-256.034 608.874 -241.22 607.685 -228.883 613.407C-224.417 607.113 -218.138 602.052 -210.665 599.015C-197.886 593.821 -183.426 595.274 -172.017 602.756C-159.194 579.121 -134.298 563.629 -106.396 563.321C-78.715 563.013 -53.6427 577.669 -40.1559 600.687C-31.1352 594.394 -19.6824 591.885 -8.495 594.086C3.09042 596.418 12.9071 603.46 18.744 613.231C33.5132 607.641 50.5376 610.678 62.4325 621.813C71.0995 629.911 75.6983 641.002 75.7425 652.269C82.7291 653.942 89.1409 657.507 94.3145 662.656C97.3214 665.649 99.7977 669.038 101.699 672.735Z" fill="#F9FBFC"/>
<path d="M-32.2762 685.975C-27.757 691.798 -22.9194 695.83 -17.6971 698.484C-12.4969 701.133 -7.05358 702.348 -1.61462 702.295C3.82433 702.211 9.23236 700.878 14.3662 698.118C19.5177 695.35 24.2669 691.226 28.6755 685.311C29.6749 692.674 26.5043 700.618 20.8045 706.287C15.1223 712.004 6.86221 715.45 -1.46868 715.494C-9.79956 715.617 -18.1216 712.356 -23.9276 706.762C-29.7513 701.221 -33.0942 693.356 -32.2762 685.975Z" fill="#DCE8EF"/>
</g>
</svg>
