<svg width="38" height="47" viewBox="0 0 38 47" fill="none" xmlns="http://www.w3.org/2000/svg">
<path d="M16.9602 29.8194C18.7943 29.7954 20.0597 27.0093 20.2886 25.0317C20.9668 19.1733 15.7145 19.1503 13.9335 20.96C11.623 23.3076 14.1579 29.8565 16.9602 29.8194Z" fill="#FF2724"/>
<path d="M14.1096 21.2123C12.1546 23.3038 14.5142 29.1261 16.0099 29.0531C18.0104 28.9543 18.4949 21.0757 16.0774 20.409C15.1412 20.1506 14.1981 21.1175 14.1096 21.2123Z" fill="#FF8063"/>
<path d="M14.4065 25.9021C14.609 26.1338 14.9725 26.3659 15.2529 26.2832C16.136 26.0268 15.8121 21.9166 15.3759 21.8364C14.8389 21.7406 13.383 24.7337 14.4065 25.9021Z" fill="#FFEEA7"/>
<path d="M17.4255 29.5788C17.7183 29.7594 19.0192 28.626 19.7125 27.196C20.7744 25.006 20.5657 21.8031 18.895 20.6869C18.2685 20.2682 17.3621 20.0932 17.1166 20.3932C16.8314 20.742 17.6978 21.4113 18.1228 22.78C18.6218 24.3881 18.2184 26.0165 17.7499 27.9091C17.4847 28.9781 17.2579 29.4748 17.4255 29.5788Z" fill="#D12424"/>
<path d="M15.6651 27.9011C15.832 27.8082 15.7632 26.8444 15.5751 26.7001C15.1812 26.3981 14.56 26.7406 14.9532 27.4525C15.1213 27.7555 15.4982 27.994 15.6651 27.9011Z" fill="#FFEEA7"/>
<path d="M35.8344 27.3282C36.7214 25.7942 34.9239 23.1758 33.3182 21.8722C28.5571 18.0094 25.9369 22.3499 26.6294 24.8464C27.526 28.0846 34.4783 29.6724 35.8344 27.3282Z" fill="#FF2724"/>
<path d="M26.937 24.8448C27.7888 27.6428 34.0218 28.9674 34.6983 27.6864C35.6027 25.9726 28.9891 21.1319 27.2115 22.7608C26.524 23.391 26.8984 24.7172 26.937 24.8448Z" fill="#FF8063"/>
<path d="M31.1611 27.2387C31.4628 27.2014 31.8444 27.0313 31.9119 26.7523C32.1263 25.8752 28.3898 23.8282 28.1042 24.1458C27.7541 24.5348 29.6365 27.4287 31.1611 27.2387Z" fill="#FFEEA7"/>
<path d="M35.8529 26.8083C36.1556 26.667 35.8128 24.9508 34.9126 23.5707C33.534 21.457 30.6436 19.8255 28.8459 20.5813C28.1713 20.8649 27.5699 21.5174 27.7093 21.8903C27.8713 22.3232 28.883 21.9822 30.2836 22.401C31.9293 22.8931 33.1467 24.1447 34.5617 25.6C35.3587 26.4219 35.6794 26.8894 35.8529 26.8083Z" fill="#D12424"/>
<path d="M33.524 27.3231C33.525 27.1318 32.6532 26.6467 32.4344 26.7205C31.9762 26.8772 31.9674 27.5846 32.7808 27.6599C33.129 27.6914 33.5225 27.513 33.524 27.3231Z" fill="#FFEEA7"/>
</svg>
