<svg width="312" height="99" viewBox="0 0 312 99" fill="none" xmlns="http://www.w3.org/2000/svg">
<path d="M303.842 57.5035C306.633 38.1503 286.536 22.9166 266.713 29.2844C262.373 21.174 253.082 16.0985 242.911 16.9607C235.34 0.21589 212.509 -4.62993 197.834 6.86898C194.722 9.29781 192.174 12.3354 190.4 15.775C181.59 10.9638 170.29 11.8041 162.375 18.2193C154.617 8.6498 140.193 6.4998 129.652 13.1091C116.514 4.86934 98.2318 10.5282 93.2789 24.7512C85.5956 23.5482 77.9358 25.8229 72.4591 30.7717C58.8325 19.2838 36.8534 24.0212 30.1967 40.0888C28.2661 44.7259 27.875 50.0275 29.3321 55.1285C19.044 58.3421 12.6183 67.5314 12.9514 76.6215C8.60666 75.9271 4.31692 76.3609 0.49292 77.6797C8.53098 82.1801 18.9173 81.976 26.8473 76.7419C29.7713 84.6873 37.3888 90.6113 46.6393 91.673C52.9177 107.357 74.8103 111.247 86.9426 99.0106C90.3402 99.87 93.9834 100.066 97.7602 99.4098C100.98 103.661 106.015 106.807 111.042 108.006C116.745 109.517 123.661 108.743 128.262 106.371C128.361 106.371 129.833 105.563 129.932 105.507C132.209 104.179 133.878 102.848 135.475 101.168C136.803 101.738 138.193 102.194 139.639 102.531C146.902 114.456 163.351 118.374 175.87 111.283C182.891 110.848 189.611 107.792 194.372 102.629C204.957 108.755 218.738 106.931 227.079 98.3289C243.842 109.635 267.975 100.25 270.585 80.8486C279.509 80.474 287.126 75.7977 291.079 68.5905C300.198 72.1103 310.96 71.1596 319.317 65.4753C315.26 61.4671 309.89 58.6154 303.842 57.5035Z" fill="url(#paint0_linear_9415_45848)"/>
<defs>
<linearGradient id="paint0_linear_9415_45848" x1="137.828" y1="-133.148" x2="151.673" y2="84.0411" gradientUnits="userSpaceOnUse">
<stop stop-color="white"/>
<stop offset="1" stop-color="white" stop-opacity="0"/>
</linearGradient>
</defs>
</svg>
