<svg width="244" height="475" viewBox="0 0 244 475" fill="none" xmlns="http://www.w3.org/2000/svg">
<path d="M145.54 162.53C134.303 174.684 116.456 176.936 104.095 187.369C104.061 187.398 104.023 187.428 103.989 187.457C103.5 181.457 106.99 175.696 111.173 171.501C122.546 159.951 140.01 157.454 151.61 146.483L151.907 146.198C152.846 152.199 149.607 158.185 145.54 162.53Z" fill="#3FE339"/>
<path d="M145.548 162.53C134.311 174.684 116.465 176.936 104.104 187.369C104.791 183.667 109.36 180.011 111.861 177.762C117.965 172.288 124.664 167.417 131.814 163.255C136.386 160.591 141.184 158.192 145.2 154.807C147.921 152.515 150.282 149.669 151.618 146.483L151.916 146.198C152.855 152.199 149.615 158.185 145.548 162.53Z" fill="#2EC427"/>
<path d="M88.2361 208.12C89.2209 200.521 96.2094 195.331 100.89 189.742C102.08 188.385 103.203 186.9 104.147 185.38C107.219 180.605 111.258 176.425 115.68 172.788C121.569 167.976 128.168 164.08 134.74 160.239C141.024 156.338 148.328 152.793 151.914 146.198C148.971 153.169 141.674 157.261 135.533 161.414C129.198 165.493 122.743 169.443 117.023 174.268C112.745 177.824 108.905 181.842 105.874 186.413C104.875 188.004 103.649 189.562 102.376 190.946C98.5987 195.141 94.2398 198.671 91.2045 203.336C90.2504 204.855 89.4883 206.49 89.2003 208.226C89.1335 208.792 88.1658 208.707 88.2361 208.12Z" fill="#119E11"/>
<path d="M70.1169 182.787C71.1087 184.707 71.8544 186.75 72.1036 188.903C64.9485 187.368 58.0695 185.557 50.8372 184.691C44.2298 183.883 36.9598 183.346 30.7407 180.803C24.6112 178.309 18.3866 173.443 17.5527 166.728C25.9574 168.7 34.2716 167.502 42.7846 167.922C53.5424 168.165 65.1807 173.125 70.1169 182.787Z" fill="#43F23D"/>
<path d="M71.9285 187.788C72.0003 188.154 72.0612 188.525 72.1035 188.903C64.9484 187.368 58.0694 185.557 50.8371 184.691C44.2297 183.883 36.9597 183.346 30.7406 180.803C24.6111 178.309 18.3866 173.443 17.5527 166.728C20.3605 168.982 23.6725 170.426 25.6573 171.421C27.8377 172.513 30.1024 173.459 32.4288 174.245C45.2902 178.548 61.4913 178.817 71.9285 187.788Z" fill="#39CC33"/>
<path d="M17.5527 166.728C29.1549 174.653 43.9374 174.459 56.9813 178.89C62.9512 180.849 67.9938 184.628 72.6978 188.541C76.603 191.057 81.9336 197.048 83.4169 201.405C81.7745 199.861 78.2881 195.571 76.726 193.964C74.6318 191.859 73.1288 189.206 70.5128 187.597C67.45 185.426 63.931 183.896 60.3771 182.634C54.6591 180.536 48.836 178.882 42.8905 177.403C33.9075 175.384 24.5518 172.803 17.5527 166.728Z" fill="#35A137"/>
<path d="M90.4739 123.126C84.1406 123.225 77.6901 122.567 71.8634 120.194C66.037 117.82 60.8668 113.577 58.4546 107.983C54.8576 99.6413 58.5575 89.0375 66.6741 84.4249C70.5331 79.358 78.1714 77.2902 84.2396 79.6695C93.3872 79.3696 102.562 83.7174 107.846 90.8562C114.208 97.4937 113.67 109.063 106.718 115.136C106.326 115.478 106.145 119.038 105.434 120.007C104.406 121.408 102.649 122.464 101.053 123.209C97.7609 124.747 93.567 125.428 90.4739 123.126Z" fill="#FFE70D"/>
<path d="M90.4739 123.126C84.1406 123.225 77.6901 122.567 71.8634 120.194C66.037 117.82 60.8668 113.577 58.4546 107.983C54.8576 99.6413 58.5575 89.0375 66.6741 84.4249C70.5331 79.358 78.1714 77.2902 84.2396 79.6695C93.3872 79.3696 102.562 83.7174 107.846 90.8562C114.208 97.4937 113.67 109.063 106.718 115.136C106.326 115.478 106.145 119.038 105.434 120.007C104.406 121.408 102.649 122.464 101.053 123.209C97.7609 124.747 93.567 125.428 90.4739 123.126Z" fill="url(#paint0_linear_11099_155889)" fill-opacity="0.8"/>
<path d="M170.316 197.357C170.158 197.596 170.008 197.838 169.858 198.08C155.968 220.165 158.945 247.002 147.231 270.179C142.819 279.003 135.857 287.983 126.018 291.808C126.021 291.786 126.021 291.765 126.025 291.743C129.325 264.864 124.217 235.049 142.539 212.022C149.036 203.867 159.118 196.711 170.316 197.357Z" fill="#3FE339"/>
<path d="M170.316 197.356C156.426 219.441 158.944 247.001 147.231 270.178C142.819 279.002 135.857 287.982 126.018 291.807C126.021 291.785 126.021 291.764 126.025 291.742C127.398 290.191 128.536 288.532 129.649 286.796C134.361 279.424 138.165 271.525 140.964 263.312C142.554 258.641 143.822 253.872 144.745 249.042C147.146 236.503 147.447 223.079 154.455 212.234C158.239 206.376 164.173 201.036 170.316 197.356Z" fill="#2EC427"/>
<path d="M135.288 280.255C131.236 274.024 130.144 265.937 132.439 258.934C133.206 266.138 134.125 273.1 135.288 280.255Z" fill="#238724"/>
<path d="M139.959 266.954C143.432 263.441 146.891 260.002 150.459 256.578C149.505 261.543 145.116 265.866 139.959 266.954Z" fill="#238724"/>
<path d="M141.306 259.276C135.576 255.386 131.902 248.62 131.902 241.902C134.877 247.864 137.923 253.515 141.306 259.276Z" fill="#238724"/>
<path d="M144.23 248.126C146.087 244.196 149.331 240.928 153.357 238.975C151.509 242.911 148.25 246.164 144.23 248.126Z" fill="#238724"/>
<path d="M148.23 228.494C149.813 225.566 152.745 223.43 156.131 222.775C154.555 225.711 151.61 227.83 148.23 228.494Z" fill="#238724"/>
<path d="M144.685 238.029C140.074 235.497 135.769 230.398 137.043 225.051C138.86 229.875 142.339 233.476 144.685 238.029Z" fill="#238724"/>
<path d="M150.182 220.214C146.915 216.273 147.106 209.912 150.628 206.171C150.059 210.953 149.906 215.407 150.182 220.214Z" fill="#238724"/>
<path d="M112.784 299.152C124.706 294.908 132.307 284.008 136.363 272.928C140.474 261.356 141.423 249.121 143.988 237.178C147.084 221.269 155.457 205.674 170.316 197.356C144.118 216.846 148.01 239.124 141.377 266.692C138.153 279.297 131.208 292.206 118.786 298.493C117.049 299.404 115.161 300.035 113.285 300.619C112.865 300.757 112.406 300.544 112.261 300.142C112.111 299.724 112.358 299.289 112.784 299.152Z" fill="#119E11"/>
<path d="M90.0479 287.033C90.2203 291.915 89.5366 296.659 88.8286 301.394C87.7832 307.88 87.5456 314.454 92.8572 319.798C92.3094 320.009 91.7609 320.181 91.2109 320.314C82.9988 322.321 74.3235 316.097 70.0108 309.62C64.941 302.232 62.917 293.935 59.2095 286.156C50.1678 265.893 37.9566 247.084 25.0723 228.354C25.3312 228.315 25.5866 228.278 25.8428 228.243C59.9509 223.639 89.4509 255.886 90.0479 287.033Z" fill="#3FE339"/>
<path d="M91.2109 320.319C82.9988 322.327 74.3235 316.103 70.0108 309.625C64.941 302.237 62.917 293.94 59.2095 286.161C50.1678 265.899 37.9566 247.089 25.0723 228.359C25.3312 228.321 37.136 234.215 42.177 238.247C45.8422 241.178 49.5044 244.306 52.3428 247.978C61.6023 259.962 65.6457 274.77 71.0034 288.757C75.4796 300.444 81.5077 312.324 91.2109 320.319Z" fill="#2EC427"/>
<path d="M82.8429 310.429C76.9548 303.356 80.5619 292.939 85.6526 286.386C84.9007 290.504 83.4325 294.383 82.6747 298.428C81.8976 302.446 81.7932 306.373 82.8429 310.429Z" fill="#238724"/>
<path d="M74.6958 300.439C70.7251 301.002 66.3475 297.925 65.7559 294.126C67.5683 294.935 68.9429 295.892 70.4809 296.953C71.9906 298.05 73.3519 299.025 74.6958 300.439Z" fill="#238724"/>
<path d="M71.1686 289.142C70.6915 282.317 74.7888 274.549 80.8379 270.877C79.2029 274.005 77.4447 276.854 75.8404 279.931C74.1921 282.987 72.8316 286.028 71.1686 289.142Z" fill="#238724"/>
<path d="M66.7859 279.455C63.0054 279.969 58.5769 277.75 56.8945 274.469C60.3944 274.94 64.3951 276.969 66.7859 279.455Z" fill="#238724"/>
<path d="M65.485 270.747C64.4497 264.419 67.2932 256.731 72.2864 252.448C71.5007 255.263 70.0341 258.904 69.0384 261.649C67.993 264.389 66.7322 268.073 65.485 270.747Z" fill="#238724"/>
<path d="M58.2538 255.485C57.7787 252.789 57.7154 250.26 57.5547 247.599C57.4475 244.935 57.262 242.414 57.4743 239.685C60.6978 244.008 61.0258 250.888 58.2538 255.485Z" fill="#238724"/>
<path d="M60.1086 263.034C56.778 264.545 52.0824 262.802 50.7168 259.524C52.5448 259.731 53.9892 260.216 55.6088 260.8C57.2112 261.426 58.6168 262.005 60.1086 263.034Z" fill="#238724"/>
<path d="M49.8761 246.931C46.9445 247.842 43.3441 246.886 41.3457 244.637C44.2781 243.714 47.8722 244.691 49.8761 246.931Z" fill="#238724"/>
<path d="M46.6764 241.674C45.5243 240.202 44.8527 238.779 44.1323 237.182C43.4557 235.567 42.8788 234.109 42.6094 232.287C46.1368 233.731 48.0929 238.272 46.6764 241.674Z" fill="#238724"/>
<path d="M25.0996 228.366C41.2987 234.536 55.3554 247.093 62.5493 262.254C69.7746 277.025 71.7392 294.087 81.8472 307.513C87.6188 315.143 96.058 321.95 106.233 322.667C106.916 322.72 107.603 322.736 108.288 322.725C108.633 322.676 108.963 322.729 109.4 323.727C109.12 324.759 108.734 324.845 108.361 324.829C107.613 324.867 106.86 324.874 106.111 324.843C95.105 324.482 85.5757 317.46 79.3085 309.28C67.2343 293.463 66.6799 272.688 56.4706 255.992C49.3885 244.192 37.8555 234.383 25.0996 228.366Z" fill="#119E11"/>
<path d="M188.73 332.638C188.375 332.405 188.028 332.187 187.683 331.982C187.683 331.979 187.683 331.979 187.68 331.979C182.907 329.143 177.369 328.645 172.133 329.615C164.903 331.34 158.816 335.192 152.296 338.889C144.939 343.144 137.756 347.229 130.047 351.258C126.48 353.017 122.964 355.25 118.91 356.096C117.739 333.034 143.127 310.751 167.266 312.649C173.877 313.146 180.479 315.824 184.906 320.473C188.029 323.726 190.207 328.403 188.73 332.638Z" fill="#3FE339"/>
<path d="M188.753 332.634C183.98 329.798 177.395 328.644 172.158 329.614C164.929 331.339 158.841 335.191 152.322 338.887C144.965 343.143 137.782 347.228 130.073 351.257C126.503 353.024 122.972 355.231 118.93 356.138C118.927 356.113 118.936 356.119 118.936 356.095C123.669 348.051 130.511 340.994 136.81 334.376C140.214 330.801 143.88 327.33 148.422 324.906C160.823 318.059 179.866 321.779 188.753 332.634Z" fill="#2EC427"/>
<path d="M124.404 349.058C126.863 344.895 133.109 342.744 137.901 343.906C135.594 344.876 133.406 345.568 131.137 346.452C128.848 347.303 126.783 348.234 124.404 349.058Z" fill="#238724"/>
<path d="M131.494 338.327C135.713 333.21 145.186 332.493 150.483 336.467C143.976 335.359 137.609 335.933 131.494 338.327Z" fill="#238724"/>
<path d="M142.664 327.484C148.012 325.178 155.687 326.543 159.722 330.633C156.809 329.955 154.149 329.224 151.269 328.708C148.394 328.157 145.634 327.888 142.664 327.484Z" fill="#238724"/>
<path d="M157.277 321.182C162.158 320.509 168.206 322.913 170.872 326.91C168.421 326.13 166.294 325.157 163.99 324.206C161.943 323.314 159.257 322.258 157.277 321.182Z" fill="#238724"/>
<path d="M135.545 333.191C133.285 330.54 134.447 326.119 137.677 324.695C137.554 326.271 137.215 327.543 136.867 328.997C136.482 330.445 136.181 331.726 135.545 333.191Z" fill="#238724"/>
<path d="M149.39 322.494C148.492 319.288 151.904 316.106 155.231 316.386C153.444 318.718 151.653 320.569 149.39 322.494Z" fill="#238724"/>
<path d="M166.191 320.532C169.6 316.889 177.094 317.191 180.286 320.973C175.503 319.917 171.034 319.761 166.191 320.532Z" fill="#238724"/>
<path d="M127.849 344.074C124.808 342.33 124.219 337.68 127.016 335.49C127.361 337.027 127.445 338.304 127.603 339.773C127.726 341.239 127.889 342.513 127.849 344.074Z" fill="#238724"/>
<path d="M102.385 374.738C109.175 367.03 116.043 359.347 121.911 350.991C127.724 342.465 133.028 333.377 141.495 326.899C154.883 315.775 179.148 317.969 188.741 332.629C179.728 321.777 162.001 319.028 149.347 325.258C143.233 328.453 138.628 333.6 134.245 338.682C129.955 343.764 124.941 349.127 120.731 354.231C115.206 362.004 110.487 369.227 102.385 374.738Z" fill="#119E11"/>
<path d="M81.2006 393.946C82.0542 397.539 82.9976 401.225 82.7476 404.937C82.614 406.178 82.654 406.99 82.3757 408.215C82.2689 408.143 82.1637 408.075 82.057 408.003L82.0531 408.004C81.9786 407.954 81.9036 407.903 81.8252 407.854L81.824 407.85C79.7938 406.548 77.5213 405.267 75.6786 403.94C74.1623 402.81 72.5991 401.676 70.9955 400.543C70.5949 400.26 70.194 399.977 69.7879 399.691C52.5093 387.535 31.2948 374.879 17.2863 358.829C13.2476 354.201 9.9686 349.146 7.27769 343.935C6.88251 343.173 6.5451 342.448 6.23339 341.715C6.15265 341.529 6.07703 341.346 6.00366 341.159C5.91904 340.948 5.83594 340.736 5.75403 340.52C5.14458 338.962 4.60927 337.375 4.16479 335.752C4.16091 335.742 4.1562 335.728 4.15503 335.712C4.13911 335.632 4.11971 335.552 4.10651 335.466C4.10185 335.452 4.09687 335.438 4.0957 335.423C37.0606 344.18 72.296 362.254 81.2006 393.946Z" fill="#3FE339"/>
<path d="M81.8132 407.854C79.783 406.552 77.5105 405.271 75.6678 403.944C74.1515 402.815 72.5883 401.68 70.9847 400.548C70.5876 400.263 70.1867 399.98 69.7771 399.696C52.4985 387.54 31.284 374.883 17.2755 358.834C13.2368 354.206 9.9578 349.15 7.26688 343.939C6.87171 343.178 6.5343 342.452 6.22258 341.719C6.14184 341.534 6.06622 341.35 5.99286 341.163C5.34769 339.563 4.80337 337.84 4.0957 335.47C4.0957 335.47 6.44972 338.991 10.2078 342.739C14.4215 346.94 20.2793 351.566 24.207 354.612C38.9294 366.021 52.4135 371.776 64.983 384.62C70.5057 390.264 78.3172 400.746 81.8167 407.818C81.8167 407.83 81.8132 407.843 81.8132 407.854Z" fill="#2EC427"/>
<path d="M70.7452 391.254C67.238 387.074 66.3303 381.021 68.3213 376.021C69.142 381.166 69.9184 386.109 70.7452 391.254Z" fill="#238724"/>
<path d="M63.7753 383.068C59.2773 381.774 54.9611 381.191 50.2598 381.173C54.3707 378.729 60.7218 379.371 63.7753 383.068Z" fill="#238724"/>
<path d="M54.692 375.324C51.1595 372.101 50.2003 366.603 52.3024 362.405C53.0287 366.809 53.7841 370.951 54.692 375.324Z" fill="#238724"/>
<path d="M48.3343 371.205C46.6057 371.069 45.1047 371.687 43.4351 371.98C40.6168 372.491 37.7605 372.772 34.8984 372.295C37.9768 370.949 45.5576 368.967 48.3343 371.205Z" fill="#238724"/>
<path d="M42.1891 366.795C38.3232 363.502 37.5554 357.45 40.2556 353.261C40.3651 357.927 40.9722 362.276 42.1891 366.795Z" fill="#238724"/>
<path d="M33.3717 361.614C29.3753 363.682 23.7349 363.286 20.3965 360.264C24.8179 360.815 28.9293 361.251 33.3717 361.614Z" fill="#238724"/>
<path d="M27.7528 356.843C24.0692 354.625 22.352 349.8 23.8888 345.903C25.2265 349.628 26.445 353.108 27.7528 356.843Z" fill="#238724"/>
<path d="M15.9504 347.777C13.4698 347.262 12.4859 344.011 14.277 342.298C15.3476 344.089 15.8339 345.719 15.9504 347.777Z" fill="#238724"/>
<path d="M96.9875 422.823C89.1787 419.393 84.0826 412.775 80.1375 405.772C75.6395 399.347 71.2022 392.745 65.7458 387.057C47.4567 367.636 18.435 358.397 4.0957 335.423C19.945 355.935 47.3018 364.028 65.3102 382.393C72.8939 390.115 76.8029 400.122 83.4541 408.38C88.1671 413.077 91.778 418.516 96.9875 422.823Z" fill="#119E11"/>
<path d="M114.692 307.315C113.004 352.084 96.599 396.401 104.731 441.277C107.286 455.493 104.689 470.036 106.234 482.142C106.692 485.709 104.157 487.418 101.245 487.147C99.2114 486.966 96.9988 485.816 95.4926 483.662C98.1362 463.688 95.5702 451.392 93.8389 432.805C89.2738 383.872 110.795 331.179 105.9 282.142C101.249 239.712 74.7517 202.3 72.5312 159.266C72.0305 149.54 72.7991 139.759 75.3378 130.263C76.3083 126.492 82.5892 127.868 81.5566 131.742C80.1708 137.16 79.379 142.733 79.1111 148.335C79.0102 150.486 78.9829 152.64 79.0295 154.791C80.1203 194.291 102.856 228.96 111.362 267.006C114.316 280.132 115.271 293.911 114.692 307.315Z" fill="#1BC21F"/>
<path d="M82.5853 32.7682C83.5006 31.2239 85.9714 31.888 85.8899 33.6611C85.4167 43.972 84.7479 54.2863 85.0312 64.5341C85.1244 74.8154 86.1652 85.1155 86.9905 95.4264C87.1318 97.191 84.6978 97.9337 83.7226 96.429C72.0475 78.4113 71.5914 51.3136 82.5853 32.7682Z" fill="#FFC414"/>
<path d="M82.5853 32.7682C83.5006 31.2239 85.9714 31.888 85.8899 33.6611C85.4167 43.972 84.7479 54.2863 85.0312 64.5341C85.1244 74.8154 86.1652 85.1155 86.9905 95.4264C87.1318 97.191 84.6978 97.9337 83.7226 96.429C72.0475 78.4113 71.5914 51.3136 82.5853 32.7682Z" fill="url(#paint1_linear_11099_155889)" fill-opacity="0.8"/>
<path d="M54.7359 44.5553C56.1846 65.2991 63.7414 81.7362 77.9347 95.2938C79.1435 96.4484 78.083 98.398 76.3944 98.1425C55.3752 94.9608 41.7502 65.1026 51.3496 44.0032C52.0926 42.3699 54.612 42.7785 54.7359 44.5553Z" fill="#FFE70D"/>
<path d="M54.7359 44.5553C56.1846 65.2991 63.7414 81.7362 77.9347 95.2938C79.1435 96.4484 78.083 98.398 76.3944 98.1425C55.3752 94.9608 41.7502 65.1026 51.3496 44.0032C52.0926 42.3699 54.612 42.7785 54.7359 44.5553Z" fill="url(#paint2_linear_11099_155889)" fill-opacity="0.8"/>
<path d="M96.3593 87.9947C108.407 73.7175 117.13 57.342 122.7 38.7387C123.206 37.0476 125.752 37.1202 126.123 38.8429C130.718 60.2111 117.224 85.3384 98.2141 90.6688C96.5674 91.1308 95.2821 89.271 96.3593 87.9947Z" fill="#FFC414"/>
<path d="M96.3593 87.9947C108.407 73.7175 117.13 57.342 122.7 38.7387C123.206 37.0476 125.752 37.1202 126.123 38.8429C130.718 60.2111 117.224 85.3384 98.2141 90.6688C96.5674 91.1308 95.2821 89.271 96.3593 87.9947Z" fill="url(#paint3_linear_11099_155889)" fill-opacity="0.8"/>
<path d="M91.0329 93.3848C89.6529 94.4638 87.651 93.1657 88.2263 91.5535C91.4498 82.5192 94.9889 73.6099 97.7361 64.4629C100.59 55.5862 102.736 46.3665 105.176 37.2555C105.631 35.5532 108.152 35.5665 108.602 37.2703C113.877 57.2825 106.286 81.4617 91.0329 93.3848Z" fill="#FFE70D"/>
<path d="M91.0329 93.3848C89.6529 94.4638 87.651 93.1657 88.2263 91.5535C91.4498 82.5192 94.9889 73.6099 97.7361 64.4629C100.59 55.5862 102.736 46.3665 105.176 37.2555C105.631 35.5532 108.152 35.5665 108.602 37.2703C113.877 57.2825 106.286 81.4617 91.0329 93.3848Z" fill="url(#paint4_linear_11099_155889)" fill-opacity="0.8"/>
<path d="M80.4422 87.8688C72.1284 70.2104 74.9501 45.9363 87.086 31.3253C88.2009 29.9831 90.4531 30.8763 90.2295 32.5764C89.0207 41.7612 87.3682 50.8841 86.3803 60.0192C85.2324 69.0298 84.7274 78.2183 83.8155 87.3449C83.6424 89.072 81.1871 89.4514 80.4422 87.8688Z" fill="#FFE70D"/>
<path d="M80.4422 87.8688C72.1284 70.2104 74.9501 45.9363 87.086 31.3253C88.2009 29.9831 90.4531 30.8763 90.2295 32.5764C89.0207 41.7612 87.3682 50.8841 86.3803 60.0192C85.2324 69.0298 84.7274 78.2183 83.8155 87.3449C83.6424 89.072 81.1871 89.4514 80.4422 87.8688Z" fill="url(#paint5_linear_11099_155889)" fill-opacity="0.8"/>
<path d="M82.2228 92.7576C80.4701 76.7117 84.0613 57.8604 91.5673 44.0426C92.3766 42.5527 94.7081 42.978 94.8937 44.6473C96.6759 60.6862 93.0334 79.5252 85.5507 93.3623C84.7429 94.8555 82.4053 94.4291 82.2228 92.7576Z" fill="#FFD900"/>
<path d="M82.2228 92.7576C80.4701 76.7117 84.0613 57.8604 91.5673 44.0426C92.3766 42.5527 94.7081 42.978 94.8937 44.6473C96.6759 60.6862 93.0334 79.5252 85.5507 93.3623C84.7429 94.8555 82.4053 94.4291 82.2228 92.7576Z" fill="url(#paint6_linear_11099_155889)" fill-opacity="0.8"/>
<path d="M68.45 37.7778C69.1021 36.1812 71.5372 36.4107 71.8404 38.1C73.3989 46.7891 74.4404 55.5923 75.9777 64.1976C77.3639 72.9071 79.2773 81.624 80.6344 90.4254C80.8933 92.1051 78.6969 93.0532 77.5393 91.7647C65.3192 78.1586 61.4385 54.9405 68.45 37.7778Z" fill="#FFD900"/>
<path d="M68.45 37.7778C69.1021 36.1812 71.5372 36.4107 71.8404 38.1C73.3989 46.7891 74.4404 55.5923 75.9777 64.1976C77.3639 72.9071 79.2773 81.624 80.6344 90.4254C80.8933 92.1051 78.6969 93.0532 77.5393 91.7647C65.3192 78.1586 61.4385 54.9405 68.45 37.7778Z" fill="url(#paint7_linear_11099_155889)" fill-opacity="0.8"/>
<path d="M98.8975 34.0055C104.988 50.753 101.59 72.4579 90.7188 85.8152C89.6505 87.1278 87.4405 86.3146 87.5635 84.6561C88.2025 76.063 89.7017 67.5468 90.9567 59.1317C92.3499 50.8583 93.5378 42.3995 95.5086 34.1824C95.9034 32.5387 98.3179 32.4123 98.8975 34.0055Z" fill="#FFC414"/>
<path d="M98.8975 34.0055C104.988 50.753 101.59 72.4579 90.7188 85.8152C89.6505 87.1278 87.4405 86.3146 87.5635 84.6561C88.2025 76.063 89.7017 67.5468 90.9567 59.1317C92.3499 50.8583 93.5378 42.3995 95.5086 34.1824C95.9034 32.5387 98.3179 32.4123 98.8975 34.0055Z" fill="url(#paint8_linear_11099_155889)" fill-opacity="0.8"/>
<path d="M64.099 41.9314C65.4949 60.6584 69.5833 77.711 76.6654 94.7673C77.3105 96.3209 75.4294 97.7285 74.004 96.7592C58.2047 86.0204 51.9204 59.5194 60.7485 41.3207C61.5105 39.7489 63.9701 40.2031 64.099 41.9314Z" fill="#FFC414"/>
<path d="M64.099 41.9314C65.4949 60.6584 69.5833 77.711 76.6654 94.7673C77.3105 96.3209 75.4294 97.7285 74.004 96.7592C58.2047 86.0204 51.9204 59.5194 60.7485 41.3207C61.5105 39.7489 63.9701 40.2031 64.099 41.9314Z" fill="url(#paint9_linear_11099_155889)" fill-opacity="0.8"/>
<path d="M122.248 46.2418C107.31 61.3626 99.8312 77.8323 99.0761 96.9917C99.0117 98.6232 96.794 99.2065 95.8421 97.8501C83.9908 80.9659 97.6449 51.1199 120.369 43.495C122.128 42.9047 123.527 44.9467 122.248 46.2418Z" fill="#FFE70D"/>
<path d="M122.248 46.2418C107.31 61.3626 99.8312 77.8323 99.0761 96.9917C99.0117 98.6232 96.794 99.2065 95.8421 97.8501C83.9908 80.9659 97.6449 51.1199 120.369 43.495C122.128 42.9047 123.527 44.9467 122.248 46.2418Z" fill="url(#paint10_linear_11099_155889)" fill-opacity="0.8"/>
<path d="M94.5173 95.962C93.359 76.3462 110.206 53.7117 131.104 46.8462C132.835 46.2774 134.205 48.3112 132.959 49.5923C126.052 56.6958 119.271 63.9181 113.524 71.7406C107.516 79.608 102.587 88.105 97.8382 96.6554C97.0028 98.1597 94.6178 97.6621 94.5173 95.962Z" fill="#FFE70D"/>
<path d="M94.5173 95.962C93.359 76.3462 110.206 53.7117 131.104 46.8462C132.835 46.2774 134.205 48.3112 132.959 49.5923C126.052 56.6958 119.271 63.9181 113.524 71.7406C107.516 79.608 102.587 88.105 97.8382 96.6554C97.0028 98.1597 94.6178 97.6621 94.5173 95.962Z" fill="url(#paint11_linear_11099_155889)" fill-opacity="0.8"/>
<path d="M100.198 95.8455C108.1 78.015 128.651 63.4845 148.119 62.0477C149.908 61.9157 150.754 64.1004 149.297 65.1001C141.424 70.4995 133.298 75.5455 125.614 81.0659C117.917 86.3893 110.521 92.2837 102.895 97.8515C101.451 98.9049 99.4899 97.4432 100.198 95.8455Z" fill="#FFE70D"/>
<path d="M100.198 95.8455C108.1 78.015 128.651 63.4845 148.119 62.0477C149.908 61.9157 150.754 64.1004 149.297 65.1001C141.424 70.4995 133.298 75.5455 125.614 81.0659C117.917 86.3893 110.521 92.2837 102.895 97.8515C101.451 98.9049 99.4899 97.4432 100.198 95.8455Z" fill="url(#paint12_linear_11099_155889)" fill-opacity="0.8"/>
<path d="M97.6477 100.412C108.773 88.2733 125.685 77.9691 141.396 73.8296C143.09 73.3831 144.349 75.3053 143.193 76.5704C132.094 88.7249 115.156 98.985 99.4462 103.154C97.751 103.604 96.4885 101.677 97.6477 100.412Z" fill="#FFD900"/>
<path d="M97.6477 100.412C108.773 88.2733 125.685 77.9691 141.396 73.8296C143.09 73.3831 144.349 75.3053 143.193 76.5704C132.094 88.7249 115.156 98.985 99.4462 103.154C97.751 103.604 96.4885 101.677 97.6477 100.412Z" fill="url(#paint13_linear_11099_155889)" fill-opacity="0.8"/>
<path d="M131.799 55.6701C133.514 55.1673 134.838 57.1336 133.639 58.4091C127.475 64.9702 120.895 71.2143 114.786 77.7072C108.498 84.1515 102.53 90.9952 96.1483 97.4751C94.9305 98.7117 92.7885 97.6553 93.1278 95.9886C96.7103 78.3917 113.359 61.0732 131.799 55.6701Z" fill="#FFD900"/>
<path d="M131.799 55.6701C133.514 55.1673 134.838 57.1336 133.639 58.4091C127.475 64.9702 120.895 71.2143 114.786 77.7072C108.498 84.1515 102.53 90.9952 96.1483 97.4751C94.9305 98.7117 92.7885 97.6553 93.1278 95.9886C96.7103 78.3917 113.359 61.0732 131.799 55.6701Z" fill="url(#paint14_linear_11099_155889)" fill-opacity="0.8"/>
<path d="M155.883 81.728C137.665 78.3335 115.649 84.6117 103.34 96.7776C102.13 97.9731 103.285 99.9483 104.987 99.5975C113.803 97.7803 122.418 95.1599 130.962 92.7846C139.341 90.2992 147.94 87.981 156.178 84.9573C157.826 84.3521 157.616 82.051 155.883 81.728Z" fill="#FFC414"/>
<path d="M155.883 81.728C137.665 78.3335 115.649 84.6117 103.34 96.7776C102.13 97.9731 103.285 99.9483 104.987 99.5975C113.803 97.7803 122.418 95.1599 130.962 92.7846C139.341 90.2992 147.94 87.981 156.178 84.9573C157.826 84.3521 157.616 82.051 155.883 81.728Z" fill="url(#paint15_linear_11099_155889)" fill-opacity="0.8"/>
<path d="M126.313 45.9789C112.888 59.6911 102.578 74.1504 94.3014 90.7087C93.5476 92.2171 91.1882 91.8567 90.9623 90.1992C88.4616 71.8318 104.531 49.4098 124.503 43.2169C126.229 42.6822 127.552 44.7138 126.313 45.9789Z" fill="#FFC414"/>
<path d="M126.313 45.9789C112.888 59.6911 102.578 74.1504 94.3014 90.7087C93.5476 92.2171 91.1882 91.8567 90.9623 90.1992C88.4616 71.8318 104.531 49.4098 124.503 43.2169C126.229 42.6822 127.552 44.7138 126.313 45.9789Z" fill="url(#paint16_linear_11099_155889)" fill-opacity="0.8"/>
<path d="M17.1432 123.371C38.8709 124.597 56.8906 119.496 72.7508 107.744C74.1013 106.744 75.9937 107.993 75.5166 109.561C69.5781 129.081 36.8581 138.252 16.1456 126.511C14.542 125.602 15.2819 123.266 17.1432 123.371Z" fill="#FFE70D"/>
<path d="M17.1432 123.371C38.8709 124.597 56.8906 119.496 72.7508 107.744C74.1013 106.744 75.9937 107.993 75.5166 109.561C69.5781 129.081 36.8581 138.252 16.1456 126.511C14.542 125.602 15.2819 123.266 17.1432 123.371Z" fill="url(#paint17_linear_11099_155889)" fill-opacity="0.8"/>
<path d="M71.2133 92.6542C57.8938 79.4478 41.9777 69.1303 23.3529 61.5209C21.66 60.8294 22.0544 58.4252 23.8901 58.2899C46.6608 56.6128 71.0689 72.5493 74.2234 91.2315C74.497 92.85 72.4043 93.8348 71.2133 92.6542Z" fill="#FFC414"/>
<path d="M71.2133 92.6542C57.8938 79.4478 41.9777 69.1303 23.3529 61.5209C21.66 60.8294 22.0544 58.4252 23.8901 58.2899C46.6608 56.6128 71.0689 72.5493 74.2234 91.2315C74.497 92.85 72.4043 93.8348 71.2133 92.6542Z" fill="url(#paint18_linear_11099_155889)" fill-opacity="0.8"/>
<path d="M75.2805 92.305C76.2281 93.7481 74.6291 95.4823 73.0267 94.7351C64.0468 90.5482 55.2365 86.0783 46.0799 82.3285C37.2176 78.512 27.91 75.3236 18.7526 71.8693C17.0419 71.2241 17.3711 68.837 19.1971 68.6249C40.6445 66.1328 64.8072 76.3562 75.2805 92.305Z" fill="#FFE70D"/>
<path d="M75.2805 92.305C76.2281 93.7481 74.6291 95.4823 73.0267 94.7351C64.0468 90.5482 55.2365 86.0783 46.0799 82.3285C37.2176 78.512 27.91 75.3236 18.7526 71.8693C17.0419 71.2241 17.3711 68.837 19.1971 68.6249C40.6445 66.1328 64.8072 76.3562 75.2805 92.305Z" fill="url(#paint19_linear_11099_155889)" fill-opacity="0.8"/>
<path d="M71.9659 105.738C56.9682 119.184 27.9853 121.385 9.05378 110.493C7.48589 109.591 8.23826 107.282 10.0662 107.371C20.203 107.866 30.3533 108.193 40.3212 107.377C50.4936 106.723 60.4775 104.875 70.389 102.861C72.1332 102.507 73.2659 104.572 71.9659 105.738Z" fill="#FFE70D"/>
<path d="M71.9659 105.738C56.9682 119.184 27.9853 121.385 9.05378 110.493C7.48589 109.591 8.23826 107.282 10.0662 107.371C20.203 107.866 30.3533 108.193 40.3212 107.377C50.4936 106.723 60.4775 104.875 70.389 102.861C72.1332 102.507 73.2659 104.572 71.9659 105.738Z" fill="url(#paint20_linear_11099_155889)" fill-opacity="0.8"/>
<path d="M68.2312 101.653C48.8482 107.319 23.9887 101.603 10.3334 88.2722C9.07877 87.0474 10.2888 85.0248 12.0267 85.4501C21.4154 87.7464 30.6838 90.4554 40.0484 92.5362C49.2636 94.7528 58.7439 96.3828 68.1093 98.391C69.8821 98.7707 69.9683 101.145 68.2312 101.653Z" fill="#FFE70D"/>
<path d="M68.2312 101.653C48.8482 107.319 23.9887 101.603 10.3334 88.2722C9.07877 87.0474 10.2888 85.0248 12.0267 85.4501C21.4154 87.7464 30.6838 90.4554 40.0484 92.5362C49.2636 94.7528 58.7439 96.3828 68.1093 98.391C69.8821 98.7707 69.9683 101.145 68.2312 101.653Z" fill="url(#paint21_linear_11099_155889)" fill-opacity="0.8"/>
<path d="M73.5228 100.575C56.637 100.225 37.5063 94.4605 24.0948 85.6156C22.6484 84.662 23.3824 82.5058 25.1398 82.5392C42.0221 82.8603 61.1333 88.6724 74.5681 97.4972C76.0176 98.4498 75.282 100.611 73.5228 100.575Z" fill="#FFD900"/>
<path d="M73.5228 100.575C56.637 100.225 37.5063 94.4605 24.0948 85.6156C22.6484 84.662 23.3824 82.5058 25.1398 82.5392C42.0221 82.8603 61.1333 88.6724 74.5681 97.4972C76.0176 98.4498 75.282 100.611 73.5228 100.575Z" fill="url(#paint22_linear_11099_155889)" fill-opacity="0.8"/>
<path d="M69.0763 111.041C58.9776 123.972 42.959 135.506 27.6345 140.805C25.982 141.376 24.5697 139.554 25.6182 138.207C35.6905 125.261 51.7379 113.77 67.0588 108.441C68.7125 107.867 70.1283 109.694 69.0763 111.041Z" fill="#FFD900"/>
<path d="M69.0763 111.041C58.9776 123.972 42.959 135.506 27.6345 140.805C25.982 141.376 24.5697 139.554 25.6182 138.207C35.6905 125.261 51.7379 113.77 67.0588 108.441C68.7125 107.867 70.1283 109.694 69.0763 111.041Z" fill="url(#paint23_linear_11099_155889)" fill-opacity="0.8"/>
<path d="M15.7014 104.303C14.1964 103.37 14.9242 101.138 16.7176 101.197C25.9418 101.497 35.1779 102.304 44.3116 102.607C53.5217 103.072 62.846 103.046 72.1442 103.558C73.9186 103.655 74.4462 105.902 72.8911 106.724C56.4692 115.402 31.8795 114.334 15.7014 104.303Z" fill="#FFD900"/>
<path d="M15.7014 104.303C14.1964 103.37 14.9242 101.138 16.7176 101.197C25.9418 101.497 35.1779 102.304 44.3116 102.607C53.5217 103.072 62.846 103.046 72.1442 103.558C73.9186 103.655 74.4462 105.902 72.8911 106.724C56.4692 115.402 31.8795 114.334 15.7014 104.303Z" fill="url(#paint24_linear_11099_155889)" fill-opacity="0.8"/>
<path d="M75.5765 101.567C59.1212 87.0055 42.0845 77.9942 19.4143 71.7605C17.6131 71.2651 17.7614 68.766 19.6115 68.4798C44.183 64.6806 72.3949 79.6998 78.4802 99.8863C78.9732 101.52 76.8824 102.722 75.5765 101.567Z" fill="#FFD900"/>
<path d="M75.5765 101.567C59.1212 87.0055 42.0845 77.9942 19.4143 71.7605C17.6131 71.2651 17.7614 68.766 19.6115 68.4798C44.183 64.6806 72.3949 79.6998 78.4802 99.8863C78.9732 101.52 76.8824 102.722 75.5765 101.567Z" fill="url(#paint25_linear_11099_155889)" fill-opacity="0.8"/>
<path d="M14.5958 77.4136C32.7541 73.7402 54.8726 79.6799 67.3846 91.6556C68.614 92.8325 67.4926 94.8252 65.7853 94.5003C56.9401 92.8184 48.2824 90.3304 39.6991 88.0864C31.2801 85.7297 22.6429 83.5439 14.3555 80.6465C12.6968 80.067 12.8684 77.7629 14.5958 77.4136Z" fill="#FFC414"/>
<path d="M14.5958 77.4136C32.7541 73.7402 54.8726 79.6799 67.3846 91.6556C68.614 92.8325 67.4926 94.8252 65.7853 94.5003C56.9401 92.8184 48.2824 90.3304 39.6991 88.0864C31.2801 85.7297 22.6429 83.5439 14.3555 80.6465C12.6968 80.067 12.8684 77.7629 14.5958 77.4136Z" fill="url(#paint26_linear_11099_155889)" fill-opacity="0.8"/>
<path d="M11.4459 114.551C31.0719 115.574 49.2965 113.837 67.8996 109.263C69.594 108.846 70.8204 110.805 69.6352 112.035C56.5013 125.662 28.1885 128.296 10.392 117.65C8.85477 116.73 9.63497 114.456 11.4459 114.551Z" fill="#FFC414"/>
<path d="M11.4459 114.551C31.0719 115.574 49.2965 113.837 67.8996 109.263C69.594 108.846 70.8204 110.805 69.6352 112.035C56.5013 125.662 28.1885 128.296 10.392 117.65C8.85477 116.73 9.63497 114.456 11.4459 114.551Z" fill="url(#paint27_linear_11099_155889)" fill-opacity="0.8"/>
<path d="M70.033 173.068C68.9073 174.48 66.5534 173.502 66.8853 171.756C68.8149 161.601 70.9387 151.469 72.1103 141.278C73.4743 131.08 73.9029 120.739 74.5457 110.417C74.656 108.65 77.1726 108.229 77.9257 109.846C86.9406 129.207 83.5532 156.114 70.033 173.068Z" fill="#FFC414"/>
<path d="M70.033 173.068C68.9073 174.48 66.5534 173.502 66.8853 171.756C68.8149 161.601 70.9387 151.469 72.1103 141.278C73.4743 131.08 73.9029 120.739 74.5457 110.417C74.656 108.65 77.1726 108.229 77.9257 109.846C86.9406 129.207 83.5532 156.114 70.033 173.068Z" fill="url(#paint28_linear_11099_155889)" fill-opacity="0.8"/>
<path d="M105.44 163.555C101.779 143.061 92.5033 127.448 76.9339 115.347C75.6078 114.317 76.4545 112.274 78.1614 112.363C99.4111 113.476 116.159 141.848 108.867 163.774C108.303 165.471 105.753 165.311 105.44 163.555Z" fill="#FFE70D"/>
<path d="M105.44 163.555C101.779 143.061 92.5033 127.448 76.9339 115.347C75.6078 114.317 76.4545 112.274 78.1614 112.363C99.4111 113.476 116.159 141.848 108.867 163.774C108.303 165.471 105.753 165.311 105.44 163.555Z" fill="url(#paint29_linear_11099_155889)" fill-opacity="0.8"/>
<path d="M74.1727 105.445C75.6928 104.555 77.4925 106.1 76.694 107.622C72.2202 116.157 67.4516 124.527 63.4335 133.235C59.3482 141.661 55.9162 150.519 52.2079 159.23C51.515 160.858 49.0193 160.519 48.8155 158.773C46.4239 138.263 57.3708 115.287 74.1727 105.445Z" fill="#FFE70D"/>
<path d="M74.1727 105.445C75.6928 104.555 77.4925 106.1 76.694 107.622C72.2202 116.157 67.4516 124.527 63.4335 133.235C59.3482 141.661 55.9162 150.519 52.2079 159.23C51.515 160.858 49.0193 160.519 48.8155 158.773C46.4239 138.263 57.3708 115.287 74.1727 105.445Z" fill="url(#paint30_linear_11099_155889)" fill-opacity="0.8"/>
<path d="M81.015 108.465C94.9393 122.926 96.951 150.631 85.3566 168.603C84.3962 170.091 81.9867 169.349 82.0989 167.604C82.72 157.927 83.1644 148.236 82.4106 138.707C81.8295 128.984 79.996 119.43 77.9875 109.943C77.6343 108.273 79.8082 107.212 81.015 108.465Z" fill="#FFE70D"/>
<path d="M81.015 108.465C94.9393 122.926 96.951 150.631 85.3566 168.603C84.3962 170.091 81.9867 169.349 82.0989 167.604C82.72 157.927 83.1644 148.236 82.4106 138.707C81.8295 128.984 79.996 119.43 77.9875 109.943C77.6343 108.273 79.8082 107.212 81.015 108.465Z" fill="url(#paint31_linear_11099_155889)" fill-opacity="0.8"/>
<path d="M76.6918 112.012C82.4273 130.583 76.1926 154.269 62.0983 167.177C60.8037 168.363 58.6985 167.187 59.1609 165.531C61.6596 156.587 64.5897 147.762 66.8625 138.839C69.2763 130.059 71.0786 121.021 73.2754 112.096C73.6915 110.407 76.1779 110.348 76.6918 112.012Z" fill="#FFE70D"/>
<path d="M76.6918 112.012C82.4273 130.583 76.1926 154.269 62.0983 167.177C60.8037 168.363 58.6985 167.187 59.1609 165.531C61.6596 156.587 64.5897 147.762 66.8625 138.839C69.2763 130.059 71.0786 121.021 73.2754 112.096C73.6915 110.407 76.1779 110.348 76.6918 112.012Z" fill="url(#paint32_linear_11099_155889)" fill-opacity="0.8"/>
<path d="M78.3867 114.434C77.8498 130.559 71.621 148.773 62.2265 161.493C61.2133 162.865 58.9637 162.142 59.0165 160.464C59.5231 144.343 65.8013 126.148 75.1752 113.405C76.1868 112.029 78.4426 112.754 78.3867 114.434Z" fill="#FFD900"/>
<path d="M78.3867 114.434C77.8498 130.559 71.621 148.773 62.2265 161.493C61.2133 162.865 58.9637 162.142 59.0165 160.464C59.5231 144.343 65.8013 126.148 75.1752 113.405C76.1868 112.029 78.4426 112.754 78.3867 114.434Z" fill="url(#paint33_linear_11099_155889)" fill-opacity="0.8"/>
<path d="M78.9644 162.201C77.9722 163.629 75.6439 162.911 75.7227 161.199C76.1299 152.391 77.0681 143.578 77.478 134.857C78.0584 126.065 78.1255 117.159 78.7548 108.283C78.8748 106.589 81.2322 106.108 82.0769 107.602C90.9959 123.374 89.6295 146.85 78.9644 162.201Z" fill="#FFD900"/>
<path d="M78.9644 162.201C77.9722 163.629 75.6439 162.911 75.7227 161.199C76.1299 152.391 77.0681 143.578 77.478 134.857C78.0584 126.065 78.1255 117.159 78.7548 108.283C78.8748 106.589 81.2322 106.108 82.0769 107.602C90.9959 123.374 89.6295 146.85 78.9644 162.201Z" fill="url(#paint34_linear_11099_155889)" fill-opacity="0.8"/>
<path d="M77.1432 102.065C61.733 117.634 52.1269 133.815 45.372 155.406C44.8352 157.121 42.2203 156.954 41.9397 155.184C38.2111 131.676 54.2197 104.882 75.4139 99.274C77.1285 98.8202 78.3656 100.829 77.1432 102.065Z" fill="#FFD900"/>
<path d="M77.1432 102.065C61.733 117.634 52.1269 133.815 45.372 155.406C44.8352 157.121 42.2203 156.954 41.9397 155.184C38.2111 131.676 54.2197 104.882 75.4139 99.274C77.1285 98.8202 78.3656 100.829 77.1432 102.065Z" fill="url(#paint35_linear_11099_155889)" fill-opacity="0.8"/>
<path d="M57.9651 163.256C54.3033 145.875 60.7449 124.809 73.4088 112.98C74.6533 111.817 76.7277 112.909 76.3706 114.536C74.5201 122.967 71.828 131.212 69.3921 139.387C66.8398 147.404 64.4641 155.632 61.3474 163.518C60.724 165.096 58.3136 164.909 57.9651 163.256Z" fill="#FFC414"/>
<path d="M57.9651 163.256C54.3033 145.875 60.7449 124.809 73.4088 112.98C74.6533 111.817 76.7277 112.909 76.3706 114.536C74.5201 122.967 71.828 131.212 69.3921 139.387C66.8398 147.404 64.4641 155.632 61.3474 163.518C60.724 165.096 58.3136 164.909 57.9651 163.256Z" fill="url(#paint36_linear_11099_155889)" fill-opacity="0.8"/>
<path d="M93.9017 166.234C92.1828 147.532 87.8005 130.546 80.425 113.603C79.753 112.06 81.6097 110.623 83.0518 111.57C99.0346 122.059 105.775 148.457 97.2626 166.792C96.527 168.376 94.0601 167.96 93.9017 166.234Z" fill="#FFC414"/>
<path d="M93.9017 166.234C92.1828 147.532 87.8005 130.546 80.425 113.603C79.753 112.06 81.6097 110.623 83.0518 111.57C99.0346 122.059 105.775 148.457 97.2626 166.792C96.527 168.376 94.0601 167.96 93.9017 166.234Z" fill="url(#paint37_linear_11099_155889)" fill-opacity="0.8"/>
<path d="M152.998 103.26C132.772 95.5793 113.987 95.0191 95.0662 101.42C93.4548 101.965 92.069 100.211 93.0371 98.8656C105.092 82.1134 139.171 83.2194 154.978 100.578C156.201 101.922 154.731 103.918 152.998 103.26Z" fill="#FFE70D"/>
<path d="M152.998 103.26C132.772 95.5793 113.987 95.0191 95.0662 101.42C93.4548 101.965 92.069 100.211 93.0371 98.8656C105.092 82.1134 139.171 83.2194 154.978 100.578C156.201 101.922 154.731 103.918 152.998 103.26Z" fill="url(#paint38_linear_11099_155889)" fill-opacity="0.8"/>
<path d="M84.8238 107.818C84.3983 106.164 86.4864 104.997 87.7624 106.187C94.912 112.855 101.807 119.741 109.268 126.048C116.428 132.329 124.217 138.147 131.776 144.173C133.188 145.299 132.091 147.467 130.287 147.12C109.106 143.054 89.5251 126.101 84.8238 107.818Z" fill="#FFE70D"/>
<path d="M84.8238 107.818C84.3983 106.164 86.4864 104.997 87.7624 106.187C94.912 112.855 101.807 119.741 109.268 126.048C116.428 132.329 124.217 138.147 131.776 144.173C133.188 145.299 132.091 147.467 130.287 147.12C109.106 143.054 89.5251 126.101 84.8238 107.818Z" fill="url(#paint39_linear_11099_155889)" fill-opacity="0.8"/>
<path d="M95.1314 103.562C113.79 95.2945 142.031 101.896 156.425 117.915C157.617 119.242 156.144 121.209 154.437 120.575C144.976 117.065 135.446 113.711 125.714 111.496C115.841 109.066 105.754 107.826 95.6822 106.766C93.9105 106.58 93.5142 104.279 95.1314 103.562Z" fill="#FFE70D"/>
<path d="M95.1314 103.562C113.79 95.2945 142.031 101.896 156.425 117.915C157.617 119.242 156.144 121.209 154.437 120.575C144.976 117.065 135.446 113.711 125.714 111.496C115.841 109.066 105.754 107.826 95.6822 106.766C93.9105 106.58 93.5142 104.279 95.1314 103.562Z" fill="url(#paint40_linear_11099_155889)" fill-opacity="0.8"/>
<path d="M97.3565 108.568C117.622 109.001 139.346 121.883 147.928 138.636C148.717 140.175 146.903 141.732 145.393 140.807C137.234 135.811 129.325 130.46 121.118 125.676C113.097 120.807 104.632 116.417 96.4004 111.702C94.8422 110.809 95.5406 108.529 97.3565 108.568Z" fill="#FFE70D"/>
<path d="M97.3565 108.568C117.622 109.001 139.346 121.883 147.928 138.636C148.717 140.175 146.903 141.732 145.393 140.807C137.234 135.811 129.325 130.46 121.118 125.676C113.097 120.807 104.632 116.417 96.4004 111.702C94.8422 110.809 95.5406 108.529 97.3565 108.568Z" fill="url(#paint41_linear_11099_155889)" fill-opacity="0.8"/>
<path d="M91.9746 107.987C107.892 113.383 124.16 124.594 133.986 137.013C135.046 138.353 133.64 140.18 131.983 139.621C116.06 134.253 99.8254 123.004 89.9708 110.596C88.9072 109.257 90.3163 107.425 91.9746 107.987Z" fill="#FFD900"/>
<path d="M91.9746 107.987C107.892 113.383 124.16 124.594 133.986 137.013C135.046 138.353 133.64 140.18 131.983 139.621C116.06 134.253 99.8254 123.004 89.9708 110.596C88.9072 109.257 90.3163 107.425 91.9746 107.987Z" fill="url(#paint42_linear_11099_155889)" fill-opacity="0.8"/>
<path d="M148.099 121.79C149.221 123.127 147.796 125.027 146.113 124.434C137.454 121.383 128.95 117.847 120.377 114.82C111.786 111.616 102.925 108.844 94.2645 105.57C92.6116 104.945 92.8492 102.654 94.596 102.34C113.04 99.0254 136.036 107.414 148.099 121.79Z" fill="#FFD900"/>
<path d="M148.099 121.79C149.221 123.127 147.796 125.027 146.113 124.434C137.454 121.383 128.95 117.847 120.377 114.82C111.786 111.616 102.925 108.844 94.2645 105.57C92.6116 104.945 92.8492 102.654 94.596 102.34C113.04 99.0254 136.036 107.414 148.099 121.79Z" fill="url(#paint43_linear_11099_155889)" fill-opacity="0.8"/>
<path d="M91.004 106.666C101.841 125.426 115.054 139.09 134.529 151.808C136.076 152.818 135.114 155.147 133.263 154.863C108.685 151.101 86.8368 128.381 87.6943 107.39C87.7642 105.692 90.1442 105.177 91.004 106.666Z" fill="#FFD900"/>
<path d="M91.004 106.666C101.841 125.426 115.054 139.09 134.529 151.808C136.076 152.818 135.114 155.147 133.263 154.863C108.685 151.101 86.8368 128.381 87.6943 107.39C87.7642 105.692 90.1442 105.177 91.004 106.666Z" fill="url(#paint44_linear_11099_155889)" fill-opacity="0.8"/>
<path d="M140.312 147.646C121.865 145.688 102.817 133.416 94.8743 118.293C94.0937 116.807 95.8138 115.252 97.3277 116.072C105.173 120.321 112.575 125.28 119.987 129.985C127.205 134.747 134.687 139.413 141.603 144.649C142.987 145.696 142.067 147.833 140.312 147.646Z" fill="#FFC414"/>
<path d="M140.312 147.646C121.865 145.688 102.817 133.416 94.8743 118.293C94.0937 116.807 95.8138 115.252 97.3277 116.072C105.173 120.321 112.575 125.28 119.987 129.985C127.205 134.747 134.687 139.413 141.603 144.649C142.987 145.696 142.067 147.833 140.312 147.646Z" fill="url(#paint45_linear_11099_155889)" fill-opacity="0.8"/>
<path d="M155.494 113.343C137.197 106.485 119.322 102.67 100.156 101.433C98.4108 101.32 97.8906 99.0931 99.4201 98.2811C116.369 89.2824 144.116 95.2721 157.513 110.717C158.67 112.051 157.182 113.976 155.494 113.343Z" fill="#FFC414"/>
<path d="M155.494 113.343C137.197 106.485 119.322 102.67 100.156 101.433C98.4108 101.32 97.8906 99.0931 99.4201 98.2811C116.369 89.2824 144.116 95.2721 157.513 110.717C158.67 112.051 157.182 113.976 155.494 113.343Z" fill="url(#paint46_linear_11099_155889)" fill-opacity="0.8"/>
<path d="M96.8627 101.624C104.978 104.693 97.9962 116.556 94.8076 108.881C97.9178 116.666 87.8285 121.567 89.4076 114.039C87.8021 121.58 76.5966 122.272 81.8104 116.002C76.5559 122.269 66.1516 115.375 74.2131 114.039C66.1342 115.364 60.3168 107.184 68.8131 108.881C60.3099 107.171 58.0816 99.7067 66.758 101.624C58.0878 99.6211 61.1468 92.486 68.8131 94.3673C62.0668 91.2661 70.2331 82.3671 74.2131 89.2093C70.9694 81.9685 85.4263 80.9003 81.8104 87.2463C86.688 80.9003 97.3332 85.029 89.4076 89.2093C97.4544 85.1173 103.897 93.0915 94.8076 94.3673C103.978 93.2587 105.041 104.279 96.8627 101.624Z" fill="#FFFF00"/>
<path d="M70.319 98.5601C63.8246 99.0974 66.1619 109.013 70.1634 104.173C66.1934 109.108 72.3147 114.677 72.8714 108.967C72.3306 114.691 80.1929 117.477 77.8677 111.925C80.2232 117.484 89.2125 114.678 83.7437 112.074C89.2272 114.674 95.2228 110.01 88.7634 109.487C95.2306 110.003 98.4976 105.117 91.86 104.715C98.5123 105.054 97.9226 99.3236 92.0156 99.1022C97.5376 98.2624 93.6886 90.2255 89.3076 94.3076C93.2508 89.7895 83.1459 86.0697 84.3113 91.3498C82.243 85.812 73.7009 86.5896 78.4353 91.2011C73.5946 86.6281 67.198 91.0168 73.4156 93.7877C67.1025 91.1199 63.872 98.7871 70.319 98.5601Z" fill="#FFE70D"/>
<path d="M70.319 98.5601C63.8246 99.0974 66.1619 109.013 70.1634 104.173C66.1934 109.108 72.3147 114.677 72.8714 108.967C72.3306 114.691 80.1929 117.477 77.8677 111.925C80.2232 117.484 89.2125 114.678 83.7437 112.074C89.2272 114.674 95.2228 110.01 88.7634 109.487C95.2306 110.003 98.4976 105.117 91.86 104.715C98.5123 105.054 97.9226 99.3236 92.0156 99.1022C97.5376 98.2624 93.6886 90.2255 89.3076 94.3076C93.2508 89.7895 83.1459 86.0697 84.3113 91.3498C82.243 85.812 73.7009 86.5896 78.4353 91.2011C73.5946 86.6281 67.198 91.0168 73.4156 93.7877C67.1025 91.1199 63.872 98.7871 70.319 98.5601Z" fill="url(#paint47_linear_11099_155889)" fill-opacity="0.8"/>
<path d="M114.689 307.312C113 352.081 96.5957 396.398 104.728 441.275C107.282 455.491 104.685 470.033 106.23 482.139C106.688 485.706 104.154 487.416 101.242 487.145C101.172 486.674 101.13 486.203 101.091 485.747C98.4007 452.791 95.7105 419.628 99.1343 386.735C102.838 351.143 113.684 315.692 109.138 280.189C105.699 253.322 93.8356 228.438 85.7147 202.735C81.5106 189.412 73.0754 164.596 79.1078 148.333C79.0069 150.483 78.9796 152.638 79.0262 154.788C80.117 194.288 102.853 228.957 111.358 267.004C114.312 280.13 115.267 293.908 114.689 307.312Z" fill="#119E11"/>
<path d="M87.7074 99.8946C91.4064 100.201 90.0749 105.848 87.7959 103.092C90.0571 105.903 86.5707 109.075 86.2536 105.822C86.5614 109.083 82.0833 110.669 83.4078 107.507C82.0663 110.673 76.9464 109.075 80.0612 107.592C76.9379 109.072 73.523 106.416 77.2022 106.118C73.5187 106.412 71.6578 103.629 75.4387 103.4C71.6496 103.593 71.9854 100.33 75.3502 100.203C72.2051 99.7252 74.3972 95.1474 76.8924 97.4726C74.6464 94.8994 80.4021 92.7807 79.7383 95.7881C80.916 92.6338 85.7816 93.0769 83.0849 95.7036C85.8421 93.0988 89.4853 95.5987 85.9438 97.1771C89.5396 95.6573 91.3792 100.024 87.7074 99.8946Z" fill="#FFC414"/>
<path d="M87.7074 99.8946C91.4064 100.201 90.0749 105.848 87.7959 103.092C90.0571 105.903 86.5707 109.075 86.2536 105.822C86.5614 109.083 82.0833 110.669 83.4078 107.507C82.0663 110.673 76.9464 109.075 80.0612 107.592C76.9379 109.072 73.523 106.416 77.2022 106.118C73.5187 106.412 71.6578 103.629 75.4387 103.4C71.6496 103.593 71.9854 100.33 75.3502 100.203C72.2051 99.7252 74.3972 95.1474 76.8924 97.4726C74.6464 94.8994 80.4021 92.7807 79.7383 95.7881C80.916 92.6338 85.7816 93.0769 83.0849 95.7036C85.8421 93.0988 89.4853 95.5987 85.9438 97.1771C89.5396 95.6573 91.3792 100.024 87.7074 99.8946Z" fill="url(#paint48_linear_11099_155889)" fill-opacity="0.8"/>
<defs>
<linearGradient id="paint0_linear_11099_155889" x1="84.6639" y1="63.6975" x2="84.7744" y2="124.616" gradientUnits="userSpaceOnUse">
<stop stop-color="#FFDAAC"/>
<stop offset="1" stop-color="#FFF397"/>
</linearGradient>
<linearGradient id="paint1_linear_11099_155889" x1="80.8145" y1="10.5849" x2="81.8135" y2="97.2269" gradientUnits="userSpaceOnUse">
<stop stop-color="#FFDAAC"/>
<stop offset="1" stop-color="#FFB01F"/>
</linearGradient>
<linearGradient id="paint2_linear_11099_155889" x1="63.3233" y1="24.9666" x2="63.6146" y2="98.1642" gradientUnits="userSpaceOnUse">
<stop stop-color="#FFDAAC"/>
<stop offset="1" stop-color="#FFF397"/>
</linearGradient>
<linearGradient id="paint3_linear_11099_155889" x1="111.482" y1="20.1402" x2="111.746" y2="90.74" gradientUnits="userSpaceOnUse">
<stop stop-color="#FFDAAC"/>
<stop offset="1" stop-color="#FFB01F"/>
</linearGradient>
<linearGradient id="paint4_linear_11099_155889" x1="99.1894" y1="17.1268" x2="99.6255" y2="93.7783" gradientUnits="userSpaceOnUse">
<stop stop-color="#FFDAAC"/>
<stop offset="1" stop-color="#FFF397"/>
</linearGradient>
<linearGradient id="paint5_linear_11099_155889" x1="82.9604" y1="11.6858" x2="83.6331" y2="88.8651" gradientUnits="userSpaceOnUse">
<stop stop-color="#FFDAAC"/>
<stop offset="1" stop-color="#FFF397"/>
</linearGradient>
<linearGradient id="paint6_linear_11099_155889" x1="88.5571" y1="26.4391" x2="89.1152" y2="94.2733" gradientUnits="userSpaceOnUse">
<stop stop-color="#FFDAAC"/>
<stop offset="1" stop-color="#F1CA81"/>
</linearGradient>
<linearGradient id="paint7_linear_11099_155889" x1="72.8087" y1="18.534" x2="73.3801" y2="92.3595" gradientUnits="userSpaceOnUse">
<stop stop-color="#FFDAAC"/>
<stop offset="1" stop-color="#F1CA81"/>
</linearGradient>
<linearGradient id="paint8_linear_11099_155889" x1="94.7235" y1="15.3909" x2="95.3025" y2="86.4626" gradientUnits="userSpaceOnUse">
<stop stop-color="#FFDAAC"/>
<stop offset="1" stop-color="#FFB01F"/>
</linearGradient>
<linearGradient id="paint9_linear_11099_155889" x1="66.7541" y1="21.8483" x2="67.2177" y2="97.0752" gradientUnits="userSpaceOnUse">
<stop stop-color="#FFDAAC"/>
<stop offset="1" stop-color="#FFB01F"/>
</linearGradient>
<linearGradient id="paint10_linear_11099_155889" x1="107.098" y1="25.3736" x2="107.38" y2="98.6041" gradientUnits="userSpaceOnUse">
<stop stop-color="#FFDAAC"/>
<stop offset="1" stop-color="#FFF397"/>
</linearGradient>
<linearGradient id="paint11_linear_11099_155889" x1="113.935" y1="30.1708" x2="114.126" y2="97.5507" gradientUnits="userSpaceOnUse">
<stop stop-color="#FFDAAC"/>
<stop offset="1" stop-color="#FFF397"/>
</linearGradient>
<linearGradient id="paint12_linear_11099_155889" x1="125.024" y1="50.2408" x2="125.099" y2="98.2082" gradientUnits="userSpaceOnUse">
<stop stop-color="#FFDAAC"/>
<stop offset="1" stop-color="#FFF397"/>
</linearGradient>
<linearGradient id="paint13_linear_11099_155889" x1="120.401" y1="64.1517" x2="120.455" y2="103.221" gradientUnits="userSpaceOnUse">
<stop stop-color="#FFDAAC"/>
<stop offset="1" stop-color="#F1CA81"/>
</linearGradient>
<linearGradient id="paint14_linear_11099_155889" x1="113.58" y1="41.7462" x2="113.706" y2="98.0142" gradientUnits="userSpaceOnUse">
<stop stop-color="#FFDAAC"/>
<stop offset="1" stop-color="#F1CA81"/>
</linearGradient>
<linearGradient id="paint15_linear_11099_155889" x1="130.051" y1="74.6701" x2="130.069" y2="99.6386" gradientUnits="userSpaceOnUse">
<stop stop-color="#FFDAAC"/>
<stop offset="1" stop-color="#FFB01F"/>
</linearGradient>
<linearGradient id="paint16_linear_11099_155889" x1="108.737" y1="27.2922" x2="108.926" y2="91.6629" gradientUnits="userSpaceOnUse">
<stop stop-color="#FFDAAC"/>
<stop offset="1" stop-color="#FFB01F"/>
</linearGradient>
<linearGradient id="paint17_linear_11099_155889" x1="45.4044" y1="99.4458" x2="45.4327" y2="131.718" gradientUnits="userSpaceOnUse">
<stop stop-color="#FFDAAC"/>
<stop offset="1" stop-color="#FFF397"/>
</linearGradient>
<linearGradient id="paint18_linear_11099_155889" x1="48.2406" y1="46.7461" x2="48.3087" y2="93.1736" gradientUnits="userSpaceOnUse">
<stop stop-color="#FFDAAC"/>
<stop offset="1" stop-color="#FFB01F"/>
</linearGradient>
<linearGradient id="paint19_linear_11099_155889" x1="46.575" y1="59.5515" x2="46.6105" y2="94.9147" gradientUnits="userSpaceOnUse">
<stop stop-color="#FFDAAC"/>
<stop offset="1" stop-color="#FFF397"/>
</linearGradient>
<linearGradient id="paint20_linear_11099_155889" x1="40.3396" y1="98.0545" x2="40.3492" y2="117.428" gradientUnits="userSpaceOnUse">
<stop stop-color="#FFDAAC"/>
<stop offset="1" stop-color="#FFF397"/>
</linearGradient>
<linearGradient id="paint21_linear_11099_155889" x1="39.6279" y1="79.3759" x2="39.6443" y2="103.83" gradientUnits="userSpaceOnUse">
<stop stop-color="#FFDAAC"/>
<stop offset="1" stop-color="#FFF397"/>
</linearGradient>
<linearGradient id="paint22_linear_11099_155889" x1="49.3113" y1="76.6533" x2="49.3294" y2="100.576" gradientUnits="userSpaceOnUse">
<stop stop-color="#FFDAAC"/>
<stop offset="1" stop-color="#F1CA81"/>
</linearGradient>
<linearGradient id="paint23_linear_11099_155889" x1="47.3301" y1="97.7018" x2="47.3996" y2="140.913" gradientUnits="userSpaceOnUse">
<stop stop-color="#FFDAAC"/>
<stop offset="1" stop-color="#F1CA81"/>
</linearGradient>
<linearGradient id="paint24_linear_11099_155889" x1="44.3261" y1="97.4777" x2="44.3325" y2="112.59" gradientUnits="userSpaceOnUse">
<stop stop-color="#FFDAAC"/>
<stop offset="1" stop-color="#F1CA81"/>
</linearGradient>
<linearGradient id="paint25_linear_11099_155889" x1="48.3228" y1="56.7511" x2="48.3786" y2="102.025" gradientUnits="userSpaceOnUse">
<stop stop-color="#FFDAAC"/>
<stop offset="1" stop-color="#F1CA81"/>
</linearGradient>
<linearGradient id="paint26_linear_11099_155889" x1="40.5306" y1="70.3954" x2="40.5481" y2="94.5357" gradientUnits="userSpaceOnUse">
<stop stop-color="#FFDAAC"/>
<stop offset="1" stop-color="#FFB01F"/>
</linearGradient>
<linearGradient id="paint27_linear_11099_155889" x1="39.8148" y1="104.311" x2="39.8255" y2="124.206" gradientUnits="userSpaceOnUse">
<stop stop-color="#FFDAAC"/>
<stop offset="1" stop-color="#FFB01F"/>
</linearGradient>
<linearGradient id="paint28_linear_11099_155889" x1="74.8977" y1="87.6557" x2="75.6543" y2="173.737" gradientUnits="userSpaceOnUse">
<stop stop-color="#FFDAAC"/>
<stop offset="1" stop-color="#FFB01F"/>
</linearGradient>
<linearGradient id="paint29_linear_11099_155889" x1="93.4284" y1="95.1954" x2="93.6616" y2="164.963" gradientUnits="userSpaceOnUse">
<stop stop-color="#FFDAAC"/>
<stop offset="1" stop-color="#FFF397"/>
</linearGradient>
<linearGradient id="paint30_linear_11099_155889" x1="62.6777" y1="87.2036" x2="62.9868" y2="160.283" gradientUnits="userSpaceOnUse">
<stop stop-color="#FFDAAC"/>
<stop offset="1" stop-color="#FFF397"/>
</linearGradient>
<linearGradient id="paint31_linear_11099_155889" x1="85.4202" y1="87.8532" x2="86.1511" y2="169.395" gradientUnits="userSpaceOnUse">
<stop stop-color="#FFDAAC"/>
<stop offset="1" stop-color="#FFF397"/>
</linearGradient>
<linearGradient id="paint32_linear_11099_155889" x1="68.9465" y1="92.2415" x2="69.4207" y2="167.656" gradientUnits="userSpaceOnUse">
<stop stop-color="#FFDAAC"/>
<stop offset="1" stop-color="#FFF397"/>
</linearGradient>
<linearGradient id="paint33_linear_11099_155889" x1="68.6938" y1="96.5202" x2="69.06" y2="162.211" gradientUnits="userSpaceOnUse">
<stop stop-color="#FFDAAC"/>
<stop offset="1" stop-color="#F1CA81"/>
</linearGradient>
<linearGradient id="paint34_linear_11099_155889" x1="81.8357" y1="88.3511" x2="82.5832" y2="162.956" gradientUnits="userSpaceOnUse">
<stop stop-color="#FFDAAC"/>
<stop offset="1" stop-color="#F1CA81"/>
</linearGradient>
<linearGradient id="paint35_linear_11099_155889" x1="59.5021" y1="80.4795" x2="59.765" y2="156.605" gradientUnits="userSpaceOnUse">
<stop stop-color="#FFDAAC"/>
<stop offset="1" stop-color="#F1CA81"/>
</linearGradient>
<linearGradient id="paint36_linear_11099_155889" x1="66.6705" y1="95.4919" x2="67.0738" y2="164.602" gradientUnits="userSpaceOnUse">
<stop stop-color="#FFDAAC"/>
<stop offset="1" stop-color="#FFB01F"/>
</linearGradient>
<linearGradient id="paint37_linear_11099_155889" x1="90.6174" y1="92.8264" x2="91.0639" y2="167.778" gradientUnits="userSpaceOnUse">
<stop stop-color="#FFDAAC"/>
<stop offset="1" stop-color="#FFB01F"/>
</linearGradient>
<linearGradient id="paint38_linear_11099_155889" x1="124.047" y1="81.5306" x2="124.06" y2="103.389" gradientUnits="userSpaceOnUse">
<stop stop-color="#FFDAAC"/>
<stop offset="1" stop-color="#FFF397"/>
</linearGradient>
<linearGradient id="paint39_linear_11099_155889" x1="108.574" y1="92.1732" x2="108.679" y2="147.157" gradientUnits="userSpaceOnUse">
<stop stop-color="#FFDAAC"/>
<stop offset="1" stop-color="#FFF397"/>
</linearGradient>
<linearGradient id="paint40_linear_11099_155889" x1="125.459" y1="93.2294" x2="125.479" y2="120.698" gradientUnits="userSpaceOnUse">
<stop stop-color="#FFDAAC"/>
<stop offset="1" stop-color="#FFF397"/>
</linearGradient>
<linearGradient id="paint41_linear_11099_155889" x1="121.808" y1="97.9569" x2="121.866" y2="141.085" gradientUnits="userSpaceOnUse">
<stop stop-color="#FFDAAC"/>
<stop offset="1" stop-color="#FFF397"/>
</linearGradient>
<linearGradient id="paint42_linear_11099_155889" x1="111.96" y1="97.4932" x2="112.025" y2="139.724" gradientUnits="userSpaceOnUse">
<stop stop-color="#FFDAAC"/>
<stop offset="1" stop-color="#F1CA81"/>
</linearGradient>
<linearGradient id="paint43_linear_11099_155889" x1="120.8" y1="94.1378" x2="120.828" y2="124.546" gradientUnits="userSpaceOnUse">
<stop stop-color="#FFDAAC"/>
<stop offset="1" stop-color="#F1CA81"/>
</linearGradient>
<linearGradient id="paint44_linear_11099_155889" x1="111.466" y1="89.7672" x2="111.612" y2="154.887" gradientUnits="userSpaceOnUse">
<stop stop-color="#FFDAAC"/>
<stop offset="1" stop-color="#F1CA81"/>
</linearGradient>
<linearGradient id="paint45_linear_11099_155889" x1="118.457" y1="105.464" x2="118.519" y2="147.658" gradientUnits="userSpaceOnUse">
<stop stop-color="#FFDAAC"/>
<stop offset="1" stop-color="#FFB01F"/>
</linearGradient>
<linearGradient id="paint46_linear_11099_155889" x1="128.195" y1="87.7346" x2="128.214" y2="113.467" gradientUnits="userSpaceOnUse">
<stop stop-color="#FFDAAC"/>
<stop offset="1" stop-color="#FFB01F"/>
</linearGradient>
<linearGradient id="paint47_linear_11099_155889" x1="81.444" y1="78.4364" x2="81.5169" y2="115.137" gradientUnits="userSpaceOnUse">
<stop stop-color="#FFDAAC"/>
<stop offset="1" stop-color="#FFF397"/>
</linearGradient>
<linearGradient id="paint48_linear_11099_155889" x1="81.357" y1="88.4331" x2="81.3985" y2="109.337" gradientUnits="userSpaceOnUse">
<stop stop-color="#FFDAAC"/>
<stop offset="1" stop-color="#FFB01F"/>
</linearGradient>
</defs>
</svg>
