<svg width="173" height="300" viewBox="0 0 173 300" fill="none" xmlns="http://www.w3.org/2000/svg">
<path d="M80.7134 113.874C81.0334 116.357 81.0334 118.883 80.4418 121.348C73.1702 117.028 66.3134 112.503 58.6873 108.892C51.7267 105.573 43.9265 102.31 38.092 97.222C32.3373 92.2206 27.4326 84.5683 29.2169 76.8574C37.6908 82.1186 47.3411 83.8524 56.5593 87.4426C68.324 91.6616 79.1607 101.407 80.7134 113.874Z" fill="#43F23D"/>
<path d="M80.6975 120.055C80.6295 120.484 80.547 120.917 80.4418 121.348C73.1702 117.028 66.3134 112.503 58.6873 108.892C51.7267 105.573 43.9265 102.311 38.092 97.2221C32.3373 92.2207 27.4326 84.5683 29.2169 76.8574C31.4057 80.3736 34.4766 83.1826 36.2646 85.0087C38.2294 87.014 40.3455 88.8898 42.5941 90.6102C55.0442 100.08 72.8007 106.329 80.6975 120.055Z" fill="#39CC33"/>
<path d="M29.2188 76.8574C38.8214 89.8581 55.2002 95.0751 67.7999 104.752C73.5945 109.105 77.6324 115.126 81.2446 121.169C84.5377 125.378 88.0035 133.942 87.8847 139.291C86.6956 136.985 84.5781 130.974 83.5032 128.628C82.0412 125.537 81.4528 122.059 79.2155 119.324C76.7117 115.806 73.4476 112.826 70.0371 110.129C64.5771 105.714 58.8215 101.752 52.861 97.9365C43.7683 92.4098 34.4911 86.1267 29.2188 76.8574Z" fill="#35A137"/>
<path d="M64.0543 204.143C63.6191 208.426 63.2474 212.843 61.5428 216.87C60.9172 218.199 60.6497 219.113 59.87 220.373C59.7793 220.256 59.6886 220.144 59.598 220.027H59.5934C59.53 219.944 59.4665 219.862 59.3985 219.78V219.775C57.6486 217.619 55.6222 215.402 54.0899 213.284C52.8432 211.5 51.5466 209.695 50.2048 207.876C49.8693 207.421 49.5338 206.967 49.1938 206.508C34.7141 186.97 16.0636 165.496 6.70669 142.788C4.00931 136.241 2.31831 129.486 1.33909 122.765C1.19402 121.782 1.09885 120.86 1.03539 119.938C1.01725 119.704 1.00361 119.474 0.994545 119.241C0.981398 118.978 0.971427 118.713 0.96372 118.445C0.887106 116.504 0.903916 114.557 1.03539 112.602C1.03539 112.589 1.03539 112.572 1.03992 112.555C1.05352 112.459 1.06257 112.364 1.08071 112.265C1.08071 112.247 1.08071 112.23 1.08525 112.213C34.2608 133.487 66.3709 165.886 64.0543 204.143Z" fill="#3FE339"/>
<path d="M59.3986 219.774C57.6487 217.618 55.6222 215.401 54.0899 213.283C52.8433 211.499 51.5467 209.694 50.2048 207.875C49.8739 207.42 49.5384 206.965 49.1939 206.506C34.7142 186.968 16.0637 165.495 6.70677 142.787C4.00939 136.24 2.31839 129.485 1.33917 122.764C1.1941 121.781 1.09893 120.859 1.03547 119.937C1.01733 119.703 1.00369 119.473 0.994626 119.239C0.894891 117.239 0.953854 115.139 1.08079 112.263C1.08079 112.263 2.33656 116.992 5.06114 122.465C8.11666 128.601 12.8314 135.785 16.0138 140.54C27.9476 158.353 40.6819 169.464 49.6762 188.113C53.6285 196.307 58.2571 210.667 59.4167 219.735C59.4122 219.748 59.4031 219.761 59.3986 219.774Z" fill="#2EC427"/>
<path d="M59.3968 219.778C59.4647 219.86 59.5281 219.942 59.5916 220.025C59.4738 219.951 59.3741 219.877 59.3968 219.778Z" fill="#2EC427"/>
<path d="M59.8755 220.371C59.7848 220.254 59.6942 220.141 59.6035 220.024C59.7713 220.124 59.9707 220.215 59.8755 220.371Z" fill="#2EC427"/>
<path d="M53.504 197.487C51.2232 191.622 52.5456 184.593 56.6755 179.749C55.6061 185.741 54.5657 191.493 53.504 197.487Z" fill="#238724"/>
<path d="M48.9141 185.97C44.4256 182.957 39.8645 180.797 34.6602 179.127C40.1574 177.861 46.9516 180.8 48.9141 185.97Z" fill="#238724"/>
<path d="M41.833 174.197C39.1565 169.385 40.2078 162.953 44.1519 159.037C43.2633 164.173 42.5081 169.03 41.833 174.197Z" fill="#238724"/>
<path d="M36.3778 167.401C34.5142 166.644 32.6124 166.802 30.649 166.54C27.3283 166.118 24.0538 165.428 21.0645 163.895C24.8988 163.462 34.2725 163.987 36.3778 167.401Z" fill="#238724"/>
<path d="M31.2304 160.351C28.2112 155.344 29.6872 148.366 34.2914 144.67C32.619 149.88 31.6194 154.914 31.2304 160.351Z" fill="#238724"/>
<path d="M23.489 151.517C18.2629 152.408 12.1627 149.989 9.62402 145.468C14.3138 147.629 18.7035 149.556 23.489 151.517Z" fill="#238724"/>
<path d="M19.0667 144.254C15.8362 140.502 15.7886 134.55 18.9905 130.769C19.0409 135.369 19.0531 139.654 19.0667 144.254Z" fill="#238724"/>
<path d="M9.47215 130.056C6.92029 128.615 7.07984 124.664 9.72372 123.395C10.2219 125.756 10.1345 127.733 9.47215 130.056Z" fill="#238724"/>
<path d="M172.46 138.071C172.013 137.849 171.578 137.645 171.147 137.455C171.147 137.452 171.147 137.452 171.143 137.452C165.181 134.827 158.689 135.017 152.768 136.868C144.653 139.869 138.184 145.176 131.19 150.363C123.311 156.314 115.608 162.043 107.287 167.78C103.421 170.312 99.6854 173.388 95.1166 174.929C90.2559 148.368 116.291 119.028 144.551 117.881C152.287 117.542 160.344 119.729 166.181 124.503C170.294 127.841 173.529 132.959 172.46 138.071Z" fill="#3FE339"/>
<path d="M172.456 138.072C166.494 135.448 158.688 135.023 152.767 136.873C144.652 139.874 138.183 145.181 131.189 150.368C123.31 156.319 115.607 162.048 107.286 167.786C103.419 170.327 99.6617 173.374 95.116 174.986C95.1083 174.958 95.1197 174.963 95.116 174.935C99.3783 164.958 106.235 155.832 112.529 147.29C115.93 142.676 119.651 138.145 124.546 134.707C137.876 125.054 160.509 126.726 172.456 138.072Z" fill="#2EC427"/>
<path d="M100.409 166.027C102.776 160.759 109.371 157.57 115.267 158.187C110.189 160.866 105.482 163.335 100.409 166.027Z" fill="#238724"/>
<path d="M106.986 152.604C111.226 146.043 121.832 143.957 128.707 147.817C120.999 147.435 113.709 148.982 106.986 152.604Z" fill="#238724"/>
<path d="M118.289 138.481C124.352 135.058 133.025 135.549 138.534 139.765C131.681 138.822 125.213 138.4 118.289 138.481Z" fill="#238724"/>
<path d="M134.256 129.158C140.057 127.748 146.947 129.557 150.879 133.912C145.212 132.638 139.723 131.053 134.256 129.158Z" fill="#238724"/>
<path d="M110.906 146.086C107.884 143.327 108.559 138.043 112.086 135.945C112.126 139.512 111.75 142.612 110.906 146.086Z" fill="#238724"/>
<path d="M125.314 131.77C123.786 128.179 127.257 124.019 131.155 123.883C129.42 126.858 127.662 129.201 125.314 131.77Z" fill="#238724"/>
<path d="M144.494 127.169C147.993 122.45 156.517 121.78 160.894 125.726C155.191 125.166 149.988 125.604 144.494 127.169Z" fill="#238724"/>
<path d="M103.64 159.761C99.8515 158.161 98.463 152.855 101.371 149.93C102.463 153.305 103.134 156.265 103.64 159.761Z" fill="#238724"/>
<path d="M78.7969 198.836C85.4945 188.962 92.2856 179.108 97.8163 168.611C103.257 157.926 108.023 146.66 116.851 137.98C130.675 123.234 159.127 122.414 172.469 138.072C160.378 126.746 139.418 126.016 125.7 134.99C119.101 139.539 114.546 146.142 110.239 152.638C106.04 159.122 101.045 166.032 96.9414 172.529C91.7203 182.302 87.3487 191.327 78.7969 198.836Z" fill="#119E11"/>
<path d="M70.4409 241.685C63.1032 235.144 59.9991 226.019 58.3186 216.872C55.8035 208.17 53.423 199.295 49.5614 191.076C36.7554 163.129 8.13553 142.704 1.0752 112.204C10.7568 140.504 37.9718 159.074 50.8725 185.752C56.3103 196.973 56.7949 209.438 60.9919 220.927C64.411 227.787 66.3219 235.084 70.4409 241.685Z" fill="#119E11"/>
<path d="M83.9088 297.409C85.8741 303.08 76.3126 305.89 74.0944 300.094C71.1368 291.624 69.2505 283.119 68.1987 274.59C59.559 204.9 106.289 133.547 76.5896 65.0454C74.3832 60.2627 71.8169 55.6146 68.8869 51.1458C68.1117 50.0122 68.551 48.5369 69.8634 47.88C70.4011 47.6102 71.0022 47.5206 71.5757 47.5929C72.3627 47.6864 73.094 48.0835 73.5332 48.723C76.7007 53.3642 79.4843 58.1989 81.8847 63.1752C108.022 119.091 82.1023 179.292 77.2624 236.351C75.6286 256.838 76.708 277.766 83.9088 297.409Z" fill="#119E11"/>
<path d="M84.1142 158.474C80.1126 187.658 76.1109 216.847 72.1133 246.031C70.8086 255.552 69.5035 265.069 68.1987 274.59C59.559 204.9 106.289 133.547 76.5896 65.0454C74.3832 60.2627 71.8169 55.6146 68.8869 51.1458C68.1117 50.0122 68.551 48.5369 69.8634 47.88C70.4011 47.6102 71.0022 47.5206 71.5757 47.5929C71.6551 47.8419 71.7416 48.0835 71.8368 48.3117C73.1692 51.4979 75.1385 54.3939 76.752 57.4766C83.8694 71.051 87.1988 85.9734 88.144 100.823C89.3653 120.073 86.74 139.332 84.1142 158.474Z" fill="#1BC21F"/>
<path d="M43.2215 20.517C40.3763 6.53167 53.1864 -3.10221 66.2413 4.97452C73.764 9.37013 78.5472 17.142 78.5971 25.0512C78.6465 32.94 72.6506 46.4672 61.1598 43.6898C51.0462 41.2453 44.5453 28.7137 43.2215 20.517Z" fill="#FFAE0D"/>
<path d="M76.1816 48.8589C79.2489 45.8256 84.6564 47.1442 87.7822 49.4548C92.4271 52.7423 94.9318 58.6496 101.085 59.6122C90.2411 63.9628 86.4058 47.375 76.1816 48.8589Z" fill="#238724"/>
<path d="M69.8728 51.625C58.8403 53.1254 62.9947 67.1653 55.2598 72.2247C56.7803 67.1237 55.7018 62.2232 57.9082 57.227C59.6146 52.9669 65.2056 49.3066 69.8728 51.625Z" fill="#238724"/>
<path d="M79.4089 48.2124C82.3946 45.2181 81.0355 33.7248 77.2469 31.6294C73.4747 30.4953 64.7202 35.0832 60.3595 36.0549C58.1268 36.7975 55.6148 37.7935 54.9575 39.8006C54.4334 41.401 55.3075 43.0764 56.2327 44.5318C58.3639 47.8833 61.1977 53.2286 66.1228 53.6698C70.464 54.0583 77.0646 51.3363 79.4089 48.2124Z" fill="#35A137"/>
<path d="M40.7137 12.7229C41.1239 8.86378 42.8072 4.62015 46.847 3.021C47.9812 11.8062 52.1583 20.2739 58.6891 27.0252C60.4852 28.882 62.4763 30.6396 63.7579 32.7978C65.0395 34.956 65.506 37.6693 64.136 39.7855C59.5142 46.9269 49.6313 36.4131 46.9852 33.0619C42.3344 27.1728 39.9539 19.8725 40.7137 12.7229Z" fill="#FFE70D"/>
<path d="M68.8465 5.90695C66.3458 2.70604 62.5187 -0.290899 58.0986 0.0226088C63.8067 10.9408 61.8881 21.9106 59.8354 33.2311C59.9134 35.6617 61.0114 38.2321 63.3842 39.5021C71.3897 43.7878 74.1964 30.4039 74.6506 26.3521C75.4485 19.2306 73.4787 11.8372 68.8465 5.90695Z" fill="#FFE70D"/>
<path d="M82.4867 35.2743C81.6779 44.2391 71.8563 51.5815 62.5732 49.3605C67.3506 45.9301 71.1867 40.6883 70.4065 34.7871C69.9128 30.2733 68.2531 25.7828 67.7413 21.23C66.5875 13.9834 69.8099 4.85225 78.038 3.021C73.2603 14.0878 84.2334 24.0009 82.4867 35.2743Z" fill="#238724"/>
<path d="M78.032 44.308C70.3043 52.612 55.0589 51.2818 47.3159 43.5342C39.4314 36.0494 41.1219 25.0904 35.1133 16.8513C47.7932 17.1241 51.2863 31.0142 58.6757 37.9703C63.8588 42.1372 71.1997 43.9706 78.032 44.308Z" fill="#238724"/>
<path d="M58.3063 17.8926C59.4637 13.1926 58.9813 -2.41654 50.5614 2.28045C47.359 5.28736 55.176 15.8163 58.3063 17.8926Z" fill="#FFE70D"/>
<path d="M75.6853 44.1873C68.1503 47.1423 59.171 42.3985 55.9976 35.5996C52.005 28.0304 56.4247 20.1096 54.4554 12.4143C64.4851 13.3955 66.1833 24.9326 67.8915 32.358C69.1536 36.8528 72.0096 40.9288 75.6853 44.1873Z" fill="#238724"/>
<path d="M64.2451 49.9169C54.2848 50.4188 44.8666 43.904 41.8922 34.9633C39.4909 28.7633 39.33 22.6551 35.3438 17.1765C47.6434 25.8924 47.5975 45.7413 64.2451 49.9169Z" fill="#35A137"/>
<path d="M58.2005 38.3295C50.987 31.4721 56.2312 21.4693 54.6853 13.2471C60.8326 20.5526 53.0601 30.6923 58.2005 38.3295Z" fill="#35A137"/>
<path d="M78.0321 3.021C68.1837 9.65923 73.1474 24.7977 70.4006 34.7871C69.9064 30.2728 68.2472 25.7833 67.7354 21.23C66.5821 13.9843 69.8044 4.85182 78.0321 3.021Z" fill="#35A137"/>
</svg>
