<svg width="144" height="169" viewBox="0 0 144 169" fill="none" xmlns="http://www.w3.org/2000/svg">
<path d="M143.115 52.4737C137.092 59.6957 130.86 66.4585 125.636 74.1564C120.835 81.1805 115.995 89.0962 109.238 94.6944C102.521 100.266 92.7647 104.591 83.7412 101.859C92.1938 92.1547 95.1353 80.1693 102.318 69.7721C105.559 64.9833 110.397 59.9302 115.803 56.8258C123.825 52.0981 133.906 49.8231 143.115 52.4737Z" fill="#43F23D"/>
<path d="M143.117 52.9546C137.186 60.0723 130.998 66.8382 125.86 74.4292C121.118 81.3873 116.336 89.2285 109.663 94.774C103.233 100.125 94.1017 104.242 85.3896 102.14C85.336 102.127 85.336 102.069 85.3768 102.034C87.6802 100.049 90.5413 97.9387 92.9233 96.3205C96.8935 93.6237 103.698 87.2338 106.65 83.3427C116.655 70.1554 124.544 57.1229 143.117 52.9546Z" fill="#39CC33"/>
<path d="M51.6249 144.23C51.5225 147.028 51.0586 149.82 49.9523 152.446C42.7137 146.451 35.9715 140.299 28.2116 135.028C21.1332 130.193 13.1169 125.278 7.60716 118.676C2.16945 112.182 -1.84255 102.901 1.5448 94.677C9.93838 101.914 20.2789 105.449 29.8016 110.963C42.0201 117.6 52.1994 130.189 51.6249 144.23Z" fill="#43F23D"/>
<path d="M50.0434 151.059C49.8906 151.523 49.7217 151.986 49.5277 152.446C42.351 146.451 35.6664 140.299 27.9729 135.028C20.9551 130.193 13.0072 125.278 7.54465 118.676C2.15344 112.182 -1.82425 102.901 1.53413 94.677C3.29099 98.9307 6.14218 102.551 7.76733 104.869C9.55384 107.415 11.5299 109.843 13.6788 112.122C25.5882 124.677 43.8947 134.562 50.0434 151.059Z" fill="#39CC33"/>
<path d="M67.6943 128.375C72.0463 106.822 82.6445 105.75 96.6332 91.8233C98.0684 90.4907 100.145 88.6296 101.504 87.2737C107.518 81.4553 111.685 73.8932 117.042 67.4694C123.601 60.1226 133.308 54.8313 143.115 52.9546C133.929 55.9044 124.91 61.5393 118.991 68.887C116.669 72.0443 114.601 75.3171 112.431 78.5895C108.697 84.1918 104.388 90.0579 98.4238 93.838C80.1192 104.851 76.9202 109.866 67.6943 128.375Z" fill="#35A137"/>
<path d="M0.297852 94.677C8.66082 110.613 26.093 119.103 38.4448 131.877C44.1438 137.644 47.5568 144.956 50.4865 152.22C53.4012 157.41 55.6953 167.43 54.5625 173.307C53.6571 170.566 52.4004 163.586 51.6307 160.82C50.5654 157.169 50.5536 153.237 48.5504 149.848C46.394 145.551 43.2827 141.72 39.9537 138.177C34.6422 132.398 28.9144 127.067 22.9286 121.865C13.7428 114.253 4.49094 105.776 0.297852 94.677Z" fill="#35A137"/>
<path d="M70.6537 86.9554C68.9034 110.162 66.769 134.228 63.298 157.229C60.7469 175.867 58.299 194.593 58.7917 213.426C58.9182 217.585 59.1836 221.73 59.5463 225.878C59.7189 227.838 58.3437 229.585 56.5328 229.466C55.2637 229.379 54.1871 228.317 53.9147 226.885C53.1214 222.601 52.5613 218.26 52.1887 213.9C49.2789 179.459 58.8249 145.811 64.0809 112.097C65.8943 99.629 65.483 86.9534 64.1078 74.4936C62.6725 58.0139 59.7483 41.7747 53.5809 26.294C53.3978 25.9262 53.9028 25.4284 54.2074 25.8152C67.7037 42.8332 72.0583 65.7523 70.6537 86.9554Z" fill="#119E11"/>
<path d="M70.6558 86.9299C69.5678 102.398 68.0796 119.684 66.485 135.106C64.4089 152.88 61.5671 170.656 60.1294 188.489C59.4801 196.785 59.1671 205.104 59.3562 213.423C59.4781 217.566 59.7243 221.696 60.0726 225.829C60.2579 227.796 58.9474 229.59 57.204 229.465C54.9543 162.981 82.6141 88.5448 54.8584 25.675C67.7421 42.2019 72.0462 66.1076 70.6558 86.9299Z" fill="#1BC21F"/>
<path d="M52.9455 34.8986C55.5456 37.2017 60.1576 38.3513 60.8721 33.707C61.2388 31.0094 61.8188 26.8588 60.1634 24.6864C58.0259 23.0181 55.3153 25.2692 52.9533 25.2567C47.7467 25.2802 50.6696 33.2895 52.9455 34.8986Z" fill="#35A137"/>
<path d="M64.0993 22.0242C61.8443 30.9101 50.9479 33.6382 45.1732 26.1379C42.9494 23.251 42.0658 19.5522 42.0215 15.9447C41.9858 13.0971 42.4364 10.2737 42.9872 7.47172C43.1322 6.72233 43.2862 5.97493 43.4398 5.22803C43.7786 3.58137 44.2091 1.78979 45.5765 0.768941C47.7872 -0.881694 50.9786 0.415096 53.285 1.93968C53.8473 2.31089 54.4001 2.69552 54.9423 3.09751C57.7124 5.12829 60.2085 7.53278 61.9777 10.4281C64.0947 13.8877 65.0916 18.1145 64.0993 22.0242Z" fill="#3FE339"/>
<path d="M54.8571 3.18635C53.9683 3.36503 52.9552 3.39621 52.1529 3.78319C50.7398 4.46678 50.2488 6.11374 50.0645 7.58814C49.6428 10.9755 50.0883 14.4542 51.3507 17.6517C50.0548 14.8632 48.3712 12.2288 46.352 9.84263C45.4778 8.81035 44.3761 7.65754 42.8672 7.56564C42.6158 7.54982 42.3261 7.60806 42.0195 7.68617C42.1752 6.91528 42.3406 6.14642 42.5055 5.37808C42.8693 3.68416 43.3316 1.84116 44.7999 0.791011C47.1738 -0.907 50.6008 0.42701 53.0774 1.99535C53.6813 2.37722 54.2754 2.77282 54.8571 3.18635Z" fill="#41C443"/>
<path d="M40.8462 12.0028C41.0299 12.0014 41.1979 12.1052 41.2674 12.2662C43.3359 17.0532 43.2096 22.4714 46.2694 26.8027C47.9323 29.4396 49.3633 15.8576 49.3633 15.8576C49.3633 15.8576 57.33 26.6548 58.4128 25.2871C62.344 19.967 62.4054 12.9515 59.9409 6.99926C59.8755 6.84074 59.9142 6.66189 60.0415 6.54252C60.1783 6.41493 60.3876 6.38111 60.5587 6.46376C70.2451 11.1198 69.9488 25.2533 60.4284 30.0597C57.8935 31.4593 51.1827 32.0948 51.1631 32.0938C40.8507 31.6043 36.0692 22.6092 40.419 12.272C40.4864 12.111 40.652 12.0048 40.8342 12.0028H40.8462Z" fill="#238724"/>
</svg>
