<svg width="95" height="151" viewBox="0 0 95 151" fill="none" xmlns="http://www.w3.org/2000/svg">
<path d="M94.6463 34.5678C90.7193 39.3251 86.6558 43.7799 83.2502 48.8506C80.1199 53.4775 76.9643 58.6917 72.5588 62.3794C68.1793 66.0497 61.8179 68.8984 55.9346 67.0987C61.4457 60.7064 63.3636 52.8114 68.0466 45.9625C70.1595 42.8081 73.3145 39.4795 76.8386 37.4346C82.0691 34.3203 88.6424 32.8218 94.6463 34.5678Z" fill="#43F23D"/>
<path d="M94.6356 34.5713C90.721 39.3044 86.6363 43.8036 83.2448 48.8515C80.1148 53.4784 76.9586 58.6927 72.5535 62.3803C68.3097 65.9386 62.2822 68.6767 56.5316 67.2788C56.4962 67.2701 56.4962 67.2312 56.5232 67.208C58.0435 65.8881 59.9321 64.4848 61.5043 63.4087C64.125 61.6154 68.6167 57.3662 70.5649 54.7788C77.1688 46.0095 82.3764 37.3431 94.6356 34.5713Z" fill="#39CC33"/>
<path d="M34.2703 95.4157C34.2023 97.2731 33.8941 99.1272 33.159 100.871C28.3493 96.8899 23.8694 92.8058 18.7134 89.306C14.0101 86.0956 8.68361 82.8323 5.02269 78.4483C1.4096 74.137 -1.25618 67.9745 0.994549 62.5142C6.57167 67.3191 13.4425 69.6662 19.7698 73.3274C27.8884 77.734 34.652 86.0927 34.2703 95.4157Z" fill="#43F23D"/>
<path d="M33.5046 99.9497C33.4022 100.258 33.289 100.565 33.159 100.871C28.3493 96.8899 23.8694 92.8058 18.7134 89.306C14.0101 86.0956 8.68362 82.8323 5.02269 78.4483C1.4096 74.137 -1.25618 67.9745 0.994549 62.5142C2.17196 65.3385 4.08278 67.7419 5.17193 69.2813C6.36922 70.9717 7.69351 72.5841 9.13369 74.0971C17.1152 82.433 29.3838 88.9965 33.5046 99.9497Z" fill="#39CC33"/>
<path d="M44.6035 84.526C47.4913 70.2493 54.5238 69.5394 63.8059 60.3148C64.7583 59.4321 66.1362 58.1994 67.038 57.3013C71.0284 53.4473 73.7936 48.4383 77.3484 44.1834C81.7002 39.317 88.1415 35.8121 94.6491 34.5691C88.5535 36.523 82.5694 40.2554 78.6413 45.1224C77.1008 47.2137 75.7286 49.3815 74.2888 51.5491C71.8106 55.2599 68.9518 59.1455 64.9941 61.6493C52.8481 68.9438 50.7254 72.266 44.6035 84.526Z" fill="#35A137"/>
<path d="M0.998047 62.5142C6.45928 73.1247 17.843 78.7772 25.909 87.2823C29.6306 91.1222 31.8594 95.9905 33.7725 100.828C35.6759 104.283 37.1741 110.954 36.4343 114.867C35.843 113.042 35.0224 108.395 34.5198 106.553C33.8241 104.122 33.8164 101.504 32.5082 99.2479C31.1001 96.3869 29.0683 93.8365 26.8944 91.4771C23.4258 87.6292 19.6854 84.0803 15.7765 80.6166C9.77795 75.5484 3.73625 69.904 0.998047 62.5142Z" fill="#35A137"/>
<path d="M47.5154 57.2491C46.3268 72.5799 44.8776 88.4787 42.5207 103.674C40.7884 115.986 39.1263 128.357 39.4608 140.799C39.5467 143.546 39.7269 146.285 39.9732 149.025C40.0904 150.32 39.1566 151.474 37.927 151.395C37.0652 151.338 36.3342 150.636 36.1492 149.691C35.6105 146.861 35.2302 143.992 34.9772 141.112C33.0014 118.36 39.4834 96.1307 43.0523 73.8583C44.2836 65.6216 44.0044 57.2478 43.0705 49.0165C42.0959 38.1295 40.1103 27.4015 35.9225 17.1745C35.7982 16.9315 36.1411 16.6027 36.348 16.8582C45.5122 28.1008 48.4691 43.2417 47.5154 57.2491Z" fill="#119E11"/>
<path d="M47.5176 57.248C46.742 67.4647 45.6812 78.8826 44.5446 89.0694C43.0646 100.809 41.0389 112.55 40.0141 124.329C39.5513 129.809 39.3282 135.304 39.463 140.798C39.5499 143.535 39.7254 146.263 39.9737 148.993C40.1057 150.292 39.1716 151.477 37.9288 151.395C36.3252 107.481 56.0417 58.3148 36.2568 16.7883C45.4406 27.7046 48.5087 43.4946 47.5176 57.248Z" fill="#1BC21F"/>
<path d="M35.4608 22.7935C37.252 24.2737 40.4291 25.0125 40.9213 22.0276C41.174 20.2938 41.5735 17.6263 40.4331 16.23C38.9606 15.1578 37.0933 16.6046 35.4662 16.5966C31.8793 16.6117 33.8929 21.7593 35.4608 22.7935Z" fill="#35A137"/>
<path d="M42.7021 14.2803C41.1932 20.0419 33.902 21.8107 30.038 16.9476C28.5499 15.0758 27.9587 12.6775 27.9291 10.3384C27.9051 8.49204 28.2067 6.66141 28.5752 4.8446C28.6723 4.35871 28.7753 3.8741 28.8781 3.38981C29.1048 2.32213 29.3928 1.16049 30.3078 0.498575C31.7871 -0.571683 33.9226 0.269145 35.4659 1.25767C35.8422 1.49837 36.2121 1.74775 36.5749 2.0084C38.4284 3.32515 40.0987 4.88419 41.2825 6.76149C42.6991 9.00466 43.3661 11.7453 42.7021 14.2803Z" fill="#3FE339"/>
<path d="M36.5788 2.00836C36.0249 2.12098 35.3936 2.14063 34.8937 2.38455C34.0131 2.81542 33.7072 3.8535 33.5923 4.78282C33.3295 6.91786 33.6071 9.11052 34.3937 11.1259C33.5862 9.36827 32.5371 7.70785 31.2789 6.20383C30.7341 5.55318 30.0476 4.82656 29.1073 4.76864C28.9507 4.75866 28.7701 4.79537 28.5791 4.8446C28.6761 4.35871 28.7792 3.8741 28.8819 3.38981C29.1087 2.32213 29.3967 1.16049 30.3117 0.498575C31.7909 -0.571683 33.9265 0.269145 35.4697 1.25767C35.846 1.49837 36.2163 1.74771 36.5788 2.00836Z" fill="#41C443"/>
<path d="M27.2552 7.75804C27.3781 7.75708 27.4907 7.82623 27.5372 7.93339C28.9221 11.1207 28.8376 14.7282 30.8862 17.6121C31.9996 19.3677 32.9576 10.3246 32.9576 10.3246C32.9576 10.3246 38.2916 17.5136 39.0165 16.6029C41.6486 13.0607 41.6897 8.3897 40.0397 4.42659C39.9959 4.32104 40.0218 4.20196 40.107 4.12248C40.1986 4.03753 40.3388 4.01501 40.4533 4.07004C46.9387 7.17012 46.7403 16.5804 40.3661 19.7806C38.6689 20.7125 34.1758 21.1356 34.1627 21.135C27.2582 20.809 24.0568 14.8199 26.9692 7.93724C27.0143 7.83008 27.1252 7.75933 27.2471 7.75804H27.2552Z" fill="#238724"/>
</svg>
