<svg width="40" height="39" viewBox="0 0 40 39" fill="none" xmlns="http://www.w3.org/2000/svg">
<path d="M20.0004 32.308L10.317 38.1413C9.88925 38.4135 9.44203 38.5302 8.97536 38.4913C8.50869 38.4524 8.10036 38.2969 7.75036 38.0246C7.40036 37.7524 7.12814 37.4121 6.93369 37.0038C6.73925 36.5955 6.70036 36.1385 6.81703 35.633L9.38369 24.608L0.808694 17.1996C0.419805 16.8496 0.176749 16.451 0.0795272 16.0038C-0.017695 15.5566 0.0114717 15.1191 0.167027 14.6913C0.322583 14.2635 0.555916 13.9135 0.867027 13.6413C1.17814 13.3691 1.60592 13.1941 2.15036 13.1163L13.467 12.1246L17.842 1.74131C18.0365 1.27464 18.3379 0.924642 18.7462 0.691309C19.1545 0.457975 19.5726 0.341309 20.0004 0.341309C20.4281 0.341309 20.8462 0.457975 21.2545 0.691309C21.6629 0.924642 21.9643 1.27464 22.1587 1.74131L26.5337 12.1246L37.8504 13.1163C38.3948 13.1941 38.8226 13.3691 39.1337 13.6413C39.4448 13.9135 39.6781 14.2635 39.8337 14.6913C39.9893 15.1191 40.0184 15.5566 39.9212 16.0038C39.824 16.451 39.5809 16.8496 39.192 17.1996L30.617 24.608L33.1837 35.633C33.3004 36.1385 33.2615 36.5955 33.067 37.0038C32.8726 37.4121 32.6004 37.7524 32.2504 38.0246C31.9004 38.2969 31.492 38.4524 31.0254 38.4913C30.5587 38.5302 30.1115 38.4135 29.6837 38.1413L20.0004 32.308Z" fill="#30303D" fill-opacity="0.26"/>
</svg>
