<svg width="82" height="78" viewBox="0 0 82 78" fill="none" xmlns="http://www.w3.org/2000/svg">
<g opacity="0.5">
<g filter="url(#filter0_f_11294_28047)">
<path d="M55.2319 43.4832C54.8855 45.3076 54.268 47.052 53.4129 48.6604C52.6656 50.07 51.7371 51.3757 50.6519 52.539C48.326 54.8029 45.3689 56.4474 41.9894 57.1506C32.4127 59.1433 23.0675 52.8254 21.117 43.0398C19.917 37.0179 21.7975 31.0858 25.6537 26.9497C26.3376 26.2838 27.0761 25.6715 27.8638 25.121C27.8962 25.0962 27.9304 25.0736 27.9642 25.0498C27.5352 27.3108 27.5236 29.6942 28.0015 32.0912C29.9515 41.877 39.2969 48.1947 48.8736 46.2022C51.2212 45.7138 53.3621 44.7709 55.2319 43.4832Z" fill="url(#paint0_linear_11294_28047)"/>
<path d="M55.2319 43.4832C54.8855 45.3076 54.268 47.052 53.4129 48.6604C52.6656 50.07 51.7371 51.3757 50.6519 52.539C48.326 54.8029 45.3689 56.4474 41.9894 57.1506C32.4127 59.1433 23.0675 52.8254 21.117 43.0398C19.917 37.0179 21.7975 31.0858 25.6537 26.9497C26.3376 26.2838 27.0761 25.6715 27.8638 25.121C27.8962 25.0962 27.9304 25.0736 27.9642 25.0498C27.5352 27.3108 27.5236 29.6942 28.0015 32.0912C29.9515 41.877 39.2969 48.1947 48.8736 46.2022C51.2212 45.7138 53.3621 44.7709 55.2319 43.4832Z" fill="url(#paint1_linear_11294_28047)"/>
</g>
<g opacity="0.05" filter="url(#filter1_f_11294_28047)">
<path d="M61.0129 42.9135C60.5838 45.164 59.8189 47.3159 58.7598 49.3C56.4161 50.9313 53.721 52.1238 50.7635 52.7367C48.1621 53.2759 45.5745 53.322 43.0943 52.9378C43.1182 52.8209 43.1306 52.7005 43.1306 52.577C43.1306 51.5493 42.2703 50.7161 41.2089 50.7161C40.3492 50.7161 39.6214 51.2628 39.3761 52.0165C32.2288 49.5532 26.5241 43.397 24.9102 35.3304C23.8414 29.989 24.7446 24.7064 27.1137 20.2626C27.1538 20.232 27.1962 20.2042 27.238 20.1748C26.7067 22.9639 26.6923 25.904 27.2842 28.8609C29.6996 40.9325 41.2751 48.7257 53.1373 46.2678C56.045 45.6651 58.6968 44.502 61.0129 42.9135Z" fill="url(#paint2_linear_11294_28047)"/>
</g>
<path d="M57.1147 43.4078C56.7682 45.2322 56.1508 46.9766 55.2957 48.585C54.5484 49.9946 53.6199 51.3003 52.5347 52.4635C50.1266 55.0464 46.9468 56.9281 43.2666 57.6939C33.6898 59.6867 24.3447 53.3688 22.3944 43.5832C21.1331 37.2542 23.2747 31.0247 27.5365 26.8745C28.2203 26.2086 28.9589 25.5963 29.7466 25.0458C29.7789 25.021 29.8132 24.9984 29.8469 24.9746C29.418 27.2356 29.4064 29.619 29.8843 32.016C31.8342 41.8018 41.1797 48.1195 50.7564 46.127C53.1039 45.6384 55.2448 44.6955 57.1147 43.4078Z" fill="#F09C23"/>
<path d="M57.1147 43.4078C56.7682 45.2322 56.1508 46.9766 55.2957 48.585C54.5484 49.9946 53.6199 51.3003 52.5347 52.4635C50.1266 55.0464 46.9468 56.9281 43.2666 57.6939C33.6898 59.6867 24.3447 53.3688 22.3944 43.5832C21.1331 37.2542 23.2747 31.0247 27.5365 26.8745C28.2203 26.2086 28.9589 25.5963 29.7466 25.0458C29.7789 25.021 29.8132 24.9984 29.8469 24.9746C29.418 27.2356 29.4064 29.619 29.8843 32.016C31.8342 41.8018 41.1797 48.1195 50.7564 46.127C53.1039 45.6384 55.2448 44.6955 57.1147 43.4078Z" fill="url(#paint3_linear_11294_28047)"/>
<path d="M57.1145 43.408C56.768 45.2324 56.1505 46.9768 55.2955 48.5852C54.5482 49.9949 53.6197 51.3005 52.5345 52.4638C50.2086 54.7277 47.2514 56.3722 43.872 57.0754C34.2952 59.0681 24.9501 52.7502 22.9996 42.9646C21.7996 36.9427 23.6801 31.0106 27.5363 26.8745C28.2201 26.2086 28.9587 25.5963 29.7464 25.0458C29.7787 25.021 29.813 24.9984 29.8467 24.9746C29.4178 27.2356 29.4061 29.619 29.8841 32.016C31.834 41.8018 41.1794 48.1195 50.7562 46.127C53.1037 45.6386 55.2446 44.6957 57.1145 43.408Z" fill="url(#paint4_linear_11294_28047)"/>
<path d="M57.1145 43.408C56.768 45.2324 56.1505 46.9768 55.2955 48.5852C54.5482 49.9949 53.6197 51.3005 52.5345 52.4638C50.2086 54.7277 47.2514 56.3722 43.872 57.0754C34.2952 59.0681 24.9501 52.7502 22.9996 42.9646C21.7996 36.9427 23.6801 31.0106 27.5363 26.8745C28.2201 26.2086 28.9587 25.5963 29.7464 25.0458C29.7787 25.021 29.813 24.9984 29.8467 24.9746C29.4178 27.2356 29.4061 29.619 29.8841 32.016C31.834 41.8018 41.1794 48.1195 50.7562 46.127C53.1037 45.6386 55.2446 44.6957 57.1145 43.408Z" fill="url(#paint5_linear_11294_28047)"/>
<path d="M57.117 43.4078C56.7706 45.2322 56.1531 46.9766 55.2981 48.585C53.4059 49.9074 51.23 50.8741 48.8423 51.371C46.7421 51.808 44.653 51.8455 42.6507 51.534C42.67 51.4392 42.6799 51.3416 42.6799 51.2415C42.6799 50.4084 41.9854 49.7329 41.1285 49.7329C40.4344 49.7329 39.8469 50.1761 39.6488 50.7871C33.8786 48.7903 29.2729 43.7997 27.9699 37.2605C27.107 32.9305 27.8363 28.6481 29.7489 25.0458C29.7813 25.021 29.8155 24.9984 29.8493 24.9746C29.4203 27.2356 29.4087 29.619 29.8866 32.016C31.8366 41.8018 41.182 48.1195 50.7587 46.127C53.1063 45.6384 55.2472 44.6955 57.117 43.4078Z" fill="url(#paint6_linear_11294_28047)"/>
<path d="M57.117 43.4078C56.7706 45.2322 56.1531 46.9766 55.2981 48.585C53.4059 49.9074 51.23 50.8741 48.8423 51.371C46.7421 51.808 44.653 51.8455 42.6507 51.534C42.67 51.4392 42.6799 51.3416 42.6799 51.2415C42.6799 50.4084 41.9854 49.7329 41.1285 49.7329C40.4344 49.7329 39.8469 50.1761 39.6488 50.7871C33.8786 48.7903 29.2729 43.7997 27.9699 37.2605C27.107 32.9305 27.8363 28.6481 29.7489 25.0458C29.7813 25.021 29.8155 24.9984 29.8493 24.9746C29.4203 27.2356 29.4087 29.619 29.8866 32.016C31.8366 41.8018 41.182 48.1195 50.7587 46.127C53.1063 45.6384 55.2472 44.6955 57.117 43.4078Z" fill="url(#paint7_linear_11294_28047)"/>
<path d="M27.6052 40.6648C27.8728 40.6648 28.0898 40.4539 28.0898 40.1938C28.0898 39.9336 27.8728 39.7227 27.6052 39.7227C27.3376 39.7227 27.1206 39.9336 27.1206 40.1938C27.1206 40.4539 27.3376 40.6648 27.6052 40.6648Z" fill="#F09C23"/>
<path d="M50.1418 53.8104C50.4094 53.8104 50.6264 53.5994 50.6264 53.3393C50.6264 53.0791 50.4094 52.8682 50.1418 52.8682C49.8742 52.8682 49.6572 53.0791 49.6572 53.3393C49.6572 53.5994 49.8742 53.8104 50.1418 53.8104Z" fill="#F09C23"/>
<path d="M55.2807 45.7821C55.4584 45.7821 55.6024 45.642 55.6024 45.4692C55.6024 45.2964 55.4584 45.1562 55.2807 45.1562C55.103 45.1562 54.959 45.2964 54.959 45.4692C54.959 45.642 55.103 45.7821 55.2807 45.7821Z" fill="#F09C23"/>
<path d="M29.8571 52.2659C30.1563 52.2659 30.399 52.0299 30.399 51.7389C30.399 51.4478 30.1563 51.2119 29.8571 51.2119C29.5578 51.2119 29.3152 51.4478 29.3152 51.7389C29.3152 52.0299 29.5578 52.2659 29.8571 52.2659Z" fill="#F09C23"/>
<path d="M42.6757 51.2461C42.6757 51.3462 42.6657 51.4441 42.6464 51.5386C41.6197 51.379 40.6156 51.1278 39.6448 50.7915C39.8428 50.1805 40.4304 49.7373 41.1244 49.7373C41.9811 49.7375 42.6757 50.413 42.6757 51.2461Z" fill="#F8CD12"/>
<path d="M42.6511 51.5359C42.511 52.2291 41.8831 52.7519 41.1291 52.7519C40.2722 52.7519 39.5776 52.0765 39.5776 51.2434C39.5776 51.0852 39.6028 50.9324 39.6494 50.7891C40.6203 51.1251 41.6244 51.3763 42.6511 51.5359Z" fill="#E5BA05"/>
<path d="M29.313 36.1998C29.6751 36.1998 29.9685 35.9144 29.9685 35.5623C29.9685 35.2102 29.6751 34.9248 29.313 34.9248C28.951 34.9248 28.6575 35.2102 28.6575 35.5623C28.6575 35.9144 28.951 36.1998 29.313 36.1998Z" fill="#F09C23"/>
<path d="M40.6893 23.9842C40.2328 23.2493 40.1722 23.2313 39.4001 23.5989C40.1194 23.1324 40.137 23.0705 39.7773 22.2816C40.2338 23.0165 40.2944 23.0345 41.0665 22.6669C40.3472 23.1334 40.3296 23.1954 40.6893 23.9842ZM58.2251 30.7798C57.8313 30.1459 57.779 30.1303 57.1132 30.4476C57.7336 30.0453 57.7488 29.9919 57.4383 29.3116C57.832 29.9455 57.8843 29.961 58.5501 29.6437C57.93 30.046 57.9145 30.0995 58.2251 30.7798ZM51.0917 21.0068C50.7614 20.475 50.7174 20.4619 50.1589 20.7281C50.6794 20.3907 50.6922 20.3457 50.4316 19.775C50.7619 20.3068 50.8058 20.32 51.3644 20.0537C50.8441 20.3912 50.8313 20.4359 51.0917 21.0068ZM42.31 37.5209C42.1065 37.1934 42.0796 37.1853 41.7353 37.3491C42.0558 37.1411 42.0637 37.1137 41.9034 36.7619C42.1069 37.0894 42.1338 37.0974 42.4781 36.9336C42.1574 37.1416 42.1495 37.1693 42.31 37.5209ZM53.224 44.7933C53.0205 44.4658 52.9936 44.4578 52.6493 44.6215C52.9698 44.4136 52.9777 44.3861 52.8174 44.0343C53.0209 44.3618 53.0478 44.3698 53.3921 44.2061C53.0713 44.414 53.0635 44.4417 53.224 44.7933ZM32.3055 32.7278C32.102 32.4003 32.0751 32.3923 31.7308 32.556C32.0513 32.3481 32.0592 32.3206 31.8989 31.9688C32.1024 32.2963 32.1293 32.3043 32.4736 32.1406C32.1528 32.3485 32.145 32.3762 32.3055 32.7278ZM50.3408 42.2984C50.1372 41.9709 50.1104 41.9629 49.7661 42.1266C50.0866 41.9186 50.0944 41.8912 49.9342 41.5394C50.1377 41.8669 50.1646 41.8749 50.5089 41.7111C50.1881 41.9191 50.1803 41.9466 50.3408 42.2984ZM58.6017 40.1008C58.3982 39.7733 58.3713 39.7653 58.027 39.9291C58.3475 39.7211 58.3554 39.6936 58.1951 39.3418C58.3986 39.6693 58.4255 39.6774 58.7698 39.5136C58.449 39.7218 58.4412 39.7493 58.6017 40.1008ZM23.5942 25.7916C23.3907 25.4641 23.3638 25.4561 23.0195 25.6198C23.34 25.4119 23.3479 25.3844 23.1876 25.0326C23.3912 25.3601 23.418 25.3681 23.7623 25.2044C23.4418 25.4124 23.4337 25.4398 23.5942 25.7916ZM37.0262 17.1477C36.8227 16.8202 36.7958 16.8121 36.4515 16.9759C36.772 16.7679 36.7799 16.7405 36.6196 16.3887C36.8232 16.7162 36.85 16.7242 37.1943 16.5604C36.8738 16.7684 36.866 16.7961 37.0262 17.1477ZM51.5679 30.1952C51.3644 29.8677 51.3375 29.8597 50.9932 30.0234C51.3137 29.8155 51.3216 29.788 51.1613 29.4362C51.3648 29.7637 51.3917 29.7717 51.736 29.608C51.4153 29.816 51.4074 29.8437 51.5679 30.1952Z" fill="white"/>
</g>
<defs>
<filter id="filter0_f_11294_28047" x="0.757812" y="5.0498" width="74.4741" height="72.4678" filterUnits="userSpaceOnUse" color-interpolation-filters="sRGB">
<feFlood flood-opacity="0" result="BackgroundImageFix"/>
<feBlend mode="normal" in="SourceGraphic" in2="BackgroundImageFix" result="shape"/>
<feGaussianBlur stdDeviation="10" result="effect1_foregroundBlur_11294_28047"/>
</filter>
<filter id="filter1_f_11294_28047" x="4.46509" y="0.174805" width="76.5479" height="73.0146" filterUnits="userSpaceOnUse" color-interpolation-filters="sRGB">
<feFlood flood-opacity="0" result="BackgroundImageFix"/>
<feBlend mode="normal" in="SourceGraphic" in2="BackgroundImageFix" result="shape"/>
<feGaussianBlur stdDeviation="10" result="effect1_foregroundBlur_11294_28047"/>
</filter>
<linearGradient id="paint0_linear_11294_28047" x1="20.7579" y1="41.2837" x2="55.2319" y2="41.2837" gradientUnits="userSpaceOnUse">
<stop stop-color="#F09C23"/>
<stop offset="0.054" stop-color="#F2A81F"/>
<stop offset="0.161" stop-color="#F5B919"/>
<stop offset="0.294" stop-color="#F7C415"/>
<stop offset="0.481" stop-color="#F8CB13"/>
<stop offset="1" stop-color="#F8CD12"/>
</linearGradient>
<linearGradient id="paint1_linear_11294_28047" x1="37.9949" y1="25.0498" x2="37.9949" y2="57.5177" gradientUnits="userSpaceOnUse">
<stop stop-color="#F3F5D2"/>
<stop offset="1" stop-color="#DACB59"/>
</linearGradient>
<linearGradient id="paint2_linear_11294_28047" x1="24.4652" y1="36.6819" x2="61.0129" y2="36.6819" gradientUnits="userSpaceOnUse">
<stop stop-color="#FFB044"/>
<stop offset="0.085" stop-color="#FCC533"/>
<stop offset="0.189" stop-color="#FAD625"/>
<stop offset="0.318" stop-color="#F9E11B"/>
<stop offset="0.498" stop-color="#F8E816"/>
<stop offset="1" stop-color="#F8EA14"/>
</linearGradient>
<linearGradient id="paint3_linear_11294_28047" x1="39.5749" y1="24.9746" x2="39.5749" y2="58.0611" gradientUnits="userSpaceOnUse">
<stop stop-color="#F5EBD2"/>
<stop offset="1" stop-color="#FFB964"/>
</linearGradient>
<linearGradient id="paint4_linear_11294_28047" x1="22.6405" y1="41.2085" x2="57.1144" y2="41.2085" gradientUnits="userSpaceOnUse">
<stop stop-color="#F09C23"/>
<stop offset="0.054" stop-color="#F2A81F"/>
<stop offset="0.161" stop-color="#F5B919"/>
<stop offset="0.294" stop-color="#F7C415"/>
<stop offset="0.481" stop-color="#F8CB13"/>
<stop offset="1" stop-color="#F8CD12"/>
</linearGradient>
<linearGradient id="paint5_linear_11294_28047" x1="39.8774" y1="24.9746" x2="39.8774" y2="57.4425" gradientUnits="userSpaceOnUse">
<stop stop-color="#F3F5D2"/>
<stop offset="1" stop-color="#DACB59"/>
</linearGradient>
<linearGradient id="paint6_linear_11294_28047" x1="27.6107" y1="38.3561" x2="57.117" y2="38.3561" gradientUnits="userSpaceOnUse">
<stop stop-color="#FFB044"/>
<stop offset="0.085" stop-color="#FCC533"/>
<stop offset="0.189" stop-color="#FAD625"/>
<stop offset="0.318" stop-color="#F9E11B"/>
<stop offset="0.498" stop-color="#F8E816"/>
<stop offset="1" stop-color="#F8EA14"/>
</linearGradient>
<linearGradient id="paint7_linear_11294_28047" x1="42.3638" y1="24.9746" x2="42.3638" y2="51.7382" gradientUnits="userSpaceOnUse">
<stop stop-color="#F3F5D2"/>
<stop offset="1" stop-color="#DED491"/>
</linearGradient>
</defs>
</svg>
