<svg width="6" height="5" viewBox="0 0 6 5" fill="none" xmlns="http://www.w3.org/2000/svg">
<path opacity="0.5" d="M1.51742 0.150546C1.70113 0.0367746 3.10054 0.991627 3.25208 0.886137C3.40363 0.780648 4.79797 -0.0724197 4.90613 0.0049536C5.01428 0.0823269 4.54906 1.77604 4.54906 1.88327C4.54906 1.9905 5.81741 2.80216 5.72137 2.93838C5.62533 3.0746 4.20213 3.07918 4.05058 3.2154C3.88626 3.36317 3.47985 5 3.31685 5C3.15384 5 2.71176 3.31653 2.51902 3.24853C2.33024 3.18184 0.842942 3.4351 0.732805 3.28362C0.622667 3.13214 2.00709 2.11169 1.95819 1.9759C1.90907 1.84034 1.4086 0.218111 1.51742 0.150546Z" fill="#FFA13B"/>
</svg>
