<svg width="29" height="28" viewBox="0 0 29 28" fill="none" xmlns="http://www.w3.org/2000/svg">
<path d="M8.54297 19.3934C8.75844 19.374 9.01485 19.412 9.29492 19.4882C9.58064 19.5659 9.90121 19.6863 10.2441 19.8368C10.9298 20.1377 11.7167 20.5655 12.5137 21.038C14.1084 21.9835 15.7589 23.1162 16.7461 23.788H16.7451C17.796 24.4564 18.7255 24.9802 19.4814 25.3368C20.2434 25.6961 20.8078 25.8737 21.1396 25.8749C24.5348 25.7483 24.5321 20.7114 21.1396 20.5868C20.9798 20.5874 20.7591 20.6302 20.4785 20.7206C20.198 20.811 19.8658 20.9459 19.4883 21.1239C18.733 21.4801 17.803 22.0045 16.751 22.6727L16.75 22.6737C16.6508 22.7349 16.5363 22.7639 16.4219 22.7587L16.3086 22.7421C16.1585 22.7044 16.0301 22.6076 15.9502 22.4745C15.8704 22.3413 15.845 22.1809 15.8789 22.0292L15.9141 21.9198C15.96 21.8143 16.0356 21.7237 16.1328 21.66L16.1348 21.6581C17.3091 20.9125 18.3156 20.348 19.1475 19.9696C19.9748 19.5932 20.6456 19.3936 21.1426 19.3934H21.1494L21.377 19.4081C26.0819 19.8137 26.0067 26.8815 21.1484 27.0692L21.1475 27.0682C20.9275 27.0858 20.668 27.0477 20.3848 26.9706C20.0961 26.892 19.7732 26.7712 19.4287 26.62C18.7398 26.3175 17.9516 25.8877 17.1514 25.412C15.5508 24.4605 13.8868 23.3157 12.8467 22.6122V22.6112C11.4387 21.7235 10.4574 21.2167 9.7793 20.9315C9.09858 20.6453 8.73115 20.5868 8.54883 20.5868C7.95507 20.5869 7.38219 20.7995 6.92578 21.1844L6.7373 21.3593C6.25584 21.8549 5.98438 22.5286 5.98438 23.2313C5.98442 23.934 6.25591 24.6068 6.7373 25.1024L6.92578 25.2782C7.38216 25.663 7.95514 25.8758 8.54883 25.8759C8.88267 25.8759 9.44919 25.6975 10.2119 25.3378C10.9669 24.9817 11.8932 24.4579 12.9395 23.7899L13.043 23.7382C13.1508 23.6966 13.2696 23.6881 13.3838 23.7157L13.4932 23.7538C13.5977 23.8028 13.6864 23.8826 13.7471 23.9833L13.7969 24.0887C13.8233 24.1615 13.8355 24.2388 13.833 24.3163L13.8184 24.4315C13.7922 24.5463 13.7328 24.6501 13.6494 24.7303L13.5586 24.8026C12.7547 25.3156 11.8089 25.8799 10.916 26.3163C10.0308 26.7489 9.17139 27.0692 8.54883 27.0692H8.54297C3.67881 26.878 3.61614 19.8103 8.31641 19.4081L8.54297 19.3934ZM14.8457 10.3934C15.8417 10.3934 16.8281 10.5949 17.748 10.9872L18.0889 11.1425C18.8747 11.5252 19.5913 12.0448 20.207 12.6786L20.4639 12.9559C21.0473 13.6187 21.5166 14.3802 21.8496 15.2079L21.9834 15.5663C22.2757 16.4077 22.4258 17.2959 22.4258 18.1913L22.4189 18.2802C22.4103 18.3386 22.3933 18.3956 22.3682 18.4491L22.3242 18.5272C22.258 18.6265 22.1633 18.7031 22.0527 18.7469L22.0479 18.7489C21.1735 19.0618 20.254 19.2192 19.3281 19.2167L19.3291 19.2177C17.6864 19.247 16.0935 18.6565 14.8457 17.5634C13.3021 18.9253 11.5629 19.2468 10.1826 19.2147C9.12653 19.1902 8.27706 18.96 7.87891 18.8309L7.63965 18.7469C7.55671 18.7141 7.48254 18.6631 7.42285 18.5975L7.36816 18.5272C7.30195 18.428 7.26671 18.3108 7.2666 18.1913L7.27539 17.8075C7.31809 16.915 7.50981 16.0354 7.84277 15.2079L7.99414 14.8573C8.36548 14.0494 8.86978 13.3123 9.48535 12.6786L9.75488 12.4139C10.3988 11.8133 11.1394 11.3304 11.9443 10.9872L12.292 10.8485C13.1105 10.5471 13.9744 10.3935 14.8457 10.3934ZM14.8457 11.5858C13.3028 11.5879 11.8157 12.1629 10.6533 13.1991L10.4248 13.412C9.25996 14.5555 8.55609 16.1075 8.44922 17.7596C9.48371 18.0522 12.2789 18.5586 14.4307 16.3309L14.5186 16.2557C14.5503 16.2338 14.5845 16.2153 14.6201 16.2001L14.7305 16.1649C14.7683 16.1571 14.8069 16.1532 14.8457 16.1532C14.9232 16.1532 15 16.1696 15.0713 16.2001L15.1729 16.2557C15.2048 16.2778 15.2346 16.3029 15.2617 16.3309L15.4736 16.5399C17.5919 18.5256 20.2412 18.043 21.2422 17.7596C21.1353 16.1075 20.4324 14.5555 19.2676 13.412C18.0751 12.2414 16.4917 11.5878 14.8457 11.5858ZM13.5664 1.96277C14.2344 1.73597 14.9501 1.68986 15.6436 1.83191L15.9375 1.90417C16.6155 2.09763 17.2352 2.46838 17.7344 2.9823L17.9395 3.20984C18.398 3.75751 18.7121 4.41905 18.8496 5.13074L18.8975 5.43738C18.9708 6.0515 18.911 6.67484 18.7227 7.26257L18.6172 7.55359C18.3473 8.22414 17.9142 8.81047 17.3604 9.25574L17.1152 9.43738C16.5279 9.84133 15.8501 10.0811 15.1484 10.1346L14.8457 10.1464C13.8301 10.145 12.8545 9.75478 12.1064 9.0575L11.96 8.91394C11.1953 8.12669 10.7658 7.05958 10.7646 5.94812L10.7754 5.63855C10.8273 4.91835 11.0592 4.22191 11.4512 3.61804L11.6279 3.36609C12.0602 2.79642 12.6302 2.34953 13.2832 2.07117L13.5664 1.96277ZM14.8457 2.94421C14.1711 2.94513 13.5203 3.18744 13.002 3.62488L12.7881 3.8241C12.2416 4.38684 11.9336 5.15058 11.9326 5.94812L11.9404 6.17078C11.9776 6.68748 12.1442 7.18662 12.4248 7.61902C12.7455 8.11308 13.2005 8.4976 13.7324 8.72449C14.2644 8.95135 14.8496 9.01092 15.4141 8.89539L15.623 8.84363C16.1063 8.70587 16.5483 8.44155 16.9053 8.0741L17.0527 7.91199C17.3808 7.52021 17.6054 7.04569 17.7041 6.53503L17.7383 6.31531C17.7909 5.87454 17.7485 5.42729 17.6133 5.00574L17.5381 4.79773C17.3446 4.31696 17.0344 3.89702 16.6387 3.57898L16.4639 3.4491C15.9847 3.11958 15.4211 2.94413 14.8457 2.94421Z" fill="#77747C" stroke="#77747C" stroke-width="0.3"/>
</svg>
