<svg width="36" height="34" viewBox="0 0 36 34" fill="none" xmlns="http://www.w3.org/2000/svg">
<g clip-path="url(#clip0_12019_21050)">
<path d="M21.7908 6.82083C21.7908 8.76126 20.2178 10.3343 18.2774 10.3343C16.3369 10.3343 14.7639 8.76126 14.7639 6.82083C14.7639 4.8804 16.3369 3.30737 18.2774 3.30737C20.2178 3.30737 21.7908 4.8804 21.7908 6.82083Z" fill="url(#paint0_linear_12019_21050)" fill-opacity="0.5"/>
<path d="M21.7908 6.82083C21.7908 8.76126 20.2178 10.3343 18.2774 10.3343C16.3369 10.3343 14.7639 8.76126 14.7639 6.82083C14.7639 4.8804 16.3369 3.30737 18.2774 3.30737C20.2178 3.30737 21.7908 4.8804 21.7908 6.82083Z" fill="url(#paint1_linear_12019_21050)" fill-opacity="0.2"/>
<path d="M26.1788 20.6371C26.1788 21.6587 25.8462 22.1583 25.3043 22.3012C24.5647 22.4963 23.4353 22.0272 22.23 21.3141C20.9633 20.5648 19.9218 18.6791 18.2736 18.6791C16.6253 18.6791 15.9969 20.5648 14.7639 21.3141C13.5053 22.079 12.1218 22.4861 11.2504 22.112C10.7143 21.8818 10.3721 21.3559 10.3721 20.4358C10.3721 16.5549 13.9076 13.6102 18.2736 13.6102C22.6395 13.6102 26.1788 16.7563 26.1788 20.6371Z" fill="url(#paint2_linear_12019_21050)" fill-opacity="0.5"/>
<path d="M26.1788 20.6371C26.1788 21.6587 25.8462 22.1583 25.3043 22.3012C24.5647 22.4963 23.4353 22.0272 22.23 21.3141C20.9633 20.5648 19.9218 18.6791 18.2736 18.6791C16.6253 18.6791 15.9969 20.5648 14.7639 21.3141C13.5053 22.079 12.1218 22.4861 11.2504 22.112C10.7143 21.8818 10.3721 21.3559 10.3721 20.4358C10.3721 16.5549 13.9076 13.6102 18.2736 13.6102C22.6395 13.6102 26.1788 16.7563 26.1788 20.6371Z" fill="url(#paint3_linear_12019_21050)" fill-opacity="0.2"/>
<path d="M11.2513 30.537C13.8489 31.2147 17.3998 27.4627 17.3998 27.4627C17.3998 27.4627 13.4802 23.4182 10.8121 24.3885C9.21645 24.9687 7.74587 25.7649 7.73782 27.4627C7.72918 29.2859 9.48713 30.0768 11.2513 30.537Z" fill="url(#paint4_linear_12019_21050)" fill-opacity="0.5"/>
<path d="M11.2513 30.537C13.8489 31.2147 17.3998 27.4627 17.3998 27.4627C17.3998 27.4627 13.4802 23.4182 10.8121 24.3885C9.21645 24.9687 7.74587 25.7649 7.73782 27.4627C7.72918 29.2859 9.48713 30.0768 11.2513 30.537Z" fill="url(#paint5_linear_12019_21050)" fill-opacity="0.2"/>
<path d="M26.1828 24.4705C23.5852 23.7929 20.0343 27.5448 20.0343 27.5448C20.0343 27.5448 23.9539 31.5893 26.622 30.6191C28.2176 30.0388 29.6882 29.2426 29.6963 27.5448C29.7049 25.7216 27.947 24.9307 26.1828 24.4705Z" fill="url(#paint6_linear_12019_21050)" fill-opacity="0.5"/>
<path d="M26.1828 24.4705C23.5852 23.7929 20.0343 27.5448 20.0343 27.5448C20.0343 27.5448 23.9539 31.5893 26.622 30.6191C28.2176 30.0388 29.6882 29.2426 29.6963 27.5448C29.7049 25.7216 27.947 24.9307 26.1828 24.4705Z" fill="url(#paint7_linear_12019_21050)" fill-opacity="0.2"/>
<circle cx="30.6228" cy="5.26908" r="0.653846" fill="#FF887F"/>
<circle cx="33.8927" cy="32.0772" r="1.30769" fill="#A6A5EB"/>
<path d="M5.95528 3.46204C6.1048 3.00185 6.75585 3.00185 6.90537 3.46204C6.97224 3.66785 7.16403 3.80719 7.38042 3.80719C7.86429 3.80719 8.06547 4.42637 7.67401 4.71078C7.49895 4.83797 7.42569 5.06343 7.49256 5.26923C7.64209 5.72942 7.11538 6.11209 6.72392 5.82768C6.54885 5.70049 6.3118 5.70049 6.13673 5.82768C5.74527 6.11209 5.21856 5.72942 5.36809 5.26923C5.43496 5.06343 5.3617 4.83797 5.18664 4.71078C4.79518 4.42637 4.99636 3.80719 5.48023 3.80719C5.69663 3.80719 5.88841 3.66785 5.95528 3.46204Z" fill="#FF887F"/>
<path d="M25.4838 22.1521C24.3547 22.1521 22.3355 23.0564 19.4826 24.8398C19.3653 24.9154 19.2821 25.0347 19.2509 25.172C19.2198 25.3092 19.2432 25.4534 19.3162 25.5733C19.3892 25.6932 19.5058 25.7791 19.6408 25.8125C19.7759 25.8459 19.9184 25.824 20.0377 25.7517C22.6077 24.1445 24.5926 23.223 25.4838 23.223C29.849 23.3784 29.8606 29.7659 25.4838 29.9239C24.5868 29.9239 22.5977 29.0003 20.0266 27.3899C17.6199 25.7774 12.0088 21.9732 10.147 22.1521C4.37738 22.3718 4.36575 30.7719 10.147 30.9953C11.5706 30.9953 14.1966 29.5328 16.1493 28.306C16.2685 28.2311 16.3534 28.1113 16.3854 27.973C16.4174 27.8346 16.3939 27.6891 16.32 27.5683C16.2461 27.4475 16.1279 27.3615 15.9914 27.329C15.8549 27.2965 15.7113 27.3204 15.5921 27.3953C13.0353 29.0024 11.0499 29.9239 10.147 29.9239C9.27027 29.9239 8.42941 29.5709 7.80944 28.9426C7.18947 28.3142 6.84118 27.462 6.84118 26.5735C6.84118 25.6849 7.18947 24.8327 7.80944 24.2043C8.42941 23.576 9.27027 23.223 10.147 23.223C10.6608 23.223 12.0373 23.5429 15.4827 25.682C18.02 27.3717 23.5687 31.1593 25.4838 30.9948C31.2588 30.7752 31.2598 22.375 25.4838 22.1521ZM9.10676 21.0303C9.3145 21.1107 14.0851 22.9086 17.8154 19.541C19.3182 20.8891 21.265 21.6174 23.2716 21.5821C24.3787 21.5853 25.4784 21.3987 26.5241 21.0303C26.6238 20.9914 26.7095 20.9229 26.77 20.8336C26.8305 20.7444 26.8629 20.6387 26.8629 20.5305C26.8629 19.3263 26.6289 18.1339 26.1742 17.0214C25.7196 15.9089 25.0531 14.8981 24.213 14.0466C23.3729 13.1952 22.3755 12.5198 21.2778 12.0589C20.1801 11.5981 19.0036 11.361 17.8154 11.361C16.6273 11.361 15.4508 11.5981 14.3531 12.0589C13.2554 12.5198 12.258 13.1952 11.4179 14.0466C10.5777 14.8981 9.9113 15.9089 9.45662 17.0214C9.00194 18.1339 8.76792 19.3263 8.76792 20.5305C8.76796 20.6387 8.80035 20.7444 8.86084 20.8336C8.92132 20.9229 9.00706 20.9914 9.10676 21.0303ZM17.8154 12.4319C19.8684 12.4344 21.8419 13.2365 23.3275 14.6725C24.8132 16.1084 25.6975 18.0682 25.7973 20.1463C24.6555 20.4887 20.9886 21.2794 18.1902 18.4256C18.1411 18.3755 18.0827 18.3358 18.0184 18.3087C17.9541 18.2816 17.8851 18.2677 17.8154 18.2677C17.7458 18.2677 17.6768 18.2816 17.6125 18.3087C17.5482 18.3358 17.4898 18.3755 17.4407 18.4256C14.6407 21.2794 10.9759 20.4881 9.83358 20.1463C9.93341 18.0682 10.8176 16.1084 12.3033 14.6725C13.789 13.2365 15.7625 12.4344 17.8154 12.4319ZM17.8154 10.7052C18.7624 10.7052 19.6881 10.4206 20.4755 9.88745C21.2629 9.35427 21.8766 8.59642 22.239 7.70975C22.6014 6.82309 22.6962 5.84741 22.5115 4.90611C22.3268 3.96481 21.8709 3.10016 21.2013 2.42149C20.5317 1.74282 19.6786 1.28061 18.7499 1.09331C17.8211 0.906009 16.8584 1.00203 15.9835 1.36923C15.1086 1.73643 14.3607 2.35832 13.8346 3.15626C13.3084 3.9542 13.0275 4.89235 13.0274 5.85208C13.0288 7.13869 13.5337 8.3722 14.4313 9.28202C15.3289 10.1918 16.5459 10.7037 17.8154 10.7052ZM17.8154 2.07092C18.5535 2.07081 19.275 2.29253 19.8887 2.70803C20.5024 3.12352 20.9807 3.71414 21.2632 4.40518C21.5457 5.09621 21.6196 5.85663 21.4757 6.59026C21.3317 7.32388 20.9763 7.99777 20.4544 8.52668C19.9326 9.05559 19.2677 9.41577 18.5438 9.56167C17.8199 9.70757 17.0696 9.63264 16.3878 9.34634C15.7059 9.06005 15.1232 8.57526 14.7132 7.95328C14.3032 7.3313 14.0845 6.60007 14.0846 5.85208C14.0857 4.8496 14.4791 3.88851 15.1786 3.17965C15.878 2.47079 16.8263 2.07205 17.8154 2.07092Z" fill="#30303D" fill-opacity="0.86"/>
<path d="M10.1416 22.002C10.3982 21.979 10.7061 22.0243 11.0459 22.1152C11.3916 22.2078 11.7806 22.3502 12.1973 22.5303C13.0307 22.8904 13.9876 23.4033 14.958 23.9697C16.8971 25.1016 18.9037 26.4568 20.1064 27.2627L21.0391 27.832C21.9424 28.3682 22.7538 28.8034 23.4463 29.125C24.2609 29.5033 24.8947 29.7163 25.3164 29.7637L25.4834 29.7734C29.6582 29.6178 29.6527 23.5235 25.4805 23.373C25.0709 23.3742 24.3797 23.5903 23.4531 24.0205C22.5317 24.4483 21.3989 25.0774 20.1172 25.8789L20.1152 25.8799C19.962 25.9728 19.7783 26.001 19.6045 25.958C19.4743 25.9258 19.358 25.8554 19.2686 25.7578L19.1885 25.6514C19.0952 25.4981 19.0647 25.3138 19.1045 25.1387C19.1442 24.9635 19.2508 24.8109 19.4014 24.7139L19.4033 24.7129L20.4365 24.083C21.4314 23.4947 22.31 23.0301 23.0684 22.6904C24.0751 22.2396 24.886 22.0021 25.4834 22.002H25.4893L25.7646 22.0195C31.4533 22.5018 31.3648 30.914 25.4961 31.1436L25.4971 31.1445C24.977 31.1892 24.2392 30.9677 23.4102 30.6094C22.573 30.2475 21.6146 29.7331 20.6406 29.1631C18.6943 28.024 16.6706 26.6535 15.4033 25.8096L14.7832 25.4307C13.3913 24.5943 12.3835 24.0894 11.6582 23.7891C10.8279 23.4453 10.3763 23.3731 10.1475 23.373C9.36334 23.373 8.60833 23.6688 8.0293 24.2002L7.91602 24.3096C7.32402 24.9096 6.99127 25.7239 6.99121 26.5732C6.99121 27.4226 7.32411 28.2369 7.91602 28.8369C8.50801 29.4369 9.31113 29.7734 10.1475 29.7734C10.5626 29.7733 11.2581 29.5571 12.1865 29.126C13.1077 28.6982 14.2378 28.07 15.5127 27.2686L15.6328 27.208C15.7575 27.1609 15.8947 27.1513 16.0264 27.1826C16.2021 27.2244 16.3538 27.3358 16.4482 27.4902L16.5068 27.6113C16.5376 27.695 16.5517 27.7839 16.5488 27.873L16.5312 28.0068C16.5006 28.1393 16.432 28.2586 16.335 28.3506L16.2295 28.4326C15.251 29.0474 14.1004 29.7236 13.0146 30.2461C11.9366 30.7648 10.8968 31.1454 10.1475 31.1455H10.1416C4.25934 30.9182 4.18229 22.4981 9.86621 22.0186L10.1416 22.002ZM17.8154 11.2109C19.0235 11.2109 20.2199 11.4524 21.3359 11.9209C22.4518 12.3894 23.4654 13.076 24.3193 13.9414L24.6318 14.2734C25.3398 15.0653 25.9092 15.9757 26.3135 16.9648C26.7754 18.0953 27.0127 19.3069 27.0127 20.5303L27.0049 20.6328C26.9947 20.7006 26.9748 20.7664 26.9453 20.8281L26.8945 20.918C26.8171 21.0322 26.7064 21.1199 26.5781 21.1699L26.5742 21.1719C25.5131 21.5458 24.3969 21.7344 23.2734 21.7314L23.2744 21.7324C21.2729 21.7677 19.3314 21.0554 17.8145 19.7373C15.937 21.3797 13.818 21.767 12.1367 21.7285C10.8552 21.6992 9.82454 21.4245 9.3418 21.2705L9.05273 21.1699C8.95652 21.1324 8.87039 21.0734 8.80078 20.998L8.73633 20.918C8.65896 20.8038 8.61821 20.6684 8.61816 20.5303L8.62891 20.0723C8.68074 19.0053 8.91315 17.954 9.31738 16.9648L9.50098 16.5459C9.95184 15.58 10.5642 14.6988 11.3115 13.9414C12.1654 13.076 13.179 12.3894 14.2949 11.9209C15.411 11.4524 16.6073 11.2109 17.8154 11.2109ZM17.4395 12.5918C15.6871 12.6791 14.0133 13.359 12.6865 14.5234L12.4072 14.7803C10.9775 16.1621 10.1165 18.039 9.99121 20.0352C11.2345 20.3857 14.6831 21.0221 17.334 18.3203L17.4365 18.2344C17.4735 18.2093 17.5134 18.1883 17.5547 18.1709L17.6826 18.1309C17.7262 18.1221 17.7707 18.1172 17.8154 18.1172C17.905 18.1172 17.9935 18.1361 18.0762 18.1709L18.1943 18.2344C18.2312 18.2594 18.2655 18.2883 18.2969 18.3203L18.5566 18.5723C21.1668 20.981 24.4353 20.3748 25.6387 20.0352C25.5134 18.039 24.6533 16.1621 23.2236 14.7803C21.7657 13.3712 19.8292 12.5845 17.8154 12.582L17.4395 12.5918ZM16.2676 1.10156C17.0754 0.83144 17.9408 0.777236 18.7793 0.946289L19.1348 1.03223C19.9546 1.2625 20.7035 1.7041 21.3076 2.31641L21.5566 2.58691C22.1117 3.23956 22.4926 4.02819 22.6592 4.87695C22.8257 5.72576 22.7713 6.60198 22.5049 7.41992L22.3779 7.7666C22.0511 8.56624 21.5257 9.26447 20.8555 9.79492L20.5596 10.0117C19.849 10.4929 19.0291 10.7781 18.1807 10.8418L17.8154 10.8555C16.5056 10.8539 15.2498 10.3258 14.3242 9.3877C13.3988 8.44971 12.8785 7.17812 12.877 5.85254L12.8906 5.48242C12.9535 4.6236 13.2344 3.79296 13.709 3.07324L13.9229 2.77344C14.4462 2.09446 15.1361 1.56191 15.9258 1.23047L16.2676 1.10156ZM17.6387 2.22559C16.8132 2.26787 16.0272 2.5984 15.4141 3.16113L15.2852 3.28516C14.6137 3.96576 14.2355 4.88922 14.2344 5.85254L14.2441 6.12109C14.2898 6.74511 14.4944 7.34851 14.8389 7.87109C15.2326 8.46822 15.7922 8.93339 16.4463 9.20801C17.1002 9.48249 17.8196 9.55482 18.5137 9.41504L18.7715 9.35254C19.3657 9.18571 19.9092 8.86527 20.3477 8.4209L20.5283 8.22461C20.9311 7.75097 21.2071 7.17819 21.3281 6.56152L21.3701 6.2959C21.4347 5.7635 21.3826 5.22318 21.2168 4.71387L21.124 4.46191C20.8866 3.88111 20.5057 3.37399 20.0195 2.98926L19.8047 2.83203C19.2157 2.43328 18.5233 2.2206 17.8154 2.2207L17.6387 2.22559Z" stroke="#30303D" stroke-opacity="0.86" stroke-width="0.3"/>
</g>
<defs>
<linearGradient id="paint0_linear_12019_21050" x1="17.5888" y1="10.3343" x2="18.7895" y2="3.54404" gradientUnits="userSpaceOnUse">
<stop stop-color="#6E40F9"/>
<stop offset="0.457887" stop-color="#A569FB"/>
<stop offset="1" stop-color="#CE89FF"/>
</linearGradient>
<linearGradient id="paint1_linear_12019_21050" x1="17.5858" y1="21.8525" x2="14.407" y2="21.23" gradientUnits="userSpaceOnUse">
<stop stop-color="white" stop-opacity="0"/>
<stop offset="1" stop-color="#8E00FF"/>
</linearGradient>
<linearGradient id="paint2_linear_12019_21050" x1="16.7265" y1="22.3456" x2="17.5692" y2="13.7228" gradientUnits="userSpaceOnUse">
<stop stop-color="#6E40F9"/>
<stop offset="0.457887" stop-color="#A569FB"/>
<stop offset="1" stop-color="#CE89FF"/>
</linearGradient>
<linearGradient id="paint3_linear_12019_21050" x1="16.7199" y1="36.6643" x2="10.1232" y2="34.3269" gradientUnits="userSpaceOnUse">
<stop stop-color="white" stop-opacity="0"/>
<stop offset="1" stop-color="#8E00FF"/>
</linearGradient>
<linearGradient id="paint4_linear_12019_21050" x1="11.622" y1="30.6189" x2="12.3546" y2="24.3458" gradientUnits="userSpaceOnUse">
<stop stop-color="#6E40F9"/>
<stop offset="0.457887" stop-color="#A569FB"/>
<stop offset="1" stop-color="#CE89FF"/>
</linearGradient>
<linearGradient id="paint5_linear_12019_21050" x1="11.6179" y1="41.0778" x2="7.44623" y2="39.8408" gradientUnits="userSpaceOnUse">
<stop stop-color="white" stop-opacity="0"/>
<stop offset="1" stop-color="#8E00FF"/>
</linearGradient>
<linearGradient id="paint6_linear_12019_21050" x1="25.8121" y1="24.3886" x2="25.0795" y2="30.6617" gradientUnits="userSpaceOnUse">
<stop stop-color="#6E40F9"/>
<stop offset="0.457887" stop-color="#A569FB"/>
<stop offset="1" stop-color="#CE89FF"/>
</linearGradient>
<linearGradient id="paint7_linear_12019_21050" x1="25.8161" y1="13.9297" x2="29.9879" y2="15.1667" gradientUnits="userSpaceOnUse">
<stop stop-color="white" stop-opacity="0"/>
<stop offset="1" stop-color="#8E00FF"/>
</linearGradient>
<clipPath id="clip0_12019_21050">
<rect width="35" height="34" fill="white" transform="translate(0.199951)"/>
</clipPath>
</defs>
</svg>
