<svg width="26" height="30" viewBox="0 0 26 30" fill="none" xmlns="http://www.w3.org/2000/svg">
<path d="M11.9999 2H13.9999V5.045H11.9999V2ZM4.29294 9.7075L2.29594 7.7075C2.20065 7.61556 2.12463 7.50556 2.07232 7.38392C2.02001 7.26228 1.99245 7.13143 1.99125 6.99902C1.99006 6.86662 2.01525 6.7353 2.06536 6.61273C2.11547 6.49017 2.18949 6.37881 2.2831 6.28516C2.37671 6.19152 2.48804 6.11746 2.61059 6.0673C2.73314 6.01715 2.86445 5.99191 2.99686 5.99306C3.12927 5.99421 3.26012 6.02172 3.38178 6.07399C3.50344 6.12626 3.61347 6.20224 3.70544 6.2975L5.70544 8.2975L4.29294 9.7075ZM21.9569 9.457L23.7039 7.707C23.7992 7.61506 23.8753 7.50506 23.9276 7.38342C23.9799 7.26178 24.0074 7.13093 24.0086 6.99852C24.0098 6.86612 23.9846 6.7348 23.9345 6.61223C23.8844 6.48967 23.8104 6.37831 23.7168 6.28466C23.6232 6.19102 23.5118 6.11696 23.3893 6.0668C23.2667 6.01665 23.1354 5.99141 23.003 5.99256C22.8706 5.99371 22.7398 6.02122 22.6181 6.07349C22.4964 6.12576 22.3864 6.20174 22.2944 6.297L20.5444 8.044L21.9569 9.457Z" fill="#9D9FE6"/>
<path d="M14 0.5H12C11.4477 0.5 11 0.947715 11 1.5C11 2.05228 11.4477 2.5 12 2.5H14C14.5523 2.5 15 2.05228 15 1.5C15 0.947715 14.5523 0.5 14 0.5Z" fill="#CFD2DA"/>
<path d="M13 29.5C19.9036 29.5 25.5 23.9036 25.5 17C25.5 10.0964 19.9036 4.5 13 4.5C6.09644 4.5 0.5 10.0964 0.5 17C0.5 23.9036 6.09644 29.5 13 29.5Z" fill="#9D9FE6"/>
<path d="M13 27.5C18.799 27.5 23.5 22.799 23.5 17C23.5 11.201 18.799 6.5 13 6.5C7.20101 6.5 2.5 11.201 2.5 17C2.5 22.799 7.20101 27.5 13 27.5Z" fill="white"/>
<path d="M13 18.5C13.8284 18.5 14.5 17.8284 14.5 17C14.5 16.1716 13.8284 15.5 13 15.5C12.1716 15.5 11.5 16.1716 11.5 17C11.5 17.8284 12.1716 18.5 13 18.5Z" fill="#CFD2DA"/>
<path d="M0.500008 16.5C0.3674 16.5 0.240223 16.5527 0.146454 16.6464C0.0526863 16.7402 7.772e-06 16.8674 7.772e-06 17C-0.00226135 19.0754 0.492374 21.1211 1.44255 22.9661C2.39273 24.8112 3.77084 26.402 5.46164 27.6054C7.15245 28.8088 9.1068 29.59 11.1613 29.8835C13.2158 30.1771 15.3107 29.9745 17.2708 29.2926C19.231 28.6108 20.9994 27.4697 22.4283 25.9645C23.8571 24.4593 24.9049 22.634 25.4838 20.641C26.0628 18.6481 26.1563 16.5455 25.7563 14.509C25.3564 12.4726 24.4747 10.5615 23.185 8.9355L24.0555 8.0605C24.196 7.9221 24.3076 7.75712 24.3838 7.57519C24.46 7.39325 24.4992 7.19799 24.4992 7.00075C24.4992 6.80352 24.46 6.60825 24.3838 6.42632C24.3076 6.24438 24.196 6.07941 24.0555 5.941C23.7713 5.66751 23.3922 5.51474 22.9978 5.51474C22.6033 5.51474 22.2242 5.66751 21.94 5.941L21.0645 6.815C19.1738 5.31127 16.8998 4.36696 14.5 4.089V2.908C14.8334 2.79059 15.1144 2.559 15.2933 2.25424C15.4723 1.94948 15.5376 1.59122 15.4777 1.24291C15.4178 0.894611 15.2366 0.578742 14.9661 0.351252C14.6957 0.123762 14.3534 -0.000666973 14 2.68898e-06H12C11.6466 -0.000666973 11.3043 0.123762 11.0339 0.351252C10.7634 0.578742 10.5822 0.894611 10.5223 1.24291C10.4624 1.59122 10.5277 1.94948 10.7067 2.25424C10.8856 2.559 11.1667 2.79059 11.5 2.908V4.095C9.09772 4.36508 6.81921 5.30306 4.92301 6.8025L4.05901 5.941C3.77466 5.66815 3.39584 5.5158 3.00176 5.5158C2.60768 5.5158 2.22885 5.66815 1.94451 5.941C1.8041 6.07932 1.69259 6.24417 1.61648 6.42598C1.54037 6.60778 1.50118 6.80291 1.50118 7C1.50118 7.1971 1.54037 7.39222 1.61648 7.57403C1.69259 7.75583 1.8041 7.92069 1.94451 8.059L2.80001 8.9215C1.42218 10.6629 0.514531 12.7288 0.164008 14.9215C0.142923 15.0525 0.174722 15.1864 0.252409 15.2939C0.330096 15.4014 0.447307 15.4737 0.578258 15.4948C0.709208 15.5158 0.843172 15.484 0.950677 15.4064C1.05818 15.3287 1.13042 15.2115 1.15151 15.0805C1.64265 12.0179 3.29965 9.26414 5.77553 7.39581C8.2514 5.52749 11.3541 4.68953 14.4339 5.05742C17.5137 5.42531 20.3318 6.97051 22.2979 9.36945C24.2641 11.7684 25.2258 14.835 24.9818 17.9271C24.7377 21.0192 23.3068 23.8969 20.9887 25.9577C18.6705 28.0185 15.645 29.1025 12.5456 28.9827C9.44619 28.8629 6.51335 27.5485 4.36123 25.3149C2.2091 23.0813 1.00462 20.1017 1.00001 17C1.00001 16.8674 0.947329 16.7402 0.853561 16.6464C0.759793 16.5527 0.632616 16.5 0.500008 16.5ZM22.65 6.65C22.7437 6.55703 22.8703 6.50485 23.0023 6.50485C23.1342 6.50485 23.2609 6.55703 23.3545 6.65C23.4012 6.69565 23.4382 6.75021 23.4634 6.81044C23.4886 6.87067 23.5014 6.93535 23.5012 7.00064C23.5009 7.06593 23.4875 7.13049 23.4618 7.19051C23.4361 7.25052 23.3986 7.30476 23.3515 7.35L22.5345 8.1705C22.3082 7.9265 22.0728 7.69134 21.8285 7.465L22.65 6.65ZM14.5 1.5C14.5 1.63261 14.4473 1.75979 14.3536 1.85356C14.2598 1.94732 14.1326 2 14 2H13.5V1H14C14.1326 1 14.2598 1.05268 14.3536 1.14645C14.4473 1.24022 14.5 1.36739 14.5 1.5ZM12 1H12.5V2H12C11.8674 2 11.7402 1.94732 11.6465 1.85356C11.5527 1.75979 11.5 1.63261 11.5 1.5C11.5 1.36739 11.5527 1.24022 11.6465 1.14645C11.7402 1.05268 11.8674 1 12 1ZM2.65001 7.35C2.6032 7.30452 2.56599 7.25011 2.54058 7.18999C2.51517 7.12987 2.50207 7.06527 2.50207 7C2.50207 6.93474 2.51517 6.87013 2.54058 6.81001C2.56599 6.74989 2.6032 6.69549 2.65001 6.65C2.74363 6.55733 2.87003 6.50535 3.00176 6.50535C3.13349 6.50535 3.25989 6.55733 3.35351 6.65L4.16201 7.4555C3.91751 7.682 3.68201 7.9165 3.45551 8.1615L2.65001 7.35ZM12.5 4.0225V3H13.5V4.0125C13.334 4.0065 13.1675 4 13 4C12.8325 4 12.667 4.016 12.5 4.0225Z" fill="url(#paint0_linear_11099_79850)"/>
<path d="M0.500008 16.5C0.3674 16.5 0.240223 16.5527 0.146454 16.6464C0.0526863 16.7402 7.772e-06 16.8674 7.772e-06 17C-0.00226135 19.0754 0.492374 21.1211 1.44255 22.9661C2.39273 24.8112 3.77084 26.402 5.46164 27.6054C7.15245 28.8088 9.1068 29.59 11.1613 29.8835C13.2158 30.1771 15.3107 29.9745 17.2708 29.2926C19.231 28.6108 20.9994 27.4697 22.4283 25.9645C23.8571 24.4593 24.9049 22.634 25.4838 20.641C26.0628 18.6481 26.1563 16.5455 25.7563 14.509C25.3564 12.4726 24.4747 10.5615 23.185 8.9355L24.0555 8.0605C24.196 7.9221 24.3076 7.75712 24.3838 7.57519C24.46 7.39325 24.4992 7.19799 24.4992 7.00075C24.4992 6.80352 24.46 6.60825 24.3838 6.42632C24.3076 6.24438 24.196 6.07941 24.0555 5.941C23.7713 5.66751 23.3922 5.51474 22.9978 5.51474C22.6033 5.51474 22.2242 5.66751 21.94 5.941L21.0645 6.815C19.1738 5.31127 16.8998 4.36696 14.5 4.089V2.908C14.8334 2.79059 15.1144 2.559 15.2933 2.25424C15.4723 1.94948 15.5376 1.59122 15.4777 1.24291C15.4178 0.894611 15.2366 0.578742 14.9661 0.351252C14.6957 0.123762 14.3534 -0.000666973 14 2.68898e-06H12C11.6466 -0.000666973 11.3043 0.123762 11.0339 0.351252C10.7634 0.578742 10.5822 0.894611 10.5223 1.24291C10.4624 1.59122 10.5277 1.94948 10.7067 2.25424C10.8856 2.559 11.1667 2.79059 11.5 2.908V4.095C9.09772 4.36508 6.81921 5.30306 4.92301 6.8025L4.05901 5.941C3.77466 5.66815 3.39584 5.5158 3.00176 5.5158C2.60768 5.5158 2.22885 5.66815 1.94451 5.941C1.8041 6.07932 1.69259 6.24417 1.61648 6.42598C1.54037 6.60778 1.50118 6.80291 1.50118 7C1.50118 7.1971 1.54037 7.39222 1.61648 7.57403C1.69259 7.75583 1.8041 7.92069 1.94451 8.059L2.80001 8.9215C1.42218 10.6629 0.514531 12.7288 0.164008 14.9215C0.142923 15.0525 0.174722 15.1864 0.252409 15.2939C0.330096 15.4014 0.447307 15.4737 0.578258 15.4948C0.709208 15.5158 0.843172 15.484 0.950677 15.4064C1.05818 15.3287 1.13042 15.2115 1.15151 15.0805C1.64265 12.0179 3.29965 9.26414 5.77553 7.39581C8.2514 5.52749 11.3541 4.68953 14.4339 5.05742C17.5137 5.42531 20.3318 6.97051 22.2979 9.36945C24.2641 11.7684 25.2258 14.835 24.9818 17.9271C24.7377 21.0192 23.3068 23.8969 20.9887 25.9577C18.6705 28.0185 15.645 29.1025 12.5456 28.9827C9.44619 28.8629 6.51335 27.5485 4.36123 25.3149C2.2091 23.0813 1.00462 20.1017 1.00001 17C1.00001 16.8674 0.947329 16.7402 0.853561 16.6464C0.759793 16.5527 0.632616 16.5 0.500008 16.5ZM22.65 6.65C22.7437 6.55703 22.8703 6.50485 23.0023 6.50485C23.1342 6.50485 23.2609 6.55703 23.3545 6.65C23.4012 6.69565 23.4382 6.75021 23.4634 6.81044C23.4886 6.87067 23.5014 6.93535 23.5012 7.00064C23.5009 7.06593 23.4875 7.13049 23.4618 7.19051C23.4361 7.25052 23.3986 7.30476 23.3515 7.35L22.5345 8.1705C22.3082 7.9265 22.0728 7.69134 21.8285 7.465L22.65 6.65ZM14.5 1.5C14.5 1.63261 14.4473 1.75979 14.3536 1.85356C14.2598 1.94732 14.1326 2 14 2H13.5V1H14C14.1326 1 14.2598 1.05268 14.3536 1.14645C14.4473 1.24022 14.5 1.36739 14.5 1.5ZM12 1H12.5V2H12C11.8674 2 11.7402 1.94732 11.6465 1.85356C11.5527 1.75979 11.5 1.63261 11.5 1.5C11.5 1.36739 11.5527 1.24022 11.6465 1.14645C11.7402 1.05268 11.8674 1 12 1ZM2.65001 7.35C2.6032 7.30452 2.56599 7.25011 2.54058 7.18999C2.51517 7.12987 2.50207 7.06527 2.50207 7C2.50207 6.93474 2.51517 6.87013 2.54058 6.81001C2.56599 6.74989 2.6032 6.69549 2.65001 6.65C2.74363 6.55733 2.87003 6.50535 3.00176 6.50535C3.13349 6.50535 3.25989 6.55733 3.35351 6.65L4.16201 7.4555C3.91751 7.682 3.68201 7.9165 3.45551 8.1615L2.65001 7.35ZM12.5 4.0225V3H13.5V4.0125C13.334 4.0065 13.1675 4 13 4C12.8325 4 12.667 4.016 12.5 4.0225Z" fill="url(#paint1_linear_11099_79850)" fill-opacity="0.2"/>
<path d="M13 28C15.1756 28 17.3023 27.3549 19.1113 26.1462C20.9202 24.9375 22.3301 23.2195 23.1627 21.2095C23.9952 19.1995 24.2131 16.9878 23.7886 14.854C23.3642 12.7202 22.3166 10.7602 20.7782 9.22183C19.2398 7.68345 17.2798 6.6358 15.146 6.21137C13.0122 5.78693 10.8005 6.00477 8.79048 6.83733C6.7805 7.66989 5.06253 9.07979 3.85383 10.8887C2.64514 12.6977 2 14.8244 2 17C2.00331 19.9164 3.1633 22.7123 5.22548 24.7745C7.28766 26.8367 10.0836 27.9967 13 28ZM13 7.00001C14.9778 7.00001 16.9112 7.58649 18.5557 8.68531C20.2002 9.78412 21.4819 11.3459 22.2388 13.1732C22.9957 15.0004 23.1937 17.0111 22.8079 18.9509C22.422 20.8907 21.4696 22.6726 20.0711 24.0711C18.6725 25.4696 16.8907 26.422 14.9509 26.8079C13.0111 27.1937 11.0004 26.9957 9.17317 26.2388C7.3459 25.4819 5.78412 24.2002 4.6853 22.5557C3.58649 20.9112 3 18.9778 3 17C3.00304 14.3488 4.05759 11.807 5.93229 9.9323C7.807 8.05759 10.3488 7.00305 13 7.00001Z" fill="url(#paint2_linear_11099_79850)"/>
<path d="M13 28C15.1756 28 17.3023 27.3549 19.1113 26.1462C20.9202 24.9375 22.3301 23.2195 23.1627 21.2095C23.9952 19.1995 24.2131 16.9878 23.7886 14.854C23.3642 12.7202 22.3166 10.7602 20.7782 9.22183C19.2398 7.68345 17.2798 6.6358 15.146 6.21137C13.0122 5.78693 10.8005 6.00477 8.79048 6.83733C6.7805 7.66989 5.06253 9.07979 3.85383 10.8887C2.64514 12.6977 2 14.8244 2 17C2.00331 19.9164 3.1633 22.7123 5.22548 24.7745C7.28766 26.8367 10.0836 27.9967 13 28ZM13 7.00001C14.9778 7.00001 16.9112 7.58649 18.5557 8.68531C20.2002 9.78412 21.4819 11.3459 22.2388 13.1732C22.9957 15.0004 23.1937 17.0111 22.8079 18.9509C22.422 20.8907 21.4696 22.6726 20.0711 24.0711C18.6725 25.4696 16.8907 26.422 14.9509 26.8079C13.0111 27.1937 11.0004 26.9957 9.17317 26.2388C7.3459 25.4819 5.78412 24.2002 4.6853 22.5557C3.58649 20.9112 3 18.9778 3 17C3.00304 14.3488 4.05759 11.807 5.93229 9.9323C7.807 8.05759 10.3488 7.00305 13 7.00001Z" fill="url(#paint3_linear_11099_79850)" fill-opacity="0.2"/>
<path d="M13 19C13.4421 18.9983 13.8712 18.8502 14.2202 18.5789C14.5692 18.3075 14.8185 17.9281 14.929 17.5H16.5C16.6326 17.5 16.7598 17.4473 16.8536 17.3536C16.9473 17.2598 17 17.1326 17 17C17 16.8674 16.9473 16.7402 16.8536 16.6464C16.7598 16.5527 16.6326 16.5 16.5 16.5H14.929C14.8396 16.1562 14.66 15.8424 14.4088 15.5912C14.1576 15.34 13.8438 15.1604 13.5 15.071V12C13.5 11.8674 13.4473 11.7402 13.3536 11.6464C13.2598 11.5527 13.1326 11.5 13 11.5C12.8674 11.5 12.7402 11.5527 12.6464 11.6464C12.5527 11.7402 12.5 11.8674 12.5 12V15.071C12.0292 15.1922 11.6188 15.481 11.3458 15.8833C11.0729 16.2856 10.9561 16.7737 11.0175 17.256C11.0789 17.7382 11.3141 18.1815 11.6792 18.5026C12.0442 18.8238 12.5138 19.0006 13 19ZM13 16C13.1978 16 13.3911 16.0586 13.5556 16.1685C13.72 16.2784 13.8482 16.4346 13.9239 16.6173C13.9996 16.8 14.0194 17.0011 13.9808 17.1951C13.9422 17.3891 13.847 17.5673 13.7071 17.7071C13.5673 17.847 13.3891 17.9422 13.1951 17.9808C13.0011 18.0194 12.8 17.9996 12.6173 17.9239C12.4346 17.8482 12.2784 17.72 12.1685 17.5556C12.0586 17.3911 12 17.1978 12 17C12 16.7348 12.1054 16.4804 12.2929 16.2929C12.4804 16.1054 12.7348 16 13 16ZM13 10C13.1326 10 13.2598 9.94732 13.3536 9.85355C13.4473 9.75979 13.5 9.63261 13.5 9.5V8.5C13.5 8.36739 13.4473 8.24021 13.3536 8.14645C13.2598 8.05268 13.1326 8 13 8C12.8674 8 12.7402 8.05268 12.6464 8.14645C12.5527 8.24021 12.5 8.36739 12.5 8.5V9.5C12.5 9.63261 12.5527 9.75979 12.6464 9.85355C12.7402 9.94732 12.8674 10 13 10ZM8.817 10.755C8.84959 10.8123 8.8932 10.8626 8.94531 10.903C8.99743 10.9434 9.05702 10.9731 9.12065 10.9904C9.18429 11.0077 9.25072 11.0122 9.31611 11.0037C9.3815 10.9952 9.44456 10.9739 9.50166 10.9409C9.55877 10.9079 9.60879 10.864 9.64884 10.8116C9.6889 10.7592 9.71819 10.6994 9.73505 10.6357C9.7519 10.5719 9.75598 10.5055 9.74705 10.4401C9.73812 10.3748 9.71635 10.3119 9.683 10.255L9.183 9.3885C9.11622 9.2746 9.00711 9.19173 8.87946 9.15798C8.75181 9.12423 8.616 9.14234 8.50165 9.20836C8.38731 9.27438 8.30372 9.38295 8.26913 9.51037C8.23453 9.63779 8.25174 9.77372 8.317 9.8885L8.817 10.755ZM5.3885 13.183L6.255 13.683C6.33094 13.7271 6.41721 13.7502 6.505 13.75C6.61506 13.75 6.72205 13.7137 6.80937 13.6467C6.89668 13.5797 6.95945 13.4857 6.98794 13.3794C7.01643 13.2731 7.00904 13.1604 6.96692 13.0587C6.92481 12.957 6.85031 12.872 6.755 12.817L5.8885 12.317C5.77372 12.2517 5.63779 12.2345 5.51037 12.2691C5.38295 12.3037 5.27438 12.3873 5.20836 12.5017C5.14234 12.616 5.12423 12.7518 5.15798 12.8795C5.19173 13.0071 5.2746 13.1162 5.3885 13.183ZM6 17C6 16.8674 5.94732 16.7402 5.85355 16.6464C5.75979 16.5527 5.63261 16.5 5.5 16.5H4.5C4.36739 16.5 4.24021 16.5527 4.14645 16.6464C4.05268 16.7402 4 16.8674 4 17C4 17.1326 4.05268 17.2598 4.14645 17.3536C4.24021 17.4473 4.36739 17.5 4.5 17.5H5.5C5.63261 17.5 5.75979 17.4473 5.85355 17.3536C5.94732 17.2598 6 17.1326 6 17ZM6.938 20.5C6.87169 20.3852 6.76249 20.3014 6.6344 20.267C6.50631 20.2327 6.36984 20.2507 6.255 20.317L5.3885 20.817C5.33118 20.8496 5.28087 20.8932 5.24047 20.9453C5.20007 20.9974 5.17037 21.057 5.1531 21.1207C5.13582 21.1843 5.1313 21.2507 5.1398 21.3161C5.1483 21.3815 5.16965 21.4446 5.20262 21.5017C5.23559 21.5588 5.27953 21.6088 5.33191 21.6488C5.38429 21.6889 5.44408 21.7182 5.50783 21.7351C5.57158 21.7519 5.63803 21.756 5.70336 21.747C5.76869 21.7381 5.83161 21.7163 5.8885 21.683L6.755 21.183C6.86984 21.1167 6.95363 21.0075 6.98795 20.8794C7.02227 20.7513 7.0043 20.6148 6.938 20.5ZM8.5 24.7945C8.61484 24.8608 8.75131 24.8788 8.8794 24.8444C9.00749 24.8101 9.11669 24.7263 9.183 24.6115L9.683 23.745C9.74826 23.6302 9.76547 23.4943 9.73087 23.3669C9.69628 23.2394 9.61269 23.1309 9.49835 23.0649C9.384 22.9988 9.24819 22.9807 9.12054 23.0145C8.99289 23.0482 8.88378 23.1311 8.817 23.245L8.317 24.1115C8.2507 24.2263 8.23273 24.3628 8.26705 24.4909C8.30137 24.619 8.38516 24.7282 8.5 24.7945ZM13 24C12.8674 24 12.7402 24.0527 12.6464 24.1464C12.5527 24.2402 12.5 24.3674 12.5 24.5V25.5C12.5 25.6326 12.5527 25.7598 12.6464 25.8536C12.7402 25.9473 12.8674 26 13 26C13.1326 26 13.2598 25.9473 13.3536 25.8536C13.4473 25.7598 13.5 25.6326 13.5 25.5V24.5C13.5 24.3674 13.4473 24.2402 13.3536 24.1464C13.2598 24.0527 13.1326 24 13 24ZM17.183 23.245C17.1504 23.1877 17.1068 23.1374 17.0547 23.097C17.0026 23.0566 16.943 23.0269 16.8793 23.0096C16.8157 22.9923 16.7493 22.9878 16.6839 22.9963C16.6185 23.0048 16.5554 23.0261 16.4983 23.0591C16.4412 23.0921 16.3912 23.136 16.3512 23.1884C16.3111 23.2408 16.2818 23.3006 16.2649 23.3643C16.2481 23.4281 16.244 23.4945 16.253 23.5599C16.2619 23.6252 16.2837 23.6881 16.317 23.745L16.817 24.6115C16.8838 24.7254 16.9929 24.8083 17.1205 24.842C17.2482 24.8758 17.384 24.8577 17.4983 24.7916C17.6127 24.7256 17.6963 24.6171 17.7309 24.4896C17.7655 24.3622 17.7483 24.2263 17.683 24.1115L17.183 23.245ZM19.245 21.183L20.1115 21.683C20.1874 21.7271 20.2737 21.7502 20.3615 21.75C20.4716 21.75 20.5786 21.7137 20.6659 21.6467C20.7532 21.5797 20.816 21.4857 20.8444 21.3794C20.8729 21.2731 20.8655 21.1604 20.8234 21.0587C20.7813 20.957 20.7068 20.872 20.6115 20.817L19.745 20.317C19.6302 20.2517 19.4943 20.2345 19.3669 20.2691C19.2394 20.3037 19.1309 20.3873 19.0649 20.5017C18.9988 20.616 18.9807 20.7518 19.0145 20.8795C19.0482 21.0071 19.1311 21.1162 19.245 21.183ZM20 17C20 17.1326 20.0527 17.2598 20.1464 17.3536C20.2402 17.4473 20.3674 17.5 20.5 17.5H21.5C21.6326 17.5 21.7598 17.4473 21.8536 17.3536C21.9473 17.2598 22 17.1326 22 17C22 16.8674 21.9473 16.7402 21.8536 16.6464C21.7598 16.5527 21.6326 16.5 21.5 16.5H20.5C20.3674 16.5 20.2402 16.5527 20.1464 16.6464C20.0527 16.7402 20 16.8674 20 17ZM19.4955 13.75C19.5833 13.7502 19.6696 13.7271 19.7455 13.683L20.612 13.183C20.7259 13.1162 20.8088 13.0071 20.8425 12.8795C20.8763 12.7518 20.8582 12.616 20.7921 12.5017C20.7261 12.3873 20.6176 12.3037 20.4901 12.2691C20.3627 12.2345 20.2268 12.2517 20.112 12.317L19.2455 12.817C19.1502 12.872 19.0757 12.957 19.0336 13.0587C18.9915 13.1604 18.9841 13.2731 19.0126 13.3794C19.041 13.4857 19.1038 13.5797 19.1911 13.6467C19.2785 13.7137 19.3854 13.75 19.4955 13.75ZM16.5 10.938C16.6148 11.0043 16.7513 11.0223 16.8794 10.9879C17.0075 10.9536 17.1167 10.8698 17.183 10.755L17.683 9.8885C17.7163 9.83161 17.7381 9.76869 17.747 9.70336C17.756 9.63803 17.7519 9.57158 17.7351 9.50783C17.7182 9.44408 17.6889 9.38429 17.6488 9.33191C17.6088 9.27953 17.5588 9.23559 17.5017 9.20262C17.4446 9.16965 17.3815 9.1483 17.3161 9.1398C17.2507 9.1313 17.1843 9.13582 17.1207 9.1531C17.057 9.17037 16.9974 9.20007 16.9453 9.24047C16.8932 9.28087 16.8496 9.33118 16.817 9.3885L16.317 10.255C16.2507 10.3698 16.2327 10.5063 16.267 10.6344C16.3014 10.7625 16.3852 10.8717 16.5 10.938Z" fill="url(#paint4_linear_11099_79850)"/>
<path d="M13 19C13.4421 18.9983 13.8712 18.8502 14.2202 18.5789C14.5692 18.3075 14.8185 17.9281 14.929 17.5H16.5C16.6326 17.5 16.7598 17.4473 16.8536 17.3536C16.9473 17.2598 17 17.1326 17 17C17 16.8674 16.9473 16.7402 16.8536 16.6464C16.7598 16.5527 16.6326 16.5 16.5 16.5H14.929C14.8396 16.1562 14.66 15.8424 14.4088 15.5912C14.1576 15.34 13.8438 15.1604 13.5 15.071V12C13.5 11.8674 13.4473 11.7402 13.3536 11.6464C13.2598 11.5527 13.1326 11.5 13 11.5C12.8674 11.5 12.7402 11.5527 12.6464 11.6464C12.5527 11.7402 12.5 11.8674 12.5 12V15.071C12.0292 15.1922 11.6188 15.481 11.3458 15.8833C11.0729 16.2856 10.9561 16.7737 11.0175 17.256C11.0789 17.7382 11.3141 18.1815 11.6792 18.5026C12.0442 18.8238 12.5138 19.0006 13 19ZM13 16C13.1978 16 13.3911 16.0586 13.5556 16.1685C13.72 16.2784 13.8482 16.4346 13.9239 16.6173C13.9996 16.8 14.0194 17.0011 13.9808 17.1951C13.9422 17.3891 13.847 17.5673 13.7071 17.7071C13.5673 17.847 13.3891 17.9422 13.1951 17.9808C13.0011 18.0194 12.8 17.9996 12.6173 17.9239C12.4346 17.8482 12.2784 17.72 12.1685 17.5556C12.0586 17.3911 12 17.1978 12 17C12 16.7348 12.1054 16.4804 12.2929 16.2929C12.4804 16.1054 12.7348 16 13 16ZM13 10C13.1326 10 13.2598 9.94732 13.3536 9.85355C13.4473 9.75979 13.5 9.63261 13.5 9.5V8.5C13.5 8.36739 13.4473 8.24021 13.3536 8.14645C13.2598 8.05268 13.1326 8 13 8C12.8674 8 12.7402 8.05268 12.6464 8.14645C12.5527 8.24021 12.5 8.36739 12.5 8.5V9.5C12.5 9.63261 12.5527 9.75979 12.6464 9.85355C12.7402 9.94732 12.8674 10 13 10ZM8.817 10.755C8.84959 10.8123 8.8932 10.8626 8.94531 10.903C8.99743 10.9434 9.05702 10.9731 9.12065 10.9904C9.18429 11.0077 9.25072 11.0122 9.31611 11.0037C9.3815 10.9952 9.44456 10.9739 9.50166 10.9409C9.55877 10.9079 9.60879 10.864 9.64884 10.8116C9.6889 10.7592 9.71819 10.6994 9.73505 10.6357C9.7519 10.5719 9.75598 10.5055 9.74705 10.4401C9.73812 10.3748 9.71635 10.3119 9.683 10.255L9.183 9.3885C9.11622 9.2746 9.00711 9.19173 8.87946 9.15798C8.75181 9.12423 8.616 9.14234 8.50165 9.20836C8.38731 9.27438 8.30372 9.38295 8.26913 9.51037C8.23453 9.63779 8.25174 9.77372 8.317 9.8885L8.817 10.755ZM5.3885 13.183L6.255 13.683C6.33094 13.7271 6.41721 13.7502 6.505 13.75C6.61506 13.75 6.72205 13.7137 6.80937 13.6467C6.89668 13.5797 6.95945 13.4857 6.98794 13.3794C7.01643 13.2731 7.00904 13.1604 6.96692 13.0587C6.92481 12.957 6.85031 12.872 6.755 12.817L5.8885 12.317C5.77372 12.2517 5.63779 12.2345 5.51037 12.2691C5.38295 12.3037 5.27438 12.3873 5.20836 12.5017C5.14234 12.616 5.12423 12.7518 5.15798 12.8795C5.19173 13.0071 5.2746 13.1162 5.3885 13.183ZM6 17C6 16.8674 5.94732 16.7402 5.85355 16.6464C5.75979 16.5527 5.63261 16.5 5.5 16.5H4.5C4.36739 16.5 4.24021 16.5527 4.14645 16.6464C4.05268 16.7402 4 16.8674 4 17C4 17.1326 4.05268 17.2598 4.14645 17.3536C4.24021 17.4473 4.36739 17.5 4.5 17.5H5.5C5.63261 17.5 5.75979 17.4473 5.85355 17.3536C5.94732 17.2598 6 17.1326 6 17ZM6.938 20.5C6.87169 20.3852 6.76249 20.3014 6.6344 20.267C6.50631 20.2327 6.36984 20.2507 6.255 20.317L5.3885 20.817C5.33118 20.8496 5.28087 20.8932 5.24047 20.9453C5.20007 20.9974 5.17037 21.057 5.1531 21.1207C5.13582 21.1843 5.1313 21.2507 5.1398 21.3161C5.1483 21.3815 5.16965 21.4446 5.20262 21.5017C5.23559 21.5588 5.27953 21.6088 5.33191 21.6488C5.38429 21.6889 5.44408 21.7182 5.50783 21.7351C5.57158 21.7519 5.63803 21.756 5.70336 21.747C5.76869 21.7381 5.83161 21.7163 5.8885 21.683L6.755 21.183C6.86984 21.1167 6.95363 21.0075 6.98795 20.8794C7.02227 20.7513 7.0043 20.6148 6.938 20.5ZM8.5 24.7945C8.61484 24.8608 8.75131 24.8788 8.8794 24.8444C9.00749 24.8101 9.11669 24.7263 9.183 24.6115L9.683 23.745C9.74826 23.6302 9.76547 23.4943 9.73087 23.3669C9.69628 23.2394 9.61269 23.1309 9.49835 23.0649C9.384 22.9988 9.24819 22.9807 9.12054 23.0145C8.99289 23.0482 8.88378 23.1311 8.817 23.245L8.317 24.1115C8.2507 24.2263 8.23273 24.3628 8.26705 24.4909C8.30137 24.619 8.38516 24.7282 8.5 24.7945ZM13 24C12.8674 24 12.7402 24.0527 12.6464 24.1464C12.5527 24.2402 12.5 24.3674 12.5 24.5V25.5C12.5 25.6326 12.5527 25.7598 12.6464 25.8536C12.7402 25.9473 12.8674 26 13 26C13.1326 26 13.2598 25.9473 13.3536 25.8536C13.4473 25.7598 13.5 25.6326 13.5 25.5V24.5C13.5 24.3674 13.4473 24.2402 13.3536 24.1464C13.2598 24.0527 13.1326 24 13 24ZM17.183 23.245C17.1504 23.1877 17.1068 23.1374 17.0547 23.097C17.0026 23.0566 16.943 23.0269 16.8793 23.0096C16.8157 22.9923 16.7493 22.9878 16.6839 22.9963C16.6185 23.0048 16.5554 23.0261 16.4983 23.0591C16.4412 23.0921 16.3912 23.136 16.3512 23.1884C16.3111 23.2408 16.2818 23.3006 16.2649 23.3643C16.2481 23.4281 16.244 23.4945 16.253 23.5599C16.2619 23.6252 16.2837 23.6881 16.317 23.745L16.817 24.6115C16.8838 24.7254 16.9929 24.8083 17.1205 24.842C17.2482 24.8758 17.384 24.8577 17.4983 24.7916C17.6127 24.7256 17.6963 24.6171 17.7309 24.4896C17.7655 24.3622 17.7483 24.2263 17.683 24.1115L17.183 23.245ZM19.245 21.183L20.1115 21.683C20.1874 21.7271 20.2737 21.7502 20.3615 21.75C20.4716 21.75 20.5786 21.7137 20.6659 21.6467C20.7532 21.5797 20.816 21.4857 20.8444 21.3794C20.8729 21.2731 20.8655 21.1604 20.8234 21.0587C20.7813 20.957 20.7068 20.872 20.6115 20.817L19.745 20.317C19.6302 20.2517 19.4943 20.2345 19.3669 20.2691C19.2394 20.3037 19.1309 20.3873 19.0649 20.5017C18.9988 20.616 18.9807 20.7518 19.0145 20.8795C19.0482 21.0071 19.1311 21.1162 19.245 21.183ZM20 17C20 17.1326 20.0527 17.2598 20.1464 17.3536C20.2402 17.4473 20.3674 17.5 20.5 17.5H21.5C21.6326 17.5 21.7598 17.4473 21.8536 17.3536C21.9473 17.2598 22 17.1326 22 17C22 16.8674 21.9473 16.7402 21.8536 16.6464C21.7598 16.5527 21.6326 16.5 21.5 16.5H20.5C20.3674 16.5 20.2402 16.5527 20.1464 16.6464C20.0527 16.7402 20 16.8674 20 17ZM19.4955 13.75C19.5833 13.7502 19.6696 13.7271 19.7455 13.683L20.612 13.183C20.7259 13.1162 20.8088 13.0071 20.8425 12.8795C20.8763 12.7518 20.8582 12.616 20.7921 12.5017C20.7261 12.3873 20.6176 12.3037 20.4901 12.2691C20.3627 12.2345 20.2268 12.2517 20.112 12.317L19.2455 12.817C19.1502 12.872 19.0757 12.957 19.0336 13.0587C18.9915 13.1604 18.9841 13.2731 19.0126 13.3794C19.041 13.4857 19.1038 13.5797 19.1911 13.6467C19.2785 13.7137 19.3854 13.75 19.4955 13.75ZM16.5 10.938C16.6148 11.0043 16.7513 11.0223 16.8794 10.9879C17.0075 10.9536 17.1167 10.8698 17.183 10.755L17.683 9.8885C17.7163 9.83161 17.7381 9.76869 17.747 9.70336C17.756 9.63803 17.7519 9.57158 17.7351 9.50783C17.7182 9.44408 17.6889 9.38429 17.6488 9.33191C17.6088 9.27953 17.5588 9.23559 17.5017 9.20262C17.4446 9.16965 17.3815 9.1483 17.3161 9.1398C17.2507 9.1313 17.1843 9.13582 17.1207 9.1531C17.057 9.17037 16.9974 9.20007 16.9453 9.24047C16.8932 9.28087 16.8496 9.33118 16.817 9.3885L16.317 10.255C16.2507 10.3698 16.2327 10.5063 16.267 10.6344C16.3014 10.7625 16.3852 10.8717 16.5 10.938Z" fill="url(#paint5_linear_11099_79850)" fill-opacity="0.2"/>
<defs>
<linearGradient id="paint0_linear_11099_79850" x1="10.4522" y1="30.0142" x2="16.3138" y2="1.30047" gradientUnits="userSpaceOnUse">
<stop stop-color="#6E40F9"/>
<stop offset="0.457887" stop-color="#A569FB"/>
<stop offset="1" stop-color="#CE89FF"/>
</linearGradient>
<linearGradient id="paint1_linear_11099_79850" x1="10.4413" y1="79.2121" x2="-1.43" y2="77.1984" gradientUnits="userSpaceOnUse">
<stop stop-color="white" stop-opacity="0"/>
<stop offset="1" stop-color="#8E00FF"/>
</linearGradient>
<linearGradient id="paint2_linear_11099_79850" x1="10.8441" y1="28" x2="14.6035" y2="6.74095" gradientUnits="userSpaceOnUse">
<stop stop-color="#6E40F9"/>
<stop offset="0.457887" stop-color="#A569FB"/>
<stop offset="1" stop-color="#CE89FF"/>
</linearGradient>
<linearGradient id="paint3_linear_11099_79850" x1="10.8349" y1="64.0613" x2="0.882587" y2="62.1125" gradientUnits="userSpaceOnUse">
<stop stop-color="white" stop-opacity="0"/>
<stop offset="1" stop-color="#8E00FF"/>
</linearGradient>
<linearGradient id="paint4_linear_11099_79850" x1="11.2361" y1="26" x2="14.312" y2="8.60623" gradientUnits="userSpaceOnUse">
<stop stop-color="#6E40F9"/>
<stop offset="0.457887" stop-color="#A569FB"/>
<stop offset="1" stop-color="#CE89FF"/>
</linearGradient>
<linearGradient id="paint5_linear_11099_79850" x1="11.2286" y1="55.5047" x2="3.08575" y2="53.9102" gradientUnits="userSpaceOnUse">
<stop stop-color="white" stop-opacity="0"/>
<stop offset="1" stop-color="#8E00FF"/>
</linearGradient>
</defs>
</svg>
