<svg width="51" height="50" viewBox="0 0 51 50" fill="none" xmlns="http://www.w3.org/2000/svg">
<path d="M50.2148 25C50.2148 38.8071 39.022 50 25.2148 50C11.4077 50 0.214844 38.8071 0.214844 25C0.214844 11.1929 11.4077 0 25.2148 0C39.022 0 50.2148 11.1929 50.2148 25Z" fill="#FF83A2"/>
<path d="M50.2148 25C50.2148 38.8071 39.022 50 25.2148 50C11.4077 50 0.214844 38.8071 0.214844 25C0.214844 11.1929 11.4077 0 25.2148 0C39.022 0 50.2148 11.1929 50.2148 25Z" fill="url(#paint0_linear_11099_81238)"/>
<path fill-rule="evenodd" clip-rule="evenodd" d="M7.61333 23.4308C8.22891 22.9969 9.07966 23.1442 9.51352 23.7598C12.0611 27.3745 16.6767 31.6145 22.2016 32.8353C27.5544 34.0182 34.1358 32.4447 40.9606 23.706C41.4241 23.1125 42.2811 23.0071 42.8746 23.4707C43.4682 23.9342 43.5735 24.7912 43.11 25.3847C35.7903 34.7571 28.2127 36.9567 21.6131 35.4984C15.1856 34.078 10.0553 29.2626 7.28429 25.331C6.85043 24.7154 6.99774 23.8646 7.61333 23.4308Z" fill="black"/>
<path d="M32.2984 20.7629C30.6169 21.2688 29.636 20.3413 29.3557 19.8143C24.3156 14.439 30.6188 10.3286 34.8207 10.0124C43.649 9.69617 44.3495 15.493 43.6489 17.9171C43.2285 19.0765 41.7151 21.1423 39.0246 20.1305C36.3341 19.1187 33.4195 20.1305 32.2984 20.7629Z" fill="white"/>
<path d="M35.214 18.636C37.0327 17.7271 38.82 15.787 38.3959 14.0905C38.0323 12.6361 36.1233 12.8784 35.214 13.1814C33.0322 12.0905 31.8809 13.3329 31.5777 14.0905C30.8504 16.2723 33.6989 18.0299 35.214 18.636Z" fill="black"/>
<path d="M19.0414 20.7629C20.723 21.2688 21.7039 20.3413 21.9841 19.8143C27.0243 14.439 20.7211 10.3286 16.5191 10.0124C7.69081 9.69617 6.99035 15.493 7.69099 17.9171C8.11138 19.0765 9.62477 21.1423 12.3152 20.1305C15.0057 19.1187 17.9204 20.1305 19.0414 20.7629Z" fill="white"/>
<path d="M16.1258 18.636C14.3072 17.7271 12.5199 15.787 12.944 14.0905C13.3076 12.6361 15.2166 12.8784 16.1258 13.1814C18.3076 12.0905 19.459 13.3329 19.7622 14.0905C20.4894 16.2723 17.641 18.0299 16.1258 18.636Z" fill="black"/>
<defs>
<linearGradient id="paint0_linear_11099_81238" x1="25.6694" y1="6.81818" x2="30.6694" y2="108.636" gradientUnits="userSpaceOnUse">
<stop stop-color="#DCB8FF"/>
<stop offset="1" stop-color="white"/>
</linearGradient>
</defs>
</svg>
