<svg width="12" height="14" viewBox="0 0 12 14" fill="none" xmlns="http://www.w3.org/2000/svg">
<path d="M4.06731 6.39503H3.36058C3.26474 6.39503 3.18549 6.36377 3.12283 6.30125C3.06017 6.23871 3.02884 6.15962 3.02884 6.06398C3.02884 5.96835 3.06017 5.88903 3.12283 5.82605C3.18549 5.76307 3.26474 5.73158 3.36058 5.73158H4.39903C4.49487 5.73158 4.57412 5.76291 4.63678 5.82556C4.69944 5.88822 4.73078 5.96747 4.73078 6.06331V9.43831C4.73078 9.53415 4.69951 9.6134 4.63697 9.67606C4.57443 9.73871 4.49534 9.77003 4.39971 9.77003C4.30407 9.77003 4.22476 9.73871 4.16177 9.67606C4.09879 9.6134 4.06731 9.53415 4.06731 9.43831V6.39503ZM6.51923 9.77003C6.30673 9.77003 6.1286 9.69816 5.98485 9.55441C5.8411 9.41066 5.76923 9.23253 5.76923 9.02003V6.48158C5.76923 6.26908 5.8411 6.09096 5.98485 5.94721C6.1286 5.80346 6.30673 5.73158 6.51923 5.73158H7.84616C8.05866 5.73158 8.23679 5.80346 8.38054 5.94721C8.52429 6.09096 8.59616 6.26908 8.59616 6.48158V9.02003C8.59616 9.23253 8.52429 9.41066 8.38054 9.55441C8.23679 9.69816 8.05866 9.77003 7.84616 9.77003H6.51923ZM6.60577 9.10658H7.75961C7.8173 9.10658 7.86057 9.09216 7.88942 9.06331C7.91827 9.03446 7.93269 8.99119 7.93269 8.9335V6.56812C7.93269 6.51043 7.91827 6.46716 7.88942 6.43831C7.86057 6.40946 7.8173 6.39503 7.75961 6.39503H6.60577C6.54807 6.39503 6.50481 6.40946 6.47597 6.43831C6.44712 6.46716 6.43269 6.51043 6.43269 6.56812V8.9335C6.43269 8.99119 6.44712 9.03446 6.47597 9.06331C6.50481 9.09216 6.54807 9.10658 6.60577 9.10658ZM6.00083 13.7508C5.16854 13.7508 4.38869 13.5943 3.66129 13.2813C2.93389 12.9684 2.29832 12.54 1.75457 11.9962C1.21082 11.4525 0.78245 10.8171 0.469462 10.0901C0.156487 9.36304 0 8.58328 0 7.75081C0 7.64456 0.0359874 7.5555 0.107962 7.48362C0.179925 7.41175 0.269106 7.37581 0.375506 7.37581C0.481894 7.37581 0.570906 7.41175 0.642544 7.48362C0.714181 7.5555 0.75 7.64456 0.75 7.75081C0.75 9.21331 1.25938 10.4539 2.27813 11.4727C3.29688 12.4914 4.5375 13.0008 6 13.0008C7.4625 13.0008 8.70312 12.4914 9.72188 11.4727C10.7406 10.4539 11.25 9.21331 11.25 7.75081C11.25 6.28831 10.7406 5.04768 9.72188 4.02893C8.70312 3.01019 7.4625 2.50081 6 2.50081H5.71442L6.66923 3.45562C6.7423 3.52869 6.78052 3.61475 6.7839 3.71379C6.78726 3.81282 6.75008 3.90369 6.67236 3.98639C6.58758 4.06908 6.49736 4.11115 6.40168 4.1126C6.30601 4.11403 6.21683 4.07341 6.13414 3.99072L4.69326 2.53542C4.57211 2.41427 4.51153 2.27293 4.51153 2.11139C4.51153 1.94985 4.57211 1.8085 4.69326 1.68734L6.16297 0.23206C6.23605 0.158985 6.32283 0.12076 6.42332 0.117385C6.52379 0.114022 6.61643 0.153685 6.70121 0.236372C6.77893 0.319072 6.81851 0.407535 6.81996 0.50176C6.82139 0.595997 6.78077 0.684461 6.69808 0.767148L5.71442 1.75081H6C6.83248 1.75081 7.61223 1.9073 8.33927 2.22027C9.06629 2.53326 9.70168 2.96163 10.2454 3.50538C10.7892 4.04913 11.2176 4.68443 11.5305 5.41128C11.8435 6.13814 12 6.91771 12 7.74998C12 8.58227 11.8435 9.36212 11.5305 10.0895C11.2176 10.8169 10.7892 11.4525 10.2454 11.9962C9.70168 12.54 9.06638 12.9684 8.33953 13.2813C7.61267 13.5943 6.8331 13.7508 6.00083 13.7508Z" fill="#30303D"/>
</svg>
