<svg width="32" height="32" viewBox="0 0 32 32" fill="none" xmlns="http://www.w3.org/2000/svg">
<rect width="32" height="32" rx="16" fill="#9D9FE6" fill-opacity="0.3"/>
<path d="M14.74 17.62L12.805 15.685C12.64 15.52 12.43 15.4375 12.175 15.4375C11.92 15.4375 11.71 15.52 11.545 15.685C11.38 15.85 11.2975 16.06 11.2975 16.315C11.2975 16.57 11.38 16.78 11.545 16.945L14.11 19.51C14.29 19.69 14.5 19.78 14.74 19.78C14.98 19.78 15.19 19.69 15.37 19.51L20.455 14.425C20.62 14.26 20.7025 14.05 20.7025 13.795C20.7025 13.54 20.62 13.33 20.455 13.165C20.29 13 20.08 12.9175 19.825 12.9175C19.57 12.9175 19.36 13 19.195 13.165L14.74 17.62ZM16 25C14.755 25 13.585 24.7638 12.49 24.2913C11.395 23.8188 10.4425 23.1775 9.6325 22.3675C8.8225 21.5575 8.18125 20.605 7.70875 19.51C7.23625 18.415 7 17.245 7 16C7 14.755 7.23625 13.585 7.70875 12.49C8.18125 11.395 8.8225 10.4425 9.6325 9.6325C10.4425 8.8225 11.395 8.18125 12.49 7.70875C13.585 7.23625 14.755 7 16 7C17.245 7 18.415 7.23625 19.51 7.70875C20.605 8.18125 21.5575 8.8225 22.3675 9.6325C23.1775 10.4425 23.8188 11.395 24.2913 12.49C24.7638 13.585 25 14.755 25 16C25 17.245 24.7638 18.415 24.2913 19.51C23.8188 20.605 23.1775 21.5575 22.3675 22.3675C21.5575 23.1775 20.605 23.8188 19.51 24.2913C18.415 24.7638 17.245 25 16 25Z" fill="url(#paint0_linear_11099_96085)"/>
<path d="M14.74 17.62L12.805 15.685C12.64 15.52 12.43 15.4375 12.175 15.4375C11.92 15.4375 11.71 15.52 11.545 15.685C11.38 15.85 11.2975 16.06 11.2975 16.315C11.2975 16.57 11.38 16.78 11.545 16.945L14.11 19.51C14.29 19.69 14.5 19.78 14.74 19.78C14.98 19.78 15.19 19.69 15.37 19.51L20.455 14.425C20.62 14.26 20.7025 14.05 20.7025 13.795C20.7025 13.54 20.62 13.33 20.455 13.165C20.29 13 20.08 12.9175 19.825 12.9175C19.57 12.9175 19.36 13 19.195 13.165L14.74 17.62ZM16 25C14.755 25 13.585 24.7638 12.49 24.2913C11.395 23.8188 10.4425 23.1775 9.6325 22.3675C8.8225 21.5575 8.18125 20.605 7.70875 19.51C7.23625 18.415 7 17.245 7 16C7 14.755 7.23625 13.585 7.70875 12.49C8.18125 11.395 8.8225 10.4425 9.6325 9.6325C10.4425 8.8225 11.395 8.18125 12.49 7.70875C13.585 7.23625 14.755 7 16 7C17.245 7 18.415 7.23625 19.51 7.70875C20.605 8.18125 21.5575 8.8225 22.3675 9.6325C23.1775 10.4425 23.8188 11.395 24.2913 12.49C24.7638 13.585 25 14.755 25 16C25 17.245 24.7638 18.415 24.2913 19.51C23.8188 20.605 23.1775 21.5575 22.3675 22.3675C21.5575 23.1775 20.605 23.8188 19.51 24.2913C18.415 24.7638 17.245 25 16 25Z" fill="url(#paint1_linear_11099_96085)" fill-opacity="0.2"/>
<defs>
<linearGradient id="paint0_linear_11099_96085" x1="14.2361" y1="25" x2="17.312" y2="7.60623" gradientUnits="userSpaceOnUse">
<stop stop-color="#6E40F9"/>
<stop offset="0.457887" stop-color="#A569FB"/>
<stop offset="1" stop-color="#CE89FF"/>
</linearGradient>
<linearGradient id="paint1_linear_11099_96085" x1="14.2286" y1="54.5047" x2="6.08575" y2="52.9102" gradientUnits="userSpaceOnUse">
<stop stop-color="white" stop-opacity="0"/>
<stop offset="1" stop-color="#8E00FF"/>
</linearGradient>
</defs>
</svg>
