<svg width="51" height="50" viewBox="0 0 51 50" fill="none" xmlns="http://www.w3.org/2000/svg">
<path d="M50.2148 25C50.2148 38.8071 39.022 50 25.2148 50C11.4077 50 0.214844 38.8071 0.214844 25C0.214844 11.1929 11.4077 0 25.2148 0C39.022 0 50.2148 11.1929 50.2148 25Z" fill="#E18BFF"/>
<path d="M50.2148 25C50.2148 38.8071 39.022 50 25.2148 50C11.4077 50 0.214844 38.8071 0.214844 25C0.214844 11.1929 11.4077 0 25.2148 0C39.022 0 50.2148 11.1929 50.2148 25Z" fill="url(#paint0_linear_11099_81261)"/>
<path d="M50.2148 25C50.2148 38.8071 39.022 50 25.2148 50C11.4077 50 0.214844 38.8071 0.214844 25C0.214844 11.1929 11.4077 0 25.2148 0C39.022 0 50.2148 11.1929 50.2148 25Z" fill="url(#paint1_linear_11099_81261)"/>
<path fill-rule="evenodd" clip-rule="evenodd" d="M24.6495 33.5255C22.4344 34.0556 20.3137 35.9511 19.0367 37.6538C18.5848 38.2563 17.7301 38.3784 17.1276 37.9265C16.5251 37.4747 16.403 36.6199 16.8548 36.0174C18.3051 34.0838 20.9117 31.6157 24.0147 30.8731C25.6139 30.4904 27.3508 30.5679 29.0631 31.4223C30.7557 32.2668 32.3053 33.8106 33.6691 36.1485C34.0486 36.7991 33.8288 37.634 33.1783 38.0135C32.5278 38.393 31.6928 38.1732 31.3133 37.5227C30.1317 35.4971 28.9312 34.4044 27.8454 33.8626C26.7793 33.3307 25.7094 33.2718 24.6495 33.5255Z" fill="black"/>
<path d="M32.0174 28.1991C30.1992 28.9263 29.1386 27.593 28.8356 26.8354C23.3859 19.108 30.2013 13.199 34.7447 12.7444C44.2905 12.2898 45.0478 20.6232 44.2903 24.1081C43.8357 25.7748 42.1993 28.7445 39.2902 27.29C36.3811 25.8354 33.2296 27.29 32.0174 28.1991Z" fill="white"/>
<path d="M38.386 21.3805C38.386 23.3888 36.758 25.0169 34.7496 25.0169C32.7413 25.0169 31.1133 23.3888 31.1133 21.3805C31.1133 19.3722 32.7413 17.7441 34.7496 17.7441C36.758 17.7441 38.386 19.3722 38.386 21.3805Z" fill="#23191A"/>
<path d="M18.1388 28.6717C19.957 29.399 21.0176 28.0656 21.3207 27.3081C26.7704 19.5806 19.955 13.6716 15.4115 13.2171C5.86579 12.7624 5.10841 21.0959 5.86599 24.5807C6.32054 26.2474 7.95692 29.2172 10.866 27.7626C13.7751 26.3081 16.9267 27.7626 18.1388 28.6717Z" fill="white"/>
<path d="M11.7702 21.8532C11.7702 23.8615 13.3983 25.4895 15.4066 25.4895C17.4149 25.4895 19.043 23.8615 19.043 21.8532C19.043 19.8449 17.4149 18.2168 15.4066 18.2168C13.3983 18.2168 11.7702 19.8449 11.7702 21.8532Z" fill="#23191A"/>
<defs>
<linearGradient id="paint0_linear_11099_81261" x1="25.2148" y1="0" x2="30.6694" y2="108.636" gradientUnits="userSpaceOnUse">
<stop stop-color="#F1D2F5"/>
<stop offset="1" stop-color="#D953E2"/>
</linearGradient>
<linearGradient id="paint1_linear_11099_81261" x1="25.6694" y1="6.81818" x2="30.6694" y2="108.636" gradientUnits="userSpaceOnUse">
<stop stop-color="#DCB8FF"/>
<stop offset="1" stop-color="white"/>
</linearGradient>
</defs>
</svg>
