<svg width="24" height="24" viewBox="0 0 24 24" fill="none" xmlns="http://www.w3.org/2000/svg">
<path d="M6.95703 15.5311C6.95703 15.1333 7.27939 14.8111 7.67703 14.8111H12.8029C13.2005 14.8111 13.5229 15.1333 13.5229 15.5311C13.5229 15.9287 13.2005 16.2511 12.8029 16.2511H7.67703C7.27939 16.2511 6.95703 15.9287 6.95703 15.5311ZM7.67703 12.084C7.27939 12.084 6.95703 12.4063 6.95703 12.804C6.95703 13.2016 7.27939 13.524 7.67703 13.524H10.5571C10.9547 13.524 11.2771 13.2016 11.2771 12.804C11.2771 12.4063 10.9547 12.084 10.5571 12.084H7.67703Z" fill="black"/>
<path fill-rule="evenodd" clip-rule="evenodd" d="M8.35688 4.08008C8.75452 4.08008 9.07688 4.40244 9.07688 4.80008V5.04338C9.43545 5.04007 9.81757 5.04007 10.2241 5.04008H13.2095C13.6161 5.04007 13.9983 5.04007 14.3568 5.04338V4.80008C14.3568 4.40244 14.6792 4.08008 15.0768 4.08008C15.4746 4.08008 15.7968 4.40244 15.7968 4.80008V5.09074C16.0147 5.10605 16.2199 5.12598 16.413 5.15194C17.2771 5.26812 18.0046 5.51665 18.5825 6.09449C19.1603 6.67234 19.4088 7.39989 19.525 8.264C19.6369 9.09629 19.6369 10.1545 19.6368 11.4674V14.4344C19.6368 15.3025 19.6369 16.0026 19.5857 16.5674C19.533 17.1494 19.4213 17.658 19.1545 18.1201C18.8386 18.6674 18.3841 19.1218 17.8368 19.4378C17.3749 19.7045 16.8663 19.8161 16.2841 19.8689C15.7194 19.9201 15.0193 19.9201 14.1512 19.9201H10.2242C8.91131 19.9201 7.85308 19.9201 7.0208 19.8082C6.15669 19.6921 5.42913 19.4435 4.85129 18.8657C4.27345 18.2878 4.02491 17.5603 3.90873 16.6962C3.79684 15.8639 3.79686 14.8057 3.79688 13.4928V11.4674C3.79686 10.1545 3.79684 9.09628 3.90873 8.264C4.02491 7.39989 4.27345 6.67234 4.85129 6.09449C5.42913 5.51665 6.15669 5.26812 7.0208 5.15194C7.21387 5.12598 7.41911 5.10605 7.63688 5.09074V4.80008C7.63688 4.40244 7.95922 4.08008 8.35688 4.08008ZM14.3568 6.48364V6.72008C14.3568 7.11772 14.6792 7.44008 15.0768 7.44008C15.4746 7.44008 15.7968 7.11772 15.7968 6.72008V6.53454C15.947 6.54655 16.088 6.56121 16.2211 6.5791C16.9255 6.67381 17.2986 6.84704 17.5642 7.11273C17.8299 7.37842 18.0031 7.75144 18.0979 8.45587C18.1157 8.58896 18.1304 8.72998 18.1424 8.88008H5.29133C5.30334 8.72998 5.31801 8.58896 5.33589 8.45587C5.4306 7.75144 5.60383 7.37842 5.86953 7.11273C6.13521 6.84704 6.50824 6.67381 7.21267 6.5791C7.34575 6.56121 7.48678 6.54655 7.63688 6.53454V6.72008C7.63688 7.11772 7.95922 7.44008 8.35688 7.44008C8.75452 7.44008 9.07688 7.11772 9.07688 6.72008V6.48364C9.43818 6.48023 9.8362 6.48008 10.2768 6.48008H13.1568C13.5976 6.48008 13.9956 6.48023 14.3568 6.48364ZM5.24043 10.3201C5.23703 10.6814 5.23688 11.0794 5.23688 11.5201V13.4401C5.23688 14.8181 5.2384 15.7791 5.33589 16.5043C5.4306 17.2088 5.60383 17.5817 5.86953 17.8474C6.13521 18.1132 6.50824 18.2864 7.21267 18.3811C7.93781 18.4785 8.89887 18.4801 10.2768 18.4801H14.1168C15.0274 18.4801 15.6621 18.4794 16.1541 18.4348C16.6365 18.3911 16.9105 18.3098 17.1168 18.1907C17.4453 18.0011 17.7179 17.7284 17.9075 17.4001C18.0266 17.1938 18.1078 16.9196 18.1516 16.4374C18.1962 15.9453 18.1968 15.3105 18.1968 14.4001V11.5201C18.1968 11.0794 18.1967 10.6814 18.1933 10.3201H5.24043Z" fill="black"/>
</svg>
