<svg width="24" height="24" viewBox="0 0 24 24" fill="none" xmlns="http://www.w3.org/2000/svg">
<path d="M20 15H19.9C19.5 13.3 17.9 12 16 12C14.1 12 12.6 13.3 12.1 15H4C3.4 15 3 15.4 3 16C3 16.6 3.4 17 4 17H12.1C12.5 18.7 14.1 20 16 20C17.9 20 19.4 18.7 19.9 17H20C20.6 17 21 16.6 21 16C21 15.4 20.6 15 20 15ZM16 18C14.9 18 14 17.1 14 16C14 14.9 14.9 14 16 14C17.1 14 18 14.9 18 16C18 17.1 17.1 18 16 18ZM4 9H4.1C4.5 10.7 6.1 12 8 12C9.9 12 11.4 10.7 11.9 9H20C20.6 9 21 8.6 21 8C21 7.4 20.6 7 20 7H11.9C11.5 5.3 9.9 4 8 4C6.1 4 4.6 5.3 4.1 7H4C3.4 7 3 7.4 3 8C3 8.6 3.4 9 4 9ZM8 6C9.1 6 10 6.9 10 8C10 9.1 9.1 10 8 10C6.9 10 6 9.1 6 8C6 6.9 6.9 6 8 6Z" fill="url(#paint0_linear_13785_33236)"/>
<path d="M20 15H19.9C19.5 13.3 17.9 12 16 12C14.1 12 12.6 13.3 12.1 15H4C3.4 15 3 15.4 3 16C3 16.6 3.4 17 4 17H12.1C12.5 18.7 14.1 20 16 20C17.9 20 19.4 18.7 19.9 17H20C20.6 17 21 16.6 21 16C21 15.4 20.6 15 20 15ZM16 18C14.9 18 14 17.1 14 16C14 14.9 14.9 14 16 14C17.1 14 18 14.9 18 16C18 17.1 17.1 18 16 18ZM4 9H4.1C4.5 10.7 6.1 12 8 12C9.9 12 11.4 10.7 11.9 9H20C20.6 9 21 8.6 21 8C21 7.4 20.6 7 20 7H11.9C11.5 5.3 9.9 4 8 4C6.1 4 4.6 5.3 4.1 7H4C3.4 7 3 7.4 3 8C3 8.6 3.4 9 4 9ZM8 6C9.1 6 10 6.9 10 8C10 9.1 9.1 10 8 10C6.9 10 6 9.1 6 8C6 6.9 6.9 6 8 6Z" fill="url(#paint1_linear_13785_33236)" fill-opacity="0.2"/>
<defs>
<linearGradient id="paint0_linear_13785_33236" x1="10.2361" y1="20" x2="12.682" y2="4.43984" gradientUnits="userSpaceOnUse">
<stop stop-color="#6E40F9"/>
<stop offset="0.457887" stop-color="#A569FB"/>
<stop offset="1" stop-color="#CE89FF"/>
</linearGradient>
<linearGradient id="paint1_linear_13785_33236" x1="10.2286" y1="46.2264" x2="2.16485" y2="44.45" gradientUnits="userSpaceOnUse">
<stop stop-color="white" stop-opacity="0"/>
<stop offset="1" stop-color="#8E00FF"/>
</linearGradient>
</defs>
</svg>
