<svg width="12" height="14" viewBox="0 0 12 14" fill="none" xmlns="http://www.w3.org/2000/svg">
<path d="M6.00083 13.7508C5.16854 13.7508 4.38869 13.5943 3.66129 13.2813C2.93389 12.9684 2.29832 12.54 1.75457 11.9962C1.21082 11.4525 0.78245 10.8172 0.469462 10.0903C0.156487 9.36348 0 8.58391 0 7.75163C0 6.91935 0.156487 6.1395 0.469462 5.4121C0.78245 4.6847 1.21082 4.04913 1.75457 3.50538C2.29832 2.96163 2.93371 2.53326 3.66073 2.22027C4.38777 1.9073 5.16753 1.75081 6 1.75081H6.28558L5.30192 0.767148C5.21923 0.684461 5.17861 0.595997 5.18004 0.50176C5.18149 0.407535 5.22108 0.319072 5.29879 0.236372C5.38357 0.153685 5.47621 0.114022 5.57668 0.117385C5.67717 0.12076 5.76395 0.158985 5.83703 0.23206L7.30674 1.68734C7.42789 1.8085 7.48847 1.94985 7.48847 2.11139C7.48847 2.27293 7.42789 2.41427 7.30674 2.53542L5.86586 3.99072C5.78318 4.07341 5.69399 4.11403 5.59832 4.1126C5.50264 4.11115 5.41242 4.06908 5.32764 3.98639C5.24992 3.90369 5.21274 3.81282 5.2161 3.71379C5.21947 3.61475 5.2577 3.52869 5.33078 3.45562L6.28558 2.50081H6C4.5375 2.50081 3.29688 3.01019 2.27813 4.02893C1.25938 5.04768 0.75 6.28831 0.75 7.75081C0.75 9.21331 1.25938 10.4539 2.27813 11.4727C3.29688 12.4914 4.5375 13.0008 6 13.0008C7.4625 13.0008 8.70312 12.4914 9.72188 11.4727C10.7406 10.4539 11.25 9.21331 11.25 7.75081C11.25 7.64456 11.286 7.5555 11.358 7.48362C11.4299 7.41175 11.5191 7.37581 11.6255 7.37581C11.7319 7.37581 11.8209 7.41175 11.8925 7.48362C11.9642 7.5555 12 7.64456 12 7.75081C12 8.58328 11.8435 9.36304 11.5305 10.0901C11.2176 10.8171 10.7892 11.4525 10.2454 11.9962C9.70168 12.54 9.06638 12.9684 8.33953 13.2813C7.61267 13.5943 6.8331 13.7508 6.00083 13.7508ZM4.06731 6.39503H3.36058C3.26474 6.39503 3.18549 6.36377 3.12283 6.30125C3.06017 6.23871 3.02884 6.15962 3.02884 6.06398C3.02884 5.96835 3.06017 5.88903 3.12283 5.82605C3.18549 5.76307 3.26474 5.73158 3.36058 5.73158H4.39903C4.49487 5.73158 4.57412 5.76291 4.63678 5.82556C4.69944 5.88822 4.73078 5.96747 4.73078 6.06331V9.43831C4.73078 9.53415 4.69951 9.6134 4.63697 9.67606C4.57443 9.73871 4.49534 9.77003 4.39971 9.77003C4.30407 9.77003 4.22476 9.73871 4.16177 9.67606C4.09879 9.6134 4.06731 9.53415 4.06731 9.43831V6.39503ZM6.51923 9.77003C6.30673 9.77003 6.1286 9.69816 5.98485 9.55441C5.8411 9.41066 5.76923 9.23253 5.76923 9.02003V6.48158C5.76923 6.26908 5.8411 6.09096 5.98485 5.94721C6.1286 5.80346 6.30673 5.73158 6.51923 5.73158H7.84616C8.05866 5.73158 8.23679 5.80346 8.38054 5.94721C8.52429 6.09096 8.59616 6.26908 8.59616 6.48158V9.02003C8.59616 9.23253 8.52429 9.41066 8.38054 9.55441C8.23679 9.69816 8.05866 9.77003 7.84616 9.77003H6.51923ZM6.60577 9.10658H7.75961C7.8173 9.10658 7.86057 9.09216 7.88942 9.06331C7.91827 9.03446 7.93269 8.99119 7.93269 8.9335V6.56812C7.93269 6.51043 7.91827 6.46716 7.88942 6.43831C7.86057 6.40946 7.8173 6.39503 7.75961 6.39503H6.60577C6.54807 6.39503 6.50481 6.40946 6.47597 6.43831C6.44712 6.46716 6.43269 6.51043 6.43269 6.56812V8.9335C6.43269 8.99119 6.44712 9.03446 6.47597 9.06331C6.50481 9.09216 6.54807 9.10658 6.60577 9.10658Z" fill="#30303D"/>
</svg>
