<svg width="30" height="30" viewBox="0 0 30 30" fill="none" xmlns="http://www.w3.org/2000/svg">
<path d="M15 22.8469C19.3376 22.8469 22.8539 19.3305 22.8539 14.9929C22.8539 10.6554 19.3376 7.13904 15 7.13904C10.6624 7.13904 7.14612 10.6554 7.14612 14.9929C7.14612 19.3305 10.6624 22.8469 15 22.8469Z" fill="url(#paint0_linear_12332_29515)"/>
<path d="M15 22.8469C19.3376 22.8469 22.8539 19.3305 22.8539 14.9929C22.8539 10.6554 19.3376 7.13904 15 7.13904C10.6624 7.13904 7.14612 10.6554 7.14612 14.9929C7.14612 19.3305 10.6624 22.8469 15 22.8469Z" fill="url(#paint1_linear_12332_29515)" fill-opacity="0.2"/>
<path d="M18.5087 7.96875C19.0384 9.02578 19.336 10.2164 19.336 11.4773C19.336 15.8133 15.8204 19.3313 11.4821 19.3313C10.2212 19.3313 9.0282 19.0312 7.97351 18.5039C9.26492 21.0773 11.9251 22.8469 15.0001 22.8469C19.336 22.8469 22.854 19.3312 22.854 14.993C22.854 11.918 21.0844 9.25781 18.5087 7.96875Z" fill="url(#paint2_linear_12332_29515)"/>
<path d="M18.5087 7.96875C19.0384 9.02578 19.336 10.2164 19.336 11.4773C19.336 15.8133 15.8204 19.3313 11.4821 19.3313C10.2212 19.3313 9.0282 19.0312 7.97351 18.5039C9.26492 21.0773 11.9251 22.8469 15.0001 22.8469C19.336 22.8469 22.854 19.3312 22.854 14.993C22.854 11.918 21.0844 9.25781 18.5087 7.96875Z" fill="url(#paint3_linear_12332_29515)" fill-opacity="0.2"/>
<path d="M15 0.46875C14.7422 0.46875 14.5313 0.679687 14.5313 0.9375V3.56719C14.5313 3.825 14.7422 4.03594 15 4.03594C15.2579 4.03594 15.4688 3.825 15.4688 3.56719V0.9375C15.4688 0.679687 15.2579 0.46875 15 0.46875ZM15 25.9523C14.7422 25.9523 14.5313 26.1633 14.5313 26.4211V29.0508C14.5313 29.3086 14.7422 29.5195 15 29.5195C15.2579 29.5195 15.4688 29.3086 15.4688 29.0508V26.4211C15.4688 26.2968 15.4194 26.1775 15.3315 26.0896C15.2436 26.0017 15.1244 25.9523 15 25.9523ZM24.6071 4.72266L22.7485 6.58125C22.683 6.64685 22.6384 6.73037 22.6202 6.82128C22.6021 6.9122 22.6113 7.00645 22.6466 7.09215C22.682 7.17786 22.7419 7.25119 22.8188 7.30292C22.8957 7.35464 22.9863 7.38244 23.079 7.38281C23.1985 7.38281 23.318 7.33594 23.4094 7.24453L25.268 5.38594C25.4508 5.20312 25.4508 4.90547 25.268 4.72266C25.0852 4.53984 24.7899 4.53984 24.6071 4.72266ZM6.58833 22.7414L4.72974 24.6C4.66423 24.6656 4.6196 24.7491 4.60148 24.84C4.58335 24.9309 4.59253 25.0252 4.62786 25.1109C4.6632 25.1966 4.72311 25.2699 4.80004 25.3217C4.87698 25.3734 4.9675 25.4012 5.06021 25.4016C5.17974 25.4016 5.29927 25.3547 5.39067 25.2633L7.24927 23.4047C7.43208 23.2219 7.43208 22.9242 7.24927 22.7414C7.06646 22.5586 6.77114 22.5586 6.58833 22.7414ZM29.0555 14.5242H26.4258C26.168 14.5242 25.9571 14.7352 25.9571 14.993C25.9571 15.2508 26.168 15.4617 26.4258 15.4617H29.0555C29.1798 15.4617 29.2991 15.4123 29.387 15.3244C29.4749 15.2365 29.5243 15.1173 29.5243 14.993C29.5243 14.8686 29.4749 14.7494 29.387 14.6615C29.2991 14.5736 29.1798 14.5242 29.0555 14.5242ZM3.57427 14.5242H0.94458C0.686768 14.5242 0.47583 14.7352 0.47583 14.993C0.47583 15.2508 0.686768 15.4617 0.94458 15.4617H3.57427C3.83208 15.4617 4.04302 15.2508 4.04302 14.993C4.04302 14.7352 3.83208 14.5242 3.57427 14.5242ZM23.4118 22.7414C23.229 22.5586 22.9313 22.5586 22.7485 22.7414C22.5657 22.9242 22.5657 23.2219 22.7485 23.4047L24.6071 25.2633C24.6985 25.3547 24.818 25.4016 24.9376 25.4016C25.0571 25.4016 25.1766 25.3547 25.268 25.2633C25.4508 25.0805 25.4508 24.7828 25.268 24.6L23.4118 22.7414ZM5.39302 4.72266C5.21021 4.53984 4.91255 4.53984 4.72974 4.72266C4.54692 4.90547 4.54692 5.20312 4.72974 5.38594L6.58833 7.24453C6.67974 7.33594 6.79927 7.38281 6.9188 7.38281C7.03833 7.38281 7.15786 7.33594 7.24927 7.24453C7.43208 7.06172 7.43208 6.76406 7.24927 6.58125L5.39302 4.72266Z" fill="url(#paint4_linear_12332_29515)"/>
<path d="M15 0.46875C14.7422 0.46875 14.5313 0.679687 14.5313 0.9375V3.56719C14.5313 3.825 14.7422 4.03594 15 4.03594C15.2579 4.03594 15.4688 3.825 15.4688 3.56719V0.9375C15.4688 0.679687 15.2579 0.46875 15 0.46875ZM15 25.9523C14.7422 25.9523 14.5313 26.1633 14.5313 26.4211V29.0508C14.5313 29.3086 14.7422 29.5195 15 29.5195C15.2579 29.5195 15.4688 29.3086 15.4688 29.0508V26.4211C15.4688 26.2968 15.4194 26.1775 15.3315 26.0896C15.2436 26.0017 15.1244 25.9523 15 25.9523ZM24.6071 4.72266L22.7485 6.58125C22.683 6.64685 22.6384 6.73037 22.6202 6.82128C22.6021 6.9122 22.6113 7.00645 22.6466 7.09215C22.682 7.17786 22.7419 7.25119 22.8188 7.30292C22.8957 7.35464 22.9863 7.38244 23.079 7.38281C23.1985 7.38281 23.318 7.33594 23.4094 7.24453L25.268 5.38594C25.4508 5.20312 25.4508 4.90547 25.268 4.72266C25.0852 4.53984 24.7899 4.53984 24.6071 4.72266ZM6.58833 22.7414L4.72974 24.6C4.66423 24.6656 4.6196 24.7491 4.60148 24.84C4.58335 24.9309 4.59253 25.0252 4.62786 25.1109C4.6632 25.1966 4.72311 25.2699 4.80004 25.3217C4.87698 25.3734 4.9675 25.4012 5.06021 25.4016C5.17974 25.4016 5.29927 25.3547 5.39067 25.2633L7.24927 23.4047C7.43208 23.2219 7.43208 22.9242 7.24927 22.7414C7.06646 22.5586 6.77114 22.5586 6.58833 22.7414ZM29.0555 14.5242H26.4258C26.168 14.5242 25.9571 14.7352 25.9571 14.993C25.9571 15.2508 26.168 15.4617 26.4258 15.4617H29.0555C29.1798 15.4617 29.2991 15.4123 29.387 15.3244C29.4749 15.2365 29.5243 15.1173 29.5243 14.993C29.5243 14.8686 29.4749 14.7494 29.387 14.6615C29.2991 14.5736 29.1798 14.5242 29.0555 14.5242ZM3.57427 14.5242H0.94458C0.686768 14.5242 0.47583 14.7352 0.47583 14.993C0.47583 15.2508 0.686768 15.4617 0.94458 15.4617H3.57427C3.83208 15.4617 4.04302 15.2508 4.04302 14.993C4.04302 14.7352 3.83208 14.5242 3.57427 14.5242ZM23.4118 22.7414C23.229 22.5586 22.9313 22.5586 22.7485 22.7414C22.5657 22.9242 22.5657 23.2219 22.7485 23.4047L24.6071 25.2633C24.6985 25.3547 24.818 25.4016 24.9376 25.4016C25.0571 25.4016 25.1766 25.3547 25.268 25.2633C25.4508 25.0805 25.4508 24.7828 25.268 24.6L23.4118 22.7414ZM5.39302 4.72266C5.21021 4.53984 4.91255 4.53984 4.72974 4.72266C4.54692 4.90547 4.54692 5.20312 4.72974 5.38594L6.58833 7.24453C6.67974 7.33594 6.79927 7.38281 6.9188 7.38281C7.03833 7.38281 7.15786 7.33594 7.24927 7.24453C7.43208 7.06172 7.43208 6.76406 7.24927 6.58125L5.39302 4.72266Z" fill="url(#paint5_linear_12332_29515)" fill-opacity="0.2"/>
<defs>
<linearGradient id="paint0_linear_12332_29515" x1="13.4607" y1="22.8468" x2="16.1449" y2="7.66807" gradientUnits="userSpaceOnUse">
<stop stop-color="#6E40F9"/>
<stop offset="0.457887" stop-color="#A569FB"/>
<stop offset="1" stop-color="#CE89FF"/>
</linearGradient>
<linearGradient id="paint1_linear_12332_29515" x1="13.4542" y1="48.5943" x2="6.34829" y2="47.2029" gradientUnits="userSpaceOnUse">
<stop stop-color="white" stop-opacity="0"/>
<stop offset="1" stop-color="#8E00FF"/>
</linearGradient>
<linearGradient id="paint2_linear_12332_29515" x1="13.9555" y1="22.8469" x2="16.4976" y2="8.4697" gradientUnits="userSpaceOnUse">
<stop stop-color="#6E40F9"/>
<stop offset="0.457887" stop-color="#A569FB"/>
<stop offset="1" stop-color="#CE89FF"/>
</linearGradient>
<linearGradient id="paint3_linear_12332_29515" x1="13.9493" y1="47.2344" x2="7.21779" y2="45.916" gradientUnits="userSpaceOnUse">
<stop stop-color="white" stop-opacity="0"/>
<stop offset="1" stop-color="#8E00FF"/>
</linearGradient>
<linearGradient id="paint4_linear_12332_29515" x1="12.1535" y1="29.5195" x2="17.1181" y2="1.4473" gradientUnits="userSpaceOnUse">
<stop stop-color="#6E40F9"/>
<stop offset="0.457887" stop-color="#A569FB"/>
<stop offset="1" stop-color="#CE89FF"/>
</linearGradient>
<linearGradient id="paint5_linear_12332_29515" x1="12.1413" y1="77.1382" x2="-0.999662" y2="74.5652" gradientUnits="userSpaceOnUse">
<stop stop-color="white" stop-opacity="0"/>
<stop offset="1" stop-color="#8E00FF"/>
</linearGradient>
</defs>
</svg>
