<svg width="20" height="21" viewBox="0 0 20 21" fill="none" xmlns="http://www.w3.org/2000/svg">
<g opacity="0.6" clip-path="url(#clip0_13547_139127)">
<path d="M9.99961 16.2C12.8913 16.2 15.2355 13.8558 15.2355 10.9641C15.2355 8.07236 12.8913 5.72815 9.99961 5.72815C7.10788 5.72815 4.76367 8.07236 4.76367 10.9641C4.76367 13.8558 7.10788 16.2 9.99961 16.2Z" fill="url(#paint0_linear_13547_139127)"/>
<path d="M12.3379 6.28125C12.691 6.98594 12.8895 7.77969 12.8895 8.62031C12.8895 11.5109 10.5457 13.8562 7.65352 13.8562C6.81289 13.8562 6.01758 13.6562 5.31445 13.3047C6.17539 15.0203 7.94883 16.2 9.99883 16.2C12.8895 16.2 15.2348 13.8562 15.2348 10.9641C15.2348 8.91406 14.0551 7.14062 12.3379 6.28125Z" fill="url(#paint1_linear_13547_139127)"/>
<path d="M9.99922 1.28125C9.82734 1.28125 9.68672 1.42187 9.68672 1.59375V3.34687C9.68672 3.51875 9.82734 3.65937 9.99922 3.65937C10.1711 3.65937 10.3117 3.51875 10.3117 3.34687V1.59375C10.3117 1.42187 10.1711 1.28125 9.99922 1.28125ZM9.99922 18.2703C9.82734 18.2703 9.68672 18.4109 9.68672 18.5828V20.3359C9.68672 20.5078 9.82734 20.6484 9.99922 20.6484C10.1711 20.6484 10.3117 20.5078 10.3117 20.3359V18.5828C10.3117 18.4999 10.2788 18.4204 10.2202 18.3618C10.1616 18.3032 10.0821 18.2703 9.99922 18.2703ZM16.4039 4.11719L15.1648 5.35625C15.1212 5.39998 15.0914 5.45566 15.0793 5.51627C15.0673 5.57688 15.0734 5.63971 15.0969 5.69685C15.1205 5.75399 15.1604 5.80288 15.2117 5.83736C15.263 5.87184 15.3234 5.89038 15.3852 5.89062C15.4648 5.89062 15.5445 5.85937 15.6055 5.79844L16.8445 4.55937C16.9664 4.4375 16.9664 4.23906 16.8445 4.11719C16.7227 3.99531 16.5258 3.99531 16.4039 4.11719ZM4.39141 16.1297L3.15234 17.3687C3.10867 17.4125 3.07892 17.4682 3.06684 17.5288C3.05475 17.5894 3.06087 17.6522 3.08443 17.7094C3.10799 17.7665 3.14793 17.8154 3.19922 17.8499C3.25051 17.8843 3.31085 17.9029 3.37266 17.9031C3.45234 17.9031 3.53203 17.8719 3.59297 17.8109L4.83203 16.5719C4.95391 16.45 4.95391 16.2516 4.83203 16.1297C4.71016 16.0078 4.51328 16.0078 4.39141 16.1297ZM19.3695 10.6516H17.6164C17.4445 10.6516 17.3039 10.7922 17.3039 10.9641C17.3039 11.1359 17.4445 11.2766 17.6164 11.2766H19.3695C19.4524 11.2766 19.5319 11.2436 19.5905 11.185C19.6491 11.1264 19.682 11.0469 19.682 10.9641C19.682 10.8812 19.6491 10.8017 19.5905 10.7431C19.5319 10.6845 19.4524 10.6516 19.3695 10.6516ZM2.38203 10.6516H0.628906C0.457031 10.6516 0.316406 10.7922 0.316406 10.9641C0.316406 11.1359 0.457031 11.2766 0.628906 11.2766H2.38203C2.55391 11.2766 2.69453 11.1359 2.69453 10.9641C2.69453 10.7922 2.55391 10.6516 2.38203 10.6516ZM15.607 16.1297C15.4852 16.0078 15.2867 16.0078 15.1648 16.1297C15.043 16.2516 15.043 16.45 15.1648 16.5719L16.4039 17.8109C16.4648 17.8719 16.5445 17.9031 16.6242 17.9031C16.7039 17.9031 16.7836 17.8719 16.8445 17.8109C16.9664 17.6891 16.9664 17.4906 16.8445 17.3687L15.607 16.1297ZM3.59453 4.11719C3.47266 3.99531 3.27422 3.99531 3.15234 4.11719C3.03047 4.23906 3.03047 4.4375 3.15234 4.55937L4.39141 5.79844C4.45234 5.85937 4.53203 5.89062 4.61172 5.89062C4.69141 5.89062 4.77109 5.85937 4.83203 5.79844C4.95391 5.67656 4.95391 5.47812 4.83203 5.35625L3.59453 4.11719Z" fill="url(#paint2_linear_13547_139127)"/>
</g>
<defs>
<linearGradient id="paint0_linear_13547_139127" x1="9.99961" y1="5.72815" x2="9.99961" y2="16.2" gradientUnits="userSpaceOnUse">
<stop stop-color="#F95D11"/>
<stop offset="1" stop-color="#FCCB6C"/>
</linearGradient>
<linearGradient id="paint1_linear_13547_139127" x1="10.2746" y1="6.28125" x2="10.2746" y2="16.2" gradientUnits="userSpaceOnUse">
<stop stop-color="#F95D11"/>
<stop offset="1" stop-color="#FCCB6C"/>
</linearGradient>
<linearGradient id="paint2_linear_13547_139127" x1="9.99922" y1="1.28125" x2="9.99922" y2="20.6484" gradientUnits="userSpaceOnUse">
<stop stop-color="#F95D11"/>
<stop offset="1" stop-color="#FCCB6C"/>
</linearGradient>
<clipPath id="clip0_13547_139127">
<rect width="20" height="20" fill="white" transform="translate(0 0.96875)"/>
</clipPath>
</defs>
</svg>
