<svg width="51" height="50" viewBox="0 0 51 50" fill="none" xmlns="http://www.w3.org/2000/svg">
<circle cx="25.7148" cy="25" r="25" fill="#FFCE6D"/>
<circle cx="25.7148" cy="25" r="25" fill="url(#paint0_linear_11099_81250)"/>
<circle cx="25.7148" cy="25" r="25" fill="url(#paint1_linear_11099_81250)"/>
<path d="M19.9332 32.2729C20.6604 30.0911 21.879 31.2433 22.6604 31.8184C23.8956 32.7273 28.5697 32.7276 30.3879 31.8184C32.4705 30.7769 32.6607 31.5153 32.6607 32.2729C32.0904 38.6367 28.4348 39.5458 25.7268 39.5458C21.6239 39.0912 19.2059 34.4547 19.9332 32.2729Z" fill="#23191A"/>
<path d="M32.2792 25.4725C30.4611 26.1998 29.4005 24.8664 29.0974 24.1089C23.6477 16.3814 30.4631 10.4724 35.0065 10.0179C44.5522 9.56322 45.3096 17.8967 44.552 21.3815C44.0974 23.0482 42.4611 26.0179 39.552 24.5634C36.6429 23.1089 33.4914 24.5634 32.2792 25.4725Z" fill="white"/>
<path d="M32.0229 20.8875C32.3562 20.5159 34.9183 13.2022 40.0463 18.9996" stroke="black" stroke-width="3" stroke-linecap="round"/>
<path d="M18.6622 25.9447C20.4803 26.6719 21.5409 25.3386 21.844 24.581C27.2937 16.8536 20.4783 10.9446 15.9349 10.4901C6.38923 10.0354 5.63186 18.3688 6.38943 21.8537C6.84398 23.5204 8.48034 26.4901 11.3894 25.0356C14.2985 23.581 17.45 25.0356 18.6622 25.9447Z" fill="white"/>
<path d="M10.7169 19.9492C11.1389 19.6827 15.5994 13.3455 18.951 20.3222" stroke="black" stroke-width="3" stroke-linecap="round"/>
<defs>
<linearGradient id="paint0_linear_11099_81250" x1="25.7148" y1="0" x2="26" y2="77.5" gradientUnits="userSpaceOnUse">
<stop offset="0.0742085" stop-color="#FFFEC9"/>
<stop offset="1" stop-color="#D7D161"/>
</linearGradient>
<linearGradient id="paint1_linear_11099_81250" x1="26.1694" y1="6.81818" x2="31.1694" y2="108.636" gradientUnits="userSpaceOnUse">
<stop stop-color="#DCB8FF"/>
<stop offset="1" stop-color="white"/>
</linearGradient>
</defs>
</svg>
