<svg width="32" height="32" viewBox="0 0 32 32" fill="none" xmlns="http://www.w3.org/2000/svg">
<path d="M32 16C32 24.8366 24.8366 32 16 32C7.16344 32 0 24.8366 0 16C0 7.16344 7.16344 0 16 0C24.8366 0 32 7.16344 32 16Z" fill="#FF83A2"/>
<path d="M32 16C32 24.8366 24.8366 32 16 32C7.16344 32 0 24.8366 0 16C0 7.16344 7.16344 0 16 0C24.8366 0 32 7.16344 32 16Z" fill="url(#paint0_linear_11097_27444)"/>
<path d="M32 16C32 24.8366 24.8366 32 16 32C7.16344 32 0 24.8366 0 16C0 7.16344 7.16344 0 16 0C24.8366 0 32 7.16344 32 16Z" fill="url(#paint1_linear_11097_27444)"/>
<path fill-rule="evenodd" clip-rule="evenodd" d="M4.73819 14.9951C5.13217 14.7175 5.67665 14.8117 5.95432 15.2057C7.58478 17.5191 10.5387 20.2327 14.0747 21.0141C17.5005 21.7711 21.7126 20.764 26.0804 15.1713C26.3771 14.7914 26.9255 14.724 27.3054 15.0207C27.6853 15.3174 27.7527 15.8658 27.4561 16.2457C22.7714 22.244 17.9218 23.6517 13.6981 22.7184C9.58446 21.8094 6.30103 18.7275 4.52761 16.2113C4.24994 15.8173 4.34422 15.2728 4.73819 14.9951Z" fill="black"/>
<path d="M20.5404 13.2884C19.4642 13.6122 18.8364 13.0186 18.6571 12.6813C15.4314 9.24109 19.4654 6.61047 22.1547 6.40811C27.8048 6.2057 28.2531 9.91568 27.8047 11.4671C27.5356 12.2091 26.5671 13.5312 24.8452 12.8837C23.1233 12.2361 21.2579 12.8837 20.5404 13.2884Z" fill="white"/>
<path d="M22.4054 11.9279C23.5693 11.3462 24.7132 10.1046 24.4418 9.01877C24.2091 8.08799 22.9873 8.24305 22.4054 8.43695C21.009 7.73877 20.2722 8.53393 20.0781 9.01877C19.6127 10.4151 21.4357 11.54 22.4054 11.9279Z" fill="black"/>
<path d="M12.0533 13.2884C13.1295 13.6122 13.7573 13.0186 13.9367 12.6813C17.1624 9.24109 13.1283 6.61047 10.4391 6.40811C4.78895 6.2057 4.34066 9.91568 4.78907 11.4671C5.05812 12.2091 6.02669 13.5312 7.74859 12.8837C9.47049 12.2361 11.3359 12.8837 12.0533 13.2884Z" fill="white"/>
<path d="M10.1883 11.9279C9.02442 11.3462 7.88054 10.1046 8.15199 9.01877C8.38468 8.08799 9.60643 8.24305 10.1883 8.43695C11.5847 7.73877 12.3216 8.53393 12.5156 9.01877C12.9811 10.4151 11.158 11.54 10.1883 11.9279Z" fill="black"/>
<defs>
<linearGradient id="paint0_linear_11097_27444" x1="16.2909" y1="4.36364" x2="19.4909" y2="69.5273" gradientUnits="userSpaceOnUse">
<stop stop-color="#FFB8E5"/>
<stop offset="1" stop-color="#B85B71"/>
</linearGradient>
<linearGradient id="paint1_linear_11097_27444" x1="16.2909" y1="4.36364" x2="19.4909" y2="69.5273" gradientUnits="userSpaceOnUse">
<stop stop-color="#DCB8FF"/>
<stop offset="1" stop-color="white"/>
</linearGradient>
</defs>
</svg>
