<svg width="33" height="32" viewBox="0 0 33 32" fill="none" xmlns="http://www.w3.org/2000/svg">
<path fill-rule="evenodd" clip-rule="evenodd" d="M16.499 9.68265C17.3759 8.79943 18.5076 8.48485 19.5928 8.50056C22.2012 8.5383 24.8339 10.6669 24.8339 13.7505C24.8339 16.7165 22.9368 19.1859 21.0604 20.8647C20.111 21.7141 19.1373 22.3884 18.3465 22.8529C17.9514 23.0849 17.5952 23.2685 17.3046 23.3964C17.1598 23.4601 17.0239 23.5132 16.9029 23.5516C16.7976 23.585 16.6492 23.6254 16.5003 23.6254C16.3515 23.6254 16.2031 23.585 16.0978 23.5516C15.9768 23.5132 15.8409 23.4601 15.6961 23.3964C15.4055 23.2685 15.0493 23.0849 14.6542 22.8529C13.8634 22.3884 12.8896 21.7141 11.9402 20.8647C10.0639 19.1859 8.16675 16.7165 8.16675 13.7505C8.16675 10.6742 10.7933 8.50049 13.4169 8.50049C14.4727 8.50049 15.6152 8.80115 16.499 9.68265ZM19.5747 9.75043C18.5766 9.73598 17.6464 10.0748 17.0204 11.0139C16.9044 11.1877 16.7093 11.2922 16.5003 11.2922C16.2914 11.2922 16.0962 11.1877 15.9803 11.0139C15.3581 10.0805 14.411 9.75049 13.4169 9.75049C11.4153 9.75049 9.41675 11.4309 9.41675 13.7505C9.41675 16.1802 10.9885 18.3359 12.7737 19.9331C13.6551 20.7217 14.5603 21.3481 15.2872 21.775C15.6508 21.9886 15.9631 22.1482 16.1995 22.2522C16.3182 22.3044 16.4104 22.3394 16.4757 22.3601C16.485 22.363 16.4932 22.3655 16.5003 22.3676C16.5075 22.3655 16.5157 22.363 16.525 22.3601C16.5903 22.3394 16.6825 22.3044 16.8012 22.2522C17.0375 22.1482 17.3498 21.9886 17.7135 21.775C18.4403 21.3481 19.3456 20.7217 20.2269 19.9331C22.0122 18.3359 23.5839 16.1802 23.5839 13.7505C23.5839 11.4382 21.5914 9.77961 19.5747 9.75043Z" fill="#30303D"/>
<path fill-rule="evenodd" clip-rule="evenodd" d="M20.5 12C21.4053 12.093 21.9715 12.8108 21.9378 13.8165L20.5 12Z" fill="url(#paint0_linear_11099_96410)"/>
<path d="M20.5 12C21.4053 12.093 21.9715 12.8107 21.9378 13.8165" stroke="#30303D" stroke-linecap="round" stroke-linejoin="round"/>
<defs>
<linearGradient id="paint0_linear_11099_96410" x1="21.2196" y1="12" x2="21.2196" y2="13.8165" gradientUnits="userSpaceOnUse">
<stop stop-color="#F43386"/>
<stop offset="1" stop-color="#D23BD5"/>
</linearGradient>
</defs>
</svg>
