<svg width="65" height="34" viewBox="0 0 65 34" fill="none" xmlns="http://www.w3.org/2000/svg">
<g filter="url(#filter0_f_11099_49478)">
<path d="M33.0714 13.3909C29.5823 13.3909 26.7538 12.9941 26.7538 12.5048C26.7538 12.393 26.9012 12.2862 27.1702 12.1877C27.1654 12.2172 27.1612 12.2467 27.1576 12.2764C27.1502 12.3376 27.1465 12.4042 27.18 12.4559C27.2094 12.5013 27.2617 12.5257 27.3116 12.5467C27.8922 12.7906 28.5107 12.8754 29.1405 12.8753C29.7293 12.8753 30.3279 12.8012 30.9143 12.7136C31.2897 12.8007 31.7093 12.8279 32.1622 12.8572L32.2593 12.8636C32.4277 12.8745 32.593 12.88 32.7557 12.88C34.1433 12.88 35.3154 12.4815 36.1499 11.7308C38.0826 11.8823 39.3891 12.1721 39.3891 12.5048C39.3891 12.9941 36.5606 13.3909 33.0714 13.3909ZM29.1034 12.3873C28.7746 12.3873 28.4464 12.3614 28.1224 12.3026C28.035 12.2867 27.9433 12.2661 27.8782 12.2057C27.8257 12.1571 27.7989 12.0896 27.7919 12.018C28.2633 11.9176 28.8763 11.8314 29.591 11.7652C29.7255 11.9999 29.8814 12.1808 30.0564 12.3213C29.74 12.3631 29.4215 12.3873 29.1034 12.3873Z" fill="black" fill-opacity="0.5"/>
</g>
<path d="M29.9803 6.17362C30.1073 6.50324 30.0252 6.73346 29.9307 6.84626C29.8559 6.9356 29.7607 7.00581 29.6063 7.00462C29.4436 7.00339 29.1853 6.89812 29.0132 6.65341C28.943 6.55355 28.8619 6.41988 28.6897 6.34472C28.6939 6.3025 28.7363 6.27466 28.7967 6.25646C28.7521 6.16676 28.6891 6.06809 28.5624 5.93968C28.5611 5.93834 28.9176 5.59903 29.6357 5.84395C29.681 5.74569 29.7662 5.72523 29.8504 5.76363C29.7937 5.9471 29.895 5.95257 29.9803 6.17362Z" fill="#C4612B"/>
<path d="M29.6063 7.00462C29.4437 7.00344 29.1852 6.89822 29.0132 6.65346C28.9431 6.55401 28.8625 6.4207 28.6914 6.34544C28.6908 6.34508 28.6901 6.34477 28.6897 6.34456C28.6903 6.33817 28.6918 6.33209 28.6941 6.32642C28.7005 6.311 28.7126 6.29791 28.7289 6.28662C28.7469 6.27445 28.7701 6.26461 28.7967 6.25656C28.752 6.16681 28.6891 6.06809 28.5624 5.93973C28.5626 5.93927 28.5699 5.93189 28.5845 5.92055C28.5868 5.91859 28.5896 5.91669 28.5926 5.91447C28.6025 5.907 28.6149 5.89854 28.6296 5.88911C28.6326 5.88725 28.6357 5.88519 28.639 5.88323C28.646 5.87916 28.6532 5.87478 28.6612 5.87034C28.6646 5.86828 28.6684 5.86637 28.6721 5.86441C28.6971 5.85091 28.7264 5.83699 28.76 5.82369C28.9351 5.75446 29.2268 5.70471 29.6357 5.844C29.6811 5.74579 29.7662 5.72528 29.8505 5.76363C29.7936 5.94715 29.8949 5.95257 29.9803 6.17367C30.0853 6.44658 30.0473 6.65124 29.9774 6.77749V6.7779C29.9629 6.80414 29.947 6.82703 29.9307 6.84641C29.8558 6.9356 29.7607 7.00586 29.6063 7.00462Z" fill="#C4612B"/>
<path d="M29.6063 7.00462C29.4437 7.00344 29.1852 6.89822 29.0132 6.65346C28.9431 6.55402 28.8625 6.4207 28.6914 6.34544C28.6908 6.34508 28.6901 6.34477 28.6897 6.34456C28.6903 6.33817 28.6918 6.33209 28.6941 6.32642C28.7005 6.311 28.7126 6.29791 28.7289 6.28662C28.7469 6.27445 28.7701 6.26461 28.7967 6.25657C28.752 6.16682 28.6891 6.06809 28.5624 5.93973C28.5626 5.93927 28.5699 5.9319 28.5845 5.92056C28.5868 5.9186 28.5896 5.91669 28.5926 5.91447C28.6025 5.907 28.6149 5.89854 28.6296 5.88911C28.6326 5.88725 28.6357 5.88519 28.639 5.88323C28.646 5.87916 28.6532 5.87478 28.6612 5.87034C28.6646 5.86828 28.6684 5.86638 28.6721 5.86442C28.6971 5.85091 28.7264 5.83699 28.76 5.82369C28.9351 5.75446 29.2268 5.70471 29.6357 5.844C29.6371 5.84106 29.6383 5.83838 29.6397 5.83565C29.6576 5.80034 29.6809 5.77616 29.7076 5.76173C29.7095 5.76075 29.7113 5.75982 29.7132 5.75879C29.7519 5.74023 29.7967 5.74167 29.8418 5.75997C29.8447 5.76111 29.8476 5.76229 29.8505 5.76363C29.7936 5.94716 29.8949 5.95257 29.9803 6.17367C30.0853 6.44658 30.0473 6.65124 29.9774 6.77749V6.7779C29.9629 6.80414 29.947 6.82703 29.9307 6.84641C29.9128 6.86776 29.8937 6.88807 29.8728 6.90652C29.8069 6.96509 29.7236 7.0055 29.6063 7.00462Z" fill="#666566"/>
<path d="M29.6063 7.00462C29.4437 7.00344 29.1852 6.89822 29.0132 6.65346C28.9431 6.55401 28.8625 6.4207 28.6914 6.34544C28.6908 6.34508 28.6901 6.34477 28.6897 6.34456C28.6903 6.33817 28.6918 6.33209 28.6941 6.32642C28.7005 6.311 28.7125 6.29775 28.7289 6.28662C28.7469 6.27445 28.7701 6.26461 28.7967 6.25656C28.752 6.16681 28.6891 6.06809 28.5624 5.93973C28.5626 5.93927 28.5699 5.93189 28.5845 5.92055C28.5868 5.91859 28.5896 5.91669 28.5926 5.91447C28.6025 5.907 28.6149 5.89854 28.6296 5.88911C28.6326 5.88725 28.6357 5.88519 28.639 5.88323C28.646 5.87916 28.6532 5.87478 28.6612 5.87029C28.6646 5.86828 28.6684 5.86637 28.6721 5.86441C28.6971 5.85091 28.7264 5.83699 28.76 5.82369C28.6979 5.8854 28.701 5.94045 28.7696 5.99345C28.9066 6.09933 29.0523 6.15449 29.1507 6.29497C29.0294 6.32982 29.1608 6.53391 29.2218 6.56855C29.4607 6.70413 29.6131 6.54267 29.7852 6.55597C29.965 6.56994 29.9773 6.77775 29.9774 6.7779C29.9629 6.80414 29.947 6.82703 29.9307 6.84641C29.8558 6.9356 29.7607 7.00586 29.6063 7.00462Z" fill="#595959"/>
<path d="M28.8018 6.32769C28.9231 6.40461 28.9949 6.50843 29.05 6.58803L29.0684 6.61442C29.2228 6.83398 29.4551 6.93522 29.6056 6.93636C29.6067 6.93636 29.6079 6.93636 29.609 6.93636C29.718 6.93636 29.7982 6.89625 29.8765 6.80274C29.92 6.75077 30.0513 6.5538 29.9146 6.19923C29.8863 6.12582 29.8566 6.07906 29.8303 6.03782C29.7893 5.97328 29.7529 5.91595 29.7668 5.81522C29.7373 5.81713 29.7142 5.83656 29.6971 5.87363C29.6823 5.90575 29.6457 5.92157 29.6121 5.91008C29.0918 5.73258 28.7804 5.87342 28.6638 5.94848C28.7708 6.06658 28.8231 6.15793 28.8572 6.22645C28.8663 6.24464 28.8669 6.26593 28.8588 6.28465C28.8507 6.30326 28.8348 6.31743 28.8154 6.32331C28.8104 6.3248 28.806 6.32625 28.8018 6.32769ZM29.6089 7.07446C29.6074 7.07446 29.606 7.07441 29.6045 7.07441C29.4136 7.07297 29.1389 6.95476 28.9554 6.69386L28.9365 6.66664C28.8725 6.57426 28.8 6.46951 28.6608 6.40873C28.6334 6.39677 28.6168 6.36847 28.6197 6.33867C28.6232 6.30362 28.641 6.25933 28.699 6.22402C28.6619 6.16108 28.6069 6.08509 28.5119 5.98895C28.4894 5.96611 28.4856 5.9307 28.5027 5.90353C28.5053 5.8994 28.8621 5.53154 29.604 5.76217C29.6687 5.67835 29.7725 5.65356 29.8778 5.7016C29.9094 5.71599 29.9253 5.75161 29.9151 5.78481C29.8883 5.87157 29.9019 5.89291 29.9469 5.96374C29.9751 6.00813 30.0102 6.06334 30.0434 6.14953C30.2073 6.57462 30.0381 6.82485 29.9824 6.8914C29.9164 6.97012 29.8061 7.07441 29.6089 7.07446Z" fill="#371B45"/>
<path d="M29.6987 5.85397C29.6714 5.91279 29.646 5.97491 29.6272 6.03734C29.6212 6.05853 29.6155 6.07987 29.6137 6.10229C29.6041 6.08167 29.5982 6.05915 29.5927 6.03672C29.5771 5.96837 29.5685 5.90021 29.5627 5.83005C29.5587 5.78989 29.5888 5.75402 29.6291 5.75128C29.6829 5.74603 29.7231 5.80655 29.6987 5.85397Z" fill="#371B45"/>
<path d="M28.7869 6.18752C28.9083 6.19835 29.0367 6.21598 29.1365 6.28923C29.0268 6.26155 28.9097 6.2914 28.8052 6.32439C28.6947 6.3563 28.6719 6.18582 28.7869 6.18752Z" fill="#371B45"/>
<path d="M29.8216 6.43677C29.7855 6.43677 29.7486 6.40279 29.7464 6.36191C29.7413 6.26345 29.7786 6.10256 29.798 6.10256C29.7985 6.10256 29.799 6.10266 29.7994 6.10287C29.8386 6.11901 29.9214 6.31872 29.8732 6.40357C29.8599 6.42708 29.8408 6.43677 29.8216 6.43677Z" fill="#A3A3A3"/>
<path d="M29.4064 6.03735C29.4046 6.03735 29.4027 6.03735 29.4009 6.0373C29.3291 6.03555 28.9544 5.9108 28.969 5.89631C28.99 5.87559 29.0792 5.86265 29.1776 5.86265C29.2934 5.86265 29.4219 5.88053 29.4664 5.92471C29.5205 5.97843 29.4979 6.03735 29.4064 6.03735Z" fill="#A3A3A3"/>
<path d="M29.6546 6.6957C29.6676 6.93943 29.505 7.08991 29.3429 7.30024C29.2663 7.39963 29.1898 7.51227 29.1321 7.65419C28.7842 8.50901 29.7182 9.05762 29.7182 9.05762L30.0823 8.56257C29.7825 8.49865 29.615 8.36771 29.5448 8.20037C29.4336 7.93638 29.5641 7.58119 29.7969 7.25245C29.992 6.97722 29.9285 6.77029 29.8225 6.63543C29.7662 6.56352 29.6496 6.60471 29.6546 6.6957Z" fill="url(#paint0_linear_11099_49478)"/>
<path d="M29.6546 6.6957C29.6676 6.93943 29.505 7.08991 29.3429 7.30024C29.2663 7.39963 29.1898 7.51227 29.1321 7.65419C28.7842 8.50901 29.7182 9.05762 29.7182 9.05762L30.0823 8.56257C29.7825 8.49865 29.615 8.36771 29.5448 8.20037C29.4336 7.93638 29.5641 7.58119 29.7969 7.25245C29.992 6.97722 29.9285 6.77029 29.8225 6.63543C29.7662 6.56352 29.6496 6.60471 29.6546 6.6957Z" fill="url(#paint1_linear_11099_49478)" fill-opacity="0.2"/>
<path d="M29.3429 7.30024C29.2663 7.39963 29.1898 7.51227 29.1321 7.65419C28.7842 8.50901 29.7182 9.05762 29.7182 9.05762L30.0823 8.56257C29.7825 8.49865 29.615 8.36771 29.5448 8.20037C29.4483 8.16135 29.3444 8.07686 29.2878 7.89797C29.2191 7.68058 29.2775 7.46773 29.3429 7.30024Z" fill="#9D9FE6"/>
<path d="M29.7167 9.12769C29.7048 9.12769 29.6928 9.12464 29.6818 9.1182C29.6719 9.11243 28.7004 8.52892 29.0668 7.6293C29.1484 7.42887 29.2641 7.28576 29.3662 7.15946C29.4934 7.00228 29.5937 6.87815 29.5842 6.7005C29.5804 6.62915 29.6213 6.56673 29.6883 6.54152C29.7558 6.51615 29.8309 6.53719 29.8754 6.59379C29.9886 6.73803 30.0764 6.97656 29.8518 7.29355C29.6104 7.63409 29.5197 7.95165 29.6028 8.16481C29.6667 8.32849 29.8324 8.43999 30.0953 8.49613C30.1327 8.50407 30.1564 8.54078 30.1485 8.57805C30.1405 8.61537 30.1039 8.63908 30.0665 8.6312C29.7553 8.56475 29.556 8.42468 29.4741 8.21497C29.3724 7.95402 29.4665 7.59842 29.7391 7.21369C29.8799 7.01496 29.8892 6.8351 29.7667 6.679C29.7561 6.6655 29.7423 6.66869 29.737 6.67081C29.7265 6.67467 29.7215 6.6822 29.7221 6.69313C29.7345 6.92372 29.6078 7.08038 29.4736 7.24627C29.3775 7.36515 29.2686 7.49985 29.1946 7.68137C28.8736 8.46984 29.7158 8.97793 29.7517 8.99917C29.7846 9.0185 29.7956 9.06082 29.7762 9.09366C29.7633 9.11552 29.7403 9.12769 29.7167 9.12769Z" fill="#371B45"/>
<path d="M32.2653 12.7728C30.9434 12.6863 29.9321 12.6569 29.4396 11.1954C29.4079 11.0969 29.3835 10.9936 29.3659 10.887C29.2052 9.91288 29.6241 8.65766 30.4118 8.13214C31.0492 7.7068 31.6736 7.7287 32.2075 7.75067C32.5452 7.76453 32.8467 7.77845 33.0924 7.67916C33.1601 7.65164 33.2236 7.6157 33.2825 7.56874C33.2825 7.56874 33.1551 6.99482 33.8238 7.33893L37.1008 7.35991C38.0028 9.9833 36.3718 13.0414 32.2653 12.7728Z" fill="url(#paint2_linear_11099_49478)"/>
<path d="M32.2653 12.7728C30.9434 12.6863 29.9321 12.6569 29.4396 11.1954C29.4079 11.0969 29.3835 10.9936 29.3659 10.887C29.2052 9.91288 29.6241 8.65766 30.4118 8.13214C31.0492 7.7068 31.6736 7.7287 32.2075 7.75067C32.5452 7.76453 32.8467 7.77845 33.0924 7.67916C33.1601 7.65164 33.2236 7.6157 33.2825 7.56874C33.2825 7.56874 33.1551 6.99482 33.8238 7.33893L37.1008 7.35991C38.0028 9.9833 36.3718 13.0414 32.2653 12.7728Z" fill="url(#paint3_linear_11099_49478)" fill-opacity="0.2"/>
<path d="M29.3877 9.90534C29.4202 10.0446 29.5673 10.1328 29.7099 10.1438C29.8525 10.1548 29.9922 10.1057 30.1268 10.0573C30.2757 10.0038 30.4246 9.9503 30.5735 9.89679C30.463 9.94432 30.3514 9.99252 30.2547 10.064C30.1036 10.1758 29.9961 10.339 29.8431 10.4481C29.7482 10.5157 29.6392 10.56 29.5312 10.6037C29.5036 10.6149 29.4748 10.6263 29.4451 10.6246C29.3906 10.6215 29.3469 10.5738 29.3307 10.5217C29.3146 10.4695 29.3201 10.4135 29.3258 10.3592C29.3417 10.2074 29.3576 10.0555 29.3735 9.90369C29.3628 9.91117 29.3522 9.91864 29.3416 9.92612L29.3877 9.90534Z" fill="#9D9FE6"/>
<path d="M29.4298 10.6262C29.4297 10.6248 29.4296 10.6234 29.4296 10.6219C29.4298 10.622 29.43 10.622 29.4302 10.6221C29.43 10.6234 29.4299 10.6248 29.4298 10.6262ZM29.5068 10.0715C29.4882 10.0584 29.471 10.0437 29.4557 10.0276C29.4792 9.86337 29.5161 9.69768 29.5662 9.53395C29.7442 8.95313 30.0713 8.46978 30.4637 8.20795C30.9396 7.8904 31.407 7.8322 31.84 7.8322C31.9692 7.8322 32.0955 7.8374 32.2179 7.8424C32.2969 7.8457 32.3741 7.84885 32.4491 7.85055C31.9207 7.89463 31.2675 7.90721 30.7233 8.22425C29.9775 8.65872 29.6491 9.3545 29.5068 10.0715Z" fill="#E7E8ED"/>
<path d="M29.4274 10.6213C29.4272 10.6213 29.427 10.6212 29.4268 10.6212C29.4151 10.43 29.4238 10.2296 29.4529 10.0268C29.4682 10.043 29.4854 10.0577 29.504 10.0707C29.4676 10.2542 29.4434 10.4391 29.4274 10.6213Z" fill="#DCDFE6"/>
<path d="M28.0742 10.68C28.1719 10.7279 28.1817 10.8626 28.1661 10.9703C28.1394 11.154 28.0789 11.3327 27.9885 11.4948C27.9249 11.6088 27.846 11.7162 27.807 11.8408C27.7679 11.9653 27.7781 12.1169 27.8739 12.2056C27.939 12.2661 28.0307 12.2866 28.1181 12.3025C28.9355 12.451 29.7793 12.3895 30.5952 12.2325C30.8823 12.1773 31.1796 12.1043 31.4007 11.9131C31.6219 11.7218 31.7376 11.3778 31.5851 11.1283C31.7513 11.2379 31.9175 11.3475 32.0837 11.4571C32.1737 11.5164 32.2654 11.5767 32.3689 11.607C32.5243 11.6524 32.6905 11.6266 32.85 11.5985C33.2138 11.5342 33.5804 11.4584 33.913 11.2976C34.2457 11.1369 34.5455 10.8814 34.6913 10.5419C34.834 10.2097 34.8297 9.80582 35.0693 9.53513C35.0001 10.3364 35.3335 11.1095 35.6081 11.8655C35.6211 11.9015 35.6342 11.9411 35.6213 11.9771C35.6099 12.0089 35.5809 12.0305 35.5532 12.0497C34.444 12.8191 32.9866 12.9253 31.6594 12.6786C31.5834 12.6645 31.507 12.6492 31.4297 12.6475C31.3515 12.6457 31.2737 12.6578 31.1964 12.6698C29.8973 12.8715 28.5193 13.0557 27.3072 12.5466C27.2573 12.5256 27.2051 12.5012 27.1757 12.4558C27.1422 12.4042 27.1459 12.3375 27.1533 12.2763C27.2328 11.6193 27.6134 11.0048 28.1661 10.6408L28.0742 10.68Z" fill="#9D9FE6"/>
<path d="M33.3553 7.37984C33.7018 7.8022 34.1482 8.1528 34.6648 8.33019C35.3092 8.5515 36.0245 8.4952 36.6661 8.72414C36.7368 8.7494 36.8075 8.77863 36.8661 8.8256C36.9481 8.89122 37.0005 8.98633 37.0446 9.08165C37.1255 9.25646 37.1858 9.44081 37.2237 9.62964C37.3342 9.27955 37.2941 8.90205 37.2529 8.53727C37.2261 8.29957 37.1993 8.06192 37.1724 7.82421C36.4092 7.78287 35.6479 7.70461 34.8922 7.58981C34.6664 7.55548 34.4402 7.51774 34.2223 7.44939C33.9424 7.36154 33.6536 7.22194 33.3693 7.29463" fill="#9D9FE6"/>
<path d="M31.8414 7.83198C31.4083 7.83198 30.9409 7.89018 30.4651 8.20773C30.0726 8.46956 29.7455 8.95291 29.5676 9.53373C29.393 10.1039 29.3791 10.6989 29.5294 11.1662C29.9897 12.5321 30.9068 12.5914 32.1762 12.6736L32.2735 12.6799C34.119 12.8009 35.6161 12.2379 36.4891 11.0954C37.2547 10.0935 37.4576 8.73551 37.0366 7.4506L33.8253 7.43008C33.8109 7.42998 33.7967 7.42647 33.7838 7.41988C33.5162 7.28213 33.4287 7.32286 33.4082 7.33868C33.3571 7.37812 33.3637 7.4988 33.3746 7.54783C33.3822 7.58216 33.3696 7.61783 33.3421 7.63974C33.0457 7.87621 32.6628 7.86048 32.2192 7.84218C32.0968 7.83718 31.9706 7.83198 31.8414 7.83198ZM32.7578 12.8801C32.5951 12.8801 32.4298 12.8747 32.2614 12.8637L32.1643 12.8573C30.8739 12.7738 29.8547 12.7078 29.3546 11.2238C29.1925 10.7203 29.2061 10.0851 29.3915 9.47981C29.5845 8.84996 29.9295 8.34378 30.3629 8.05457C31.0306 7.60902 31.6938 7.63639 32.2268 7.6582C32.6106 7.67397 32.9451 7.68779 33.1855 7.52643C33.1769 7.43869 33.1805 7.28172 33.2958 7.1929C33.4138 7.10186 33.5946 7.11923 33.8482 7.2461L37.1036 7.26687C37.1427 7.26713 37.1774 7.29203 37.19 7.32899C37.6581 8.69035 37.4508 10.1402 36.6355 11.2072C35.8042 12.295 34.4392 12.8801 32.7578 12.8801Z" fill="#371B45"/>
<path d="M33.3671 7.54646C33.4147 7.75081 33.5922 7.90315 33.7712 8.00099C33.8287 8.033 33.9158 8.06796 33.9782 8.09131C33.8273 8.0678 33.6722 8.02543 33.5387 7.94975C33.396 7.86835 33.2591 7.74679 33.1976 7.58915C33.1729 7.47641 33.3354 7.43527 33.3671 7.54646Z" fill="#371B45"/>
<path d="M32.7193 12.4392C32.7059 12.4259 32.6926 12.4127 32.6796 12.3993L32.7255 12.436C32.7234 12.4371 32.7214 12.4381 32.7193 12.4392Z" fill="#C2C7D4"/>
<path d="M32.2886 12.1825C32.0134 12.3919 31.626 12.5557 31.1795 12.6729C29.9747 12.9896 28.3395 12.9673 27.3155 12.5912C27.2511 12.5678 27.203 12.5173 27.1797 12.4559L27.1795 12.4552C27.1666 12.4218 27.1615 12.385 27.165 12.3477C27.2119 11.8639 27.4405 11.3848 27.7224 11.0308L27.7236 11.0294C27.7887 10.9477 27.8568 10.8726 27.9261 10.8057C27.9763 10.7574 28.034 10.7187 28.0966 10.6911C28.0973 10.6906 28.098 10.6904 28.0987 10.6902C28.1726 10.6577 28.2534 10.6405 28.3355 10.6405H29.377C29.5128 10.6405 29.6428 10.5871 29.7413 10.4934C30.0467 10.2027 30.3887 9.98937 30.7696 9.85792L31.6079 11.1406L32.2886 12.1825Z" fill="url(#paint4_linear_11099_49478)"/>
<path d="M32.2886 12.1825C32.0134 12.3919 31.626 12.5557 31.1795 12.6729C29.9747 12.9896 28.3395 12.9673 27.3155 12.5912C27.2511 12.5678 27.203 12.5173 27.1797 12.4559L27.1795 12.4552C27.1666 12.4218 27.1615 12.385 27.165 12.3477C27.2119 11.8639 27.4405 11.3848 27.7224 11.0308L27.7236 11.0294C27.7887 10.9477 27.8568 10.8726 27.9261 10.8057C27.9763 10.7574 28.034 10.7187 28.0966 10.6911C28.0973 10.6906 28.098 10.6904 28.0987 10.6902C28.1726 10.6577 28.2534 10.6405 28.3355 10.6405H29.377C29.5128 10.6405 29.6428 10.5871 29.7413 10.4934C30.0467 10.2027 30.3887 9.98937 30.7696 9.85792L31.6079 11.1406L32.2886 12.1825Z" fill="url(#paint5_linear_11099_49478)" fill-opacity="0.2"/>
<path d="M32.2846 12.1825C32.0093 12.3919 31.622 12.5557 31.1755 12.6729C29.8825 12.8736 28.5129 13.0529 27.3071 12.5466C27.2574 12.5256 27.2051 12.5012 27.1757 12.4559L27.1755 12.4552C27.1421 12.4034 27.146 12.3371 27.1534 12.2763C27.2088 11.8165 27.4121 11.3776 27.7184 11.0308L27.7195 11.0294C27.8312 10.9033 27.9564 10.7893 28.0931 10.6913C28.1732 10.7461 28.1805 10.8699 28.166 10.9702C28.1393 11.1539 28.0788 11.3327 27.9884 11.4948C27.9248 11.6087 27.8461 11.7162 27.807 11.8407C27.7679 11.9652 27.778 12.1169 27.8737 12.2057C27.9391 12.266 28.0307 12.2867 28.1182 12.3026C28.9354 12.451 29.7794 12.3894 30.5953 12.2326C30.8823 12.1774 31.1796 12.1042 31.4008 11.913C31.6218 11.7217 31.7375 11.3776 31.5852 11.1283C31.5914 11.1325 31.5976 11.1366 31.6038 11.1406L32.2846 12.1825Z" fill="#9D9FE6"/>
<path d="M27.1718 12.4705C27.2939 12.3987 27.4041 12.3066 27.4965 12.1993C27.5242 12.1672 27.5503 12.1336 27.57 12.0962C27.6682 12.158 27.7577 12.2385 27.8121 12.3411C27.8665 12.4437 27.882 12.5705 27.8356 12.6769C27.8297 12.6904 27.8225 12.7039 27.8108 12.7127C27.7847 12.7324 27.7478 12.7222 27.717 12.7113C27.6579 12.6902 27.5988 12.6692 27.5397 12.6482C27.4244 12.6071 27.3022 12.5611 27.2299 12.4624" fill="#EDEDED"/>
<path d="M38.0969 12.3278C38 12.3616 37.8955 12.3925 37.7857 12.4191C37.7406 12.4302 37.6946 12.4406 37.6481 12.4502C37.4343 12.4944 37.206 12.5236 36.9816 12.5329C36.7643 12.5416 36.5505 12.5317 36.356 12.4988C36.0159 12.4412 35.7252 12.2187 35.5832 11.9043C35.193 11.041 34.9887 10.2293 35.0867 9.50129L36.8644 8.82395L37.02 8.76483C37.0474 8.92958 37.0819 9.09785 37.1231 9.26951C37.2971 9.99592 37.5885 10.7828 37.9588 11.6099V11.6102C38.0322 11.7745 38.1091 11.9402 38.1885 12.1078C38.2292 12.1936 38.1866 12.2962 38.0969 12.3278Z" fill="url(#paint6_linear_11099_49478)"/>
<path d="M38.0969 12.3278C38 12.3616 37.8955 12.3925 37.7857 12.4191C37.7406 12.4302 37.6946 12.4406 37.6481 12.4502C37.4343 12.4944 37.206 12.5236 36.9816 12.5329C36.7643 12.5416 36.5505 12.5317 36.356 12.4988C36.0159 12.4412 35.7252 12.2187 35.5832 11.9043C35.193 11.041 34.9887 10.2293 35.0867 9.50129L36.8644 8.82395L37.02 8.76483C37.0474 8.92958 37.0819 9.09785 37.1231 9.26951C37.2971 9.99592 37.5885 10.7828 37.9588 11.6099V11.6102C38.0322 11.7745 38.1091 11.9402 38.1885 12.1078C38.2292 12.1936 38.1866 12.2962 38.0969 12.3278Z" fill="url(#paint7_linear_11099_49478)" fill-opacity="0.2"/>
<path d="M37.1257 9.26929C37.1027 9.20578 37.0769 9.14319 37.0484 9.08174C37.0042 8.98648 36.9518 8.89142 36.8698 8.82579C36.8689 8.82512 36.8679 8.82445 36.8671 8.82373L37.0226 8.7646C37.05 8.92936 37.0846 9.09762 37.1257 9.26929Z" fill="#9D9FE6"/>
<path d="M37.6438 12.4503C37.43 12.4945 37.2017 12.5237 36.9773 12.533C36.9727 12.3702 36.987 12.2068 37.0201 12.0476C37.0291 12.0038 37.0399 11.9597 37.0622 11.9207C37.0846 11.8821 37.1202 11.8489 37.1637 11.839C37.2438 11.8209 37.3186 11.883 37.3722 11.9452C37.4981 12.0913 37.5911 12.265 37.6438 12.4503Z" fill="white"/>
<path d="M35.1952 9.52081C35.214 9.99204 35.2856 10.4612 35.4085 10.9165C35.5198 11.3288 35.675 11.7338 35.9162 12.0863C35.9699 12.1648 36.0285 12.2413 36.103 12.3002C36.2908 12.4489 36.5476 12.4655 36.7868 12.4758C36.5975 12.3411 36.4507 12.1557 36.3161 11.9665C35.7957 11.2353 35.4161 10.4042 35.2042 9.53205" fill="#9D9FE6"/>
<path d="M38.0941 12.3264C37.9973 12.3602 37.8928 12.3911 37.783 12.4177C37.7602 12.2976 37.739 12.1763 37.7424 12.0543C37.7461 11.9247 37.7798 11.7927 37.8598 11.6909C37.8859 11.658 37.919 11.6279 37.956 11.6088C38.0295 11.7731 38.1063 11.9388 38.1857 12.1064C38.2265 12.1922 38.1839 12.2948 38.0941 12.3264Z" fill="white"/>
<path d="M34.2817 1.42416C33.7827 0.837455 33.2934 0.38628 32.8184 0.136617C32.6006 0.0220704 32.3324 0.155484 32.2906 0.398084C32.1806 1.03572 32.265 1.99024 32.3484 2.94312L34.2817 1.42416Z" fill="url(#paint8_linear_11099_49478)"/>
<path d="M34.2817 1.42416C33.7827 0.837455 33.2934 0.38628 32.8184 0.136617C32.6006 0.0220704 32.3324 0.155484 32.2906 0.398084C32.1806 1.03572 32.265 1.99024 32.3484 2.94312L34.2817 1.42416Z" fill="url(#paint9_linear_11099_49478)" fill-opacity="0.2"/>
<path d="M34.2817 1.42416C33.7827 0.837455 33.2934 0.38628 32.8184 0.136617C32.6006 0.0220704 32.3324 0.155484 32.2906 0.398084C32.1806 1.03572 32.265 1.99024 32.3484 2.94312L34.2817 1.42416Z" fill="#9D9FE6"/>
<path d="M32.6461 0.186709C32.6053 0.186709 32.5644 0.196194 32.5259 0.215165C32.4467 0.254189 32.3927 0.326051 32.3778 0.412348C32.2765 0.999671 32.3455 1.88548 32.4217 2.76164L34.1427 1.4094C33.6397 0.828676 33.1902 0.438382 32.7703 0.217691C32.7311 0.19707 32.6887 0.186709 32.6461 0.186709ZM32.3437 3.03491C32.3311 3.03491 32.3185 3.03239 32.3066 3.02723C32.2752 3.01357 32.2537 2.98382 32.2507 2.9497L32.2495 2.93537C32.1674 1.99719 32.0825 1.02704 32.194 0.380644C32.2191 0.234806 32.31 0.113455 32.4434 0.0477271C32.5762 -0.0177429 32.7269 -0.0159907 32.8572 0.0524693C33.316 0.293729 33.8037 0.722119 34.3481 1.36213C34.3645 1.38146 34.3724 1.40667 34.3698 1.43188C34.3673 1.45714 34.3546 1.48028 34.3346 1.49595L32.4013 3.01496C32.3846 3.02811 32.3642 3.03491 32.3437 3.03491Z" fill="#371B45"/>
<path d="M41.1146 1.67629C40.286 2.18263 41.3217 3.83969 39.7337 4.96742C39.7283 5.03232 39.721 5.09769 39.7113 5.16352C39.5143 6.51911 38.4181 8.00863 36.4425 8.07446C35.7449 8.06549 35.0807 7.99647 34.4632 7.84434C30.7987 6.68134 31.5799 1.85719 34.6625 0.851887C34.813 0.802604 34.9693 0.762599 35.1306 0.732648C37.1661 0.429528 37.7551 1.69516 38.6611 2.51678C38.8064 2.64844 39.0206 2.67675 39.1903 2.57844C39.8715 2.18397 39.5792 0.586037 40.9304 0.525516C41.2244 -0.0254631 41.713 0.341375 41.4368 0.893746C41.828 1.37709 41.5679 1.99271 41.1146 1.67629Z" fill="url(#paint10_linear_11099_49478)"/>
<path d="M41.1146 1.67629C40.286 2.18263 41.3217 3.83969 39.7337 4.96742C39.7283 5.03232 39.721 5.09769 39.7113 5.16352C39.5143 6.51911 38.4181 8.00863 36.4425 8.07446C35.7449 8.06549 35.0807 7.99647 34.4632 7.84434C30.7987 6.68134 31.5799 1.85719 34.6625 0.851887C34.813 0.802604 34.9693 0.762599 35.1306 0.732648C37.1661 0.429528 37.7551 1.69516 38.6611 2.51678C38.8064 2.64844 39.0206 2.67675 39.1903 2.57844C39.8715 2.18397 39.5792 0.586037 40.9304 0.525516C41.2244 -0.0254631 41.713 0.341375 41.4368 0.893746C41.828 1.37709 41.5679 1.99271 41.1146 1.67629Z" fill="url(#paint11_linear_11099_49478)" fill-opacity="0.2"/>
<path d="M39.7113 5.16352C39.5143 6.51911 38.4181 8.00863 36.4425 8.07446C35.7449 8.06549 35.0807 7.99647 34.4632 7.84434C30.7987 6.68134 31.5799 1.85718 34.6625 0.851884C33.8425 1.46545 33.3336 2.48224 33.3472 3.50806C33.3504 3.74509 33.3794 3.98171 33.4278 4.2139C33.6706 5.38334 34.4218 6.43787 35.4478 7.04937C35.7435 7.22567 36.0637 7.36744 36.4027 7.42682C37.1168 7.55179 37.8653 7.29197 38.425 6.8312C38.9847 6.37044 39.3707 5.72625 39.6262 5.04774C39.6565 5.08527 39.6848 5.12372 39.7113 5.16352Z" fill="#9D9FE6"/>
<path d="M38.9775 2.86694C38.8632 2.86694 38.7493 2.82519 38.6606 2.74662C37.8291 2.00996 37.2587 0.916505 35.6483 0.916505C35.4624 0.916505 35.2625 0.931093 35.0471 0.962436C34.8819 0.992388 34.722 1.03244 34.5679 1.08167C34.4714 1.11245 34.3771 1.14673 34.285 1.18447C34.3326 1.13534 34.3816 1.08786 34.4322 1.04188C34.5077 1.01074 34.5847 0.982283 34.6629 0.956662C34.9952 0.845879 35.3508 0.784585 35.7045 0.784585C36.2271 0.784585 36.7454 0.918411 37.1772 1.2239C37.615 1.52393 37.9623 1.95289 38.3342 2.33689C38.4134 2.41829 38.4972 2.50052 38.5816 2.57769C38.6005 2.59511 38.6213 2.61321 38.6423 2.628C38.751 2.70317 38.8607 2.73626 38.966 2.73621C39.2117 2.73621 39.4338 2.5565 39.5627 2.31215C39.8566 1.78628 39.8786 1.05734 40.4513 0.738034C40.5984 0.662718 40.7656 0.625085 40.9374 0.61694C40.9676 0.614156 40.996 0.59699 41.0118 0.568482C41.0536 0.492753 41.1067 0.416458 41.1787 0.372897C41.2105 0.353153 41.2401 0.344492 41.267 0.344492C41.3438 0.344492 41.3989 0.415169 41.4187 0.501465C41.3908 0.489196 41.3605 0.482753 41.3289 0.482753C41.2172 0.482753 41.0881 0.563275 40.9833 0.755303C39.6003 0.815876 39.8994 2.41381 39.2021 2.80828C39.1322 2.84792 39.0548 2.86694 38.9775 2.86694Z" fill="#E7E8ED"/>
<path d="M33.4511 1.6604C33.4504 1.65999 33.4497 1.65958 33.4491 1.65916C33.7401 1.40285 34.0705 1.19221 34.4325 1.04313C34.3819 1.08911 34.3329 1.13659 34.2854 1.18572C33.9819 1.30996 33.703 1.4708 33.4511 1.6604Z" fill="#DCDFE6"/>
<path d="M36.4418 8.03751C37.2457 7.96111 38.0461 7.66897 38.624 7.09185C39.1995 6.53005 39.5657 5.75941 39.6424 4.95908C39.6451 4.93098 39.6598 4.90701 39.6809 4.89149C39.7125 4.86917 39.7855 4.81087 39.8156 4.78927C40.262 4.42655 40.5037 3.97471 40.5835 3.40661C40.6293 3.10122 40.6272 2.79336 40.6513 2.48235C40.678 2.14113 40.7488 1.79352 41.0671 1.59691C41.0983 1.57495 41.1392 1.57768 41.1677 1.59995C41.3294 1.71573 41.4839 1.6912 41.5269 1.48561C41.5642 1.30059 41.4843 1.09645 41.3657 0.950869C41.3428 0.921639 41.3398 0.883079 41.3549 0.851736C41.3947 0.770594 41.4235 0.682442 41.4264 0.59331C41.4366 0.439997 41.3324 0.276941 41.179 0.372414C41.107 0.415974 41.0539 0.492269 41.0122 0.567998C40.9963 0.596506 40.9679 0.613672 40.9377 0.616456C40.7659 0.624601 40.5987 0.662234 40.4516 0.73755C39.879 1.05686 39.8569 1.78579 39.563 2.31167C39.3788 2.66082 39.0044 2.87801 38.6427 2.62752C38.6216 2.61272 38.6008 2.59463 38.5819 2.57721C38.4975 2.50003 38.4137 2.41781 38.3345 2.33641C37.9626 1.9524 37.6153 1.52345 37.1775 1.22342C36.4534 0.711156 35.4864 0.681668 34.6632 0.956178C33.1342 1.4571 32.1004 3.03622 32.111 4.62549C32.1158 6.17584 33.0541 7.28264 34.4758 7.80553C34.5231 7.82326 34.4995 7.89394 34.4516 7.88151C32.9229 7.49344 31.9346 6.19976 31.9298 4.62642C31.9088 2.54963 33.5566 0.585989 35.6974 0.586969C37.044 0.58269 37.641 1.29559 38.4777 2.19753C38.54 2.26166 38.6028 2.32486 38.6671 2.38559C38.7218 2.43833 38.7794 2.49344 38.8531 2.5172C39.1928 2.62999 39.4001 2.2496 39.5039 1.98261C39.7002 1.47643 39.8382 0.846014 40.3649 0.572586C40.5417 0.482578 40.7367 0.440925 40.9268 0.432728L40.8497 0.48134C41.2181 -0.187175 41.847 0.293179 41.5196 0.934115L41.5088 0.835033C41.546 0.882099 41.5803 0.931744 41.6097 0.984635C41.7277 1.20094 41.7782 1.49015 41.6278 1.70883C41.4863 1.90828 41.237 1.879 41.0624 1.75094L41.163 1.75399C41.1458 1.766 41.117 1.78677 41.1011 1.79749L41.0827 1.81445C40.8896 1.98602 40.8582 2.2463 40.8348 2.4974C40.7979 3.12824 40.8043 3.77933 40.453 4.34443C40.2851 4.62147 40.0489 4.85319 39.7876 5.04161L39.8259 4.97413C39.7304 6.24719 38.8813 7.44338 37.6819 7.90121C37.2866 8.05447 36.8617 8.12148 36.4442 8.10978C36.4241 8.10927 36.4084 8.09256 36.409 8.07256C36.4095 8.05405 36.4238 8.03921 36.4418 8.03751Z" fill="#371B45"/>
<path d="M41.5405 0.863687C41.4407 0.976997 41.3643 1.10897 41.3607 1.26465C41.3605 1.27553 41.3514 1.28414 41.3406 1.28393C41.3317 1.28373 41.3244 1.27764 41.3221 1.2696C41.2994 1.18949 41.2949 1.10129 41.3082 1.01509C41.3211 0.928074 41.3499 0.843943 41.3849 0.76476C41.4495 0.637944 41.628 0.751151 41.5405 0.863687Z" fill="#371B45"/>
<path d="M39.1219 2.56022C39.4012 2.78962 39.4616 3.19971 39.3589 3.52737C39.3441 3.57542 39.2719 3.55846 39.2804 3.50871C39.3089 3.35468 39.3041 3.19544 39.2589 3.05207C39.2144 2.90891 39.1272 2.78437 39.01 2.70647C38.905 2.63054 39.0205 2.47862 39.1219 2.56022Z" fill="#371B45"/>
<path d="M39.0665 5.24976C38.9889 5.24976 38.9148 5.24099 38.8465 5.22279C38.6513 5.17093 38.507 5.04757 38.4292 4.86611C38.4092 4.81935 38.4308 4.76528 38.4776 4.74522C38.5244 4.72522 38.5785 4.74687 38.5985 4.79358C38.6539 4.92297 38.7533 5.00752 38.8938 5.04484C39.1486 5.11258 39.5235 5.01133 39.8053 4.79868C39.8459 4.76801 39.9036 4.7761 39.9342 4.81673C39.9648 4.8573 39.9567 4.91503 39.9162 4.94566C39.6595 5.13933 39.3414 5.24976 39.0665 5.24976Z" fill="#371B45"/>
<path d="M38.3613 5.17725C38.2651 4.92604 38.4155 4.64782 38.6556 4.54858C38.6888 4.53312 38.7209 4.57559 38.6974 4.60322C38.6602 4.64864 38.6226 4.68993 38.5917 4.73282C38.4901 4.85938 38.4757 5.01904 38.439 5.17158C38.4311 5.21086 38.3744 5.21488 38.3613 5.17725Z" fill="#371B45"/>
<path d="M34.6085 6.94176C34.4078 6.64833 34.1459 6.4016 33.8453 6.21153C32.6754 5.47203 30.8147 4.64165 30.6791 2.68512C30.6593 2.39999 30.7252 2.13002 30.8536 1.89964C31.1118 1.4347 31.6234 1.13091 32.197 1.18844C32.7351 1.24251 33.3556 1.52445 33.9898 2.05635C34.4709 2.76059 34.9369 3.6099 35.3429 4.50148C35.5181 4.88584 35.6819 5.27799 35.831 5.66973C36.6941 7.09388 35.5344 8.29529 34.6085 6.94176Z" fill="url(#paint12_linear_11099_49478)"/>
<path d="M34.6085 6.94176C34.4078 6.64833 34.1459 6.4016 33.8453 6.21153C32.6754 5.47203 30.8147 4.64165 30.6791 2.68512C30.6593 2.39999 30.7252 2.13002 30.8536 1.89964C31.1118 1.4347 31.6234 1.13091 32.197 1.18844C32.7351 1.24251 33.3556 1.52445 33.9898 2.05635C34.4709 2.76059 34.9369 3.6099 35.3429 4.50148C35.5181 4.88584 35.6819 5.27799 35.831 5.66973C36.6941 7.09388 35.5344 8.29529 34.6085 6.94176Z" fill="url(#paint13_linear_11099_49478)" fill-opacity="0.2"/>
<path d="M30.6838 2.74146C30.6837 2.7414 30.6837 2.7413 30.6837 2.7412C30.6837 2.74135 30.6837 2.74135 30.6838 2.74146ZM30.6835 2.73857C30.6835 2.73847 30.6835 2.73831 30.6835 2.73826C30.6835 2.73836 30.6835 2.73841 30.6835 2.73857ZM30.6833 2.73568C30.6833 2.73553 30.6832 2.73532 30.6832 2.73511C30.6832 2.73537 30.6832 2.73548 30.6833 2.73568ZM30.683 2.7328C30.683 2.73259 30.683 2.73238 30.683 2.73218C30.683 2.73243 30.683 2.73254 30.683 2.7328ZM30.6828 2.72996C30.6828 2.72965 30.6828 2.72944 30.6827 2.72913C30.6828 2.7295 30.6828 2.7296 30.6828 2.72996ZM30.6823 2.72413C30.6823 2.72388 30.6822 2.72352 30.6822 2.72326C30.6822 2.72346 30.6823 2.72388 30.6823 2.72413ZM30.6821 2.7212C30.682 2.72089 30.682 2.72058 30.682 2.72027C30.682 2.72053 30.682 2.72099 30.6821 2.7212ZM30.6814 2.71259C30.6814 2.71217 30.6813 2.71181 30.6813 2.71145C30.6813 2.71181 30.6814 2.71223 30.6814 2.71259ZM30.6812 2.7096C30.6811 2.70924 30.6811 2.70893 30.6811 2.70851C30.6811 2.70887 30.6811 2.70929 30.6812 2.7096ZM30.681 2.70681C30.6809 2.7064 30.6809 2.70599 30.6809 2.70558C30.6809 2.70604 30.6809 2.70635 30.681 2.70681ZM30.6807 2.70387C30.6807 2.70346 30.6806 2.7031 30.6806 2.70264C30.6806 2.70315 30.6807 2.70341 30.6807 2.70387ZM30.6805 2.70099C30.6805 2.70063 30.6804 2.70011 30.6804 2.6997C30.6804 2.70006 30.6805 2.70063 30.6805 2.70099ZM30.6801 2.69511C30.68 2.6947 30.68 2.69429 30.68 2.69387C30.68 2.69434 30.68 2.69465 30.6801 2.69511ZM30.6798 2.69191C30.6798 2.69166 30.6798 2.69124 30.6798 2.69099C30.6798 2.69135 30.6798 2.69155 30.6798 2.69191ZM30.6796 2.68892C30.6796 2.68867 30.6796 2.68831 30.6796 2.68805C30.6796 2.68841 30.6796 2.68856 30.6796 2.68892ZM30.8603 1.88803C31.0992 1.46737 31.5465 1.18152 32.0581 1.18147C31.5466 1.18157 31.0992 1.46737 30.8603 1.88803Z" fill="#F5F7F8"/>
<path d="M31.9495 4.96802C31.2985 4.42446 30.7695 3.72801 30.6835 2.74095C30.6835 2.74085 30.6835 2.74085 30.6835 2.7407C30.6834 2.73977 30.6833 2.73894 30.6833 2.73807C30.6832 2.73791 30.6832 2.73786 30.6832 2.73776C30.6832 2.73688 30.6831 2.73606 30.683 2.73518C30.683 2.73498 30.683 2.73487 30.683 2.73461C30.6829 2.73384 30.6828 2.73307 30.6828 2.73229C30.6828 2.73204 30.6827 2.73193 30.6827 2.73168C30.6827 2.73095 30.6826 2.73018 30.6825 2.72946C30.6825 2.7291 30.6825 2.72899 30.6825 2.72863C30.6824 2.72796 30.6824 2.72719 30.6823 2.72652C30.6823 2.72626 30.6823 2.72595 30.6822 2.72575C30.6822 2.72497 30.6821 2.72436 30.6821 2.72363C30.6821 2.72338 30.682 2.72296 30.682 2.72276C30.6819 2.72209 30.6819 2.72142 30.6818 2.7207C30.6818 2.72049 30.6817 2.72003 30.6817 2.71977C30.6817 2.7191 30.6816 2.71858 30.6816 2.71791C30.6816 2.71755 30.6815 2.71714 30.6815 2.71678C30.6815 2.71626 30.6814 2.71554 30.6814 2.71497C30.6813 2.71461 30.6813 2.71425 30.6813 2.71389C30.6812 2.71327 30.6812 2.7127 30.6811 2.71209C30.6811 2.71172 30.6811 2.71131 30.6811 2.71095C30.681 2.71033 30.681 2.70972 30.6809 2.7091C30.6809 2.70879 30.6809 2.70837 30.6808 2.70801C30.6808 2.7075 30.6807 2.70688 30.6807 2.70631C30.6807 2.70585 30.6806 2.70554 30.6806 2.70508C30.6806 2.70451 30.6805 2.70394 30.6805 2.70337C30.6805 2.70291 30.6804 2.70265 30.6804 2.70214C30.6803 2.70162 30.6803 2.70105 30.6802 2.70049C30.6802 2.70013 30.6802 2.69956 30.6801 2.6992C30.6801 2.69858 30.6801 2.69812 30.68 2.6975C30.68 2.69714 30.68 2.69667 30.6799 2.69631C30.6799 2.69574 30.6799 2.69518 30.6798 2.69461C30.6798 2.69415 30.6798 2.69384 30.6797 2.69337C30.6797 2.6927 30.6796 2.69208 30.6796 2.69141C30.6796 2.69105 30.6796 2.69085 30.6795 2.69049C30.6795 2.68976 30.6794 2.68915 30.6794 2.68842C30.6794 2.68806 30.6793 2.68791 30.6793 2.68755C30.6793 2.68652 30.6792 2.68559 30.6791 2.68461C30.6768 2.6512 30.6757 2.61801 30.6757 2.58501C30.6756 2.33674 30.7402 2.10249 30.8536 1.89912C30.8546 1.89716 30.8557 1.89521 30.8568 1.8933C30.857 1.89304 30.8572 1.89268 30.8573 1.89242C30.8579 1.89134 30.8585 1.89036 30.8591 1.88928C30.8591 1.88917 30.8592 1.88902 30.8593 1.88892C30.8595 1.8884 30.8598 1.88799 30.8601 1.88752C31.0989 1.46687 31.5463 1.18107 32.0579 1.18096C32.058 1.18096 32.0581 1.18096 32.0582 1.18096C32.1018 1.18096 32.1458 1.18303 32.1903 1.18731C32.1925 1.18751 32.1948 1.18772 32.197 1.18792C32.7351 1.242 33.3555 1.52393 33.9898 2.05584C33.9961 2.06507 34.0024 2.07455 34.0087 2.08383C33.4323 1.63781 32.8724 1.39841 32.3811 1.34902C32.3344 1.34438 32.2881 1.34206 32.2422 1.34206C31.7259 1.34206 31.2749 1.63317 31.0377 2.06022C30.9093 2.2906 30.8435 2.56058 30.8633 2.84571C30.9271 3.76672 31.3732 4.43812 31.9495 4.96802Z" fill="#E7E8ED"/>
<path d="M34.6479 6.99574C34.6478 6.99564 34.6477 6.99553 34.6476 6.99543C34.6477 6.99548 34.6478 6.99569 34.6479 6.99574ZM34.6463 6.99363C34.6462 6.99352 34.6462 6.99337 34.6461 6.99327C34.6461 6.99337 34.6463 6.99352 34.6463 6.99363ZM34.6448 6.99146C34.6447 6.99136 34.6446 6.99126 34.6445 6.9911C34.6446 6.9912 34.6447 6.99136 34.6448 6.99146ZM34.6419 6.98749C34.6418 6.98729 34.6416 6.98708 34.6415 6.98693C34.6416 6.98708 34.6418 6.98734 34.6419 6.98749ZM34.6388 6.98316C34.6387 6.9829 34.6385 6.98265 34.6383 6.98244C34.6385 6.9827 34.6386 6.9829 34.6388 6.98316ZM34.6328 6.97476C34.6326 6.9745 34.6324 6.97419 34.6322 6.97393C34.6325 6.97424 34.6326 6.97445 34.6328 6.97476ZM34.6312 6.97254C34.631 6.97223 34.6308 6.97192 34.6306 6.97167C34.6309 6.97197 34.631 6.97218 34.6312 6.97254ZM34.6297 6.97033C34.6294 6.97002 34.6292 6.96971 34.629 6.9694C34.6292 6.96966 34.6295 6.97007 34.6297 6.97033ZM34.6282 6.96831C34.628 6.96795 34.6277 6.96759 34.6275 6.96723C34.6277 6.96754 34.628 6.96795 34.6282 6.96831ZM34.6268 6.96615C34.6265 6.96579 34.6262 6.96543 34.626 6.96502C34.6262 6.96538 34.6265 6.96584 34.6268 6.96615ZM34.6252 6.96393C34.625 6.96362 34.6247 6.96331 34.6245 6.96301C34.6248 6.96337 34.6249 6.96357 34.6252 6.96393ZM34.6236 6.96167C34.6234 6.96141 34.6232 6.96115 34.623 6.96084C34.6232 6.9612 34.6234 6.96136 34.6236 6.96167ZM34.6221 6.9594C34.6219 6.95914 34.6216 6.95888 34.6215 6.95862C34.6216 6.95888 34.6219 6.95919 34.6221 6.9594ZM34.6175 6.95295C34.6173 6.95264 34.6172 6.95239 34.617 6.95213C34.6171 6.95239 34.6174 6.9527 34.6175 6.95295ZM34.6159 6.95063C34.6158 6.95043 34.6157 6.95022 34.6155 6.95001C34.6157 6.95027 34.6158 6.95038 34.6159 6.95063ZM34.6144 6.94836C34.6142 6.94816 34.6141 6.94795 34.614 6.94775C34.6141 6.9479 34.6142 6.94821 34.6144 6.94836ZM34.6128 6.94605C34.6126 6.94584 34.6125 6.94568 34.6124 6.94553C34.6125 6.94568 34.6127 6.94589 34.6128 6.94605ZM34.6112 6.94373C34.6111 6.94362 34.611 6.94347 34.6109 6.94336C34.611 6.94347 34.6111 6.94362 34.6112 6.94373ZM34.6049 6.93455C34.6047 6.93429 34.6045 6.93398 34.6043 6.93372C34.6045 6.93403 34.6047 6.93429 34.6049 6.93455ZM34.6014 6.9296C34.5051 6.79046 34.3949 6.662 34.2733 6.54518C34.2736 6.54544 34.274 6.5457 34.2743 6.54596C34.3955 6.66257 34.5053 6.79077 34.6014 6.9296Z" fill="#DCDFE6"/>
<path d="M35.0098 7.36694C34.8904 7.28096 34.7697 7.15955 34.6522 6.99804C34.6521 6.99799 34.6521 6.99794 34.652 6.99784C34.6516 6.99722 34.6512 6.9966 34.6507 6.99598C34.6506 6.99593 34.6505 6.99572 34.6504 6.99567C34.65 6.99505 34.6496 6.99449 34.6491 6.99387C34.6491 6.99376 34.6489 6.99361 34.6489 6.99351C34.6485 6.99289 34.648 6.99232 34.6476 6.9917C34.6475 6.9916 34.6474 6.99144 34.6473 6.99134C34.6469 6.99083 34.6466 6.99031 34.6462 6.98974C34.6461 6.98959 34.6459 6.98943 34.6458 6.98928C34.6454 6.98876 34.6451 6.98825 34.6447 6.98773C34.6446 6.98758 34.6444 6.98732 34.6443 6.98717C34.6439 6.9866 34.6436 6.98614 34.6432 6.98562C34.643 6.98536 34.6429 6.98516 34.6427 6.9849C34.6423 6.98438 34.642 6.98392 34.6416 6.9834C34.6414 6.98314 34.6413 6.98294 34.6411 6.98268C34.6407 6.98217 34.6404 6.9817 34.64 6.98119C34.6399 6.98093 34.6397 6.98067 34.6395 6.98041C34.6392 6.9801 34.639 6.97974 34.6387 6.97938C34.6385 6.97897 34.6382 6.97861 34.6379 6.9782C34.6376 6.97789 34.6374 6.97758 34.6372 6.97722C34.6369 6.97686 34.6366 6.97644 34.6364 6.97603C34.6361 6.97567 34.6359 6.97536 34.6356 6.975C34.6354 6.97469 34.6353 6.97448 34.635 6.97417C34.6347 6.97371 34.6343 6.97325 34.634 6.97278C34.6338 6.97242 34.6337 6.97222 34.6334 6.97191C34.6331 6.97144 34.6328 6.97098 34.6325 6.97057C34.6323 6.97031 34.632 6.9699 34.6318 6.96964C34.6316 6.96928 34.6313 6.96892 34.631 6.96856C34.6308 6.96819 34.6305 6.96778 34.6303 6.96747C34.6301 6.96711 34.6298 6.96675 34.6296 6.96639C34.6293 6.96608 34.629 6.96562 34.6288 6.96526C34.6285 6.9649 34.6283 6.96453 34.628 6.96417C34.6278 6.96381 34.6276 6.96361 34.6273 6.96325C34.627 6.96278 34.6267 6.96237 34.6264 6.96191C34.6262 6.9616 34.626 6.96144 34.6258 6.96108C34.6255 6.96062 34.6252 6.96015 34.6249 6.95964C34.6247 6.95943 34.6245 6.95912 34.6243 6.95886C34.6239 6.95835 34.6236 6.95783 34.6232 6.95732C34.6231 6.95711 34.6229 6.95685 34.6227 6.9566C34.6224 6.95618 34.6221 6.95577 34.6219 6.95536C34.6216 6.95505 34.6214 6.95469 34.6212 6.95438C34.6209 6.95397 34.6206 6.95355 34.6203 6.95319C34.6202 6.95294 34.6199 6.95263 34.6198 6.95237C34.6195 6.95185 34.6191 6.95139 34.6187 6.95087C34.6186 6.95062 34.6185 6.95051 34.6183 6.95025C34.618 6.94969 34.6175 6.94912 34.6172 6.94861C34.617 6.94845 34.6169 6.94814 34.6168 6.94799C34.6164 6.94742 34.6159 6.94685 34.6156 6.94629C34.6155 6.94613 34.6153 6.94592 34.6152 6.94577C34.6148 6.94515 34.6144 6.94453 34.614 6.94397C34.6139 6.94386 34.6138 6.94371 34.6137 6.94361C34.6133 6.94294 34.6129 6.94226 34.6124 6.94159C34.612 6.94103 34.6116 6.94046 34.6112 6.93989C34.6112 6.93984 34.6112 6.93979 34.6111 6.93974C34.6107 6.93922 34.6104 6.93871 34.61 6.93819C34.61 6.93814 34.6099 6.93804 34.6099 6.93799C34.6096 6.93747 34.6092 6.93701 34.6089 6.93649C34.6088 6.93634 34.6087 6.93618 34.6086 6.93603C34.6083 6.93561 34.608 6.9352 34.6077 6.93479C34.6075 6.93453 34.6073 6.93427 34.6071 6.93396C34.6069 6.93371 34.6068 6.93345 34.6066 6.93314C34.6063 6.93278 34.606 6.93237 34.6057 6.93201C34.6056 6.9318 34.6055 6.93165 34.6054 6.93149C34.6051 6.93098 34.6048 6.93051 34.6044 6.93005C34.6043 6.92994 34.6043 6.92989 34.6042 6.92984C34.5082 6.79101 34.3983 6.66281 34.2771 6.5462C34.4762 6.70518 34.6522 6.8918 34.7965 7.10274C34.8666 7.20518 34.938 7.29276 35.0098 7.36694Z" fill="#E7E8ED"/>
<path d="M34.6085 6.94176C34.4078 6.64833 34.1459 6.4016 33.8453 6.21153C32.6754 5.47203 30.8147 4.64165 30.6791 2.68512C30.6593 2.4 30.7252 2.13002 30.8536 1.89964C30.9095 1.86257 30.9542 1.81721 30.9652 1.75231L31.0559 1.67086C30.7585 2.023 30.7709 2.53645 30.8331 2.99309C30.8614 3.20182 30.8971 3.41035 30.9631 3.61031C31.1424 4.15165 31.5397 4.60138 32.005 4.93142C32.4702 5.26145 33.003 5.4826 33.5383 5.67917C33.7178 5.7452 33.9006 5.80923 34.0909 5.82598C34.6051 5.87109 35.1273 5.52199 35.2819 5.02967C35.3358 4.85821 35.2884 4.77516 35.2833 4.59561C35.4584 4.97998 35.6819 5.27799 35.831 5.66973C36.6941 7.09389 35.5344 8.29529 34.6085 6.94176Z" fill="#9D9FE6"/>
<path d="M35.8787 5.75062C36.1308 6.54409 35.3713 7.37262 34.8881 6.49806C34.4949 5.86898 34.1857 5.47497 33.4584 5.12963C32.9955 4.90982 32.5911 4.58144 32.2963 4.16233C31.6075 3.1829 31.5877 2.12281 32.336 2.04764C32.4676 2.03445 32.6002 2.05723 32.7233 2.10548C33.5696 2.4368 34.3405 3.22533 35.071 4.25955C35.1475 4.36786 35.2185 4.48004 35.2839 4.59541C35.5182 5.00905 35.7195 5.40043 35.8787 5.75062Z" fill="#EFEEFE"/>
<path d="M32.5725 4.36964C31.8837 3.46507 31.864 2.48601 32.6122 2.41657C32.7438 2.40441 32.8763 2.42549 32.9995 2.46998C33.4683 2.63953 33.914 2.93884 34.3425 3.33439C33.8299 2.76037 33.2937 2.32909 32.7233 2.10577C32.6002 2.05752 32.4676 2.03473 32.336 2.04793C31.5877 2.12309 31.6075 3.18319 32.2963 4.16261C32.5911 4.58172 32.9955 4.9101 33.4584 5.12992C33.4895 5.14471 33.5196 5.15961 33.5493 5.17456C33.1639 4.97588 32.8272 4.70416 32.5725 4.36964Z" fill="#ADAEC4"/>
<path d="M35.166 6.52667C34.7728 5.94563 34.4636 5.58178 33.7364 5.26279C33.6841 5.23985 33.6326 5.21546 33.5819 5.18999C34.2233 5.52126 34.5194 5.90532 34.8899 6.49805C35.0789 6.8401 35.3102 6.92165 35.5066 6.84664C35.3889 6.80314 35.2709 6.70199 35.166 6.52667Z" fill="#ADAEC4"/>
<path d="M35.8608 5.65173C36.2167 6.05481 36.3466 6.83798 36.0319 7.29632C35.9541 7.41293 35.8423 7.51134 35.7114 7.56402L35.6536 7.58568C35.6169 7.5931 35.5697 7.60789 35.5328 7.60867C35.1512 7.64609 34.8251 7.36756 34.6093 7.08393L34.5427 6.99371C34.3646 6.73586 34.1374 6.51341 33.8772 6.33809C33.7774 6.27189 33.6187 6.17601 33.5142 6.11368C33.0223 5.82144 32.505 5.52523 32.0514 5.17478C31.4689 4.72639 30.9548 4.14763 30.7259 3.43761C30.6837 3.31698 30.6543 3.18424 30.6275 3.05938C30.6174 3.00298 30.6099 2.94566 30.6011 2.894C30.5331 2.47819 30.6129 2.03434 30.8697 1.69405C31.2566 1.169 31.8853 0.979032 32.5082 1.1457C33.0851 1.28519 33.6002 1.6145 34.0082 2.03532C34.0183 2.04594 34.0179 2.06269 34.0073 2.07279C33.9982 2.08156 33.9843 2.08248 33.9743 2.07568C33.7352 1.91855 33.4965 1.76395 33.2438 1.6328C32.8737 1.44377 32.4752 1.28241 32.0592 1.27612C31.3265 1.2703 30.727 1.93422 30.7797 2.66022C30.7896 2.79487 30.8073 2.94045 30.8359 3.07304C30.9249 3.51736 31.133 3.93302 31.4145 4.28671C32.0861 5.12746 33.0865 5.614 33.9781 6.19039C34.2538 6.37948 34.4954 6.61992 34.6834 6.89706C34.8167 7.08826 34.9846 7.28029 35.1945 7.38236C35.5919 7.57614 35.919 7.33777 36.0238 6.9385C36.095 6.6558 36.0514 6.35515 35.9534 6.08203C35.9341 6.0343 35.9181 5.983 35.8984 5.93521C35.8677 5.8517 35.8323 5.77226 35.8041 5.68607C35.7906 5.65112 35.837 5.62436 35.8608 5.65173Z" fill="#371B45"/>
<path d="M35.9096 5.74202C36.042 6.04215 36.01 6.41672 35.8182 6.68613C35.6429 6.94172 35.3251 7.04518 35.0674 6.83825C34.9578 6.75552 34.8832 6.64324 34.8149 6.52817C34.7169 6.37435 34.615 6.21835 34.5046 6.07391C34.2533 5.73197 33.9215 5.45921 33.5419 5.27007C32.8762 4.97102 32.3585 4.52912 32.0102 3.88174C31.7846 3.45959 31.6027 2.95506 31.7204 2.47084C31.7828 2.23695 31.944 2.04889 32.1811 1.98054C32.366 1.92759 32.5664 1.94244 32.7449 2.0109C32.7967 2.03209 32.8711 2.06441 32.923 2.08699C33.2395 2.23649 33.5325 2.43841 33.7968 2.66457C34.3684 3.15786 34.8281 3.76586 35.2184 4.40777C35.2392 4.44396 35.1893 4.47953 35.1624 4.44638C34.8198 4.00804 34.4726 3.57347 34.0809 3.17915C33.6769 2.77246 33.2163 2.39825 32.6783 2.18947C32.3897 2.08044 32.0398 2.14483 31.9279 2.46434C31.7867 2.89809 31.9741 3.4002 32.1807 3.78838C32.4651 4.32029 32.9146 4.7592 33.4563 5.02618C33.6831 5.13542 33.9111 5.26347 34.1086 5.42024C34.3101 5.57788 34.4864 5.76888 34.6376 5.97379C34.7893 6.17221 34.9111 6.38785 35.0483 6.59504C35.3062 6.94079 35.6272 6.79727 35.7823 6.45141C35.8802 6.23686 35.8974 5.99338 35.854 5.7597C35.8468 5.72496 35.8962 5.71109 35.9096 5.74202Z" fill="#371B45"/>
<path d="M36.3865 4.08823C36.5419 4.13979 36.7005 4.17597 36.8581 4.14943C37.166 4.1019 37.3826 3.83058 37.4566 3.53488C37.4978 3.37652 37.5013 3.2113 37.4754 3.04731C37.4698 3.01267 37.5191 2.99659 37.5348 3.02834C37.8015 3.53318 37.4928 4.31161 36.8739 4.33496C36.7748 4.33769 36.6773 4.31764 36.5905 4.28052C36.5035 4.2434 36.4263 4.19077 36.3622 4.1269C36.3446 4.11004 36.364 4.07947 36.3865 4.08823Z" fill="#371B45"/>
<path d="M36.7225 4.28359C36.6669 4.48511 36.4422 4.60342 36.2456 4.57388C36.2135 4.5697 36.2156 4.5214 36.2478 4.51995C36.3995 4.51454 36.5607 4.40355 36.5727 4.25147C36.5879 4.13729 36.7552 4.17281 36.7225 4.28359Z" fill="#371B45"/>
<path d="M37.0052 4.21037C37.0721 4.35863 37.0286 4.52009 36.945 4.64722C36.9239 4.67562 36.8356 4.79037 36.8013 4.73923C36.7935 4.72681 36.7961 4.71073 36.8068 4.70134C36.904 4.60484 36.946 4.4074 36.8684 4.29182C36.7955 4.1931 36.9523 4.09923 37.0052 4.21037Z" fill="#371B45"/>
<path d="M35.7656 3.07544C35.46 2.38873 35.8181 1.55071 36.2929 2.21871C36.0246 2.29898 35.8542 2.59663 35.7656 3.07544Z" fill="#371B45"/>
<path d="M39.5649 2.00209C39.5653 2.00297 39.5657 2.00385 39.566 2.00472C39.5726 2.01962 39.5953 2.03302 39.6117 2.03086C39.6831 2.02142 39.7434 2.03096 39.8082 2.06416C39.8634 2.09251 39.9137 2.12855 39.9581 2.17185C40.0028 2.21546 40.0381 2.26547 40.074 2.31624C40.1081 2.3646 40.1297 2.4327 40.1806 2.46533C40.187 2.4694 40.1967 2.46683 40.2002 2.46023C40.2343 2.39697 40.1933 2.3115 40.1657 2.25232C40.1347 2.18567 40.0819 2.12607 40.0279 2.07689C39.9726 2.02653 39.9098 1.98307 39.8415 1.95245C39.7627 1.91714 39.6668 1.89172 39.585 1.9325C39.566 1.94193 39.5527 1.97168 39.5607 1.99209C39.562 1.99549 39.5634 1.99879 39.5649 2.00209Z" fill="#371B45"/>
<path d="M40.0022 1.07161C40.0241 1.09372 40.0571 1.09841 40.0864 1.10393C40.114 1.10908 40.1418 1.11254 40.169 1.1195C40.2249 1.13383 40.2784 1.1579 40.3244 1.19306C40.3622 1.22193 40.3971 1.26157 40.4224 1.30307C40.438 1.32854 40.4524 1.35421 40.4715 1.37741C40.4877 1.39705 40.5091 1.4122 40.5287 1.42819C40.5341 1.43257 40.5433 1.43308 40.5469 1.42581C40.5783 1.36369 40.5706 1.30075 40.5354 1.24157C40.5001 1.18234 40.4538 1.13089 40.3992 1.08903C40.3425 1.04562 40.2768 1.01346 40.2071 0.997063C40.1719 0.988815 40.1346 0.982164 40.0983 0.985051C40.0605 0.988041 40.0193 0.996135 39.9968 1.0298C39.9883 1.04248 39.9919 1.06119 40.0022 1.07161Z" fill="#371B45"/>
<path d="M37.0446 8.76117C37.2896 9.72868 37.607 10.6726 38.0281 11.5784C38.0329 11.5891 38.0352 11.6001 38.0351 11.6112L38.0281 11.5787C38.07 11.6692 38.2085 11.9638 38.2488 12.0506C38.3078 12.1527 38.2891 12.2902 38.1953 12.3654C38.1715 12.3868 38.1353 12.4035 38.1066 12.4128C38.0682 12.4259 38.0294 12.4391 37.9907 12.4507C37.5559 12.5813 37.1021 12.6415 36.6473 12.6193C36.5157 12.6113 36.3832 12.5989 36.2545 12.568C35.9203 12.4874 35.6304 12.2436 35.4956 11.9275C35.2177 11.2836 34.9676 10.5937 34.994 9.88158C35.0003 9.75239 35.0197 9.62331 35.0517 9.49809C35.0617 9.46262 35.1139 9.46706 35.115 9.50541C35.1147 9.7893 35.1314 10.0662 35.1739 10.3436C35.2444 10.8071 35.3927 11.2538 35.5766 11.6847C35.6258 11.7945 35.6688 11.9112 35.7375 12.0098C35.963 12.3348 36.2778 12.4306 36.6567 12.4451C37.0877 12.4656 37.5266 12.4088 37.942 12.2895C37.9838 12.2773 38.0295 12.2628 38.0698 12.2482C38.1105 12.233 38.1299 12.1814 38.1101 12.1426L38.1002 12.1209C38.0889 12.0952 38.0529 12.0179 38.0409 11.9907C38.0393 11.9818 37.8597 11.6093 37.8757 11.611L37.8827 11.6435C37.6801 11.1838 37.4917 10.7171 37.3302 10.2401C37.1703 9.76322 37.0254 9.27493 36.9887 8.7705C36.9875 8.75483 36.9993 8.74117 37.015 8.74003C37.0289 8.73905 37.0411 8.74828 37.0446 8.76117Z" fill="#371B45"/>
<path d="M32.3127 12.2114C31.9807 12.5031 31.5523 12.6511 31.1319 12.7592C30.0247 13.023 28.8536 13.0485 27.7416 12.7993C27.5809 12.7599 27.4185 12.7142 27.2641 12.6541C27.1482 12.6006 27.0762 12.4727 27.0869 12.3464C27.0983 12.2205 27.1229 12.0971 27.1546 11.9755C27.272 11.5482 27.4931 11.1522 27.7941 10.8263C27.8733 10.7401 27.9635 10.6574 28.0745 10.613C28.1821 10.564 28.3051 10.5558 28.4216 10.5592L29.066 10.559L29.3866 10.5587C29.4941 10.5569 29.6021 10.5142 29.6779 10.4366C29.7407 10.3735 29.8052 10.3118 29.8758 10.2573C29.9635 10.19 30.056 10.1288 30.1516 10.0736C30.3427 9.96304 30.5486 9.8787 30.7608 9.82761C30.7775 9.82359 30.7943 9.8339 30.7984 9.8506C30.8019 9.8653 30.7943 9.88009 30.781 9.88617C30.491 10.0192 30.227 10.1887 29.9876 10.3953C29.9362 10.4383 29.8412 10.5189 29.7924 10.5615C29.6811 10.6574 29.5376 10.7173 29.3897 10.7197L29.066 10.7198L28.4216 10.7196C28.3268 10.7177 28.2245 10.7197 28.1372 10.7604C28.0448 10.7977 27.9805 10.8618 27.9108 10.9358C27.6289 11.2402 27.4183 11.6163 27.3083 12.0169C27.2827 12.1173 27.2599 12.2187 27.2497 12.3214L27.2473 12.3405C27.2346 12.4082 27.2691 12.4817 27.3319 12.5105C27.4265 12.5463 27.5284 12.5779 27.6255 12.6058C28.3433 12.8004 29.0957 12.8389 29.8366 12.7999C30.6774 12.7473 31.5369 12.5892 32.2671 12.1514C32.2848 12.1399 32.3088 12.1453 32.3198 12.1634C32.3296 12.1792 32.3262 12.1995 32.3127 12.2114Z" fill="#371B45"/>
<path d="M28.1075 10.6705C28.1037 10.723 28.1234 10.7702 28.1275 10.8219C28.1313 10.8715 28.1283 10.9216 28.1184 10.9703C28.0962 11.0797 28.0483 11.1806 28.0056 11.283C27.9261 11.4732 27.8376 11.6583 27.7381 11.8388C27.7103 11.8892 27.6746 11.935 27.638 11.9791C27.6198 12.0011 27.5999 12.0216 27.5818 12.0437C27.5623 12.0675 27.5481 12.0953 27.5276 12.1183C27.5152 12.1322 27.5321 12.1585 27.5488 12.1458C27.5697 12.1301 27.5926 12.1175 27.6136 12.1019C27.6358 12.0853 27.6539 12.0641 27.6721 12.0435C27.7083 12.0025 27.7415 11.9593 27.7741 11.9155C27.8064 11.8723 27.8418 11.8313 27.8726 11.787C27.9042 11.7414 27.9307 11.6915 27.957 11.6427C28.0103 11.5442 28.0598 11.4448 28.1076 11.3435C28.1584 11.2361 28.2091 11.1251 28.2335 11.0081C28.2466 10.9453 28.253 10.8804 28.2462 10.8164C28.2389 10.7475 28.2259 10.6784 28.1643 10.6379C28.1387 10.6211 28.1095 10.6438 28.1075 10.6705Z" fill="#371B45"/>
<path d="M28.0985 10.6895C28.098 10.6897 28.0973 10.69 28.0969 10.6907L28.0964 10.6905C28.0907 10.6861 28.0844 10.6826 28.078 10.6794L28.1698 10.6403C28.1457 10.6562 28.122 10.6725 28.0985 10.6895Z" fill="#9D9FE6"/>
<path d="M62.235 22.6096C61.4064 22.6096 60.7825 22.375 60.3633 21.9058C59.944 21.4267 59.7344 20.7279 59.7344 19.8095V12.727C59.7344 12.4176 59.8142 12.183 59.974 12.0233C60.1337 11.8636 60.3633 11.7837 60.6627 11.7837C60.9622 11.7837 61.1918 11.8636 61.3515 12.0233C61.5212 12.183 61.6061 12.4176 61.6061 12.727V19.7197C61.6061 20.1789 61.7009 20.5183 61.8906 20.7379C62.0902 20.9575 62.3697 21.0673 62.7291 21.0673C62.8089 21.0673 62.8838 21.0673 62.9537 21.0673C63.0236 21.0573 63.0934 21.0473 63.1633 21.0373C63.3031 21.0174 63.3979 21.0573 63.4478 21.1571C63.4977 21.247 63.5227 21.4366 63.5227 21.7261C63.5227 21.9757 63.4728 22.1703 63.3729 22.3101C63.2731 22.4498 63.1084 22.5347 62.8788 22.5646C62.779 22.5746 62.6742 22.5846 62.5644 22.5946C62.4546 22.6046 62.3448 22.6096 62.235 22.6096Z" fill="#30303D"/>
<path d="M52.4648 22.6097C51.8558 22.6097 51.3517 22.4998 50.9524 22.2802C50.5531 22.0506 50.2537 21.7112 50.054 21.262C49.8644 20.8128 49.7695 20.2538 49.7695 19.585V15.9614C49.7695 15.642 49.8494 15.4074 50.0091 15.2576C50.1688 15.0979 50.3984 15.0181 50.6979 15.0181C50.9974 15.0181 51.227 15.0979 51.3867 15.2576C51.5564 15.4074 51.6412 15.642 51.6412 15.9614V19.6149C51.6412 20.134 51.746 20.5183 51.9557 20.7679C52.1653 21.0175 52.4997 21.1422 52.9589 21.1422C53.458 21.1422 53.8673 20.9725 54.1867 20.6331C54.5062 20.2838 54.6659 19.8246 54.6659 19.2556V15.9614C54.6659 15.642 54.7457 15.4074 54.9055 15.2576C55.0652 15.0979 55.2948 15.0181 55.5942 15.0181C55.8937 15.0181 56.1233 15.0979 56.283 15.2576C56.4527 15.4074 56.5376 15.642 56.5376 15.9614V21.6214C56.5376 22.2603 56.2331 22.5797 55.6242 22.5797C55.3347 22.5797 55.1101 22.4998 54.9504 22.3401C54.7907 22.1704 54.7108 21.9309 54.7108 21.6214V20.4834L54.9204 20.9326C54.7108 21.4717 54.3914 21.8859 53.9621 22.1754C53.5429 22.4649 53.0437 22.6097 52.4648 22.6097Z" fill="#30303D"/>
<path d="M44.5527 22.5795C44.2532 22.5795 44.0186 22.4997 43.8489 22.34C43.6892 22.1703 43.6093 21.9307 43.6093 21.6212V16.5452H42.9206C42.681 16.5452 42.4963 16.4853 42.3665 16.3655C42.2368 16.2357 42.1719 16.061 42.1719 15.8414C42.1719 15.6118 42.2368 15.4371 42.3665 15.3174C42.4963 15.1976 42.681 15.1377 42.9206 15.1377H44.1484L43.6093 15.6318V15.1227C43.6093 14.0945 43.8689 13.3259 44.388 12.8168C44.907 12.2977 45.6557 11.9932 46.634 11.9034L47.1431 11.8585C47.3427 11.8385 47.5025 11.8734 47.6223 11.9633C47.742 12.0431 47.8219 12.153 47.8618 12.2927C47.9018 12.4225 47.9067 12.5572 47.8768 12.697C47.8469 12.8367 47.782 12.9615 47.6821 13.0713C47.5923 13.1712 47.4725 13.2261 47.3228 13.236L47.1131 13.251C46.5442 13.2909 46.1299 13.4357 45.8703 13.6852C45.6108 13.9348 45.481 14.3141 45.481 14.8232V15.3773L45.2415 15.1377H46.7538C46.9934 15.1377 47.178 15.1976 47.3078 15.3174C47.4376 15.4371 47.5025 15.6118 47.5025 15.8414C47.5025 16.061 47.4376 16.2357 47.3078 16.3655C47.178 16.4853 46.9934 16.5452 46.7538 16.5452H45.481V21.6212C45.481 22.2601 45.1716 22.5795 44.5527 22.5795Z" fill="#30303D"/>
<path d="M35.7037 22.6096C35.0648 22.6096 34.5008 22.4548 34.0117 22.1454C33.5325 21.8359 33.1582 21.3967 32.8887 20.8277C32.6191 20.2487 32.4844 19.5699 32.4844 18.7913C32.4844 18.0027 32.6191 17.3289 32.8887 16.7699C33.1582 16.2009 33.5325 15.7617 34.0117 15.4522C34.5008 15.1428 35.0648 14.988 35.7037 14.988C36.3126 14.988 36.8417 15.1378 37.2909 15.4372C37.7501 15.7367 38.0595 16.131 38.2192 16.6201H38.0545V12.727C38.0545 12.4176 38.1344 12.183 38.2941 12.0233C38.4538 11.8636 38.6834 11.7837 38.9829 11.7837C39.2824 11.7837 39.512 11.8636 39.6717 12.0233C39.8414 12.183 39.9262 12.4176 39.9262 12.727V21.6213C39.9262 21.9308 39.8464 22.1703 39.6867 22.34C39.5269 22.4998 39.2973 22.5796 38.9979 22.5796C38.6984 22.5796 38.4688 22.4998 38.3091 22.34C38.1494 22.1703 38.0695 21.9308 38.0695 21.6213V20.4534L38.2342 20.9026C38.0845 21.4217 37.78 21.8359 37.3208 22.1454C36.8616 22.4548 36.3226 22.6096 35.7037 22.6096ZM36.2278 21.1871C36.5971 21.1871 36.9215 21.0972 37.201 20.9176C37.4805 20.7379 37.6952 20.4733 37.8449 20.124C38.0046 19.7646 38.0845 19.3204 38.0845 18.7913C38.0845 17.9927 37.9148 17.3988 37.5754 17.0095C37.236 16.6102 36.7868 16.4105 36.2278 16.4105C35.8584 16.4105 35.534 16.5004 35.2545 16.68C34.975 16.8497 34.7554 17.1143 34.5956 17.4736C34.4459 17.823 34.371 18.2622 34.371 18.7913C34.371 19.5799 34.5407 20.1789 34.8801 20.5881C35.2195 20.9874 35.6687 21.1871 36.2278 21.1871Z" fill="#30303D"/>
<path d="M23.8073 22.5799C23.5078 22.5799 23.2782 22.5 23.1185 22.3403C22.9588 22.1706 22.8789 21.931 22.8789 21.6216V15.9616C22.8789 15.6521 22.9588 15.4175 23.1185 15.2578C23.2782 15.0981 23.5028 15.0182 23.7923 15.0182C24.0818 15.0182 24.3064 15.0981 24.4661 15.2578C24.6258 15.4175 24.7057 15.6521 24.7057 15.9616V16.9798L24.541 16.6054C24.7606 16.0764 25.1 15.6771 25.5592 15.4075C26.0283 15.128 26.5574 14.9883 27.1464 14.9883C27.7353 14.9883 28.2195 15.0981 28.5988 15.3177C28.9781 15.5373 29.2626 15.8717 29.4523 16.3209C29.642 16.7602 29.7368 17.3192 29.7368 17.998V21.6216C29.7368 21.931 29.6569 22.1706 29.4972 22.3403C29.3375 22.5 29.1079 22.5799 28.8084 22.5799C28.509 22.5799 28.2744 22.5 28.1047 22.3403C27.945 22.1706 27.8651 21.931 27.8651 21.6216V18.0878C27.8651 17.5188 27.7553 17.1045 27.5357 16.845C27.326 16.5855 26.9966 16.4557 26.5474 16.4557C25.9984 16.4557 25.5592 16.6304 25.2298 16.9798C24.9103 17.3192 24.7506 17.7734 24.7506 18.3424V21.6216C24.7506 22.2604 24.4362 22.5799 23.8073 22.5799Z" fill="#30303D"/>
<path d="M18.7448 22.5648C18.4453 22.5648 18.2157 22.475 18.056 22.2953C17.8963 22.1156 17.8164 21.866 17.8164 21.5466V16.0513C17.8164 15.7219 17.8963 15.4723 18.056 15.3026C18.2157 15.123 18.4453 15.0331 18.7448 15.0331C19.0442 15.0331 19.2738 15.123 19.4335 15.3026C19.6032 15.4723 19.6881 15.7219 19.6881 16.0513V21.5466C19.6881 21.866 19.6082 22.1156 19.4485 22.2953C19.2888 22.475 19.0542 22.5648 18.7448 22.5648ZM18.7448 13.6406C18.3954 13.6406 18.1209 13.5557 17.9212 13.386C17.7316 13.2063 17.6367 12.9618 17.6367 12.6523C17.6367 12.3329 17.7316 12.0883 17.9212 11.9186C18.1209 11.7489 18.3954 11.6641 18.7448 11.6641C19.1041 11.6641 19.3786 11.7489 19.5683 11.9186C19.758 12.0883 19.8528 12.3329 19.8528 12.6523C19.8528 12.9618 19.758 13.2063 19.5683 13.386C19.3786 13.5557 19.1041 13.6406 18.7448 13.6406Z" fill="#30303D"/>
<path d="M4.64581 22.5794C4.3663 22.5794 4.15168 22.4995 4.00195 22.3398C3.85221 22.1801 3.77734 21.9605 3.77734 21.681V12.6819C3.77734 12.3924 3.8572 12.1728 4.01692 12.023C4.17664 11.8633 4.39625 11.7834 4.67576 11.7834C4.92532 11.7834 5.11997 11.8334 5.25972 11.9332C5.40946 12.023 5.54422 12.1827 5.66401 12.4123L9.36248 19.2552H8.88332L12.5818 12.4123C12.7016 12.1827 12.8313 12.023 12.9711 11.9332C13.1109 11.8334 13.3055 11.7834 13.5551 11.7834C13.8346 11.7834 14.0492 11.8633 14.1989 12.023C14.3487 12.1728 14.4235 12.3924 14.4235 12.6819V21.681C14.4235 21.9605 14.3487 22.1801 14.1989 22.3398C14.0592 22.4995 13.8446 22.5794 13.5551 22.5794C13.2756 22.5794 13.0609 22.4995 12.9112 22.3398C12.7615 22.1801 12.6866 21.9605 12.6866 21.681V14.7482H13.016L9.87158 20.4831C9.77175 20.6528 9.66694 20.7776 9.55713 20.8574C9.44733 20.9373 9.29759 20.9772 9.10793 20.9772C8.91826 20.9772 8.76353 20.9373 8.64375 20.8574C8.52396 20.7676 8.41914 20.6428 8.3293 20.4831L5.15491 14.7332H5.51428V21.681C5.51428 21.9605 5.43941 22.1801 5.28967 22.3398C5.14992 22.4995 4.9353 22.5794 4.64581 22.5794Z" fill="#30303D"/>
<path fill-rule="evenodd" clip-rule="evenodd" d="M60.1767 22.0736L60.175 22.0717C59.7015 21.5305 59.4844 20.7635 59.4844 19.811V12.7285C59.4844 12.378 59.5754 12.07 59.797 11.8483C60.0173 11.6281 60.319 11.5356 60.6623 11.5356C61.0042 11.5356 61.3049 11.6273 61.5249 11.8456C61.7576 12.0664 61.8552 12.3752 61.8552 12.7285V19.7212C61.8552 20.1514 61.9448 20.4192 62.077 20.574C62.2195 20.7292 62.4251 20.8192 62.7286 20.8192H62.9343L62.936 20.8192L62.9376 20.8189L62.9392 20.8187L62.9425 20.8182L62.9442 20.818L62.9458 20.8178L62.9474 20.8175L62.9491 20.8173L62.9507 20.8171L62.9523 20.8168L62.9556 20.8164L62.9573 20.8161L62.9589 20.8159L62.9605 20.8157L62.9638 20.8152L62.9654 20.815L62.9671 20.8147L62.9687 20.8145L62.972 20.814L62.9736 20.8138L62.9753 20.8136L62.9769 20.8133L62.9802 20.8129L62.9818 20.8126L62.9835 20.8124L62.9851 20.8122L62.9884 20.8117L62.99 20.8115L62.9933 20.811L62.9966 20.8105L62.9982 20.8103L62.9998 20.8101L63.0015 20.8098L63.0031 20.8096L63.0048 20.8094L63.0064 20.8091L63.0097 20.8086L63.0113 20.8084L63.0129 20.8082L63.0146 20.8079L63.0179 20.8075L63.0195 20.8072L63.0211 20.807L63.0228 20.8068L63.026 20.8063L63.0277 20.8061L63.031 20.8056L63.0342 20.8051L63.0359 20.8049L63.0391 20.8044L63.0408 20.8042L63.0424 20.804L63.0441 20.8037L63.0473 20.8033L63.049 20.803L63.0506 20.8028L63.0522 20.8026L63.0555 20.8021L63.0572 20.8019L63.0588 20.8016L63.0604 20.8014L63.0637 20.8009L63.0653 20.8007L63.0686 20.8002L63.0719 20.7998L63.0735 20.7995L63.0768 20.7991L63.0785 20.7988L63.0801 20.7986L63.0817 20.7984L63.085 20.7979L63.0866 20.7977L63.0883 20.7974L63.0899 20.7972L63.0932 20.7967L63.0948 20.7965L63.0965 20.7962L63.0981 20.796L63.1014 20.7955L63.103 20.7953L63.1047 20.7951L63.1063 20.7948L63.1096 20.7944L63.1112 20.7941L63.1145 20.7937L63.1161 20.7934L63.1178 20.7932L63.1194 20.793L63.1227 20.7925L63.1243 20.7923L63.1259 20.792L63.1276 20.7918C63.2262 20.7777 63.3338 20.7809 63.4357 20.8238C63.5409 20.8682 63.6187 20.946 63.668 21.042C63.7145 21.1279 63.7375 21.2337 63.7509 21.3357C63.7654 21.4453 63.7718 21.5769 63.7718 21.7276C63.7718 22.0067 63.7165 22.2593 63.5756 22.4567C63.4229 22.6704 63.184 22.778 62.9107 22.8136L62.9032 22.8146C62.8026 22.8247 62.697 22.8346 62.5865 22.8446C62.4692 22.8553 62.3519 22.8606 62.2345 22.8606C61.3587 22.8606 60.6572 22.6112 60.1767 22.0736ZM63.4474 21.1586C63.3975 21.0588 63.3026 21.0189 63.1629 21.0389L62.9532 21.0688H62.7286C62.3693 21.0688 62.0898 20.959 61.8901 20.7394C61.7005 20.5198 61.6056 20.1804 61.6056 19.7212V12.7285C61.6056 12.4191 61.5208 12.1845 61.3511 12.0248C61.1914 11.8651 60.9618 11.7852 60.6623 11.7852C60.3628 11.7852 60.1332 11.8651 59.9735 12.0248C59.8138 12.1845 59.7339 12.4191 59.7339 12.7285V19.811C59.7339 20.7294 59.9436 21.4282 60.3628 21.9073C60.7821 22.3765 61.406 22.6111 62.2345 22.6111C62.3443 22.6111 62.4541 22.6061 62.5639 22.5961C62.6737 22.5861 62.7786 22.5761 62.8784 22.5662C63.108 22.5362 63.2727 22.4514 63.3725 22.3116C63.4723 22.1719 63.5222 21.9772 63.5222 21.7276C63.5222 21.4381 63.4973 21.2485 63.4474 21.1586Z" fill="#30303D"/>
<path fill-rule="evenodd" clip-rule="evenodd" d="M50.952 22.2813C51.3513 22.5009 51.8554 22.6107 52.4643 22.6107C53.0433 22.6107 53.5424 22.4659 53.9617 22.1764C54.1501 22.0494 54.3173 21.8983 54.4634 21.7232C54.4907 21.6904 54.5173 21.6568 54.5431 21.6224C54.6028 21.5429 54.6586 21.4589 54.7104 21.3704V21.6224C54.7104 21.6851 54.7136 21.7449 54.7202 21.8018C54.746 22.0261 54.8226 22.2058 54.9499 22.3412C55.1097 22.5009 55.3343 22.5807 55.6237 22.5807C56.2327 22.5807 56.5371 22.2613 56.5371 21.6224V15.9624C56.5371 15.643 56.4523 15.4084 56.2826 15.2587C56.1229 15.0989 55.8933 15.0191 55.5938 15.0191C55.2943 15.0191 55.0647 15.0989 54.905 15.2587C54.7453 15.4084 54.6654 15.643 54.6654 15.9624V19.2566C54.6654 19.8256 54.5057 20.2848 54.1863 20.6342C53.8669 20.9736 53.4576 21.1433 52.9585 21.1433C52.4993 21.1433 52.1649 21.0185 51.9552 20.7689C51.7456 20.5194 51.6408 20.1351 51.6408 19.616V15.9624C51.6408 15.643 51.5559 15.4084 51.3862 15.2587C51.2265 15.0989 50.9969 15.0191 50.6975 15.0191C50.398 15.0191 50.1684 15.0989 50.0087 15.2587C49.8489 15.4084 49.7691 15.643 49.7691 15.9624V19.586C49.7691 20.2548 49.8639 20.8139 50.0536 21.2631C50.2532 21.7123 50.5527 22.0517 50.952 22.2813ZM49.835 15.0794C50.055 14.8612 50.3556 14.7695 50.6975 14.7695C51.0379 14.7695 51.3375 14.8604 51.5572 15.0768C51.7955 15.2907 51.8903 15.6047 51.8903 15.9624V19.616C51.8903 20.1091 51.9912 20.4238 52.1463 20.6084C52.2915 20.7812 52.5416 20.8937 52.9585 20.8937C53.3936 20.8937 53.7349 20.749 54.0034 20.4644C54.2718 20.1701 54.4159 19.7757 54.4159 19.2566V15.9624C54.4159 15.6075 54.5042 15.2944 54.7313 15.0794C54.9513 14.8612 55.2519 14.7695 55.5938 14.7695C55.9343 14.7695 56.2338 14.8604 56.4536 15.0768C56.6919 15.2907 56.7867 15.6047 56.7867 15.9624V21.6224C56.7867 21.9774 56.7023 22.29 56.4894 22.5133C56.2744 22.7389 55.9698 22.8303 55.6237 22.8303C55.2876 22.8303 54.9922 22.7363 54.7735 22.5176L54.7681 22.5123L54.7682 22.5122C54.6432 22.3794 54.56 22.2201 54.512 22.0413C54.3878 22.1681 54.2514 22.282 54.1025 22.3825C54.1028 22.3823 54.1032 22.382 54.1035 22.3818M49.835 15.0794C49.6078 15.2944 49.5195 15.6075 49.5195 15.9624V19.586C49.5195 20.2766 49.6172 20.8711 49.8237 21.3601L49.8236 21.3601L49.8255 21.3644C50.0451 21.8585 50.3793 22.2398 50.8276 22.4976L50.8276 22.4976L50.8317 22.4999C51.2782 22.7455 51.827 22.8602 52.4643 22.8602C53.0864 22.8602 53.6363 22.7041 54.1025 22.3825" fill="#30303D"/>
<path fill-rule="evenodd" clip-rule="evenodd" d="M43.6628 22.5125C43.4468 22.283 43.3554 21.9744 43.3554 21.6227V16.7962H42.9162C42.6366 16.7962 42.3831 16.7259 42.1929 16.5504L42.1856 16.5436C42 16.358 41.918 16.1148 41.918 15.8429C41.918 15.5657 41.9977 15.3156 42.1929 15.1355C42.3831 14.9599 42.6366 14.8896 42.9162 14.8896H43.3599C43.3973 13.9335 43.6681 13.171 44.2079 12.6411C44.2082 12.6407 44.2085 12.6404 44.2089 12.6401L44.3836 12.8183L44.2079 12.6411C44.2076 12.6413 44.2081 12.6408 44.2079 12.6411C44.7803 12.0691 45.5907 11.7497 46.6068 11.6564L47.1139 11.6116L47.1387 11.8599L47.1168 11.6114L47.1155 11.6115C47.3528 11.588 47.5786 11.626 47.762 11.7609C47.7601 11.7596 47.7582 11.7584 47.7563 11.7571L47.6179 11.9648L47.7676 11.7651C47.7657 11.7637 47.7639 11.7623 47.762 11.7609C47.9277 11.8732 48.041 12.0303 48.0967 12.2231C48.0965 12.2223 48.0962 12.2216 48.096 12.2208L47.8575 12.2942L48.0974 12.2256C48.0972 12.2248 48.097 12.2239 48.0967 12.2231C48.1492 12.3951 48.1547 12.5724 48.1165 12.7508C48.0769 12.9353 47.9907 13.0996 47.8624 13.2407C47.8627 13.2404 47.863 13.2401 47.8633 13.2397L47.6778 13.0728L47.8624 13.2407C47.7241 13.3939 47.5413 13.4726 47.3357 13.4865L47.1266 13.5014C46.5838 13.5395 46.2379 13.6754 46.039 13.8666C45.8457 14.0524 45.7262 14.3549 45.7262 14.8247V14.8896H45.4767V15.1392H45.7262V14.8896H46.7494C47.029 14.8896 47.2825 14.9599 47.4727 15.1355C47.6679 15.3156 47.7477 15.5657 47.7477 15.8429C47.7477 16.1148 47.6655 16.3579 47.4799 16.5434L47.4729 16.5505C47.2827 16.7261 47.029 16.7962 46.7494 16.7962H45.7262V16.5467H45.4767V16.7962H45.7262V21.6227C45.7262 21.9787 45.6401 22.2918 45.4238 22.5151C45.2061 22.7398 44.8983 22.8306 44.5483 22.8306C44.2041 22.8306 43.9016 22.7378 43.6735 22.5232L43.6628 22.5125ZM43.8446 22.3414C43.6848 22.1717 43.605 21.9321 43.605 21.6227V16.5467H42.9162C42.6766 16.5467 42.492 16.4868 42.3622 16.367C42.2324 16.2372 42.1675 16.0625 42.1675 15.8429C42.1675 15.6133 42.2324 15.4386 42.3622 15.3188C42.492 15.199 42.6766 15.1392 42.9162 15.1392H43.605V15.1242C43.605 15.0444 43.6065 14.9662 43.6097 14.8896" fill="#30303D"/>
<path fill-rule="evenodd" clip-rule="evenodd" d="M33.8739 22.3578L33.8719 22.3565C33.3498 22.0193 32.9461 21.5425 32.6588 20.9361L32.6581 20.9345C32.3702 20.3162 32.2305 19.6 32.2305 18.7928C32.2305 17.9768 32.3698 17.2642 32.6592 16.6637C32.9465 16.0576 33.35 15.5812 33.8719 15.2441L33.8739 15.2428C34.407 14.9055 35.0183 14.74 35.6993 14.74C36.3505 14.74 36.9288 14.9006 37.4238 15.2303C37.5611 15.32 37.6868 15.4179 37.8006 15.5239V12.7285C37.8006 12.378 37.8916 12.07 38.1133 11.8483C38.3335 11.6281 38.6352 11.5356 38.9785 11.5356C39.3205 11.5356 39.6211 11.6273 39.8411 11.8456C40.0738 12.0664 40.1714 12.3752 40.1714 12.7285V21.6228C40.1714 21.9745 40.08 22.2831 39.864 22.5126L39.8588 22.5181C39.6386 22.7383 39.3369 22.8307 38.9935 22.8307C38.6502 22.8307 38.3485 22.7383 38.1283 22.518L38.1229 22.5127C37.9929 22.3745 37.9081 22.2076 37.8611 22.0199C37.7407 22.1417 37.6055 22.253 37.456 22.3538C36.9508 22.6943 36.3619 22.8606 35.6993 22.8606C35.0183 22.8606 34.407 22.6951 33.8739 22.3578ZM37.817 21.6969C37.837 21.6726 37.8564 21.6479 37.8753 21.6228C37.9469 21.5276 38.0102 21.4268 38.0652 21.3204V21.6228C38.0652 21.676 38.0675 21.7271 38.0722 21.7762C38.095 22.0126 38.1725 22.201 38.3047 22.3416C38.4645 22.5013 38.694 22.5811 38.9935 22.5811C39.293 22.5811 39.5226 22.5013 39.6823 22.3416C39.842 22.1719 39.9219 21.9323 39.9219 21.6228V12.7285C39.9219 12.4191 39.837 12.1845 39.6673 12.0248C39.5076 11.8651 39.278 11.7852 38.9785 11.7852C38.6791 11.7852 38.4495 11.8651 38.2898 12.0248C38.13 12.1845 38.0502 12.4191 38.0502 12.7285V16.2415C37.9797 16.114 37.8965 15.9946 37.8006 15.8832C37.6576 15.7171 37.4862 15.569 37.2865 15.4387C36.8373 15.1393 36.3083 14.9895 35.6993 14.9895C35.0605 14.9895 34.4965 15.1443 34.0073 15.4537C33.5282 15.7632 33.1538 16.2024 32.8843 16.7714C32.6148 17.3304 32.48 18.0042 32.48 18.7928C32.48 19.5714 32.6148 20.2502 32.8843 20.8292C33.1538 21.3982 33.5282 21.8374 34.0073 22.1469C34.4965 22.4564 35.0605 22.6111 35.6993 22.6111C36.3182 22.6111 36.8573 22.4564 37.3165 22.1469C37.5111 22.0157 37.678 21.8657 37.817 21.6969ZM37.4238 15.2303C37.4242 15.2306 37.4246 15.2308 37.425 15.2311L37.2865 15.4387L37.4238 15.2303C37.4241 15.2305 37.4235 15.2301 37.4238 15.2303ZM37.6112 20.0272L37.6125 20.0241C37.754 19.7056 37.8306 19.2984 37.8306 18.7928C37.8306 18.023 37.666 17.4997 37.3829 17.175L37.3809 17.1726C37.0924 16.8332 36.7148 16.6616 36.2234 16.6616C35.8964 16.6616 35.6199 16.7405 35.3851 16.8915L35.3797 16.8949C35.1522 17.0331 34.9632 17.2534 34.82 17.575C34.6881 17.8835 34.6163 18.2861 34.6163 18.7928C34.6163 19.5495 34.7795 20.0818 35.0669 20.4291C35.3552 20.7678 35.7326 20.939 36.2234 20.939C36.5504 20.939 36.8269 20.8601 37.0617 20.7091C37.2935 20.5601 37.4782 20.3375 37.6112 20.0272ZM34.5913 17.4752C34.751 17.1158 34.9706 16.8513 35.2501 16.6816C35.5296 16.5019 35.8541 16.412 36.2234 16.412C36.7824 16.412 37.2316 16.6117 37.571 17.011C37.9104 17.4003 38.0801 17.9942 38.0801 18.7928C38.0801 19.3219 38.0003 19.7661 37.8406 20.1255C37.6908 20.4749 37.4762 20.7394 37.1967 20.9191C36.9172 21.0987 36.5928 21.1886 36.2234 21.1886C35.6644 21.1886 35.2152 20.9889 34.8758 20.5896C34.5364 20.1804 34.3667 19.5814 34.3667 18.7928C34.3667 18.2638 34.4416 17.8245 34.5913 17.4752Z" fill="#30303D"/>
<path fill-rule="evenodd" clip-rule="evenodd" d="M23.118 22.3413C23.2778 22.501 23.5074 22.5809 23.8068 22.5809C24.4357 22.5809 24.7502 22.2615 24.7502 21.6226V18.3434C24.7502 17.7744 24.9099 17.3202 25.2293 16.9808C25.5587 16.6314 25.998 16.4567 26.547 16.4567C26.9962 16.4567 27.3256 16.5865 27.5352 16.846C27.7548 17.1056 27.8647 17.5198 27.8647 18.0888V21.6226C27.8647 21.932 27.9445 22.1716 28.1042 22.3413C28.2739 22.501 28.5085 22.5809 28.808 22.5809C29.1075 22.5809 29.3371 22.501 29.4968 22.3413C29.6565 22.1716 29.7364 21.932 29.7364 21.6226V17.999C29.7364 17.3202 29.6415 16.7612 29.4519 16.322C29.2622 15.8727 28.9777 15.5383 28.5984 15.3187C28.219 15.0991 27.7349 14.9893 27.1459 14.9893C26.557 14.9893 26.0279 15.1291 25.5587 15.4086C25.3266 15.5448 25.1252 15.7142 24.9543 15.9167C24.9415 15.9318 24.9289 15.9471 24.9165 15.9626C24.8395 16.0586 24.7691 16.1618 24.7052 16.272V15.9626C24.7052 15.9181 24.7036 15.8751 24.7003 15.8337C24.6806 15.5872 24.6024 15.3956 24.4657 15.2588C24.3059 15.0991 24.0813 15.0193 23.7919 15.0193C23.5024 15.0193 23.2778 15.0991 23.118 15.2588C22.9583 15.4185 22.8785 15.6531 22.8785 15.9626V21.6226C22.8785 21.932 22.9583 22.1716 23.118 22.3413ZM24.915 15.5913C24.869 15.3948 24.7813 15.2216 24.6421 15.0824C24.4234 14.8636 24.128 14.7697 23.7919 14.7697C23.4557 14.7697 23.1603 14.8636 22.9416 15.0824C22.7199 15.304 22.6289 15.612 22.6289 15.9626V21.6226C22.6289 21.9742 22.7203 22.2828 22.9363 22.5124L22.9362 22.5124L22.9416 22.5178C23.1618 22.738 23.4635 22.8305 23.8068 22.8305C24.1607 22.8305 24.4718 22.7403 24.6922 22.5164C24.9118 22.2932 24.9997 21.9795 24.9997 21.6226V18.3434C24.9997 17.8233 25.1443 17.4353 25.4109 17.152C25.6862 16.86 26.0559 16.7063 26.547 16.7063C26.9486 16.7063 27.1939 16.8206 27.3411 17.0028L27.341 17.0029L27.3447 17.0072C27.5078 17.2 27.6151 17.5422 27.6151 18.0888V21.6226C27.6151 21.9742 27.7065 22.2828 27.9225 22.5124L27.9222 22.5127L27.9332 22.523C28.1613 22.7377 28.4637 22.8305 28.808 22.8305C29.1513 22.8305 29.453 22.738 29.6732 22.5178L29.6733 22.5179L29.6785 22.5124C29.8945 22.2828 29.9859 21.9742 29.9859 21.6226V17.999C29.9859 17.2998 29.8886 16.7044 29.6813 16.2239C29.4731 15.7311 29.1547 15.3524 28.7234 15.1027C28.2952 14.8548 27.7642 14.7397 27.1459 14.7397C26.5159 14.7397 25.9423 14.8897 25.4317 15.1938" fill="#30303D"/>
<path fill-rule="evenodd" clip-rule="evenodd" d="M17.745 13.5685L17.7452 13.5682C17.4967 13.3327 17.3828 13.0176 17.3828 12.6533C17.3828 12.2824 17.4949 11.9623 17.7505 11.7337L17.7552 11.7294L17.7552 11.7295C18.0132 11.5103 18.3517 11.4155 18.7404 11.4155C19.136 11.4155 19.4791 11.5089 19.7304 11.7337C19.9859 11.9623 20.098 12.2824 20.098 12.6533C20.098 13.0176 19.9841 13.3327 19.7356 13.5682L19.7304 13.5731L19.7304 13.573C19.4791 13.7978 19.136 13.8912 18.7404 13.8912C18.3517 13.8912 18.0132 13.7964 17.7552 13.5772L17.745 13.5685ZM18.7404 22.8154C18.3885 22.8154 18.0834 22.7077 17.8651 22.4621C17.653 22.2235 17.5625 21.9078 17.5625 21.5476V16.0523C17.5625 15.687 17.6508 15.3671 17.8675 15.1352C18.0856 14.8915 18.3898 14.7846 18.7404 14.7846C19.0897 14.7846 19.3929 14.8907 19.6108 15.1324C19.8388 15.3638 19.9333 15.6847 19.9333 16.0523V21.5476C19.9333 21.9078 19.8428 22.2235 19.6307 22.4621C19.4108 22.7094 19.0993 22.8154 18.7404 22.8154ZM19.4292 15.3037C19.2695 15.124 19.0399 15.0341 18.7404 15.0341C18.4409 15.0341 18.2113 15.124 18.0516 15.3037C17.8919 15.4734 17.8121 15.7229 17.8121 16.0523V21.5476C17.8121 21.8671 17.8919 22.1166 18.0516 22.2963C18.2113 22.476 18.4409 22.5658 18.7404 22.5658C19.0499 22.5658 19.2845 22.476 19.4442 22.2963C19.6039 22.1166 19.6837 21.8671 19.6837 21.5476V16.0523C19.6837 15.7229 19.5989 15.4734 19.4292 15.3037ZM17.9169 13.387C18.1165 13.5567 18.391 13.6416 18.7404 13.6416C19.0998 13.6416 19.3743 13.5567 19.564 13.387C19.7536 13.2074 19.8485 12.9628 19.8485 12.6533C19.8485 12.3339 19.7536 12.0893 19.564 11.9196C19.3743 11.7499 19.0998 11.6651 18.7404 11.6651C18.391 11.6651 18.1165 11.7499 17.9169 11.9196C17.7272 12.0893 17.6324 12.3339 17.6324 12.6533C17.6324 12.9628 17.7272 13.2074 17.9169 13.387Z" fill="#30303D"/>
<path fill-rule="evenodd" clip-rule="evenodd" d="M5.51371 21.6825C5.51371 21.962 5.43884 22.1816 5.28911 22.3413C5.14936 22.501 4.93473 22.5809 4.64525 22.5809C4.36574 22.5809 4.15112 22.501 4.00138 22.3413C3.85165 22.1816 3.77678 21.962 3.77678 21.6825V12.6834C3.77678 12.3939 3.85664 12.1743 4.01636 12.0245C4.17608 11.8648 4.39569 11.785 4.67519 11.785C4.92475 11.785 5.11941 11.8349 5.25916 11.9347C5.4089 12.0245 5.54366 12.1843 5.66345 12.4138L9.12234 18.8135L12.5812 12.4138C12.701 12.1843 12.8308 12.0245 12.9705 11.9347C13.1103 11.8349 13.3049 11.785 13.5545 11.785C13.834 11.785 14.0486 11.8648 14.1984 12.0245C14.3481 12.1743 14.423 12.3939 14.423 12.6834V21.6825C14.423 21.962 14.3481 22.1816 14.1984 22.3413C14.0586 22.501 13.844 22.5809 13.5545 22.5809C13.275 22.5809 13.0604 22.501 12.9106 22.3413C12.7609 22.1816 12.686 21.962 12.686 21.6825V15.3505L9.87101 20.4846C9.77119 20.6543 9.66637 20.7791 9.55657 20.8589C9.44676 20.9388 9.29703 20.9787 9.10736 20.9787C8.9177 20.9787 8.76297 20.9388 8.64318 20.8589C8.52339 20.7691 8.41858 20.6443 8.32874 20.4846L5.51371 15.3857V21.6825ZM5.76327 16.3541V21.6825C5.76327 22.0056 5.67613 22.2915 5.47405 22.5089C5.27151 22.7381 4.97769 22.8304 4.64525 22.8304C4.31698 22.8304 4.02848 22.7351 3.81932 22.512C3.61519 22.2943 3.52722 22.0072 3.52722 21.6825V12.6834C3.52722 12.3497 3.62003 12.0558 3.84271 11.8453C4.0595 11.6301 4.34758 11.5354 4.67519 11.5354C4.95036 11.5354 5.19991 11.5892 5.39601 11.7258C5.59543 11.8484 5.75436 12.049 5.88384 12.2968L9.12234 18.2886L12.3608 12.2968C12.4891 12.0512 12.6421 11.851 12.8305 11.7281C13.0271 11.5897 13.2778 11.5354 13.5545 11.5354C13.8813 11.5354 14.1688 11.6299 14.3777 11.851C14.5872 12.0623 14.6725 12.3541 14.6725 12.6834V21.6825C14.6725 22.0056 14.5854 22.2915 14.3833 22.5089C14.1808 22.7381 13.887 22.8304 13.5545 22.8304C13.2262 22.8304 12.9377 22.7351 12.7286 22.512C12.5244 22.2943 12.4365 22.0072 12.4365 21.6825V16.3247L10.0862 20.6112C9.97621 20.7982 9.85039 20.9538 9.70335 21.0608C9.53694 21.1818 9.3294 21.2283 9.10736 21.2283C8.88382 21.2283 8.6767 21.1812 8.50475 21.0666L8.49322 21.0589C8.34024 20.9442 8.21434 20.7903 8.11123 20.6069L8.11026 20.6052L5.76327 16.3541Z" fill="#30303D"/>
<path fill-rule="evenodd" clip-rule="evenodd" d="M0 29.9071C0 29.5625 0.279329 29.2832 0.623898 29.2832H14.3496C14.6942 29.2832 14.9735 29.5625 14.9735 29.9071C14.9735 30.2517 14.6942 30.531 14.3496 30.531H0.623898C0.279329 30.531 0 30.2517 0 29.9071Z" fill="#30303D"/>
<path fill-rule="evenodd" clip-rule="evenodd" d="M44.4515 33.6607C44.7709 33.7206 45.0737 33.7505 45.3599 33.7505C45.9921 33.7505 46.4979 33.6141 46.8772 33.3412C47.2565 33.0617 47.4462 32.6791 47.4462 32.1933C47.4462 31.8339 47.3331 31.5477 47.1068 31.3348C46.8872 31.1218 46.5611 30.9754 46.1285 30.8955L45.1303 30.7059C44.9373 30.6726 44.7942 30.6094 44.701 30.5162C44.6079 30.423 44.5613 30.3066 44.5613 30.1668C44.5613 29.9805 44.6378 29.8308 44.7909 29.7176C44.9506 29.6045 45.1935 29.5479 45.5196 29.5479C45.6926 29.5479 45.8723 29.5712 46.0586 29.6178C46.2516 29.6644 46.4513 29.7409 46.6576 29.8474C46.7707 29.9006 46.8705 29.9206 46.9571 29.9073C47.0502 29.8873 47.1268 29.8441 47.1866 29.7775C47.2465 29.7043 47.2865 29.6245 47.3064 29.5379C47.3264 29.4448 47.3164 29.3549 47.2765 29.2684C47.2432 29.1819 47.1767 29.112 47.0768 29.0588C46.8373 28.9257 46.5877 28.8292 46.3282 28.7693C46.0753 28.7028 45.8024 28.6695 45.5096 28.6695C45.1037 28.6695 44.7443 28.7327 44.4315 28.8591C44.1187 28.9856 43.8725 29.1653 43.6928 29.3982C43.5198 29.6311 43.4333 29.9073 43.4333 30.2267C43.4333 30.5794 43.5398 30.8689 43.7527 31.0952C43.9723 31.3148 44.2884 31.4645 44.701 31.5444L45.6993 31.7341C45.9056 31.774 46.0586 31.8372 46.1585 31.9237C46.2649 32.0036 46.3182 32.1201 46.3182 32.2731C46.3182 32.4528 46.2383 32.5992 46.0786 32.7123C45.9255 32.8188 45.6893 32.8721 45.3699 32.8721C45.1436 32.8721 44.914 32.8488 44.6811 32.8022C44.4482 32.7489 44.1986 32.6591 43.9324 32.5327C43.8259 32.4794 43.7261 32.4628 43.6329 32.4827C43.5464 32.5027 43.4732 32.546 43.4133 32.6125C43.3601 32.6791 43.3268 32.7589 43.3135 32.8521C43.3068 32.9386 43.3235 33.0284 43.3634 33.1216C43.41 33.2081 43.4865 33.2847 43.593 33.3512C43.8459 33.4976 44.132 33.6008 44.4515 33.6607ZM44.7334 32.5581C44.9498 32.6012 45.1619 32.6225 45.3699 32.6225C45.6698 32.6225 45.8442 32.571 45.9352 32.5081C46.0351 32.437 46.0686 32.3635 46.0686 32.2731C46.0686 32.1852 46.0424 32.1486 46.0087 32.1234L45.9946 32.1128C45.942 32.0672 45.8384 32.0152 45.6524 31.9792C45.6522 31.9792 45.6526 31.9792 45.6524 31.9792L44.6545 31.7896C44.2098 31.7035 43.8415 31.5369 43.5762 31.2717L43.5709 31.2663C43.3084 30.9874 43.1837 30.6337 43.1837 30.2267C43.1837 29.8594 43.2843 29.5297 43.4925 29.2494L43.4952 29.2457C43.7057 28.9728 43.9902 28.7683 44.338 28.6278C44.6859 28.4871 45.078 28.4199 45.5096 28.4199C45.82 28.4199 46.1131 28.455 46.388 28.527C46.669 28.5922 46.9386 28.6967 47.1963 28.8397C47.3336 28.9134 47.4465 29.0216 47.5064 29.171C47.5662 29.3045 47.5812 29.4469 47.5505 29.5902L47.5496 29.5941C47.5205 29.7204 47.4623 29.8347 47.3798 29.9356L47.3723 29.9447C47.275 30.0529 47.1504 30.1211 47.0093 30.1513L46.9951 30.1544C46.8426 30.1778 46.691 30.1389 46.5513 30.0732L46.543 30.0693C46.3516 29.9705 46.1707 29.9016 46.0001 29.8604L45.9981 29.8599C45.8294 29.8177 45.6701 29.7975 45.5196 29.7975C45.2161 29.7975 45.0354 29.8513 44.9371 29.9199C44.8476 29.9868 44.8108 30.0625 44.8108 30.1668C44.8108 30.2449 44.8342 30.2964 44.8775 30.3398C44.9204 30.3827 45.0071 30.4314 45.1727 30.46L45.1769 30.4607L46.1738 30.6501C46.1736 30.6501 46.174 30.6502 46.1738 30.6501C46.6335 30.7351 47.0121 30.896 47.2792 31.1543C47.5626 31.4218 47.6957 31.7775 47.6957 32.1933C47.6957 32.7555 47.4707 33.2139 47.0252 33.5421L47.0229 33.5438C46.5885 33.8563 46.0262 34.0001 45.3599 34.0001C45.0564 34.0001 44.7381 33.9683 44.4055 33.9059C44.0613 33.8414 43.7479 33.7293 43.468 33.5672L43.4607 33.563C43.3274 33.4797 43.2158 33.3738 43.1437 33.2399L43.1384 33.2301L43.134 33.2199C43.0809 33.096 43.0544 32.9659 43.0647 32.833L43.0659 32.8167C43.0849 32.6841 43.1345 32.5615 43.2184 32.4566L43.2275 32.4453C43.3214 32.341 43.4399 32.2712 43.5768 32.2396L43.5806 32.2387C43.7409 32.2043 43.898 32.2369 44.0415 32.3082C44.2928 32.4274 44.5232 32.5098 44.7334 32.5581Z" fill="#30303D"/>
<path fill-rule="evenodd" clip-rule="evenodd" d="M39.6774 27.7831L39.6776 27.7828C39.4923 27.6072 39.41 27.3736 39.41 27.1125C39.41 26.848 39.4905 26.6094 39.6829 26.4374L39.6876 26.4331L39.6876 26.4332C39.879 26.2705 40.1261 26.2041 40.3983 26.2041C40.6741 26.2041 40.9257 26.2692 41.1137 26.4374C41.306 26.6094 41.3865 26.848 41.3865 27.1125C41.3865 27.3736 41.3043 27.6072 41.119 27.7828L41.1138 27.7877L41.1137 27.7876C40.9257 27.9558 40.6741 28.0209 40.3983 28.0209C40.1261 28.0209 39.879 27.9544 39.6876 27.7918L39.6774 27.7831ZM40.3983 33.9704C40.1462 33.9704 39.9177 33.8927 39.7526 33.7069C39.5937 33.5282 39.5298 33.2957 39.5298 33.042V29.3785C39.5298 29.1229 39.5915 28.8863 39.7549 28.7109C39.9198 28.5271 40.1474 28.4501 40.3983 28.4501C40.6479 28.4501 40.8744 28.5263 41.0391 28.7081C41.2104 28.8828 41.2767 29.1205 41.2767 29.3785V33.042C41.2767 33.2957 41.2128 33.5282 41.054 33.7069C40.8874 33.8944 40.654 33.9704 40.3983 33.9704ZM40.8575 28.8794C40.751 28.7596 40.5979 28.6997 40.3983 28.6997C40.1986 28.6997 40.0456 28.7596 39.9391 28.8794C39.8326 28.9925 39.7794 29.1589 39.7794 29.3785V33.042C39.7794 33.255 39.8326 33.4214 39.9391 33.5411C40.0456 33.6609 40.1986 33.7208 40.3983 33.7208C40.6046 33.7208 40.761 33.6609 40.8675 33.5411C40.9739 33.4214 41.0272 33.255 41.0272 33.042V29.3785C41.0272 29.1589 40.9706 28.9925 40.8575 28.8794ZM39.8493 27.6016C39.9824 27.7148 40.1654 27.7713 40.3983 27.7713C40.6379 27.7713 40.8209 27.7148 40.9473 27.6016C41.0738 27.4818 41.137 27.3188 41.137 27.1125C41.137 26.8995 41.0738 26.7365 40.9473 26.6234C40.8209 26.5102 40.6379 26.4537 40.3983 26.4537C40.1654 26.4537 39.9824 26.5102 39.8493 26.6234C39.7228 26.7365 39.6596 26.8995 39.6596 27.1125C39.6596 27.3188 39.7228 27.4818 39.8493 27.6016Z" fill="#30303D"/>
<path fill-rule="evenodd" clip-rule="evenodd" d="M32.8507 33.5708C32.9572 33.6773 33.1102 33.7305 33.3099 33.7305C33.7291 33.7305 33.9388 33.5176 33.9388 33.0917V30.9055C33.9388 30.5262 34.0452 30.2234 34.2582 29.9971C34.4778 29.7642 34.7706 29.6478 35.1366 29.6478C35.4361 29.6478 35.6557 29.7343 35.7955 29.9073C35.9419 30.0803 36.0151 30.3565 36.0151 30.7358V33.0917C36.0151 33.298 36.0683 33.4577 36.1748 33.5708C36.2879 33.6773 36.4443 33.7305 36.644 33.7305C36.8436 33.7305 36.9967 33.6773 37.1032 33.5708C37.2096 33.4577 37.2629 33.298 37.2629 33.0917V30.6759C37.2629 30.2234 37.1997 29.8507 37.0732 29.5579C36.9468 29.2584 36.7571 29.0355 36.5042 28.8891C36.2513 28.7427 35.9286 28.6695 35.5359 28.6695C35.1433 28.6695 34.7906 28.7626 34.4778 28.949C34.3573 29.0197 34.2491 29.1039 34.1533 29.2015C34.117 29.2385 34.0824 29.2775 34.0497 29.3183C33.9983 29.3824 33.9514 29.4511 33.9088 29.5246V29.3183C33.9088 29.2463 33.9023 29.1804 33.8894 29.1206C33.8652 29.009 33.8184 28.9185 33.7491 28.8492C33.6426 28.7427 33.4929 28.6894 33.2999 28.6894C33.1069 28.6894 32.9572 28.7427 32.8507 28.8492C32.7442 28.9556 32.691 29.112 32.691 29.3183V33.0917C32.691 33.298 32.7442 33.4577 32.8507 33.5708ZM34.0884 28.9209C34.0513 28.8291 33.9981 28.7452 33.9256 28.6727C33.7601 28.5072 33.5395 28.4399 33.2999 28.4399C33.0602 28.4399 32.8397 28.5072 32.6742 28.6727C32.5058 28.8411 32.4414 29.0709 32.4414 29.3183V33.0917C32.4414 33.3402 32.5062 33.5689 32.669 33.7419L32.6689 33.7419L32.6742 33.7473C32.8412 33.9143 33.0664 33.9801 33.3099 33.9801C33.559 33.9801 33.7914 33.9165 33.9594 33.7459C34.1266 33.576 34.1883 33.3421 34.1883 33.0917V30.9055C34.1883 30.5751 34.2797 30.3385 34.4398 30.1683C34.6053 29.9928 34.8286 29.8973 35.1366 29.8973C35.3886 29.8973 35.5241 29.9684 35.6013 30.0641L35.6013 30.0641L35.605 30.0685C35.6949 30.1747 35.7655 30.3789 35.7655 30.7358V33.0917C35.7655 33.3402 35.8303 33.5689 35.9931 33.7419L35.9927 33.7422L36.0038 33.7526C36.1753 33.914 36.3996 33.9801 36.644 33.9801C36.8875 33.9801 37.1126 33.9143 37.2796 33.7473L37.2797 33.7474L37.2849 33.7419C37.4477 33.5689 37.5124 33.3402 37.5124 33.0917V30.6759C37.5124 30.2031 37.4468 29.7941 37.3028 29.46C37.1577 29.1169 36.9341 28.8496 36.6293 28.6731C36.3275 28.4984 35.9579 28.4199 35.5359 28.4199C35.1023 28.4199 34.705 28.5233 34.3508 28.7342C34.2567 28.7895 34.1692 28.8518 34.0884 28.9209Z" fill="#30303D"/>
<path fill-rule="evenodd" clip-rule="evenodd" d="M28.7986 27.7831L28.7988 27.7828C28.6135 27.6072 28.5312 27.3736 28.5312 27.1125C28.5312 26.848 28.6118 26.6094 28.8041 26.4374L28.8088 26.4331L28.8088 26.4332C29.0002 26.2705 29.2473 26.2041 29.5195 26.2041C29.7953 26.2041 30.0469 26.2692 30.2349 26.4374C30.4272 26.6094 30.5078 26.848 30.5078 27.1125C30.5078 27.3736 30.4255 27.6072 30.2402 27.7828L30.235 27.7877L30.2349 27.7876C30.0469 27.9558 29.7953 28.0209 29.5195 28.0209C29.2473 28.0209 29.0002 27.9544 28.8088 27.7918L28.7986 27.7831ZM29.5195 33.9704C29.2675 33.9704 29.0389 33.8927 28.8738 33.7069C28.7149 33.5282 28.651 33.2957 28.651 33.042V29.3785C28.651 29.1229 28.7127 28.8863 28.8761 28.711C29.041 28.5271 29.2686 28.4501 29.5195 28.4501C29.7691 28.4501 29.9956 28.5263 30.1603 28.7081C30.3317 28.8828 30.398 29.1205 30.398 29.3785V33.042C30.398 33.2957 30.3341 33.5282 30.1752 33.7069C30.0086 33.8944 29.7753 33.9704 29.5195 33.9704ZM29.9787 28.8794C29.8722 28.7596 29.7192 28.6997 29.5195 28.6997C29.3199 28.6997 29.1668 28.7596 29.0603 28.8794C28.9538 28.9925 28.9006 29.1589 28.9006 29.3785V33.042C28.9006 33.255 28.9538 33.4214 29.0603 33.5411C29.1668 33.6609 29.3199 33.7208 29.5195 33.7208C29.7258 33.7208 29.8822 33.6609 29.9887 33.5411C30.0952 33.4214 30.1484 33.255 30.1484 33.042V29.3785C30.1484 29.1589 30.0918 28.9925 29.9787 28.8794ZM28.9705 27.6016C29.1036 27.7148 29.2866 27.7713 29.5195 27.7713C29.7591 27.7713 29.9421 27.7148 30.0685 27.6016C30.195 27.4818 30.2582 27.3188 30.2582 27.1125C30.2582 26.8995 30.195 26.7365 30.0685 26.6234C29.9421 26.5102 29.7591 26.4537 29.5195 26.4537C29.2866 26.4537 29.1036 26.5102 28.9705 26.6234C28.844 26.7365 28.7808 26.8995 28.7808 27.1125C28.7808 27.3188 28.844 27.4818 28.9705 27.6016Z" fill="#30303D"/>
<path fill-rule="evenodd" clip-rule="evenodd" d="M20.2825 33.1318C20.2825 33.3182 20.2326 33.4646 20.1328 33.5711C20.0396 33.6775 19.8965 33.7308 19.7035 33.7308C19.5172 33.7308 19.3741 33.6775 19.2743 33.5711C19.1745 33.4646 19.1246 33.3182 19.1246 33.1318V27.1324C19.1246 26.9394 19.1778 26.793 19.2843 26.6932C19.3908 26.5867 19.5372 26.5335 19.7235 26.5335C19.8899 26.5335 20.0196 26.5668 20.1128 26.6333C20.2126 26.6932 20.3025 26.7997 20.3823 26.9528L22.6883 31.2192L24.9942 26.9528C25.074 26.7997 25.1606 26.6932 25.2537 26.6333C25.3469 26.5668 25.4767 26.5335 25.643 26.5335C25.8294 26.5335 25.9725 26.5867 26.0723 26.6932C26.1721 26.793 26.222 26.9394 26.222 27.1324V33.1318C26.222 33.3182 26.1721 33.4646 26.0723 33.5711C25.9791 33.6775 25.836 33.7308 25.643 33.7308C25.4567 33.7308 25.3136 33.6775 25.2138 33.5711C25.114 33.4646 25.0641 33.3182 25.0641 33.1318V28.9105L23.1874 32.3332C23.1208 32.4464 23.051 32.5296 22.9778 32.5828C22.9045 32.636 22.8047 32.6627 22.6783 32.6627C22.5518 32.6627 22.4487 32.636 22.3688 32.5828C22.289 32.5229 22.2191 32.4397 22.1592 32.3332L20.2825 28.934V33.1318ZM20.5321 29.9023V33.1318C20.5321 33.3619 20.4698 33.5746 20.3177 33.7386C20.1618 33.9145 19.9396 33.9803 19.7035 33.9803C19.4684 33.9803 19.2515 33.9116 19.0922 33.7417C18.938 33.5772 18.875 33.3634 18.875 33.1318V27.1324C18.875 26.8951 18.9412 26.6746 19.1106 26.5139C19.2742 26.3521 19.489 26.2839 19.7235 26.2839C19.9158 26.2839 20.1003 26.3212 20.2496 26.4245C20.3989 26.5169 20.513 26.6641 20.6027 26.8356L22.6883 30.6943L24.7738 26.8356C24.8623 26.6664 24.972 26.5195 25.1137 26.4267C25.2636 26.3217 25.4494 26.2839 25.643 26.2839C25.8768 26.2839 26.0926 26.3519 26.2516 26.5196C26.4112 26.681 26.4716 26.8995 26.4716 27.1324V33.1318C26.4716 33.3619 26.4094 33.5746 26.2572 33.7386C26.1013 33.9145 25.8791 33.9803 25.643 33.9803C25.4079 33.9803 25.191 33.9116 25.0317 33.7417C24.8775 33.5772 24.8145 33.3634 24.8145 33.1318V29.8848L23.4026 32.4598C23.3259 32.5903 23.235 32.7043 23.1245 32.7846C22.9947 32.879 22.8371 32.9122 22.6783 32.9122C22.518 32.9122 22.3624 32.8785 22.2304 32.7905L22.2189 32.7828C22.1058 32.698 22.0149 32.5857 21.9417 32.4556L21.9407 32.4539L20.5321 29.9023Z" fill="#30303D"/>
<path fill-rule="evenodd" clip-rule="evenodd" d="M49.9141 29.9071C49.9141 29.5625 50.1934 29.2832 50.538 29.2832H64.2637C64.6083 29.2832 64.8876 29.5625 64.8876 29.9071C64.8876 30.2517 64.6083 30.531 64.2637 30.531H50.538C50.1934 30.531 49.9141 30.2517 49.9141 29.9071Z" fill="#30303D"/>
<defs>
<filter id="filter0_f_11099_49478" x="16.7538" y="1.73071" width="32.6353" height="21.6602" filterUnits="userSpaceOnUse" color-interpolation-filters="sRGB">
<feFlood flood-opacity="0" result="BackgroundImageFix"/>
<feBlend mode="normal" in="SourceGraphic" in2="BackgroundImageFix" result="shape"/>
<feGaussianBlur stdDeviation="5" result="effect1_foregroundBlur_11099_49478"/>
</filter>
<linearGradient id="paint0_linear_11099_49478" x1="29.5203" y1="9.05762" x2="36.5665" y2="-0.1067" gradientUnits="userSpaceOnUse">
<stop stop-color="#9D9FE6"/>
<stop offset="0.163505" stop-color="#CFC0FF"/>
<stop offset="1" stop-color="#8E00FF"/>
</linearGradient>
<linearGradient id="paint1_linear_11099_49478" x1="29.4672" y1="2.56835" x2="31.3101" y2="2.82235" gradientUnits="userSpaceOnUse">
<stop stop-color="white" stop-opacity="0"/>
<stop offset="1" stop-color="#8E00FF"/>
</linearGradient>
<linearGradient id="paint2_linear_11099_49478" x1="32.9626" y1="12.7893" x2="39.9705" y2="-18.6217" gradientUnits="userSpaceOnUse">
<stop stop-color="#9D9FE6"/>
<stop offset="0.163505" stop-color="#CFC0FF"/>
<stop offset="1" stop-color="#8E00FF"/>
</linearGradient>
<linearGradient id="paint3_linear_11099_49478" x1="32.5487" y1="-1.8851" x2="44.4889" y2="3.78644" gradientUnits="userSpaceOnUse">
<stop stop-color="white" stop-opacity="0"/>
<stop offset="1" stop-color="#8E00FF"/>
</linearGradient>
<linearGradient id="paint4_linear_11099_49478" x1="29.4867" y1="12.8933" x2="32.7937" y2="-4.47816" gradientUnits="userSpaceOnUse">
<stop stop-color="#9D9FE6"/>
<stop offset="0.163505" stop-color="#CFC0FF"/>
<stop offset="1" stop-color="#8E00FF"/>
</linearGradient>
<linearGradient id="paint5_linear_11099_49478" x1="29.222" y1="4.88244" x2="36.3696" y2="8.86137" gradientUnits="userSpaceOnUse">
<stop stop-color="white" stop-opacity="0"/>
<stop offset="1" stop-color="#8E00FF"/>
</linearGradient>
<linearGradient id="paint6_linear_11099_49478" x1="36.4863" y1="12.5359" x2="43.9965" y2="-6.93051" gradientUnits="userSpaceOnUse">
<stop stop-color="#9D9FE6"/>
<stop offset="0.163505" stop-color="#CFC0FF"/>
<stop offset="1" stop-color="#8E00FF"/>
</linearGradient>
<linearGradient id="paint7_linear_11099_49478" x1="36.324" y1="2.58348" x2="41.6609" y2="4.04945" gradientUnits="userSpaceOnUse">
<stop stop-color="white" stop-opacity="0"/>
<stop offset="1" stop-color="#8E00FF"/>
</linearGradient>
<linearGradient id="paint8_linear_11099_49478" x1="33.1644" y1="2.94312" x2="39.4658" y2="-11.1244" gradientUnits="userSpaceOnUse">
<stop stop-color="#9D9FE6"/>
<stop offset="0.163505" stop-color="#CFC0FF"/>
<stop offset="1" stop-color="#8E00FF"/>
</linearGradient>
<linearGradient id="paint9_linear_11099_49478" x1="33.0588" y1="-4.57341" x2="36.5944" y2="-3.73697" gradientUnits="userSpaceOnUse">
<stop stop-color="white" stop-opacity="0"/>
<stop offset="1" stop-color="#8E00FF"/>
</linearGradient>
<linearGradient id="paint10_linear_11099_49478" x1="36.3746" y1="8.07446" x2="47.7327" y2="-35.3388" gradientUnits="userSpaceOnUse">
<stop stop-color="#9D9FE6"/>
<stop offset="0.163505" stop-color="#CFC0FF"/>
<stop offset="1" stop-color="#8E00FF"/>
</linearGradient>
<linearGradient id="paint11_linear_11099_49478" x1="35.8781" y1="-12.5679" x2="50.9584" y2="-6.45955" gradientUnits="userSpaceOnUse">
<stop stop-color="white" stop-opacity="0"/>
<stop offset="1" stop-color="#8E00FF"/>
</linearGradient>
<linearGradient id="paint12_linear_11099_49478" x1="33.1499" y1="7.53345" x2="45.5095" y2="-25.5137" gradientUnits="userSpaceOnUse">
<stop stop-color="#9D9FE6"/>
<stop offset="0.163505" stop-color="#CFC0FF"/>
<stop offset="1" stop-color="#8E00FF"/>
</linearGradient>
<linearGradient id="paint13_linear_11099_49478" x1="32.8678" y1="-9.2304" x2="42.0995" y2="-6.61458" gradientUnits="userSpaceOnUse">
<stop stop-color="white" stop-opacity="0"/>
<stop offset="1" stop-color="#8E00FF"/>
</linearGradient>
</defs>
</svg>
