<svg width="29" height="28" viewBox="0 0 29 28" fill="none" xmlns="http://www.w3.org/2000/svg">
<rect width="28" height="28" transform="translate(0.900024)" fill="#F7F8F8"/>
<path d="M12.7942 6.81098L8.15052 10.5354C7.37514 11.1561 6.74622 12.4774 6.74622 13.4794V20.0504C6.74622 22.1076 8.37452 23.7925 10.3733 23.7925H20.3499C22.3487 23.7925 23.977 22.1076 23.977 20.0592V13.6036C23.977 12.5306 23.2791 11.1561 22.4262 10.5443L17.1019 6.70457C15.8958 5.83554 13.9573 5.87988 12.7942 6.81098Z" fill="url(#paint0_linear_12019_27676)" fill-opacity="0.5"/>
<path d="M12.7942 6.81098L8.15052 10.5354C7.37514 11.1561 6.74622 12.4774 6.74622 13.4794V20.0504C6.74622 22.1076 8.37452 23.7925 10.3733 23.7925H20.3499C22.3487 23.7925 23.977 22.1076 23.977 20.0592V13.6036C23.977 12.5306 23.2791 11.1561 22.4262 10.5443L17.1019 6.70457C15.8958 5.83554 13.9573 5.87988 12.7942 6.81098Z" fill="url(#paint1_linear_12019_27676)" fill-opacity="0.2"/>
<ellipse cx="22.6846" cy="3.8647" rx="0.430769" ry="0.443439" fill="#FF887F"/>
<ellipse cx="24.8385" cy="22.0453" rx="0.861538" ry="0.886878" fill="#A6A5EB"/>
<ellipse cx="3.73082" cy="24.2625" rx="0.430769" ry="0.443439" fill="#CEBDFF"/>
<path d="M6.43204 2.64245C6.52896 2.3354 6.96346 2.3354 7.06038 2.64245C7.10365 2.77953 7.23155 2.87273 7.3753 2.87273C7.69723 2.87273 7.83674 3.28275 7.57893 3.47556L7.56356 3.48706C7.44892 3.5728 7.40101 3.72163 7.4441 3.85815L7.4522 3.88381C7.54815 4.18781 7.19803 4.43628 6.94274 4.24535C6.82621 4.1582 6.66621 4.1582 6.54968 4.24535C6.29439 4.43628 5.94427 4.18781 6.04022 3.88381L6.04832 3.85815C6.09141 3.72163 6.0435 3.5728 5.92886 3.48706L5.91348 3.47556C5.65568 3.28275 5.79519 2.87273 6.11712 2.87273C6.26087 2.87273 6.38877 2.77953 6.43204 2.64245Z" fill="#FF887F"/>
<path d="M11.12 4.14201L5.73004 8.47147C4.83004 9.19305 4.10004 10.729 4.10004 11.8938V19.5322C4.10004 21.9237 5.99004 23.8823 8.31004 23.8823H19.89C22.21 23.8823 24.1 21.9237 24.1 19.5425V12.0381C24.1 10.7908 23.29 9.19305 22.3 8.48178L16.12 4.01831C14.72 3.0081 12.47 3.05964 11.12 4.14201Z" stroke="#47454D" stroke-width="2" stroke-linecap="round" stroke-linejoin="round"/>
<path d="M14.5 17.2942L14.5 15.6471" stroke="#47454D" stroke-width="1.5" stroke-linecap="round" stroke-linejoin="round"/>
<defs>
<linearGradient id="paint0_linear_12019_27676" x1="13.6731" y1="23.7925" x2="16.7786" y2="6.70731" gradientUnits="userSpaceOnUse">
<stop stop-color="#6E40F9"/>
<stop offset="0.457887" stop-color="#A569FB"/>
<stop offset="1" stop-color="#CE89FF"/>
</linearGradient>
<linearGradient id="paint1_linear_12019_27676" x1="13.6659" y1="52.8234" x2="5.85561" y2="51.3355" gradientUnits="userSpaceOnUse">
<stop stop-color="white" stop-opacity="0"/>
<stop offset="1" stop-color="#8E00FF"/>
</linearGradient>
</defs>
</svg>
