<svg width="29" height="28" viewBox="0 0 29 28" fill="none" xmlns="http://www.w3.org/2000/svg">
<path fill-rule="evenodd" clip-rule="evenodd" d="M9.34692 18.8964C9.34692 18.3997 9.73813 17.9969 10.2207 17.9969H18.6324C19.1149 17.9969 19.5061 18.3997 19.5061 18.8964C19.5061 19.3932 19.1149 19.7959 18.6324 19.7959H10.2207C9.73813 19.7959 9.34692 19.3932 9.34692 18.8964Z" fill="#77747C"/>
<path fill-rule="evenodd" clip-rule="evenodd" d="M9.34692 14.3873C9.34692 13.8905 9.73813 13.4878 10.2207 13.4878H18.6324C19.1149 13.4878 19.5061 13.8905 19.5061 14.3873C19.5061 14.8841 19.1149 15.2868 18.6324 15.2868H10.2207C9.73813 15.2868 9.34692 14.8841 9.34692 14.3873Z" fill="#77747C"/>
<path fill-rule="evenodd" clip-rule="evenodd" d="M9.34692 9.87873C9.34692 9.38196 9.73813 8.97925 10.2207 8.97925H13.4304C13.913 8.97925 14.3042 9.38196 14.3042 9.87873C14.3042 10.3755 13.913 10.7782 13.4304 10.7782H10.2207C9.73813 10.7782 9.34692 10.3755 9.34692 9.87873Z" fill="#77747C"/>
<path fill-rule="evenodd" clip-rule="evenodd" d="M6.15975 5.19269C7.94452 3.1673 10.7131 2.47058 14.4443 2.47058C18.1759 2.47058 20.9446 3.16728 22.7292 5.19272C24.4905 7.19167 25.094 10.2682 25.094 14.4637C25.094 18.6592 24.4905 21.7358 22.7292 23.7347C20.9446 25.7602 18.1759 26.4569 14.4443 26.4569C10.7131 26.4569 7.94452 25.7601 6.15975 23.7347C4.39829 21.7358 3.79456 18.6593 3.79456 14.4637C3.79456 10.2681 4.39829 7.19161 6.15975 5.19269ZM7.45412 6.40137C6.16052 7.86936 5.54213 10.3397 5.54213 14.4637C5.54213 18.5878 6.16052 21.0581 7.45412 22.5261C8.72439 23.9676 10.8437 24.6579 14.4443 24.6579C18.0454 24.6579 20.1647 23.9676 21.4348 22.5261C22.7283 21.0581 23.3464 18.5878 23.3464 14.4637C23.3464 10.3396 22.7283 7.8693 21.4348 6.40134C20.1647 4.95986 18.0454 4.26955 14.4443 4.26955C10.8437 4.26955 8.72439 4.95984 7.45412 6.40137Z" fill="#77747C"/>
</svg>
