<svg width="35" height="34" viewBox="0 0 35 34" fill="none" xmlns="http://www.w3.org/2000/svg">
<circle cx="30.4234" cy="3.26908" r="0.653847" fill="#FF887F"/>
<circle cx="33.6912" cy="30.0772" r="1.30769" fill="#A6A5EB"/>
<circle cx="1.65385" cy="33.3453" r="0.653847" fill="#CEBDFF"/>
<path d="M5.75679 1.46205C5.90632 1.00186 6.55737 1.00186 6.70689 1.46205C6.77376 1.66785 6.96554 1.80719 7.18194 1.80719C7.66581 1.80719 7.86699 2.42637 7.47553 2.71078C7.30047 2.83798 7.22721 3.06343 7.29408 3.26923C7.44361 3.72942 6.9169 4.1121 6.52544 3.82769C6.35037 3.70049 6.11331 3.70049 5.93825 3.82769C5.54679 4.1121 5.02008 3.72942 5.1696 3.26923C5.23647 3.06343 5.16322 2.83798 4.98815 2.71078C4.59669 2.42637 4.79788 1.80719 5.28175 1.80719C5.49814 1.80719 5.68993 1.66785 5.75679 1.46205Z" fill="#FF887F"/>
<path d="M7.56404 7.62017C7.7199 5.75268 9.17754 4.27238 11.0434 4.098C13.3428 3.88311 16.4471 3.64258 18.8229 3.64258C21.31 3.64258 24.5952 3.90614 26.9198 4.12797C28.6365 4.29178 30.0249 5.56642 30.3147 7.26636C30.7702 9.938 31.3575 13.9705 31.3575 16.9997C31.3575 20.029 30.7702 24.0615 30.3147 26.7331C30.0249 28.433 28.6365 29.7077 26.9198 29.8715C24.5952 30.0933 21.31 30.3569 18.8229 30.3569C16.4471 30.3569 13.3428 30.1164 11.0434 29.9015C9.17754 29.7271 7.7199 28.2468 7.56404 26.3793C7.3412 23.7091 7.07178 19.8844 7.07178 16.9997C7.07178 14.115 7.3412 10.2903 7.56404 7.62017Z" fill="#D9D9D9"/>
<path d="M7.56404 7.62017C7.7199 5.75268 9.17754 4.27238 11.0434 4.098C13.3428 3.88311 16.4471 3.64258 18.8229 3.64258C21.31 3.64258 24.5952 3.90614 26.9198 4.12797C28.6365 4.29178 30.0249 5.56642 30.3147 7.26636C30.7702 9.938 31.3575 13.9705 31.3575 16.9997C31.3575 20.029 30.7702 24.0615 30.3147 26.7331C30.0249 28.433 28.6365 29.7077 26.9198 29.8715C24.5952 30.0933 21.31 30.3569 18.8229 30.3569C16.4471 30.3569 13.3428 30.1164 11.0434 29.9015C9.17754 29.7271 7.7199 28.2468 7.56404 26.3793C7.3412 23.7091 7.07178 19.8844 7.07178 16.9997C7.07178 14.115 7.3412 10.2903 7.56404 7.62017Z" fill="url(#paint0_linear_12019_22790)"/>
<path fill-rule="evenodd" clip-rule="evenodd" d="M11.0586 21.9457C11.0586 21.3425 11.5476 20.8535 12.1508 20.8535H22.6654C23.2686 20.8535 23.7576 21.3425 23.7576 21.9457C23.7576 22.549 23.2686 23.038 22.6654 23.038H12.1508C11.5476 23.038 11.0586 22.549 11.0586 21.9457Z" fill="#676D75"/>
<path fill-rule="evenodd" clip-rule="evenodd" d="M11.0586 16.4704C11.0586 15.8672 11.5476 15.3782 12.1508 15.3782H22.6654C23.2686 15.3782 23.7576 15.8672 23.7576 16.4704C23.7576 17.0736 23.2686 17.5626 22.6654 17.5626H12.1508C11.5476 17.5626 11.0586 17.0736 11.0586 16.4704Z" fill="#676D75"/>
<path fill-rule="evenodd" clip-rule="evenodd" d="M11.0586 10.9956C11.0586 10.3923 11.5476 9.90332 12.1508 9.90332H16.163C16.7662 9.90332 17.2552 10.3923 17.2552 10.9956C17.2552 11.5988 16.7662 12.0878 16.163 12.0878H12.1508C11.5476 12.0878 11.0586 11.5988 11.0586 10.9956Z" fill="#676D75"/>
<path fill-rule="evenodd" clip-rule="evenodd" d="M7.07465 5.30542C9.30562 2.84601 12.7664 2 17.4303 2C22.0949 2 25.5557 2.84599 27.7865 5.30545C29.9881 7.73275 30.7424 11.4685 30.7424 16.5631C30.7424 21.6577 29.9881 25.3934 27.7865 27.8207C25.5557 30.2802 22.0949 31.1262 17.4303 31.1262C12.7664 31.1262 9.30562 30.2802 7.07465 27.8208C4.87284 25.3935 4.11816 21.6578 4.11816 16.5631C4.11816 11.4684 4.87284 7.73268 7.07465 5.30542ZM8.69261 6.7731C7.07562 8.55566 6.30263 11.5553 6.30263 16.5631C6.30263 21.5709 7.07562 24.5705 8.69261 26.3531C10.2805 28.1035 12.9296 28.9417 17.4303 28.9417C21.9317 28.9417 24.5808 28.1035 26.1685 26.3531C27.7853 24.5706 28.5579 21.5709 28.5579 16.5631C28.5579 11.5552 27.7853 8.55559 26.1685 6.77306C24.5808 5.0227 21.9317 4.18446 17.4303 4.18446C12.9296 4.18446 10.2805 5.02268 8.69261 6.7731Z" fill="#676D75"/>
<defs>
<linearGradient id="paint0_linear_12019_22790" x1="18.0795" y1="3.64258" x2="67.8669" y2="144.466" gradientUnits="userSpaceOnUse">
<stop stop-color="#9D9FE6"/>
<stop offset="0.163505" stop-color="#CFC0FF"/>
<stop offset="1" stop-color="#8E00FF"/>
</linearGradient>
</defs>
</svg>
