<svg width="24" height="24" viewBox="0 0 24 24" fill="none" xmlns="http://www.w3.org/2000/svg">
<g clip-path="url(#clip0_11117_30399)">
<path d="M20.0332 3.90527L20.1963 3.90918C21.0083 3.95047 21.7788 4.29148 22.3564 4.86914L22.4688 4.9873C23.0145 5.59006 23.3194 6.37541 23.3203 7.19238V16.8076L23.3164 16.9707C23.2752 17.7828 22.9341 18.5532 22.3564 19.1309C21.7788 19.7085 21.0083 20.0495 20.1963 20.0908L20.0332 20.0947H3.96777C3.15076 20.0938 2.36547 19.789 1.7627 19.2432L1.64453 19.1309C1.02828 18.5146 0.681718 17.6791 0.680664 16.8076V7.19238L0.68457 7.0293C0.725763 6.21711 1.06677 5.4469 1.64453 4.86914L1.7627 4.75684C2.36548 4.21096 3.1507 3.90623 3.96777 3.90527H20.0332ZM3.96777 5.22949C3.51214 5.22949 3.07293 5.38843 2.72363 5.6748L2.58008 5.80469C2.21204 6.17273 2.00488 6.6719 2.00488 7.19238V16.8076C2.00494 17.328 2.21209 17.8273 2.58008 18.1953L2.72363 18.3252C3.07291 18.6115 3.51219 18.7695 3.96777 18.7695H20.0332C20.5535 18.7694 21.053 18.5633 21.4209 18.1953L21.5508 18.0508C21.8368 17.7017 21.9951 17.2629 21.9951 16.8076V7.19238C21.9951 6.73684 21.837 6.2975 21.5508 5.94824L21.4209 5.80469C21.053 5.43675 20.5535 5.22961 20.0332 5.22949H3.96777Z" fill="#30303D" stroke="#30303D" stroke-width="0.2"/>
<path d="M22.4355 5.89746L22.5654 5.92676C22.6075 5.94068 22.6479 5.95929 22.6865 5.98145L22.7949 6.05859C22.8281 6.08781 22.8589 6.11986 22.8857 6.15527C22.9395 6.22624 22.9783 6.3082 23 6.39453L23.0195 6.52539C23.0216 6.56966 23.0186 6.6142 23.0117 6.6582C22.9979 6.74613 22.967 6.8307 22.9199 6.90625C22.8735 6.9807 22.8117 7.04394 22.7402 7.09473L22.7412 7.0957L13.9844 13.7188C13.4125 14.149 12.7156 14.38 12 14.3789C11.3738 14.3798 10.7625 14.2029 10.2363 13.8701L10.0166 13.7188L1.25977 7.0957V7.09473C1.18853 7.04401 1.12732 6.98048 1.08105 6.90625C1.05758 6.86856 1.03789 6.82851 1.02246 6.78711L0.989258 6.6582C0.97551 6.57041 0.979364 6.48072 1.00098 6.39453L1.0459 6.26953C1.0651 6.22943 1.08826 6.1909 1.11523 6.15527L1.20605 6.05859C1.23916 6.02946 1.27505 6.00353 1.31348 5.98145L1.43555 5.92676C1.47737 5.91292 1.5205 5.90274 1.56445 5.89746L1.69727 5.89551C1.74152 5.89911 1.78527 5.90748 1.82812 5.91992L1.95117 5.96875C1.98947 5.98882 2.02576 6.01276 2.05957 6.04004L10.8154 12.6699L10.9473 12.7598C11.2618 12.9572 11.6264 13.0634 12 13.0635C12.4268 13.0635 12.8424 12.9251 13.1846 12.6699L21.9414 6.04004C22.0097 5.98495 22.0886 5.9444 22.1729 5.91992L22.3027 5.89551C22.3469 5.89186 22.3914 5.89221 22.4355 5.89746Z" fill="#30303D" stroke="#30303D" stroke-width="0.2"/>
<path d="M8.62988 11.0693C8.75563 11.102 8.87018 11.1712 8.95801 11.2695L9.03516 11.375C9.1011 11.4871 9.13246 11.6173 9.125 11.749C9.11752 11.8808 9.0714 12.0064 8.99316 12.1104L8.90527 12.2061L2.00488 18.3604C1.88415 18.4698 1.72639 18.528 1.56348 18.5264V18.5273C1.46267 18.5275 1.36339 18.5055 1.27344 18.4619L1.1875 18.4111C1.10453 18.3541 1.03561 18.2792 0.986328 18.1924L0.943359 18.1016C0.895446 17.976 0.887109 17.8385 0.918945 17.708L0.950195 17.6133C0.97563 17.5515 1.01006 17.4938 1.05273 17.4424L1.12207 17.3701L8.02148 11.2168L8.12695 11.1396C8.23901 11.0737 8.36927 11.0423 8.50098 11.0498L8.62988 11.0693ZM22.4355 18.5264V18.5273H22.4316V18.5264C22.2701 18.527 22.1139 18.4689 21.9941 18.3604L15.0947 12.2061H15.0938C14.9628 12.089 14.884 11.9244 14.874 11.749C14.8641 11.5735 14.9239 11.4007 15.041 11.2695L15.1377 11.1816C15.2415 11.1037 15.3665 11.0573 15.498 11.0498L15.6289 11.0547C15.7576 11.0729 15.8792 11.129 15.9775 11.2168L22.873 17.3701H22.874C22.9743 17.4594 23.0443 17.5776 23.0762 17.708L23.0928 17.8066C23.0987 17.8733 23.0943 17.9405 23.0801 18.0059L23.0518 18.1016C23.0158 18.1956 22.9595 18.2803 22.8867 18.3486L22.8086 18.4111C22.6991 18.4864 22.5693 18.5256 22.4365 18.5264L22.4375 18.5273L22.4355 18.5264Z" fill="#30303D" stroke="#30303D" stroke-width="0.2"/>
</g>
<defs>
<clipPath id="clip0_11117_30399">
<rect width="24" height="24" fill="white"/>
</clipPath>
</defs>
</svg>
