<svg width="28" height="28" viewBox="0 0 28 28" fill="none" xmlns="http://www.w3.org/2000/svg">
<path d="M13.9999 15.6406C13.2357 15.6406 12.5889 15.3759 12.0596 14.8466C11.5302 14.3172 11.2655 13.6704 11.2655 12.9062V6.34375C11.2655 5.57958 11.5302 4.93281 12.0596 4.40344C12.5889 3.87406 13.2357 3.60938 13.9999 3.60938C14.7641 3.60938 15.4108 3.87406 15.9402 4.40344C16.4696 4.93281 16.7343 5.57958 16.7343 6.34375V12.9062C16.7343 13.6704 16.4696 14.3172 15.9402 14.8466C15.4108 15.3759 14.7641 15.6406 13.9999 15.6406ZM13.1796 22.75V19.965C11.5515 19.7771 10.1563 19.1083 8.99379 17.9586C7.8315 16.8087 7.15073 15.4071 6.95149 13.7539C6.92214 13.5211 6.98312 13.3217 7.13442 13.1556C7.2859 12.9894 7.47804 12.9062 7.71082 12.9062C7.94361 12.9062 8.13848 12.9865 8.29543 13.1471C8.45257 13.3076 8.55711 13.5042 8.60907 13.737C8.80813 15.0763 9.42054 16.184 10.4463 17.0603C11.472 17.9368 12.6566 18.375 13.9999 18.375C15.3614 18.375 16.5505 17.9322 17.5672 17.0466C18.5838 16.1613 19.1916 15.058 19.3907 13.737C19.4427 13.5042 19.5472 13.3076 19.7043 13.1471C19.8613 12.9865 20.0562 12.9062 20.2889 12.9062C20.5217 12.9062 20.7139 12.9894 20.8654 13.1556C21.0167 13.3217 21.0776 13.5211 21.0483 13.7539C20.849 15.3707 20.1728 16.7614 19.0197 17.926C17.8663 19.0905 16.4665 19.7702 14.8202 19.965V22.75C14.8202 22.9828 14.7416 23.1777 14.5845 23.3346C14.4275 23.4917 14.2327 23.5703 13.9999 23.5703C13.7671 23.5703 13.5722 23.4917 13.4153 23.3346C13.2581 23.1777 13.1796 22.9828 13.1796 22.75Z" fill="url(#paint0_linear_11117_34711)"/>
<path d="M13.9999 15.6406C13.2357 15.6406 12.5889 15.3759 12.0596 14.8466C11.5302 14.3172 11.2655 13.6704 11.2655 12.9062V6.34375C11.2655 5.57958 11.5302 4.93281 12.0596 4.40344C12.5889 3.87406 13.2357 3.60938 13.9999 3.60938C14.7641 3.60938 15.4108 3.87406 15.9402 4.40344C16.4696 4.93281 16.7343 5.57958 16.7343 6.34375V12.9062C16.7343 13.6704 16.4696 14.3172 15.9402 14.8466C15.4108 15.3759 14.7641 15.6406 13.9999 15.6406ZM13.1796 22.75V19.965C11.5515 19.7771 10.1563 19.1083 8.99379 17.9586C7.8315 16.8087 7.15073 15.4071 6.95149 13.7539C6.92214 13.5211 6.98312 13.3217 7.13442 13.1556C7.2859 12.9894 7.47804 12.9062 7.71082 12.9062C7.94361 12.9062 8.13848 12.9865 8.29543 13.1471C8.45257 13.3076 8.55711 13.5042 8.60907 13.737C8.80813 15.0763 9.42054 16.184 10.4463 17.0603C11.472 17.9368 12.6566 18.375 13.9999 18.375C15.3614 18.375 16.5505 17.9322 17.5672 17.0466C18.5838 16.1613 19.1916 15.058 19.3907 13.737C19.4427 13.5042 19.5472 13.3076 19.7043 13.1471C19.8613 12.9865 20.0562 12.9062 20.2889 12.9062C20.5217 12.9062 20.7139 12.9894 20.8654 13.1556C21.0167 13.3217 21.0776 13.5211 21.0483 13.7539C20.849 15.3707 20.1728 16.7614 19.0197 17.926C17.8663 19.0905 16.4665 19.7702 14.8202 19.965V22.75C14.8202 22.9828 14.7416 23.1777 14.5845 23.3346C14.4275 23.4917 14.2327 23.5703 13.9999 23.5703C13.7671 23.5703 13.5722 23.4917 13.4153 23.3346C13.2581 23.1777 13.1796 22.9828 13.1796 22.75Z" fill="url(#paint1_linear_11117_34711)" fill-opacity="0.2"/>
<defs>
<linearGradient id="paint0_linear_11117_34711" x1="12.6171" y1="23.5703" x2="17.2999" y2="4.84986" gradientUnits="userSpaceOnUse">
<stop stop-color="#6E40F9"/>
<stop offset="0.457887" stop-color="#A569FB"/>
<stop offset="1" stop-color="#CE89FF"/>
</linearGradient>
<linearGradient id="paint1_linear_11117_34711" x1="12.6112" y1="56.2893" x2="6.10747" y2="55.389" gradientUnits="userSpaceOnUse">
<stop stop-color="white" stop-opacity="0"/>
<stop offset="1" stop-color="#8E00FF"/>
</linearGradient>
</defs>
</svg>
