<svg width="25" height="25" viewBox="0 0 25 25" fill="none" xmlns="http://www.w3.org/2000/svg">
<path d="M13.4688 16.2188C16.0576 16.2188 18.1562 14.1201 18.1562 11.5312C18.1562 8.94242 16.0576 6.84375 13.4688 6.84375C10.8799 6.84375 8.78125 8.94242 8.78125 11.5312C8.78125 14.1201 10.8799 16.2188 13.4688 16.2188Z" fill="url(#paint0_linear_12332_29524)"/>
<path d="M13.4688 16.2188C16.0576 16.2188 18.1562 14.1201 18.1562 11.5312C18.1562 8.94242 16.0576 6.84375 13.4688 6.84375C10.8799 6.84375 8.78125 8.94242 8.78125 11.5312C8.78125 14.1201 10.8799 16.2188 13.4688 16.2188Z" fill="url(#paint1_linear_12332_29524)" fill-opacity="0.2"/>
<path d="M0.418748 9.37974C0.547038 8.6764 0.733619 7.98495 0.976561 7.31255C1.26896 6.49427 1.64601 5.70876 2.10156 4.9688C2.9383 3.61833 4.02112 2.43694 5.29375 1.48599C5.82714 1.08334 6.39316 0.725857 6.98594 0.417236C4.75937 4.99692 4.09375 11.3907 7.375 15.75C9.71875 18.9 13.675 20.3813 17.5797 20.6438C19.0437 20.7461 20.5146 20.6769 21.9625 20.4375C21.5355 20.8819 21.0748 21.2925 20.5844 21.6657C18.5584 23.2182 16.1104 24.1218 13.5617 24.258C11.013 24.3942 8.48258 23.7567 6.30271 22.429C4.12284 21.1013 2.39533 19.1455 1.34694 16.8184C0.298544 14.4913 -0.0217401 11.9015 0.428123 9.38911L0.418748 9.37974Z" fill="url(#paint2_linear_12332_29524)"/>
<path d="M0.418748 9.37974C0.547038 8.6764 0.733619 7.98495 0.976561 7.31255C1.26896 6.49427 1.64601 5.70876 2.10156 4.9688C2.9383 3.61833 4.02112 2.43694 5.29375 1.48599C5.82714 1.08334 6.39316 0.725857 6.98594 0.417236C4.75937 4.99692 4.09375 11.3907 7.375 15.75C9.71875 18.9 13.675 20.3813 17.5797 20.6438C19.0437 20.7461 20.5146 20.6769 21.9625 20.4375C21.5355 20.8819 21.0748 21.2925 20.5844 21.6657C18.5584 23.2182 16.1104 24.1218 13.5617 24.258C11.013 24.3942 8.48258 23.7567 6.30271 22.429C4.12284 21.1013 2.39533 19.1455 1.34694 16.8184C0.298544 14.4913 -0.0217401 11.9015 0.428123 9.38911L0.418748 9.37974Z" fill="url(#paint3_linear_12332_29524)" fill-opacity="0.2"/>
<path d="M20.5 6.375H18.1562C18.0637 6.37454 17.9734 6.34669 17.8966 6.29497C17.8199 6.24326 17.7602 6.16998 17.725 6.08437C17.6891 5.99901 17.6793 5.90493 17.6968 5.81399C17.7143 5.72306 17.7584 5.63936 17.8234 5.57344L19.3703 4.03125H18.1562C18.0319 4.03125 17.9127 3.98186 17.8248 3.89396C17.7369 3.80605 17.6875 3.68682 17.6875 3.5625C17.6875 3.43818 17.7369 3.31895 17.8248 3.23104C17.9127 3.14314 18.0319 3.09375 18.1562 3.09375H20.5C20.5925 3.09421 20.6829 3.12206 20.7596 3.17378C20.8364 3.22549 20.8961 3.29877 20.9312 3.38437C20.9671 3.46974 20.977 3.56382 20.9594 3.65476C20.9419 3.74569 20.8979 3.8294 20.8328 3.89531L19.2859 5.4375H20.5C20.6243 5.4375 20.7435 5.48689 20.8315 5.57479C20.9194 5.6627 20.9688 5.78193 20.9688 5.90625C20.9688 6.03057 20.9194 6.1498 20.8315 6.23771C20.7435 6.32561 20.6243 6.375 20.5 6.375ZM22.8438 3.09375H21.4375C21.3509 3.09349 21.2661 3.06926 21.1925 3.02375C21.1189 2.97825 21.0593 2.91324 21.0203 2.83594C20.9854 2.76102 20.9709 2.67821 20.9783 2.59588C20.9857 2.51356 21.0148 2.43466 21.0625 2.36719L21.9062 1.21875H21.4375C21.3132 1.21875 21.194 1.16936 21.106 1.08146C21.0181 0.993549 20.9688 0.87432 20.9688 0.75C20.9688 0.62568 21.0181 0.506451 21.106 0.418544C21.194 0.330636 21.3132 0.28125 21.4375 0.28125H22.8438C22.9303 0.281512 23.0151 0.305739 23.0887 0.351245C23.1624 0.396751 23.222 0.461759 23.2609 0.539063C23.2959 0.613978 23.3103 0.696795 23.3029 0.779116C23.2955 0.861437 23.2665 0.940336 23.2187 1.00781L22.375 2.15625H22.8438C22.9681 2.15625 23.0873 2.20564 23.1752 2.29354C23.2631 2.38145 23.3125 2.50068 23.3125 2.625C23.3125 2.74932 23.2631 2.86855 23.1752 2.95646C23.0873 3.04436 22.9681 3.09375 22.8438 3.09375ZM23.7812 7.3125H22.375C22.2825 7.31204 22.1921 7.28419 22.1154 7.23247C22.0386 7.18076 21.9789 7.10748 21.9438 7.02187C21.9079 6.93651 21.898 6.84243 21.9156 6.75149C21.9331 6.66056 21.9771 6.57686 22.0422 6.51094L22.6516 5.90625H22.375C22.2507 5.90625 22.1315 5.85686 22.0435 5.76896C21.9556 5.68105 21.9062 5.56182 21.9062 5.4375C21.9062 5.31318 21.9556 5.19395 22.0435 5.10604C22.1315 5.01814 22.2507 4.96875 22.375 4.96875H23.7812C23.8738 4.96921 23.9641 4.99706 24.0409 5.04878C24.1176 5.10049 24.1773 5.17377 24.2125 5.25938C24.2484 5.34474 24.2582 5.43882 24.2407 5.52976C24.2232 5.62069 24.1791 5.70439 24.1141 5.77031L23.5047 6.375H23.7812C23.9056 6.375 24.0248 6.42439 24.1127 6.51229C24.2006 6.6002 24.25 6.71943 24.25 6.84375C24.25 6.96807 24.2006 7.0873 24.1127 7.17521C24.0248 7.26311 23.9056 7.3125 23.7812 7.3125Z" fill="url(#paint4_linear_12332_29524)"/>
<path d="M20.5 6.375H18.1562C18.0637 6.37454 17.9734 6.34669 17.8966 6.29497C17.8199 6.24326 17.7602 6.16998 17.725 6.08437C17.6891 5.99901 17.6793 5.90493 17.6968 5.81399C17.7143 5.72306 17.7584 5.63936 17.8234 5.57344L19.3703 4.03125H18.1562C18.0319 4.03125 17.9127 3.98186 17.8248 3.89396C17.7369 3.80605 17.6875 3.68682 17.6875 3.5625C17.6875 3.43818 17.7369 3.31895 17.8248 3.23104C17.9127 3.14314 18.0319 3.09375 18.1562 3.09375H20.5C20.5925 3.09421 20.6829 3.12206 20.7596 3.17378C20.8364 3.22549 20.8961 3.29877 20.9312 3.38437C20.9671 3.46974 20.977 3.56382 20.9594 3.65476C20.9419 3.74569 20.8979 3.8294 20.8328 3.89531L19.2859 5.4375H20.5C20.6243 5.4375 20.7435 5.48689 20.8315 5.57479C20.9194 5.6627 20.9688 5.78193 20.9688 5.90625C20.9688 6.03057 20.9194 6.1498 20.8315 6.23771C20.7435 6.32561 20.6243 6.375 20.5 6.375ZM22.8438 3.09375H21.4375C21.3509 3.09349 21.2661 3.06926 21.1925 3.02375C21.1189 2.97825 21.0593 2.91324 21.0203 2.83594C20.9854 2.76102 20.9709 2.67821 20.9783 2.59588C20.9857 2.51356 21.0148 2.43466 21.0625 2.36719L21.9062 1.21875H21.4375C21.3132 1.21875 21.194 1.16936 21.106 1.08146C21.0181 0.993549 20.9688 0.87432 20.9688 0.75C20.9688 0.62568 21.0181 0.506451 21.106 0.418544C21.194 0.330636 21.3132 0.28125 21.4375 0.28125H22.8438C22.9303 0.281512 23.0151 0.305739 23.0887 0.351245C23.1624 0.396751 23.222 0.461759 23.2609 0.539063C23.2959 0.613978 23.3103 0.696795 23.3029 0.779116C23.2955 0.861437 23.2665 0.940336 23.2187 1.00781L22.375 2.15625H22.8438C22.9681 2.15625 23.0873 2.20564 23.1752 2.29354C23.2631 2.38145 23.3125 2.50068 23.3125 2.625C23.3125 2.74932 23.2631 2.86855 23.1752 2.95646C23.0873 3.04436 22.9681 3.09375 22.8438 3.09375ZM23.7812 7.3125H22.375C22.2825 7.31204 22.1921 7.28419 22.1154 7.23247C22.0386 7.18076 21.9789 7.10748 21.9438 7.02187C21.9079 6.93651 21.898 6.84243 21.9156 6.75149C21.9331 6.66056 21.9771 6.57686 22.0422 6.51094L22.6516 5.90625H22.375C22.2507 5.90625 22.1315 5.85686 22.0435 5.76896C21.9556 5.68105 21.9062 5.56182 21.9062 5.4375C21.9062 5.31318 21.9556 5.19395 22.0435 5.10604C22.1315 5.01814 22.2507 4.96875 22.375 4.96875H23.7812C23.8738 4.96921 23.9641 4.99706 24.0409 5.04878C24.1176 5.10049 24.1773 5.17377 24.2125 5.25938C24.2484 5.34474 24.2582 5.43882 24.2407 5.52976C24.2232 5.62069 24.1791 5.70439 24.1141 5.77031L23.5047 6.375H23.7812C23.9056 6.375 24.0248 6.42439 24.1127 6.51229C24.2006 6.6002 24.25 6.71943 24.25 6.84375C24.25 6.96807 24.2006 7.0873 24.1127 7.17521C24.0248 7.26311 23.9056 7.3125 23.7812 7.3125Z" fill="url(#paint5_linear_12332_29524)" fill-opacity="0.2"/>
<path d="M11.9078 13.5609C11.787 13.5519 11.6745 13.4964 11.5937 13.4062C11.5064 13.3184 11.4574 13.1996 11.4574 13.0758C11.4574 12.9519 11.5064 12.8331 11.5937 12.7453L13 11.3391V9.1875C13 9.06318 13.0493 8.94395 13.1372 8.85604C13.2252 8.76814 13.3444 8.71875 13.4687 8.71875C13.593 8.71875 13.7123 8.76814 13.8002 8.85604C13.8881 8.94395 13.9375 9.06318 13.9375 9.1875V11.5312C13.9378 11.5929 13.926 11.6541 13.9027 11.7112C13.8793 11.7683 13.845 11.8203 13.8015 11.8641L12.2359 13.4062C12.1942 13.4525 12.1437 13.4901 12.0874 13.5166C12.0311 13.5432 11.97 13.5582 11.9078 13.5609Z" fill="#F7F5FA"/>
<defs>
<linearGradient id="paint0_linear_12332_29524" x1="12.5501" y1="16.2187" x2="14.1521" y2="7.15949" gradientUnits="userSpaceOnUse">
<stop stop-color="#6E40F9"/>
<stop offset="0.457887" stop-color="#A569FB"/>
<stop offset="1" stop-color="#CE89FF"/>
</linearGradient>
<linearGradient id="paint1_linear_12332_29524" x1="12.5461" y1="31.5858" x2="8.30508" y2="30.7553" gradientUnits="userSpaceOnUse">
<stop stop-color="white" stop-opacity="0"/>
<stop offset="1" stop-color="#8E00FF"/>
</linearGradient>
<linearGradient id="paint2_linear_12332_29524" x1="8.96658" y1="24.2761" x2="13.4148" y2="1.36339" gradientUnits="userSpaceOnUse">
<stop stop-color="#6E40F9"/>
<stop offset="0.457887" stop-color="#A569FB"/>
<stop offset="1" stop-color="#CE89FF"/>
</linearGradient>
<linearGradient id="paint3_linear_12332_29524" x1="8.95749" y1="63.3843" x2="-0.936065" y2="61.6196" gradientUnits="userSpaceOnUse">
<stop stop-color="white" stop-opacity="0"/>
<stop offset="1" stop-color="#8E00FF"/>
</linearGradient>
<linearGradient id="paint4_linear_12332_29524" x1="20.3257" y1="7.3125" x2="21.6072" y2="0.548406" gradientUnits="userSpaceOnUse">
<stop stop-color="#6E40F9"/>
<stop offset="0.457887" stop-color="#A569FB"/>
<stop offset="1" stop-color="#CE89FF"/>
</linearGradient>
<linearGradient id="paint5_linear_12332_29524" x1="20.3229" y1="18.8378" x2="17.34" y2="18.2926" gradientUnits="userSpaceOnUse">
<stop stop-color="white" stop-opacity="0"/>
<stop offset="1" stop-color="#8E00FF"/>
</linearGradient>
</defs>
</svg>
