<svg width="17" height="17" viewBox="0 0 17 17" fill="none" xmlns="http://www.w3.org/2000/svg">
<path d="M13.6999 5.33341C13.8221 5.45564 13.8833 5.61119 13.8833 5.80008C13.8833 5.98897 13.8221 6.14453 13.6999 6.26675L13.2166 6.75008C13.0833 6.88341 12.9249 6.95008 12.7416 6.95008C12.5583 6.95008 12.3999 6.88341 12.2666 6.75008C12.1333 6.61675 12.0694 6.45841 12.0749 6.27508C12.0805 6.09175 12.1499 5.93341 12.2833 5.80008L12.7666 5.31675C12.8999 5.19453 13.0583 5.13619 13.2416 5.14175C13.4249 5.1473 13.5777 5.21119 13.6999 5.33341ZM2.49992 13.8334C2.31103 13.8334 2.1527 13.7695 2.02492 13.6417C1.89714 13.514 1.83325 13.3556 1.83325 13.1667C1.83325 12.9779 1.89714 12.8195 2.02492 12.6917C2.1527 12.564 2.31103 12.5001 2.49992 12.5001H14.4999C14.6888 12.5001 14.8471 12.564 14.9749 12.6917C15.1027 12.8195 15.1666 12.9779 15.1666 13.1667C15.1666 13.3556 15.1027 13.514 14.9749 13.6417C14.8471 13.7695 14.6888 13.8334 14.4999 13.8334H2.49992ZM8.49992 3.16675C8.68881 3.16675 8.84714 3.23064 8.97492 3.35841C9.1027 3.48619 9.16658 3.64453 9.16658 3.83341V4.50008C9.16658 4.68897 9.1027 4.8473 8.97492 4.97508C8.84714 5.10286 8.68881 5.16675 8.49992 5.16675C8.31103 5.16675 8.1527 5.10286 8.02492 4.97508C7.89714 4.8473 7.83325 4.68897 7.83325 4.50008V3.83341C7.83325 3.64453 7.89714 3.48619 8.02492 3.35841C8.1527 3.23064 8.31103 3.16675 8.49992 3.16675ZM3.33325 5.30008C3.45547 5.17786 3.61103 5.11675 3.79992 5.11675C3.98881 5.11675 4.14436 5.17786 4.26659 5.30008L4.74992 5.78341C4.88325 5.91675 4.94992 6.07508 4.94992 6.25841C4.94992 6.44175 4.88325 6.60008 4.74992 6.73341C4.61659 6.85564 4.45547 6.91675 4.26659 6.91675C4.0777 6.91675 3.92214 6.85008 3.79992 6.71675L3.31659 6.23341C3.19436 6.10008 3.13603 5.94175 3.14159 5.75841C3.14714 5.57508 3.21103 5.4223 3.33325 5.30008ZM5.44992 9.83342H11.5499C11.2944 9.23342 10.8944 8.75008 10.3499 8.38342C9.80547 8.01675 9.18881 7.83342 8.49992 7.83342C7.81103 7.83342 7.19436 8.01675 6.64992 8.38342C6.10547 8.75008 5.70547 9.23342 5.44992 9.83342ZM3.83325 11.1667C3.83325 9.86675 4.28603 8.76397 5.19159 7.85842C6.09714 6.95286 7.19992 6.50008 8.49992 6.50008C9.79992 6.50008 10.9027 6.95286 11.8083 7.85842C12.7138 8.76397 13.1666 9.86675 13.1666 11.1667H3.83325Z" fill="#30303D"/>
</svg>
