<svg width="24" height="25" viewBox="0 0 24 25" fill="none" xmlns="http://www.w3.org/2000/svg">
<path d="M12.0187 3.40967C8.70862 3.40967 6.01862 6.09967 6.01862 9.40967V12.2997C6.01862 12.9097 5.75862 13.8397 5.44862 14.3597L4.29862 16.2697C3.58862 17.4497 4.07862 18.7597 5.37862 19.1997C9.68862 20.6397 14.3387 20.6397 18.6487 19.1997C19.8587 18.7997 20.3887 17.3697 19.7287 16.2697L18.5787 14.3597C18.2787 13.8397 18.0187 12.9097 18.0187 12.2997V9.40967C18.0187 6.10967 15.3187 3.40967 12.0187 3.40967Z" stroke="#30303D" stroke-width="1.5" stroke-miterlimit="10" stroke-linecap="round"/>
<path d="M13.8719 3.69994C13.5619 3.60994 13.2419 3.53994 12.9119 3.49994C11.9519 3.37994 11.0319 3.44994 10.1719 3.69994C10.4619 2.95994 11.1819 2.43994 12.0219 2.43994C12.8619 2.43994 13.5819 2.95994 13.8719 3.69994Z" stroke="#30303D" stroke-width="1.5" stroke-miterlimit="10" stroke-linecap="round" stroke-linejoin="round"/>
<path d="M15.0195 19.5601C15.0195 21.2101 13.6695 22.5601 12.0195 22.5601C11.1995 22.5601 10.4395 22.2201 9.89953 21.6801C9.35953 21.1401 9.01953 20.3801 9.01953 19.5601" stroke="#30303D" stroke-width="1.5" stroke-miterlimit="10"/>
<circle cx="18" cy="5" r="3" fill="#FF002F"/>
</svg>
