<svg width="24" height="24" viewBox="0 0 24 24" fill="none" xmlns="http://www.w3.org/2000/svg">
<g clip-path="url(#clip0_11117_30410)">
<path d="M16.4227 9.44807V7.30007C16.4225 6.09332 15.943 4.93606 15.0898 4.08267C14.2366 3.22928 13.0795 2.7496 11.8727 2.74907C11.2752 2.74644 10.683 2.86152 10.13 3.08775C9.57696 3.31398 9.07389 3.64693 8.64953 4.06758C8.22516 4.48823 7.88781 4.98834 7.65672 5.53937C7.42564 6.0904 7.30536 6.68155 7.30273 7.27907V9.44707" stroke="#30303D" stroke-width="1.5" stroke-linecap="round" stroke-linejoin="round"/>
<path d="M15.683 21.25H8.043C7.54494 21.2501 7.05174 21.1521 6.59156 20.9616C6.13138 20.7711 5.71323 20.4918 5.361 20.1397C5.00878 19.7875 4.72937 19.3695 4.53874 18.9093C4.34812 18.4492 4.25 17.956 4.25 17.458V13.168C4.25027 12.1624 4.6499 11.1982 5.361 10.4873C6.07211 9.77633 7.03647 9.37695 8.042 9.37695H15.683C16.6887 9.37695 17.6532 9.77647 18.3644 10.4876C19.0755 11.1987 19.475 12.1633 19.475 13.169V17.458C19.475 18.4637 19.0755 19.4282 18.3644 20.1393C17.6532 20.8504 16.6887 21.25 15.683 21.25Z" stroke="#30303D" stroke-width="1.5" stroke-linecap="round" stroke-linejoin="round"/>
<path d="M11.8633 14.2031V16.4231" stroke="#30303D" stroke-width="1.5" stroke-linecap="round" stroke-linejoin="round"/>
</g>
<defs>
<clipPath id="clip0_11117_30410">
<rect width="24" height="24" fill="white"/>
</clipPath>
</defs>
</svg>
