<svg width="18" height="21" viewBox="0 0 18 21" fill="none" xmlns="http://www.w3.org/2000/svg">
<path d="M0 19.0668V1.75993C0 1.24568 0.176005 0.823804 0.528016 0.494282C0.879995 0.16476 1.29063 0 1.75993 0C1.90969 0 2.06446 0.021226 2.22422 0.0636738C2.38399 0.106122 2.53877 0.169776 2.68857 0.254639L16.3109 8.92683C16.578 9.10905 16.7783 9.32747 16.9119 9.58209C17.0455 9.83671 17.1122 10.1138 17.1122 10.4134C17.1122 10.7129 17.0455 10.99 16.9119 11.2447C16.7783 11.4993 16.578 11.7177 16.3109 11.8999L2.68857 20.5721C2.53877 20.657 2.38399 20.7206 2.22422 20.7631C2.06446 20.8055 1.90969 20.8267 1.75993 20.8267C1.29063 20.8267 0.879995 20.662 0.528016 20.3325C0.176005 20.0029 0 19.5811 0 19.0668ZM2.92067 16.9363L13.1806 10.4134L2.92067 3.89044V16.9363Z" fill="url(#paint0_linear_11099_96230)"/>
<path d="M0 19.0668V1.75993C0 1.24568 0.176005 0.823804 0.528016 0.494282C0.879995 0.16476 1.29063 0 1.75993 0C1.90969 0 2.06446 0.021226 2.22422 0.0636738C2.38399 0.106122 2.53877 0.169776 2.68857 0.254639L16.3109 8.92683C16.578 9.10905 16.7783 9.32747 16.9119 9.58209C17.0455 9.83671 17.1122 10.1138 17.1122 10.4134C17.1122 10.7129 17.0455 10.99 16.9119 11.2447C16.7783 11.4993 16.578 11.7177 16.3109 11.8999L2.68857 20.5721C2.53877 20.657 2.38399 20.7206 2.22422 20.7631C2.06446 20.8055 1.90969 20.8267 1.75993 20.8267C1.29063 20.8267 0.879995 20.662 0.528016 20.3325C0.176005 20.0029 0 19.5811 0 19.0668ZM2.92067 16.9363L13.1806 10.4134L2.92067 3.89044V16.9363Z" fill="url(#paint1_linear_11099_96230)" fill-opacity="0.2"/>
<defs>
<linearGradient id="paint0_linear_11099_96230" x1="6.87922" y1="20.8267" x2="11.1483" y2="0.990898" gradientUnits="userSpaceOnUse">
<stop stop-color="#6E40F9"/>
<stop offset="0.457887" stop-color="#A569FB"/>
<stop offset="1" stop-color="#CE89FF"/>
</linearGradient>
<linearGradient id="paint1_linear_11099_96230" x1="6.87206" y1="54.9649" x2="-0.96316" y2="53.7043" gradientUnits="userSpaceOnUse">
<stop stop-color="white" stop-opacity="0"/>
<stop offset="1" stop-color="#8E00FF"/>
</linearGradient>
</defs>
</svg>
