<svg width="24" height="24" viewBox="0 0 24 24" fill="none" xmlns="http://www.w3.org/2000/svg">
<path d="M16.048 18.4998C16.2608 18.4998 16.4391 18.428 16.5827 18.2843C16.7262 18.1408 16.798 17.9627 16.798 17.7498C16.798 17.537 16.7262 17.3588 16.5827 17.2153C16.4391 17.0717 16.2608 16.9998 16.048 16.9998H9.62124C8.57757 16.9998 7.67949 16.6552 6.92699 15.9661C6.17432 15.2771 5.79799 14.4262 5.79799 13.4133C5.79799 12.4005 6.17432 11.5511 6.92699 10.8651C7.67949 10.1792 8.57757 9.83632 9.62124 9.83632H16.6422L14.3865 12.0921C14.2417 12.2371 14.1692 12.4127 14.1692 12.6191C14.1692 12.8254 14.2417 13.0011 14.3865 13.1461C14.5313 13.2909 14.7086 13.3617 14.9182 13.3586C15.1279 13.3552 15.3019 13.2844 15.4402 13.1461L18.8672 9.71907C18.9609 9.6254 19.0269 9.52665 19.0652 9.42282C19.1037 9.31899 19.123 9.20682 19.123 9.08632C19.123 8.96582 19.1037 8.85365 19.0652 8.74982C19.0269 8.64599 18.9609 8.54724 18.8672 8.45357L15.4402 5.02682C15.2954 4.88199 15.1198 4.80957 14.9135 4.80957C14.707 4.80957 14.5313 4.88199 14.3865 5.02682C14.2417 5.17165 14.1708 5.3489 14.174 5.55857C14.1772 5.76807 14.248 5.94207 14.3865 6.08057L16.6422 8.33632H9.62124C8.1584 8.33632 6.90549 8.82449 5.86249 9.80082C4.81949 10.7772 4.29799 11.9813 4.29799 13.4133C4.29799 14.8453 4.81949 16.0511 5.86249 17.0306C6.90549 18.0101 8.1584 18.4998 9.62124 18.4998H16.048Z" fill="#30303D" fill-opacity="0.56"/>
</svg>
