<svg width="14" height="16" viewBox="0 0 14 16" fill="none" xmlns="http://www.w3.org/2000/svg">
<path d="M3.13711 13.2504L3.77461 13.8879C3.92461 14.0379 3.99648 14.2129 3.99023 14.4129C3.98398 14.6129 3.91211 14.7879 3.77461 14.9379C3.62461 15.0879 3.44648 15.166 3.24023 15.1723C3.03398 15.1785 2.85586 15.1066 2.70586 14.9566L0.774609 13.0254C0.699609 12.9504 0.646484 12.8691 0.615234 12.7816C0.583984 12.6941 0.568359 12.6004 0.568359 12.5004C0.568359 12.4004 0.583984 12.3066 0.615234 12.2191C0.646484 12.1316 0.699609 12.0504 0.774609 11.9754L2.70586 10.0441C2.85586 9.89412 3.03398 9.82225 3.24023 9.8285C3.44648 9.83475 3.62461 9.91288 3.77461 10.0629C3.91211 10.2129 3.98398 10.3879 3.99023 10.5879C3.99648 10.7879 3.92461 10.9629 3.77461 11.1129L3.13711 11.7504H10.7496V9.50037C10.7496 9.28788 10.8215 9.10975 10.9652 8.966C11.109 8.82225 11.2871 8.75038 11.4996 8.75038C11.7121 8.75038 11.8902 8.82225 12.034 8.966C12.1777 9.10975 12.2496 9.28788 12.2496 9.50037V11.7504C12.2496 12.1629 12.1027 12.516 11.809 12.8098C11.5152 13.1035 11.1621 13.2504 10.7496 13.2504H3.13711ZM10.8621 4.25038H3.24961V6.50037C3.24961 6.71287 3.17773 6.891 3.03398 7.03475C2.89023 7.1785 2.71211 7.25038 2.49961 7.25038C2.28711 7.25038 2.10898 7.1785 1.96523 7.03475C1.82148 6.891 1.74961 6.71287 1.74961 6.50037V4.25038C1.74961 3.83788 1.89648 3.48475 2.19023 3.191C2.48398 2.89725 2.83711 2.75038 3.24961 2.75038H10.8621L10.2246 2.11287C10.0746 1.96288 10.0027 1.78788 10.009 1.58788C10.0152 1.38788 10.0871 1.21288 10.2246 1.06288C10.3746 0.912875 10.5527 0.83475 10.759 0.8285C10.9652 0.82225 11.1434 0.894125 11.2934 1.04413L13.2246 2.97537C13.2996 3.05037 13.3527 3.13162 13.384 3.21913C13.4152 3.30663 13.4309 3.40038 13.4309 3.50038C13.4309 3.60038 13.4152 3.69413 13.384 3.78163C13.3527 3.86913 13.2996 3.95038 13.2246 4.02538L11.2934 5.95662C11.1434 6.10663 10.9652 6.1785 10.759 6.17225C10.5527 6.166 10.3746 6.08787 10.2246 5.93787C10.0871 5.78788 10.0152 5.61288 10.009 5.41288C10.0027 5.21288 10.0746 5.03788 10.2246 4.88788L10.8621 4.25038Z" fill="#30303D"/>
</svg>
