<svg width="70" height="67" viewBox="0 0 70 67" fill="none" xmlns="http://www.w3.org/2000/svg">
<g clip-path="url(#clip0_11185_26180)">
<path d="M49.1764 43.1023C48.7374 40.7558 48.9116 39.0431 50.2461 36.7317L50.6998 35.9458C52.4381 32.9351 52.8641 30.5949 52.4797 27.7842C51.8939 23.4268 49.0338 19.3537 45.206 17.1437L45.044 17.0502C41.2953 14.8859 36.5071 14.4328 32.475 15.9597C29.7428 17.02 27.8011 18.5981 26.014 21.6935L25.5603 22.4793C24.2258 24.7907 22.8701 25.8213 20.578 26.591C18.892 27.161 17.7078 28.4599 16.7802 30.0665C15.8495 31.6786 15.4968 33.5092 15.8426 35.3626C16.381 37.6628 17.746 39.6849 19.6781 41.0442C22.3791 43.0428 25.199 44.8353 28.1343 46.53C31.0659 48.2225 34.076 49.6856 37.1113 51.1093C39.2546 52.1028 41.6883 52.274 43.9495 51.5902C45.6931 50.9704 47.1543 49.742 48.0643 48.1308C48.993 46.5224 49.5268 44.8456 49.1764 43.1023Z" fill="url(#paint0_linear_11185_26180)"/>
<path d="M49.1764 43.1023C48.7374 40.7558 48.9116 39.0431 50.2461 36.7317L50.6998 35.9458C52.4381 32.9351 52.8641 30.5949 52.4797 27.7842C51.8939 23.4268 49.0338 19.3537 45.206 17.1437L45.044 17.0502C41.2953 14.8859 36.5071 14.4328 32.475 15.9597C29.7428 17.02 27.8011 18.5981 26.014 21.6935L25.5603 22.4793C24.2258 24.7907 22.8701 25.8213 20.578 26.591C18.892 27.161 17.7078 28.4599 16.7802 30.0665C15.8495 31.6786 15.4968 33.5092 15.8426 35.3626C16.381 37.6628 17.746 39.6849 19.6781 41.0442C22.3791 43.0428 25.199 44.8353 28.1343 46.53C31.0659 48.2225 34.076 49.6856 37.1113 51.1093C39.2546 52.1028 41.6883 52.274 43.9495 51.5902C45.6931 50.9704 47.1543 49.742 48.0643 48.1308C48.993 46.5224 49.5268 44.8456 49.1764 43.1023Z" fill="url(#paint1_linear_11185_26180)" fill-opacity="0.2"/>
<g opacity="0.4">
<path d="M33.2568 49.6133C32.2888 49.1207 26.0366 47.4454 24.952 47.388C24.0185 47.3579 22.9443 47.5738 22.6676 48.6063C22.4549 49.6053 22.798 50.6322 23.4505 51.3988L23.4485 51.3983C24.2565 52.4709 25.3301 53.3143 26.5635 53.8455C27.2161 54.1194 27.9069 54.3001 28.6325 54.3999C29.9505 54.5551 31.3031 54.3675 32.5512 53.8395L32.5517 53.8375C33.5007 53.4978 34.3081 52.7835 34.624 51.81C34.9006 50.7775 34.0809 50.0519 33.2568 49.6133Z" fill="url(#paint2_linear_11185_26180)"/>
<path d="M33.2568 49.6133C32.2888 49.1207 26.0366 47.4454 24.952 47.388C24.0185 47.3579 22.9443 47.5738 22.6676 48.6063C22.4549 49.6053 22.798 50.6322 23.4505 51.3988L23.4485 51.3983C24.2565 52.4709 25.3301 53.3143 26.5635 53.8455C27.2161 54.1194 27.9069 54.3001 28.6325 54.3999C29.9505 54.5551 31.3031 54.3675 32.5512 53.8395L32.5517 53.8375C33.5007 53.4978 34.3081 52.7835 34.624 51.81C34.9006 50.7775 34.0809 50.0519 33.2568 49.6133Z" fill="url(#paint3_linear_11185_26180)" fill-opacity="0.2"/>
</g>
</g>
<defs>
<linearGradient id="paint0_linear_11185_26180" x1="25.0668" y1="44.759" x2="46.2925" y2="18.96" gradientUnits="userSpaceOnUse">
<stop stop-color="#6E40F9"/>
<stop offset="0.457887" stop-color="#A569FB"/>
<stop offset="1" stop-color="#CE89FF"/>
</linearGradient>
<linearGradient id="paint1_linear_11185_26180" x1="-2.79967" y1="92.9949" x2="-15.1923" y2="81.9309" gradientUnits="userSpaceOnUse">
<stop stop-color="white" stop-opacity="0"/>
<stop offset="1" stop-color="#8E00FF"/>
</linearGradient>
<linearGradient id="paint2_linear_11185_26180" x1="26.4072" y1="53.8762" x2="28.4596" y2="48.2212" gradientUnits="userSpaceOnUse">
<stop stop-color="#6E40F9"/>
<stop offset="0.457887" stop-color="#A569FB"/>
<stop offset="1" stop-color="#CE89FF"/>
</linearGradient>
<linearGradient id="paint3_linear_11185_26180" x1="23.8315" y1="63.4688" x2="19.5089" y2="60.2349" gradientUnits="userSpaceOnUse">
<stop stop-color="white" stop-opacity="0"/>
<stop offset="1" stop-color="#8E00FF"/>
</linearGradient>
<clipPath id="clip0_11185_26180">
<rect width="51" height="51" fill="white" transform="translate(25.1665 0.66626) rotate(30)"/>
</clipPath>
</defs>
</svg>
