<svg width="36" height="34" viewBox="0 0 36 34" fill="none" xmlns="http://www.w3.org/2000/svg">
<circle cx="30.1264" cy="3.98092" r="0.596154" fill="#FF887F"/>
<circle cx="33.1078" cy="28.4228" r="1.19231" fill="#A6A5EB"/>
<circle cx="3.89596" cy="31.404" r="0.596154" fill="#CEBDFF"/>
<path d="M7.63557 2.33304C7.7719 1.91346 8.3655 1.91346 8.50183 2.33304C8.5628 2.52068 8.73766 2.64773 8.93496 2.64773C9.37614 2.64773 9.55957 3.21228 9.20265 3.47159C9.04303 3.58756 8.97624 3.79313 9.03721 3.98077C9.17354 4.40035 8.69331 4.74926 8.33639 4.48995C8.17677 4.37398 7.96063 4.37398 7.80101 4.48995C7.44409 4.74926 6.96386 4.40035 7.10019 3.98077C7.16116 3.79313 7.09436 3.58756 6.93475 3.47159C6.57783 3.21228 6.76126 2.64773 7.20244 2.64773C7.39974 2.64773 7.5746 2.52068 7.63557 2.33304Z" fill="#FF887F"/>
<circle cx="19.3963" cy="18.2886" r="11.3269" fill="#D9D9D9"/>
<circle cx="19.3963" cy="18.2886" r="11.3269" fill="url(#paint0_linear_12019_18170)"/>
<path d="M31.6811 18.0003C31.6811 25.3603 25.7077 31.3337 18.3477 31.3337C10.9877 31.3337 5.0144 25.3603 5.0144 18.0003C5.0144 10.6403 10.9877 4.66699 18.3477 4.66699C25.7077 4.66699 31.6811 10.6403 31.6811 18.0003Z" stroke="#676D75" stroke-width="2" stroke-linecap="round" stroke-linejoin="round"/>
<path d="M23.2908 22.2394L19.1575 19.7727C18.4375 19.346 17.8508 18.3194 17.8508 17.4794V12.0127" stroke="#676D75" stroke-width="2" stroke-linecap="round" stroke-linejoin="round"/>
<defs>
<linearGradient id="paint0_linear_12019_18170" x1="18.3374" y1="6.96167" x2="57.4738" y2="128.729" gradientUnits="userSpaceOnUse">
<stop stop-color="#9D9FE6"/>
<stop offset="0.163505" stop-color="#CFC0FF"/>
<stop offset="1" stop-color="#8E00FF"/>
</linearGradient>
</defs>
</svg>
