<svg width="30" height="30" viewBox="0 0 30 30" fill="none" xmlns="http://www.w3.org/2000/svg">
<path d="M6.25 27.5C5.5625 27.5 4.97396 27.2552 4.48438 26.7656C3.99479 26.276 3.75 25.6875 3.75 25V7.5C3.75 6.8125 3.99479 6.22396 4.48438 5.73438C4.97396 5.24479 5.5625 5 6.25 5H7.5V2.5H10V5H20V2.5H22.5V5H23.75C24.4375 5 25.026 5.24479 25.5156 5.73438C26.0052 6.22396 26.25 6.8125 26.25 7.5V25C26.25 25.6875 26.0052 26.276 25.5156 26.7656C25.026 27.2552 24.4375 27.5 23.75 27.5H6.25ZM6.25 25H23.75V12.5H6.25V25ZM6.25 10H23.75V7.5H6.25V10ZM15 17.5C14.6458 17.5 14.349 17.3802 14.1094 17.1406C13.8698 16.901 13.75 16.6042 13.75 16.25C13.75 15.8958 13.8698 15.599 14.1094 15.3594C14.349 15.1198 14.6458 15 15 15C15.3542 15 15.651 15.1198 15.8906 15.3594C16.1302 15.599 16.25 15.8958 16.25 16.25C16.25 16.6042 16.1302 16.901 15.8906 17.1406C15.651 17.3802 15.3542 17.5 15 17.5ZM10 17.5C9.64583 17.5 9.34896 17.3802 9.10938 17.1406C8.86979 16.901 8.75 16.6042 8.75 16.25C8.75 15.8958 8.86979 15.599 9.10938 15.3594C9.34896 15.1198 9.64583 15 10 15C10.3542 15 10.651 15.1198 10.8906 15.3594C11.1302 15.599 11.25 15.8958 11.25 16.25C11.25 16.6042 11.1302 16.901 10.8906 17.1406C10.651 17.3802 10.3542 17.5 10 17.5Z" fill="url(#paint0_linear_11099_80005)"/>
<path d="M6.25 27.5C5.5625 27.5 4.97396 27.2552 4.48438 26.7656C3.99479 26.276 3.75 25.6875 3.75 25V7.5C3.75 6.8125 3.99479 6.22396 4.48438 5.73438C4.97396 5.24479 5.5625 5 6.25 5H7.5V2.5H10V5H20V2.5H22.5V5H23.75C24.4375 5 25.026 5.24479 25.5156 5.73438C26.0052 6.22396 26.25 6.8125 26.25 7.5V25C26.25 25.6875 26.0052 26.276 25.5156 26.7656C25.026 27.2552 24.4375 27.5 23.75 27.5H6.25ZM6.25 25H23.75V12.5H6.25V25ZM6.25 10H23.75V7.5H6.25V10ZM15 17.5C14.6458 17.5 14.349 17.3802 14.1094 17.1406C13.8698 16.901 13.75 16.6042 13.75 16.25C13.75 15.8958 13.8698 15.599 14.1094 15.3594C14.349 15.1198 14.6458 15 15 15C15.3542 15 15.651 15.1198 15.8906 15.3594C16.1302 15.599 16.25 15.8958 16.25 16.25C16.25 16.6042 16.1302 16.901 15.8906 17.1406C15.651 17.3802 15.3542 17.5 15 17.5ZM10 17.5C9.64583 17.5 9.34896 17.3802 9.10938 17.1406C8.86979 16.901 8.75 16.6042 8.75 16.25C8.75 15.8958 8.86979 15.599 9.10938 15.3594C9.34896 15.1198 9.64583 15 10 15C10.3542 15 10.651 15.1198 10.8906 15.3594C11.1302 15.599 11.25 15.8958 11.25 16.25C11.25 16.6042 11.1302 16.901 10.8906 17.1406C10.651 17.3802 10.3542 17.5 10 17.5Z" fill="url(#paint1_linear_11099_80005)" fill-opacity="0.2"/>
<defs>
<linearGradient id="paint0_linear_11099_80005" x1="12.7951" y1="27.5" x2="17.5083" y2="3.5126" gradientUnits="userSpaceOnUse">
<stop stop-color="#6E40F9"/>
<stop offset="0.457887" stop-color="#A569FB"/>
<stop offset="1" stop-color="#CE89FF"/>
</linearGradient>
<linearGradient id="paint1_linear_11099_80005" x1="12.7857" y1="68.4788" x2="2.53527" y2="66.6723" gradientUnits="userSpaceOnUse">
<stop stop-color="white" stop-opacity="0"/>
<stop offset="1" stop-color="#8E00FF"/>
</linearGradient>
</defs>
</svg>
