<svg width="51" height="50" viewBox="0 0 51 50" fill="none" xmlns="http://www.w3.org/2000/svg">
<circle cx="25.7148" cy="25" r="25" fill="#70D8E6"/>
<circle cx="25.7148" cy="25" r="25" fill="url(#paint0_linear_11099_81273)"/>
<circle cx="25.7148" cy="25" r="25" fill="url(#paint1_linear_11099_81273)"/>
<path d="M14.3516 38.1816C18.1394 34.0655 27.9879 28.3029 37.0788 38.1816" stroke="black" stroke-width="3" stroke-linecap="round"/>
<path d="M33.0776 25.7101C31.3153 26.564 30.1632 25.3089 29.8075 24.5746C23.8257 17.2513 30.2068 10.8758 34.7067 10.1015C44.1965 8.9739 45.5404 17.2331 45.0308 20.7627C44.6951 22.4573 43.2726 25.5352 40.268 24.2897C37.2635 23.0442 34.2225 24.7177 33.0776 25.7101Z" fill="white"/>
<path d="M35.9737 15.0072C36.7505 15.6813 36.1235 17.1231 35.7129 17.7598C41.6451 19.1628 39.9099 21.2599 38.3008 22.1331C36.0337 22.2936 32.7958 21.6115 31.7606 19.862C30.9324 18.4625 32.4106 16.1707 33.2533 15.1998C33.8364 14.8547 35.1969 14.3331 35.9737 15.0072Z" fill="black"/>
<path d="M18.2085 26.1465C19.9808 26.9792 21.1178 25.7104 21.4648 24.9719C27.3586 17.5776 20.9017 11.2788 16.3928 10.5584C6.89029 9.54439 5.64518 17.819 6.19695 21.3423C6.5529 23.0328 8.01218 26.0935 11.0016 24.8122C13.991 23.5308 17.0518 25.1678 18.2085 26.1465Z" fill="white"/>
<path d="M15.8475 15.9104C15.1203 16.6376 15.8475 18.0316 16.3021 18.6376C10.4838 20.456 12.3627 22.4254 14.0295 23.1828C16.3022 23.1828 19.4839 22.2737 20.393 20.4555C21.1203 19.001 19.4839 16.8193 18.5748 15.9104C17.9687 15.6073 16.5748 15.1831 15.8475 15.9104Z" fill="black"/>
<path d="M42.4751 31.7466C43.116 28.8339 38.8192 27.0013 36.2741 26.388C36.6665 30.9342 39.2105 32.4095 41.0626 32.6798C41.7064 32.7738 42.3352 32.382 42.4751 31.7466Z" fill="#F5FFFF"/>
<path d="M9.87651 31.7466C9.23554 28.8339 13.5323 27.0013 16.0774 26.388C15.6851 30.9342 13.1411 32.4095 11.2889 32.6798C10.6451 32.7738 10.0163 32.382 9.87651 31.7466Z" fill="#F5FFFF"/>
<defs>
<linearGradient id="paint0_linear_11099_81273" x1="23.4421" y1="4.09091" x2="31.1694" y2="108.636" gradientUnits="userSpaceOnUse">
<stop offset="0.0322322" stop-color="#D2DFF5"/>
<stop offset="1" stop-color="#7E9AD9"/>
</linearGradient>
<linearGradient id="paint1_linear_11099_81273" x1="26.1694" y1="6.81818" x2="31.1694" y2="108.636" gradientUnits="userSpaceOnUse">
<stop stop-color="#DCB8FF"/>
<stop offset="1" stop-color="white"/>
</linearGradient>
</defs>
</svg>
