<svg width="50" height="50" viewBox="0 0 50 50" fill="none" xmlns="http://www.w3.org/2000/svg">
<circle cx="25" cy="25" r="24.5" fill="url(#paint0_linear_11099_169396)"/>
<circle cx="25" cy="25" r="24.5" fill="url(#paint1_linear_11099_169396)" fill-opacity="0.2"/>
<path d="M19.5 20.5L19.5 28.5" stroke="white" stroke-width="3" stroke-linecap="round"/>
<path d="M31.5 22.5V26.5" stroke="white" stroke-width="3" stroke-linecap="round"/>
<path d="M25.5 17.5L25.5 30.5" stroke="white" stroke-width="3" stroke-linecap="round"/>
<path fill-rule="evenodd" clip-rule="evenodd" d="M31.825 11.7594C31.7905 11.6077 31.6556 11.5 31.5 11.5C31.3444 11.5 31.2095 11.6077 31.175 11.7594L30.867 13.1137C30.7817 13.4888 30.4888 13.7817 30.1137 13.867L28.7594 14.175C28.6077 14.2095 28.5 14.3444 28.5 14.5C28.5 14.6556 28.6077 14.7905 28.7594 14.825L30.1137 15.133C30.4888 15.2183 30.7817 15.5112 30.867 15.8864L31.175 17.2406C31.2095 17.3923 31.3444 17.5 31.5 17.5C31.6556 17.5 31.7905 17.3923 31.825 17.2406L32.133 15.8864C32.2183 15.5112 32.5112 15.2183 32.8864 15.133L34.2406 14.825C34.3923 14.7905 34.5 14.6556 34.5 14.5C34.5 14.3444 34.3923 14.2095 34.2406 14.175L32.8864 13.867C32.5112 13.7817 32.2183 13.4888 32.133 13.1137L31.825 11.7594Z" fill="white"/>
<path fill-rule="evenodd" clip-rule="evenodd" d="M19.825 31.7594C19.7905 31.6077 19.6556 31.5 19.5 31.5C19.3444 31.5 19.2095 31.6077 19.175 31.7594L18.867 33.1137C18.7817 33.4888 18.4888 33.7817 18.1137 33.867L16.7594 34.175C16.6077 34.2095 16.5 34.3444 16.5 34.5C16.5 34.6556 16.6077 34.7905 16.7594 34.825L18.1137 35.133C18.4888 35.2183 18.7817 35.5112 18.867 35.8864L19.175 37.2406C19.2095 37.3923 19.3444 37.5 19.5 37.5C19.6556 37.5 19.7905 37.3923 19.825 37.2406L20.133 35.8864C20.2183 35.5112 20.5112 35.2183 20.8864 35.133L22.2406 34.825C22.3923 34.7905 22.5 34.6556 22.5 34.5C22.5 34.3444 22.3923 34.2095 22.2406 34.175L20.8864 33.867C20.5112 33.7817 20.2183 33.4888 20.133 33.1137L19.825 31.7594Z" fill="white"/>
<defs>
<linearGradient id="paint0_linear_11099_169396" x1="20.1983" y1="49.5" x2="28.5715" y2="2.15029" gradientUnits="userSpaceOnUse">
<stop stop-color="#6E40F9"/>
<stop offset="0.457887" stop-color="#A569FB"/>
<stop offset="1" stop-color="#CE89FF"/>
</linearGradient>
<linearGradient id="paint1_linear_11099_169396" x1="20.1778" y1="129.818" x2="-1.98878" y2="125.478" gradientUnits="userSpaceOnUse">
<stop stop-color="white" stop-opacity="0"/>
<stop offset="1" stop-color="#8E00FF"/>
</linearGradient>
</defs>
</svg>
