<svg width="30" height="30" viewBox="0 0 30 30" fill="none" xmlns="http://www.w3.org/2000/svg">
<g clip-path="url(#clip0_11099_80062)">
<path d="M23.7891 20.2734H6.21094C5.72514 20.2734 5.33203 20.6665 5.33203 21.1523C5.33203 21.6381 5.72514 22.0312 6.21094 22.0312H23.7891C24.2749 22.0312 24.668 21.6381 24.668 21.1523C24.668 20.6665 24.2749 20.2734 23.7891 20.2734ZM20.2734 23.7891H9.72656C9.24076 23.7891 8.84766 24.1822 8.84766 24.668C8.84766 25.1538 9.24076 25.5469 9.72656 25.5469H20.2734C20.7592 25.5469 21.1523 25.1538 21.1523 24.668C21.1523 24.1822 20.7592 23.7891 20.2734 23.7891ZM16.7578 27.3047H13.2422C12.7564 27.3047 12.3633 27.6978 12.3633 28.1836C12.3633 28.6694 12.7564 29.0625 13.2422 29.0625H16.7578C17.2436 29.0625 17.6367 28.6694 17.6367 28.1836C17.6367 27.6978 17.2436 27.3047 16.7578 27.3047ZM29.1211 17.4609H24.6233C24.1766 12.5447 20.0297 8.67188 15 8.67188C9.97031 8.67188 5.8234 12.5447 5.37668 17.4609H0.878906C0.393516 17.4609 0 17.8543 0 18.3398C0 18.8252 0.393516 19.2188 0.878906 19.2188H29.1211C29.6065 19.2188 30 18.8252 30 18.3398C30 17.8543 29.6065 17.4609 29.1211 17.4609Z" fill="url(#paint0_linear_11099_80062)"/>
<path d="M23.7891 20.2734H6.21094C5.72514 20.2734 5.33203 20.6665 5.33203 21.1523C5.33203 21.6381 5.72514 22.0312 6.21094 22.0312H23.7891C24.2749 22.0312 24.668 21.6381 24.668 21.1523C24.668 20.6665 24.2749 20.2734 23.7891 20.2734ZM20.2734 23.7891H9.72656C9.24076 23.7891 8.84766 24.1822 8.84766 24.668C8.84766 25.1538 9.24076 25.5469 9.72656 25.5469H20.2734C20.7592 25.5469 21.1523 25.1538 21.1523 24.668C21.1523 24.1822 20.7592 23.7891 20.2734 23.7891ZM16.7578 27.3047H13.2422C12.7564 27.3047 12.3633 27.6978 12.3633 28.1836C12.3633 28.6694 12.7564 29.0625 13.2422 29.0625H16.7578C17.2436 29.0625 17.6367 28.6694 17.6367 28.1836C17.6367 27.6978 17.2436 27.3047 16.7578 27.3047ZM29.1211 17.4609H24.6233C24.1766 12.5447 20.0297 8.67188 15 8.67188C9.97031 8.67188 5.8234 12.5447 5.37668 17.4609H0.878906C0.393516 17.4609 0 17.8543 0 18.3398C0 18.8252 0.393516 19.2188 0.878906 19.2188H29.1211C29.6065 19.2188 30 18.8252 30 18.3398C30 17.8543 29.6065 17.4609 29.1211 17.4609Z" fill="url(#paint1_linear_11099_80062)" fill-opacity="0.2"/>
<path d="M15 0.9375C14.5142 0.9375 14.1211 1.33061 14.1211 1.81641V5.33203C14.1211 5.81783 14.5142 6.21094 15 6.21094C15.4858 6.21094 15.8789 5.81783 15.8789 5.33203V1.81641C15.8789 1.33061 15.4858 0.9375 15 0.9375ZM8.7292 3.26092C8.48715 2.83863 7.94814 2.69701 7.52926 2.93906C7.10867 3.18199 6.96447 3.71924 7.20822 4.13982L8.96603 7.18424C9.20557 7.60336 9.74352 7.74861 10.166 7.50609C10.5866 7.26316 10.7308 6.72592 10.487 6.30533L8.7292 3.26092ZM6.30529 9.84416L3.26176 8.08635C2.84293 7.84688 2.30387 7.9868 2.06182 8.4082C1.81807 8.82879 1.96227 9.36609 2.38285 9.60896L5.42639 11.3668C5.84937 11.6096 6.38703 11.4636 6.62633 11.0449C6.87008 10.6243 6.72588 10.087 6.30529 9.84416ZM22.4707 2.93906C22.0518 2.69959 21.5128 2.84033 21.2707 3.26092L19.5129 6.30533C19.2692 6.72592 19.4134 7.26322 19.8339 7.50609C20.2569 7.74891 20.7946 7.60295 21.0339 7.18424L22.7917 4.13982C23.0354 3.7193 22.8912 3.18199 22.4707 2.93906ZM27.9381 8.4082C27.6961 7.98592 27.1587 7.8443 26.7382 8.08635L23.6946 9.84416C23.274 10.0871 23.1298 10.6243 23.3736 11.0449C23.6131 11.464 24.1511 11.6093 24.5735 11.3668L27.6171 9.60896C28.0377 9.36609 28.1819 8.82879 27.9381 8.4082Z" fill="url(#paint2_linear_11099_80062)"/>
<path d="M15 0.9375C14.5142 0.9375 14.1211 1.33061 14.1211 1.81641V5.33203C14.1211 5.81783 14.5142 6.21094 15 6.21094C15.4858 6.21094 15.8789 5.81783 15.8789 5.33203V1.81641C15.8789 1.33061 15.4858 0.9375 15 0.9375ZM8.7292 3.26092C8.48715 2.83863 7.94814 2.69701 7.52926 2.93906C7.10867 3.18199 6.96447 3.71924 7.20822 4.13982L8.96603 7.18424C9.20557 7.60336 9.74352 7.74861 10.166 7.50609C10.5866 7.26316 10.7308 6.72592 10.487 6.30533L8.7292 3.26092ZM6.30529 9.84416L3.26176 8.08635C2.84293 7.84688 2.30387 7.9868 2.06182 8.4082C1.81807 8.82879 1.96227 9.36609 2.38285 9.60896L5.42639 11.3668C5.84937 11.6096 6.38703 11.4636 6.62633 11.0449C6.87008 10.6243 6.72588 10.087 6.30529 9.84416ZM22.4707 2.93906C22.0518 2.69959 21.5128 2.84033 21.2707 3.26092L19.5129 6.30533C19.2692 6.72592 19.4134 7.26322 19.8339 7.50609C20.2569 7.74891 20.7946 7.60295 21.0339 7.18424L22.7917 4.13982C23.0354 3.7193 22.8912 3.18199 22.4707 2.93906ZM27.9381 8.4082C27.6961 7.98592 27.1587 7.8443 26.7382 8.08635L23.6946 9.84416C23.274 10.0871 23.1298 10.6243 23.3736 11.0449C23.6131 11.464 24.1511 11.6093 24.5735 11.3668L27.6171 9.60896C28.0377 9.36609 28.1819 8.82879 27.9381 8.4082Z" fill="url(#paint3_linear_11099_80062)" fill-opacity="0.2"/>
</g>
<defs>
<linearGradient id="paint0_linear_11099_80062" x1="12.0602" y1="29.0625" x2="14.4677" y2="9.03183" gradientUnits="userSpaceOnUse">
<stop stop-color="#6E40F9"/>
<stop offset="0.457887" stop-color="#A569FB"/>
<stop offset="1" stop-color="#CE89FF"/>
</linearGradient>
<linearGradient id="paint1_linear_11099_80062" x1="12.0476" y1="62.4858" x2="-0.964152" y2="58.7372" gradientUnits="userSpaceOnUse">
<stop stop-color="white" stop-opacity="0"/>
<stop offset="1" stop-color="#8E00FF"/>
</linearGradient>
<linearGradient id="paint2_linear_11099_80062" x1="12.441" y1="11.4843" x2="13.1878" y2="1.02735" gradientUnits="userSpaceOnUse">
<stop stop-color="#6E40F9"/>
<stop offset="0.457887" stop-color="#A569FB"/>
<stop offset="1" stop-color="#CE89FF"/>
</linearGradient>
<linearGradient id="paint3_linear_11099_80062" x1="12.4301" y1="28.7722" x2="2.49846" y2="23.957" gradientUnits="userSpaceOnUse">
<stop stop-color="white" stop-opacity="0"/>
<stop offset="1" stop-color="#8E00FF"/>
</linearGradient>
<clipPath id="clip0_11099_80062">
<rect width="30" height="30" fill="white"/>
</clipPath>
</defs>
</svg>
