<svg width="28" height="24" viewBox="0 0 28 24" fill="none" xmlns="http://www.w3.org/2000/svg">
<path d="M20.4645 5.52088C20.352 5.40663 20.352 5.22147 20.4645 5.10668C21.1616 4.40221 22.291 4.33278 23.0682 4.9186C23.817 4.0278 25.1666 3.95338 26.0038 4.78735C26.2774 5.05993 25.8629 5.47354 25.5895 5.20155C24.9804 4.59563 23.9943 4.67362 23.4825 5.33754C23.6389 5.55317 23.7568 5.80395 23.8172 6.0794C23.8258 6.11696 23.8268 6.15585 23.8202 6.19382C23.8137 6.23179 23.7997 6.26809 23.779 6.3006C23.7583 6.33312 23.7314 6.36122 23.6998 6.38327C23.6683 6.40533 23.6326 6.4209 23.5949 6.42909C23.4389 6.46542 23.2819 6.36657 23.2466 6.20766C23.0036 5.11776 21.6515 4.74499 20.8816 5.52094C20.8262 5.57612 20.7512 5.60709 20.673 5.60708C20.5949 5.60707 20.5199 5.57607 20.4645 5.52088ZM24.4564 8.31581C23.6738 7.73098 22.5636 7.79543 21.8527 8.50389C21.5791 8.77659 21.9936 9.19008 22.267 8.91821C23.0489 8.14067 24.3891 8.51772 24.6319 9.60487C24.6676 9.76454 24.8232 9.86151 24.9831 9.82641C25.1395 9.79125 25.2382 9.63475 25.2026 9.47661C25.1442 9.20911 25.0312 8.95658 24.8706 8.73487C25.3889 8.06256 26.3831 8.00039 26.9777 8.59887C27.0901 8.71313 27.2767 8.71313 27.3919 8.59887C27.5044 8.48409 27.5044 8.29893 27.3919 8.18467C26.5679 7.3568 25.2049 7.41909 24.4564 8.31581ZM4.24735 4.51893C5.02378 3.74444 6.36921 4.1154 6.61225 5.20571C6.64794 5.36585 6.8089 5.46329 6.96347 5.42713C7.11985 5.39198 7.21858 5.23559 7.18565 5.07733C7.12255 4.80206 7.00735 4.55122 6.85097 4.33559C7.36929 3.66323 8.36339 3.60118 8.958 4.19959C9.0705 4.31385 9.25706 4.31385 9.37225 4.19959C9.48475 4.08481 9.48475 3.89959 9.37225 3.7854C8.553 2.95946 7.19274 3.01729 6.43665 3.91665C5.6543 3.3317 4.54231 3.39657 3.83298 4.10473C3.55964 4.37766 3.97395 4.79151 4.24735 4.51893ZM7.471 1.74569C8.24749 0.971196 9.59503 1.34139 9.83597 2.43247C9.87136 2.59284 10.0321 2.68887 10.1872 2.65448C10.3436 2.61868 10.4423 2.46229 10.4094 2.30403C10.3463 2.0287 10.2311 1.77792 10.0747 1.56229C10.593 0.889985 11.587 0.827817 12.1817 1.42629C12.2942 1.54055 12.4808 1.54055 12.596 1.42629C12.7085 1.31204 12.7085 1.12629 12.596 1.01204C11.7759 0.185278 10.4163 0.245454 9.66036 1.14334C8.87796 0.558462 7.76555 0.623736 7.05669 1.33143C6.78335 1.60442 7.19766 2.01827 7.471 1.74569ZM27.1835 18.4273H21.6964C22.042 17.5109 22.2259 16.5284 22.2259 15.5504C22.2259 11.0786 18.5852 7.43989 14.1132 7.43989C9.64395 7.43989 6.00323 11.0786 6.00323 15.5504C6.00323 16.5413 6.18153 17.5075 6.53274 18.4273H1.04555C0.9678 18.4273 0.893222 18.4582 0.838187 18.5131C0.783152 18.568 0.752155 18.6425 0.752 18.7203C0.75214 18.7981 0.783129 18.8726 0.838166 18.9275C0.893203 18.9825 0.96779 19.0133 1.04555 19.0133H21.3699L21.433 19.0437C21.4385 19.0338 21.4413 19.0233 21.4467 19.0133H27.1835C27.2613 19.0133 27.3359 18.9825 27.3909 18.9275C27.4459 18.8726 27.4769 18.7981 27.4771 18.7203C27.4771 18.5586 27.3454 18.4273 27.1835 18.4273ZM1.02364 7.29217C1.80177 6.51622 3.14573 6.8894 3.3886 7.97895C3.40296 8.04392 3.43907 8.10204 3.49096 8.14368C3.54286 8.18532 3.60742 8.20799 3.67395 8.20793C3.86339 8.20793 4.00143 8.03069 3.96206 7.85051C3.89895 7.57524 3.78376 7.3244 3.62737 7.10877C4.14569 6.43647 5.13985 6.3743 5.7344 6.97278C5.8469 7.08698 6.03346 7.08698 6.14866 6.97278C6.26116 6.85852 6.26116 6.67278 6.14866 6.55858C5.3294 5.73264 3.96915 5.79053 3.21305 6.68977C2.43048 6.10495 1.31889 6.16958 0.609383 6.87797C0.581999 6.90507 0.560261 6.93732 0.545425 6.97287C0.530588 7.00841 0.522949 7.04655 0.522949 7.08507C0.522949 7.12359 0.530588 7.16173 0.545425 7.19728C0.560261 7.23283 0.581999 7.26508 0.609383 7.29217C0.636523 7.31948 0.668796 7.34115 0.704343 7.35594C0.73989 7.37073 0.778011 7.37834 0.816512 7.37834C0.855012 7.37834 0.893133 7.37073 0.92868 7.35594C0.964227 7.34115 0.9965 7.31948 1.02364 7.29217ZM23.6059 20.7061H4.62317C4.46128 20.7061 4.32962 20.8373 4.32962 20.9991C4.32962 21.1609 4.46134 21.292 4.62317 21.292H23.6059C23.7678 21.292 23.8995 21.1608 23.8995 20.9991C23.8995 20.8374 23.7678 20.7061 23.6059 20.7061ZM20.3548 22.9848H7.8743C7.71241 22.9848 7.58075 23.116 7.58075 23.2777C7.58075 23.4394 7.71247 23.5707 7.8743 23.5707H20.3548C20.5167 23.5707 20.6483 23.4394 20.6483 23.2777C20.6483 23.1161 20.5167 22.9848 20.3548 22.9848Z" fill="url(#paint0_linear_12332_29521)"/>
<path d="M20.4645 5.52088C20.352 5.40663 20.352 5.22147 20.4645 5.10668C21.1616 4.40221 22.291 4.33278 23.0682 4.9186C23.817 4.0278 25.1666 3.95338 26.0038 4.78735C26.2774 5.05993 25.8629 5.47354 25.5895 5.20155C24.9804 4.59563 23.9943 4.67362 23.4825 5.33754C23.6389 5.55317 23.7568 5.80395 23.8172 6.0794C23.8258 6.11696 23.8268 6.15585 23.8202 6.19382C23.8137 6.23179 23.7997 6.26809 23.779 6.3006C23.7583 6.33312 23.7314 6.36122 23.6998 6.38327C23.6683 6.40533 23.6326 6.4209 23.5949 6.42909C23.4389 6.46542 23.2819 6.36657 23.2466 6.20766C23.0036 5.11776 21.6515 4.74499 20.8816 5.52094C20.8262 5.57612 20.7512 5.60709 20.673 5.60708C20.5949 5.60707 20.5199 5.57607 20.4645 5.52088ZM24.4564 8.31581C23.6738 7.73098 22.5636 7.79543 21.8527 8.50389C21.5791 8.77659 21.9936 9.19008 22.267 8.91821C23.0489 8.14067 24.3891 8.51772 24.6319 9.60487C24.6676 9.76454 24.8232 9.86151 24.9831 9.82641C25.1395 9.79125 25.2382 9.63475 25.2026 9.47661C25.1442 9.20911 25.0312 8.95658 24.8706 8.73487C25.3889 8.06256 26.3831 8.00039 26.9777 8.59887C27.0901 8.71313 27.2767 8.71313 27.3919 8.59887C27.5044 8.48409 27.5044 8.29893 27.3919 8.18467C26.5679 7.3568 25.2049 7.41909 24.4564 8.31581ZM4.24735 4.51893C5.02378 3.74444 6.36921 4.1154 6.61225 5.20571C6.64794 5.36585 6.8089 5.46329 6.96347 5.42713C7.11985 5.39198 7.21858 5.23559 7.18565 5.07733C7.12255 4.80206 7.00735 4.55122 6.85097 4.33559C7.36929 3.66323 8.36339 3.60118 8.958 4.19959C9.0705 4.31385 9.25706 4.31385 9.37225 4.19959C9.48475 4.08481 9.48475 3.89959 9.37225 3.7854C8.553 2.95946 7.19274 3.01729 6.43665 3.91665C5.6543 3.3317 4.54231 3.39657 3.83298 4.10473C3.55964 4.37766 3.97395 4.79151 4.24735 4.51893ZM7.471 1.74569C8.24749 0.971196 9.59503 1.34139 9.83597 2.43247C9.87136 2.59284 10.0321 2.68887 10.1872 2.65448C10.3436 2.61868 10.4423 2.46229 10.4094 2.30403C10.3463 2.0287 10.2311 1.77792 10.0747 1.56229C10.593 0.889985 11.587 0.827817 12.1817 1.42629C12.2942 1.54055 12.4808 1.54055 12.596 1.42629C12.7085 1.31204 12.7085 1.12629 12.596 1.01204C11.7759 0.185278 10.4163 0.245454 9.66036 1.14334C8.87796 0.558462 7.76555 0.623736 7.05669 1.33143C6.78335 1.60442 7.19766 2.01827 7.471 1.74569ZM27.1835 18.4273H21.6964C22.042 17.5109 22.2259 16.5284 22.2259 15.5504C22.2259 11.0786 18.5852 7.43989 14.1132 7.43989C9.64395 7.43989 6.00323 11.0786 6.00323 15.5504C6.00323 16.5413 6.18153 17.5075 6.53274 18.4273H1.04555C0.9678 18.4273 0.893222 18.4582 0.838187 18.5131C0.783152 18.568 0.752155 18.6425 0.752 18.7203C0.75214 18.7981 0.783129 18.8726 0.838166 18.9275C0.893203 18.9825 0.96779 19.0133 1.04555 19.0133H21.3699L21.433 19.0437C21.4385 19.0338 21.4413 19.0233 21.4467 19.0133H27.1835C27.2613 19.0133 27.3359 18.9825 27.3909 18.9275C27.4459 18.8726 27.4769 18.7981 27.4771 18.7203C27.4771 18.5586 27.3454 18.4273 27.1835 18.4273ZM1.02364 7.29217C1.80177 6.51622 3.14573 6.8894 3.3886 7.97895C3.40296 8.04392 3.43907 8.10204 3.49096 8.14368C3.54286 8.18532 3.60742 8.20799 3.67395 8.20793C3.86339 8.20793 4.00143 8.03069 3.96206 7.85051C3.89895 7.57524 3.78376 7.3244 3.62737 7.10877C4.14569 6.43647 5.13985 6.3743 5.7344 6.97278C5.8469 7.08698 6.03346 7.08698 6.14866 6.97278C6.26116 6.85852 6.26116 6.67278 6.14866 6.55858C5.3294 5.73264 3.96915 5.79053 3.21305 6.68977C2.43048 6.10495 1.31889 6.16958 0.609383 6.87797C0.581999 6.90507 0.560261 6.93732 0.545425 6.97287C0.530588 7.00841 0.522949 7.04655 0.522949 7.08507C0.522949 7.12359 0.530588 7.16173 0.545425 7.19728C0.560261 7.23283 0.581999 7.26508 0.609383 7.29217C0.636523 7.31948 0.668796 7.34115 0.704343 7.35594C0.73989 7.37073 0.778011 7.37834 0.816512 7.37834C0.855012 7.37834 0.893133 7.37073 0.92868 7.35594C0.964227 7.34115 0.9965 7.31948 1.02364 7.29217ZM23.6059 20.7061H4.62317C4.46128 20.7061 4.32962 20.8373 4.32962 20.9991C4.32962 21.1609 4.46134 21.292 4.62317 21.292H23.6059C23.7678 21.292 23.8995 21.1608 23.8995 20.9991C23.8995 20.8374 23.7678 20.7061 23.6059 20.7061ZM20.3548 22.9848H7.8743C7.71241 22.9848 7.58075 23.116 7.58075 23.2777C7.58075 23.4394 7.71247 23.5707 7.8743 23.5707H20.3548C20.5167 23.5707 20.6483 23.4394 20.6483 23.2777C20.6483 23.1161 20.5167 22.9848 20.3548 22.9848Z" fill="url(#paint1_linear_12332_29521)" fill-opacity="0.2"/>
<defs>
<linearGradient id="paint0_linear_12332_29521" x1="11.3587" y1="23.5707" x2="14.7811" y2="1.02867" gradientUnits="userSpaceOnUse">
<stop stop-color="#6E40F9"/>
<stop offset="0.457887" stop-color="#A569FB"/>
<stop offset="1" stop-color="#CE89FF"/>
</linearGradient>
<linearGradient id="paint1_linear_12332_29521" x1="11.3474" y1="61.5035" x2="-0.6876" y2="58.7586" gradientUnits="userSpaceOnUse">
<stop stop-color="white" stop-opacity="0"/>
<stop offset="1" stop-color="#8E00FF"/>
</linearGradient>
</defs>
</svg>
