<svg width="16" height="17" viewBox="0 0 16 17" fill="none" xmlns="http://www.w3.org/2000/svg">
<path d="M6.66667 2.50033C6.47778 2.50033 6.31944 2.43644 6.19167 2.30866C6.06389 2.18088 6 2.02255 6 1.83366C6 1.64477 6.06389 1.48644 6.19167 1.35866C6.31944 1.23088 6.47778 1.16699 6.66667 1.16699H9.33333C9.52222 1.16699 9.68056 1.23088 9.80833 1.35866C9.93611 1.48644 10 1.64477 10 1.83366C10 2.02255 9.93611 2.18088 9.80833 2.30866C9.68056 2.43644 9.52222 2.50033 9.33333 2.50033H6.66667ZM8 9.83366C8.18889 9.83366 8.34722 9.76977 8.475 9.64199C8.60278 9.51421 8.66667 9.35588 8.66667 9.16699V6.50033C8.66667 6.31144 8.60278 6.1531 8.475 6.02533C8.34722 5.89755 8.18889 5.83366 8 5.83366C7.81111 5.83366 7.65278 5.89755 7.525 6.02533C7.39722 6.1531 7.33333 6.31144 7.33333 6.50033V9.16699C7.33333 9.35588 7.39722 9.51421 7.525 9.64199C7.65278 9.76977 7.81111 9.83366 8 9.83366ZM8 15.167C7.17778 15.167 6.40278 15.0087 5.675 14.692C4.94722 14.3753 4.31111 13.9448 3.76667 13.4003C3.22222 12.8559 2.79167 12.2198 2.475 11.492C2.15833 10.7642 2 9.98921 2 9.16699C2 8.34477 2.15833 7.56977 2.475 6.84199C2.79167 6.11421 3.22222 5.4781 3.76667 4.93366C4.31111 4.38921 4.94722 3.95866 5.675 3.64199C6.40278 3.32533 7.17778 3.16699 8 3.16699C8.68889 3.16699 9.35 3.2781 9.98333 3.50033C10.6167 3.72255 11.2111 4.04477 11.7667 4.46699L12.2333 4.00033C12.3556 3.8781 12.5111 3.81699 12.7 3.81699C12.8889 3.81699 13.0444 3.8781 13.1667 4.00033C13.2889 4.12255 13.35 4.2781 13.35 4.46699C13.35 4.65588 13.2889 4.81144 13.1667 4.93366L12.7 5.40033C13.1222 5.95588 13.4444 6.55033 13.6667 7.18366C13.8889 7.81699 14 8.4781 14 9.16699C14 9.98921 13.8417 10.7642 13.525 11.492C13.2083 12.2198 12.7778 12.8559 12.2333 13.4003C11.6889 13.9448 11.0528 14.3753 10.325 14.692C9.59722 15.0087 8.82222 15.167 8 15.167Z" fill="#30303D" fill-opacity="0.76"/>
</svg>
