<svg width="24" height="24" viewBox="0 0 24 24" fill="none" xmlns="http://www.w3.org/2000/svg">
<path d="M7.95201 18.4998C7.73918 18.4998 7.56093 18.428 7.41726 18.2843C7.27376 18.1408 7.20201 17.9627 7.20201 17.7498C7.20201 17.537 7.27376 17.3588 7.41726 17.2153C7.56093 17.0717 7.73918 16.9998 7.95201 16.9998H14.3788C15.4224 16.9998 16.3205 16.6552 17.073 15.9661C17.8257 15.2771 18.202 14.4262 18.202 13.4133C18.202 12.4005 17.8257 11.5511 17.073 10.8651C16.3205 10.1792 15.4224 9.83632 14.3788 9.83632H7.35776L9.61351 12.0921C9.75835 12.2371 9.83076 12.4127 9.83076 12.6191C9.83076 12.8254 9.75835 13.0011 9.61351 13.1461C9.46868 13.2909 9.29143 13.3617 9.08176 13.3586C8.8721 13.3552 8.6981 13.2844 8.55976 13.1461L5.13276 9.71907C5.0391 9.6254 4.9731 9.52665 4.93476 9.42282C4.89626 9.31899 4.87701 9.20682 4.87701 9.08632C4.87701 8.96582 4.89626 8.85365 4.93476 8.74982C4.9731 8.64599 5.0391 8.54724 5.13276 8.45357L8.55976 5.02682C8.7046 4.88199 8.88018 4.80957 9.08651 4.80957C9.29301 4.80957 9.46868 4.88199 9.61351 5.02682C9.75835 5.17165 9.82918 5.3489 9.82601 5.55857C9.82285 5.76807 9.75201 5.94207 9.61351 6.08057L7.35776 8.33632H14.3788C15.8416 8.33632 17.0945 8.82449 18.1375 9.80082C19.1805 10.7772 19.702 11.9813 19.702 13.4133C19.702 14.8453 19.1805 16.0511 18.1375 17.0306C17.0945 18.0101 15.8416 18.4998 14.3788 18.4998H7.95201Z" fill="#30303D" fill-opacity="0.56"/>
</svg>
