<svg width="51" height="50" viewBox="0 0 51 50" fill="none" xmlns="http://www.w3.org/2000/svg">
<path d="M50.2148 25C50.2148 38.8071 39.022 50 25.2148 50C11.4077 50 0.214844 38.8071 0.214844 25C0.214844 11.1929 11.4077 0 25.2148 0C39.022 0 50.2148 11.1929 50.2148 25Z" fill="#BCE36D"/>
<path d="M50.2148 25C50.2148 38.8071 39.022 50 25.2148 50C11.4077 50 0.214844 38.8071 0.214844 25C0.214844 11.1929 11.4077 0 25.2148 0C39.022 0 50.2148 11.1929 50.2148 25Z" fill="url(#paint0_linear_11099_81287)"/>
<path d="M50.2148 25C50.2148 38.8071 39.022 50 25.2148 50C11.4077 50 0.214844 38.8071 0.214844 25C0.214844 11.1929 11.4077 0 25.2148 0C39.022 0 50.2148 11.1929 50.2148 25Z" fill="url(#paint1_linear_11099_81287)"/>
<path d="M45.6701 21.8175C45.6701 26.8382 41.6 30.9084 36.5792 30.9084C31.5584 30.9084 27.4883 26.8382 27.4883 21.8175C27.4883 16.7967 31.5584 12.7266 36.5792 12.7266C41.6 12.7266 45.6701 16.7967 45.6701 21.8175Z" fill="white"/>
<path d="M37.4893 22.7266C37.4893 25.237 35.4543 27.2721 32.9439 27.2721C30.4335 27.2721 28.3984 25.237 28.3984 22.7266C28.3984 20.2162 30.4335 18.1812 32.9439 18.1812C35.4543 18.1812 37.4893 20.2162 37.4893 22.7266Z" fill="#23191A"/>
<path d="M5.67365 21.8175C5.67365 26.8382 9.74379 30.9084 14.7646 30.9084C19.7853 30.9084 23.8555 26.8382 23.8555 21.8175C23.8555 16.7967 19.7853 12.7266 14.7646 12.7266C9.74379 12.7266 5.67365 16.7967 5.67365 21.8175Z" fill="white"/>
<path d="M13.8544 22.7266C13.8544 25.237 15.8895 27.2721 18.3999 27.2721C20.9102 27.2721 22.9453 25.237 22.9453 22.7266C22.9453 20.2162 20.9102 18.1812 18.3999 18.1812C15.8895 18.1812 13.8544 20.2162 13.8544 22.7266Z" fill="#23191A"/>
<path d="M28.396 34.5456C28.396 36.0518 27.1749 36.8183 25.6687 36.8183C24.1624 36.8183 22.9414 36.0518 22.9414 34.5456C22.9414 33.0394 24.1624 31.3638 25.6687 31.3638C27.1749 31.3638 28.396 33.0394 28.396 34.5456Z" fill="#23191A"/>
<defs>
<linearGradient id="paint0_linear_11099_81287" x1="25.2148" y1="0" x2="30.6694" y2="108.636" gradientUnits="userSpaceOnUse">
<stop stop-color="#C8FFCA"/>
<stop offset="1" stop-color="#90C184"/>
</linearGradient>
<linearGradient id="paint1_linear_11099_81287" x1="25.6694" y1="6.81818" x2="30.6694" y2="108.636" gradientUnits="userSpaceOnUse">
<stop stop-color="#DCB8FF"/>
<stop offset="1" stop-color="white"/>
</linearGradient>
</defs>
</svg>
