<svg width="32" height="32" viewBox="0 0 32 32" fill="none" xmlns="http://www.w3.org/2000/svg">
<path d="M32 16C32 24.8366 24.8366 32 16 32C7.16344 32 0 24.8366 0 16C0 7.16344 7.16344 0 16 0C24.8366 0 32 7.16344 32 16Z" fill="#FFCE6D"/>
<path d="M32 16C32 24.8366 24.8366 32 16 32C7.16344 32 0 24.8366 0 16C0 7.16344 7.16344 0 16 0C24.8366 0 32 7.16344 32 16Z" fill="url(#paint0_linear_11097_27342)"/>
<path d="M32 16C32 24.8366 24.8366 32 16 32C7.16344 32 0 24.8366 0 16C0 7.16344 7.16344 0 16 0C24.8366 0 32 7.16344 32 16Z" fill="url(#paint1_linear_11097_27342)"/>
<path d="M12.2993 20.6543C12.7647 19.2579 13.5446 19.9954 14.0447 20.3634C14.8352 20.9451 17.8267 20.9453 18.9903 20.3634C20.3232 19.6968 20.4449 20.1694 20.4449 20.6543C20.0799 24.7271 17.7403 25.309 16.0072 25.309C13.3813 25.018 11.8338 22.0507 12.2993 20.6543Z" fill="#23191A"/>
<path d="M20.2005 16.3028C19.0368 16.7682 18.358 15.9149 18.1641 15.4301C14.6763 10.4845 19.0381 6.70275 21.946 6.41184C28.0552 6.12085 28.5399 11.4543 28.0551 13.6846C27.7642 14.7512 26.7169 16.6519 24.8551 15.721C22.9932 14.7901 20.9763 15.721 20.2005 16.3028Z" fill="white"/>
<path fill-rule="evenodd" clip-rule="evenodd" d="M20.9376 13.7282C20.921 13.7603 20.8502 13.8968 20.7491 14.0095C20.3951 14.4042 19.7882 14.4372 19.3935 14.0831C19.0296 13.7568 18.9732 13.2155 19.2439 12.8237C19.2607 12.7918 19.2825 12.7482 19.3161 12.6808L19.3229 12.6672C19.3954 12.522 19.4994 12.3147 19.6303 12.084C19.8856 11.6338 20.2769 11.0326 20.8214 10.5593C21.3792 10.0745 22.1619 9.6735 23.1345 9.79808C24.0761 9.91868 24.9893 10.5076 25.8885 11.5242C26.2398 11.9214 26.2026 12.5281 25.8055 12.8793C25.4084 13.2306 24.8017 13.1934 24.4504 12.7963C23.7086 11.9577 23.1862 11.7404 22.8906 11.7025C22.626 11.6686 22.3701 11.757 22.081 12.0083C21.7787 12.2712 21.5149 12.6529 21.3003 13.0313C21.1962 13.2148 21.1114 13.3833 21.0406 13.525C21.0373 13.5317 21.0339 13.5384 21.0305 13.5452C21.0003 13.6058 20.968 13.6705 20.9401 13.7233C20.9395 13.7245 20.9387 13.7261 20.9376 13.7282ZM19.2265 12.8551C19.2266 12.8547 19.2295 12.8494 19.2349 12.8406C19.2291 12.8511 19.2264 12.8555 19.2265 12.8551Z" fill="black"/>
<path d="M11.487 16.6048C12.6507 17.0702 13.3295 16.2169 13.5234 15.7321C17.0112 10.7865 12.6494 7.00475 9.74155 6.71384C3.63228 6.42285 3.14756 11.7563 3.63241 13.9866C3.92332 15.0532 4.9706 16.9539 6.83243 16.023C8.69426 15.0921 10.7112 16.023 11.487 16.6048Z" fill="white"/>
<path fill-rule="evenodd" clip-rule="evenodd" d="M7.17182 13.3601C7.14708 13.3865 7.04182 13.4985 6.91378 13.5793C6.4655 13.8624 5.87259 13.7286 5.58948 13.2803C5.32849 12.867 5.42186 12.3309 5.78922 12.0278C5.81404 12.0017 5.84693 11.9657 5.89767 11.9101L5.90789 11.8988C6.01731 11.7789 6.17385 11.6079 6.36275 11.4216C6.73124 11.0582 7.27174 10.5866 7.92473 10.2798C8.59359 9.96552 9.45604 9.79335 10.3577 10.1786C11.2307 10.5515 11.9486 11.3673 12.5363 12.5907C12.7659 13.0686 12.5646 13.6421 12.0867 13.8717C11.6088 14.1013 11.0352 13.9 10.8056 13.4221C10.3208 12.4129 9.87747 12.0613 9.60344 11.9442C9.35816 11.8394 9.08786 11.8546 8.74116 12.0175C8.37858 12.1879 8.0207 12.4831 7.71094 12.7886C7.56072 12.9368 7.43316 13.0757 7.3264 13.1928C7.32138 13.1983 7.31631 13.2038 7.3112 13.2094C7.26556 13.2595 7.21684 13.3129 7.17561 13.3561C7.1747 13.3571 7.17343 13.3584 7.17182 13.3601ZM5.76391 12.0533C5.7641 12.0529 5.76831 12.0486 5.77595 12.0416C5.76753 12.0502 5.76371 12.0537 5.76391 12.0533Z" fill="black"/>
<defs>
<linearGradient id="paint0_linear_11097_27342" x1="16" y1="0" x2="16.1825" y2="49.6" gradientUnits="userSpaceOnUse">
<stop offset="0.0742085" stop-color="#FFFEC9"/>
<stop offset="1" stop-color="#BEB962"/>
</linearGradient>
<linearGradient id="paint1_linear_11097_27342" x1="16.2909" y1="4.36364" x2="19.4909" y2="69.5273" gradientUnits="userSpaceOnUse">
<stop stop-color="#DCB8FF"/>
<stop offset="1" stop-color="white"/>
</linearGradient>
</defs>
</svg>
