<svg width="15" height="11" viewBox="0 0 15 11" fill="none" xmlns="http://www.w3.org/2000/svg">
<path d="M7.49935 8.16699C8.33268 8.16699 9.04102 7.87533 9.62435 7.29199C10.2077 6.70866 10.4993 6.00033 10.4993 5.16699C10.4993 4.33366 10.2077 3.62533 9.62435 3.04199C9.04102 2.45866 8.33268 2.16699 7.49935 2.16699C6.66602 2.16699 5.95768 2.45866 5.37435 3.04199C4.79102 3.62533 4.49935 4.33366 4.49935 5.16699C4.49935 6.00033 4.79102 6.70866 5.37435 7.29199C5.95768 7.87533 6.66602 8.16699 7.49935 8.16699ZM7.49935 6.96699C6.99935 6.96699 6.57435 6.79199 6.22435 6.44199C5.87435 6.09199 5.69935 5.66699 5.69935 5.16699C5.69935 4.66699 5.87435 4.24199 6.22435 3.89199C6.57435 3.54199 6.99935 3.36699 7.49935 3.36699C7.99935 3.36699 8.42435 3.54199 8.77435 3.89199C9.12435 4.24199 9.29935 4.66699 9.29935 5.16699C9.29935 5.66699 9.12435 6.09199 8.77435 6.44199C8.42435 6.79199 7.99935 6.96699 7.49935 6.96699ZM7.49935 10.167C5.87713 10.167 4.39935 9.71422 3.06602 8.80866C1.73268 7.9031 0.766016 6.68921 0.166016 5.16699C0.766016 3.64477 1.73268 2.43088 3.06602 1.52533C4.39935 0.61977 5.87713 0.166992 7.49935 0.166992C9.12157 0.166992 10.5993 0.61977 11.9327 1.52533C13.266 2.43088 14.2327 3.64477 14.8327 5.16699C14.2327 6.68921 13.266 7.9031 11.9327 8.80866C10.5993 9.71422 9.12157 10.167 7.49935 10.167Z" fill="#30303D" fill-opacity="0.76"/>
</svg>
