<svg width="94" height="90" viewBox="0 0 94 90" fill="none" xmlns="http://www.w3.org/2000/svg">
<path d="M42.4505 48.0334L36.1672 41.8584C35.3727 41.0639 34.3797 40.6667 33.188 40.6667C31.9964 40.6667 30.9672 41.1 30.1005 41.9667C29.3061 42.7611 28.9089 43.7722 28.9089 45C28.9089 46.2278 29.3061 47.2389 30.1005 48.0334L39.4172 57.35C40.2839 58.2167 41.295 58.65 42.4505 58.65C43.6061 58.65 44.6172 58.2167 45.4839 57.35L63.9005 38.9334C64.7672 38.0667 65.1825 37.0556 65.1464 35.9C65.1102 34.7445 64.695 33.7334 63.9005 32.8667C63.0339 32 62.0047 31.5486 60.813 31.5125C59.6214 31.4764 58.5922 31.8917 57.7255 32.7584L42.4505 48.0334ZM30.3172 87.25L24.0339 76.6334L12.1172 74.0334C11.0339 73.8167 10.1672 73.257 9.51719 72.3542C8.86719 71.4514 8.61441 70.4584 8.75885 69.375L9.95052 57.1334L1.82552 47.8167C1.1033 47.0222 0.742188 46.0834 0.742188 45C0.742188 43.9167 1.1033 42.9778 1.82552 42.1834L9.95052 32.8667L8.75885 20.625C8.61441 19.5417 8.86719 18.5486 9.51719 17.6459C10.1672 16.7431 11.0339 16.1834 12.1172 15.9667L24.0339 13.3667L30.3172 2.75003C30.895 1.81114 31.6894 1.17919 32.7005 0.854192C33.7116 0.529192 34.7227 0.583359 35.7339 1.01669L47.0005 5.78336L58.2672 1.01669C59.2783 0.583359 60.2894 0.529192 61.3005 0.854192C62.3116 1.17919 63.1061 1.81114 63.6839 2.75003L69.9672 13.3667L81.8839 15.9667C82.9672 16.1834 83.8339 16.7431 84.4839 17.6459C85.1339 18.5486 85.3866 19.5417 85.2422 20.625L84.0505 32.8667L92.1755 42.1834C92.8977 42.9778 93.2589 43.9167 93.2589 45C93.2589 46.0834 92.8977 47.0222 92.1755 47.8167L84.0505 57.1334L85.2422 69.375C85.3866 70.4584 85.1339 71.4514 84.4839 72.3542C83.8339 73.257 82.9672 73.8167 81.8839 74.0334L69.9672 76.6334L63.6839 87.25C63.1061 88.1889 62.3116 88.8209 61.3005 89.1459C60.2894 89.4709 59.2783 89.4167 58.2672 88.9834L47.0005 84.2167L35.7339 88.9834C34.7227 89.4167 33.7116 89.4709 32.7005 89.1459C31.6894 88.8209 30.895 88.1889 30.3172 87.25Z" fill="#FED3B3"/>
<path d="M42.4505 48.0334L36.1672 41.8584C35.3727 41.0639 34.3797 40.6667 33.188 40.6667C31.9964 40.6667 30.9672 41.1 30.1005 41.9667C29.3061 42.7611 28.9089 43.7722 28.9089 45C28.9089 46.2278 29.3061 47.2389 30.1005 48.0334L39.4172 57.35C40.2839 58.2167 41.295 58.65 42.4505 58.65C43.6061 58.65 44.6172 58.2167 45.4839 57.35L63.9005 38.9334C64.7672 38.0667 65.1825 37.0556 65.1464 35.9C65.1102 34.7445 64.695 33.7334 63.9005 32.8667C63.0339 32 62.0047 31.5486 60.813 31.5125C59.6214 31.4764 58.5922 31.8917 57.7255 32.7584L42.4505 48.0334ZM30.3172 87.25L24.0339 76.6334L12.1172 74.0334C11.0339 73.8167 10.1672 73.257 9.51719 72.3542C8.86719 71.4514 8.61441 70.4584 8.75885 69.375L9.95052 57.1334L1.82552 47.8167C1.1033 47.0222 0.742188 46.0834 0.742188 45C0.742188 43.9167 1.1033 42.9778 1.82552 42.1834L9.95052 32.8667L8.75885 20.625C8.61441 19.5417 8.86719 18.5486 9.51719 17.6459C10.1672 16.7431 11.0339 16.1834 12.1172 15.9667L24.0339 13.3667L30.3172 2.75003C30.895 1.81114 31.6894 1.17919 32.7005 0.854192C33.7116 0.529192 34.7227 0.583359 35.7339 1.01669L47.0005 5.78336L58.2672 1.01669C59.2783 0.583359 60.2894 0.529192 61.3005 0.854192C62.3116 1.17919 63.1061 1.81114 63.6839 2.75003L69.9672 13.3667L81.8839 15.9667C82.9672 16.1834 83.8339 16.7431 84.4839 17.6459C85.1339 18.5486 85.3866 19.5417 85.2422 20.625L84.0505 32.8667L92.1755 42.1834C92.8977 42.9778 93.2589 43.9167 93.2589 45C93.2589 46.0834 92.8977 47.0222 92.1755 47.8167L84.0505 57.1334L85.2422 69.375C85.3866 70.4584 85.1339 71.4514 84.4839 72.3542C83.8339 73.257 82.9672 73.8167 81.8839 74.0334L69.9672 76.6334L63.6839 87.25C63.1061 88.1889 62.3116 88.8209 61.3005 89.1459C60.2894 89.4709 59.2783 89.4167 58.2672 88.9834L47.0005 84.2167L35.7339 88.9834C34.7227 89.4167 33.7116 89.4709 32.7005 89.1459C31.6894 88.8209 30.895 88.1889 30.3172 87.25Z" fill="url(#paint0_linear_11099_159492)"/>
<defs>
<linearGradient id="paint0_linear_11099_159492" x1="46.9631" y1="-28.301" x2="47.209" y2="89.3543" gradientUnits="userSpaceOnUse">
<stop stop-color="#FFDAAC"/>
<stop offset="1" stop-color="#FFAE17"/>
</linearGradient>
</defs>
</svg>
